<?xml version="1.0" encoding="utf-8"?>
<!-- Generator: Adobe Illustrator 24.0.1, SVG Export Plug-In . SVG Version: 6.00 Build 0)  -->
<svg version="1.1" id="Capa_1" xmlns="http://www.w3.org/2000/svg" xmlns:xlink="http://www.w3.org/1999/xlink" x="0px" y="0px"
	 viewBox="0 0 566.93 566.93" style="enable-background:new 0 0 566.93 566.93;" xml:space="preserve">
<style type="text/css">
	.st0{fill:#F9D6E4;}
	.st1{fill:#45A759;}
	.st2{fill:#15632D;}
	.st3{fill:#F08CA7;}
	.st4{fill:#B52955;}
	.st5{fill:#F6BFD3;}
	.st6{fill:#FFFFFF;}
	.st7{fill:#CD94A9;}
	.st8{fill:#E16874;}
	.st9{fill:#EEEEEE;}
	.st10{fill:#C9C7C7;}
	.st11{clip-path:url(#SVGID_2_);}
	.st12{clip-path:url(#SVGID_2_);fill:#F08CA7;}
	.st13{fill:#CBC9CA;}
	.st14{fill:#E1E0E0;}
	.st15{fill:#B693C3;}
	.st16{fill:#F8DF28;}
	.st17{fill:#65A2D8;}
	.st18{fill:#DEE275;}
	.st19{fill:#FFDB43;}
	.st20{fill:#E75C2A;}
	.st21{fill:#F49D4E;}
	.st22{opacity:0.5;}
	.st23{fill:#F3B0CF;}
	.st24{fill:#704F9A;}
	.st25{fill:#616160;}
	.st26{fill:#5AE4A7;}
	.st27{fill:#FF0000;}
	.st28{fill:#82CEE0;}
	.st29{fill:#9E6D0B;}
	.st30{fill:#828E0C;}
	.st31{fill:#FFFF00;}
	.st32{clip-path:url(#SVGID_4_);}
	.st33{clip-path:url(#SVGID_4_);fill:#F08CA7;}
	.st34{clip-path:url(#SVGID_6_);}
	.st35{clip-path:url(#SVGID_6_);fill:#F08CA7;}
	.st36{fill:none;stroke:#B52955;stroke-width:3;stroke-linecap:round;stroke-linejoin:round;stroke-miterlimit:10;}
</style>
<g>
	<g>
		<g>
			<path class="st2" d="M283.18,263.86c-1.14,0-2.07-0.93-2.07-2.07V67.6c0-1.14,0.93-2.07,2.07-2.07s2.07,0.93,2.07,2.07v194.18
				C285.25,262.93,284.32,263.86,283.18,263.86z"/>
		</g>
		<path class="st1" d="M294.25,137.14c2.52-4.27,5.61-8.58,10.34-10.4c4.71-1.69,11.4,0.42,12.77,5.35c0.84,3.18-0.8,6.36-2.52,9.11
			c-7.34,11.47-18.68,20.46-31.67,25.3C285.21,156.19,288.98,146.19,294.25,137.14z"/>
		<path class="st1" d="M294.25,168.21c2.52-4.27,5.61-8.58,10.34-10.4c4.71-1.69,11.4,0.42,12.77,5.35c0.84,3.18-0.8,6.36-2.52,9.11
			c-7.34,11.47-18.68,20.46-31.67,25.3C285.21,187.27,288.98,177.27,294.25,168.21z"/>
		<path class="st1" d="M283.75,167.73c-12.98-4.84-24.33-13.83-31.67-25.3c-1.71-2.75-3.36-5.92-2.52-9.11
			c1.37-4.93,8.06-7.04,12.77-5.35c4.73,1.82,7.82,6.13,10.34,10.4C277.95,147.43,281.72,157.43,283.75,167.73z"/>
		<path class="st1" d="M294.25,103.37c2.52-4.27,5.61-8.58,10.34-10.4c4.71-1.69,11.4,0.42,12.77,5.35c0.84,3.18-0.8,6.36-2.52,9.11
			c-7.34,11.47-18.68,20.46-31.67,25.3C285.21,122.43,288.98,112.43,294.25,103.37z"/>
		<path class="st1" d="M283.75,133.96c-12.98-4.84-24.33-13.83-31.67-25.3c-1.71-2.75-3.36-5.92-2.52-9.11
			c1.37-4.93,8.06-7.04,12.77-5.35c4.73,1.82,7.82,6.13,10.34,10.4C277.95,113.66,281.72,123.66,283.75,133.96z"/>
		<path class="st1" d="M294.25,67.5c2.52-4.27,5.61-8.58,10.34-10.4c4.71-1.69,11.4,0.42,12.77,5.35c0.84,3.18-0.8,6.36-2.52,9.11
			c-7.34,11.47-18.68,20.46-31.67,25.3C285.21,86.55,288.98,76.55,294.25,67.5z"/>
		<path class="st1" d="M274.17,43.46c-0.63-4.92-0.85-10.22,1.77-14.56c2.68-4.22,9.25-6.67,13.37-3.62c2.62,2,3.27,5.51,3.61,8.73
			c1.25,13.56-2.18,27.62-9.46,39.41C278.73,64.05,275.57,53.84,274.17,43.46z"/>
		<path class="st1" d="M283.75,98.08c-12.98-4.84-24.33-13.83-31.67-25.3c-1.71-2.75-3.36-5.92-2.52-9.11
			c1.37-4.93,8.06-7.04,12.77-5.35c4.73,1.82,7.82,6.13,10.34,10.4C277.95,77.79,281.72,87.79,283.75,98.08z"/>
		<path class="st1" d="M283.75,198.66c-12.98-4.84-24.33-13.83-31.67-25.3c-1.71-2.75-3.36-5.92-2.52-9.11
			c1.37-4.93,8.06-7.04,12.77-5.35c4.73,1.82,7.82,6.13,10.34,10.4C277.95,178.36,281.72,188.36,283.75,198.66z"/>
	</g>
	<g>
		<path class="st3" d="M376.74,521.7c0,0-0.02-0.05-0.05-0.12C375.87,521.19,376.74,521.7,376.74,521.7z"/>
		<path class="st3" d="M539.25,451.6c-2.9-6.26-6.97-11.92-11.89-16.71c10.64-33.05-8.46-74.85-43.98-81.91
			c1.19-21.78-7.59-44.14-25.81-57.09c-6.93-4.93-14.95-7.88-23.39-8.82c-0.65-0.07-1.18,0.05-1.6,0.29
			c-1.43-1.57-1.86-3.03-1.86-3.03s-5-10.23-20.3-19.58c-15.3-9.35-32.56-4.45-38.01-3.04c-0.6,0.16-1.14,0.24-1.61,0.28
			c-8.69-35.24-51.15-53.23-84.11-42.03c-9.71,3.3-18.54,8.68-26.27,15.38c-25.81-11.31-56.6-3.13-72.61,20.43
			c-0.29,0.43-0.44,0.85-0.49,1.26c-1.59,0.38-2.75,0.33-2.75,0.33s0.81-2.33-20.83,3.1c-21.64,5.44-26.85,24.89-28.9,30.3
			c-0.17,0.44-0.35,0.83-0.56,1.19c-0.6-0.4-1.36-0.6-2.24-0.42c-30.05,5.85-50.15,35.13-45.35,65.16
			c-29.14,11.68-44.9,42.07-45.41,72.44c0,0-0.01,0.01-0.01,0.01c-18.2,17.59-24.19,44.58-13.95,67.9
			c9.08,20.69,29.5,34.69,51.65,37.61c15.44,2.04,31.21-1.18,44.6-9.13c0.55-0.33,0.92-0.75,1.15-1.21
			c0.83,0.21,1.34,0.44,1.34,0.44s12.09,3.78,21.99,5.27c9.91,1.49,23.19,1.32,32.84-4.76c9.65-6.08,11.99-0.89,11.99-0.89
			s11.44,7.79,20.32,13.8c8.88,6.01,22.42,5.24,29.97,3.88c7.55-1.37,26.08-8.38,31.43-16.02c5.35-7.64,7.56-1.82,7.56-1.82
			s7.13,7.4,23.88,14.33c16.75,6.92,32.49,2.23,40.7,0c8.2-2.23,19.29-9.53,23.85-15.26c4.1-5.14,5.8-2.32,6.11-1.69
			c0.74,0.36,2.89,1.48,8.41,4.45c11.55,6.21,26.35,7.09,38.83,5.78c12.48-1.31,23.48-5.42,27.02-8.74c0.96-0.9,1.87-1.47,2.78-1.76
			c-0.05,0.95,0.32,1.93,1.32,2.6c22.18,14.93,52.35,12.49,71.74-5.92C544.67,501.03,549.59,473.9,539.25,451.6z"/>
	</g>
	<path class="st3" d="M529.72,408.43c0.48,4.08,0.3,7.43-0.2,10.31c-1.34,7.68-4.73,14.94-1.72,17.01
		c3.01,2.07,16.6,19.23,15.98,36.66c-0.62,17.43-6.82,29.83-12.91,37.43c-6.1,7.59-14.19,15.16-29.02,17.9
		c-14.83,2.74-32.83-0.67-37.69-4.66c-4.86-3.99-7.66-5-11.2-1.68c-3.54,3.32-14.54,7.43-27.02,8.74
		c-12.48,1.31-27.28,0.43-38.83-5.78c-11.55-6.21-8.36-4.33-8.36-4.33s-1.6-4.15-6.16,1.58c-4.56,5.73-15.65,13.03-23.85,15.26
		c-8.2,2.23-23.95,6.92-40.7,0c-16.75-6.92-23.88-14.33-23.88-14.33s-2.2-5.82-7.56,1.82c-5.35,7.64-23.88,14.65-31.43,16.02
		c-7.55,1.37-21.09,2.13-29.97-3.88c-8.88-6.01-22.66-18.98-32.31-12.91c-9.65,6.07-22.93,6.25-32.84,4.76
		c-9.91-1.49-21.99-5.27-21.99-5.27s-5.25-2.38-9.61,1.28c-4.36,3.66-37.22,12.4-56.62,0c-19.4-12.4-31.09-24.98-33.82-43.12
		c-2.73-18.15,0.77-28.65,5.74-36.45c4.96-7.79,7.99-11.5,7.99-11.5s3.89-2.93,4.51-9.61c0.62-6.68,3.58-32.55,16.41-45.25
		c12.83-12.7,21.4-18.11,21.4-18.11s7.84-0.74,7.32-7.05c-0.52-6.31,1.67-20.08,2.1-24.24c0,0,3.56-16.16,16.18-24.26
		c12.62-8.1,20.06-10.87,20.06-10.87s5.06,0.6,7.12-4.81c2.06-5.41,7.27-24.86,28.9-30.3c21.64-5.44,20.83-3.1,20.83-3.1
		s6.09,0.26,9.42-4.95c3.33-5.21,16.03-17.17,32.19-18.46c16.16-1.29,30.99,3.15,30.99,3.15s2.6,3.98,10.98-3.39
		c8.37-7.37,21.14-14.78,41.04-13.55c19.9,1.24,32.2,5.61,40.85,14.54c8.64,8.92,15.98,19.51,15.98,19.51l1,5.13
		c0,0-0.05,3.77,5.4,2.37c5.45-1.4,22.71-6.31,38.01,3.04c15.3,9.35,20.3,19.58,20.3,19.58s1.36,4.64,7.32,6.24
		s28.62,9.66,35.54,28.51c6.92,18.85,6.97,26.78,6.97,26.78l0.08,5.57c0,0,0.05,2.58,5.18,5.11c5.13,2.53,23.35,6.58,32.7,25.9
		C526.34,392.82,528.93,401.64,529.72,408.43"/>
	<g>
		<path class="st4" d="M384.88,486.11c3.74-1.9,7.77-1.94,11.81-1.1c4.25,0.88,8.9,2.53,11.99,5.7c6.23,6.41,6.55,16.25,6.2,24.63
			c-0.12,2.86,4.32,3.43,4.44,0.55c0.42-10.04-0.25-21.37-7.96-28.78c-3.7-3.56-8.84-5.37-13.77-6.46
			c-4.86-1.07-9.99-0.92-14.49,1.35C380.55,483.29,382.3,487.42,384.88,486.11L384.88,486.11z"/>
	</g>
	<g>
		<path class="st4" d="M164.16,509.87c-1.9-3.74-1.94-7.77-1.1-11.81c0.88-4.25,2.53-8.9,5.7-11.99c6.41-6.23,16.25-6.55,24.63-6.2
			c2.86,0.12,3.43-4.32,0.55-4.44c-10.04-0.42-21.37,0.25-28.78,7.96c-3.56,3.7-5.37,8.84-6.46,13.77
			c-1.07,4.86-0.92,9.99,1.35,14.49C161.34,514.2,165.46,512.45,164.16,509.87L164.16,509.87z"/>
	</g>
	<circle class="st0" cx="281.94" cy="411.16" r="128.52"/>
	<path class="st3" d="M347.04,321.67c-0.82-1.57-2.36-1.75-3.59-1.16c-1.48-3.54-2.84-7.01-2.67-7.87c0.37-1.86-0.49-5.77-0.49-5.77
		s-13.71,0.81-18.63,0c-4.93-0.81-22.92-6.05-25.81-8.03c-2.89-1.98-5.18-3.71-7.13,0c-1.96,3.71-4.43,7.11-15.13,13.6
		c-10.71,6.49-14.93,8.85-18.74,8.96c-3.81,0.1-12.89-1.25-12.89-1.25s-0.03-0.01-0.09-0.01c-0.86-2.74-5.64-2.41-5.73,0.99
		c-0.44,16.67,6.98,36.55,24.39,41.52c10.11,2.88,25.5,1.73,28.34-10.63c0.04-0.2,0.08-0.39,0.12-0.59c1.57,0.4,3.16,0.72,4.76,0.95
		c7.01,0.98,14.96,0.23,20.65-4.37c1.43-1.15,2.59-2.53,3.5-4.04c5.43,3.74,12.1,6.17,18.74,4.97c7.7-1.39,12.85-7.84,13.26-15.52
		C350.1,329.28,348.92,325.28,347.04,321.67z"/>
	<path class="st3" d="M191.28,349.31c0,0,31.49,20.4,68.03-17.87c0,0,36.43-37.77-8.78-38.27S188.94,329.92,191.28,349.31z"/>
	<path class="st3" d="M331.62,330.3c0,0,6.53,39.6,57.95,39.77c0,0,31.75-37.12,3.17-61.81S331.62,300.43,331.62,330.3z"/>
	<path class="st3" d="M309.9,273.72l-36.32,38.72c0,0-8.98,13.92-37.45,8.69c0,0-10.58,13.3-37.95,23.72c0,0,17.24,52.6-44.45,56.52
		C153.72,401.36,129.7,260.5,309.9,273.72z"/>
	<path class="st3" d="M389.57,370.07c0,0-21.29,51.52,4.53,60.51c25.83,8.99,73.76-1.16,47.16-44.77S389.57,370.07,389.57,370.07z"
		/>
	<path class="st3" d="M168.66,370.07c0,0,21.29,51.52-4.53,60.51c-25.83,8.99-73.76-1.16-47.16-44.77S168.66,370.07,168.66,370.07z"
		/>
	<path class="st3" d="M279.27,267.04c0,0,8.54,55.61,81,35.61C360.27,302.65,348.57,237.5,279.27,267.04z"/>
	<path class="st3" d="M341.49,287.08c0,0-20.58,48.29,33.5,59.84c0,0-16.1,68.23,72.76,53.24
		C447.74,400.16,455.24,259.21,341.49,287.08z"/>
	<g>
		<path class="st4" d="M287.48,294.51c-4.94,8.52-12.63,15.26-21.58,19.34c-10.4,4.75-21.99,4.79-32.75,1.19
			c-3.59-1.2-5.12,4.46-1.56,5.65c12.02,4.02,24.84,3.68,36.46-1.42c10.14-4.45,18.93-12.23,24.49-21.81
			C294.44,294.2,289.38,291.24,287.48,294.51L287.48,294.51z"/>
	</g>
	<g>
		<path class="st4" d="M273.09,261.7c-0.23,6.06,1.28,12.5,3.5,18.08c5.03,12.66,15.08,21.87,27.91,26.35
			c11.16,3.9,23.37,4.2,35.03,3.11c3.72-0.35,3.76-6.21,0-5.86c-16.51,1.54-35.53,0.36-48.2-11.72
			c-6.84-6.52-10.67-15.22-12.03-24.45c-0.12-0.81,0.07,0.62-0.02-0.16c-0.03-0.22-0.06-0.44-0.08-0.67
			c-0.04-0.41-0.08-0.81-0.12-1.22c-0.05-0.6-0.09-1.21-0.11-1.81c-0.02-0.55-0.04-1.1-0.02-1.65
			C279.09,257.93,273.23,257.94,273.09,261.7L273.09,261.7z"/>
	</g>
	<g>
		<path class="st4" d="M436.52,398.31c-16.48,7.9-36.6,4.46-49.31-8.7c-11.78-12.2-14.98-31.1-7.46-46.4
			c4.43-9.01,11.84-15.92,20.93-20.09c3.42-1.57,0.45-6.63-2.96-5.06c-18.52,8.5-30.07,28.29-27.56,48.65
			c2.3,18.63,15.82,34.35,33.77,39.72c11.81,3.53,24.48,2.25,35.55-3.05C442.87,401.74,439.9,396.69,436.52,398.31L436.52,398.31z"
			/>
	</g>
	<g>
		<path class="st4" d="M415.29,407.59c-0.85-1.08,0.21,0.31,0.48,0.68c0.77,1.08,1.49,2.2,2.18,3.33c2.31,3.77,4.32,7.74,5.9,11.87
			c4.62,12.13,5.71,25.36,1.15,37.68c-3.55,9.59-10.28,17.55-17.95,24.14c-2.86,2.46,1.3,6.59,4.14,4.14
			c13.43-11.55,22.79-27.25,22.65-45.33c-0.09-11.92-3.97-23.7-9.92-33.94c-1.35-2.33-2.82-4.6-4.49-6.72
			C417.1,400.48,412.98,404.65,415.29,407.59L415.29,407.59z"/>
	</g>
	<g>
		<path class="st4" d="M374.98,346.92c-12.39-4.06-22.88-13.18-27.96-25.28c-4.99-11.9-4.29-25.76,1.86-37.09
			c12.64-23.31,43.68-30.79,65.94-16.73c12.01,7.58,19.78,20.56,20.57,34.75c0.21,3.75,6.07,3.77,5.86,0
			c-0.8-14.28-7.56-27.56-18.79-36.46c-11.52-9.14-26.38-12.89-40.88-10.73c-29.58,4.39-50.45,34.47-41.7,63.63
			c4.83,16.08,17.72,28.4,33.54,33.58C377.02,353.75,378.56,348.09,374.98,346.92L374.98,346.92z"/>
	</g>
	<g>
		<path class="st4" d="M376.49,295.44c12.97-11.33,31.69-12.96,46.34-3.91c14.16,8.75,21.81,25.34,20.91,41.75
			c-0.58,10.49-4.81,20.56-11.95,28.28c-2.56,2.77,1.58,6.92,4.14,4.14c14.24-15.4,17.52-38.22,9-57.27
			c-7.21-16.13-23.03-27.9-40.87-28.68c-11.73-0.51-22.94,3.87-31.72,11.53C369.49,293.78,373.65,297.91,376.49,295.44
			L376.49,295.44z"/>
	</g>
	<path class="st3" d="M433.76,390.19c0,0,26.21,7.69,24.77,47.22c-1.44,39.53-15.76,50.61-20.54,61.82
		c-4.78,11.21,18.18,23.77,33.47,8.02c15.29-15.75,29.28-49.64,21.73-80.74c-7.54-31.1-17.3-39.47-34.66-50.8
		C441.18,364.39,419.21,375.37,433.76,390.19z"/>
	<g>
		<path class="st4" d="M407.1,366.65c20.85-2.66,41.77,3.58,57.61,17.46c15.17,13.29,24.92,32.26,27.27,52.27
			c2.43,20.69-2.54,41.88-14.49,59c-11.26,16.15-28.55,27.73-47.97,31.26c-25.62,4.66-40.44,2.94-57.33-16.45
			c-2.48-2.85-6.61,1.31-4.14,4.14c16.28,18.69,29.62,20.92,54.53,19.05c21.01-1.57,40.62-11.83,54.33-27.76
			c29.33-34.08,28.39-87.63-2.56-120.38C457.1,367,432.09,357.6,407.1,360.79C403.41,361.26,403.37,367.13,407.1,366.65
			L407.1,366.65z"/>
	</g>
	<path class="st3" d="M79.14,428.36c0,0,10.51-38.57,31.78-50.99c21.28-12.43,30.74-15.29,39.53-15.81s16.47,1.46,14.82,6.12
		s-29.92,11.4-35.41,29.17c-5.49,17.77-16.47,47.84-4.67,70.69c11.8,22.85,20.59,46.18,12.35,47.83
		c-8.24,1.65-49.28-12.52-55.8-43.73C75.23,440.43,76.95,437.41,79.14,428.36z"/>
	<g>
		<g>
			<path class="st4" d="M133.68,401.29c18.7,8.97,41.5,5.59,56.15-9.34c13.71-13.97,17.3-35.31,9.01-53.03
				c-4.75-10.14-13.25-18.29-23.39-22.94c-3.4-1.56-6.39,3.49-2.96,5.06c16.39,7.53,26.63,24.27,24.79,42.39
				c-1.65,16.16-13.47,30.13-28.85,35.03c-10.46,3.33-21.89,2.52-31.78-2.23C133.26,394.61,130.28,399.66,133.68,401.29
				L133.68,401.29z"/>
		</g>
		<g>
			<path class="st4" d="M153.72,401.36c-12.86,16.33-18.57,40.28-10.95,59.98c3.97,10.27,10.89,18.89,19.19,26.02
				c2.85,2.45,7.01-1.68,4.14-4.14c-12.59-10.82-21.35-25.18-20.91-42.16c0.27-10.69,3.9-21.16,9.29-30.33
				c0.82-1.4,1.69-2.78,2.62-4.11c0.31-0.45,1.6-2.16,0.77-1.1C160.18,402.58,156.06,398.4,153.72,401.36L153.72,401.36z"/>
		</g>
		<g>
			<path class="st4" d="M199.73,350.49c13.97-4.57,25.77-14.68,31.59-28.28c5.77-13.49,5.15-29.03-1.63-42.03
				c-13.89-26.63-49.55-35.44-74.64-19.3c-13.64,8.77-22.24,23.42-23.15,39.6c-0.21,3.77,5.65,3.76,5.86,0
				c1.5-26.65,27.11-45.57,53.06-41.42c25.97,4.15,44.42,30.06,36.92,55.9c-4.14,14.25-15.57,25.3-29.56,29.88
				C194.61,346.01,196.13,351.67,199.73,350.49L199.73,350.49z"/>
		</g>
		<g>
			<path class="st4" d="M200.82,289.22c-14.91-13.02-36.47-15.31-53.44-4.82c-15.98,9.87-25,28.68-23.78,47.3
				c0.78,11.92,5.52,23.16,13.64,31.94c2.57,2.78,6.7-1.38,4.14-4.14c-12.35-13.36-15.41-33.56-8.08-50.17
				c6.23-14.12,19.73-24.9,35.42-25.75c10.28-0.56,20.23,3.04,27.96,9.8C199.5,295.83,203.66,291.7,200.82,289.22L200.82,289.22z"/>
		</g>
		<g>
			<path class="st4" d="M166.05,358.71c-20.4-2.6-41.04,3.09-57.35,15.58c-15.6,11.95-26.64,29.3-31.33,48.35
				c-9.58,38.92,7.79,82.81,44.48,100.84c22.69,11.15,49.42,10.41,71.63-1.62c3.32-1.8,0.36-6.86-2.96-5.06
				c-18.73,10.14-41.05,11.62-60.86,3.78c-16.67-6.6-30.38-19.56-38.91-35.21c-18.08-33.17-11.52-76.78,16.56-102.33
				c15.97-14.53,37.35-21.2,58.75-18.47C169.78,365.04,169.75,359.18,166.05,358.71L166.05,358.71z"/>
		</g>
	</g>
	<g>
		<g>
			<path class="st5" d="M146.62,298.49c-12.85,11.37-15.83,30.7-7.77,45.7c1.79,3.32,6.85,0.37,5.06-2.96
				c-6.88-12.8-4.01-28.98,6.86-38.59C153.59,300.13,149.43,296,146.62,298.49L146.62,298.49z"/>
		</g>
		<g>
			<path class="st5" d="M170.56,290.38c-4.83-0.41-9.78,0.34-14.27,2.17c-0.74,0.3-1.33,0.63-1.75,1.35
				c-0.37,0.63-0.52,1.55-0.3,2.26c0.44,1.36,2.08,2.67,3.6,2.05c2.07-0.84,4.21-1.46,6.42-1.82c0.12-0.02,0.24-0.04,0.36-0.06
				c-0.37,0.05-0.39,0.05-0.05,0.01c0.24-0.03,0.49-0.06,0.73-0.08c0.58-0.05,1.15-0.09,1.73-0.11c1.17-0.04,2.35,0,3.52,0.1
				c1.53,0.13,3-1.44,2.93-2.93C173.41,291.61,172.2,290.52,170.56,290.38L170.56,290.38z"/>
		</g>
		<g>
			<path class="st5" d="M269.26,356.66c1.88,0.15,3.77,0.15,5.66,0.04c0.78-0.04,1.51-0.3,2.07-0.86c0.51-0.51,0.89-1.34,0.86-2.07
				c-0.03-0.76-0.28-1.54-0.86-2.07c-0.55-0.51-1.3-0.9-2.07-0.86c-1.88,0.11-3.77,0.11-5.66-0.04c-0.71-0.06-1.58,0.37-2.07,0.86
				c-0.51,0.51-0.89,1.34-0.86,2.07c0.03,0.76,0.28,1.54,0.86,2.07C267.79,356.35,268.45,356.6,269.26,356.66L269.26,356.66z"/>
		</g>
		<g>
			<path class="st5" d="M243.88,330.76c0.01,6.73,3.04,13.92,7.81,18.6c2.5,2.45,5.48,4.2,8.73,5.46c1.48,0.57,3.22-0.63,3.6-2.05
				c0.46-1.66-0.57-3.03-2.05-3.6c-0.19-0.07-0.38-0.14-0.56-0.22c0.06,0.03,0.32,0.14,0.02,0c-0.31-0.14-0.62-0.28-0.92-0.44
				c-0.58-0.29-1.15-0.61-1.71-0.96c-0.53-0.33-1.04-0.68-1.54-1.06c0.43,0.33-0.19-0.16-0.31-0.27c-0.26-0.22-0.51-0.44-0.75-0.67
				c-0.42-0.39-0.82-0.8-1.2-1.22c-0.16-0.18-0.32-0.36-0.47-0.54c-0.1-0.12-0.2-0.24-0.3-0.36c-0.28-0.33,0.28,0.38,0.03,0.04
				c-0.65-0.87-1.24-1.78-1.76-2.73c-0.22-0.4-0.43-0.81-0.63-1.23c-0.1-0.22-0.2-0.44-0.3-0.66c-0.07-0.15-0.19-0.52,0.06,0.14
				c-0.05-0.12-0.1-0.25-0.15-0.37c-0.31-0.82-0.6-1.64-0.84-2.49c-0.22-0.76-0.4-1.53-0.55-2.3c-0.06-0.32-0.12-0.65-0.17-0.97
				c-0.02-0.13-0.03-0.26-0.06-0.38c-0.01-0.06,0.09,0.8,0.03,0.19c-0.07-0.64-0.14-1.29-0.14-1.93c0-1.58-1.34-2.93-2.93-2.93
				C245.22,327.83,243.88,329.17,243.88,330.76L243.88,330.76z"/>
		</g>
		<g>
			<path class="st5" d="M292.55,346.55c2.6,0.54,5.35,0.72,7.99,0.56c0.78-0.05,1.51-0.3,2.07-0.86c0.51-0.51,0.89-1.34,0.86-2.07
				c-0.03-0.76-0.28-1.54-0.86-2.07c-0.55-0.51-1.3-0.9-2.07-0.86c-1.95,0.12-3.91,0.03-5.85-0.23c0.26,0.03,0.52,0.07,0.78,0.1
				c-0.46-0.06-0.91-0.13-1.36-0.22c-0.78-0.16-1.56-0.11-2.26,0.3c-0.61,0.36-1.19,1.05-1.35,1.75c-0.17,0.75-0.13,1.59,0.3,2.26
				C291.2,345.83,291.8,346.4,292.55,346.55L292.55,346.55z"/>
		</g>
		<g>
			<path class="st5" d="M227.07,237.13c-6.94,0.94-13.65,3.46-19.5,7.31c-1.32,0.87-1.88,2.59-1.05,4.01
				c0.77,1.31,2.68,1.92,4.01,1.05c5.55-3.65,11.44-5.82,18.1-6.72c1.53-0.21,2.49-2.24,2.05-3.6
				C230.13,237.5,228.7,236.91,227.07,237.13L227.07,237.13z"/>
		</g>
		<g>
			<path class="st5" d="M245.77,238.56c-2.72-0.62-5.49-1.04-8.28-1.3c-0.71-0.06-1.59,0.37-2.07,0.86
				c-0.51,0.51-0.89,1.34-0.86,2.07c0.03,0.76,0.28,1.54,0.86,2.07c0.6,0.55,1.26,0.78,2.07,0.86c0.83,0.08,1.65,0.17,2.47,0.28
				c-0.26-0.03-0.52-0.07-0.78-0.1c1.69,0.23,3.36,0.54,5.03,0.92c0.76,0.17,1.57,0.11,2.26-0.3c0.61-0.36,1.19-1.05,1.35-1.75
				C248.16,240.67,247.37,238.93,245.77,238.56L245.77,238.56z"/>
		</g>
		<g>
			<path class="st5" d="M288.24,278.91c3.87,7.14,9.97,12.83,17.28,16.33c1.38,0.66,3.23,0.43,4.01-1.05
				c0.69-1.31,0.42-3.3-1.05-4.01c-1.92-0.92-3.76-1.97-5.5-3.19c-0.18-0.12-0.36-0.25-0.53-0.38c-0.07-0.05-0.69-0.51-0.43-0.31
				c0.29,0.22-0.25-0.2-0.31-0.24c-0.2-0.16-0.39-0.32-0.59-0.48c-0.72-0.61-1.42-1.24-2.09-1.9c-0.62-0.61-1.21-1.24-1.78-1.9
				c-0.28-0.32-0.55-0.64-0.81-0.97c-0.17-0.22-0.4-0.52-0.1-0.12c-0.13-0.18-0.27-0.36-0.4-0.54c-0.98-1.33-1.85-2.74-2.64-4.19
				c-0.73-1.35-2.71-1.89-4.01-1.05C287.93,275.78,287.46,277.47,288.24,278.91L288.24,278.91z"/>
		</g>
		<g>
			<path class="st5" d="M283.57,264.74c0.34,2.31,0.86,4.59,1.57,6.82c0.23,0.72,0.69,1.36,1.35,1.75c0.63,0.37,1.55,0.52,2.26,0.3
				c0.71-0.23,1.39-0.67,1.75-1.35c0.36-0.68,0.54-1.5,0.3-2.26c-0.71-2.23-1.23-4.51-1.57-6.82c-0.1-0.68-0.79-1.42-1.35-1.75
				c-0.63-0.37-1.55-0.52-2.26-0.3c-0.71,0.23-1.39,0.67-1.75,1.35c-0.1,0.23-0.2,0.47-0.3,0.7
				C283.43,263.7,283.43,264.22,283.57,264.74L283.57,264.74z"/>
		</g>
		<g>
			<g>
				<path class="st5" d="M102.97,344.17c-0.41-7.39,1.77-14.73,6.4-20.46c0.99-1.23,1.2-2.94,0-4.14c-1.03-1.03-3.15-1.24-4.14,0
					c-5.62,6.97-8.62,15.62-8.12,24.61c0.09,1.58,1.28,2.93,2.93,2.93C101.56,347.1,103.06,345.75,102.97,344.17L102.97,344.17z"/>
			</g>
			<g>
				<path class="st5" d="M107.06,357.3c-0.76-1.28-1.43-2.6-2-3.97c0.1,0.23,0.2,0.47,0.3,0.7c-0.39-0.92-0.73-1.86-1.03-2.82
					c-0.23-0.72-0.69-1.36-1.35-1.75c-0.63-0.37-1.55-0.52-2.26-0.3c-0.71,0.23-1.39,0.67-1.75,1.35c-0.36,0.68-0.54,1.5-0.3,2.26
					c0.83,2.6,1.94,5.14,3.33,7.49c0.38,0.64,1.04,1.15,1.75,1.35c0.7,0.19,1.64,0.11,2.26-0.3
					C107.33,360.46,107.89,358.72,107.06,357.3L107.06,357.3z"/>
			</g>
		</g>
		<g>
			<g>
				<path class="st5" d="M59.32,436.59c-0.26-2.74-0.3-5.49-0.13-8.23c0.09-1.53-1.42-3-2.93-2.93c-1.67,0.07-2.83,1.29-2.93,2.93
					c-0.17,2.74-0.13,5.49,0.13,8.23c0.07,0.79,0.28,1.49,0.86,2.07c0.51,0.51,1.34,0.89,2.07,0.86c0.76-0.03,1.54-0.28,2.07-0.86
					C58.96,438.12,59.39,437.35,59.32,436.59L59.32,436.59z"/>
			</g>
			<g>
				<path class="st5" d="M64.08,455.75c-0.22-0.46-0.42-0.93-0.63-1.39c-0.13-0.3-0.12-0.27,0.04,0.09
					c-0.06-0.14-0.11-0.27-0.17-0.41c-0.08-0.2-0.16-0.41-0.24-0.61c-0.39-1-0.74-2.01-1.06-3.04c-0.64-2.06-1.13-4.15-1.5-6.28
					c-0.26-1.51-2.2-2.5-3.6-2.05c-1.63,0.53-2.33,1.98-2.05,3.6c0.78,4.52,2.2,8.88,4.15,13.03c0.66,1.39,2.76,1.86,4.01,1.05
					C64.46,458.84,64.78,457.24,64.08,455.75L64.08,455.75z"/>
			</g>
		</g>
		<g>
			<g>
				<path class="st5" d="M87.42,428.75c-6.09,29.3,5.36,60.46,30.86,76.83c3.18,2.04,6.13-3.03,2.96-5.06
					c-23.2-14.89-33.7-43.56-28.17-70.21C93.84,426.63,88.19,425.06,87.42,428.75L87.42,428.75z"/>
			</g>
			<g>
				<path class="st5" d="M95.18,408.38c-1.72,3.05-3.19,6.23-4.48,9.49c-0.26,0.66-0.05,1.67,0.3,2.26
					c0.36,0.61,1.05,1.19,1.75,1.35c0.75,0.17,1.59,0.13,2.26-0.3c0.68-0.44,1.05-1,1.35-1.75c0.22-0.57,0.45-1.13,0.69-1.69
					c-0.1,0.23-0.2,0.47-0.3,0.7c1.03-2.43,2.2-4.8,3.49-7.1c0.75-1.34,0.36-3.26-1.05-4.01C97.8,406.6,95.98,406.96,95.18,408.38
					L95.18,408.38z"/>
			</g>
		</g>
		<g>
			<g>
				<path class="st5" d="M528.45,482.21c-3.56,17.04-18.45,29.49-35.92,29.61c-3.77,0.03-3.78,5.89,0,5.86
					c19.94-0.14,37.48-14.35,41.57-33.91C534.87,480.09,529.22,478.52,528.45,482.21L528.45,482.21z"/>
			</g>
			<g>
				<path class="st5" d="M528.17,466.66c0.3,1.29,0.54,2.59,0.72,3.9c-0.03-0.26-0.07-0.52-0.1-0.78c0.23,1.75,0.34,3.51,0.35,5.28
					c0,1.53,1.35,3,2.93,2.93c1.58-0.07,2.93-1.29,2.93-2.93c-0.01-3.34-0.41-6.7-1.17-9.96c-0.35-1.49-2.14-2.52-3.6-2.05
					C528.66,463.56,527.8,465.06,528.17,466.66L528.17,466.66z"/>
			</g>
		</g>
		<g>
			<path class="st5" d="M475.2,427.28c9.38,31.77-5.85,68.6-38.2,79.69c-3.55,1.22-2.02,6.88,1.56,5.65
				c35.33-12.11,52.62-51.92,42.3-86.9C479.79,422.12,474.13,423.65,475.2,427.28L475.2,427.28z"/>
		</g>
		<g>
			<path class="st5" d="M458.8,400.19c1.93,1.89,3.75,3.9,5.44,6.01c0.1,0.12,0.19,0.24,0.29,0.36c0.04,0.05,0.37,0.43,0.12,0.16
				c-0.27-0.31,0.14,0.19,0.19,0.25c0.09,0.12,0.18,0.25,0.28,0.37c0.41,0.55,0.82,1.12,1.21,1.68c0.79,1.14,1.55,2.31,2.27,3.49
				c0.8,1.31,2.66,1.92,4.01,1.05c1.31-0.85,1.9-2.61,1.05-4.01c-2.99-4.92-6.6-9.49-10.71-13.51c-1.1-1.07-3.07-1.18-4.14,0
				C457.74,397.21,457.63,399.05,458.8,400.19L458.8,400.19z"/>
		</g>
		<g>
			<path class="st5" d="M426.95,307.81c9.8,12.33,10.2,30.08,1.44,43.03c-2.12,3.13,2.96,6.07,5.06,2.96
				c10.34-15.3,9.03-35.82-2.36-50.14C428.75,300.71,424.63,304.88,426.95,307.81L426.95,307.81z"/>
		</g>
		<g>
			<path class="st5" d="M410.36,296.7c0.93,0.26,1.85,0.55,2.75,0.89c0.38,0.14,0.78,0.37,1.18,0.46c-0.42-0.18-0.49-0.21-0.2-0.08
				c0.11,0.05,0.22,0.1,0.33,0.14c0.22,0.1,0.44,0.2,0.66,0.3c1.69,0.8,3.31,1.73,4.85,2.79c1.27,0.87,3.31,0.28,4.01-1.05
				c0.79-1.49,0.3-3.08-1.05-4.01c-3.33-2.28-7.07-4.01-10.96-5.09c-1.48-0.41-3.25,0.51-3.61,2.05
				C407.96,294.64,408.78,296.26,410.36,296.7L410.36,296.7z"/>
		</g>
	</g>
	<polygon class="st7" points="280.41,428.36 268.45,454.69 293.02,454.69 	"/>
	
		<ellipse transform="matrix(0.8977 -0.4407 0.4407 0.8977 -181.6118 108.6041)" class="st0" cx="143.04" cy="445.35" rx="27.88" ry="33.69"/>
	
		<ellipse transform="matrix(0.4407 -0.8977 0.8977 0.4407 -166.9438 622.7716)" class="st0" cx="416.27" cy="445.35" rx="33.69" ry="27.88"/>
	<path class="st4" d="M170.84,409.46c0,0-1.63-54.27,52.03-54.28c28.53,0,42.49,41.24,42.49,41.24s-13.5-42.19-50.58-35
		C175.97,368.95,170.84,409.46,170.84,409.46z"/>
	<path class="st4" d="M387.24,416.13c0,0,1.16-60.55-41.58-60.54c-45.27,0-47.22,40.84-47.22,40.84s9.6-40.09,50.58-35
		C388.24,366.3,387.24,416.13,387.24,416.13z"/>
	<ellipse class="st6" cx="342.33" cy="409.46" rx="44.91" ry="49.75"/>
	<ellipse class="st6" cx="218.93" cy="409.46" rx="48.09" ry="49.75"/>
	<ellipse cx="224.41" cy="411.16" rx="23.48" ry="29.45"/>
	<ellipse cx="337.57" cy="411.16" rx="23.48" ry="29.45"/>
	<path d="M229.01,335.68c0,0-21.63-51.19-41.9-2.34C187.11,333.35,202.61,304.35,229.01,335.68z"/>
	<path d="M363.28,335.68c0,0-21.63-51.19-41.9-2.34C321.38,333.35,336.88,304.35,363.28,335.68z"/>
	<path d="M327.71,510.6c0,0-35.2-11.9-91.53-0.78c0,0,11.42-40.05,44.63-40.05C317.37,469.77,327.71,510.6,327.71,510.6z"/>
	<g>
		<path class="st17" d="M345.14,182.85c-0.43,0-0.86-0.1-1.28-0.3c-1.45-0.71-2.05-2.45-1.34-3.9l18.48-37.86
			c0.71-1.45,2.45-2.04,3.9-1.34c1.45,0.71,2.05,2.45,1.34,3.9l-18.48,37.86C347.26,182.24,346.22,182.85,345.14,182.85z"/>
	</g>
	<g>
		<path class="st17" d="M361.16,189.67c-1.1,0-2.15-0.63-2.65-1.69c-0.67-1.46-0.04-3.19,1.42-3.87l31.32-14.47
			c1.46-0.67,3.19-0.04,3.87,1.42c0.67,1.46,0.04,3.19-1.42,3.87l-31.32,14.47C361.99,189.58,361.57,189.67,361.16,189.67z"/>
	</g>
	<g>
		<path class="st17" d="M394.49,209.83c-0.13,0-0.26-0.01-0.4-0.03l-33.32-4.52c-1.59-0.22-2.71-1.68-2.5-3.28
			c0.22-1.59,1.7-2.7,3.28-2.5l33.32,4.52c1.59,0.22,2.71,1.68,2.5,3.28C397.17,208.77,395.92,209.83,394.49,209.83z"/>
	</g>
	<g>
		<path class="st17" d="M219.61,182.85c-1.08,0-2.11-0.6-2.62-1.64l-18.48-37.87c-0.71-1.45-0.11-3.19,1.34-3.9
			c1.45-0.7,3.19-0.1,3.9,1.34l18.48,37.87c0.71,1.45,0.11,3.19-1.34,3.9C220.47,182.75,220.04,182.85,219.61,182.85z"/>
	</g>
	<g>
		<path class="st17" d="M203.59,189.67c-0.41,0-0.82-0.09-1.22-0.27l-31.32-14.47c-1.46-0.68-2.1-2.41-1.42-3.87
			c0.67-1.46,2.4-2.1,3.87-1.42l31.32,14.47c1.46,0.68,2.1,2.41,1.42,3.87C205.74,189.04,204.69,189.67,203.59,189.67z"/>
	</g>
	<g>
		<path class="st17" d="M170.26,209.83c-1.43,0-2.68-1.06-2.88-2.52c-0.22-1.6,0.9-3.06,2.5-3.28l33.32-4.52
			c1.58-0.22,3.06,0.9,3.28,2.5s-0.9,3.06-2.5,3.28l-33.32,4.52C170.53,209.82,170.39,209.83,170.26,209.83z"/>
	</g>
</g>
</svg>
