<?xml version="1.0" encoding="utf-8"?>
<!-- Generator: Adobe Illustrator 24.0.1, SVG Export Plug-In . SVG Version: 6.00 Build 0)  -->
<svg version="1.1" id="Capa_1" xmlns="http://www.w3.org/2000/svg" xmlns:xlink="http://www.w3.org/1999/xlink" x="0px" y="0px"
	 viewBox="0 0 566.93 566.93" style="enable-background:new 0 0 566.93 566.93;" xml:space="preserve">
<style type="text/css">
	.st0{fill:#F9D6E4;}
	.st1{fill:#45A759;}
	.st2{fill:#15632D;}
	.st3{fill:#F08CA7;}
	.st4{fill:#B52955;}
	.st5{fill:#F6BFD3;}
	.st6{fill:#FFFFFF;}
	.st7{fill:#CD94A9;}
	.st8{fill:#E16874;}
	.st9{fill:#EEEEEE;}
	.st10{fill:#C9C7C7;}
	.st11{clip-path:url(#SVGID_2_);}
	.st12{clip-path:url(#SVGID_2_);fill:#F08CA7;}
	.st13{fill:#CBC9CA;}
	.st14{fill:#E1E0E0;}
	.st15{fill:#B693C3;}
	.st16{fill:#F8DF28;}
	.st17{fill:#65A2D8;}
	.st18{fill:#DEE275;}
	.st19{fill:#FFDB43;}
	.st20{fill:#E75C2A;}
	.st21{fill:#F49D4E;}
	.st22{opacity:0.5;}
	.st23{fill:#F3B0CF;}
	.st24{fill:#704F9A;}
	.st25{fill:#616160;}
	.st26{fill:#5AE4A7;}
	.st27{fill:#FF0000;}
	.st28{fill:#82CEE0;}
	.st29{fill:#9E6D0B;}
	.st30{fill:#828E0C;}
	.st31{fill:#FFFF00;}
	.st32{clip-path:url(#SVGID_4_);}
	.st33{clip-path:url(#SVGID_4_);fill:#F08CA7;}
	.st34{clip-path:url(#SVGID_6_);}
	.st35{clip-path:url(#SVGID_6_);fill:#F08CA7;}
	.st36{fill:none;stroke:#B52955;stroke-width:3;stroke-linecap:round;stroke-linejoin:round;stroke-miterlimit:10;}
</style>
<g>
	<g>
		<g>
			<g>
				<g>
					<path class="st2" d="M264.73,292.44c-1.14,0-2.07-0.93-2.07-2.07V95.94c0-1.14,0.93-2.07,2.07-2.07c1.14,0,2.07,0.93,2.07,2.07
						v194.43C266.81,291.51,265.88,292.44,264.73,292.44z"/>
				</g>
				<path class="st1" d="M275.82,165.56c2.53-4.28,5.61-8.59,10.35-10.42c4.72-1.69,11.41,0.42,12.79,5.36
					c0.84,3.19-0.81,6.37-2.52,9.12c-7.35,11.48-18.7,20.48-31.71,25.33C266.76,184.64,270.54,174.63,275.82,165.56z"/>
				<path class="st1" d="M275.82,196.68c2.53-4.28,5.61-8.59,10.35-10.42c4.72-1.69,11.41,0.42,12.79,5.36
					c0.84,3.19-0.81,6.37-2.52,9.12c-7.35,11.48-18.7,20.48-31.71,25.33C266.76,215.76,270.54,205.74,275.82,196.68z"/>
				<path class="st1" d="M265.31,196.19c-13-4.85-24.36-13.85-31.71-25.33c-1.71-2.75-3.36-5.93-2.52-9.12
					c1.37-4.94,8.07-7.05,12.79-5.36c4.74,1.82,7.82,6.14,10.35,10.42C259.5,175.87,263.28,185.88,265.31,196.19z"/>
				<path class="st1" d="M265.31,227.16c-13-4.85-24.36-13.85-31.71-25.33c-1.71-2.75-3.36-5.93-2.52-9.12
					c1.37-4.94,8.07-7.05,12.79-5.36c4.74,1.82,7.82,6.14,10.35,10.42C259.5,206.84,263.28,216.85,265.31,227.16z"/>
			</g>
			<g>
				<path class="st15" d="M308.33,67.3c2.44-0.92,5.41-0.86,7.33,0.92c1.91,1.78,1.98,5.35-0.26,6.73
					c4.22-1.78,9.63,0.99,10.56,5.41c0.92,4.42-2.9,9.24-7.46,9.37c3.89,0.4,7.79,2.84,8.51,6.67c0.66,3.83-3.37,8.12-6.93,6.6
					c3.83,2.77,5.28,8.25,3.43,12.6c-1.85,4.36-6.86,7.13-11.48,6.4c3.83,2.05,3.5,8.31,0,10.95s-8.58,2.11-12.27-0.13
					c-3.7-2.24-6.27-5.87-8.78-9.37c-3.76-5.28-9.04-12.54-13.53-17.16c-15.9-16.43,6.53-13.66,10.36-19.4
					c3.89-5.74,9.04-10.43,14.19-15.05C303.9,70.07,305.95,68.28,308.33,67.3z"/>
				<path class="st15" d="M304.5,89.22c-8.05,0.13-16.23,0.33-24.02-1.52c-7.85-1.85-15.51-5.87-20.06-12.47
					c-4.29-6.27-5.41-14.06-6.4-21.58c-0.66-5.08-1.39-10.29,0-15.18s5.21-9.5,10.29-10.03c5.08-0.53,10.36,4.62,8.71,9.44
					c3.37-4.42,9.83-6.07,14.91-3.76c5.08,2.24,8.18,8.18,7.13,13.59c1.85-4.16,8.71-3.76,11.15,0.13c2.44,3.83,1.06,9.17-1.91,12.6
					c3.96-3.56,11.09-2.51,13.86,2.05c2.77,4.55,0.33,11.35-4.69,13.2c2.97-0.66,5.81,2.51,5.61,5.54c-0.2,3.04-2.71,5.54-5.54,6.73
					C310.7,89.08,307.54,89.15,304.5,89.22z"/>
				<path class="st16" d="M263.99,72.47c-2.15-3.06-3-6.84-3.65-10.56c-0.59-3.26-0.98-6.71-0.07-9.91
					c0.91-3.19,3.39-6.19,6.65-6.71c3.26-0.52,6.97,2.15,6.71,5.48c1.11-3.72,5.41-6.13,9.13-5.15c3.72,0.98,6.26,5.28,5.35,9
					c1.76-2.61,6.26-2.09,8.02,0.46c1.76,2.61,1.24,6.26-0.59,8.86c2.87-2.35,7.76-0.13,8.73,3.45c0.98,3.59-1.24,7.43-4.3,9.52
					c-3.13,2.09-6.91,2.67-10.62,3.06c-4.63,0.46-9.32,0.65-13.88-0.39C271.03,78.66,266.66,76.32,263.99,72.47z"/>
				<path class="st15" d="M228.05,69.37c5.15,4.62,10.29,9.3,14.19,15.05c3.83,5.74,26.26,2.97,10.36,19.4
					c-4.49,4.62-9.77,11.88-13.53,17.16c-2.51,3.5-5.08,7.13-8.78,9.37c-3.7,2.24-8.78,2.77-12.27,0.13s-3.83-8.91,0-10.95
					c-4.62,0.73-9.63-2.05-11.48-6.4c-1.85-4.36-0.4-9.83,3.43-12.6c-3.56,1.52-7.59-2.77-6.93-6.6c0.73-3.83,4.62-6.27,8.51-6.67
					c-4.55-0.13-8.38-4.95-7.46-9.37c0.92-4.42,6.34-7.19,10.56-5.41c-2.24-1.39-2.18-4.95-0.26-6.73c1.91-1.78,4.88-1.85,7.33-0.92
					C224.09,65.81,226.14,67.59,228.05,69.37z"/>
				<path class="st16" d="M255.48,94.71c-0.46,3.13-10.62,11.34-12.38,13.95c-1.56,2.35-3.26,4.69-5.74,6.13
					c-2.41,1.43-5.67,1.83-8.08,0.26c-2.35-1.56-3.13-5.41-1.04-7.3c-2.8,1.63-6.91,0.65-8.67-2.15c-1.76-2.8-0.85-6.91,1.89-8.67
					c-2.61,0.59-5.15-2.35-4.76-5.02c0.39-2.67,2.87-4.63,5.48-5.15c-3.19-0.2-4.95-4.5-3.45-7.24c1.5-2.8,5.08-3.85,8.21-3.32
					c3.13,0.52,5.87,2.41,8.41,4.3c3.19,2.41,10.23,5.35,12.52,8.67C250.14,92.42,256,90.79,255.48,94.71z"/>
				<path class="st16" d="M281.8,91.65c2.31-3.37,9.44-6.34,12.67-8.78c2.57-1.91,5.35-3.83,8.51-4.36c3.17-0.53,6.8,0.53,8.31,3.37
					c1.52,2.77-0.26,7.13-3.5,7.33c2.64,0.53,5.15,2.51,5.54,5.21c0.4,2.71-2.18,5.68-4.82,5.08c2.77,1.78,3.7,5.94,1.91,8.78
					c-1.78,2.84-5.94,3.83-8.78,2.18c2.11,1.91,1.32,5.81-1.06,7.39c-2.44,1.58-5.74,1.19-8.18-0.26c-2.51-1.45-4.22-3.83-5.81-6.2
					c-1.78-2.64-12.08-10.95-12.54-14.12C273.55,93.3,279.49,94.95,281.8,91.65z"/>
				<path class="st15" d="M254.05,44.16c-1.58-3.7-3.89-7.92-7.85-8.18c-2.31-0.2-4.69,1.32-5.54,3.5
					c-0.86,2.18-0.13,4.88,1.72,6.34c-2.18-2.57-4.42-5.21-7.26-7c-2.84-1.78-6.53-2.57-9.63-1.32c-3.3,1.39-5.41,5.21-4.82,8.78
					c0.59,3.56,3.89,6.47,7.46,6.67c-1.65-0.2-3.37-0.33-5.02-0.07c-2.97,0.4-4.69,3.43-3.63,6.2
					c4.22,10.82,13.99,18.94,23.16,26.33c5.28,4.22,12.08,8.78,18.35,5.41c2.9-1.52,4.82-4.42,5.48-7.59
					c1.45-6.4-1.06-12.34-3.5-18.02C259.99,58.09,257.02,51.09,254.05,44.16z"/>
				<path class="st15" d="M264.28,86.86c-1.91-0.33-3.56,1.39-4.75,2.97c-8.38,11.09-16.83,22.31-22.77,34.84
					c-1.65,3.43-3.1,7.06-3.04,10.89c0.07,3.83,1.85,7.79,5.35,9.44c3.43,1.58,8.38-0.13,9.17-3.89
					c-1.32,6.34,2.84,13.66,9.17,14.85c6.4,1.19,13.2-5.15,11.75-11.42c0.66,5.08,7.19,8.12,11.75,5.81
					c4.55-2.31,5.94-8.97,3.1-13.2c0.66,3.37,5.21,4.88,8.25,3.17c2.97-1.72,4.29-5.48,3.89-8.91c-0.4-3.43-2.05-6.53-3.83-9.5
					c-7.06-12.01-15.57-23.16-25.21-33.19C266.26,87.85,265.4,87.06,264.28,86.86z"/>
				<path class="st16" d="M263.83,78.41c-1.5-4.56-3-9.06-4.5-13.62c-1.69-5.08-3.39-10.3-6.65-14.6c-0.98-1.24-2.22-2.54-3.78-2.54
					c-2.09,0-3.52,2.22-3.91,4.3c-0.39,2.09-0.26,4.3-1.24,6.19c-1.11-2.15-2.35-4.43-4.43-5.74c-2.09-1.3-5.28-1.17-6.52,0.91
					c-1.56,2.54,0.65,5.74,2.74,7.89c-0.65-2.02-3.78-2.41-5.35-0.91c-1.56,1.5-1.56,4.04-0.72,6c0.91,1.96,2.54,3.45,4.11,4.95
					c6.13,5.61,12.38,11.34,19.82,15.06c1.76,0.91,3.65,1.63,5.61,1.69c1.96,0.07,4.04-0.78,5.08-2.48
					C265.33,83.36,264.61,80.76,263.83,78.41z"/>
				<path class="st16" d="M263.83,89.3c-6.32,8.54-12.65,17.08-18.9,25.62c-1.04,1.43-2.15,2.93-2.48,4.69
					c-0.33,1.76,0.39,3.85,2.02,4.56c1.43,0.59,3.13-0.07,4.24-1.17c1.11-1.11,1.69-2.61,2.28-4.04c-0.72,4.37,1.63,9.06,5.54,11.08
					c3.32-0.46,5.74-4.24,4.76-7.37c0.46,2.41,1.69,4.76,3.65,6.13c1.96,1.43,4.82,1.76,6.91,0.46c2.09-1.3,2.93-4.37,1.56-6.39
					c1.3,3,5.93,3.39,8.34,1.17c2.41-2.22,2.8-6,1.76-9.13c-0.98-3.13-3.13-5.74-5.21-8.21C273.41,100.96,268.65,95.16,263.83,89.3z
					"/>
				<circle class="st17" cx="268.38" cy="93.49" r="17.89"/>
			</g>
		</g>
		<g>
			<g>
				<path class="st1" d="M434.46,253.31c-1.18,4.83-3.14,9.54-6.32,13.4c-3.15,3.84-7.62,6.76-12.53,7.48
					c-0.15-5.02,2.38-9.83,5.99-13.31C425.17,257.39,429.76,255.12,434.46,253.31z"/>
				<path class="st1" d="M403.02,245.74c3.12,3.89,5.68,8.28,6.86,13.14c1.16,4.83,0.78,10.16-1.67,14.5
					c-4.09-2.92-6.37-7.87-6.95-12.85C400.64,255.57,401.62,250.51,403.02,245.74z"/>
				<path class="st1" d="M378.89,269.97c4.61,1.85,9.04,4.46,12.39,8.09c3.38,3.66,5.64,8.47,5.66,13.45
					c-4.98-0.55-9.4-3.73-12.35-7.77C381.66,279.73,380.05,274.85,378.89,269.97z"/>
				<path class="st1" d="M437.54,277.28c-3.28,3.75-7.15,7.06-11.73,9.06c-4.55,1.98-9.83,2.57-14.56,0.94
					c2.14-4.51,6.59-7.68,11.38-9.11C427.45,276.71,432.54,276.75,437.54,277.28z"/>
				<path class="st1" d="M435.65,296.66c-3.74,3.29-8.06,6.04-12.82,7.39c-4.79,1.37-10.11,1.24-14.53-1.03
					c2.74-4.18,7.56-6.71,12.51-7.51C425.75,294.71,430.79,295.45,435.65,296.66z"/>
				<g>
					<path class="st18" d="M426.52,262.56c-4.66,3.86-8.71,8.45-12.62,13.02c-4.26,4.93-8.26,10.09-12.06,15.37
						c-3.71,5.15-7.18,10.45-10.49,15.86c-3.35,5.55-6.82,11.19-9.3,17.19c-0.4,0.92,0.91,1.58,1.39,0.7
						c3.08-5.45,5.74-11.15,8.89-16.57c3.27-5.58,6.75-10.98,10.49-16.27c3.62-5.13,7.48-10.11,11.52-14.89
						c4.01-4.81,8.41-9.3,12.37-14.17C426.76,262.65,426.63,262.45,426.52,262.56L426.52,262.56z"/>
				</g>
				<g>
					<path class="st18" d="M422.53,282.04c-6.86,2.82-13.57,5.81-20.31,8.88c-1.05,0.48-0.35,1.95,0.67,1.44
						c6.67-3.21,13.26-6.5,19.8-9.96C422.91,282.3,422.72,281.97,422.53,282.04L422.53,282.04z"/>
				</g>
				<g>
					<path class="st18" d="M406.76,263.55c-0.2,3.03,0.28,6.07,0.6,9.05c0.34,3.06,0.6,6.2,1.15,9.22c0.17,0.87,1.53,0.57,1.5-0.27
						c-0.18-3-0.79-6.02-1.22-9.01c-0.45-3.01-0.79-6.13-1.76-9.03C406.99,263.35,406.77,263.39,406.76,263.55L406.76,263.55z"/>
				</g>
				<g>
					<path class="st18" d="M422.73,297.66c-10.43,3.16-20.79,6.46-31.13,9.89c-1.1,0.37-0.52,2.04,0.53,1.67
						c10.29-3.54,20.54-7.25,30.74-11.12C423.17,297.98,423.03,297.54,422.73,297.66L422.73,297.66z"/>
				</g>
				<g>
					<path class="st18" d="M389.39,281.94c1.55,2.19,3.01,4.45,4.36,6.76c1.5,2.53,2.51,5.25,3.9,7.84
						c0.44,0.83,1.69,0.17,1.44-0.67c-1.51-5.33-5.28-10.52-9.18-14.38C389.65,281.2,389.2,281.6,389.39,281.94L389.39,281.94z"/>
				</g>
			</g>
			<g>
				<path class="st18" d="M118.08,269.37c3.61,3.49,6.14,8.3,5.99,13.31c-4.91-0.72-9.38-3.65-12.53-7.48
					c-3.18-3.86-5.14-8.57-6.32-13.4C109.93,263.6,114.52,265.88,118.08,269.37z"/>
				<path class="st18" d="M138.44,269.01c-0.58,4.99-2.86,9.93-6.95,12.85c-2.45-4.33-2.83-9.67-1.67-14.5
					c1.18-4.86,3.74-9.25,6.86-13.14C138.07,258.99,139.05,264.05,138.44,269.01z"/>
				<path class="st18" d="M155.11,292.23c-2.95,4.04-7.38,7.22-12.35,7.77c0.02-4.98,2.28-9.79,5.66-13.45
					c3.35-3.63,7.78-6.25,12.39-8.09C159.64,283.33,158.03,288.22,155.11,292.23z"/>
				<path class="st18" d="M117.05,286.65c4.79,1.43,9.25,4.6,11.38,9.11c-4.73,1.64-10.01,1.04-14.56-0.94
					c-4.58-2.01-8.45-5.32-11.73-9.06C107.15,285.24,112.24,285.2,117.05,286.65z"/>
				<path class="st18" d="M118.88,303.99c4.94,0.8,9.77,3.33,12.51,7.51c-4.42,2.27-9.75,2.4-14.53,1.03
					c-4.76-1.35-9.08-4.1-12.82-7.39C108.89,303.93,113.94,303.19,118.88,303.99z"/>
				<g>
					<path class="st1" d="M113.17,271.04c-0.11-0.1-0.24,0.09-0.17,0.25c3.96,4.87,8.36,9.36,12.37,14.17
						c4.04,4.78,7.89,9.76,11.52,14.89c3.74,5.28,7.22,10.69,10.49,16.27c3.16,5.42,5.82,11.12,8.89,16.57
						c0.48,0.89,1.79,0.22,1.39-0.7c-2.49-6-5.95-11.65-9.3-17.19c-3.32-5.41-6.79-10.71-10.49-15.86
						c-3.79-5.28-7.8-10.44-12.06-15.37C121.88,279.49,117.83,274.9,113.17,271.04L113.17,271.04z"/>
				</g>
				<g>
					<path class="st1" d="M117.16,290.52c-0.19-0.07-0.39,0.26-0.17,0.36c6.55,3.46,13.14,6.75,19.8,9.96
						c1.02,0.51,1.72-0.96,0.67-1.44C130.73,296.33,124.02,293.34,117.16,290.52L117.16,290.52z"/>
				</g>
				<g>
					<path class="st1" d="M132.93,272.04c-0.01-0.16-0.23-0.2-0.27-0.04c-0.97,2.91-1.31,6.02-1.76,9.03
						c-0.43,2.98-1.04,6.01-1.22,9.01c-0.03,0.84,1.33,1.14,1.5,0.27c0.56-3.02,0.81-6.16,1.15-9.22
						C132.65,278.11,133.12,275.07,132.93,272.04L132.93,272.04z"/>
				</g>
				<g>
					<path class="st1" d="M116.96,306.15c-0.3-0.12-0.44,0.32-0.14,0.44c10.2,3.87,20.45,7.58,30.74,11.12
						c1.04,0.37,1.62-1.3,0.53-1.67C137.75,312.6,127.39,309.31,116.96,306.15L116.96,306.15z"/>
				</g>
				<g>
					<path class="st1" d="M150.29,290.42c0.2-0.33-0.26-0.74-0.51-0.46c-3.9,3.85-7.68,9.04-9.18,14.38c-0.25,0.85,1,1.51,1.44,0.67
						c1.39-2.58,2.4-5.3,3.9-7.84C147.29,294.87,148.75,292.61,150.29,290.42L150.29,290.42z"/>
				</g>
			</g>
			<g>
				<path class="st1" d="M228.46,248.63c-2.03,3.35-3.91,6.8-5.8,10.24c-1.86,3.4-3.65,6.85-4.92,10.52
					c-0.12,0.34-0.23,0.67-0.33,1.01c-0.16-3.33-0.39-6.65-0.71-9.97c-0.38-3.94-0.87-7.87-1.47-11.78
					c0.09-0.57,0.22-1.12,0.37-1.68c0.35-1.22,0.82-2.4,1.22-3.61c0.84-2.53,1.42-5.13,1.73-7.77c0.17-1.42,0.34-2.97,0.04-4.38
					c-0.05-0.25-0.42-0.2-0.48,0.02c-0.32,1.27-0.35,2.63-0.5,3.93c-0.15,1.32-0.37,2.63-0.66,3.93c-0.28,1.3-0.63,2.59-1.03,3.85
					c-0.35,1.09-0.76,2.17-1.1,3.27c-0.89-5.36-1.99-10.68-3.31-15.94c-0.7-2.78-1.45-5.56-2.29-8.3c-0.42-1.37-0.85-2.74-1.32-4.1
					c-0.46-1.32-0.94-2.64-1.55-3.89c-0.05-0.11-0.19-0.01-0.18,0.08c0.24,1.25,0.59,2.49,0.93,3.72c0.34,1.23,0.7,2.46,1.04,3.69
					c0.68,2.46,1.34,4.93,1.95,7.41c0.55,2.19,1.05,4.38,1.53,6.58c-0.22-0.34-0.43-0.69-0.65-1.03c-0.79-1.19-1.61-2.37-2.44-3.54
					c-0.83-1.17-1.67-2.33-2.53-3.48c-0.83-1.1-1.66-2.32-2.73-3.2c-0.14-0.11-0.41,0.02-0.32,0.21c0.59,1.25,1.53,2.35,2.36,3.45
					c0.86,1.15,1.72,2.3,2.56,3.46c0.84,1.16,1.67,2.33,2.5,3.5c0.41,0.59,0.84,1.16,1.26,1.74c0.11,0.16,0.23,0.33,0.35,0.51
					c0.46,2.2,0.89,4.41,1.29,6.63c0.33,1.86,0.62,3.72,0.9,5.59c-0.03,0.47-0.02,0.94,0.16,1.36c0.01,0.03,0.03,0.06,0.05,0.09
					c0.51,3.59,0.94,7.19,1.27,10.8c-0.02-0.04-0.05-0.07-0.07-0.11c-0.43-0.71-0.88-1.41-1.35-2.1c-0.93-1.39-1.93-2.73-2.91-4.08
					c-1.93-2.67-3.84-5.38-5.35-8.32c-0.41-0.8-0.78-1.61-1.13-2.43c-0.37-0.87-0.63-1.78-1.01-2.64c-0.1-0.24-0.49-0.21-0.48,0.09
					c0.05,0.81,0.29,1.63,0.52,2.4c0.23,0.77,0.53,1.54,0.85,2.28c0.66,1.52,1.48,2.97,2.36,4.36c1.81,2.86,3.91,5.52,5.87,8.28
					c0.56,0.78,1.12,1.56,1.65,2.36c0.25,0.38,0.5,0.75,0.76,1.12c0.14,0.2,0.28,0.41,0.43,0.6c0.29,3.55,0.5,7.11,0.61,10.66
					c0.01,0.31,0.01,0.62,0.02,0.93c-0.02,0.26-0.03,0.53-0.03,0.79c0,0.05,0.02,0.08,0.05,0.1c0.05,2.21,0.08,4.42,0.06,6.63
					c-0.01,0.93-0.03,1.86-0.05,2.79c-0.09-0.31-0.18-0.62-0.28-0.92c-0.44-1.3-0.94-2.59-1.49-3.85c-1.08-2.47-2.36-4.84-3.82-7.1
					c-0.84-1.29-1.74-2.55-2.91-3.56c-0.2-0.17-0.43,0.07-0.33,0.28c0.77,1.51,1.79,2.87,2.69,4.3c0.91,1.43,1.73,2.91,2.49,4.43
					c0.76,1.52,1.44,3.08,2.04,4.68c0.3,0.79,0.57,1.59,0.84,2.4c0.21,0.63,0.38,1.35,0.72,1.95c-0.03,1.07-0.03,2.16,0.12,3.21
					c0.04,0.3,0.47,0.37,0.54,0.05c0.31-1.25,0.35-2.55,0.42-3.83c0.07-1.27,0.08-2.55,0.1-3.83c0.04-2.58,0.04-5.16-0.02-7.74
					c-0.02-0.92-0.06-1.85-0.09-2.77c0.26-0.92,0.53-1.84,0.84-2.74c0.62-1.81,1.38-3.58,2.2-5.3c1.68-3.51,3.66-6.87,5.52-10.29
					c1.04-1.91,1.97-3.82,2.68-5.88C228.82,248.56,228.55,248.49,228.46,248.63z"/>
				<path class="st19" d="M212.88,268.26c-0.53-1.32-1.18-2.62-1.99-3.79c-0.77-1.12-1.66-2.31-2.72-3.17
					c-1.76-1.43-3.97-1.34-5.62,0.19c-1.24,1.14-1.54,2.9-1.54,4.51c-0.01,2.35,0.74,4.77,2.13,6.67c0.94,1.28,1.99,2.23,3.32,3.09
					c0.62,0.4,1.36,0.8,2.08,0.96c0.25,0.05,0.5,0.08,0.75,0.1c0.56,0.06,1,0.14,1.55-0.06c0.23-0.11,0.45-0.22,0.68-0.32
					c0.65-0.56,0.73-0.63,0.25-0.21c0.43-0.22,0.71-0.59,0.88-1.02c0.05-0.05,0.11-0.1,0.16-0.16c0.7-0.78,1.03-1.75,1.04-2.79
					C213.87,270.94,213.37,269.48,212.88,268.26z"/>
				<path class="st19" d="M233.34,243.94c-1.14-0.91-2.74-1.2-4.09-0.59c-1.98,0.89-3.17,2.72-4.31,4.48
					c-0.53,0.81-1.01,1.65-1.43,2.52c-0.06,0.06-0.12,0.12-0.17,0.18c-0.58,0.73-1.07,1.51-1.44,2.37c-0.75,1.69-1.39,3.72-1.32,5.6
					c0.06,1.69,1.29,3.21,2.99,3.49c1.37,0.23,2.62-0.2,3.82-0.85c1.53-0.84,2.85-2.31,3.86-3.72c1.02-1.41,1.89-2.89,2.49-4.53
					c0.64-1.74,1.28-3.72,1.17-5.6C234.82,246.04,234.35,244.74,233.34,243.94z"/>
				<path class="st19" d="M209.44,243.44c-1.1-2.61-2.58-5.28-4.43-7.44c-1.24-1.45-3.22-2.12-4.96-1.03
					c-1.66,1.04-1.49,3.07-1.43,4.76c0.12,3.13,0.65,6.21,2.15,8.98c0.69,1.27,1.64,2.63,2.8,3.51c0.68,0.52,1.39,0.94,2.19,1.23
					c0.46,0.17,0.9,0.31,1.4,0.3c0.15,0,0.32-0.02,0.48-0.06c1.04,0.2,2.2-0.15,2.8-1.28c0.7-1.32,0.45-3.22,0.21-4.65
					C210.41,246.27,210.03,244.83,209.44,243.44z"/>
				<path class="st19" d="M223.64,224.85c-0.97-1.48-2.95-2.09-4.5-1.08c-1.09,0.71-1.73,1.95-2.28,3.09
					c-0.5,1.03-0.9,2.12-1.21,3.22c-0.35,1.22-0.53,2.45-0.63,3.71c-0.05,0.59-0.07,1.16-0.02,1.75c0.07,0.89,0.35,1.56,0.74,2.35
					c0.03,0.05,0.06,0.1,0.09,0.14c0,0.01,0.01,0.01,0.01,0.01c0.02,0.02,0.03,0.05,0.05,0.07c0.06,0.09,0.11,0.17,0.18,0.25
					c0.81,0.94,1.98,0.98,3.03,0.44c0.46-0.24,0.86-0.61,1.25-0.95c0.4-0.34,0.77-0.7,1.12-1.09c0.69-0.79,1.3-1.7,1.75-2.65
					c0.89-1.84,1.36-3.96,1.28-6.01C224.46,226.99,224.27,225.81,223.64,224.85z"/>
				<path class="st19" d="M207.52,224.82c-0.35-0.85-0.77-1.67-1.31-2.42c-0.54-0.75-1.17-1.46-1.87-2.06
					c-0.77-0.65-1.66-1.3-2.63-1.59c-1.61-0.48-3.23,0.65-3.42,2.3c-0.11,1-0.06,1.87,0.13,2.85c0.32,1.65,1.19,3.07,2.34,4.27
					c0.62,0.64,1.37,1.22,2.18,1.59c0.45,0.21,0.93,0.42,1.42,0.48c0.32,0.04,0.67,0.1,1,0.08c0.46-0.02,0.85-0.23,1.25-0.43
					c0.54-0.29,0.82-0.94,0.8-1.57C208.25,227.34,207.98,225.93,207.52,224.82z"/>
				<g>
					<path class="st19" d="M207.3,201.49c-3.41-0.75-5.03,2.95-5.57,5.66c-0.45,2.24-0.26,4.65,0.44,6.82
						c0.43,1.33,1.1,2.68,2.07,3.7c0.55,0.58,1.19,1.02,1.94,1.28c0.03,0.01,0.06,0.02,0.1,0.03c0.43,0.12,0.81,0.16,1.24,0.03
						c0.09-0.03,0.17-0.07,0.26-0.11c0.79-0.04,1.58-0.45,2.03-1.23c0.41-0.71,0.4-1.53,0.47-2.33c0.06-0.71,0.12-1.43,0.16-2.15
						c0.07-1.26,0.11-2.52,0.1-3.79C210.55,206.62,210.83,202.27,207.3,201.49z"/>
					<path class="st20" d="M206.23,218.96c-0.01,0-0.03-0.01-0.04-0.02C205.87,218.85,206.13,218.92,206.23,218.96z"/>
				</g>
			</g>
			<g>
				<g>
					<path class="st18" d="M324.74,225.93c-8.78,18.54-13.65,40.4-12.69,60.94c0.05,0.76,1.33,0.78,1.35,0.02
						c0.44-10.17,1.13-20.18,3-30.19c1.95-10.47,5.23-20.54,9.01-30.46C325.59,225.77,324.92,225.47,324.74,225.93L324.74,225.93z"
						/>
				</g>
				<path class="st18" d="M304.92,214.36c-1.48,1.23-1.94,3.37-1.61,5.26c0.32,1.88,1.33,3.59,2.37,5.22
					c3.98,6.16,8.96,11.66,14.65,16.29c0.86-8.5-0.27-17.77-5.9-24.24c-1.19-1.38-2.62-2.61-4.32-3.23
					C308.37,213.07,306.33,213.2,304.92,214.36z"/>
				<path class="st18" d="M327.34,236.05c3.16-2,6.4-4,10.05-4.74c1.57-0.34,3.37-0.35,4.64,0.61c1.63,1.25,1.79,3.8,0.9,5.65
					c-1.04,2.24-3.23,3.76-5.53,4.57c-2.34,0.8-4.82,0.99-7.26,1.18c-4.03,0.28-8.06,0.57-12.09,0.85
					C320.15,240.61,323.81,238.27,327.34,236.05z"/>
				<path class="st18" d="M297.6,232.43c-1.65,0.14-3.35,0.59-4.68,1.57c-1.36,0.98-2.3,2.6-2.26,4.26c0.04,2.35,2.03,4.3,4.26,5.07
					c2.23,0.76,4.64,0.58,6.98,0.33c2.34-0.25,4.74-0.54,7,0.08c3.62,0.95,6.3,3.97,8.73,6.83c-1.47-4.65-3.61-9.15-7.01-12.65
					C307.23,234.39,302.45,232.06,297.6,232.43z"/>
				<path class="st18" d="M336.71,247.58c2.06,0.22,4.2,0.74,5.74,2.14c1.54,1.39,2.25,3.84,1.18,5.64
					c-1.26,2.05-4.08,2.3-6.44,2.13c-3.65-0.26-7.23-1.07-10.85-1.4c-3.62-0.36-7.42-0.23-10.75,1.26
					C320.18,250.65,328.59,246.77,336.71,247.58z"/>
				<path class="st21" d="M324.31,204.47c1.71-0.35,3.51,0.75,4.4,2.29c0.89,1.5,1.07,3.36,1.01,5.09
					c-0.1,5.61-2.11,11.21-5.61,15.61c-4.69-4.73-9.57-9.72-11.38-16.15c-0.53-1.87-0.58-4.29,1.05-5.33
					c1.13-0.73,2.67-0.44,3.79,0.28c1.12,0.73,1.88,1.89,2.61,2.99C321.02,207.23,322.15,204.91,324.31,204.47z"/>
				<path class="st21" d="M344.7,217.39c1.09,1.39,0.91,3.47-0.07,4.95c-0.95,1.48-2.51,2.44-4.09,3.23
					c-5.08,2.43-10.95,3.17-16.45,2.03c2.1-6.33,4.35-12.94,9.27-17.43c1.44-1.3,3.55-2.44,5.24-1.47c1.15,0.69,1.62,2.18,1.46,3.51
					c-0.16,1.33-0.81,2.54-1.5,3.69C340.75,215.7,343.34,215.67,344.7,217.39z"/>
				<path class="st21" d="M344.79,236.8c-0.45,1.69-2.21,2.8-3.97,2.95c-1.76,0.14-3.46-0.51-5.03-1.28
					c-5.04-2.53-9.18-6.77-11.63-11.81c6.3-2.19,12.91-4.4,19.46-3.25c1.92,0.33,4.1,1.34,4.36,3.26c0.15,1.34-0.74,2.61-1.91,3.27
					c-1.13,0.69-2.51,0.88-3.84,1.07C343.74,232.64,345.35,234.65,344.79,236.8z"/>
				<path class="st19" d="M324.11,227.46c0,0-4.52-6.47-1.36-6.28c3.13,0.19,3.72,2.02,3.72,2.02s0.52-3.39,1.16-5.89
					c0.68-2.5,3.91-2.87,3.34,0.8c-0.57,3.67-2.42,4.55-1.37,5.28c1.05,0.73,4.83-5.32,5.75-3.75c0.93,1.57,1.49,3.4-1.04,5.05
					c-2.56,1.65-3.58,0.91-2.56,1.65c1.05,0.73,4.23,0.64,4.11,3.21c-0.12,2.57-0.24,3.44-3.17,1.82c-2.94-1.58,1.56,1.11-0.52,1.66
					C330.12,233.49,324.11,227.46,324.11,227.46z"/>
			</g>
			<g class="st22">
				<path class="st23" d="M180.33,305.2c-0.34,0-0.69-0.1-0.99-0.31c-0.28-0.19-6.86-4.89-13.68-17.11
					c-6.21-11.12-13.82-30.94-14.83-62.2c-0.81-24.82-3.74-40.34-3.77-40.49c-0.18-0.94,0.43-1.84,1.37-2.02
					c0.94-0.18,1.84,0.43,2.02,1.37c0.03,0.16,3.01,15.91,3.83,41.03c0.54,16.78,3.46,40.87,14.26,60.38
					c6.44,11.63,12.72,16.17,12.78,16.21c0.78,0.55,0.96,1.63,0.42,2.41C181.41,304.94,180.87,305.2,180.33,305.2z"/>
			</g>
			<g class="st22">
				<path class="st23" d="M330.64,310.01c-0.65,0-1.27-0.37-1.56-0.99c-0.41-0.86-0.04-1.89,0.83-2.3
					c0.19-0.09,10.65-5.17,20.05-17.58c5.53-7.3,9.63-15.68,12.18-24.91c3.19-11.57,3.95-24.52,2.25-38.5
					c-3.07-25.28,3.64-41,3.93-41.66c0.38-0.87,1.4-1.27,2.27-0.89c0.87,0.38,1.27,1.4,0.89,2.27c-0.07,0.15-6.62,15.59-3.66,39.86
					c1.76,14.48,0.96,27.92-2.39,39.96c-2.69,9.67-7,18.45-12.83,26.1c-9.95,13.06-20.76,18.25-21.21,18.46
					C331.14,309.96,330.89,310.01,330.64,310.01z"/>
			</g>
			<path class="st19" d="M335.79,118.06c0.45,4.97,0.15,10.04-1.54,14.74c-1.7,4.66-4.97,8.9-9.4,11.16
				c-1.8-4.69-0.97-10.08,1.3-14.55C328.38,124.94,331.99,121.26,335.79,118.06z"/>
			<path class="st19" d="M137.02,102.5c4.25,2.61,8.13,5.89,10.88,10.07c2.71,4.16,4.15,9.31,3.3,14.21
				c-4.83-1.37-8.65-5.27-10.87-9.76C138.08,112.56,137.3,107.46,137.02,102.5z"/>
			<path class="st19" d="M189.44,110.36c-2.23,4.5-6.04,8.39-10.87,9.76c-0.85-4.9,0.59-10.06,3.3-14.21
				c2.75-4.18,6.63-7.46,10.88-10.07C192.46,100.79,191.68,105.89,189.44,110.36z"/>
			<path class="st19" d="M66.62,193.65c4.93,0.76,9.78,2.28,13.93,5.07c4.11,2.78,7.43,6.98,8.55,11.83
				c-4.99,0.61-10.01-1.51-13.8-4.79C71.49,202.51,68.8,198.11,66.62,193.65z"/>
			<path class="st19" d="M72.26,161.21c4.09,2.85,7.77,6.36,10.28,10.68c2.47,4.31,3.6,9.54,2.47,14.38
				c-4.75-1.65-8.33-5.76-10.29-10.38C72.74,171.31,72.26,166.17,72.26,161.21z"/>
			<path class="st19" d="M72.58,122.25c4.95-0.6,10.03-0.45,14.78,1.12c4.71,1.57,9.04,4.71,11.43,9.07
				c-4.64,1.93-10.04,1.26-14.59-0.88C79.67,129.46,75.89,125.95,72.58,122.25z"/>
			<path class="st19" d="M105.11,97.66c3.61,3.44,6.73,7.45,8.56,12.1c1.79,4.63,2.13,9.97,0.29,14.59
				c-4.44-2.35-7.37-6.94-8.61-11.8C104.07,107.71,104.36,102.57,105.11,97.66z"/>
			<path class="st19" d="M461.8,202.73c-3.79,3.29-8.82,5.4-13.8,4.79c1.12-4.85,4.44-9.04,8.55-11.83c4.15-2.79,9-4.31,13.93-5.07
				C468.29,195.09,465.6,199.48,461.8,202.73z"/>
			<path class="st19" d="M462.37,172.87c-1.96,4.62-5.54,8.73-10.29,10.38c-1.13-4.85,0-10.07,2.47-14.38
				c2.5-4.33,6.19-7.83,10.28-10.68C464.83,163.15,464.35,168.28,462.37,172.87z"/>
			<path class="st19" d="M452.89,128.53c-4.54,2.14-9.95,2.81-14.59,0.88c2.39-4.37,6.72-7.51,11.43-9.07
				c4.75-1.56,9.83-1.71,14.78-1.12C461.2,122.93,457.42,126.43,452.89,128.53z"/>
			<path class="st19" d="M431.75,109.52c-1.25,4.86-4.17,9.46-8.61,11.8c-1.85-4.62-1.51-9.96,0.29-14.59
				c1.82-4.66,4.94-8.67,8.56-12.1C432.73,99.54,433.03,104.69,431.75,109.52z"/>
			<path class="st19" d="M164.31,80.61c2.66,4.22,4.71,8.87,5.34,13.83c0.61,4.93-0.37,10.19-3.29,14.22
				c-3.74-3.36-5.45-8.53-5.47-13.55C160.84,90.1,162.38,85.19,164.31,80.61z"/>
			<path class="st19" d="M349.63,96.46c4.25,2.61,8.13,5.89,10.88,10.07c2.71,4.16,4.15,9.31,3.3,14.21
				c-4.83-1.37-8.65-5.27-10.87-9.76C350.7,106.52,349.92,101.42,349.63,96.46z"/>
			<path class="st19" d="M402.06,104.31c-2.23,4.5-6.04,8.39-10.87,9.76c-0.85-4.9,0.59-10.06,3.3-14.21
				c2.75-4.18,6.63-7.46,10.88-10.07C405.08,94.75,404.3,99.85,402.06,104.31z"/>
			<path class="st19" d="M376.92,74.56c2.66,4.22,4.71,8.87,5.34,13.83c0.61,4.93-0.37,10.19-3.29,14.22
				c-3.74-3.36-5.45-8.53-5.47-13.55C373.46,84.06,375,79.14,376.92,74.56z"/>
			<g>
				<path class="st21" d="M137.05,204.31c-4.99,7.6-17.04,9.06-23.72,2.92c-6.68-6.14-6.14-18.27,0.92-23.87
					c-5.76,0.46-11.82-1.69-15.35-6.22c-3.53-4.53-3.99-11.51-0.38-16.04s11.13-5.45,15.28-1.38c-3.61-2.84-5.53-8.14-3.61-12.36
					s8.37-5.99,11.59-2.69c-3.22-5.6,2-13.51,8.44-13.74c6.45-0.23,11.98,5.83,12.36,12.28c1.15-6.52,8.67-11.05,14.97-9.06
					c6.29,2,9.75,10.13,6.91,16.04c4.53-5.6,14.97-4.15,18.04,2.38c3.07,6.52-2.07,15.28-9.29,16.04
					c7.68,2.53,12.13,12.13,8.98,19.57c-3.07,7.6-13.05,11.21-20.27,7.52c2.07,6.45-1.77,14.28-8.21,16.5
					C147.34,214.44,139.43,210.76,137.05,204.31z"/>
				<circle class="st4" cx="140.27" cy="172.84" r="14.89"/>
			</g>
			<g>
				<path class="st24" d="M402.24,133.27c0.92,7.91-1.12,16.06-5.65,22.58c11.7-2.84,24.26-2.12,35.62,2.08
					c-6.81,7.44-13.57,14.97-20.38,22.41c5.11,0.65,9.84,4.72,14.34,7.92c-6.89,4.76-11.54,4.17-19.58,6.34
					c6.44,1.85,8.59,2.17,13.68,6.35c-10.8,7.61-26.06,7.85-37.77,1.61s-19.7-18.44-22.14-31.47c-2.37-13.01,0.55-26.76,6.99-38.32
					c4.49,5.93,7.74,12.77,9.35,20C382.36,143.3,391.71,136.22,402.24,133.27z"/>
				<g>
					<path class="st15" d="M428.65,140.87c-24.38,10.29-45.21,27.75-59.66,49.93c-0.88,1.34,1.06,2.89,1.95,1.55
						c14.12-21.88,34.45-39.57,58.13-50.47C429.72,141.6,429.28,140.66,428.65,140.87L428.65,140.87z"/>
				</g>
				<g>
					<path class="st15" d="M434.51,171.16c-21.71,6.75-43.31,13.93-64.97,21.02c-1.33,0.41-0.49,2.43,0.77,2
						c21.5-7.37,43.05-14.65,64.41-22.39C435.18,171.6,434.95,171.05,434.51,171.16L434.51,171.16z"/>
				</g>
				<g>
					<path class="st15" d="M425.21,162.26c-10.01,3.1-19.57,8.19-28.77,13.15c-4.31,2.32-8.57,4.74-12.71,7.28
						c-2.17,1.36-4.35,2.71-6.52,4.07c-2.39,1.53-5.07,2.98-7.11,4.94c-0.69,0.68-0.15,2.12,0.95,1.65
						c4.32-2.08,8.21-5.41,12.27-7.97c4.28-2.74,8.68-5.35,13.13-7.87c9.41-5.38,19.36-9.62,28.9-14.64
						C425.75,162.59,425.57,162.13,425.21,162.26L425.21,162.26z"/>
				</g>
				<g>
					<path class="st15" d="M388.48,127.7c-1.7,4.87-2.93,10.05-4.34,15.01c-1.65,5.77-3.4,11.6-5.34,17.28
						c-3.55,10.75-7.59,21.27-12.04,31.58c-0.73,1.63,1.76,2.7,2.49,1.07c4.48-10.39,8.37-20.95,11.77-31.75
						c3.35-10.65,7.05-21.91,8.23-33.05C389.28,127.46,388.64,127.18,388.48,127.7L388.48,127.7z"/>
				</g>
				<g>
					<path class="st15" d="M422.55,193.37c-18.18,0.33-36.09,0.02-54.11-2.57c-1.54-0.22-1.95,2.23-0.39,2.37
						c17.92,2.4,36.66,3.44,54.59,1.26C423.43,194.43,423.28,193.34,422.55,193.37L422.55,193.37z"/>
				</g>
				<g>
					<path class="st15" d="M367.35,153.42c-2.4,5.87-2.58,12.89-2.46,19.19c0.12,7.11,1.4,14.08,3.55,20.83
						c0.59,1.78,3.33,0.68,2.74-1.11c-1.99-6.22-3.28-12.64-3.75-19.12c-0.49-6.66,0.6-13,0.96-19.56
						C368.39,153.17,367.6,152.86,367.35,153.42L367.35,153.42z"/>
				</g>
				<g>
					<path class="st15" d="M417.34,194.94c0.27,2.57,2.74,4.52,5.32,4.25c2.57-0.27,4.52-2.74,4.25-5.32
						c-0.27-2.57-2.74-4.52-5.32-4.25C419.01,189.89,417.06,192.36,417.34,194.94L417.34,194.94z"/>
				</g>
				<g>
					<path class="st15" d="M430.27,171.65c0.32,2.67,2.79,4.62,5.44,4.36c2.67-0.32,4.62-2.79,4.36-5.44
						c-0.32-2.67-2.79-4.62-5.44-4.36C431.98,166.46,430.02,169.01,430.27,171.65L430.27,171.65z"/>
				</g>
				<g>
					<path class="st15" d="M425.08,158.12c-0.96-0.29-1.3-0.47-2.3-0.37c-1,0.1-1.33,0.41-2.19,0.87c-0.24,0.25-0.57,0.55-0.8,0.8
						c-0.49,0.58-0.79,1.29-0.94,2.05c-0.22,1.54,0.41,3.18,1.64,4.19c1.87,1.53,4.71,1.17,6.24-0.7c0.75-0.9,1.11-2.08,0.97-3.24
						c-0.07-0.83-0.36-1.47-0.87-2.19C426.37,158.91,425.78,158.49,425.08,158.12L425.08,158.12z"/>
				</g>
				<g>
					<path class="st15" d="M423.68,141.63c0.3,2.5,2.57,4.31,5.04,4.08c2.5-0.3,4.31-2.57,4.08-5.04c-0.3-2.5-2.57-4.31-5.04-4.08
						C425.19,136.86,423.39,139.13,423.68,141.63L423.68,141.63z"/>
				</g>
				<g>
					<path class="st15" d="M383.35,127.93c0.72,6.16,10.29,5.09,9.56-1.07C392.21,120.62,382.65,121.69,383.35,127.93L383.35,127.93
						z"/>
				</g>
				<g>
					<path class="st15" d="M372.58,152.58c0,0,0.02-0.07-0.05-0.1c-0.1-1-0.47-1.91-1.11-2.74c-0.28-0.41-0.66-0.76-1.05-1.04
						c0.6,0.42-0.94-0.6-1.29-0.79c-1.92-0.82-4.16-0.6-5.9,0.64c-1.67,1.27-2.6,3.32-2.34,5.4c0.26,2.09,1.58,3.85,3.48,4.74
						c1.92,0.82,4.23,0.63,5.9-0.64c0.83-0.63,1.47-1.41,1.83-2.34C372.55,154.58,372.69,153.58,372.58,152.58L372.58,152.58z"/>
				</g>
				<path class="st17" d="M360.97,173.61c0,0,0.94,13.46,5.13,22.83c4.16,9.44,28.21,9.91,28.21,9.91L360.97,173.61z"/>
			</g>
		</g>
	</g>
	<g>
		<path class="st3" d="M345.35,520.26c0,0-0.02-0.04-0.05-0.1C344.6,519.82,345.35,520.26,345.35,520.26z"/>
		<path class="st3" d="M484.7,460.14c-2.49-5.37-5.98-10.22-10.19-14.33c9.13-28.34-7.25-64.18-37.71-70.24
			c1.02-18.68-6.51-37.85-22.13-48.95c-5.95-4.23-12.82-6.76-20.06-7.56c-0.55-0.06-1.01,0.04-1.37,0.25
			c-1.23-1.34-1.59-2.6-1.59-2.6s-4.29-8.78-17.41-16.79s-27.92-3.81-32.59-2.61c-0.52,0.13-0.98,0.21-1.38,0.24
			c-7.45-30.22-43.86-45.65-72.13-36.04c-8.33,2.83-15.9,7.44-22.52,13.19c-22.13-9.7-48.53-2.68-62.27,17.52
			c-0.25,0.37-0.38,0.73-0.42,1.08c-1.36,0.32-2.36,0.28-2.36,0.28s0.69-2-17.86,2.66c-18.56,4.66-23.02,21.34-24.79,25.98
			c-0.14,0.38-0.3,0.71-0.48,1.02c-0.51-0.34-1.16-0.51-1.92-0.36c-25.77,5.02-43.01,30.12-38.89,55.88
			c-24.99,10.02-38.51,36.08-38.94,62.12c0,0-0.01,0.01-0.01,0.01c-15.61,15.09-20.75,38.23-11.97,58.22
			C53.49,516.85,71,528.86,90,531.37c13.24,1.75,26.76-1.01,38.25-7.83c0.48-0.28,0.79-0.64,0.98-1.04
			c0.71,0.18,1.15,0.38,1.15,0.38s10.37,3.24,18.86,4.52c8.5,1.28,19.89,1.13,28.16-4.08c8.27-5.21,10.28-0.76,10.28-0.76
			s9.81,6.68,17.42,11.83c7.61,5.15,19.22,4.5,25.7,3.33s22.36-7.19,26.95-13.74c4.59-6.55,6.48-1.56,6.48-1.56
			s6.12,6.35,20.48,12.28c14.36,5.94,27.86,1.91,34.9,0c7.03-1.91,16.54-8.17,20.45-13.08c3.51-4.41,4.97-1.99,5.24-1.45
			c0.64,0.31,2.48,1.27,7.21,3.81c9.91,5.33,22.6,6.08,33.3,4.96c10.7-1.12,20.14-4.65,23.17-7.49c0.83-0.77,1.6-1.26,2.38-1.51
			c-0.05,0.81,0.28,1.65,1.13,2.23c19.02,12.8,44.89,10.71,61.52-5.07C489.34,502.53,493.56,479.26,484.7,460.14z"/>
	</g>
	<path class="st3" d="M102.43,355.02c0,0,3.05-13.86,13.88-20.8c10.82-6.95,17.21-9.32,17.21-9.32s4.34,0.52,6.1-4.12
		c1.77-4.64,6.23-21.32,24.79-25.98s17.86-2.66,17.86-2.66s5.23,0.22,8.08-4.24c2.85-4.47,13.74-14.72,27.6-15.83
		c13.86-1.11,26.57,2.7,26.57,2.7s2.23,3.42,9.41-2.91c7.18-6.32,18.13-12.68,35.19-11.62c17.07,1.06,27.62,4.81,35.03,12.46
		s13.7,16.73,13.7,16.73l0.86,4.4c0,0-0.04,3.24,4.63,2.04c4.67-1.2,19.47-5.41,32.59,2.61c13.12,8.02,17.41,16.79,17.41,16.79
		s1.17,3.98,6.27,5.35s24.54,8.28,30.47,24.45c5.93,16.16,5.97,22.96,5.97,22.96l0.07,4.77c0,0,0.04,2.21,4.44,4.38
		c4.4,2.17,20.02,5.64,28.04,22.21c8.02,16.57,8.89,25.99,7.73,32.58c-1.15,6.59-4.06,12.82-1.48,14.59
		c2.58,1.77,14.24,16.49,13.71,31.43c-0.53,14.95-5.84,25.58-11.07,32.1c-5.23,6.51-12.17,13-24.88,15.35
		c-12.71,2.35-28.15-0.57-32.32-4c-4.17-3.42-6.57-4.29-9.61-1.44c-3.04,2.84-12.47,6.37-23.17,7.49
		c-10.7,1.12-23.39,0.37-33.3-4.96c-9.91-5.33-7.17-3.71-7.17-3.71s-1.37-3.56-5.28,1.35c-3.91,4.91-13.42,11.17-20.45,13.08
		c-7.03,1.91-20.54,5.94-34.9,0c-14.36-5.94-20.48-12.28-20.48-12.28s-1.89-4.99-6.48,1.56c-4.59,6.55-20.48,12.57-26.95,13.74
		c-6.47,1.17-18.08,1.83-25.7-3.33c-7.61-5.15-19.43-16.28-27.71-11.07c-8.27,5.21-19.66,5.36-28.16,4.08
		c-8.5-1.28-18.86-4.52-18.86-4.52s-4.5-2.04-8.24,1.1c-3.74,3.14-31.91,10.63-48.55,0c-16.63-10.63-26.66-21.42-29-36.98
		c-2.35-15.56,0.66-24.57,4.92-31.25c4.25-6.68,6.85-9.86,6.85-9.86s3.34-2.51,3.87-8.24c0.53-5.72,3.07-27.91,14.07-38.8
		c11-10.89,18.35-15.53,18.35-15.53s6.72-0.64,6.28-6.05C100.19,370.4,102.06,358.59,102.43,355.02z"/>
	<g>
		<path class="st4" d="M352.32,489.74c3.21-1.63,6.66-1.66,10.13-0.94c3.64,0.76,7.64,2.17,10.28,4.89
			c5.35,5.5,5.62,13.93,5.32,21.12c-0.1,2.45,3.71,2.94,3.81,0.47c0.36-8.61-0.21-18.32-6.83-24.68c-3.17-3.05-7.58-4.61-11.81-5.54
			c-4.16-0.92-8.57-0.79-12.42,1.16C348.61,487.32,350.11,490.86,352.32,489.74L352.32,489.74z"/>
	</g>
	<g>
		<path class="st4" d="M163.05,510.11c-1.63-3.21-1.66-6.66-0.94-10.13c0.76-3.64,2.17-7.64,4.89-10.28
			c5.5-5.35,13.93-5.62,21.12-5.32c2.45,0.1,2.94-3.71,0.47-3.81c-8.61-0.36-18.32,0.21-24.68,6.83c-3.05,3.17-4.61,7.58-5.54,11.81
			c-0.92,4.16-0.79,8.57,1.16,12.42C160.64,513.82,164.17,512.32,163.05,510.11L163.05,510.11z"/>
	</g>
	<circle class="st0" cx="264.06" cy="425.46" r="110.21"/>
	<path class="st3" d="M319.87,348.72c-0.7-1.34-2.02-1.5-3.08-1c-1.27-3.04-2.43-6.01-2.29-6.75c0.31-1.59-0.42-4.95-0.42-4.95
		s-11.75,0.7-15.98,0c-4.23-0.7-19.65-5.19-22.13-6.88c-2.48-1.69-4.44-3.18-6.12,0c-1.68,3.18-3.8,6.1-12.98,11.66
		c-9.18,5.56-12.8,7.59-16.07,7.68c-3.27,0.09-11.06-1.07-11.06-1.07s-0.03-0.01-0.08-0.01c-0.74-2.35-4.84-2.07-4.91,0.85
		c-0.38,14.29,5.99,31.35,20.92,35.6c8.67,2.47,21.87,1.49,24.3-9.12c0.04-0.17,0.07-0.34,0.1-0.51c1.35,0.34,2.71,0.62,4.08,0.81
		c6.01,0.84,12.83,0.2,17.71-3.74c1.22-0.99,2.22-2.17,3-3.47c4.66,3.21,10.37,5.29,16.07,4.26c6.6-1.19,11.02-6.73,11.37-13.31
		C322.5,355.25,321.49,351.82,319.87,348.72z"/>
	<path class="st3" d="M186.31,372.42c0,0,27,17.49,58.33-15.32c0,0,31.24-32.39-7.53-32.81C198.34,323.86,184.3,355.8,186.31,372.42
		z"/>
	<path class="st3" d="M306.65,356.13c0,0,5.6,33.96,49.7,34.1c0,0,27.22-31.83,2.72-53C334.56,316.06,306.65,330.51,306.65,356.13z"
		/>
	<path class="st3" d="M288.03,307.6l-31.15,33.2c0,0-7.7,11.94-32.12,7.45c0,0-9.07,11.41-32.54,20.34c0,0,14.79,45.1-38.12,48.47
		C154.1,417.06,133.5,296.27,288.03,307.6z"/>
	<path class="st3" d="M356.35,390.23c0,0-18.26,44.18,3.89,51.89c22.15,7.71,63.25-1,40.44-38.39
		C377.87,366.33,356.35,390.23,356.35,390.23z"/>
	<path class="st3" d="M166.91,390.23c0,0,18.26,44.18-3.89,51.89c-22.15,7.71-63.25-1-40.44-38.39S166.91,390.23,166.91,390.23z"/>
	<path class="st3" d="M261.76,301.88c0,0,7.32,47.68,69.46,30.53C331.22,332.42,321.19,276.54,261.76,301.88z"/>
	<path class="st3" d="M315.12,319.07c0,0-17.65,41.41,28.72,51.31c0,0-13.81,58.5,62.39,45.66
		C406.23,416.03,412.66,295.16,315.12,319.07z"/>
	<g>
		<path class="st4" d="M268.81,325.43c-4.24,7.3-10.83,13.09-18.5,16.59c-8.92,4.07-18.86,4.11-28.08,1.02
			c-3.07-1.03-4.39,3.82-1.34,4.85c10.31,3.45,21.3,3.15,31.26-1.22c8.7-3.82,16.23-10.48,21-18.7
			C274.77,325.17,270.43,322.63,268.81,325.43L268.81,325.43z"/>
	</g>
	<g>
		<path class="st4" d="M256.46,297.3c-0.19,5.19,1.09,10.72,3,15.51c4.32,10.85,12.93,18.75,23.93,22.6
			c9.57,3.35,20.04,3.6,30.04,2.66c3.19-0.3,3.22-5.33,0-5.03c-14.16,1.32-30.47,0.31-41.33-10.05
			c-5.86-5.59-9.15-13.05-10.31-20.97c-0.1-0.69,0.06,0.53-0.02-0.14c-0.02-0.19-0.05-0.38-0.07-0.57c-0.04-0.35-0.07-0.7-0.1-1.05
			c-0.04-0.52-0.08-1.03-0.1-1.55c-0.02-0.47-0.03-0.94-0.01-1.41C261.61,294.07,256.58,294.07,256.46,297.3L256.46,297.3z"/>
	</g>
	<g>
		<path class="st4" d="M396.6,414.45c-14.13,6.78-31.39,3.82-42.28-7.46c-10.1-10.46-12.85-26.67-6.4-39.79
			c3.8-7.73,10.15-13.65,17.94-17.23c2.94-1.35,0.39-5.68-2.54-4.34c-15.88,7.29-25.78,24.26-23.63,41.71
			c1.97,15.98,13.56,29.45,28.96,34.06c10.13,3.03,21,1.93,30.48-2.62C402.05,417.39,399.51,413.05,396.6,414.45L396.6,414.45z"/>
	</g>
	<g>
		<path class="st4" d="M378.4,422.4c-0.73-0.93,0.18,0.26,0.41,0.59c0.66,0.93,1.28,1.89,1.87,2.86c1.98,3.23,3.71,6.64,5.06,10.18
			c3.96,10.4,4.9,21.74,0.99,32.31c-3.04,8.23-8.81,15.05-15.39,20.7c-2.46,2.11,1.11,5.65,3.55,3.55
			c11.52-9.9,19.54-23.36,19.42-38.87c-0.08-10.22-3.4-20.32-8.51-29.11c-1.16-2-2.42-3.95-3.85-5.77
			C379.96,416.31,376.42,419.89,378.4,422.4L378.4,422.4z"/>
	</g>
	<g>
		<path class="st4" d="M343.84,370.38c-10.62-3.48-19.62-11.3-23.97-21.68c-4.28-10.2-3.68-22.09,1.6-31.81
			c10.84-19.99,37.46-26.4,56.54-14.35c10.3,6.5,16.96,17.63,17.64,29.8c0.18,3.22,5.21,3.24,5.03,0
			c-0.69-12.24-6.48-23.63-16.11-31.27c-9.88-7.83-22.62-11.05-35.06-9.2c-25.37,3.77-43.26,29.56-35.76,54.56
			c4.14,13.79,15.19,24.35,28.76,28.8C345.58,376.23,346.9,371.38,343.84,370.38L343.84,370.38z"/>
	</g>
	<g>
		<path class="st4" d="M345.13,326.23c11.12-9.71,27.18-11.11,39.74-3.35c12.15,7.5,18.7,21.73,17.93,35.81
			c-0.5,9-4.13,17.63-10.24,24.25c-2.19,2.37,1.35,5.93,3.55,3.55c12.21-13.2,15.02-32.77,7.72-49.11
			c-6.18-13.83-19.75-23.93-35.04-24.59c-10.06-0.44-19.67,3.32-27.2,9.89C339.13,324.81,342.7,328.35,345.13,326.23L345.13,326.23z
			"/>
	</g>
	<path class="st3" d="M394.24,407.48c0,0,22.47,6.59,21.24,40.49c-1.23,33.9-13.51,43.4-17.61,53.01
		c-4.1,9.61,15.59,20.38,28.7,6.87c13.11-13.51,25.1-42.57,18.64-69.23c-6.47-26.67-14.84-33.85-29.72-43.56
		C400.6,385.36,381.77,394.77,394.24,407.48z"/>
	<g>
		<path class="st4" d="M371.38,387.3c17.88-2.28,35.82,3.07,49.4,14.97c13.01,11.39,21.37,27.66,23.39,44.82
			c2.08,17.74-2.18,35.91-12.42,50.6c-9.66,13.85-24.48,23.78-41.14,26.81c-21.97,3.99-34.68,2.52-49.16-14.11
			c-2.13-2.44-5.67,1.12-3.55,3.55c13.96,16.03,25.4,17.94,46.76,16.33c18.02-1.35,34.83-10.14,46.59-23.81
			c25.15-29.22,24.35-75.14-2.2-103.22c-14.79-15.65-36.24-23.7-57.67-20.97C368.22,382.67,368.18,387.7,371.38,387.3L371.38,387.3z
			"/>
	</g>
	<path class="st3" d="M90.14,440.21c0,0,9.01-33.07,27.25-43.73c18.24-10.66,26.36-13.11,33.9-13.55s14.12,1.25,12.71,5.25
		s-25.66,9.78-30.37,25.02c-4.71,15.24-14.12,41.02-4,60.62c10.12,19.59,17.66,39.6,10.59,41.02c-7.06,1.41-42.26-10.74-47.85-37.5
		C86.79,450.57,88.27,447.97,90.14,440.21z"/>
	<g>
		<g>
			<path class="st4" d="M136.92,417c16.04,7.69,35.59,4.79,48.15-8.01c11.75-11.98,14.83-30.28,7.72-45.47
				c-4.07-8.69-11.36-15.68-20.06-19.67c-2.92-1.34-5.48,2.99-2.54,4.34c14.06,6.45,22.84,20.82,21.26,36.35
				c-1.41,13.86-11.55,25.84-24.74,30.04c-8.97,2.86-18.77,2.16-27.25-1.91C136.55,411.27,134,415.6,136.92,417L136.92,417z"/>
		</g>
		<g>
			<path class="st4" d="M154.1,417.06c-11.03,14-15.93,34.54-9.39,51.43c3.41,8.8,9.34,16.2,16.45,22.31
				c2.44,2.1,6.01-1.44,3.55-3.55c-10.79-9.28-18.31-21.59-17.93-36.16c0.23-9.17,3.35-18.15,7.97-26c0.71-1.2,1.45-2.38,2.24-3.53
				c0.27-0.39,1.38-1.85,0.66-0.95C159.64,418.1,156.1,414.52,154.1,417.06L154.1,417.06z"/>
		</g>
		<g>
			<path class="st4" d="M193.56,373.44c11.98-3.92,22.09-12.59,27.09-24.25c4.95-11.56,4.42-24.89-1.4-36.04
				c-11.91-22.84-42.49-30.39-64.01-16.55c-11.7,7.52-19.07,20.08-19.85,33.96c-0.18,3.23,4.85,3.22,5.03,0
				c1.28-22.86,23.24-39.08,45.5-35.52c22.27,3.56,38.09,25.77,31.66,47.93c-3.55,12.22-13.36,21.69-25.35,25.62
				C189.16,369.6,190.47,374.45,193.56,373.44L193.56,373.44z"/>
		</g>
		<g>
			<path class="st4" d="M194.49,320.9c-12.79-11.17-31.28-13.13-45.83-4.14c-13.7,8.46-21.44,24.6-20.39,40.56
				c0.67,10.22,4.74,19.86,11.69,27.39c2.2,2.38,5.75-1.18,3.55-3.55c-10.59-11.46-13.22-28.78-6.93-43.02
				c5.34-12.1,16.92-21.35,30.37-22.08c8.82-0.48,17.35,2.61,23.98,8.4C193.36,326.57,196.93,323.03,194.49,320.9L194.49,320.9z"/>
		</g>
		<g>
			<path class="st4" d="M164.68,380.49c-17.49-2.23-35.2,2.65-49.18,13.36c-13.38,10.25-22.84,25.12-26.86,41.46
				c-8.21,33.37,6.68,71.01,38.14,86.47c19.46,9.56,42.38,8.93,61.42-1.39c2.85-1.54,0.31-5.88-2.54-4.34
				c-16.06,8.7-35.2,9.96-52.19,3.24c-14.3-5.66-26.05-16.77-33.37-30.19c-15.5-28.44-9.88-65.84,14.2-87.75
				c13.7-12.46,32.03-18.18,50.38-15.84C167.88,385.92,167.85,380.89,164.68,380.49L164.68,380.49z"/>
		</g>
	</g>
	<g>
		<g>
			<path class="st5" d="M148.01,328.85c-11.02,9.75-13.58,26.32-6.66,39.19c1.53,2.85,5.87,0.32,4.34-2.54
				c-5.9-10.98-3.44-24.85,5.88-33.1C153.99,330.26,150.43,326.71,148.01,328.85L148.01,328.85z"/>
		</g>
		<g>
			<path class="st5" d="M168.54,321.9c-4.14-0.35-8.39,0.29-12.24,1.86c-0.63,0.26-1.14,0.54-1.5,1.15
				c-0.32,0.54-0.45,1.33-0.25,1.94c0.38,1.17,1.79,2.29,3.09,1.76c1.77-0.72,3.61-1.25,5.5-1.56c0.1-0.02,0.21-0.03,0.31-0.05
				c-0.32,0.04-0.33,0.04-0.04,0.01c0.21-0.02,0.42-0.05,0.63-0.07c0.49-0.05,0.99-0.08,1.48-0.1c1.01-0.03,2.01,0,3.02,0.09
				c1.31,0.11,2.57-1.24,2.51-2.51C170.99,322.95,169.95,322.02,168.54,321.9L168.54,321.9z"/>
		</g>
		<g>
			<path class="st5" d="M253.18,378.73c1.61,0.12,3.23,0.13,4.85,0.03c0.67-0.04,1.3-0.25,1.78-0.74c0.44-0.44,0.76-1.15,0.74-1.78
				c-0.03-0.65-0.24-1.32-0.74-1.78c-0.48-0.44-1.11-0.77-1.78-0.74c-1.62,0.09-3.24,0.09-4.85-0.03c-0.61-0.05-1.36,0.31-1.78,0.74
				c-0.44,0.44-0.76,1.15-0.74,1.78c0.03,0.65,0.24,1.32,0.74,1.78C251.92,378.46,252.48,378.68,253.18,378.73L253.18,378.73z"/>
		</g>
		<g>
			<path class="st5" d="M231.41,356.52c0.01,5.77,2.6,11.93,6.7,15.95c2.14,2.1,4.7,3.6,7.48,4.68c1.27,0.49,2.76-0.54,3.09-1.76
				c0.39-1.42-0.48-2.6-1.76-3.09c-0.16-0.06-0.32-0.12-0.48-0.19c0.05,0.02,0.28,0.12,0.01,0c-0.27-0.12-0.53-0.24-0.79-0.37
				c-0.5-0.25-0.99-0.53-1.46-0.82c-0.45-0.28-0.9-0.58-1.32-0.91c0.37,0.28-0.16-0.14-0.27-0.23c-0.22-0.19-0.43-0.38-0.65-0.57
				c-0.36-0.33-0.7-0.68-1.03-1.05c-0.14-0.15-0.27-0.31-0.4-0.46c-0.09-0.1-0.17-0.21-0.26-0.31c-0.24-0.28,0.24,0.33,0.02,0.04
				c-0.55-0.75-1.06-1.52-1.51-2.34c-0.19-0.35-0.37-0.7-0.54-1.05c-0.09-0.19-0.17-0.38-0.26-0.56c-0.06-0.13-0.16-0.44,0.05,0.12
				c-0.04-0.11-0.09-0.21-0.13-0.32c-0.27-0.7-0.51-1.41-0.72-2.13c-0.18-0.65-0.34-1.31-0.47-1.97c-0.05-0.28-0.1-0.55-0.15-0.83
				c-0.02-0.11-0.03-0.22-0.05-0.33c-0.01-0.05,0.08,0.69,0.02,0.17c-0.06-0.55-0.12-1.1-0.12-1.66c0-1.36-1.15-2.51-2.51-2.51
				C232.57,354,231.41,355.16,231.41,356.52L231.41,356.52z"/>
		</g>
		<g>
			<path class="st5" d="M273.15,370.06c2.23,0.46,4.59,0.61,6.86,0.48c0.67-0.04,1.29-0.25,1.78-0.74c0.44-0.44,0.76-1.15,0.74-1.78
				c-0.03-0.65-0.24-1.32-0.74-1.78c-0.47-0.44-1.11-0.78-1.78-0.74c-1.67,0.1-3.36,0.02-5.02-0.2c0.22,0.03,0.45,0.06,0.67,0.09
				c-0.39-0.05-0.78-0.11-1.17-0.19c-0.66-0.14-1.34-0.1-1.94,0.25c-0.52,0.3-1.02,0.9-1.15,1.5c-0.15,0.64-0.11,1.37,0.25,1.94
				C271.99,369.44,272.51,369.93,273.15,370.06L273.15,370.06z"/>
		</g>
		<g>
			<path class="st5" d="M217,276.23c-5.95,0.8-11.71,2.97-16.72,6.27c-1.13,0.74-1.61,2.22-0.9,3.44c0.66,1.13,2.3,1.65,3.44,0.9
				c4.76-3.13,9.81-4.99,15.52-5.76c1.31-0.18,2.13-1.92,1.76-3.09C219.62,276.55,218.4,276.04,217,276.23L217,276.23z"/>
		</g>
		<g>
			<path class="st5" d="M233.04,277.46c-2.34-0.54-4.71-0.9-7.1-1.12c-0.61-0.06-1.36,0.32-1.78,0.74
				c-0.44,0.44-0.76,1.15-0.74,1.78c0.03,0.65,0.24,1.32,0.74,1.78c0.52,0.47,1.08,0.67,1.78,0.74c0.71,0.07,1.41,0.14,2.12,0.24
				c-0.22-0.03-0.45-0.06-0.67-0.09c1.45,0.2,2.89,0.46,4.31,0.79c0.65,0.15,1.35,0.09,1.94-0.25c0.52-0.3,1.02-0.9,1.15-1.5
				C235.08,279.27,234.41,277.77,233.04,277.46L233.04,277.46z"/>
		</g>
		<g>
			<path class="st5" d="M269.46,312.06c3.32,6.12,8.55,11,14.82,14.01c1.18,0.57,2.77,0.37,3.44-0.9c0.59-1.12,0.36-2.83-0.9-3.44
				c-1.64-0.79-3.23-1.69-4.72-2.74c-0.15-0.11-0.31-0.22-0.46-0.33c-0.06-0.04-0.59-0.44-0.37-0.27c0.25,0.19-0.22-0.17-0.26-0.21
				c-0.17-0.14-0.34-0.27-0.5-0.41c-0.62-0.52-1.22-1.06-1.79-1.63c-0.53-0.52-1.04-1.07-1.52-1.63c-0.24-0.27-0.47-0.55-0.7-0.83
				c-0.15-0.19-0.34-0.45-0.09-0.1c-0.12-0.15-0.23-0.31-0.35-0.46c-0.84-1.14-1.59-2.35-2.26-3.59c-0.63-1.16-2.32-1.62-3.44-0.9
				C269.18,309.38,268.79,310.82,269.46,312.06L269.46,312.06z"/>
		</g>
		<g>
			<path class="st5" d="M265.45,299.91c0.29,1.98,0.74,3.94,1.34,5.85c0.2,0.62,0.59,1.17,1.15,1.5c0.54,0.32,1.33,0.45,1.94,0.25
				c0.61-0.2,1.19-0.57,1.5-1.15c0.31-0.59,0.46-1.29,0.25-1.94c-0.61-1.91-1.06-3.87-1.34-5.85c-0.08-0.58-0.67-1.22-1.15-1.5
				c-0.54-0.32-1.33-0.45-1.94-0.25c-0.61,0.2-1.19,0.57-1.5,1.15c-0.08,0.2-0.17,0.4-0.25,0.6
				C265.33,299.02,265.33,299.46,265.45,299.91L265.45,299.91z"/>
		</g>
		<g>
			<g>
				<path class="st5" d="M110.58,368.02c-0.35-6.33,1.52-12.63,5.49-17.55c0.85-1.06,1.03-2.52,0-3.55c-0.88-0.88-2.7-1.06-3.55,0
					c-4.82,5.98-7.39,13.4-6.96,21.1c0.07,1.36,1.1,2.51,2.51,2.51C109.37,370.53,110.66,369.38,110.58,368.02L110.58,368.02z"/>
			</g>
			<g>
				<path class="st5" d="M114.09,379.28c-0.65-1.1-1.22-2.23-1.72-3.4c0.08,0.2,0.17,0.4,0.25,0.6c-0.33-0.79-0.63-1.6-0.89-2.42
					c-0.2-0.62-0.59-1.17-1.15-1.5c-0.54-0.32-1.33-0.45-1.94-0.25c-0.61,0.2-1.19,0.57-1.5,1.15c-0.31,0.59-0.46,1.29-0.25,1.94
					c0.71,2.23,1.67,4.4,2.86,6.42c0.32,0.55,0.89,0.99,1.5,1.15c0.6,0.17,1.4,0.09,1.94-0.25
					C114.32,381.99,114.8,380.49,114.09,379.28L114.09,379.28z"/>
			</g>
		</g>
		<g>
			<g>
				<path class="st5" d="M73.15,447.27c-0.22-2.35-0.26-4.7-0.11-7.06c0.08-1.31-1.21-2.57-2.51-2.51c-1.43,0.06-2.43,1.1-2.51,2.51
					c-0.15,2.35-0.11,4.71,0.11,7.06c0.06,0.68,0.24,1.28,0.74,1.78c0.44,0.44,1.15,0.76,1.78,0.74c0.65-0.03,1.32-0.24,1.78-0.74
					C72.84,448.58,73.21,447.92,73.15,447.27L73.15,447.27z"/>
			</g>
			<g>
				<path class="st5" d="M77.23,463.7c-0.19-0.4-0.36-0.79-0.54-1.19c-0.11-0.26-0.1-0.23,0.03,0.08c-0.05-0.12-0.1-0.23-0.14-0.35
					c-0.07-0.18-0.14-0.35-0.21-0.53c-0.33-0.86-0.64-1.73-0.91-2.61c-0.55-1.76-0.97-3.56-1.29-5.38c-0.22-1.3-1.89-2.14-3.09-1.76
					c-1.4,0.45-1.99,1.7-1.76,3.09c0.67,3.88,1.89,7.61,3.56,11.17c0.56,1.19,2.37,1.59,3.44,0.9
					C77.56,466.35,77.84,464.98,77.23,463.7L77.23,463.7z"/>
			</g>
		</g>
		<g>
			<g>
				<path class="st5" d="M97.25,440.55c-5.22,25.13,4.59,51.85,26.46,65.88c2.73,1.75,5.25-2.6,2.54-4.34
					c-19.89-12.76-28.9-37.36-24.15-60.21C102.75,438.73,97.91,437.38,97.25,440.55L97.25,440.55z"/>
			</g>
			<g>
				<path class="st5" d="M103.9,423.08c-1.48,2.62-2.74,5.34-3.84,8.14c-0.22,0.57-0.04,1.43,0.25,1.94c0.3,0.52,0.9,1.02,1.5,1.15
					c0.64,0.15,1.37,0.11,1.94-0.25c0.58-0.38,0.9-0.86,1.15-1.5c0.19-0.49,0.39-0.97,0.59-1.45c-0.08,0.2-0.17,0.4-0.25,0.6
					c0.88-2.08,1.88-4.12,2.99-6.09c0.65-1.15,0.31-2.8-0.9-3.44C106.15,421.55,104.59,421.86,103.9,423.08L103.9,423.08z"/>
			</g>
		</g>
		<g>
			<g>
				<path class="st5" d="M475.44,486.39c-3.05,14.61-15.82,25.29-30.8,25.39c-3.23,0.02-3.24,5.05,0,5.03
					c17.1-0.12,32.14-12.3,35.65-29.08C480.94,484.57,476.1,483.23,475.44,486.39L475.44,486.39z"/>
			</g>
			<g>
				<path class="st5" d="M475.2,473.06c0.26,1.11,0.46,2.22,0.61,3.35c-0.03-0.22-0.06-0.45-0.09-0.67c0.2,1.5,0.29,3.01,0.3,4.52
					c0,1.31,1.15,2.57,2.51,2.51c1.36-0.06,2.52-1.1,2.51-2.51c-0.01-2.87-0.35-5.75-1-8.54c-0.3-1.28-1.83-2.16-3.09-1.76
					C475.62,470.4,474.88,471.68,475.2,473.06L475.2,473.06z"/>
			</g>
		</g>
		<g>
			<path class="st5" d="M429.77,439.29c8.04,27.24-5.02,58.83-32.76,68.34c-3.04,1.04-1.74,5.9,1.34,4.85
				c30.3-10.39,45.12-44.52,36.27-74.52C433.71,434.86,428.86,436.18,429.77,439.29L429.77,439.29z"/>
		</g>
		<g>
			<path class="st5" d="M415.71,416.06c1.66,1.62,3.22,3.34,4.66,5.16c0.08,0.1,0.16,0.21,0.24,0.31c0.04,0.05,0.32,0.37,0.11,0.13
				c-0.23-0.26,0.12,0.16,0.16,0.22c0.08,0.1,0.16,0.21,0.24,0.32c0.35,0.48,0.7,0.96,1.04,1.44c0.68,0.98,1.33,1.98,1.95,3
				c0.68,1.12,2.28,1.65,3.44,0.9c1.13-0.73,1.63-2.24,0.9-3.44c-2.57-4.22-5.66-8.14-9.19-11.59c-0.94-0.92-2.63-1.01-3.55,0
				C414.8,413.5,414.71,415.08,415.71,416.06L415.71,416.06z"/>
		</g>
		<g>
			<path class="st5" d="M388.4,336.84c8.4,10.57,8.75,25.79,1.24,36.9c-1.82,2.69,2.54,5.2,4.34,2.54
				c8.87-13.12,7.74-30.71-2.02-42.99C389.94,330.75,386.41,334.33,388.4,336.84L388.4,336.84z"/>
		</g>
		<g>
			<path class="st5" d="M374.17,327.31c0.8,0.22,1.58,0.47,2.36,0.76c0.32,0.12,0.67,0.32,1.01,0.4c-0.36-0.15-0.42-0.18-0.17-0.07
				c0.09,0.04,0.19,0.08,0.28,0.12c0.19,0.08,0.38,0.17,0.56,0.26c1.45,0.68,2.83,1.49,4.16,2.39c1.09,0.74,2.84,0.24,3.44-0.9
				c0.67-1.28,0.26-2.64-0.9-3.44c-2.86-1.95-6.06-3.44-9.39-4.36c-1.27-0.35-2.79,0.43-3.09,1.76
				C372.12,325.55,372.82,326.93,374.17,327.31L374.17,327.31z"/>
		</g>
	</g>
	<g>
		<path class="st4" d="M212.66,453.63c-6.87,0-12.43-2.21-16.54-6.57c-8.83-9.37-7.56-25.26-7.51-25.94
			c0.11-1.31,1.27-2.27,2.57-2.16c1.31,0.11,2.27,1.26,2.16,2.57c-0.02,0.25-1.1,14.51,6.25,22.29c3.31,3.51,7.97,5.21,13.81,5.06
			c6.05-0.16,10.81-2.15,14.15-5.92c7.03-7.93,5.88-21.28,5.86-21.41c-0.12-1.3,0.83-2.46,2.14-2.58c1.3-0.12,2.46,0.83,2.58,2.13
			c0.06,0.63,1.38,15.5-7.02,24.99c-4.25,4.8-10.17,7.34-17.59,7.53C213.23,453.62,212.94,453.63,212.66,453.63z"/>
	</g>
	<g>
		<path class="st4" d="M305.99,453.63c-6.87,0-12.43-2.21-16.54-6.57c-8.83-9.37-7.56-25.26-7.51-25.94
			c0.11-1.31,1.27-2.27,2.57-2.16c1.31,0.11,2.27,1.26,2.16,2.57c-0.02,0.25-1.1,14.51,6.25,22.29c3.31,3.51,7.97,5.21,13.81,5.06
			c6.05-0.16,10.81-2.15,14.15-5.92c7.03-7.93,5.88-21.28,5.86-21.41c-0.12-1.3,0.83-2.46,2.14-2.58c1.3-0.12,2.46,0.83,2.58,2.13
			c0.06,0.63,1.38,15.5-7.02,24.99c-4.25,4.8-10.17,7.34-17.59,7.53C306.56,453.62,306.28,453.63,305.99,453.63z"/>
	</g>
	<polygon class="st7" points="262.74,440.21 252.48,462.79 273.56,462.79 	"/>
	
		<ellipse transform="matrix(0.8977 -0.4407 0.4407 0.8977 -185.5741 110.4077)" class="st0" cx="144.94" cy="454.78" rx="23.91" ry="28.89"/>
	
		<ellipse transform="matrix(0.4407 -0.8977 0.8977 0.4407 -196.123 594.8092)" class="st0" cx="379.24" cy="454.78" rx="28.89" ry="23.91"/>
	<path class="st6" d="M207.23,464.29c0,0,46.01,15.55,119.63,1.02c0,0-14.93,52.34-58.34,52.34
		C220.74,517.65,207.23,464.29,207.23,464.29z"/>
	<path d="M234.18,387.07c0,0-23.24-42.37-53.91,1.82C180.27,388.89,202.96,362.34,234.18,387.07z"/>
	<path d="M279,386.11c0,0,23.24-42.37,53.91,1.82C332.91,387.94,310.22,361.39,279,386.11z"/>
	<path class="st31" d="M459.49,308.95c0,0,2.74,31.94-10.98,31.14c0,0,17.39,3.67,14.1,23.95c0,0,0.85-22.24,12.94-20.01
		C475.55,344.03,458.23,342.68,459.49,308.95z"/>
	<path class="st31" d="M494.43,236.13c0,0,5.29,61.79-21.24,60.25c0,0,33.65,7.09,27.29,46.32c0,0,1.65-43.02,25.03-38.7
		C525.49,304,491.98,301.39,494.43,236.13z"/>
	<path class="st31" d="M485.32,330.63c0,0,4.27,49.8-17.12,48.56c0,0,27.12,5.71,21.99,37.34c0,0,1.33-34.67,20.17-31.19
		C510.36,385.33,483.36,383.23,485.32,330.63z"/>
	<ellipse class="st8" cx="200.7" cy="462.79" rx="23.21" ry="8.01"/>
	<ellipse class="st8" cx="329.65" cy="459.68" rx="23.21" ry="8.01"/>
</g>
</svg>
