<?xml version="1.0" encoding="utf-8"?>
<!-- Generator: Adobe Illustrator 24.0.1, SVG Export Plug-In . SVG Version: 6.00 Build 0)  -->
<svg version="1.1" id="Capa_1" xmlns="http://www.w3.org/2000/svg" xmlns:xlink="http://www.w3.org/1999/xlink" x="0px" y="0px"
	 viewBox="0 0 566.93 566.93" style="enable-background:new 0 0 566.93 566.93;" xml:space="preserve">
<style type="text/css">
	.st0{fill:#F9D6E4;}
	.st1{fill:#45A759;}
	.st2{fill:#15632D;}
	.st3{fill:#F08CA7;}
	.st4{fill:#B52955;}
	.st5{fill:#F6BFD3;}
	.st6{fill:#FFFFFF;}
	.st7{fill:#CD94A9;}
	.st8{fill:#E16874;}
	.st9{fill:#EEEEEE;}
	.st10{fill:#C9C7C7;}
	.st11{clip-path:url(#SVGID_2_);}
	.st12{clip-path:url(#SVGID_2_);fill:#F08CA7;}
	.st13{fill:#CBC9CA;}
	.st14{fill:#E1E0E0;}
	.st15{fill:#B693C3;}
	.st16{fill:#F8DF28;}
	.st17{fill:#65A2D8;}
	.st18{fill:#DEE275;}
	.st19{fill:#FFDB43;}
	.st20{fill:#E75C2A;}
	.st21{fill:#F49D4E;}
	.st22{opacity:0.5;}
	.st23{fill:#F3B0CF;}
	.st24{fill:#704F9A;}
	.st25{fill:#616160;}
	.st26{fill:#5AE4A7;}
	.st27{fill:#FF0000;}
	.st28{fill:#82CEE0;}
	.st29{fill:#9E6D0B;}
	.st30{fill:#828E0C;}
	.st31{fill:#FFFF00;}
	.st32{clip-path:url(#SVGID_4_);}
	.st33{clip-path:url(#SVGID_4_);fill:#F08CA7;}
	.st34{clip-path:url(#SVGID_6_);}
	.st35{clip-path:url(#SVGID_6_);fill:#F08CA7;}
	.st36{fill:none;stroke:#B52955;stroke-width:3;stroke-linecap:round;stroke-linejoin:round;stroke-miterlimit:10;}
</style>
<g>
	<g>
		<g>
			<path class="st1" d="M344.12,116.25c-11.72-7.22-21.1-18.06-26.41-30.25c-1.28-2.77-2.24-6.08-1.01-8.91
				c2-4.25,8.72-4.83,12.98-2.22c4.25,2.61,6.56,7.29,8.36,11.79C341.74,96.23,343.76,106.26,344.12,116.25z"/>
			<path class="st1" d="M329.09,145.8c-9.61-9.75-15.92-22.28-17.89-35.28c-0.46-3.14-0.56-6.55,1.35-8.89
				c3.04-3.64,9.79-2.65,13.31,0.88c3.52,3.53,4.59,8.57,5.08,13.28C332,125.76,331.45,135.96,329.09,145.8z"/>
			<path class="st1" d="M315.09,164.93c-10.86-7.71-19.12-18.56-23.15-30.44c-0.99-2.8-1.7-6.03-0.13-8.61
				c2.29-3.89,9.02-4.08,13.07-1.27c4.05,2.8,5.85,7.31,7.12,11.76C314.71,145.59,315.73,155.28,315.09,164.93z"/>
			<path class="st1" d="M344.82,113.76c3.4-12.47,11.12-23.74,21.73-31.69c2.45-1.89,5.56-3.69,8.75-3.26
				c5.01,0.79,7.87,6.69,6.62,11.2c-1.29,4.62-5.2,7.97-9.17,10.65C364.29,106.35,354.82,110.92,344.82,113.76z"/>
			<path class="st1" d="M331.53,135.33c8.31-10.16,20.01-17.61,33.13-21.07c3.17-0.74,6.71-1.36,9.5,0.24
				c4.33,2.38,4.64,8.84,1.72,12.53c-3.08,3.76-8.05,5.31-12.87,6.4C352.8,135.68,342.16,136.35,331.53,135.33z"/>
			<path class="st1" d="M314.31,162.72c8.31-10.16,20.01-17.61,33.13-21.07c3.17-0.74,6.71-1.36,9.5,0.24
				c4.33,2.38,4.64,8.84,1.72,12.53c-3.08,3.76-8.05,5.31-12.87,6.4C335.59,163.06,324.94,163.73,314.31,162.72z"/>
			<path class="st1" d="M298.58,202.94c-8.95-9.66-14.67-21.85-15.89-34.21c-0.25-2.94-0.26-6.19,1.85-8.33
				c3.34-3.28,9.97-1.94,13.24,1.51c3.24,3.56,3.97,8.36,4.25,12.86C302.54,184.29,301.37,193.89,298.58,202.94z"/>
			<path class="st1" d="M298.93,196.57c8.31-10.16,20.01-17.61,33.13-21.07c3.17-0.74,6.71-1.36,9.5,0.24
				c4.33,2.38,4.64,8.84,1.72,12.53c-3.08,3.76-8.05,5.31-12.87,6.4C320.21,196.91,309.44,197.54,298.93,196.57z"/>
			<g>
				<path class="st2" d="M349.32,94.78c0.07-0.62-0.88-0.69-0.83-0.02c-5.42,33.98-32.44,57.52-45.55,88.37
					c-6.3,14.87-10.35,30.49-12.83,46.39c-2.68,16.48-5.09,33.83-4.71,50.71c-0.05,2.19,3.22,2.39,3.52,0.28
					c2.63-16.76,2.65-34.01,5.41-50.73c2.79-17.22,6.98-34.49,14.55-50.22C322.2,151.77,347.92,127.14,349.32,94.78L349.32,94.78z"
					/>
			</g>
			<path class="st1" d="M346.57,104.1c-5.68-14.78-6.26-31.07-1.95-45.83c1.06-3.53,2.74-7.25,6.06-8.85
				c5.29-2.49,12.21,1.68,14.28,7.05c2.07,5.37,0.67,11.13-1.15,16.48C359.89,84.09,354.07,94.7,346.57,104.1z"/>
		</g>
		<g>
			<g>
				<path class="st3" d="M384.74,498.27c0,0-0.02-0.04-0.05-0.11C383.93,497.79,384.74,498.27,384.74,498.27z"/>
				<path class="st3" d="M537.09,432.55c-2.72-5.87-6.54-11.17-11.14-15.67c9.98-30.98-7.93-70.17-41.23-76.79
					c1.12-20.42-7.12-41.38-24.19-53.52c-6.5-4.62-14.02-7.39-21.93-8.26c-0.61-0.07-1.1,0.04-1.5,0.27
					c-1.34-1.47-1.74-2.84-1.74-2.84s-4.69-9.59-19.03-18.36c-14.34-8.77-30.53-4.17-35.63-2.85c-0.57,0.15-1.07,0.23-1.51,0.27
					c-8.15-33.03-47.95-49.9-78.86-39.4c-9.1,3.09-17.38,8.14-24.63,14.42c-24.2-10.6-53.06-2.93-68.07,19.15
					c-0.27,0.4-0.42,0.8-0.46,1.18c-1.49,0.35-2.58,0.31-2.58,0.31s0.76-2.19-19.53,2.91c-20.29,5.1-25.17,23.33-27.1,28.4
					c-0.16,0.41-0.33,0.78-0.52,1.12c-0.56-0.38-1.27-0.56-2.1-0.4c-28.17,5.48-47.02,32.93-42.51,61.09
					c-27.32,10.95-42.1,39.44-42.57,67.91c0,0-0.01,0.01-0.01,0.01c-17.06,16.49-22.68,41.79-13.08,63.66
					c8.52,19.39,27.65,32.52,48.43,35.26c14.47,1.91,29.26-1.1,41.81-8.56c0.52-0.31,0.87-0.7,1.07-1.14
					c0.78,0.19,1.26,0.41,1.26,0.41s11.33,3.54,20.62,4.94c9.29,1.4,21.74,1.23,30.79-4.46c9.04-5.7,11.24-0.84,11.24-0.84
					s10.72,7.3,19.05,12.94c8.32,5.64,21.02,4.92,28.09,3.64c7.08-1.28,24.45-7.86,29.47-15.02c5.02-7.16,7.08-1.71,7.08-1.71
					s6.69,6.94,22.39,13.43c15.7,6.49,30.46,2.09,38.15,0c7.69-2.09,18.08-8.93,22.36-14.3c3.84-4.82,5.44-2.18,5.73-1.59
					c0.7,0.34,2.71,1.39,7.89,4.17c10.83,5.82,24.7,6.65,36.41,5.42c11.7-1.23,22.01-5.08,25.33-8.19c0.9-0.85,1.75-1.38,2.61-1.65
					c-0.05,0.89,0.3,1.81,1.24,2.44c20.8,14,49.08,11.71,67.25-5.55C542.17,478.89,546.78,453.45,537.09,432.55z"/>
			</g>
			<path class="st3" d="M119.17,317.62c0,0,3.34-15.15,15.17-22.74c11.83-7.59,18.81-10.19,18.81-10.19s4.74,0.56,6.67-4.51
				c1.93-5.07,6.81-23.31,27.1-28.4c20.29-5.1,19.53-2.91,19.53-2.91s5.71,0.25,8.83-4.64c3.12-4.88,15.02-16.1,30.18-17.31
				c15.15-1.21,29.05,2.96,29.05,2.96s2.44,3.73,10.29-3.18c7.85-6.91,19.82-13.86,38.48-12.7c18.66,1.16,30.19,5.26,38.3,13.63
				c8.1,8.36,14.98,18.29,14.98,18.29l0.94,4.81c0,0-0.05,3.54,5.06,2.23c5.11-1.31,21.29-5.91,35.63,2.85
				c14.34,8.77,19.03,18.36,19.03,18.36s1.28,4.35,6.86,5.85c5.58,1.5,26.83,9.06,33.32,26.73c6.48,17.67,6.53,25.1,6.53,25.1
				l0.07,5.22c0,0,0.05,2.41,4.85,4.79c4.81,2.37,21.89,6.17,30.66,24.28c8.77,18.11,9.72,28.41,8.46,35.61
				c-1.26,7.2-4.44,14.01-1.61,15.95c2.82,1.94,15.56,18.02,14.99,34.37c-0.58,16.34-6.39,27.97-12.11,35.09
				c-5.72,7.12-13.31,14.21-27.21,16.78s-30.77-0.63-35.33-4.37c-4.56-3.74-7.18-4.69-10.5-1.58c-3.32,3.11-13.63,6.96-25.33,8.19
				c-11.7,1.23-25.58,0.4-36.41-5.42c-10.83-5.82-7.84-4.06-7.84-4.06s-1.5-3.89-5.78,1.48c-4.28,5.37-14.67,12.22-22.36,14.3
				c-7.69,2.09-22.45,6.49-38.15,0c-15.7-6.49-22.39-13.43-22.39-13.43s-2.06-5.46-7.08,1.71c-5.02,7.16-22.39,13.74-29.47,15.02
				c-7.08,1.28-19.77,2-28.09-3.64c-8.32-5.64-21.25-17.8-30.29-12.1c-9.04,5.7-21.5,5.86-30.79,4.46
				c-9.29-1.4-20.62-4.94-20.62-4.94s-4.92-2.23-9.01,1.2c-4.09,3.43-34.89,11.62-53.08,0c-18.19-11.62-29.14-23.41-31.71-40.43
				c-2.56-17.01,0.73-26.86,5.38-34.17c4.65-7.31,7.49-10.78,7.49-10.78s3.65-2.75,4.23-9.01c0.58-6.26,3.36-30.52,15.38-42.42
				c12.03-11.91,20.06-16.98,20.06-16.98s7.35-0.69,6.87-6.61C116.72,334.43,118.77,321.52,119.17,317.62z"/>
			<g>
				<path class="st4" d="M392.37,464.9c3.51-1.78,7.28-1.82,11.07-1.03c3.98,0.83,8.35,2.37,11.24,5.34
					c5.84,6.01,6.14,15.23,5.81,23.09c-0.11,2.68,4.05,3.22,4.16,0.51c0.39-9.41-0.23-20.03-7.46-26.98
					c-3.47-3.34-8.28-5.04-12.91-6.06c-4.55-1-9.37-0.87-13.58,1.27C388.31,462.26,389.95,466.12,392.37,464.9L392.37,464.9z"/>
			</g>
			<g>
				<path class="st4" d="M185.45,487.17c-1.78-3.51-1.82-7.28-1.03-11.07c0.83-3.98,2.37-8.35,5.34-11.24
					c6.01-5.84,15.23-6.14,23.09-5.81c2.68,0.11,3.22-4.05,0.51-4.16c-9.41-0.39-20.03,0.23-26.98,7.46
					c-3.34,3.47-5.04,8.28-6.06,12.91c-1,4.55-0.87,9.37,1.27,13.58C182.8,491.23,186.67,489.59,185.45,487.17L185.45,487.17z"/>
			</g>
			<circle class="st0" cx="295.87" cy="394.63" r="120.49"/>
			<path class="st3" d="M356.9,310.73c-0.77-1.47-2.21-1.64-3.37-1.09c-1.39-3.32-2.66-6.57-2.5-7.38c0.34-1.74-0.46-5.41-0.46-5.41
				s-12.85,0.76-17.47,0c-4.62-0.76-21.48-5.67-24.2-7.53c-2.71-1.85-4.85-3.48-6.69,0c-1.83,3.48-4.15,6.67-14.19,12.75
				c-10.04,6.08-13.99,8.3-17.57,8.4c-3.57,0.1-12.09-1.17-12.09-1.17s-0.03-0.01-0.09-0.01c-0.8-2.57-5.29-2.26-5.37,0.93
				c-0.42,15.63,6.54,34.27,22.87,38.92c9.48,2.7,23.91,1.63,26.56-9.97c0.04-0.18,0.08-0.37,0.11-0.55
				c1.48,0.38,2.97,0.68,4.47,0.89c6.57,0.92,14.02,0.22,19.36-4.09c1.34-1.08,2.43-2.37,3.28-3.79c5.09,3.51,11.34,5.78,17.57,4.66
				c7.22-1.3,12.05-7.35,12.43-14.55C359.77,317.87,358.66,314.12,356.9,310.73z"/>
			<path class="st3" d="M210.87,336.65c0,0,29.52,19.12,63.78-16.75c0,0,34.15-35.41-8.23-35.87S208.68,318.47,210.87,336.65z"/>
			<path class="st3" d="M342.44,318.83c0,0,6.12,37.13,54.33,37.28c0,0,29.76-34.8,2.97-57.94
				C372.95,275.02,342.44,290.82,342.44,318.83z"/>
			<path class="st3" d="M322.08,265.78l-34.05,36.3c0,0-8.42,13.05-35.11,8.14c0,0-9.92,12.47-35.58,22.24
				c0,0,16.16,49.31-41.67,52.99C175.66,385.45,153.14,253.39,322.08,265.78z"/>
			<path class="st3" d="M396.77,356.11c0,0-19.96,48.3,4.25,56.73s69.15-1.09,44.22-41.97S396.77,356.11,396.77,356.11z"/>
			<path class="st3" d="M189.67,356.11c0,0,19.96,48.3-4.25,56.73s-69.15-1.09-44.22-41.97S189.67,356.11,189.67,356.11z"/>
			<path class="st3" d="M293.37,259.53c0,0,8.01,52.13,75.93,33.38C369.3,292.91,358.33,231.82,293.37,259.53z"/>
			<path class="st3" d="M351.69,278.31c0,0-19.29,45.27,31.4,56.1c0,0-15.09,63.96,68.21,49.91
				C451.3,384.32,458.33,252.18,351.69,278.31z"/>
			<g>
				<path class="st4" d="M301.06,285.27c-4.63,7.99-11.84,14.31-20.23,18.14c-9.75,4.45-20.62,4.49-30.7,1.12
					c-3.36-1.12-4.8,4.18-1.46,5.3c11.27,3.77,23.29,3.45,34.18-1.33c9.51-4.17,17.74-11.46,22.96-20.45
					C307.59,284.98,302.84,282.21,301.06,285.27L301.06,285.27z"/>
			</g>
			<g>
				<path class="st4" d="M287.56,254.52c-0.21,5.68,1.2,11.72,3.28,16.95c4.72,11.86,14.13,20.5,26.16,24.71
					c10.47,3.66,21.91,3.93,32.84,2.91c3.49-0.33,3.52-5.82,0-5.49c-15.48,1.45-33.31,0.34-45.19-10.99
					c-6.41-6.12-10-14.26-11.28-22.92c-0.11-0.76,0.07,0.58-0.02-0.15c-0.03-0.21-0.05-0.42-0.07-0.62
					c-0.04-0.38-0.08-0.76-0.11-1.14c-0.05-0.56-0.08-1.13-0.1-1.7c-0.02-0.51-0.04-1.03-0.02-1.54
					C293.19,250.98,287.7,250.99,287.56,254.52L287.56,254.52z"/>
			</g>
			<g>
				<path class="st4" d="M440.78,382.59c-15.45,7.41-34.31,4.18-46.23-8.16c-11.04-11.44-14.04-29.16-7-43.5
					c4.15-8.45,11.1-14.92,19.62-18.83c3.21-1.47,0.42-6.21-2.77-4.74c-17.37,7.97-28.19,26.52-25.83,45.61
					c2.15,17.47,14.83,32.2,31.66,37.24c11.07,3.31,22.95,2.11,33.32-2.86C446.74,385.8,443.96,381.06,440.78,382.59L440.78,382.59z
					"/>
			</g>
			<g>
				<path class="st4" d="M420.88,391.28c-0.8-1.01,0.2,0.29,0.45,0.64c0.72,1.02,1.4,2.06,2.05,3.12c2.17,3.53,4.05,7.26,5.53,11.13
					c4.33,11.37,5.35,23.77,1.08,35.33c-3.33,8.99-9.64,16.45-16.83,22.63c-2.69,2.31,1.22,6.18,3.89,3.89
					c12.59-10.83,21.36-25.54,21.23-42.49c-0.08-11.18-3.72-22.21-9.3-31.82c-1.27-2.18-2.65-4.32-4.21-6.3
					C422.58,384.62,418.72,388.53,420.88,391.28L420.88,391.28z"/>
			</g>
			<g>
				<path class="st4" d="M383.09,334.41c-11.61-3.8-21.45-12.36-26.21-23.7c-4.68-11.15-4.02-24.15,1.74-34.78
					c11.85-21.85,40.95-28.86,61.82-15.69c11.26,7.11,18.54,19.28,19.29,32.58c0.2,3.52,5.69,3.54,5.49,0
					c-0.75-13.39-7.08-25.83-17.61-34.18c-10.8-8.56-24.73-12.08-38.33-10.06c-27.73,4.12-47.3,32.32-39.1,59.65
					c4.52,15.08,16.61,26.63,31.44,31.48C385,340.81,386.44,335.5,383.09,334.41L383.09,334.41z"/>
			</g>
			<g>
				<path class="st4" d="M384.5,286.15c12.16-10.62,29.71-12.15,43.44-3.66c13.28,8.2,20.45,23.76,19.6,39.14
					c-0.54,9.84-4.51,19.28-11.2,26.51c-2.4,2.59,1.48,6.49,3.89,3.89c13.35-14.44,16.42-35.83,8.44-53.69
					c-6.76-15.12-21.59-26.16-38.31-26.88c-11-0.48-21.51,3.63-29.74,10.81C377.95,284.59,381.85,288.46,384.5,286.15L384.5,286.15z
					"/>
			</g>
			<path class="st3" d="M438.2,374.98c0,0,24.57,7.21,23.22,44.27c-1.35,37.06-14.78,47.45-19.26,57.95
				c-4.48,10.51,17.04,22.28,31.38,7.51c14.33-14.77,27.45-46.54,20.37-75.69c-7.07-29.15-16.22-37-32.49-47.62
				C445.15,350.78,424.56,361.08,438.2,374.98z"/>
			<g>
				<path class="st4" d="M413.21,352.9c19.55-2.49,39.16,3.36,54.01,16.36c14.22,12.46,23.37,30.25,25.57,49.01
					c2.28,19.4-2.38,39.26-13.58,55.32c-10.56,15.14-26.76,26-44.98,29.31c-24.02,4.37-37.92,2.76-53.75-15.42
					c-2.33-2.67-6.2,1.23-3.89,3.89c15.26,17.52,27.76,19.61,51.12,17.86c19.7-1.48,38.08-11.09,50.94-26.03
					c27.5-31.95,26.62-82.15-2.4-112.85c-16.17-17.11-39.62-25.92-63.04-22.93C409.75,347.85,409.7,353.35,413.21,352.9
					L413.21,352.9z"/>
			</g>
			<path class="st3" d="M105.74,410.76c0,0,9.85-36.16,29.8-47.81c19.95-11.65,28.82-14.34,37.06-14.82
				c8.24-0.48,15.44,1.37,13.9,5.74c-1.54,4.38-28.05,10.69-33.2,27.35c-5.15,16.66-15.44,44.85-4.38,66.27
				c11.07,21.42,19.3,43.3,11.58,44.84c-7.72,1.54-46.2-11.74-52.31-41C102.08,422.07,103.69,419.24,105.74,410.76z"/>
			<g>
				<g>
					<path class="st4" d="M156.88,385.38c17.53,8.41,38.91,5.24,52.64-8.76c12.85-13.1,16.22-33.1,8.44-49.71
						c-4.45-9.5-12.42-17.15-21.93-21.51c-3.19-1.47-5.99,3.27-2.77,4.74c15.37,7.06,24.97,22.76,23.24,39.74
						c-1.54,15.15-12.63,28.25-27.05,32.84c-9.8,3.12-20.52,2.36-29.8-2.09C156.48,379.12,153.69,383.85,156.88,385.38
						L156.88,385.38z"/>
				</g>
				<g>
					<path class="st4" d="M175.66,385.45c-12.05,15.31-17.41,37.76-10.27,56.23c3.72,9.62,10.21,17.71,17.99,24.39
						c2.67,2.29,6.57-1.58,3.89-3.89c-11.8-10.15-20.01-23.6-19.61-39.53c0.26-10.02,3.66-19.84,8.71-28.43
						c0.77-1.31,1.59-2.6,2.45-3.86c0.29-0.42,1.5-2.03,0.72-1.03C181.71,386.58,177.85,382.67,175.66,385.45L175.66,385.45z"/>
				</g>
				<g>
					<path class="st4" d="M218.8,337.76c13.09-4.29,24.16-13.76,29.61-26.51c5.41-12.64,4.83-27.21-1.53-39.4
						c-13.02-24.97-46.45-33.23-69.98-18.1c-12.79,8.22-20.85,21.95-21.7,37.13c-0.2,3.53,5.3,3.52,5.49,0
						c1.4-24.99,25.41-42.72,49.74-38.83c24.34,3.89,41.64,28.18,34.61,52.41c-3.88,13.36-14.6,23.72-27.71,28.01
						C213.99,333.55,215.42,338.86,218.8,337.76L218.8,337.76z"/>
				</g>
				<g>
					<path class="st4" d="M219.81,280.31c-13.98-12.21-34.19-14.35-50.1-4.52c-14.98,9.25-23.44,26.89-22.3,44.34
						c0.73,11.18,5.18,21.71,12.78,29.94c2.41,2.6,6.28-1.29,3.89-3.89c-11.58-12.52-14.45-31.46-7.58-47.03
						c5.84-13.23,18.5-23.35,33.2-24.14c9.64-0.52,18.97,2.85,26.22,9.18C218.58,286.51,222.48,282.64,219.81,280.31L219.81,280.31z
						"/>
				</g>
				<g>
					<path class="st4" d="M187.22,345.46c-19.12-2.44-38.48,2.89-53.77,14.6c-14.62,11.2-24.97,27.47-29.37,45.33
						c-8.98,36.48,7.3,77.63,41.7,94.54c21.27,10.45,46.33,9.76,67.15-1.52c3.11-1.68,0.34-6.43-2.77-4.74
						c-17.56,9.51-38.48,10.89-57.06,3.54c-15.63-6.18-28.48-18.33-36.48-33.01c-16.95-31.09-10.8-71.98,15.52-95.93
						c14.97-13.63,35.02-19.87,55.08-17.32C190.72,351.4,190.69,345.9,187.22,345.46L187.22,345.46z"/>
				</g>
			</g>
			<g>
				<g>
					<path class="st5" d="M169,289.01c-12.05,10.66-14.84,28.78-7.29,42.84c1.67,3.12,6.42,0.34,4.74-2.77
						c-6.45-12-3.76-27.17,6.43-36.18C175.54,290.54,171.64,286.67,169,289.01L169,289.01z"/>
				</g>
				<g>
					<path class="st5" d="M191.44,281.4c-4.53-0.39-9.17,0.32-13.38,2.03c-0.69,0.28-1.25,0.59-1.64,1.26
						c-0.34,0.59-0.49,1.46-0.28,2.12c0.41,1.28,1.95,2.5,3.38,1.92c1.94-0.79,3.95-1.37,6.02-1.7c0.11-0.02,0.23-0.04,0.34-0.05
						c-0.35,0.04-0.37,0.05-0.05,0.01c0.23-0.03,0.46-0.05,0.69-0.07c0.54-0.05,1.08-0.09,1.62-0.1c1.1-0.04,2.2,0,3.3,0.09
						c1.44,0.12,2.81-1.35,2.75-2.75C194.12,282.56,192.98,281.54,191.44,281.4L191.44,281.4z"/>
				</g>
				<g>
					<path class="st5" d="M283.98,343.54c1.76,0.14,3.54,0.14,5.3,0.04c0.73-0.04,1.42-0.28,1.94-0.8c0.48-0.48,0.84-1.26,0.8-1.94
						c-0.03-0.71-0.27-1.45-0.8-1.94c-0.52-0.48-1.21-0.85-1.94-0.8c-1.77,0.1-3.54,0.1-5.3-0.04c-0.67-0.05-1.48,0.34-1.94,0.8
						c-0.48,0.48-0.84,1.26-0.8,1.94c0.03,0.71,0.27,1.45,0.8,1.94C282.6,343.25,283.22,343.48,283.98,343.54L283.98,343.54z"/>
				</g>
				<g>
					<path class="st5" d="M260.18,319.26c0.01,6.31,2.85,13.05,7.32,17.44c2.34,2.3,5.13,3.94,8.18,5.12
						c1.38,0.54,3.01-0.59,3.38-1.92c0.43-1.55-0.53-2.84-1.92-3.38c-0.18-0.07-0.35-0.14-0.53-0.21c0.06,0.02,0.3,0.13,0.02,0
						c-0.29-0.13-0.58-0.27-0.86-0.41c-0.55-0.28-1.08-0.57-1.6-0.9c-0.5-0.31-0.98-0.64-1.44-0.99c0.4,0.31-0.18-0.15-0.29-0.25
						c-0.24-0.2-0.48-0.41-0.71-0.63c-0.39-0.37-0.77-0.75-1.13-1.15c-0.15-0.17-0.3-0.33-0.44-0.51c-0.1-0.11-0.19-0.23-0.28-0.34
						c-0.26-0.31,0.26,0.36,0.03,0.04c-0.61-0.82-1.16-1.66-1.65-2.56c-0.21-0.38-0.4-0.76-0.59-1.15c-0.1-0.2-0.19-0.41-0.28-0.62
						c-0.07-0.14-0.18-0.48,0.05,0.13c-0.04-0.12-0.1-0.23-0.14-0.35c-0.29-0.77-0.56-1.54-0.79-2.33c-0.2-0.71-0.37-1.43-0.51-2.16
						c-0.06-0.3-0.11-0.6-0.16-0.91c-0.02-0.12-0.03-0.24-0.05-0.36c-0.01-0.06,0.09,0.75,0.03,0.18c-0.06-0.6-0.13-1.21-0.13-1.81
						c0-1.48-1.26-2.75-2.75-2.75C261.44,316.51,260.18,317.77,260.18,319.26L260.18,319.26z"/>
				</g>
				<g>
					<path class="st5" d="M305.81,334.07c2.44,0.5,5.01,0.67,7.49,0.52c0.73-0.04,1.41-0.28,1.94-0.8c0.48-0.48,0.84-1.26,0.8-1.94
						c-0.03-0.71-0.27-1.45-0.8-1.94c-0.52-0.48-1.22-0.85-1.94-0.8c-1.83,0.11-3.67,0.02-5.49-0.22c0.24,0.03,0.49,0.07,0.73,0.1
						c-0.43-0.06-0.86-0.12-1.28-0.21c-0.73-0.15-1.46-0.11-2.12,0.28c-0.57,0.33-1.11,0.99-1.26,1.64
						c-0.16,0.7-0.13,1.49,0.28,2.12C304.54,333.38,305.11,333.92,305.81,334.07L305.81,334.07z"/>
				</g>
				<g>
					<path class="st5" d="M244.42,231.48c-6.51,0.88-12.8,3.25-18.28,6.85c-1.24,0.81-1.76,2.43-0.99,3.76
						c0.72,1.23,2.51,1.8,3.76,0.99c5.2-3.42,10.72-5.45,16.97-6.3c1.43-0.19,2.33-2.1,1.92-3.38
						C247.29,231.83,245.95,231.27,244.42,231.48L244.42,231.48z"/>
				</g>
				<g>
					<path class="st5" d="M261.96,232.82c-2.55-0.59-5.15-0.98-7.76-1.22c-0.66-0.06-1.49,0.35-1.94,0.8
						c-0.48,0.48-0.84,1.26-0.8,1.94c0.03,0.71,0.27,1.45,0.8,1.94c0.56,0.52,1.18,0.73,1.94,0.8c0.77,0.07,1.55,0.16,2.32,0.26
						c-0.24-0.03-0.49-0.07-0.73-0.1c1.58,0.22,3.15,0.5,4.71,0.86c0.71,0.16,1.48,0.1,2.12-0.28c0.57-0.33,1.11-0.99,1.26-1.64
						C264.19,234.8,263.46,233.16,261.96,232.82L261.96,232.82z"/>
				</g>
				<g>
					<path class="st5" d="M301.78,270.65c3.63,6.69,9.34,12.03,16.2,15.31c1.29,0.62,3.03,0.4,3.76-0.99
						c0.65-1.23,0.4-3.1-0.99-3.76c-1.8-0.86-3.53-1.85-5.16-2.99c-0.17-0.12-0.33-0.24-0.5-0.36c-0.07-0.05-0.65-0.48-0.4-0.29
						c0.27,0.21-0.24-0.19-0.29-0.23c-0.18-0.15-0.37-0.3-0.55-0.45c-0.68-0.57-1.33-1.16-1.96-1.79c-0.58-0.57-1.13-1.17-1.67-1.78
						c-0.26-0.3-0.51-0.6-0.76-0.91c-0.16-0.2-0.38-0.49-0.1-0.11c-0.13-0.17-0.25-0.34-0.38-0.51c-0.92-1.25-1.74-2.56-2.48-3.93
						c-0.69-1.26-2.54-1.77-3.76-0.99C301.48,267.72,301.04,269.3,301.78,270.65L301.78,270.65z"/>
				</g>
				<g>
					<path class="st5" d="M297.39,257.37c0.32,2.17,0.81,4.31,1.47,6.39c0.21,0.68,0.64,1.28,1.26,1.64
						c0.59,0.34,1.46,0.49,2.12,0.28c0.66-0.21,1.31-0.63,1.64-1.26c0.34-0.64,0.5-1.41,0.28-2.12c-0.66-2.09-1.15-4.23-1.47-6.39
						c-0.09-0.63-0.74-1.33-1.26-1.64c-0.59-0.34-1.46-0.49-2.12-0.28c-0.66,0.21-1.31,0.63-1.64,1.26
						c-0.09,0.22-0.18,0.44-0.28,0.66C297.26,256.39,297.26,256.88,297.39,257.37L297.39,257.37z"/>
				</g>
				<g>
					<g>
						<path class="st5" d="M128.08,331.83c-0.38-6.93,1.66-13.81,6-19.18c0.93-1.15,1.13-2.76,0-3.89c-0.96-0.96-2.95-1.16-3.89,0
							c-5.27,6.53-8.08,14.65-7.61,23.07c0.08,1.48,1.2,2.75,2.75,2.75C126.76,334.57,128.16,333.32,128.08,331.83L128.08,331.83z"
							/>
					</g>
					<g>
						<path class="st5" d="M131.91,344.14c-0.71-1.2-1.34-2.44-1.88-3.72c0.09,0.22,0.18,0.44,0.28,0.66
							c-0.36-0.87-0.69-1.75-0.97-2.64c-0.21-0.68-0.64-1.28-1.26-1.64c-0.59-0.34-1.46-0.49-2.12-0.28
							c-0.66,0.21-1.31,0.63-1.64,1.26c-0.34,0.64-0.5,1.41-0.28,2.12c0.78,2.44,1.82,4.81,3.13,7.02c0.35,0.6,0.97,1.08,1.64,1.26
							c0.66,0.18,1.53,0.1,2.12-0.28C132.17,347.1,132.7,345.47,131.91,344.14L131.91,344.14z"/>
					</g>
				</g>
				<g>
					<g>
						<path class="st5" d="M87.16,418.47c-0.24-2.56-0.28-5.14-0.12-7.71c0.09-1.44-1.33-2.81-2.75-2.75
							c-1.56,0.07-2.65,1.21-2.75,2.75c-0.16,2.57-0.12,5.15,0.12,7.71c0.07,0.74,0.26,1.4,0.8,1.94c0.48,0.48,1.26,0.84,1.94,0.8
							c0.71-0.03,1.45-0.27,1.94-0.8C86.82,419.9,87.22,419.18,87.16,418.47L87.16,418.47z"/>
					</g>
					<g>
						<path class="st5" d="M91.62,436.44c-0.2-0.43-0.4-0.87-0.59-1.3c-0.12-0.28-0.11-0.25,0.04,0.09
							c-0.05-0.13-0.11-0.25-0.16-0.38c-0.08-0.19-0.15-0.38-0.23-0.58c-0.36-0.94-0.7-1.89-0.99-2.85
							c-0.6-1.93-1.06-3.89-1.41-5.88c-0.24-1.42-2.06-2.34-3.38-1.92c-1.53,0.5-2.18,1.86-1.92,3.38c0.73,4.24,2.06,8.32,3.9,12.22
							c0.61,1.3,2.59,1.74,3.76,0.99C91.98,439.33,92.28,437.83,91.62,436.44L91.62,436.44z"/>
					</g>
				</g>
				<g>
					<g>
						<path class="st5" d="M113.51,411.13c-5.71,27.47,5.02,56.68,28.93,72.03c2.98,1.92,5.74-2.84,2.77-4.74
							c-21.75-13.96-31.59-40.84-26.41-65.82C119.52,409.14,114.23,407.66,113.51,411.13L113.51,411.13z"/>
					</g>
					<g>
						<path class="st5" d="M120.78,392.03c-1.61,2.86-2.99,5.84-4.2,8.9c-0.24,0.62-0.05,1.56,0.28,2.12
							c0.33,0.57,0.99,1.11,1.64,1.26c0.7,0.16,1.49,0.13,2.12-0.28c0.64-0.41,0.99-0.94,1.26-1.64c0.21-0.53,0.43-1.06,0.65-1.59
							c-0.09,0.22-0.18,0.44-0.28,0.66c0.97-2.28,2.06-4.5,3.27-6.65c0.71-1.25,0.34-3.06-0.99-3.76
							C123.24,390.36,121.53,390.69,120.78,392.03L120.78,392.03z"/>
					</g>
				</g>
				<g>
					<g>
						<path class="st5" d="M526.97,461.25c-3.34,15.97-17.3,27.64-33.68,27.76c-3.53,0.02-3.54,5.52,0,5.49
							c18.69-0.13,35.14-13.45,38.97-31.79C532.99,459.26,527.69,457.78,526.97,461.25L526.97,461.25z"/>
					</g>
					<g>
						<path class="st5" d="M526.71,446.66c0.28,1.21,0.51,2.43,0.67,3.66c-0.03-0.24-0.07-0.49-0.1-0.73
							c0.21,1.64,0.32,3.29,0.32,4.95c0,1.44,1.26,2.81,2.75,2.75c1.49-0.07,2.75-1.21,2.75-2.75c-0.01-3.14-0.38-6.28-1.09-9.34
							c-0.33-1.4-2.01-2.36-3.38-1.92C527.17,443.76,526.36,445.16,526.71,446.66L526.71,446.66z"/>
					</g>
				</g>
				<g>
					<path class="st5" d="M477.05,409.75c8.79,29.78-5.49,64.31-35.82,74.71c-3.33,1.14-1.9,6.45,1.46,5.3
						c33.12-11.35,49.33-48.68,39.65-81.47C481.35,404.9,476.04,406.34,477.05,409.75L477.05,409.75z"/>
				</g>
				<g>
					<path class="st5" d="M461.67,384.35c1.81,1.77,3.52,3.65,5.1,5.64c0.09,0.11,0.18,0.22,0.27,0.34
						c0.04,0.05,0.35,0.41,0.12,0.15c-0.26-0.29,0.13,0.17,0.18,0.24c0.09,0.11,0.17,0.23,0.26,0.35c0.39,0.52,0.77,1.05,1.14,1.58
						c0.74,1.07,1.45,2.16,2.13,3.28c0.75,1.23,2.5,1.8,3.76,0.99c1.23-0.79,1.79-2.45,0.99-3.76c-2.81-4.61-6.19-8.9-10.04-12.67
						c-1.03-1.01-2.87-1.1-3.89,0C460.68,381.55,460.58,383.28,461.67,384.35L461.67,384.35z"/>
				</g>
				<g>
					<path class="st5" d="M431.81,297.74c9.19,11.56,9.56,28.2,1.35,40.34c-1.99,2.94,2.77,5.69,4.74,2.77
						c9.7-14.34,8.46-33.58-2.21-47C433.5,291.09,429.64,295,431.81,297.74L431.81,297.74z"/>
				</g>
				<g>
					<path class="st5" d="M416.26,287.32c0.87,0.24,1.73,0.52,2.58,0.83c0.35,0.13,0.73,0.35,1.1,0.43
						c-0.4-0.17-0.46-0.19-0.19-0.08c0.1,0.04,0.21,0.09,0.31,0.14c0.21,0.09,0.41,0.19,0.61,0.28c1.58,0.75,3.1,1.63,4.54,2.61
						c1.19,0.81,3.1,0.26,3.76-0.99c0.74-1.39,0.28-2.89-0.99-3.76c-3.12-2.14-6.62-3.76-10.27-4.77c-1.38-0.38-3.05,0.47-3.38,1.92
						C414.01,285.4,414.78,286.91,416.26,287.32L416.26,287.32z"/>
				</g>
			</g>
			<polygon class="st7" points="294.43,410.75 283.22,435.44 306.26,435.44 			"/>
			
				<ellipse transform="matrix(0.8977 -0.4407 0.4407 0.8977 -171.0739 116.6565)" class="st0" cx="165.65" cy="426.68" rx="26.14" ry="31.58"/>
			
				<ellipse transform="matrix(0.4407 -0.8977 0.8977 0.4407 -147.0966 617.2962)" class="st0" cx="421.8" cy="426.68" rx="31.58" ry="26.14"/>
			<path class="st4" d="M191.71,393.03c0,0-1.53-50.88,48.78-50.88c26.75,0,39.83,38.66,39.83,38.66s-12.66-39.55-47.42-32.81
				C196.52,355.06,191.71,393.03,191.71,393.03z"/>
			<path class="st4" d="M394.58,399.29c0,0,1.09-56.76-38.99-56.76c-42.44,0-44.27,38.29-44.27,38.29s9-37.58,47.42-32.81
				C395.52,352.58,394.58,399.29,394.58,399.29z"/>
			<ellipse class="st6" cx="352.48" cy="393.03" rx="42.1" ry="46.64"/>
			<ellipse class="st6" cx="236.8" cy="393.03" rx="45.09" ry="46.64"/>
			<ellipse cx="222.1" cy="388.47" rx="31.27" ry="39.22"/>
			<ellipse cx="340.38" cy="389.09" rx="31.94" ry="39.22"/>
			<ellipse class="st8" cx="222.1" cy="443.18" rx="25.38" ry="8.75"/>
			<ellipse class="st8" cx="372.32" cy="440.79" rx="25.38" ry="8.75"/>
			<path d="M251.57,330.28c0,0-25.4-46.32-58.94,1.99C192.63,332.27,217.44,303.24,251.57,330.28z"/>
			<path d="M358.51,302.81c0,0,10.47,60.46-54.97,40.87C303.54,343.69,347.09,352.08,358.51,302.81z"/>
			<g>
				<path class="st7" d="M235.64,472c0,0,13.51-12.15,20.42-12.59c2.27-0.14,13.47-2.05,25.33-4.08c21.32-3.65,47.84-8.18,55.3-8.26
					c3.81-0.04,16.29,7.13,16.29,7.13s-14.71-4.67-16.93-4.65c-7.02,0.08-34.43,4.76-54.44,8.19c-14.48,2.48-23.48,4-25.92,4.15
					C251.08,462.13,235.64,472,235.64,472z"/>
			</g>
		</g>
	</g>
	<g>
		<path class="st17" d="M73.65,195.22c0-4.21,1.35-8.48,4.06-12.81c2.7-4.33,6.65-7.91,11.84-10.74c5.19-2.84,11.24-4.26,18.16-4.26
			c6.43,0,12.11,1.19,17.03,3.56s8.73,5.6,11.41,9.68c2.68,4.08,4.02,8.52,4.02,13.31c0,3.77-0.77,7.08-2.3,9.91
			c-1.53,2.84-3.35,5.29-5.46,7.35c-2.11,2.06-5.89,5.53-11.34,10.41c-1.51,1.38-2.72,2.59-3.63,3.63c-0.91,1.04-1.59,2-2.03,2.86
			c-0.44,0.87-0.79,1.73-1.03,2.6c-0.24,0.87-0.61,2.38-1.1,4.56c-0.84,4.61-3.48,6.92-7.92,6.92c-2.31,0-4.25-0.75-5.82-2.26
			c-1.57-1.51-2.36-3.75-2.36-6.72c0-3.73,0.58-6.95,1.73-9.68c1.15-2.73,2.68-5.12,4.59-7.19c1.91-2.06,4.48-4.51,7.72-7.35
			c2.84-2.48,4.89-4.36,6.15-5.62c1.26-1.26,2.33-2.67,3.19-4.22c0.87-1.55,1.3-3.24,1.3-5.06c0-3.55-1.32-6.54-3.96-8.98
			c-2.64-2.44-6.04-3.66-10.21-3.66c-4.88,0-8.47,1.23-10.78,3.69c-2.31,2.46-4.26,6.09-5.85,10.88c-1.51,5.01-4.37,7.52-8.58,7.52
			c-2.48,0-4.58-0.88-6.29-2.63C74.5,199.16,73.65,197.26,73.65,195.22z M106.11,268.14c-2.71,0-5.07-0.88-7.09-2.63
			c-2.02-1.75-3.03-4.2-3.03-7.35c0-2.79,0.97-5.15,2.93-7.05c1.95-1.91,4.35-2.86,7.19-2.86c2.79,0,5.14,0.95,7.05,2.86
			c1.91,1.91,2.86,4.26,2.86,7.05c0,3.11-1,5.55-2.99,7.32C111.04,267.25,108.73,268.14,106.11,268.14z"/>
	</g>
	<g>
		<path class="st17" d="M89.99,284.82c0.95,4.1,0.6,8.57-1.05,13.39c-1.65,4.83-4.69,9.21-9.1,13.15
			c-4.41,3.94-9.99,6.69-16.73,8.26c-6.26,1.46-12.06,1.59-17.4,0.39s-9.77-3.48-13.31-6.85c-3.54-3.37-5.85-7.39-6.93-12.05
			c-0.85-3.67-0.86-7.06-0.01-10.18c0.85-3.11,2.07-5.91,3.65-8.4c1.59-2.49,4.48-6.72,8.69-12.71c1.16-1.68,2.06-3.13,2.71-4.35
			c0.65-1.22,1.09-2.3,1.33-3.25c0.24-0.94,0.38-1.86,0.42-2.76c0.04-0.9,0.05-2.46,0.04-4.69c-0.22-4.68,1.83-7.53,6.15-8.53
			c2.25-0.52,4.31-0.23,6.18,0.88c1.88,1.11,3.15,3.12,3.82,6.01c0.84,3.63,1.01,6.9,0.51,9.82c-0.51,2.92-1.45,5.6-2.84,8.04
			c-1.39,2.44-3.34,5.41-5.85,8.91c-2.2,3.06-3.78,5.35-4.72,6.87c-0.95,1.52-1.66,3.13-2.15,4.84c-0.49,1.71-0.53,3.45-0.12,5.22
			c0.8,3.46,2.77,6.07,5.89,7.85c3.12,1.78,6.72,2.2,10.78,1.25c4.75-1.1,7.97-3.12,9.66-6.04c1.69-2.92,2.77-6.89,3.24-11.92
			c0.33-5.22,2.55-8.31,6.66-9.27c2.42-0.56,4.66-0.18,6.72,1.14C88.26,281.18,89.52,282.83,89.99,284.82z M41.86,221.14
			c2.64-0.61,5.13-0.29,7.5,0.96c2.36,1.25,3.9,3.41,4.61,6.48c0.63,2.72,0.22,5.23-1.25,7.53c-1.47,2.3-3.59,3.77-6.35,4.41
			c-2.72,0.63-5.23,0.23-7.52-1.19c-2.29-1.43-3.75-3.5-4.38-6.22c-0.7-3.03-0.28-5.63,1.26-7.81
			C37.26,223.12,39.31,221.74,41.86,221.14z"/>
	</g>
</g>
</svg>
