<?xml version="1.0" encoding="utf-8"?>
<!-- Generator: Adobe Illustrator 24.0.1, SVG Export Plug-In . SVG Version: 6.00 Build 0)  -->
<svg version="1.1" id="Capa_1" xmlns="http://www.w3.org/2000/svg" xmlns:xlink="http://www.w3.org/1999/xlink" x="0px" y="0px"
	 viewBox="0 0 566.93 566.93" style="enable-background:new 0 0 566.93 566.93;" xml:space="preserve">
<style type="text/css">
	.st0{fill:#F9D6E4;}
	.st1{fill:#45A759;}
	.st2{fill:#15632D;}
	.st3{fill:#F08CA7;}
	.st4{fill:#B52955;}
	.st5{fill:#F6BFD3;}
	.st6{fill:#FFFFFF;}
	.st7{fill:#CD94A9;}
	.st8{fill:#E16874;}
	.st9{fill:#EEEEEE;}
	.st10{fill:#C9C7C7;}
	.st11{clip-path:url(#SVGID_2_);}
	.st12{clip-path:url(#SVGID_2_);fill:#F08CA7;}
	.st13{fill:#CBC9CA;}
	.st14{fill:#E1E0E0;}
	.st15{fill:#B693C3;}
	.st16{fill:#F8DF28;}
	.st17{fill:#65A2D8;}
	.st18{fill:#DEE275;}
	.st19{fill:#FFDB43;}
	.st20{fill:#E75C2A;}
	.st21{fill:#F49D4E;}
	.st22{opacity:0.5;}
	.st23{fill:#F3B0CF;}
	.st24{fill:#704F9A;}
	.st25{fill:#616160;}
	.st26{fill:#5AE4A7;}
	.st27{fill:#FF0000;}
	.st28{fill:#82CEE0;}
	.st29{fill:#9E6D0B;}
	.st30{fill:#828E0C;}
	.st31{fill:#FFFF00;}
	.st32{clip-path:url(#SVGID_4_);}
	.st33{clip-path:url(#SVGID_4_);fill:#F08CA7;}
	.st34{clip-path:url(#SVGID_6_);}
	.st35{clip-path:url(#SVGID_6_);fill:#F08CA7;}
	.st36{fill:none;stroke:#B52955;stroke-width:3;stroke-linecap:round;stroke-linejoin:round;stroke-miterlimit:10;}
</style>
<g>
	<g>
		<path class="st1" d="M144.02,125.68c5.61-13.08,7.08-27.83,4.32-41.29c-0.57-3.11-1.73-6.48-4.45-8.13
			c-4.22-2.41-10.25,1.11-12.29,5.85c-2.04,4.74-1.21,10.06-0.05,14.95C134.12,107.34,138.38,117.02,144.02,125.68z"/>
		<path class="st1" d="M174.32,141.72c2.32-13.96,0.2-28.31-5.87-40.47c-1.48-2.93-3.43-5.87-6.43-6.71
			c-4.74-1.27-9.85,3.59-10.73,8.67s1.22,9.98,3.61,14.25C159.93,126.51,166.47,134.81,174.32,141.72z"/>
		<path class="st1" d="M197.54,149.56c4.59-12.98,5.12-27.07,1.45-39.51c-0.83-2.96-2.15-6.11-5.01-7.36
			c-4.26-1.93-10.06,1.93-11.81,6.71c-1.76,4.78-0.6,9.66,0.98,14.18C186.36,132.98,191.26,141.78,197.54,149.56z"/>
		<path class="st1" d="M141.95,124c-10.3-8.52-23.53-13.46-37.24-13.86c-3.2-0.14-6.9,0.19-9.34,2.45
			c-3.76,3.65-2.67,10.34,1.07,13.41c3.84,3.14,9.14,3.64,14.09,3.54C121.08,129.32,131.81,127.54,141.95,124z"/>
		<path class="st1" d="M166.03,134.32c-13.07-3.64-27.4-2.98-40.55,1.9c-3.12,1.26-6.48,2.85-7.89,5.86
			c-2.25,4.59,1.34,10.24,6,11.61c4.84,1.34,9.97-0.3,14.69-2.25C148.25,147.28,157.65,141.51,166.03,134.32z"/>
		<path class="st1" d="M196.89,147.23c-13.07-3.64-27.4-2.98-40.55,1.9c-3.12,1.26-6.48,2.85-7.89,5.86
			c-2.25,4.59,1.34,10.24,6,11.61c4.84,1.34,9.97-0.3,14.69-2.25C179.1,160.18,188.5,154.41,196.89,147.23z"/>
		<path class="st1" d="M234.13,171.86c1.82-13.49-0.6-27.21-6.93-38.38c-1.54-2.64-3.46-5.39-6.52-5.94
			c-4.77-0.79-9.58,4.29-10.3,9.16c-0.61,4.94,1.62,9.43,4.07,13.4C219.68,158.46,226.38,165.88,234.13,171.86z"/>
		<path class="st1" d="M230.03,166.69c-13.07-3.64-27.4-2.98-40.55,1.9c-3.12,1.26-6.48,2.85-7.89,5.86
			c-2.25,4.59,1.34,10.24,6,11.61c4.84,1.34,9.97-0.3,14.69-2.25C212.25,179.65,221.73,173.77,230.03,166.69z"/>
		<g>
			<path class="st2" d="M126.85,110.63c-0.43-0.48,0.33-1.1,0.69-0.51c24.81,25.5,61.67,29.32,91.12,47.6
				c14.17,8.82,26.9,19.62,38.46,31.59c12.08,12.34,24.45,25.57,34.16,40.07c1.34,1.82-1.3,3.94-2.8,2.33
				c-12.2-12.6-22.49-27.18-34.77-39.67c-12.61-12.9-26.43-25-42.19-33.8C183.7,142.66,147.29,137.15,126.85,110.63L126.85,110.63z"
				/>
		</g>
		<path class="st1" d="M134.72,116.87c-3.99-15.87-13.2-30-25.63-39.91c-3-2.36-6.63-4.5-10.39-3.87
			c-5.95,1.05-9.32,8.69-7.87,14.46c1.45,5.77,6.06,9.81,10.78,13.25C111.55,107.88,122.79,113.39,134.72,116.87z"/>
	</g>
	<g>
		<g>
			<path class="st3" d="M373.72,473.29c0,0-0.02-0.04-0.05-0.11C372.88,472.79,373.72,473.29,373.72,473.29z"/>
			<path class="st3" d="M531.24,405.34c-2.81-6.07-6.76-11.55-11.52-16.2c10.32-32.04-8.2-72.55-42.63-79.4
				c1.16-21.11-7.36-42.78-25.02-55.34c-6.72-4.78-14.49-7.64-22.67-8.54c-0.63-0.07-1.14,0.05-1.55,0.28
				c-1.39-1.52-1.8-2.93-1.8-2.93s-4.85-9.92-19.68-18.98c-14.83-9.06-31.57-4.31-36.85-2.95c-0.59,0.15-1.1,0.24-1.56,0.28
				c-8.42-34.16-49.58-51.6-81.53-40.74c-9.41,3.2-17.98,8.41-25.46,14.91c-25.02-10.96-54.86-3.03-70.38,19.8
				c-0.28,0.42-0.43,0.83-0.48,1.22c-1.54,0.37-2.66,0.32-2.66,0.32s0.78-2.26-20.19,3.01c-20.98,5.27-26.02,24.12-28.02,29.37
				c-0.16,0.42-0.34,0.81-0.54,1.16c-0.58-0.39-1.31-0.58-2.17-0.41c-29.13,5.67-48.62,34.05-43.96,63.17
				c-28.25,11.32-43.53,40.78-44.02,70.22c0,0-0.01,0.01-0.01,0.01C30.89,400.62,25.08,426.78,35,449.39
				c8.81,20.05,28.59,33.62,50.07,36.46c14.97,1.98,30.25-1.14,43.23-8.85c0.54-0.32,0.9-0.73,1.11-1.18c0.81,0.2,1.3,0.42,1.3,0.42
				s11.72,3.66,21.32,5.11c9.6,1.44,22.48,1.28,31.83-4.61c9.35-5.89,11.63-0.86,11.63-0.86s11.09,7.55,19.7,13.38
				c8.61,5.83,21.73,5.08,29.05,3.76c7.32-1.32,25.28-8.12,30.47-15.53c5.19-7.41,7.32-1.76,7.32-1.76s6.91,7.18,23.15,13.89
				c16.23,6.71,31.5,2.16,39.45,0c7.95-2.16,18.7-9.24,23.12-14.79c3.97-4.98,5.62-2.25,5.92-1.64c0.72,0.35,2.81,1.43,8.16,4.31
				c11.2,6.02,25.54,6.87,37.64,5.61c12.1-1.27,22.76-5.25,26.19-8.47c0.93-0.87,1.81-1.43,2.69-1.71
				c-0.05,0.92,0.31,1.87,1.28,2.52c21.5,14.47,50.75,12.11,69.54-5.74C536.49,453.25,541.26,426.95,531.24,405.34z"/>
		</g>
		<path class="st3" d="M99.13,286.51c0,0,3.45-15.67,15.69-23.52c12.24-7.85,19.45-10.54,19.45-10.54s4.9,0.58,6.9-4.66
			c2-5.24,7.04-24.1,28.02-29.37s20.19-3.01,20.19-3.01s5.91,0.25,9.13-4.8c3.23-5.05,15.54-16.64,31.2-17.9
			c15.67-1.25,30.04,3.06,30.04,3.06s2.52,3.86,10.64-3.29c8.12-7.15,20.49-14.33,39.78-13.13c19.29,1.2,31.22,5.44,39.6,14.09
			c8.38,8.65,15.49,18.91,15.49,18.91l0.97,4.98c0,0-0.05,3.66,5.23,2.3c5.28-1.36,22.01-6.11,36.85,2.95
			c14.83,9.06,19.68,18.98,19.68,18.98s1.32,4.5,7.09,6.05c5.77,1.55,27.74,9.36,34.45,27.63c6.7,18.27,6.75,25.96,6.75,25.96
			l0.08,5.4c0,0,0.05,2.5,5.02,4.95c4.97,2.46,22.63,6.38,31.7,25.11c9.06,18.73,10.05,29.38,8.74,36.82
			c-1.3,7.45-4.59,14.49-1.67,16.49c2.92,2,16.09,18.64,15.49,35.53c-0.6,16.9-6.61,28.92-12.52,36.28
			c-5.91,7.36-13.76,14.7-28.13,17.35c-14.37,2.65-31.82-0.65-36.53-4.52c-4.71-3.87-7.43-4.85-10.86-1.63
			c-3.43,3.22-14.1,7.2-26.19,8.47c-12.1,1.27-26.44,0.42-37.64-5.61c-11.2-6.02-8.1-4.2-8.1-4.2s-1.55-4.02-5.97,1.53
			c-4.42,5.55-15.17,12.63-23.12,14.79c-7.95,2.16-23.22,6.71-39.45,0c-16.23-6.71-23.15-13.89-23.15-13.89s-2.13-5.64-7.32,1.77
			c-5.19,7.41-23.15,14.2-30.47,15.53c-7.32,1.32-20.44,2.07-29.05-3.76c-8.61-5.83-21.97-18.4-31.32-12.51
			c-9.35,5.89-22.23,6.06-31.83,4.61c-9.6-1.45-21.32-5.11-21.32-5.11s-5.09-2.31-9.32,1.24c-4.23,3.55-36.08,12.02-54.88,0
			c-18.8-12.02-30.13-24.21-32.78-41.8c-2.65-17.59,0.75-27.78,5.56-35.33c4.81-7.55,7.74-11.14,7.74-11.14s3.77-2.84,4.37-9.31
			c0.6-6.47,3.47-31.55,15.91-43.87c12.44-12.31,20.74-17.56,20.74-17.56s7.6-0.72,7.1-6.84C96.59,303.89,98.71,290.54,99.13,286.51
			z"/>
		<g>
			<path class="st4" d="M381.6,438.79c3.63-1.84,7.53-1.88,11.45-1.06c4.12,0.86,8.63,2.45,11.62,5.52
				c6.04,6.21,6.35,15.75,6.01,23.87c-0.11,2.77,4.19,3.32,4.31,0.53c0.4-9.73-0.24-20.71-7.72-27.9
				c-3.59-3.45-8.57-5.21-13.35-6.26c-4.71-1.04-9.69-0.89-14.04,1.31C377.41,436.06,379.1,440.06,381.6,438.79L381.6,438.79z"/>
		</g>
		<g>
			<path class="st4" d="M167.65,461.82c-1.84-3.63-1.88-7.53-1.06-11.45c0.86-4.12,2.45-8.63,5.52-11.62
				c6.21-6.04,15.75-6.35,23.87-6.01c2.77,0.11,3.32-4.19,0.53-4.31c-9.73-0.4-20.71,0.24-27.9,7.72
				c-3.45,3.59-5.21,8.57-6.26,13.35c-1.04,4.71-0.89,9.69,1.31,14.04C164.92,466.02,168.92,464.32,167.65,461.82L167.65,461.82z"/>
		</g>
		<circle class="st0" cx="281.83" cy="366.13" r="124.58"/>
		<path class="st3" d="M344.93,279.39c-0.79-1.52-2.29-1.7-3.48-1.12c-1.44-3.44-2.75-6.79-2.59-7.63c0.35-1.8-0.48-5.6-0.48-5.6
			s-13.29,0.79-18.06,0c-4.78-0.79-22.21-5.87-25.02-7.78c-2.8-1.92-5.02-3.6-6.92,0c-1.9,3.6-4.29,6.89-14.67,13.18
			c-10.38,6.29-14.47,8.58-18.16,8.68c-3.69,0.1-12.5-1.21-12.5-1.21s-0.03-0.01-0.09-0.01c-0.83-2.66-5.47-2.34-5.55,0.96
			c-0.43,16.16,6.77,35.43,23.64,40.24c9.8,2.79,24.72,1.68,27.47-10.31c0.04-0.19,0.08-0.38,0.12-0.57
			c1.53,0.39,3.07,0.7,4.62,0.92c6.79,0.95,14.5,0.23,20.01-4.23c1.38-1.12,2.51-2.45,3.4-3.92c5.27,3.63,11.73,5.98,18.16,4.82
			c7.46-1.35,12.46-7.6,12.85-15.05C347.9,286.77,346.75,282.89,344.93,279.39z"/>
		<path class="st3" d="M193.94,306.18c0,0,30.52,19.77,65.94-17.32c0,0,35.31-36.61-8.51-37.09S191.67,287.38,193.94,306.18z"/>
		<path class="st3" d="M329.98,287.76c0,0,6.33,38.39,56.18,38.55c0,0,30.77-35.98,3.07-59.91
			C361.53,242.47,329.98,258.8,329.98,287.76z"/>
		<path class="st3" d="M308.93,232.91l-35.21,37.53c0,0-8.7,13.5-36.3,8.42c0,0-10.26,12.9-36.79,22.99c0,0,16.71,50.98-43.09,54.79
			C157.54,356.64,134.25,220.09,308.93,232.91z"/>
		<path class="st3" d="M386.15,326.3c0,0-20.64,49.94,4.39,58.65c25.03,8.71,71.5-1.13,45.72-43.4S386.15,326.3,386.15,326.3z"/>
		<path class="st3" d="M172.02,326.3c0,0,20.64,49.94-4.39,58.65s-71.5-1.13-45.72-43.4S172.02,326.3,172.02,326.3z"/>
		<path class="st3" d="M279.24,226.44c0,0,8.28,53.9,78.51,34.52C357.75,260.96,346.41,197.8,279.24,226.44z"/>
		<path class="st3" d="M339.55,245.86c0,0-19.95,46.81,32.47,58c0,0-15.61,66.13,70.52,51.61
			C442.54,355.48,449.81,218.84,339.55,245.86z"/>
		<g>
			<path class="st4" d="M287.2,253.06c-4.79,8.26-12.25,14.79-20.92,18.75c-10.08,4.6-21.32,4.65-31.75,1.16
				c-3.48-1.16-4.97,4.32-1.51,5.48c11.65,3.9,24.08,3.56,35.34-1.38c9.83-4.31,18.35-11.85,23.74-21.14
				C293.94,252.76,289.03,249.9,287.2,253.06L287.2,253.06z"/>
		</g>
		<g>
			<path class="st4" d="M273.24,221.26c-0.22,5.87,1.24,12.12,3.39,17.53c4.88,12.27,14.61,21.19,27.05,25.54
				c10.82,3.79,22.65,4.07,33.96,3.01c3.61-0.34,3.64-6.02,0-5.68c-16.01,1.49-34.44,0.35-46.72-11.37
				c-6.63-6.32-10.34-14.75-11.66-23.7c-0.12-0.79,0.07,0.6-0.02-0.16c-0.03-0.21-0.05-0.43-0.08-0.64
				c-0.04-0.39-0.08-0.79-0.11-1.18c-0.05-0.58-0.09-1.17-0.11-1.75c-0.02-0.53-0.04-1.06-0.02-1.6
				C279.06,217.61,273.38,217.61,273.24,221.26L273.24,221.26z"/>
		</g>
		<g>
			<path class="st4" d="M431.66,353.68c-15.97,7.66-35.48,4.32-47.8-8.43c-11.42-11.83-14.52-30.15-7.24-44.98
				c4.29-8.73,11.48-15.43,20.28-19.47c3.32-1.52,0.44-6.42-2.87-4.91c-17.96,8.24-29.14,27.42-26.71,47.15
				c2.23,18.06,15.33,33.29,32.74,38.5c11.45,3.43,23.73,2.18,34.46-2.96C437.82,357.01,434.94,352.11,431.66,353.68L431.66,353.68z
				"/>
		</g>
		<g>
			<path class="st4" d="M411.08,362.67c-0.82-1.05,0.21,0.3,0.46,0.66c0.74,1.05,1.44,2.13,2.12,3.23c2.24,3.65,4.19,7.5,5.72,11.51
				c4.48,11.75,5.54,24.58,1.12,36.53c-3.44,9.3-9.96,17.01-17.4,23.4c-2.78,2.39,1.26,6.39,4.02,4.02
				c13.02-11.2,22.09-26.41,21.95-43.94c-0.09-11.55-3.84-22.97-9.62-32.9c-1.31-2.26-2.74-4.46-4.35-6.52
				C412.84,355.79,408.85,359.83,411.08,362.67L411.08,362.67z"/>
		</g>
		<g>
			<path class="st4" d="M372.01,303.87c-12.01-3.93-22.18-12.78-27.1-24.51c-4.84-11.53-4.16-24.97,1.8-35.96
				c12.26-22.59,42.34-29.84,63.92-16.22c11.64,7.35,19.17,19.93,19.94,33.69c0.2,3.64,5.89,3.66,5.68,0
				c-0.78-13.84-7.32-26.71-18.21-35.35c-11.17-8.85-25.57-12.49-39.63-10.41c-28.68,4.26-48.91,33.42-40.43,61.67
				c4.68,15.59,17.17,27.53,32.51,32.55C373.99,310.48,375.48,305,372.01,303.87L372.01,303.87z"/>
		</g>
		<g>
			<path class="st4" d="M373.47,253.97c12.57-10.98,30.72-12.56,44.92-3.79c13.73,8.48,21.14,24.56,20.27,40.47
				c-0.56,10.17-4.67,19.93-11.58,27.41c-2.48,2.68,1.53,6.71,4.02,4.02c13.8-14.93,16.98-37.05,8.72-55.51
				c-6.99-15.63-22.32-27.05-39.61-27.8c-11.37-0.49-22.24,3.75-30.75,11.18C366.69,252.36,370.73,256.36,373.47,253.97
				L373.47,253.97z"/>
		</g>
		<path class="st3" d="M428.99,345.81c0,0,25.4,7.45,24.01,45.77c-1.39,38.32-15.28,49.06-19.91,59.92
			c-4.63,10.86,17.62,23.04,32.44,7.77c14.82-15.27,28.38-48.12,21.07-78.26c-7.31-30.14-16.77-38.26-33.6-49.24
			C436.18,320.8,414.89,331.44,428.99,345.81z"/>
		<g>
			<path class="st4" d="M403.15,322.99c20.21-2.58,40.49,3.47,55.85,16.92c14.7,12.88,24.16,31.27,26.44,50.67
				c2.35,20.06-2.46,40.59-14.04,57.2c-10.91,15.65-27.67,26.88-46.5,30.3c-24.84,4.51-39.2,2.85-55.57-15.95
				c-2.41-2.76-6.41,1.27-4.02,4.02c15.78,18.12,28.71,20.27,52.86,18.46c20.37-1.53,39.37-11.47,52.67-26.91
				c28.43-33.03,27.52-84.94-2.49-116.69c-16.72-17.69-40.96-26.8-65.19-23.71C399.57,317.77,399.53,323.45,403.15,322.99
				L403.15,322.99z"/>
		</g>
		<path class="st3" d="M85.24,382.81c0,0,10.19-37.38,30.81-49.43c20.62-12.05,29.8-14.82,38.32-15.32
			c8.52-0.5,15.97,1.41,14.37,5.94c-1.6,4.52-29.01,11.05-34.33,28.28c-5.32,17.23-15.97,46.37-4.52,68.52
			c11.44,22.15,19.96,44.77,11.97,46.37c-7.98,1.6-47.77-12.14-54.09-42.39C81.45,394.51,83.12,391.58,85.24,382.81z"/>
		<g>
			<g>
				<path class="st4" d="M138.11,356.57c18.13,8.7,40.23,5.41,54.43-9.06c13.29-13.54,16.77-34.23,8.73-51.4
					c-4.6-9.83-12.84-17.73-22.67-22.24c-3.3-1.51-6.19,3.38-2.87,4.91c15.89,7.29,25.82,23.53,24.03,41.09
					c-1.6,15.67-13.05,29.21-27.97,33.95c-10.14,3.23-21.22,2.44-30.81-2.16C137.7,350.09,134.81,354.99,138.11,356.57
					L138.11,356.57z"/>
			</g>
			<g>
				<path class="st4" d="M157.54,356.64c-12.46,15.83-18,39.05-10.62,58.14c3.85,9.95,10.56,18.31,18.6,25.22
					c2.76,2.37,6.8-1.63,4.02-4.02c-12.2-10.49-20.69-24.4-20.27-40.87c0.26-10.36,3.79-20.51,9.01-29.4
					c0.8-1.36,1.64-2.69,2.54-3.99c0.3-0.44,1.55-2.09,0.75-1.07C163.79,357.82,159.8,353.77,157.54,356.64L157.54,356.64z"/>
			</g>
			<g>
				<path class="st4" d="M202.14,307.33c13.54-4.43,24.98-14.23,30.62-27.42c5.59-13.07,4.99-28.14-1.58-40.74
					c-13.46-25.82-48.03-34.35-72.35-18.71c-13.22,8.5-21.56,22.7-22.44,38.39c-0.21,3.65,5.48,3.64,5.68,0
					c1.45-25.84,26.28-44.18,51.43-40.15c25.17,4.03,43.06,29.14,35.78,54.19c-4.01,13.81-15.1,24.52-28.66,28.96
					C197.17,302.98,198.65,308.47,202.14,307.33L202.14,307.33z"/>
			</g>
			<g>
				<path class="st4" d="M203.19,247.93c-14.46-12.63-35.35-14.84-51.8-4.68c-15.49,9.57-24.24,27.8-23.05,45.85
					c0.76,11.56,5.35,22.45,13.22,30.96c2.49,2.69,6.5-1.33,4.02-4.02c-11.97-12.95-14.94-32.53-7.83-48.63
					c6.04-13.68,19.12-24.14,34.33-24.96c9.97-0.54,19.61,2.95,27.11,9.5C201.91,254.35,205.95,250.34,203.19,247.93L203.19,247.93z
					"/>
			</g>
			<g>
				<path class="st4" d="M169.49,315.29c-19.77-2.52-39.79,2.99-55.59,15.1c-15.12,11.58-25.82,28.4-30.37,46.87
					c-9.29,37.72,7.55,80.27,43.12,97.75c21.99,10.81,47.9,10.09,69.43-1.57c3.22-1.74,0.35-6.65-2.87-4.91
					c-18.15,9.83-39.79,11.26-59,3.66c-16.16-6.39-29.45-18.96-37.72-34.13c-17.52-32.15-11.16-74.43,16.05-99.19
					c15.48-14.09,36.21-20.55,56.95-17.9C173.11,321.44,173.07,315.75,169.49,315.29L169.49,315.29z"/>
			</g>
		</g>
		<g>
			<g>
				<path class="st5" d="M150.65,256.92c-12.46,11.02-15.35,29.76-7.53,44.3c1.73,3.22,6.64,0.36,4.91-2.87
					c-6.67-12.41-3.89-28.09,6.65-37.41C157.41,258.51,153.38,254.51,150.65,256.92L150.65,256.92z"/>
			</g>
			<g>
				<path class="st5" d="M173.86,249.06c-4.68-0.4-9.48,0.33-13.84,2.1c-0.71,0.29-1.29,0.61-1.7,1.31
					c-0.36,0.61-0.51,1.51-0.29,2.19c0.43,1.32,2.02,2.58,3.49,1.98c2-0.82,4.08-1.42,6.22-1.76c0.12-0.02,0.23-0.04,0.35-0.05
					c-0.36,0.05-0.38,0.05-0.05,0.01c0.24-0.03,0.47-0.05,0.71-0.08c0.56-0.05,1.12-0.09,1.68-0.11c1.14-0.04,2.28,0,3.41,0.1
					c1.48,0.13,2.91-1.4,2.84-2.84C176.62,250.26,175.45,249.2,173.86,249.06L173.86,249.06z"/>
			</g>
			<g>
				<path class="st5" d="M269.53,313.31c1.82,0.14,3.66,0.14,5.48,0.04c0.75-0.04,1.46-0.29,2.01-0.83c0.49-0.49,0.86-1.3,0.83-2.01
					c-0.03-0.73-0.27-1.5-0.83-2.01c-0.54-0.49-1.26-0.87-2.01-0.83c-1.83,0.1-3.66,0.1-5.48-0.04c-0.69-0.05-1.53,0.36-2.01,0.83
					c-0.49,0.49-0.86,1.3-0.83,2.01c0.03,0.73,0.27,1.5,0.83,2.01C268.1,313.01,268.75,313.25,269.53,313.31L269.53,313.31z"/>
			</g>
			<g>
				<path class="st5" d="M244.93,288.2c0.01,6.52,2.94,13.49,7.57,18.03c2.42,2.38,5.31,4.07,8.46,5.29
					c1.43,0.56,3.12-0.61,3.49-1.98c0.44-1.61-0.55-2.94-1.98-3.49c-0.18-0.07-0.37-0.14-0.55-0.22c0.06,0.02,0.31,0.13,0.02,0
					c-0.3-0.14-0.6-0.28-0.89-0.42c-0.57-0.28-1.12-0.59-1.66-0.93c-0.51-0.32-1.01-0.66-1.49-1.02c0.42,0.32-0.18-0.16-0.3-0.26
					c-0.25-0.21-0.49-0.43-0.73-0.65c-0.4-0.38-0.79-0.77-1.16-1.18c-0.16-0.17-0.31-0.35-0.46-0.52c-0.1-0.12-0.19-0.24-0.29-0.35
					c-0.27-0.32,0.27,0.37,0.03,0.04c-0.63-0.84-1.2-1.72-1.7-2.64c-0.21-0.39-0.42-0.79-0.61-1.19c-0.1-0.21-0.19-0.43-0.29-0.64
					c-0.07-0.14-0.18-0.5,0.06,0.14c-0.05-0.12-0.1-0.24-0.14-0.36c-0.3-0.79-0.58-1.59-0.81-2.41c-0.21-0.74-0.39-1.48-0.53-2.23
					c-0.06-0.31-0.12-0.63-0.16-0.94c-0.02-0.12-0.03-0.25-0.06-0.37c-0.01-0.06,0.09,0.78,0.03,0.19
					c-0.07-0.62-0.14-1.25-0.14-1.87c0-1.54-1.3-2.84-2.84-2.84C246.23,285.36,244.93,286.66,244.93,288.2L244.93,288.2z"/>
			</g>
			<g>
				<path class="st5" d="M292.11,303.51c2.52,0.52,5.18,0.69,7.75,0.54c0.76-0.05,1.46-0.29,2.01-0.83c0.49-0.49,0.86-1.3,0.83-2.01
					c-0.03-0.73-0.27-1.5-0.83-2.01c-0.54-0.49-1.26-0.88-2.01-0.83c-1.89,0.11-3.79,0.03-5.67-0.22c0.25,0.03,0.5,0.07,0.76,0.1
					c-0.44-0.06-0.88-0.12-1.32-0.21c-0.75-0.15-1.51-0.11-2.19,0.29c-0.59,0.34-1.15,1.02-1.31,1.7c-0.17,0.73-0.13,1.54,0.29,2.19
					C290.8,302.81,291.39,303.36,292.11,303.51L292.11,303.51z"/>
			</g>
			<g>
				<path class="st5" d="M228.63,197.44c-6.73,0.91-13.23,3.36-18.9,7.08c-1.28,0.84-1.82,2.51-1.02,3.89
					c0.74,1.27,2.6,1.87,3.89,1.02c5.38-3.53,11.08-5.64,17.55-6.51c1.48-0.2,2.41-2.17,1.98-3.49
					C231.6,197.8,230.22,197.23,228.63,197.44L228.63,197.44z"/>
			</g>
			<g>
				<path class="st5" d="M246.76,198.83c-2.64-0.61-5.33-1.01-8.02-1.26c-0.69-0.06-1.54,0.36-2.01,0.83
					c-0.49,0.49-0.86,1.3-0.83,2.01c0.03,0.73,0.27,1.5,0.83,2.01c0.58,0.54,1.22,0.76,2.01,0.83c0.8,0.07,1.6,0.16,2.4,0.27
					c-0.25-0.03-0.5-0.07-0.76-0.1c1.64,0.22,3.26,0.52,4.87,0.89c0.74,0.17,1.53,0.1,2.19-0.29c0.59-0.34,1.15-1.02,1.31-1.7
					C249.08,200.87,248.31,199.18,246.76,198.83L246.76,198.83z"/>
			</g>
			<g>
				<path class="st5" d="M287.93,237.94c3.75,6.92,9.66,12.44,16.75,15.83c1.34,0.64,3.13,0.41,3.89-1.02
					c0.67-1.27,0.41-3.2-1.02-3.89c-1.86-0.89-3.65-1.91-5.33-3.09c-0.17-0.12-0.35-0.24-0.52-0.37c-0.07-0.05-0.67-0.5-0.41-0.3
					c0.28,0.21-0.25-0.19-0.3-0.24c-0.19-0.15-0.38-0.31-0.57-0.47c-0.7-0.59-1.38-1.2-2.02-1.85c-0.6-0.59-1.17-1.21-1.72-1.84
					c-0.27-0.31-0.53-0.62-0.79-0.94c-0.17-0.21-0.39-0.5-0.1-0.12c-0.13-0.17-0.26-0.35-0.39-0.52c-0.95-1.29-1.8-2.65-2.56-4.06
					c-0.71-1.31-2.63-1.83-3.89-1.02C287.63,234.91,287.17,236.54,287.93,237.94L287.93,237.94z"/>
			</g>
			<g>
				<path class="st5" d="M283.4,224.21c0.33,2.24,0.83,4.45,1.52,6.61c0.22,0.7,0.66,1.32,1.31,1.7c0.61,0.36,1.51,0.51,2.19,0.29
					c0.69-0.22,1.35-0.65,1.7-1.31c0.35-0.66,0.52-1.46,0.29-2.19c-0.69-2.16-1.19-4.37-1.52-6.61c-0.1-0.65-0.76-1.38-1.31-1.7
					c-0.61-0.36-1.51-0.51-2.19-0.29c-0.69,0.22-1.35,0.65-1.7,1.31c-0.1,0.23-0.19,0.45-0.29,0.68
					C283.27,223.2,283.27,223.7,283.4,224.21L283.4,224.21z"/>
			</g>
			<g>
				<g>
					<path class="st5" d="M108.34,301.2c-0.39-7.16,1.72-14.27,6.21-19.84c0.96-1.19,1.17-2.85,0-4.02c-1-1-3.05-1.2-4.02,0
						c-5.45,6.75-8.35,15.15-7.87,23.85c0.08,1.53,1.25,2.84,2.84,2.84C106.97,304.04,108.43,302.74,108.34,301.2L108.34,301.2z"/>
				</g>
				<g>
					<path class="st5" d="M112.3,313.93c-0.73-1.24-1.38-2.52-1.94-3.85c0.1,0.23,0.19,0.45,0.29,0.68c-0.37-0.9-0.71-1.81-1-2.73
						c-0.22-0.7-0.66-1.32-1.31-1.7c-0.61-0.36-1.51-0.51-2.19-0.29c-0.69,0.22-1.35,0.65-1.7,1.31c-0.35,0.66-0.52,1.46-0.29,2.19
						c0.8,2.52,1.88,4.98,3.23,7.26c0.36,0.62,1.01,1.11,1.7,1.31c0.68,0.19,1.59,0.1,2.19-0.29
						C112.57,316.99,113.11,315.3,112.3,313.93L112.3,313.93z"/>
				</g>
			</g>
			<g>
				<g>
					<path class="st5" d="M66.03,390.78c-0.25-2.65-0.29-5.32-0.13-7.98c0.09-1.49-1.37-2.91-2.84-2.84
						c-1.62,0.07-2.74,1.25-2.84,2.84c-0.16,2.66-0.12,5.32,0.13,7.98c0.07,0.77,0.27,1.44,0.83,2.01c0.49,0.49,1.3,0.86,2.01,0.83
						c0.73-0.03,1.5-0.27,2.01-0.83C65.68,392.27,66.1,391.52,66.03,390.78L66.03,390.78z"/>
				</g>
				<g>
					<path class="st5" d="M70.65,409.36c-0.21-0.45-0.41-0.9-0.61-1.35c-0.12-0.29-0.11-0.26,0.04,0.09
						c-0.05-0.13-0.11-0.26-0.16-0.39c-0.08-0.2-0.16-0.4-0.24-0.6c-0.38-0.97-0.72-1.95-1.03-2.94c-0.62-1.99-1.1-4.03-1.45-6.08
						c-0.25-1.47-2.13-2.42-3.49-1.98c-1.58,0.51-2.25,1.92-1.98,3.49c0.75,4.39,2.13,8.61,4.03,12.63c0.63,1.35,2.68,1.8,3.89,1.02
						C71.01,412.35,71.32,410.8,70.65,409.36L70.65,409.36z"/>
				</g>
			</g>
			<g>
				<g>
					<path class="st5" d="M93.27,383.19c-5.9,28.4,5.19,58.61,29.91,74.47c3.09,1.98,5.94-2.93,2.87-4.91
						c-22.49-14.43-32.67-42.23-27.3-68.06C99.49,381.13,94.02,379.61,93.27,383.19L93.27,383.19z"/>
				</g>
				<g>
					<path class="st5" d="M100.79,363.44c-1.67,2.96-3.1,6.04-4.34,9.2c-0.25,0.64-0.05,1.62,0.29,2.19
						c0.34,0.59,1.02,1.15,1.7,1.31c0.73,0.17,1.54,0.13,2.19-0.29c0.66-0.42,1.02-0.97,1.31-1.7c0.22-0.55,0.44-1.1,0.67-1.64
						c-0.1,0.23-0.19,0.45-0.29,0.68c1-2.36,2.13-4.65,3.38-6.88c0.73-1.29,0.35-3.16-1.02-3.89
						C103.33,361.72,101.57,362.06,100.79,363.44L100.79,363.44z"/>
				</g>
			</g>
			<g>
				<g>
					<path class="st5" d="M520.77,435.01c-3.45,16.52-17.88,28.58-34.82,28.7c-3.65,0.03-3.66,5.71,0,5.68
						c19.33-0.13,36.33-13.91,40.3-32.87C527,432.96,521.52,431.43,520.77,435.01L520.77,435.01z"/>
				</g>
				<g>
					<path class="st5" d="M520.51,419.94c0.29,1.25,0.52,2.51,0.69,3.79c-0.03-0.25-0.07-0.5-0.1-0.76c0.22,1.7,0.33,3.4,0.34,5.11
						c0,1.49,1.3,2.91,2.84,2.84c1.54-0.07,2.84-1.25,2.84-2.84c-0.01-3.24-0.39-6.5-1.13-9.65c-0.34-1.45-2.07-2.44-3.49-1.98
						C520.98,416.93,520.15,418.38,520.51,419.94L520.51,419.94z"/>
				</g>
			</g>
			<g>
				<path class="st5" d="M469.16,381.77c9.09,30.8-5.67,66.5-37.03,77.25c-3.44,1.18-1.96,6.67,1.51,5.48
					c34.25-11.74,51.01-50.33,41-84.24C473.6,376.76,468.12,378.25,469.16,381.77L469.16,381.77z"/>
			</g>
			<g>
				<path class="st5" d="M453.26,355.51c1.88,1.83,3.64,3.78,5.27,5.83c0.09,0.12,0.18,0.23,0.28,0.35
					c0.04,0.05,0.36,0.42,0.12,0.15c-0.26-0.3,0.14,0.18,0.18,0.24c0.09,0.12,0.18,0.24,0.27,0.36c0.4,0.54,0.79,1.08,1.17,1.63
					c0.77,1.11,1.5,2.24,2.2,3.39c0.77,1.27,2.58,1.86,3.89,1.02c1.27-0.82,1.85-2.53,1.02-3.89c-2.9-4.77-6.4-9.2-10.39-13.1
					c-1.06-1.04-2.97-1.14-4.02,0C452.23,352.61,452.13,354.4,453.26,355.51L453.26,355.51z"/>
			</g>
			<g>
				<path class="st5" d="M422.39,265.95c9.5,11.95,9.89,29.16,1.4,41.71c-2.05,3.04,2.87,5.88,4.91,2.87
					c10.03-14.83,8.75-34.72-2.28-48.6C424.13,259.07,420.14,263.12,422.39,265.95L422.39,265.95z"/>
			</g>
			<g>
				<path class="st5" d="M406.31,255.18c0.9,0.25,1.79,0.53,2.67,0.86c0.37,0.14,0.76,0.36,1.14,0.45c-0.41-0.17-0.47-0.2-0.2-0.08
					c0.11,0.05,0.21,0.09,0.32,0.14c0.21,0.1,0.42,0.19,0.64,0.29c1.64,0.77,3.2,1.68,4.7,2.7c1.23,0.84,3.2,0.27,3.89-1.02
					c0.76-1.44,0.29-2.99-1.02-3.89c-3.23-2.21-6.85-3.89-10.62-4.93c-1.43-0.4-3.15,0.49-3.49,1.98
					C403.98,253.19,404.77,254.76,406.31,255.18L406.31,255.18z"/>
			</g>
		</g>
		<polygon class="st7" points="280.34,382.8 268.74,408.33 292.57,408.33 		"/>
		
			<ellipse transform="matrix(0.8977 -0.4407 0.4407 0.8977 -160.8861 105.715)" class="st0" cx="147.18" cy="399.28" rx="27.03" ry="32.66"/>
		
			<ellipse transform="matrix(0.4407 -0.8977 0.8977 0.4407 -127.956 593.2004)" class="st0" cx="412.03" cy="399.28" rx="32.66" ry="27.03"/>
		<path class="st4" d="M174.13,364.48c0,0-1.58-52.61,50.43-52.61c27.66,0,41.18,39.98,41.18,39.98s-13.09-40.9-49.03-33.92
			C179.1,325.22,174.13,364.48,174.13,364.48z"/>
		<path class="st4" d="M383.89,370.95c0,0,1.13-58.69-40.31-58.69c-43.88,0-45.77,39.59-45.77,39.59s9.3-38.86,49.03-33.92
			C384.86,322.65,383.89,370.95,383.89,370.95z"/>
		<ellipse class="st6" cx="340.36" cy="364.48" rx="43.53" ry="48.22"/>
		<ellipse class="st6" cx="220.75" cy="364.48" rx="46.62" ry="48.22"/>
		<ellipse cx="235.9" cy="368.87" rx="26.77" ry="36.97"/>
		<ellipse cx="329.98" cy="366.13" rx="26.77" ry="36.97"/>
		<path d="M198.68,278.32c0,0,0.55,63.83,75.16,40.16C273.84,318.48,223.18,329.37,198.68,278.32z"/>
		<path d="M356.07,278.32c0,0-0.55,63.83-75.16,40.16C280.91,318.48,331.57,329.37,356.07,278.32z"/>
		<path class="st7" d="M270.85,451.05c0,0,28.47-46.46,71.88,0C342.73,451.05,308.92,422.73,270.85,451.05z"/>
		<g>
			<path class="st27" d="M481.66,203.05c-1.37-2.34-2.48-5.24-3.31-8.68c-0.37-1.52,0.57-3.04,2.08-3.41
				c1.52-0.37,3.04,0.56,3.41,2.08c1.6,6.66,4.19,10.52,7.66,11.46c6.02,1.65,14.4-5.26,17.13-8.06c1.09-1.12,2.87-1.14,3.99-0.06
				c1.12,1.08,1.15,2.87,0.06,3.99c-0.49,0.51-12.2,12.43-22.66,9.58C486.6,209.02,483.81,206.71,481.66,203.05z"/>
		</g>
		<g>
			<path class="st27" d="M464.06,244.51c-0.77-1.31-0.36-2.99,0.93-3.81c4.64-2.94,7.33-6.55,8-10.75
				c1.33-8.33-5.43-16.66-5.49-16.74c-0.98-1.21-0.82-2.98,0.38-3.97c1.2-0.99,2.98-0.83,3.97,0.37c0.34,0.42,8.45,10.33,6.73,21.2
				c-0.93,5.88-4.48,10.81-10.56,14.66c-1.32,0.83-3.06,0.44-3.9-0.87C464.1,244.56,464.08,244.54,464.06,244.51z"/>
		</g>
		<g>
			<path class="st27" d="M509.42,239.96c-1.83-3.13-2.79-6.46-2.86-9.95c-0.2-10.08,7.24-17.67,7.56-17.99
				c1.1-1.1,2.89-1.11,3.99-0.01c1.11,1.1,1.11,2.88,0.01,3.99c-0.08,0.09-6.09,6.29-5.92,13.94c0.1,4.35,2.2,8.46,6.25,12.21
				c1.14,1.06,1.21,2.85,0.15,3.99c-1.06,1.14-2.85,1.21-3.99,0.15C512.44,244.29,510.71,242.17,509.42,239.96z"/>
		</g>
		<g>
			<path class="st27" d="M473.87,261.25c-0.48-0.83-0.54-1.88-0.04-2.78c3.16-5.79,7.55-9.47,13.05-10.93
				c10.35-2.75,20.74,3.54,21.18,3.81c1.33,0.82,1.74,2.56,0.92,3.89s-2.55,1.74-3.88,0.93c-0.17-0.1-8.85-5.28-16.79-3.16
				c-3.93,1.05-7.14,3.8-9.52,8.17c-0.75,1.37-2.46,1.87-3.83,1.13C474.49,262.04,474.12,261.67,473.87,261.25z"/>
		</g>
		<g>
			<path class="st27" d="M502.47,280.98c-1.83-0.73-3.75-1.89-5.76-3.48c-0.88-0.7-1.03-1.99-0.33-2.87
				c0.7-0.89,1.98-1.03,2.87-0.33c3.88,3.09,7.07,4.14,9.48,3.13c4.17-1.74,5.88-9.42,6.18-12.23c0.12-1.12,1.13-1.93,2.25-1.81
				c1.12,0.12,1.93,1.13,1.81,2.25c-0.05,0.51-1.42,12.53-8.67,15.56C507.95,282.18,505.32,282.11,502.47,280.98z"/>
		</g>
		<g>
			<path class="st27" d="M510.9,312.48c-1.02-0.4-1.54-1.55-1.17-2.59c1.34-3.74,1.26-7-0.22-9.7c-2.95-5.35-10.52-7.09-10.59-7.11
				c-1.1-0.25-1.8-1.33-1.55-2.44c0.24-1.1,1.33-1.8,2.43-1.56c0.38,0.09,9.42,2.13,13.28,9.1c2.09,3.77,2.26,8.17,0.51,13.07
				c-0.38,1.06-1.55,1.62-2.61,1.24C510.94,312.49,510.92,312.49,510.9,312.48z"/>
		</g>
		<g>
			<path class="st27" d="M534.76,289.68c-2.44-0.97-4.47-2.44-6.07-4.4c-4.61-5.67-3.74-13.31-3.7-13.64
				c0.14-1.12,1.15-1.92,2.28-1.78c1.13,0.13,1.92,1.15,1.79,2.27c-0.01,0.09-0.67,6.3,2.84,10.59c1.99,2.44,5.02,3.85,9.01,4.18
				c1.12,0.1,1.96,1.09,1.86,2.21c-0.1,1.12-1.09,1.96-2.21,1.86C538.41,290.8,536.48,290.36,534.76,289.68z"/>
		</g>
		<g>
			<path class="st27" d="M523.95,317.66c-0.65-0.26-1.14-0.83-1.26-1.57c-0.78-4.71,0.09-8.77,2.58-12.06
				c4.68-6.18,13.41-7.22,13.78-7.26c1.12-0.12,2.13,0.68,2.26,1.81s-0.68,2.13-1.8,2.26c-0.14,0.02-7.4,0.93-10.99,5.68
				c-1.78,2.35-2.38,5.35-1.79,8.9c0.18,1.11-0.57,2.17-1.68,2.35C524.66,317.84,524.29,317.79,523.95,317.66z"/>
		</g>
		<g>
			<path class="st27" d="M30.7,268.71c-1.83-0.73-3.75-1.89-5.76-3.48c-0.88-0.7-1.03-1.99-0.33-2.87c0.7-0.89,1.98-1.03,2.87-0.33
				c3.88,3.09,7.07,4.14,9.48,3.13c4.17-1.74,5.88-9.42,6.18-12.23c0.12-1.12,1.13-1.93,2.25-1.81c1.12,0.12,1.93,1.13,1.81,2.25
				c-0.05,0.51-1.42,12.53-8.67,15.56C36.18,269.91,33.56,269.84,30.7,268.71z"/>
		</g>
		<g>
			<path class="st27" d="M39.13,300.21c-1.02-0.4-1.54-1.55-1.17-2.59c1.34-3.74,1.26-7-0.22-9.7c-2.95-5.35-10.52-7.09-10.59-7.11
				c-1.1-0.25-1.8-1.33-1.55-2.44c0.24-1.1,1.33-1.8,2.43-1.56c0.38,0.09,9.42,2.13,13.28,9.1c2.09,3.77,2.26,8.17,0.51,13.07
				c-0.38,1.06-1.55,1.62-2.61,1.24C39.18,300.23,39.15,300.22,39.13,300.21z"/>
		</g>
		<g>
			<path class="st27" d="M62.99,277.41c-2.44-0.97-4.47-2.44-6.07-4.4c-4.61-5.67-3.74-13.31-3.7-13.64
				c0.14-1.12,1.15-1.92,2.28-1.78c1.13,0.13,1.92,1.15,1.79,2.27c-0.01,0.09-0.67,6.3,2.84,10.59c1.99,2.44,5.02,3.85,9.01,4.18
				c1.12,0.1,1.96,1.09,1.86,2.21c-0.1,1.12-1.09,1.96-2.21,1.86C66.64,278.53,64.71,278.09,62.99,277.41z"/>
		</g>
		<g>
			<path class="st27" d="M52.19,305.39c-0.65-0.26-1.14-0.83-1.26-1.57c-0.78-4.71,0.09-8.77,2.58-12.06
				c4.68-6.18,13.41-7.22,13.78-7.26c1.12-0.12,2.13,0.68,2.26,1.81c0.12,1.12-0.68,2.13-1.8,2.26c-0.14,0.02-7.4,0.93-10.99,5.68
				c-1.78,2.35-2.38,5.35-1.79,8.9c0.18,1.11-0.57,2.17-1.68,2.35C52.89,305.57,52.52,305.53,52.19,305.39z"/>
		</g>
		<g>
			<path class="st27" d="M79.39,229.89c-0.6-1.32-1.02-2.93-1.27-4.8c-0.11-0.83,0.47-1.58,1.3-1.69c0.83-0.11,1.58,0.47,1.69,1.3
				c0.47,3.63,1.63,5.83,3.42,6.53c3.1,1.22,7.96-1.98,9.56-3.31c0.64-0.53,1.59-0.44,2.13,0.2c0.53,0.64,0.45,1.59-0.19,2.12
				c-0.29,0.24-7.19,5.92-12.59,3.81C81.67,233.35,80.32,231.96,79.39,229.89z"/>
		</g>
		<g>
			<path class="st27" d="M67.68,250.93c-0.33-0.74-0.02-1.61,0.71-1.97c2.63-1.3,4.27-3.07,4.86-5.26c1.18-4.35-1.94-9.16-1.97-9.21
				c-0.45-0.7-0.27-1.63,0.43-2.09c0.69-0.46,1.63-0.27,2.09,0.42c0.16,0.24,3.9,5.97,2.37,11.65c-0.83,3.07-3,5.49-6.44,7.19
				c-0.75,0.37-1.65,0.06-2.02-0.69C67.69,250.96,67.69,250.95,67.68,250.93z"/>
		</g>
		<g>
			<path class="st27" d="M92.04,251.09c-0.8-1.77-1.12-3.59-0.96-5.45c0.47-5.37,4.85-8.98,5.04-9.14c0.65-0.52,1.6-0.43,2.12,0.22
				c0.53,0.65,0.43,1.6-0.22,2.12c-0.05,0.04-3.59,3-3.94,7.07c-0.2,2.32,0.69,4.62,2.63,6.84c0.54,0.63,0.48,1.58-0.15,2.13
				c-0.63,0.55-1.58,0.48-2.13-0.15C93.41,253.56,92.61,252.34,92.04,251.09z"/>
		</g>
		<g>
			<path class="st27" d="M71.94,260.38c-0.21-0.47-0.18-1.03,0.13-1.48c2.01-2.9,4.55-4.61,7.56-5.07
				c5.66-0.87,10.82,3.06,11.04,3.23c0.66,0.51,0.78,1.46,0.27,2.12c-0.51,0.66-1.46,0.78-2.12,0.27c-0.09-0.06-4.4-3.31-8.75-2.63
				c-2.15,0.34-4.01,1.62-5.52,3.8c-0.47,0.69-1.42,0.86-2.1,0.38C72.22,260.84,72.05,260.63,71.94,260.38z"/>
		</g>
	</g>
</g>
</svg>
