<?xml version="1.0" encoding="utf-8"?>
<!-- Generator: Adobe Illustrator 24.0.1, SVG Export Plug-In . SVG Version: 6.00 Build 0)  -->
<svg version="1.1" id="Capa_1" xmlns="http://www.w3.org/2000/svg" xmlns:xlink="http://www.w3.org/1999/xlink" x="0px" y="0px"
	 viewBox="0 0 566.93 566.93" style="enable-background:new 0 0 566.93 566.93;" xml:space="preserve">
<style type="text/css">
	.st0{fill:#F9D6E4;}
	.st1{fill:#45A759;}
	.st2{fill:#15632D;}
	.st3{fill:#F08CA7;}
	.st4{fill:#B52955;}
	.st5{fill:#F6BFD3;}
	.st6{fill:#FFFFFF;}
	.st7{fill:#CD94A9;}
	.st8{fill:#E16874;}
	.st9{fill:#EEEEEE;}
	.st10{fill:#C9C7C7;}
	.st11{clip-path:url(#SVGID_2_);}
	.st12{clip-path:url(#SVGID_2_);fill:#F08CA7;}
	.st13{fill:#CBC9CA;}
	.st14{fill:#E1E0E0;}
	.st15{fill:#B693C3;}
	.st16{fill:#F8DF28;}
	.st17{fill:#65A2D8;}
	.st18{fill:#DEE275;}
	.st19{fill:#FFDB43;}
	.st20{fill:#E75C2A;}
	.st21{fill:#F49D4E;}
	.st22{opacity:0.5;}
	.st23{fill:#F3B0CF;}
	.st24{fill:#704F9A;}
	.st25{fill:#616160;}
	.st26{fill:#5AE4A7;}
	.st27{fill:#FF0000;}
	.st28{fill:#82CEE0;}
	.st29{fill:#9E6D0B;}
	.st30{fill:#828E0C;}
	.st31{fill:#FFFF00;}
	.st32{clip-path:url(#SVGID_4_);}
	.st33{clip-path:url(#SVGID_4_);fill:#F08CA7;}
	.st34{clip-path:url(#SVGID_6_);}
	.st35{clip-path:url(#SVGID_6_);fill:#F08CA7;}
	.st36{fill:none;stroke:#B52955;stroke-width:3;stroke-linecap:round;stroke-linejoin:round;stroke-miterlimit:10;}
</style>
<g>
	<g>
		<g>
			<g>
				<g>
					<path class="st2" d="M280.28,284.27c-1.1,0-1.99-0.89-1.99-1.99V95.74c0-1.1,0.89-1.99,1.99-1.99c1.1,0,1.99,0.89,1.99,1.99
						v186.54C282.26,283.38,281.37,284.27,280.28,284.27z"/>
				</g>
				<path class="st1" d="M290.91,162.54c2.42-4.1,5.38-8.24,9.93-9.99c4.52-1.62,10.95,0.4,12.27,5.14
					c0.81,3.06-0.77,6.11-2.42,8.75c-7.05,11.01-17.95,19.65-30.42,24.3C282.22,180.85,285.85,171.24,290.91,162.54z"/>
				<path class="st1" d="M290.91,192.4c2.42-4.1,5.38-8.24,9.93-9.99c4.52-1.62,10.95,0.4,12.27,5.14c0.81,3.06-0.77,6.11-2.42,8.75
					c-7.05,11.01-17.95,19.65-30.42,24.3C282.22,210.7,285.85,201.09,290.91,192.4z"/>
				<path class="st1" d="M280.82,191.93c-12.47-4.65-23.37-13.29-30.42-24.3c-1.64-2.64-3.22-5.69-2.42-8.75
					c1.32-4.74,7.75-6.76,12.27-5.14c4.55,1.75,7.51,5.89,9.93,9.99C275.25,172.43,278.88,182.04,280.82,191.93z"/>
				<path class="st1" d="M280.82,221.64c-12.47-4.65-23.37-13.29-30.42-24.3c-1.64-2.64-3.22-5.69-2.42-8.75
					c1.32-4.74,7.75-6.76,12.27-5.14c4.55,1.75,7.51,5.89,9.93,9.99C275.25,202.14,278.88,211.75,280.82,221.64z"/>
			</g>
			<g>
				<path class="st15" d="M322.1,68.26c2.34-0.89,5.19-0.82,7.03,0.89c1.84,1.71,1.9,5.13-0.25,6.46c4.05-1.71,9.24,0.95,10.13,5.19
					s-2.79,8.86-7.15,8.99c3.74,0.38,7.47,2.72,8.17,6.39c0.63,3.67-3.23,7.79-6.65,6.33c3.67,2.66,5.07,7.91,3.29,12.09
					c-1.77,4.18-6.58,6.84-11.02,6.14c3.67,1.96,3.36,7.98,0,10.51c-3.36,2.53-8.23,2.03-11.78-0.13c-3.55-2.15-6.01-5.63-8.42-8.99
					c-3.61-5.07-8.67-12.03-12.98-16.46c-15.26-15.77,6.27-13.11,9.94-18.61c3.74-5.51,8.67-10,13.61-14.44
					C317.86,70.92,319.82,69.21,322.1,68.26z"/>
				<path class="st15" d="M318.43,89.29c-7.72,0.13-15.58,0.32-23.05-1.46c-7.53-1.77-14.88-5.63-19.25-11.97
					c-4.12-6.01-5.19-13.49-6.14-20.7c-0.63-4.88-1.33-9.88,0-14.56s5-9.12,9.88-9.62c4.88-0.51,9.94,4.43,8.36,9.05
					c3.23-4.24,9.43-5.82,14.31-3.61c4.88,2.15,7.85,7.85,6.84,13.04c1.77-3.99,8.36-3.61,10.7,0.13c2.34,3.67,1.01,8.8-1.84,12.09
					c3.8-3.42,10.64-2.41,13.3,1.96c2.66,4.37,0.32,10.89-4.5,12.66c2.85-0.63,5.57,2.41,5.38,5.32c-0.19,2.91-2.6,5.32-5.32,6.46
					C324.38,89.17,321.34,89.23,318.43,89.29z"/>
				<path class="st16" d="M279.56,73.23c-2.06-2.94-2.88-6.57-3.5-10.13c-0.56-3.13-0.94-6.44-0.06-9.51
					c0.88-3.06,3.25-5.94,6.38-6.44c3.13-0.5,6.69,2.06,6.44,5.25c1.06-3.56,5.19-5.88,8.76-4.94s6,5.07,5.13,8.63
					c1.69-2.5,6-2,7.69,0.44c1.69,2.5,1.19,6-0.56,8.51c2.75-2.25,7.44-0.13,8.38,3.31c0.94,3.44-1.19,7.13-4.13,9.13
					c-3,2-6.63,2.56-10.19,2.94c-4.44,0.44-8.94,0.63-13.32-0.38C286.32,79.17,282.13,76.92,279.56,73.23z"/>
				<path class="st15" d="M245.08,70.25c4.94,4.43,9.88,8.93,13.61,14.44c3.67,5.51,25.2,2.85,9.94,18.61
					c-4.31,4.43-9.37,11.4-12.98,16.46c-2.41,3.36-4.88,6.84-8.42,8.99c-3.55,2.15-8.42,2.66-11.78,0.13
					c-3.36-2.53-3.67-8.55,0-10.51c-4.43,0.7-9.24-1.96-11.02-6.14c-1.77-4.18-0.38-9.43,3.29-12.09c-3.42,1.46-7.28-2.66-6.65-6.33
					c0.7-3.67,4.43-6.01,8.17-6.39c-4.37-0.13-8.04-4.75-7.15-8.99s6.08-6.9,10.13-5.19c-2.15-1.33-2.09-4.75-0.25-6.46
					c1.84-1.71,4.69-1.77,7.03-0.89C241.28,66.83,243.24,68.54,245.08,70.25z"/>
				<path class="st16" d="M271.4,94.56c-0.44,3-10.19,10.88-11.88,13.38c-1.5,2.25-3.13,4.5-5.5,5.88
					c-2.31,1.38-5.44,1.75-7.75,0.25c-2.25-1.5-3-5.19-1-7c-2.69,1.56-6.63,0.63-8.32-2.06c-1.69-2.69-0.81-6.63,1.81-8.32
					c-2.5,0.56-4.94-2.25-4.57-4.82c0.38-2.56,2.75-4.44,5.25-4.94c-3.06-0.19-4.75-4.32-3.31-6.94c1.44-2.69,4.88-3.69,7.88-3.19
					c3,0.5,5.63,2.31,8.07,4.13c3.06,2.31,9.82,5.13,12.01,8.32C266.27,92.37,271.9,90.81,271.4,94.56z"/>
				<path class="st16" d="M296.65,91.62c2.22-3.23,9.05-6.08,12.16-8.42c2.47-1.84,5.13-3.67,8.17-4.18
					c3.04-0.51,6.52,0.51,7.98,3.23c1.46,2.66-0.25,6.84-3.36,7.03c2.53,0.51,4.94,2.41,5.32,5c0.38,2.6-2.09,5.44-4.62,4.88
					c2.66,1.71,3.55,5.7,1.84,8.42s-5.7,3.67-8.42,2.09c2.03,1.84,1.27,5.57-1.01,7.09c-2.34,1.52-5.51,1.14-7.85-0.25
					c-2.41-1.39-4.05-3.67-5.57-5.95c-1.71-2.53-11.59-10.51-12.03-13.55C288.73,93.21,294.43,94.79,296.65,91.62z"/>
				<path class="st15" d="M270.03,46.07c-1.52-3.55-3.74-7.6-7.53-7.85c-2.22-0.19-4.5,1.27-5.32,3.36
					c-0.82,2.09-0.13,4.69,1.65,6.08c-2.09-2.47-4.24-5-6.96-6.71c-2.72-1.71-6.27-2.47-9.24-1.27c-3.17,1.33-5.19,5-4.62,8.42
					c0.57,3.42,3.74,6.2,7.15,6.39c-1.58-0.19-3.23-0.32-4.81-0.06c-2.85,0.38-4.5,3.29-3.48,5.95
					c4.05,10.38,13.42,18.17,22.22,25.26c5.07,4.05,11.59,8.42,17.6,5.19c2.79-1.46,4.62-4.24,5.26-7.28
					c1.39-6.14-1.01-11.84-3.36-17.28C275.72,59.43,272.88,52.72,270.03,46.07z"/>
				<path class="st15" d="M279.84,87.03c-1.84-0.32-3.42,1.33-4.56,2.85c-8.04,10.64-16.14,21.4-21.84,33.43
					c-1.58,3.29-2.98,6.77-2.91,10.45c0.06,3.67,1.77,7.47,5.13,9.05c3.29,1.52,8.04-0.13,8.8-3.74c-1.27,6.08,2.72,13.11,8.8,14.25
					c6.14,1.14,12.66-4.94,11.27-10.95c0.63,4.88,6.9,7.79,11.27,5.57c4.37-2.22,5.7-8.61,2.98-12.66c0.63,3.23,5,4.69,7.91,3.04
					c2.85-1.65,4.12-5.26,3.74-8.55c-0.38-3.29-1.96-6.27-3.67-9.12c-6.77-11.52-14.94-22.22-24.19-31.85
					C281.74,87.98,280.92,87.22,279.84,87.03z"/>
				<path class="st16" d="M279.41,78.93c-1.44-4.38-2.88-8.69-4.32-13.07c-1.63-4.88-3.25-9.88-6.38-14.01
					c-0.94-1.19-2.13-2.44-3.63-2.44c-2,0-3.38,2.13-3.75,4.13c-0.38,2-0.25,4.13-1.19,5.94c-1.06-2.06-2.25-4.25-4.25-5.5
					c-2-1.25-5.07-1.13-6.25,0.88c-1.5,2.44,0.63,5.5,2.63,7.57c-0.63-1.94-3.63-2.31-5.13-0.88c-1.5,1.44-1.5,3.88-0.69,5.75
					c0.88,1.88,2.44,3.31,3.94,4.75c5.88,5.38,11.88,10.88,19.01,14.45c1.69,0.88,3.5,1.56,5.38,1.63c1.88,0.06,3.88-0.75,4.88-2.38
					C280.84,83.68,280.16,81.18,279.41,78.93z"/>
				<path class="st16" d="M279.41,89.37c-6.07,8.19-12.13,16.38-18.14,24.58c-1,1.38-2.06,2.81-2.38,4.5
					c-0.31,1.69,0.38,3.69,1.94,4.38c1.38,0.56,3-0.06,4.06-1.13c1.06-1.06,1.63-2.5,2.19-3.88c-0.69,4.19,1.56,8.69,5.32,10.63
					c3.19-0.44,5.5-4.06,4.57-7.07c0.44,2.31,1.63,4.57,3.5,5.88c1.88,1.38,4.63,1.69,6.63,0.44c2-1.25,2.81-4.19,1.5-6.13
					c1.25,2.88,5.69,3.25,8,1.13c2.31-2.13,2.69-5.75,1.69-8.76c-0.94-3-3-5.5-5-7.88C288.6,100.56,284.03,95,279.41,89.37z"/>
				<circle class="st17" cx="283.78" cy="93.39" r="17.16"/>
			</g>
		</g>
		<g>
			<g class="st22">
				<path class="st23" d="M199.3,308.98c-0.33,0-0.66-0.1-0.95-0.3c-0.27-0.19-6.58-4.69-13.12-16.41
					c-5.96-10.67-13.26-29.69-14.23-59.68c-0.77-23.81-3.59-38.7-3.61-38.85c-0.17-0.9,0.42-1.77,1.31-1.94
					c0.9-0.17,1.77,0.42,1.94,1.31c0.03,0.15,2.89,15.27,3.67,39.37c0.52,16.1,3.32,39.22,13.68,57.93
					c6.18,11.16,12.21,15.51,12.27,15.55c0.75,0.53,0.92,1.56,0.4,2.31C200.33,308.73,199.82,308.98,199.3,308.98z"/>
			</g>
			<g class="st22">
				<path class="st23" d="M343.51,313.59c-0.62,0-1.22-0.35-1.5-0.95c-0.39-0.83-0.03-1.82,0.79-2.2
					c0.18-0.09,10.21-4.96,19.23-16.86c5.31-7,9.24-15.05,11.68-23.9c3.06-11.1,3.79-23.53,2.16-36.94
					c-2.95-24.25,3.49-39.34,3.77-39.97c0.37-0.84,1.34-1.22,2.18-0.85c0.84,0.37,1.22,1.34,0.85,2.18
					c-0.06,0.15-6.35,14.96-3.52,38.24c1.69,13.89,0.92,26.79-2.29,38.34c-2.58,9.28-6.72,17.7-12.31,25.05
					c-9.55,12.53-19.92,17.51-20.35,17.71C343.99,313.54,343.75,313.59,343.51,313.59z"/>
			</g>
			<g>
				<path class="st21" d="M157.77,212.18c-4.79,7.29-16.35,8.69-22.76,2.8c-6.41-5.89-5.89-17.53,0.88-22.9
					c-5.52,0.44-11.34-1.62-14.73-5.97c-3.39-4.35-3.83-11.05-0.37-15.39c3.46-4.35,10.68-5.23,14.66-1.33
					c-3.46-2.72-5.3-7.81-3.46-11.86c1.84-4.05,8.03-5.74,11.12-2.58c-3.09-5.38,1.91-12.96,8.1-13.18
					c6.19-0.22,11.49,5.6,11.86,11.78c1.1-6.26,8.32-10.61,14.36-8.69c6.04,1.91,9.35,9.72,6.63,15.39
					c4.35-5.38,14.36-3.98,17.31,2.28c2.95,6.26-1.99,14.66-8.91,15.39c7.36,2.43,11.64,11.64,8.62,18.78
					c-2.95,7.29-12.52,10.75-19.44,7.22c1.99,6.19-1.69,13.7-7.88,15.83C167.64,221.9,160.06,218.37,157.77,212.18z"/>
				<circle class="st4" cx="160.87" cy="181.98" r="14.29"/>
			</g>
			<g>
				<path class="st24" d="M412.2,144.02c0.88,7.59-1.07,15.41-5.42,21.66c11.23-2.72,23.28-2.04,34.17,2
					c-6.54,7.14-13.02,14.37-19.56,21.5c4.9,0.62,9.44,4.53,13.76,7.6c-6.61,4.57-11.07,4-18.79,6.08c6.18,1.78,8.24,2.09,13.13,6.1
					c-10.36,7.3-25,7.53-36.24,1.54c-11.23-5.99-18.9-17.7-21.24-30.2c-2.27-12.48,0.53-25.67,6.71-36.77
					c4.31,5.69,7.43,12.25,8.97,19.19C393.13,153.65,402.1,146.85,412.2,144.02z"/>
				<g>
					<path class="st15" d="M437.54,151.32c-23.39,9.87-43.37,26.62-57.24,47.9c-0.85,1.29,1.02,2.77,1.87,1.49
						c13.54-20.99,33.05-37.97,55.77-48.42C438.57,152.01,438.14,151.11,437.54,151.32L437.54,151.32z"/>
				</g>
				<g>
					<path class="st15" d="M443.17,180.37c-20.83,6.47-41.56,13.36-62.33,20.16c-1.27,0.39-0.47,2.33,0.74,1.92
						c20.63-7.07,41.3-14.06,61.8-21.48C443.81,180.8,443.58,180.27,443.17,180.37L443.17,180.37z"/>
				</g>
				<g>
					<path class="st15" d="M434.24,171.84c-9.61,2.98-18.78,7.86-27.61,12.61c-4.14,2.23-8.23,4.55-12.19,6.98
						c-2.09,1.3-4.17,2.6-6.26,3.9c-2.29,1.47-4.87,2.86-6.82,4.74c-0.66,0.65-0.15,2.04,0.91,1.58c4.14-1.99,7.88-5.19,11.78-7.65
						c4.1-2.62,8.33-5.14,12.6-7.56c9.03-5.16,18.57-9.23,27.73-14.04C434.76,172.15,434.59,171.71,434.24,171.84L434.24,171.84z"/>
				</g>
				<g>
					<path class="st15" d="M399,138.68c-1.63,4.68-2.81,9.64-4.17,14.4c-1.58,5.54-3.26,11.13-5.13,16.58
						c-3.4,10.31-7.28,20.41-11.56,30.3c-0.7,1.56,1.69,2.59,2.39,1.03c4.3-9.97,8.03-20.1,11.29-30.46
						c3.22-10.21,6.77-21.02,7.89-31.71C399.77,138.44,399.15,138.18,399,138.68L399,138.68z"/>
				</g>
				<g>
					<path class="st15" d="M431.69,201.68c-17.44,0.32-34.62,0.02-51.92-2.47c-1.48-0.21-1.87,2.14-0.37,2.28
						c17.2,2.3,35.17,3.3,52.37,1.21C432.54,202.7,432.39,201.66,431.69,201.68L431.69,201.68z"/>
				</g>
				<g>
					<path class="st15" d="M378.73,163.36c-2.31,5.63-2.47,12.36-2.36,18.41c0.11,6.82,1.34,13.51,3.41,19.99
						c0.57,1.71,3.2,0.65,2.63-1.06c-1.91-5.97-3.15-12.12-3.59-18.35c-0.47-6.39,0.58-12.47,0.93-18.77
						C379.72,163.12,378.97,162.81,378.73,163.36L378.73,163.36z"/>
				</g>
				<g>
					<path class="st15" d="M426.69,203.19c0.26,2.47,2.63,4.34,5.1,4.07c2.47-0.26,4.34-2.63,4.07-5.1
						c-0.26-2.47-2.63-4.34-5.1-4.07C428.29,198.35,426.43,200.72,426.69,203.19L426.69,203.19z"/>
				</g>
				<g>
					<path class="st15" d="M439.09,180.85c0.31,2.56,2.68,4.43,5.22,4.19c2.56-0.31,4.43-2.68,4.19-5.22
						c-0.31-2.56-2.68-4.43-5.22-4.19C440.74,175.87,438.85,178.31,439.09,180.85L439.09,180.85z"/>
				</g>
				<g>
					<path class="st15" d="M434.12,167.87c-0.92-0.28-1.25-0.45-2.21-0.35c-0.95,0.1-1.27,0.39-2.1,0.83
						c-0.23,0.24-0.54,0.53-0.77,0.77c-0.47,0.55-0.76,1.24-0.9,1.97c-0.21,1.48,0.4,3.05,1.57,4.02c1.8,1.46,4.52,1.12,5.98-0.67
						c0.72-0.86,1.06-1.99,0.93-3.11c-0.07-0.79-0.35-1.41-0.83-2.1C435.36,168.62,434.78,168.22,434.12,167.87L434.12,167.87z"/>
				</g>
				<g>
					<path class="st15" d="M432.77,152.04c0.28,2.4,2.46,4.13,4.84,3.92c2.4-0.28,4.13-2.46,3.92-4.84
						c-0.28-2.4-2.46-4.13-4.84-3.92C434.22,147.47,432.49,149.65,432.77,152.04L432.77,152.04z"/>
				</g>
				<g>
					<path class="st15" d="M394.08,138.9c0.69,5.91,9.87,4.89,9.17-1.03C402.58,131.89,393.41,132.91,394.08,138.9L394.08,138.9z"/>
				</g>
				<g>
					<path class="st15" d="M383.75,162.55c0,0,0.02-0.07-0.05-0.09c-0.1-0.95-0.45-1.83-1.06-2.63c-0.27-0.39-0.63-0.73-1.01-1
						c0.57,0.4-0.91-0.58-1.24-0.76c-1.85-0.79-3.99-0.58-5.66,0.62c-1.6,1.22-2.5,3.18-2.25,5.18c0.25,2,1.51,3.69,3.34,4.55
						c1.85,0.79,4.06,0.6,5.66-0.62c0.8-0.61,1.41-1.35,1.75-2.25C383.71,164.47,383.85,163.51,383.75,162.55L383.75,162.55z"/>
				</g>
				<path class="st17" d="M372.61,182.73c0,0,0.91,12.92,4.92,21.91c3.99,9.06,27.06,9.51,27.06,9.51L372.61,182.73z"/>
			</g>
		</g>
	</g>
	<g>
		<g>
			<path class="st3" d="M371.28,515.92c0,0-0.02-0.04-0.05-0.11C370.46,515.44,371.28,515.92,371.28,515.92z"/>
			<path class="st3" d="M524.27,449.93c-2.73-5.89-6.56-11.22-11.19-15.73c10.02-31.11-7.96-70.46-41.41-77.12
				c1.12-20.51-7.15-41.55-24.3-53.74c-6.53-4.64-14.08-7.42-22.02-8.3c-0.61-0.07-1.11,0.04-1.51,0.27
				c-1.35-1.47-1.75-2.85-1.75-2.85s-4.71-9.63-19.11-18.44c-14.4-8.8-30.66-4.19-35.78-2.87c-0.57,0.15-1.07,0.23-1.52,0.27
				c-8.18-33.17-48.15-50.11-79.19-39.57c-9.14,3.1-17.46,8.17-24.73,14.48c-24.3-10.64-53.28-2.95-68.36,19.23
				c-0.27,0.4-0.42,0.8-0.46,1.19c-1.49,0.36-2.59,0.31-2.59,0.31s0.76-2.2-19.61,2.92c-20.37,5.12-25.27,23.43-27.21,28.52
				c-0.16,0.41-0.33,0.78-0.52,1.12c-0.56-0.38-1.28-0.56-2.11-0.4c-28.29,5.51-47.22,33.07-42.69,61.35
				c-27.44,11-42.27,39.61-42.75,68.2c0,0-0.01,0.01-0.01,0.01c-17.13,16.56-22.78,41.97-13.14,63.92
				c8.55,19.48,27.77,32.66,48.63,35.41c14.53,1.92,29.38-1.11,41.99-8.6c0.52-0.31,0.87-0.71,1.08-1.14
				c0.78,0.2,1.26,0.41,1.26,0.41s11.38,3.56,20.71,4.96c9.33,1.4,21.83,1.24,30.92-4.48c9.08-5.72,11.29-0.84,11.29-0.84
				s10.77,7.33,19.13,12.99c8.36,5.66,21.1,4.94,28.21,3.65c7.11-1.29,24.55-7.89,29.59-15.08c5.04-7.19,7.11-1.71,7.11-1.71
				s6.71,6.97,22.48,13.49c15.77,6.52,30.59,2.1,38.31,0c7.72-2.1,18.16-8.97,22.45-14.36c3.86-4.84,5.46-2.19,5.75-1.59
				c0.7,0.34,2.73,1.39,7.92,4.19c10.88,5.85,24.81,6.68,36.56,5.44c11.75-1.23,22.11-5.1,25.44-8.22c0.91-0.85,1.76-1.39,2.62-1.66
				c-0.05,0.89,0.3,1.82,1.24,2.45c20.89,14.05,49.29,11.76,67.54-5.57C529.37,496.46,534,470.92,524.27,449.93z"/>
		</g>
		<path class="st3" d="M104.59,334.52c0,0,3.35-15.22,15.24-22.84c11.88-7.63,18.89-10.24,18.89-10.24s4.76,0.57,6.7-4.53
			c1.94-5.09,6.84-23.4,27.21-28.52s19.61-2.92,19.61-2.92s5.74,0.25,8.87-4.66c3.13-4.9,15.09-16.16,30.3-17.38
			c15.22-1.22,29.18,2.97,29.18,2.97s2.45,3.75,10.33-3.19c7.88-6.94,19.9-13.92,38.64-12.76c18.74,1.16,30.32,5.29,38.46,13.68
			c8.14,8.4,15.04,18.36,15.04,18.36l0.94,4.83c0,0-0.05,3.55,5.08,2.23c5.13-1.32,21.38-5.94,35.78,2.87
			c14.4,8.8,19.11,18.44,19.11,18.44s1.28,4.37,6.89,5.87c5.6,1.5,26.94,9.09,33.46,26.84c6.51,17.74,6.56,25.21,6.56,25.21
			l0.07,5.24c0,0,0.05,2.42,4.87,4.81c4.83,2.38,21.98,6.2,30.79,24.39c8.8,18.19,9.76,28.53,8.49,35.76
			c-1.26,7.23-4.46,14.07-1.62,16.02c2.84,1.95,15.63,18.1,15.05,34.51c-0.58,16.41-6.42,28.09-12.16,35.24
			c-5.74,7.15-13.36,14.27-27.32,16.85c-13.96,2.58-30.9-0.63-35.48-4.39c-4.58-3.76-7.21-4.71-10.55-1.58
			c-3.33,3.12-13.69,6.99-25.44,8.22c-11.75,1.23-25.68,0.4-36.56-5.44c-10.87-5.85-7.87-4.08-7.87-4.08s-1.51-3.91-5.8,1.48
			c-4.3,5.39-14.73,12.27-22.45,14.36c-7.72,2.1-22.55,6.52-38.31,0c-15.77-6.52-22.48-13.49-22.48-13.49s-2.07-5.48-7.11,1.71
			c-5.04,7.19-22.49,13.8-29.59,15.08c-7.11,1.29-19.85,2.01-28.21-3.65c-8.36-5.66-21.34-17.87-30.42-12.15
			c-9.08,5.72-21.59,5.88-30.92,4.48c-9.33-1.4-20.71-4.96-20.71-4.96s-4.95-2.24-9.05,1.21c-4.11,3.45-35.04,11.67-53.3,0
			c-18.26-11.67-29.27-23.51-31.84-40.6c-2.57-17.08,0.73-26.98,5.4-34.31c4.67-7.34,7.52-10.82,7.52-10.82s3.66-2.76,4.25-9.04
			c0.58-6.28,3.37-30.64,15.45-42.6c12.08-11.96,20.14-17.05,20.14-17.05s7.38-0.7,6.89-6.64
			C102.13,351.4,104.19,338.44,104.59,334.52z"/>
		<g>
			<path class="st4" d="M378.94,482.42c3.52-1.79,7.31-1.83,11.12-1.03c4,0.83,8.38,2.38,11.29,5.37c5.87,6.03,6.17,15.3,5.84,23.19
				c-0.11,2.69,4.07,3.23,4.18,0.51c0.39-9.45-0.23-20.12-7.49-27.1c-3.48-3.35-8.32-5.06-12.96-6.08
				c-4.57-1.01-9.41-0.87-13.64,1.27C374.87,479.76,376.51,483.65,378.94,482.42L378.94,482.42z"/>
		</g>
		<g>
			<path class="st4" d="M171.14,504.79c-1.79-3.52-1.83-7.31-1.03-11.12c0.83-4,2.38-8.38,5.37-11.29
				c6.03-5.87,15.3-6.17,23.19-5.84c2.69,0.11,3.23-4.07,0.51-4.18c-9.45-0.39-20.12,0.23-27.1,7.49
				c-3.35,3.48-5.06,8.32-6.08,12.96c-1.01,4.57-0.87,9.41,1.27,13.64C168.49,508.86,172.37,507.21,171.14,504.79L171.14,504.79z"/>
		</g>
		<circle class="st0" cx="282.03" cy="411.85" r="121"/>
		<path class="st3" d="M343.32,327.6c-0.77-1.48-2.22-1.65-3.38-1.09c-1.4-3.34-2.67-6.6-2.51-7.41c0.34-1.75-0.46-5.44-0.46-5.44
			s-12.9,0.76-17.54,0c-4.64-0.76-21.58-5.7-24.3-7.56c-2.72-1.86-4.87-3.5-6.72,0c-1.84,3.5-4.17,6.69-14.25,12.8
			c-10.08,6.11-14.05,8.34-17.64,8.43c-3.59,0.1-12.14-1.18-12.14-1.18s-0.03-0.01-0.09-0.01c-0.81-2.58-5.31-2.27-5.39,0.94
			c-0.42,15.69,6.57,34.41,22.96,39.08c9.52,2.71,24.01,1.63,26.68-10.01c0.04-0.18,0.08-0.37,0.11-0.56
			c1.48,0.38,2.98,0.68,4.48,0.89c6.6,0.92,14.08,0.22,19.44-4.11c1.34-1.09,2.44-2.38,3.3-3.81c5.12,3.52,11.39,5.8,17.64,4.68
			c7.25-1.31,12.1-7.38,12.48-14.61C346.2,334.77,345.09,331,343.32,327.6z"/>
		<path class="st3" d="M196.68,353.62c0,0,29.64,19.21,64.04-16.82c0,0,34.3-35.55-8.27-36.02
			C209.89,300.31,194.47,335.37,196.68,353.62z"/>
		<path class="st3" d="M328.8,335.73c0,0,6.15,37.29,54.56,37.44c0,0,29.89-34.95,2.99-58.19
			C359.44,291.74,328.8,307.61,328.8,335.73z"/>
		<path class="st3" d="M308.35,282.46l-34.19,36.45c0,0-8.45,13.11-35.26,8.18c0,0-9.96,12.53-35.73,22.33
			c0,0,16.23,49.52-41.85,53.21C161.32,402.63,138.7,270.02,308.35,282.46z"/>
		<path class="st3" d="M383.36,373.17c0,0-20.05,48.51,4.27,56.96c24.31,8.46,69.44-1.09,44.4-42.15
			C406.98,346.93,383.36,373.17,383.36,373.17z"/>
		<path class="st3" d="M175.38,373.17c0,0,20.05,48.51-4.27,56.96c-24.31,8.46-69.44-1.09-44.4-42.15S175.38,373.17,175.38,373.17z"
			/>
		<path class="st3" d="M279.52,276.18c0,0,8.04,52.35,76.25,33.52C355.77,309.7,344.75,248.36,279.52,276.18z"/>
		<path class="st3" d="M338.09,295.04c0,0-19.37,45.46,31.53,56.33c0,0-15.16,64.23,68.49,50.12
			C438.12,401.5,445.18,268.8,338.09,295.04z"/>
		<g>
			<path class="st4" d="M287.25,302.03c-4.65,8.02-11.89,14.37-20.32,18.21c-9.79,4.47-20.71,4.51-30.83,1.12
				c-3.38-1.13-4.82,4.2-1.47,5.32c11.32,3.79,23.38,3.46,34.32-1.34c9.55-4.19,17.82-11.51,23.06-20.53
				C293.8,301.74,289.03,298.96,287.25,302.03L287.25,302.03z"/>
		</g>
		<g>
			<path class="st4" d="M273.69,271.15c-0.21,5.7,1.2,11.77,3.29,17.02c4.74,11.91,14.19,20.58,26.27,24.81
				c10.51,3.68,22,3.95,32.98,2.92c3.51-0.33,3.54-5.85,0-5.52c-15.55,1.45-33.45,0.34-45.38-11.04
				c-6.44-6.14-10.04-14.32-11.32-23.02c-0.11-0.76,0.07,0.59-0.02-0.15c-0.03-0.21-0.05-0.42-0.07-0.63
				c-0.04-0.38-0.08-0.76-0.11-1.15c-0.05-0.57-0.08-1.13-0.11-1.7c-0.02-0.52-0.04-1.03-0.02-1.55
				C279.34,267.6,273.83,267.61,273.69,271.15L273.69,271.15z"/>
		</g>
		<g>
			<path class="st4" d="M427.55,399.76c-15.51,7.44-34.46,4.2-46.42-8.19c-11.09-11.49-14.1-29.28-7.03-43.68
				c4.17-8.48,11.14-14.99,19.7-18.91c3.22-1.48,0.42-6.24-2.78-4.76c-17.44,8.01-28.3,26.63-25.94,45.8
				c2.16,17.54,14.89,32.33,31.79,37.39c11.12,3.33,23.05,2.12,33.46-2.88C433.54,402.99,430.74,398.23,427.55,399.76L427.55,399.76
				z"/>
		</g>
		<g>
			<path class="st4" d="M407.57,408.49c-0.8-1.02,0.2,0.29,0.45,0.64c0.72,1.02,1.4,2.07,2.06,3.14c2.18,3.55,4.07,7.29,5.55,11.18
				c4.35,11.41,5.38,23.87,1.08,35.48c-3.34,9.03-9.68,16.52-16.9,22.73c-2.7,2.32,1.22,6.21,3.9,3.9
				c12.65-10.87,21.45-25.65,21.32-42.67c-0.08-11.22-3.73-22.31-9.34-31.96c-1.28-2.19-2.66-4.34-4.23-6.33
				C409.28,401.8,405.4,405.73,407.57,408.49L407.57,408.49z"/>
		</g>
		<g>
			<path class="st4" d="M369.62,351.38c-11.66-3.82-21.54-12.41-26.32-23.8c-4.7-11.2-4.04-24.25,1.75-34.92
				c11.9-21.94,41.12-28.98,62.08-15.75c11.3,7.14,18.62,19.36,19.37,32.72c0.2,3.53,5.72,3.55,5.52,0
				c-0.75-13.44-7.11-25.94-17.69-34.33c-10.84-8.6-24.83-12.13-38.49-10.11c-27.85,4.13-47.5,32.45-39.26,59.9
				c4.54,15.14,16.68,26.74,31.57,31.62C371.54,357.8,372.99,352.48,369.62,351.38L369.62,351.38z"/>
		</g>
		<g>
			<path class="st4" d="M371.04,302.91c12.21-10.66,29.84-12.2,43.63-3.68c13.33,8.24,20.53,23.86,19.68,39.31
				c-0.54,9.88-4.53,19.36-11.25,26.62c-2.41,2.6,1.48,6.52,3.9,3.9c13.4-14.5,16.49-35.98,8.47-53.91
				c-6.79-15.18-21.68-26.27-38.47-27c-11.04-0.48-21.6,3.64-29.86,10.86C364.46,301.35,368.37,305.24,371.04,302.91L371.04,302.91z
				"/>
		</g>
		<path class="st3" d="M424.96,392.11c0,0,24.67,7.24,23.32,44.45c-1.35,37.22-14.84,47.65-19.34,58.2
			c-4.5,10.55,17.12,22.38,31.51,7.55c14.39-14.83,27.56-46.73,20.46-76.01s-16.29-37.16-32.63-47.82
			C431.94,367.82,411.26,378.16,424.96,392.11z"/>
		<g>
			<path class="st4" d="M399.86,369.95c19.63-2.5,39.32,3.37,54.24,16.43c14.28,12.51,23.46,30.37,25.68,49.21
				c2.29,19.48-2.39,39.42-13.64,55.55c-10.6,15.2-26.88,26.11-45.16,29.43c-24.12,4.38-38.07,2.77-53.97-15.49
				c-2.34-2.68-6.23,1.23-3.9,3.9c15.33,17.6,27.88,19.69,51.34,17.93c19.78-1.48,38.24-11.14,51.15-26.14
				c27.61-32.08,26.73-82.5-2.41-113.33c-16.24-17.18-39.78-26.02-63.31-23.03C396.39,364.88,396.35,370.4,399.86,369.95
				L399.86,369.95z"/>
		</g>
		<path class="st3" d="M91.1,428.05c0,0,9.89-36.31,29.92-48.01c20.03-11.7,28.94-14.4,37.22-14.88s15.51,1.37,13.96,5.77
			s-28.17,10.74-33.34,27.47c-5.17,16.73-15.51,45.04-4.39,66.55c11.11,21.51,19.38,43.48,11.63,45.03
			c-7.75,1.55-46.39-11.79-52.53-41.17C87.42,439.41,89.04,436.56,91.1,428.05z"/>
		<g>
			<g>
				<path class="st4" d="M142.46,402.56c17.61,8.45,39.07,5.26,52.86-8.8c12.91-13.15,16.28-33.24,8.48-49.92
					c-4.47-9.54-12.47-17.22-22.02-21.6c-3.2-1.47-6.01,3.28-2.78,4.76c15.43,7.08,25.07,22.85,23.34,39.91
					c-1.55,15.22-12.68,28.37-27.16,32.98c-9.85,3.13-20.6,2.37-29.92-2.1C142.05,396.27,139.25,401.03,142.46,402.56L142.46,402.56
					z"/>
			</g>
			<g>
				<path class="st4" d="M161.32,402.63c-12.1,15.38-17.49,37.92-10.31,56.46c3.74,9.66,10.25,17.78,18.06,24.5
					c2.68,2.3,6.6-1.58,3.9-3.9c-11.85-10.19-20.1-23.7-19.69-39.69c0.26-10.06,3.68-19.92,8.75-28.55
					c0.78-1.32,1.59-2.62,2.46-3.87c0.29-0.42,1.51-2.03,0.73-1.04C167.4,403.77,163.52,399.84,161.32,402.63L161.32,402.63z"/>
			</g>
			<g>
				<path class="st4" d="M204.64,354.74c13.15-4.31,24.26-13.82,29.74-26.63c5.43-12.7,4.85-27.33-1.54-39.57
					c-13.08-25.07-46.65-33.37-70.27-18.17c-12.84,8.26-20.94,22.05-21.79,37.28c-0.2,3.55,5.32,3.54,5.52,0
					c1.41-25.09,25.52-42.9,49.95-38.99c24.45,3.91,41.82,28.3,34.75,52.63c-3.9,13.42-14.66,23.82-27.83,28.13
					C199.81,350.52,201.25,355.85,204.64,354.74L204.64,354.74z"/>
			</g>
			<g>
				<path class="st4" d="M205.66,297.05c-14.04-12.26-34.34-14.41-50.31-4.54c-15.04,9.29-23.54,27-22.39,44.53
					c0.74,11.22,5.2,21.81,12.84,30.07c2.42,2.61,6.31-1.3,3.9-3.9c-11.63-12.58-14.51-31.59-7.61-47.23
					c5.87-13.29,18.57-23.44,33.34-24.25c9.68-0.53,19.05,2.86,26.33,9.22C204.42,303.28,208.34,299.39,205.66,297.05L205.66,297.05
					z"/>
			</g>
			<g>
				<path class="st4" d="M172.93,362.47c-19.2-2.45-38.64,2.91-53.99,14.67c-14.68,11.25-25.08,27.58-29.49,45.52
					c-9.02,36.64,7.34,77.96,41.87,94.94c21.36,10.5,46.52,9.8,67.43-1.53c3.12-1.69,0.34-6.46-2.78-4.76
					c-17.63,9.55-38.64,10.94-57.3,3.56c-15.7-6.21-28.6-18.41-36.63-33.15c-17.02-31.22-10.84-72.29,15.59-96.34
					c15.04-13.68,35.16-19.95,55.31-17.39C176.44,368.44,176.41,362.92,172.93,362.47L172.93,362.47z"/>
			</g>
		</g>
		<g>
			<g>
				<path class="st5" d="M154.63,305.78c-12.1,10.7-14.9,28.9-7.32,43.02c1.68,3.13,6.45,0.35,4.76-2.78
					c-6.48-12.05-3.78-27.28,6.45-36.33C161.2,307.33,157.28,303.44,154.63,305.78L154.63,305.78z"/>
			</g>
			<g>
				<path class="st5" d="M177.17,298.15c-4.55-0.39-9.21,0.32-13.44,2.04c-0.69,0.28-1.26,0.6-1.65,1.27
					c-0.35,0.59-0.49,1.46-0.28,2.13c0.42,1.28,1.96,2.51,3.39,1.93c1.95-0.79,3.97-1.38,6.04-1.71c0.11-0.02,0.23-0.04,0.34-0.05
					c-0.35,0.04-0.37,0.05-0.05,0.01c0.23-0.03,0.46-0.05,0.69-0.07c0.54-0.05,1.09-0.09,1.63-0.1c1.11-0.04,2.21,0,3.31,0.09
					c1.44,0.12,2.82-1.36,2.76-2.76C179.86,299.31,178.71,298.28,177.17,298.15L177.17,298.15z"/>
			</g>
			<g>
				<path class="st5" d="M270.09,360.54c1.77,0.14,3.55,0.14,5.32,0.04c0.73-0.04,1.42-0.28,1.95-0.81
					c0.48-0.48,0.84-1.26,0.81-1.95c-0.03-0.71-0.27-1.45-0.81-1.95c-0.52-0.48-1.22-0.85-1.95-0.81c-1.77,0.1-3.55,0.1-5.32-0.04
					c-0.67-0.05-1.49,0.34-1.95,0.81c-0.48,0.48-0.84,1.26-0.81,1.95c0.03,0.71,0.27,1.45,0.81,1.95
					C268.71,360.25,269.33,360.49,270.09,360.54L270.09,360.54z"/>
			</g>
			<g>
				<path class="st5" d="M246.2,336.16c0.01,6.34,2.86,13.1,7.35,17.52c2.35,2.31,5.15,3.95,8.21,5.14
					c1.39,0.54,3.03-0.59,3.39-1.93c0.43-1.56-0.53-2.85-1.93-3.39c-0.18-0.07-0.36-0.14-0.53-0.21c0.06,0.02,0.3,0.13,0.02,0
					c-0.29-0.13-0.58-0.27-0.87-0.41c-0.55-0.28-1.09-0.58-1.61-0.9c-0.5-0.31-0.98-0.64-1.45-1c0.41,0.31-0.18-0.15-0.29-0.25
					c-0.24-0.2-0.48-0.41-0.71-0.63c-0.39-0.37-0.77-0.75-1.13-1.15c-0.15-0.17-0.3-0.34-0.44-0.51c-0.1-0.11-0.19-0.23-0.28-0.34
					c-0.26-0.31,0.26,0.36,0.03,0.04c-0.61-0.82-1.16-1.67-1.65-2.57c-0.21-0.38-0.4-0.77-0.59-1.16c-0.1-0.2-0.19-0.41-0.28-0.62
					c-0.07-0.14-0.18-0.49,0.05,0.13c-0.04-0.12-0.1-0.23-0.14-0.35c-0.29-0.77-0.56-1.55-0.79-2.34c-0.2-0.71-0.37-1.44-0.52-2.17
					c-0.06-0.3-0.11-0.61-0.16-0.91c-0.02-0.12-0.03-0.24-0.05-0.36c-0.01-0.06,0.09,0.76,0.03,0.18c-0.06-0.6-0.13-1.21-0.14-1.82
					c0-1.49-1.27-2.76-2.76-2.76C247.46,333.4,246.19,334.66,246.2,336.16L246.2,336.16z"/>
			</g>
			<g>
				<path class="st5" d="M292.02,351.03c2.45,0.5,5.03,0.67,7.53,0.52c0.73-0.04,1.42-0.28,1.95-0.81c0.48-0.48,0.84-1.26,0.81-1.95
					c-0.03-0.71-0.27-1.45-0.81-1.95c-0.52-0.48-1.22-0.85-1.95-0.81c-1.84,0.11-3.69,0.02-5.51-0.22c0.24,0.03,0.49,0.07,0.73,0.1
					c-0.43-0.06-0.86-0.12-1.28-0.21c-0.73-0.15-1.47-0.11-2.13,0.28c-0.57,0.33-1.12,0.99-1.27,1.65c-0.16,0.71-0.13,1.5,0.28,2.13
					C290.74,350.35,291.32,350.89,292.02,351.03L292.02,351.03z"/>
			</g>
			<g>
				<path class="st5" d="M230.37,248.01c-6.53,0.88-12.85,3.26-18.36,6.88c-1.24,0.82-1.77,2.44-0.99,3.77
					c0.72,1.24,2.52,1.81,3.77,0.99c5.22-3.43,10.77-5.48,17.04-6.32c1.44-0.19,2.34-2.11,1.93-3.39
					C233.25,248.36,231.91,247.81,230.37,248.01L230.37,248.01z"/>
			</g>
			<g>
				<path class="st5" d="M247.98,249.36c-2.56-0.59-5.17-0.98-7.79-1.22c-0.67-0.06-1.49,0.35-1.95,0.81
					c-0.48,0.48-0.84,1.26-0.81,1.95c0.03,0.71,0.27,1.45,0.81,1.95c0.57,0.52,1.19,0.74,1.95,0.81c0.78,0.07,1.55,0.16,2.33,0.26
					c-0.24-0.03-0.49-0.07-0.73-0.1c1.59,0.22,3.17,0.5,4.73,0.86c0.72,0.16,1.48,0.1,2.13-0.28c0.57-0.33,1.12-0.99,1.27-1.65
					C250.22,251.35,249.48,249.71,247.98,249.36L247.98,249.36z"/>
			</g>
			<g>
				<path class="st5" d="M287.96,287.35c3.65,6.72,9.38,12.08,16.27,15.38c1.3,0.62,3.04,0.4,3.77-0.99
					c0.65-1.23,0.4-3.11-0.99-3.77c-1.8-0.86-3.54-1.86-5.18-3c-0.17-0.12-0.34-0.24-0.5-0.36c-0.07-0.05-0.65-0.48-0.4-0.3
					c0.27,0.21-0.24-0.19-0.29-0.23c-0.19-0.15-0.37-0.3-0.55-0.45c-0.68-0.57-1.34-1.17-1.97-1.79c-0.58-0.57-1.14-1.17-1.67-1.79
					c-0.26-0.3-0.52-0.61-0.76-0.91c-0.16-0.2-0.38-0.49-0.1-0.11c-0.13-0.17-0.25-0.34-0.38-0.51c-0.92-1.25-1.74-2.58-2.49-3.94
					c-0.69-1.27-2.55-1.78-3.77-0.99C287.66,284.41,287.23,285.99,287.96,287.35L287.96,287.35z"/>
			</g>
			<g>
				<path class="st5" d="M283.56,274.01c0.32,2.18,0.81,4.32,1.48,6.42c0.22,0.68,0.65,1.28,1.27,1.65
					c0.59,0.35,1.46,0.49,2.13,0.28c0.67-0.22,1.31-0.63,1.65-1.27c0.34-0.64,0.5-1.41,0.28-2.13c-0.67-2.1-1.16-4.24-1.48-6.42
					c-0.09-0.64-0.74-1.34-1.27-1.65c-0.59-0.35-1.46-0.49-2.13-0.28c-0.67,0.22-1.31,0.63-1.65,1.27
					c-0.09,0.22-0.19,0.44-0.28,0.66C283.43,273.03,283.43,273.52,283.56,274.01L283.56,274.01z"/>
			</g>
			<g>
				<g>
					<path class="st5" d="M113.54,348.78c-0.38-6.95,1.67-13.86,6.03-19.27c0.93-1.16,1.13-2.77,0-3.9c-0.97-0.97-2.96-1.17-3.9,0
						c-5.3,6.56-8.11,14.71-7.64,23.17c0.08,1.49,1.21,2.76,2.76,2.76C112.21,351.54,113.62,350.28,113.54,348.78L113.54,348.78z"/>
				</g>
				<g>
					<path class="st5" d="M117.39,361.15c-0.71-1.2-1.34-2.45-1.89-3.74c0.09,0.22,0.19,0.44,0.28,0.66
						c-0.36-0.87-0.69-1.75-0.97-2.65c-0.22-0.68-0.65-1.28-1.27-1.65c-0.59-0.35-1.46-0.49-2.13-0.28
						c-0.67,0.22-1.31,0.63-1.65,1.27c-0.34,0.64-0.5,1.41-0.28,2.13c0.78,2.45,1.83,4.83,3.14,7.05c0.35,0.6,0.98,1.08,1.65,1.27
						c0.66,0.18,1.54,0.1,2.13-0.28C117.65,364.12,118.17,362.48,117.39,361.15L117.39,361.15z"/>
				</g>
			</g>
			<g>
				<g>
					<path class="st5" d="M72.44,435.79c-0.24-2.58-0.28-5.16-0.12-7.75c0.09-1.44-1.33-2.82-2.76-2.76
						c-1.57,0.07-2.66,1.21-2.76,2.76c-0.16,2.58-0.12,5.17,0.12,7.75c0.07,0.75,0.26,1.4,0.81,1.95c0.48,0.48,1.26,0.84,1.95,0.81
						c0.71-0.03,1.45-0.27,1.95-0.81C72.1,437.23,72.51,436.51,72.44,435.79L72.44,435.79z"/>
				</g>
				<g>
					<path class="st5" d="M76.93,453.83c-0.2-0.43-0.4-0.87-0.59-1.31c-0.12-0.28-0.11-0.25,0.04,0.09
						c-0.05-0.13-0.11-0.25-0.16-0.38c-0.08-0.19-0.15-0.38-0.23-0.58c-0.37-0.94-0.7-1.9-1-2.86c-0.6-1.94-1.07-3.91-1.41-5.91
						c-0.25-1.43-2.07-2.35-3.39-1.93c-1.54,0.5-2.19,1.87-1.93,3.39c0.73,4.26,2.07,8.36,3.91,12.27c0.62,1.31,2.6,1.75,3.77,0.99
						C77.29,456.74,77.59,455.23,76.93,453.83L76.93,453.83z"/>
				</g>
			</g>
			<g>
				<g>
					<path class="st5" d="M98.9,428.42c-5.73,27.59,5.04,56.92,29.05,72.33c3,1.92,5.77-2.85,2.78-4.76
						c-21.84-14.01-31.73-41.01-26.52-66.1C104.95,426.42,99.63,424.94,98.9,428.42L98.9,428.42z"/>
				</g>
				<g>
					<path class="st5" d="M106.21,409.24c-1.62,2.87-3.01,5.87-4.21,8.94c-0.25,0.63-0.05,1.57,0.28,2.13
						c0.33,0.57,0.99,1.12,1.65,1.27c0.71,0.16,1.5,0.13,2.13-0.28c0.64-0.41,0.99-0.94,1.27-1.65c0.21-0.53,0.43-1.07,0.65-1.6
						c-0.09,0.22-0.19,0.44-0.28,0.66c0.97-2.29,2.07-4.52,3.29-6.68c0.71-1.26,0.34-3.07-0.99-3.77
						C108.68,407.56,106.96,407.9,106.21,409.24L106.21,409.24z"/>
				</g>
			</g>
			<g>
				<g>
					<path class="st5" d="M514.1,478.75c-3.35,16.04-17.37,27.76-33.82,27.87c-3.55,0.02-3.56,5.54,0,5.52
						c18.77-0.13,35.29-13.51,39.14-31.92C520.15,476.75,514.83,475.27,514.1,478.75L514.1,478.75z"/>
				</g>
				<g>
					<path class="st5" d="M513.84,464.1c0.28,1.21,0.51,2.44,0.67,3.68c-0.03-0.24-0.07-0.49-0.1-0.73
						c0.21,1.65,0.32,3.31,0.33,4.97c0,1.44,1.27,2.83,2.76,2.76c1.49-0.07,2.76-1.21,2.76-2.76c-0.01-3.15-0.38-6.31-1.1-9.38
						c-0.33-1.41-2.01-2.37-3.39-1.93C514.3,461.19,513.49,462.6,513.84,464.1L513.84,464.1z"/>
				</g>
			</g>
			<g>
				<path class="st5" d="M463.97,427.03c8.83,29.91-5.51,64.58-35.97,75.02c-3.34,1.14-1.91,6.48,1.47,5.32
					c33.26-11.4,49.54-48.88,39.82-81.81C468.29,422.17,462.96,423.62,463.97,427.03L463.97,427.03z"/>
			</g>
			<g>
				<path class="st5" d="M448.53,401.53c1.82,1.78,3.53,3.67,5.12,5.66c0.09,0.11,0.18,0.23,0.27,0.34
					c0.04,0.05,0.35,0.41,0.12,0.15c-0.26-0.29,0.13,0.17,0.18,0.24c0.09,0.12,0.17,0.23,0.26,0.35c0.39,0.52,0.77,1.05,1.14,1.59
					c0.75,1.07,1.46,2.17,2.14,3.29c0.75,1.23,2.51,1.81,3.77,0.99c1.24-0.8,1.79-2.46,0.99-3.77c-2.82-4.63-6.21-8.93-10.09-12.72
					c-1.03-1.01-2.89-1.11-3.9,0C447.53,398.72,447.43,400.45,448.53,401.53L448.53,401.53z"/>
			</g>
			<g>
				<path class="st5" d="M418.55,314.55c9.23,11.61,9.6,28.32,1.36,40.51c-1.99,2.95,2.78,5.71,4.76,2.78
					c9.74-14.4,8.5-33.72-2.22-47.2C420.24,307.87,416.36,311.8,418.55,314.55L418.55,314.55z"/>
			</g>
			<g>
				<path class="st5" d="M402.93,304.09c0.87,0.24,1.74,0.52,2.59,0.83c0.36,0.13,0.74,0.35,1.11,0.43c-0.4-0.17-0.46-0.2-0.19-0.08
					c0.1,0.04,0.21,0.09,0.31,0.14c0.21,0.09,0.41,0.19,0.62,0.28c1.59,0.75,3.11,1.63,4.56,2.62c1.19,0.82,3.11,0.26,3.77-0.99
					c0.74-1.4,0.28-2.9-0.99-3.77c-3.14-2.15-6.65-3.77-10.31-4.79c-1.39-0.38-3.06,0.48-3.39,1.93
					C400.67,302.16,401.44,303.68,402.93,304.09L402.93,304.09z"/>
			</g>
		</g>
		<polygon class="st7" points="280.59,428.04 269.33,452.83 292.46,452.83 		"/>
		
			<ellipse transform="matrix(0.8977 -0.4407 0.4407 0.8977 -180.1941 112.0941)" class="st0" cx="151.26" cy="444.04" rx="26.25" ry="31.72"/>
		
			<ellipse transform="matrix(0.4407 -0.8977 0.8977 0.4407 -170.1202 615.0589)" class="st0" cx="408.49" cy="444.04" rx="31.72" ry="26.25"/>
		<path class="st4" d="M177.43,410.25c0,0-1.53-51.1,48.98-51.1c26.86,0,40,38.83,40,38.83s-12.71-39.72-47.62-32.95
			C182.27,372.12,177.43,410.25,177.43,410.25z"/>
		<path class="st4" d="M381.16,416.53c0,0,1.09-57-39.15-57c-42.62,0-44.46,38.45-44.46,38.45s9.04-37.74,47.62-32.95
			C382.1,369.62,381.16,416.53,381.16,416.53z"/>
		<ellipse class="st6" cx="338.88" cy="410.25" rx="42.28" ry="46.84"/>
		<ellipse class="st6" cx="222.71" cy="410.25" rx="45.28" ry="46.84"/>
		<ellipse cx="227.87" cy="411.85" rx="31.4" ry="39.38"/>
		<ellipse cx="334.69" cy="410.25" rx="32.07" ry="39.38"/>
		<path class="st0" d="M179.15,442.96c0,0,49.39-18.68,79.34,6.65C258.49,449.61,205.78,498.13,179.15,442.96z"/>
		<path class="st0" d="M384.91,442.96c0,0-49.39-18.68-79.34,6.65C305.57,449.61,358.29,498.13,384.91,442.96z"/>
		<path d="M237.54,347.23c0,0-25.51-46.51-59.19,2C178.36,349.23,203.27,320.08,237.54,347.23z"/>
		<path d="M309.29,347.23c0,0,25.51-46.51,59.19,2C368.47,349.23,343.56,320.08,309.29,347.23z"/>
		<path d="M222.71,457.09c0,0,50.52,17.07,131.33,1.12c0,0-16.39,57.47-64.05,57.47C237.54,515.67,222.71,457.09,222.71,457.09z"/>
		<path class="st8" d="M236.6,486.25c0,0,23.88-9.49,51.78-9.49s51.98,9.49,51.98,9.49s-14.21,31.48-56.25,30.44
			C252.7,515.92,236.6,486.25,236.6,486.25z"/>
		<ellipse class="st8" cx="214.73" cy="451.4" rx="32.42" ry="11.18"/>
		<ellipse class="st8" cx="346.02" cy="451.4" rx="32.42" ry="11.18"/>
	</g>
</g>
</svg>
