<?xml version="1.0" encoding="utf-8"?>
<!-- Generator: Adobe Illustrator 24.0.1, SVG Export Plug-In . SVG Version: 6.00 Build 0)  -->
<svg version="1.1" id="Capa_1" xmlns="http://www.w3.org/2000/svg" xmlns:xlink="http://www.w3.org/1999/xlink" x="0px" y="0px"
	 viewBox="0 0 566.93 566.93" style="enable-background:new 0 0 566.93 566.93;" xml:space="preserve">
<style type="text/css">
	.st0{fill:#F9D6E4;}
	.st1{fill:#45A759;}
	.st2{fill:#15632D;}
	.st3{fill:#F08CA7;}
	.st4{fill:#B52955;}
	.st5{fill:#F6BFD3;}
	.st6{fill:#FFFFFF;}
	.st7{fill:#CD94A9;}
	.st8{fill:#E16874;}
	.st9{fill:#EEEEEE;}
	.st10{fill:#C9C7C7;}
	.st11{clip-path:url(#SVGID_2_);}
	.st12{clip-path:url(#SVGID_2_);fill:#F08CA7;}
	.st13{fill:#CBC9CA;}
	.st14{fill:#E1E0E0;}
	.st15{fill:#B693C3;}
	.st16{fill:#F8DF28;}
	.st17{fill:#65A2D8;}
	.st18{fill:#DEE275;}
	.st19{fill:#FFDB43;}
	.st20{fill:#E75C2A;}
	.st21{fill:#F49D4E;}
	.st22{opacity:0.5;}
	.st23{fill:#F3B0CF;}
	.st24{fill:#704F9A;}
	.st25{fill:#616160;}
	.st26{fill:#5AE4A7;}
	.st27{fill:#FF0000;}
	.st28{fill:#82CEE0;}
	.st29{fill:#9E6D0B;}
	.st30{fill:#828E0C;}
	.st31{fill:#FFFF00;}
	.st32{clip-path:url(#SVGID_4_);}
	.st33{clip-path:url(#SVGID_4_);fill:#F08CA7;}
	.st34{clip-path:url(#SVGID_6_);}
	.st35{clip-path:url(#SVGID_6_);fill:#F08CA7;}
	.st36{fill:none;stroke:#B52955;stroke-width:3;stroke-linecap:round;stroke-linejoin:round;stroke-miterlimit:10;}
</style>
<g>
	<g>
		<path class="st1" d="M331.93,110.36c-12.13-7.48-21.84-18.7-27.34-31.31c-1.33-2.87-2.32-6.3-1.04-9.22
			c2.07-4.4,9.03-5,13.43-2.29c4.4,2.7,6.79,7.54,8.65,12.21C329.48,89.64,331.56,100.03,331.93,110.36z"/>
		<path class="st1" d="M316.37,140.96c-9.95-10.09-16.48-23.06-18.52-36.52c-0.48-3.25-0.58-6.78,1.4-9.2
			c3.15-3.77,10.13-2.74,13.78,0.92c3.65,3.66,4.75,8.87,5.26,13.74C319.39,120.21,318.82,130.77,316.37,140.96z"/>
		<path class="st1" d="M301.89,160.76c-11.24-7.98-19.79-19.21-23.96-31.51c-1.03-2.9-1.76-6.24-0.14-8.91
			c2.37-4.03,9.34-4.22,13.53-1.32c4.19,2.9,6.06,7.57,7.37,12.18C301.49,140.74,302.54,150.77,301.89,160.76z"/>
		<path class="st1" d="M332.66,107.79c3.52-12.91,11.51-24.58,22.5-32.81c2.54-1.96,5.76-3.82,9.05-3.38
			c5.19,0.82,8.15,6.93,6.85,11.6c-1.34,4.79-5.39,8.25-9.49,11.02C352.81,100.12,343.01,104.85,332.66,107.79z"/>
		<path class="st1" d="M318.9,130.12c8.6-10.52,20.71-18.23,34.3-21.82c3.28-0.77,6.95-1.4,9.84,0.25c4.48,2.46,4.8,9.15,1.78,12.97
			c-3.19,3.89-8.34,5.5-13.32,6.63C340.92,130.48,329.9,131.17,318.9,130.12z"/>
		<path class="st1" d="M301.08,158.47c8.6-10.52,20.71-18.23,34.3-21.82c3.28-0.77,6.95-1.4,9.84,0.25
			c4.48,2.46,4.8,9.15,1.78,12.97c-3.19,3.89-8.34,5.5-13.32,6.63C323.11,158.83,312.09,159.52,301.08,158.47z"/>
		<path class="st1" d="M284.79,200.1c-9.26-10-15.19-22.62-16.45-35.41c-0.26-3.04-0.27-6.41,1.92-8.62
			c3.45-3.4,10.32-2.01,13.71,1.56c3.35,3.69,4.11,8.65,4.4,13.32C288.9,180.81,287.68,190.74,284.79,200.1z"/>
		<path class="st1" d="M285.16,193.51c8.6-10.52,20.71-18.23,34.3-21.82c3.28-0.77,6.95-1.4,9.84,0.25
			c4.48,2.46,4.8,9.15,1.78,12.97c-3.19,3.89-8.34,5.5-13.32,6.63C307.19,193.87,296.04,194.51,285.16,193.51z"/>
		<g>
			<path class="st2" d="M337.32,88.14c0.08-0.65-0.91-0.71-0.86-0.02c-5.61,35.18-33.58,59.54-47.16,91.48
				c-6.52,15.39-10.71,31.57-13.28,48.03c-2.77,17.06-5.27,35.02-4.87,52.49c-0.05,2.27,3.33,2.47,3.64,0.29
				c2.72-17.35,2.75-35.21,5.6-52.51c2.89-17.83,7.23-35.7,15.06-51.99C309.24,147.13,335.87,121.64,337.32,88.14L337.32,88.14z"/>
		</g>
		<path class="st1" d="M334.48,97.79c-5.88-15.3-6.48-32.16-2.02-47.44c1.1-3.66,2.83-7.5,6.27-9.16c5.48-2.58,12.64,1.74,14.78,7.3
			c2.14,5.56,0.69,11.52-1.19,17.06C348.26,77.08,342.24,88.06,334.48,97.79z"/>
	</g>
	<g>
		<g>
			<path class="st3" d="M373.99,505.82c0,0-0.02-0.04-0.05-0.11C373.15,505.33,373.99,505.82,373.99,505.82z"/>
			<path class="st3" d="M531.7,437.79c-2.82-6.07-6.76-11.56-11.53-16.22c10.33-32.07-8.21-72.64-42.68-79.49
				c1.16-21.14-7.37-42.83-25.05-55.4c-6.73-4.78-14.51-7.65-22.7-8.55c-0.63-0.07-1.14,0.05-1.55,0.28
				c-1.39-1.52-1.8-2.94-1.8-2.94s-4.85-9.93-19.7-19.01s-31.6-4.31-36.89-2.95c-0.59,0.15-1.1,0.24-1.57,0.28
				c-8.43-34.2-49.64-51.66-81.63-40.79c-9.42,3.2-18,8.42-25.49,14.92c-25.05-10.97-54.93-3.04-70.47,19.83
				c-0.28,0.42-0.43,0.83-0.48,1.22c-1.54,0.37-2.67,0.32-2.67,0.32s0.78-2.26-20.22,3.01c-21,5.28-26.05,24.15-28.05,29.4
				c-0.16,0.42-0.34,0.81-0.54,1.16c-0.58-0.39-1.32-0.58-2.17-0.41c-29.16,5.68-48.67,34.09-44.01,63.24
				c-28.28,11.33-43.58,40.83-44.07,70.3c0,0-0.01,0.01-0.01,0.01c-17.66,17.07-23.48,43.26-13.54,65.89
				c8.82,20.08,28.63,33.66,50.13,36.5c14.98,1.98,30.29-1.14,43.28-8.86c0.54-0.32,0.9-0.73,1.11-1.18c0.81,0.2,1.3,0.42,1.3,0.42
				s11.73,3.67,21.34,5.12c9.61,1.45,22.51,1.28,31.87-4.62c9.36-5.9,11.64-0.87,11.64-0.87s11.1,7.56,19.72,13.39
				c8.62,5.83,21.75,5.09,29.08,3.76c7.33-1.33,25.31-8.13,30.51-15.55c5.2-7.42,7.33-1.77,7.33-1.77s6.92,7.18,23.17,13.9
				c16.25,6.72,31.53,2.16,39.5,0c7.96-2.16,18.72-9.25,23.15-14.81c3.97-4.99,5.63-2.26,5.93-1.64c0.72,0.35,2.81,1.44,8.16,4.32
				c11.21,6.03,25.57,6.88,37.69,5.61c12.11-1.27,22.79-5.26,26.23-8.48c0.93-0.87,1.82-1.43,2.7-1.71
				c-0.05,0.92,0.31,1.87,1.28,2.52c21.53,14.49,50.81,12.12,69.62-5.74C536.95,485.76,541.73,459.43,531.7,437.79z"/>
		</g>
		<path class="st3" d="M99.08,318.82c0,0,3.46-15.68,15.71-23.54c12.25-7.86,19.47-10.55,19.47-10.55s4.91,0.58,6.91-4.67
			c2-5.25,7.05-24.13,28.05-29.4c21-5.28,20.22-3.01,20.22-3.01s5.91,0.25,9.14-4.8c3.23-5.06,15.55-16.66,31.24-17.92
			c15.68-1.26,30.07,3.06,30.07,3.06s2.53,3.87,10.65-3.29c8.13-7.15,20.51-14.35,39.83-13.15c19.32,1.2,31.25,5.45,39.64,14.11
			c8.39,8.66,15.51,18.93,15.51,18.93l0.97,4.98c0,0-0.05,3.66,5.24,2.3c5.29-1.36,22.04-6.12,36.89,2.95
			c14.85,9.07,19.7,19.01,19.7,19.01s1.32,4.51,7.1,6.05c5.78,1.55,27.78,9.37,34.49,27.67c6.71,18.29,6.76,25.99,6.76,25.99
			l0.08,5.4c0,0,0.05,2.5,5.02,4.96c4.97,2.46,22.66,6.39,31.73,25.14c9.07,18.75,10.06,29.41,8.75,36.87s-4.59,14.5-1.67,16.51
			c2.92,2.01,16.11,18.66,15.51,35.58c-0.6,16.92-6.61,28.95-12.53,36.32c-5.92,7.37-13.77,14.71-28.16,17.37
			c-14.39,2.66-31.86-0.65-36.58-4.53c-4.72-3.88-7.44-4.85-10.87-1.63c-3.44,3.22-14.11,7.21-26.23,8.48
			c-12.11,1.27-26.48,0.42-37.69-5.61c-11.21-6.03-8.11-4.2-8.11-4.2s-1.55-4.03-5.98,1.53c-4.43,5.56-15.18,12.65-23.15,14.81
			c-7.96,2.16-23.24,6.72-39.5,0c-16.25-6.72-23.17-13.9-23.17-13.9s-2.14-5.65-7.33,1.77c-5.2,7.42-23.18,14.22-30.51,15.55
			c-7.33,1.33-20.46,2.07-29.08-3.76c-8.62-5.83-21.99-18.42-31.36-12.53c-9.36,5.9-22.25,6.06-31.87,4.62
			c-9.61-1.45-21.34-5.12-21.34-5.12s-5.1-2.31-9.33,1.24c-4.23,3.55-36.12,12.03-54.94,0c-18.83-12.03-30.17-24.24-32.82-41.85
			c-2.65-17.61,0.75-27.81,5.57-35.37c4.82-7.56,7.75-11.16,7.75-11.16s3.78-2.84,4.38-9.32c0.6-6.48,3.48-31.59,15.93-43.92
			c12.45-12.33,20.76-17.58,20.76-17.58s7.61-0.72,7.11-6.85C96.54,336.22,98.66,322.86,99.08,318.82z"/>
		<g>
			<path class="st4" d="M381.88,471.28c3.63-1.84,7.54-1.88,11.46-1.07c4.12,0.86,8.64,2.45,11.63,5.53
				c6.05,6.22,6.36,15.77,6.02,23.9c-0.11,2.77,4.2,3.33,4.31,0.53c0.4-9.74-0.24-20.74-7.73-27.93c-3.59-3.45-8.58-5.21-13.36-6.27
				c-4.71-1.04-9.7-0.9-14.06,1.31C377.68,468.55,379.38,472.55,381.88,471.28L381.88,471.28z"/>
		</g>
		<g>
			<path class="st4" d="M167.68,494.34c-1.84-3.63-1.88-7.54-1.07-11.46c0.86-4.12,2.45-8.64,5.53-11.63
				c6.22-6.05,15.77-6.36,23.9-6.02c2.77,0.11,3.33-4.2,0.53-4.31c-9.74-0.4-20.74,0.24-27.93,7.73c-3.45,3.59-5.21,8.58-6.27,13.36
				c-1.04,4.71-0.9,9.7,1.31,14.06C164.95,498.54,168.95,496.84,167.68,494.34L167.68,494.34z"/>
		</g>
		<circle class="st0" cx="281.99" cy="398.54" r="124.73"/>
		<path class="st3" d="M345.16,311.69c-0.79-1.52-2.29-1.7-3.49-1.13c-1.44-3.44-2.75-6.8-2.59-7.63c0.35-1.8-0.48-5.6-0.48-5.6
			s-13.3,0.79-18.08,0c-4.78-0.79-22.24-5.87-25.05-7.79c-2.81-1.92-5.02-3.6-6.92,0c-1.9,3.6-4.3,6.9-14.69,13.2
			c-10.39,6.29-14.49,8.59-18.18,8.69c-3.7,0.1-12.51-1.21-12.51-1.21s-0.03-0.01-0.09-0.01c-0.83-2.66-5.47-2.34-5.56,0.96
			c-0.43,16.18,6.77,35.47,23.67,40.29c9.81,2.8,24.75,1.68,27.5-10.32c0.04-0.19,0.08-0.38,0.12-0.57c1.53,0.39,3.07,0.7,4.62,0.92
			c6.8,0.95,14.52,0.23,20.04-4.24c1.38-1.12,2.51-2.45,3.4-3.92c5.27,3.63,11.74,5.98,18.18,4.82c7.47-1.35,12.47-7.61,12.87-15.07
			C348.13,319.08,346.99,315.2,345.16,311.69z"/>
		<path class="st3" d="M194,338.52c0,0,30.56,19.8,66.02-17.34c0,0,35.36-36.65-8.52-37.14C207.62,283.56,191.73,319.7,194,338.52z"
			/>
		<path class="st3" d="M330.19,320.07c0,0,6.34,38.43,56.24,38.59c0,0,30.81-36.02,3.08-59.98S330.19,291.08,330.19,320.07z"/>
		<path class="st3" d="M309.12,265.16l-35.25,37.57c0,0-8.71,13.51-36.35,8.43c0,0-10.27,12.91-36.83,23.02
			c0,0,16.73,51.04-43.14,54.85C157.55,389.04,134.24,252.33,309.12,265.16z"/>
		<path class="st3" d="M386.44,358.66c0,0-20.67,50,4.4,58.72s71.58-1.13,45.77-43.45C410.79,331.61,386.44,358.66,386.44,358.66z"
			/>
		<path class="st3" d="M172.05,358.66c0,0,20.67,50-4.4,58.72s-71.58-1.13-45.77-43.45S172.05,358.66,172.05,358.66z"/>
		<path class="st3" d="M279.4,258.68c0,0,8.29,53.97,78.6,34.56C358,293.24,346.64,230.01,279.4,258.68z"/>
		<path class="st3" d="M339.78,278.13c0,0-19.97,46.86,32.51,58.07c0,0-15.62,66.21,70.61,51.67
			C442.89,387.87,450.17,251.08,339.78,278.13z"/>
		<g>
			<path class="st4" d="M287.37,285.33c-4.8,8.27-12.26,14.81-20.94,18.77c-10.09,4.61-21.34,4.65-31.78,1.16
				c-3.48-1.16-4.97,4.33-1.51,5.48c11.66,3.9,24.1,3.57,35.38-1.38c9.84-4.32,18.37-11.86,23.77-21.16
				C294.12,285.03,289.2,282.17,287.37,285.33L287.37,285.33z"/>
		</g>
		<g>
			<path class="st4" d="M273.39,253.5c-0.22,5.88,1.24,12.13,3.39,17.55c4.89,12.28,14.63,21.22,27.08,25.57
				c10.84,3.79,22.68,4.07,34,3.01c3.61-0.34,3.65-6.03,0-5.69c-16.03,1.5-34.48,0.35-46.78-11.38
				c-6.63-6.33-10.35-14.77-11.67-23.73c-0.12-0.79,0.07,0.6-0.02-0.16c-0.03-0.22-0.05-0.43-0.08-0.65
				c-0.04-0.39-0.08-0.79-0.12-1.18c-0.05-0.58-0.09-1.17-0.11-1.76c-0.02-0.53-0.04-1.07-0.02-1.6
				C279.22,249.84,273.53,249.85,273.39,253.5L273.39,253.5z"/>
		</g>
		<g>
			<path class="st4" d="M432,386.07c-15.99,7.67-35.52,4.33-47.85-8.44c-11.43-11.84-14.54-30.19-7.24-45.03
				c4.3-8.74,11.49-15.45,20.31-19.5c3.32-1.53,0.44-6.43-2.87-4.91c-17.98,8.25-29.18,27.45-26.74,47.21
				c2.23,18.08,15.35,33.33,32.78,38.55c11.46,3.43,23.76,2.19,34.5-2.96C438.17,389.4,435.28,384.5,432,386.07L432,386.07z"/>
		</g>
		<g>
			<path class="st4" d="M411.4,395.08c-0.82-1.05,0.21,0.3,0.46,0.66c0.74,1.05,1.45,2.13,2.12,3.23c2.24,3.65,4.19,7.51,5.72,11.52
				c4.49,11.77,5.54,24.61,1.12,36.57c-3.44,9.31-9.97,17.03-17.42,23.43c-2.78,2.39,1.26,6.4,4.02,4.02
				c13.04-11.21,22.11-26.44,21.98-43.99c-0.09-11.57-3.85-23-9.63-32.94c-1.31-2.26-2.74-4.47-4.36-6.53
				C413.16,388.18,409.16,392.23,411.4,395.08L411.4,395.08z"/>
		</g>
		<g>
			<path class="st4" d="M372.28,336.2c-12.02-3.94-22.21-12.79-27.13-24.54c-4.84-11.55-4.16-25,1.81-36
				c12.27-22.62,42.39-29.88,63.99-16.24c11.65,7.36,19.19,19.96,19.97,33.73c0.2,3.64,5.89,3.66,5.69,0
				c-0.78-13.86-7.33-26.74-18.23-35.39c-11.18-8.87-25.6-12.51-39.67-10.42c-28.71,4.26-48.96,33.45-40.47,61.75
				c4.68,15.61,17.19,27.56,32.55,32.59C374.26,342.83,375.75,337.34,372.28,336.2L372.28,336.2z"/>
		</g>
		<g>
			<path class="st4" d="M373.74,286.24c12.59-10.99,30.76-12.57,44.97-3.79c13.75,8.49,21.17,24.59,20.29,40.52
				c-0.56,10.18-4.67,19.96-11.59,27.44c-2.48,2.68,1.53,6.72,4.02,4.02c13.81-14.94,17-37.09,8.73-55.58
				c-7-15.65-22.35-27.08-39.66-27.83c-11.38-0.49-22.26,3.75-30.78,11.19C366.95,284.63,370.99,288.64,373.74,286.24L373.74,286.24
				z"/>
		</g>
		<path class="st3" d="M429.33,378.19c0,0,25.43,7.46,24.04,45.82c-1.39,38.36-15.3,49.11-19.93,59.99
			c-4.64,10.88,17.64,23.07,32.48,7.78c14.83-15.29,28.41-48.17,21.09-78.35s-16.79-38.31-33.64-49.3
			C436.52,353.15,415.21,363.81,429.33,378.19z"/>
		<g>
			<path class="st4" d="M403.45,355.35c20.24-2.58,40.54,3.47,55.91,16.94c14.72,12.9,24.19,31.31,26.47,50.73
				c2.36,20.08-2.47,40.64-14.06,57.26c-10.93,15.67-27.71,26.91-46.56,30.34c-24.86,4.52-39.25,2.85-55.64-15.96
				c-2.41-2.77-6.42,1.27-4.02,4.02c15.8,18.14,28.74,20.3,52.92,18.49c20.39-1.53,39.42-11.48,52.73-26.94
				c28.46-33.07,27.56-85.04-2.49-116.82c-16.74-17.71-41.01-26.83-65.26-23.74C399.87,350.12,399.83,355.81,403.45,355.35
				L403.45,355.35z"/>
		</g>
		<path class="st3" d="M85.17,415.23c0,0,10.2-37.43,30.84-49.49c20.65-12.06,29.84-14.84,38.36-15.34
			c8.53-0.5,15.99,1.41,14.39,5.94c-1.6,4.53-29.04,11.07-34.37,28.31c-5.33,17.25-15.99,46.43-4.53,68.6
			c11.46,22.18,19.98,44.82,11.99,46.42c-7.99,1.6-47.83-12.15-54.15-42.44C81.38,426.95,83.05,424.02,85.17,415.23z"/>
		<g>
			<g>
				<path class="st4" d="M138.11,388.97c18.15,8.71,40.27,5.42,54.49-9.07c13.3-13.56,16.79-34.27,8.74-51.46
					c-4.61-9.84-12.86-17.75-22.7-22.27c-3.3-1.52-6.2,3.38-2.87,4.91c15.91,7.3,25.85,23.56,24.05,41.14
					c-1.6,15.69-13.07,29.24-28,33.99c-10.15,3.23-21.24,2.44-30.84-2.17C137.69,382.48,134.8,387.38,138.11,388.97L138.11,388.97z"
					/>
			</g>
			<g>
				<path class="st4" d="M157.55,389.04c-12.48,15.85-18.03,39.09-10.63,58.21c3.86,9.96,10.57,18.33,18.62,25.25
					c2.76,2.38,6.8-1.63,4.02-4.02c-12.22-10.5-20.72-24.43-20.3-40.92c0.26-10.37,3.79-20.54,9.02-29.43
					c0.8-1.36,1.64-2.7,2.54-3.99c0.3-0.44,1.56-2.1,0.75-1.07C163.82,390.21,159.82,386.16,157.55,389.04L157.55,389.04z"/>
			</g>
			<g>
				<path class="st4" d="M202.21,339.67c13.55-4.44,25.01-14.24,30.66-27.45c5.6-13.09,5-28.17-1.58-40.79
					c-13.48-25.85-48.09-34.39-72.44-18.73c-13.24,8.51-21.58,22.73-22.47,38.43c-0.21,3.66,5.48,3.65,5.69,0
					c1.45-25.87,26.31-44.23,51.49-40.2c25.2,4.03,43.11,29.17,35.83,54.25c-4.02,13.83-15.12,24.55-28.69,29
					C197.23,335.32,198.71,340.81,202.21,339.67L202.21,339.67z"/>
			</g>
			<g>
				<path class="st4" d="M203.26,280.2c-14.47-12.64-35.4-14.86-51.87-4.68c-15.51,9.58-24.26,27.84-23.08,45.9
					c0.76,11.57,5.36,22.48,13.23,31c2.49,2.69,6.51-1.34,4.02-4.02c-11.99-12.96-14.96-32.57-7.84-48.68
					c6.05-13.7,19.15-24.17,34.37-24.99c9.98-0.54,19.63,2.95,27.14,9.51C201.98,286.62,206.02,282.61,203.26,280.2L203.26,280.2z"
					/>
			</g>
			<g>
				<path class="st4" d="M169.52,347.64c-19.8-2.52-39.83,3-55.66,15.12c-15.14,11.6-25.85,28.43-30.4,46.92
					c-9.3,37.77,7.56,80.36,43.17,97.86c22.02,10.82,47.96,10.1,69.51-1.57c3.22-1.74,0.35-6.66-2.87-4.91
					c-18.17,9.84-39.83,11.28-59.06,3.67c-16.18-6.4-29.48-18.98-37.76-34.17c-17.54-32.19-11.18-74.52,16.07-99.31
					c15.5-14.11,36.25-20.57,57.01-17.92C173.14,353.79,173.11,348.1,169.52,347.64L169.52,347.64z"/>
			</g>
		</g>
		<g>
			<g>
				<path class="st5" d="M150.66,289.2c-12.47,11.04-15.36,29.79-7.54,44.35c1.73,3.23,6.65,0.36,4.91-2.87
					c-6.68-12.42-3.89-28.12,6.65-37.45C157.43,290.79,153.39,286.78,150.66,289.2L150.66,289.2z"/>
			</g>
			<g>
				<path class="st5" d="M173.89,281.33c-4.69-0.4-9.49,0.33-13.85,2.1c-0.71,0.29-1.29,0.61-1.7,1.31
					c-0.36,0.61-0.51,1.51-0.29,2.19c0.43,1.32,2.02,2.59,3.5,1.99c2.01-0.82,4.09-1.42,6.23-1.76c0.12-0.02,0.23-0.04,0.35-0.05
					c-0.36,0.05-0.38,0.05-0.05,0.01c0.24-0.03,0.47-0.05,0.71-0.08c0.56-0.05,1.12-0.09,1.68-0.11c1.14-0.04,2.28,0,3.41,0.1
					c1.49,0.13,2.91-1.4,2.84-2.84C176.66,282.53,175.48,281.47,173.89,281.33L173.89,281.33z"/>
			</g>
			<g>
				<path class="st5" d="M269.68,345.65c1.83,0.14,3.66,0.14,5.49,0.04c0.75-0.04,1.47-0.29,2.01-0.83c0.49-0.49,0.86-1.3,0.83-2.01
					c-0.03-0.74-0.27-1.5-0.83-2.01c-0.54-0.49-1.26-0.88-2.01-0.83c-1.83,0.1-3.66,0.1-5.49-0.04c-0.69-0.05-1.53,0.36-2.01,0.83
					c-0.49,0.49-0.86,1.3-0.83,2.01c0.03,0.74,0.27,1.5,0.83,2.01C268.25,345.35,268.89,345.59,269.68,345.65L269.68,345.65z"/>
			</g>
			<g>
				<path class="st5" d="M245.05,320.51c0.01,6.53,2.95,13.51,7.58,18.06c2.43,2.38,5.31,4.07,8.47,5.3
					c1.43,0.56,3.12-0.61,3.5-1.99c0.44-1.61-0.55-2.94-1.99-3.5c-0.18-0.07-0.37-0.14-0.55-0.22c0.06,0.02,0.31,0.14,0.02,0
					c-0.3-0.14-0.6-0.28-0.89-0.42c-0.57-0.29-1.12-0.59-1.66-0.93c-0.51-0.32-1.01-0.66-1.5-1.03c0.42,0.32-0.18-0.16-0.3-0.26
					c-0.25-0.21-0.49-0.43-0.73-0.65c-0.4-0.38-0.79-0.77-1.17-1.19c-0.16-0.17-0.31-0.35-0.46-0.52c-0.1-0.12-0.19-0.24-0.29-0.35
					c-0.27-0.32,0.27,0.37,0.03,0.04c-0.63-0.84-1.2-1.72-1.71-2.65c-0.21-0.39-0.42-0.79-0.61-1.19c-0.1-0.21-0.19-0.43-0.29-0.64
					c-0.07-0.14-0.18-0.5,0.06,0.14c-0.05-0.12-0.1-0.24-0.14-0.36c-0.3-0.8-0.58-1.6-0.81-2.42c-0.21-0.74-0.39-1.48-0.53-2.23
					c-0.06-0.31-0.12-0.63-0.17-0.94c-0.02-0.12-0.03-0.25-0.06-0.37c-0.01-0.06,0.09,0.78,0.03,0.19
					c-0.07-0.62-0.14-1.25-0.14-1.87c0-1.54-1.3-2.84-2.84-2.84C246.35,317.67,245.05,318.97,245.05,320.51L245.05,320.51z"/>
			</g>
			<g>
				<path class="st5" d="M292.28,335.85c2.52,0.52,5.19,0.69,7.76,0.54c0.76-0.05,1.46-0.29,2.01-0.83c0.49-0.49,0.86-1.3,0.83-2.01
					c-0.03-0.74-0.27-1.5-0.83-2.01c-0.54-0.49-1.26-0.88-2.01-0.83c-1.89,0.11-3.8,0.03-5.68-0.22c0.25,0.03,0.5,0.07,0.76,0.1
					c-0.44-0.06-0.89-0.12-1.32-0.21c-0.75-0.16-1.51-0.11-2.19,0.29c-0.59,0.35-1.15,1.02-1.31,1.7c-0.17,0.73-0.13,1.55,0.29,2.19
					C290.97,335.14,291.56,335.7,292.28,335.85L292.28,335.85z"/>
			</g>
			<g>
				<path class="st5" d="M228.73,229.65c-6.74,0.91-13.25,3.36-18.93,7.09c-1.28,0.84-1.82,2.52-1.02,3.89
					c0.75,1.27,2.6,1.87,3.89,1.02c5.38-3.54,11.1-5.65,17.57-6.52c1.48-0.2,2.42-2.17,1.99-3.5
					C231.7,230.01,230.32,229.44,228.73,229.65L228.73,229.65z"/>
			</g>
			<g>
				<path class="st5" d="M246.88,231.04c-2.64-0.61-5.33-1.01-8.03-1.26c-0.69-0.06-1.54,0.36-2.01,0.83
					c-0.49,0.49-0.86,1.3-0.83,2.01c0.03,0.74,0.27,1.5,0.83,2.01c0.58,0.54,1.22,0.76,2.01,0.83c0.8,0.07,1.6,0.16,2.4,0.27
					c-0.25-0.03-0.5-0.07-0.76-0.1c1.64,0.22,3.27,0.52,4.88,0.89c0.74,0.17,1.53,0.1,2.19-0.29c0.59-0.35,1.15-1.02,1.31-1.7
					C249.2,233.09,248.43,231.39,246.88,231.04L246.88,231.04z"/>
			</g>
			<g>
				<path class="st5" d="M288.1,270.2c3.76,6.93,9.67,12.45,16.77,15.85c1.34,0.64,3.13,0.41,3.89-1.02
					c0.67-1.27,0.41-3.21-1.02-3.89c-1.86-0.89-3.65-1.91-5.34-3.1c-0.17-0.12-0.35-0.24-0.52-0.37c-0.07-0.05-0.67-0.5-0.42-0.3
					c0.28,0.21-0.25-0.2-0.3-0.24c-0.19-0.15-0.38-0.31-0.57-0.47c-0.7-0.59-1.38-1.2-2.03-1.85c-0.6-0.59-1.17-1.21-1.73-1.84
					c-0.27-0.31-0.53-0.62-0.79-0.94c-0.17-0.21-0.39-0.5-0.1-0.12c-0.13-0.17-0.26-0.35-0.39-0.52c-0.95-1.29-1.8-2.65-2.56-4.06
					c-0.71-1.31-2.63-1.83-3.89-1.02C287.79,267.16,287.34,268.8,288.1,270.2L288.1,270.2z"/>
			</g>
			<g>
				<path class="st5" d="M283.57,256.45c0.33,2.24,0.84,4.46,1.52,6.62c0.22,0.7,0.67,1.32,1.31,1.7c0.61,0.36,1.51,0.51,2.19,0.29
					c0.69-0.22,1.35-0.65,1.7-1.31c0.35-0.66,0.52-1.46,0.29-2.19c-0.69-2.16-1.19-4.38-1.52-6.62c-0.1-0.66-0.76-1.38-1.31-1.7
					c-0.61-0.36-1.51-0.51-2.19-0.29c-0.69,0.22-1.35,0.65-1.7,1.31c-0.1,0.23-0.19,0.45-0.29,0.68
					C283.43,255.44,283.43,255.94,283.57,256.45L283.57,256.45z"/>
			</g>
			<g>
				<g>
					<path class="st5" d="M108.3,333.53c-0.4-7.17,1.72-14.29,6.21-19.86c0.96-1.19,1.17-2.85,0-4.02c-1-1-3.05-1.2-4.02,0
						c-5.46,6.76-8.36,15.16-7.88,23.88c0.08,1.53,1.25,2.84,2.84,2.84C106.93,336.37,108.38,335.07,108.3,333.53L108.3,333.53z"/>
				</g>
				<g>
					<path class="st5" d="M112.26,346.28c-0.73-1.24-1.38-2.53-1.95-3.85c0.1,0.23,0.19,0.45,0.29,0.68c-0.38-0.9-0.71-1.81-1-2.73
						c-0.22-0.7-0.67-1.32-1.31-1.7c-0.61-0.36-1.51-0.51-2.19-0.29c-0.69,0.22-1.35,0.65-1.7,1.31c-0.35,0.66-0.52,1.46-0.29,2.19
						c0.8,2.53,1.89,4.98,3.24,7.27c0.37,0.62,1.01,1.12,1.7,1.31c0.68,0.19,1.59,0.1,2.19-0.29
						C112.53,349.34,113.08,347.65,112.26,346.28L112.26,346.28z"/>
				</g>
			</g>
			<g>
				<g>
					<path class="st5" d="M65.93,423.22c-0.25-2.65-0.29-5.32-0.13-7.98c0.09-1.49-1.37-2.91-2.84-2.84
						c-1.62,0.07-2.75,1.25-2.84,2.84c-0.16,2.66-0.12,5.33,0.13,7.98c0.07,0.77,0.27,1.45,0.83,2.01c0.49,0.49,1.3,0.86,2.01,0.83
						c0.74-0.03,1.5-0.27,2.01-0.83C65.58,424.7,66,423.96,65.93,423.22L65.93,423.22z"/>
				</g>
				<g>
					<path class="st5" d="M70.56,441.82c-0.21-0.45-0.41-0.9-0.61-1.35c-0.12-0.29-0.11-0.26,0.04,0.09
						c-0.05-0.13-0.11-0.26-0.16-0.39c-0.08-0.2-0.16-0.4-0.24-0.6c-0.38-0.97-0.72-1.95-1.03-2.95c-0.62-2-1.1-4.03-1.45-6.09
						c-0.25-1.47-2.14-2.43-3.5-1.99c-1.58,0.51-2.26,1.92-1.99,3.5c0.76,4.39,2.13,8.62,4.03,12.65c0.64,1.35,2.68,1.8,3.89,1.02
						C70.93,444.81,71.24,443.26,70.56,441.82L70.56,441.82z"/>
				</g>
			</g>
			<g>
				<g>
					<path class="st5" d="M93.21,415.62c-5.91,28.44,5.2,58.68,29.95,74.56c3.09,1.98,5.95-2.94,2.87-4.91
						c-22.51-14.45-32.71-42.28-27.33-68.14C99.44,413.56,93.96,412.03,93.21,415.62L93.21,415.62z"/>
				</g>
				<g>
					<path class="st5" d="M100.74,395.85c-1.67,2.96-3.1,6.05-4.34,9.21c-0.25,0.64-0.05,1.62,0.29,2.19
						c0.35,0.59,1.02,1.15,1.7,1.31c0.73,0.17,1.55,0.13,2.19-0.29c0.66-0.42,1.02-0.97,1.31-1.7c0.22-0.55,0.44-1.1,0.67-1.64
						c-0.1,0.23-0.19,0.45-0.29,0.68c1-2.36,2.13-4.66,3.39-6.89c0.73-1.3,0.35-3.17-1.02-3.89
						C103.28,394.12,101.52,394.46,100.74,395.85L100.74,395.85z"/>
				</g>
			</g>
			<g>
				<g>
					<path class="st5" d="M521.21,467.5c-3.46,16.54-17.9,28.62-34.86,28.73c-3.66,0.03-3.67,5.71,0,5.69
						c19.35-0.13,36.38-13.93,40.35-32.91C527.45,465.44,521.96,463.91,521.21,467.5L521.21,467.5z"/>
				</g>
				<g>
					<path class="st5" d="M520.95,452.4c0.29,1.25,0.52,2.52,0.7,3.79c-0.03-0.25-0.07-0.5-0.1-0.76c0.22,1.7,0.33,3.41,0.34,5.12
						c0,1.49,1.31,2.91,2.84,2.84c1.54-0.07,2.85-1.25,2.84-2.84c-0.01-3.25-0.39-6.51-1.13-9.67c-0.34-1.45-2.08-2.45-3.5-1.99
						C521.42,449.4,520.59,450.85,520.95,452.4L520.95,452.4z"/>
				</g>
			</g>
			<g>
				<path class="st5" d="M469.54,414.19c9.1,30.83-5.68,66.58-37.08,77.34c-3.44,1.18-1.96,6.68,1.51,5.48
					c34.29-11.75,51.07-50.39,41.05-84.33C473.99,409.18,468.5,410.67,469.54,414.19L469.54,414.19z"/>
			</g>
			<g>
				<path class="st5" d="M453.62,387.9c1.88,1.84,3.64,3.78,5.28,5.84c0.09,0.12,0.18,0.23,0.28,0.35c0.04,0.05,0.36,0.42,0.12,0.15
					c-0.26-0.3,0.14,0.18,0.18,0.24c0.09,0.12,0.18,0.24,0.27,0.36c0.4,0.54,0.79,1.08,1.18,1.63c0.77,1.11,1.5,2.24,2.21,3.39
					c0.77,1.27,2.58,1.86,3.89,1.02c1.28-0.82,1.85-2.53,1.02-3.89c-2.91-4.77-6.4-9.21-10.4-13.12c-1.06-1.04-2.98-1.14-4.02,0
					C452.59,385,452.49,386.79,453.62,387.9L453.62,387.9z"/>
			</g>
			<g>
				<path class="st5" d="M422.72,298.24c9.51,11.96,9.9,29.19,1.4,41.76c-2.06,3.04,2.87,5.89,4.91,2.87
					c10.04-14.85,8.76-34.76-2.29-48.66C424.46,291.36,420.46,295.4,422.72,298.24L422.72,298.24z"/>
			</g>
			<g>
				<path class="st5" d="M406.61,287.46c0.9,0.25,1.79,0.53,2.67,0.86c0.37,0.14,0.76,0.36,1.14,0.45c-0.41-0.17-0.48-0.2-0.2-0.08
					c0.11,0.05,0.21,0.09,0.32,0.14c0.21,0.1,0.43,0.19,0.64,0.29c1.64,0.77,3.21,1.68,4.7,2.71c1.23,0.84,3.21,0.27,3.89-1.02
					c0.76-1.44,0.29-2.99-1.02-3.89c-3.23-2.21-6.86-3.89-10.63-4.94c-1.43-0.4-3.16,0.49-3.5,1.99
					C404.28,285.47,405.08,287.03,406.61,287.46L406.61,287.46z"/>
			</g>
		</g>
		<polygon class="st7" points="280.5,415.23 268.89,440.78 292.74,440.78 		"/>
		
			<ellipse transform="matrix(0.8977 -0.4407 0.4407 0.8977 -175.183 109.0368)" class="st0" cx="147.19" cy="431.72" rx="27.06" ry="32.7"/>
		
			<ellipse transform="matrix(0.4407 -0.8977 0.8977 0.4407 -156.9053 611.6301)" class="st0" cx="412.35" cy="431.72" rx="32.7" ry="27.06"/>
		<path class="st4" d="M174.16,396.89c0,0-1.58-52.67,50.49-52.67c27.69,0,41.23,40.02,41.23,40.02s-13.1-40.94-49.09-33.96
			C179.14,357.58,174.16,396.89,174.16,396.89z"/>
		<path class="st4" d="M384.17,403.36c0,0,1.13-58.76-40.36-58.76c-43.93,0-45.83,39.63-45.83,39.63s9.31-38.91,49.09-33.96
			C385.14,355.01,384.17,403.36,384.17,403.36z"/>
		<ellipse class="st6" cx="340.59" cy="396.89" rx="43.58" ry="48.28"/>
		<ellipse class="st6" cx="220.84" cy="396.89" rx="46.67" ry="48.28"/>
		<ellipse cx="241.91" cy="385.22" rx="22.84" ry="28.64"/>
		<ellipse cx="359.11" cy="385.22" rx="22.84" ry="28.64"/>
		<ellipse class="st8" cx="205.62" cy="440.78" rx="26.27" ry="9.06"/>
		<ellipse class="st8" cx="359.11" cy="440.78" rx="26.27" ry="9.06"/>
		<path d="M169.2,344.1c0,0,41.01,36.18,56.69-22.64C225.9,321.45,211.94,358.43,169.2,344.1z"/>
		<path d="M382.49,339.63c0,0-42.34,34.61-55.8-24.76C326.69,314.88,339.25,352.35,382.49,339.63z"/>
		<path d="M278.02,455.88c-5.64,0.22-27.75-3.83-40.51-3.78c-12.77,0.05-27.08,27.51,14.14,41.9c41.1,14.35,75.12,5.51,86.89-14.96
			c11.77-20.47-0.6-37.2-19.83-30.25C299.47,455.74,278.02,455.88,278.02,455.88z"/>
		<path class="st8" d="M231.3,482.47c0,0,61.72-32.76,107.23-3.42c0,0-5.45,22.9-45.79,22.97
			C249.25,502.1,231.3,482.47,231.3,482.47z"/>
	</g>
	<path class="st6" d="M407.15,302.94c0,0-22.65,47.34-3.86,51.82C422.07,359.24,427.75,335.59,407.15,302.94z"/>
	<path class="st6" d="M430.64,335.96c0,0-16.74,34.98-2.86,38.29C441.67,377.57,445.87,360.09,430.64,335.96z"/>
</g>
</svg>
