<?xml version="1.0" encoding="utf-8"?>
<!-- Generator: Adobe Illustrator 24.0.1, SVG Export Plug-In . SVG Version: 6.00 Build 0)  -->
<svg version="1.1" id="Capa_1" xmlns="http://www.w3.org/2000/svg" xmlns:xlink="http://www.w3.org/1999/xlink" x="0px" y="0px"
	 viewBox="0 0 566.93 566.93" style="enable-background:new 0 0 566.93 566.93;" xml:space="preserve">
<style type="text/css">
	.st0{fill:#F9D6E4;}
	.st1{fill:#45A759;}
	.st2{fill:#15632D;}
	.st3{fill:#F08CA7;}
	.st4{fill:#B52955;}
	.st5{fill:#F6BFD3;}
	.st6{fill:#FFFFFF;}
	.st7{fill:#CD94A9;}
	.st8{fill:#E16874;}
	.st9{fill:#EEEEEE;}
	.st10{fill:#C9C7C7;}
	.st11{clip-path:url(#SVGID_2_);}
	.st12{clip-path:url(#SVGID_2_);fill:#F08CA7;}
	.st13{fill:#CBC9CA;}
	.st14{fill:#E1E0E0;}
	.st15{fill:#B693C3;}
	.st16{fill:#F8DF28;}
	.st17{fill:#65A2D8;}
	.st18{fill:#DEE275;}
	.st19{fill:#FFDB43;}
	.st20{fill:#E75C2A;}
	.st21{fill:#F49D4E;}
	.st22{opacity:0.5;}
	.st23{fill:#F3B0CF;}
	.st24{fill:#704F9A;}
	.st25{fill:#616160;}
	.st26{fill:#5AE4A7;}
	.st27{fill:#FF0000;}
	.st28{fill:#82CEE0;}
	.st29{fill:#9E6D0B;}
	.st30{fill:#828E0C;}
	.st31{fill:#FFFF00;}
	.st32{clip-path:url(#SVGID_4_);}
	.st33{clip-path:url(#SVGID_4_);fill:#F08CA7;}
	.st34{clip-path:url(#SVGID_6_);}
	.st35{clip-path:url(#SVGID_6_);fill:#F08CA7;}
	.st36{fill:none;stroke:#B52955;stroke-width:3;stroke-linecap:round;stroke-linejoin:round;stroke-miterlimit:10;}
</style>
<g>
	<g>
		<path class="st1" d="M199.59,109.66c10.4-10.17,17.54-23.53,20.18-37.33c0.68-3.16,0.9-6.79-1.04-9.42
			c-3.05-3.92-10.12-2.95-13.89,0.74c-3.78,3.68-5.06,9.04-5.87,14.1C197.38,88.47,197.64,99.28,199.59,109.66z"/>
		<path class="st1" d="M221.96,136.62c7.64-12.29,11.22-26.67,10.24-40.53c-0.26-3.35-0.95-6.88-3.46-8.85
			c-3.98-3.04-10.71-0.45-13.52,4.01c-2.81,4.46-2.74,9.9-2.15,14.87C214.3,116.64,217.23,127.03,221.96,136.62z"/>
		<path class="st1" d="M240.84,153.09c9.4-10.47,15.39-23.58,16.78-36.77c0.37-3.12,0.35-6.61-1.87-8.91
			c-3.27-3.48-10.25-2.1-13.77,1.73s-4.33,8.9-4.6,13.78C236.74,133.06,237.94,143.29,240.84,153.09z"/>
		<path class="st1" d="M198.29,107.26c-6.41-12.07-16.98-21.89-29.78-27.61c-2.97-1.38-6.59-2.51-9.78-1.33
			c-4.98,1.98-6.55,8.73-4.21,13.09c2.41,4.47,7.22,7,11.93,8.84C176.5,104.15,187.32,106.66,198.29,107.26z"/>
		<path class="st1" d="M217.01,126.4c-10.93-8.54-24.72-13.5-39.06-14.01c-3.44-0.03-7.23,0.16-9.74,2.46
			c-3.91,3.46-2.72,10.2,1.14,13.31c4.05,3.16,9.54,3.6,14.76,3.61C195.16,131.71,206.29,129.92,217.01,126.4z"/>
		<path class="st1" d="M241.13,150.63c-10.93-8.54-24.72-13.5-39.06-14.01c-3.44-0.03-7.23,0.16-9.74,2.46
			c-3.91,3.46-2.72,10.2,1.14,13.31c4.05,3.16,9.54,3.6,14.76,3.61C219.28,155.93,230.41,154.15,241.13,150.63z"/>
		<path class="st1" d="M266.71,188.42c6.98-12.04,10.04-25.94,8.42-38.96c-0.42-3.09-1.17-6.44-3.85-8.15
			c-4.2-2.61-10.72,0.32-13.3,4.64c-2.51,4.43-2.15,9.54-1.38,14.25C258.28,170.13,261.72,179.75,266.71,188.42z"/>
		<path class="st1" d="M264.86,181.94c-10.93-8.54-24.72-13.5-39.06-14.01c-3.44-0.03-7.23,0.16-9.74,2.46
			c-3.91,3.46-2.72,10.2,1.14,13.31c4.05,3.16,9.54,3.6,14.76,3.61C243.01,187.25,254.25,185.39,264.86,181.94z"/>
		<g>
			<path class="st2" d="M189.23,88.74c-0.22-0.63,0.75-0.91,0.85-0.21c13.5,33.77,46.83,51.74,67.52,80.5
				c9.95,13.86,17.77,29.03,24.02,44.84c6.6,16.37,13.12,33.69,16.65,51.18c0.56,2.25-2.76,3.21-3.56,1.11
				c-6.61-16.66-10.65-34.45-17.38-51.04c-6.88-17.11-15.23-33.93-26.68-48.39C230.45,141.17,198.21,121.77,189.23,88.74
				L189.23,88.74z"/>
		</g>
		<path class="st1" d="M194.23,97.71c2.42-16.56-0.77-33.49-8.66-47.7c-1.92-3.4-4.51-6.83-8.3-7.71
			c-6.03-1.33-12.2,4.57-13.08,10.59c-0.88,6.02,1.9,11.63,5.02,16.72C175.85,80.18,184.32,89.76,194.23,97.71z"/>
	</g>
	<g>
		<path class="st3" d="M375.88,503.71c0,0-0.02-0.04-0.05-0.12C375.02,503.2,375.88,503.71,375.88,503.71z"/>
		<path class="st3" d="M536.88,434.26c-2.88-6.2-6.91-11.81-11.78-16.56c10.54-32.74-8.38-74.15-43.57-81.16
			c1.18-21.58-7.52-43.73-25.57-56.56c-6.87-4.88-14.81-7.81-23.17-8.73c-0.64-0.07-1.17,0.05-1.58,0.29c-1.42-1.55-1.84-3-1.84-3
			s-4.95-10.14-20.11-19.4c-15.16-9.26-32.26-4.4-37.66-3.02c-0.6,0.15-1.13,0.24-1.6,0.28c-8.61-34.91-50.67-52.74-83.33-41.64
			c-9.62,3.27-18.37,8.6-26.02,15.23c-25.57-11.2-56.07-3.1-71.94,20.24c-0.29,0.43-0.44,0.85-0.49,1.25
			c-1.57,0.37-2.72,0.33-2.72,0.33s0.8-2.31-20.64,3.07c-21.44,5.39-26.6,24.66-28.64,30.02c-0.17,0.43-0.35,0.82-0.55,1.18
			c-0.59-0.4-1.34-0.59-2.22-0.42c-29.77,5.79-49.69,34.8-44.93,64.56C59.64,351.8,44.02,381.91,43.52,412c0,0-0.01,0.01-0.01,0.01
			c-18.03,17.43-23.97,44.17-13.82,67.27c9,20.5,29.22,34.37,51.18,37.26c15.3,2.02,30.92-1.17,44.19-9.05
			c0.55-0.33,0.91-0.74,1.13-1.2c0.82,0.21,1.33,0.43,1.33,0.43s11.98,3.75,21.79,5.22c9.82,1.48,22.98,1.3,32.53-4.71
			c9.56-6.02,11.88-0.88,11.88-0.88s11.33,7.72,20.13,13.67c8.8,5.96,22.21,5.2,29.69,3.84c7.48-1.35,25.84-8.3,31.14-15.87
			c5.3-7.57,7.49-1.8,7.49-1.8s7.07,7.33,23.66,14.19c16.59,6.86,32.19,2.21,40.32,0c8.13-2.21,19.11-9.44,23.63-15.12
			c4.06-5.09,5.75-2.3,6.05-1.68c0.74,0.36,2.87,1.47,8.34,4.41c11.44,6.15,26.11,7.03,38.47,5.73c12.37-1.3,23.26-5.37,26.77-8.65
			c0.95-0.89,1.85-1.46,2.75-1.75c-0.05,0.94,0.32,1.91,1.31,2.58c21.98,14.79,51.87,12.38,71.07-5.86
			C542.25,483.23,547.12,456.34,536.88,434.26z"/>
	</g>
	<path class="st3" d="M95.22,312.8c0,0,3.53-16.01,16.03-24.04c12.51-8.02,19.88-10.77,19.88-10.77s5.01,0.6,7.05-4.76
		c2.04-5.36,7.2-24.63,28.64-30.02c21.44-5.39,20.64-3.07,20.64-3.07s6.04,0.26,9.33-4.9c3.3-5.16,15.88-17.01,31.89-18.29
		c16.01-1.28,30.7,3.12,30.7,3.12s2.58,3.95,10.88-3.36c8.3-7.3,20.94-14.65,40.66-13.42c19.72,1.22,31.91,5.56,40.47,14.4
		s15.83,19.33,15.83,19.33l0.99,5.09c0,0-0.05,3.74,5.35,2.35c5.4-1.39,22.5-6.25,37.66,3.02c15.16,9.26,20.11,19.4,20.11,19.4
		s1.35,4.6,7.25,6.18c5.9,1.58,28.36,9.57,35.21,28.24c6.85,18.67,6.9,26.53,6.9,26.53l0.08,5.52c0,0,0.05,2.55,5.13,5.06
		c5.08,2.51,23.13,6.52,32.4,25.66c9.26,19.14,10.27,30.03,8.94,37.64s-4.69,14.81-1.71,16.85c2.98,2.05,16.45,19.05,15.84,36.32
		c-0.61,17.27-6.75,29.56-12.79,37.08c-6.04,7.52-14.06,15.02-28.75,17.73c-14.69,2.71-32.52-0.66-37.34-4.62
		c-4.82-3.96-7.59-4.95-11.1-1.67c-3.51,3.29-14.41,7.36-26.77,8.65c-12.37,1.3-27.03,0.42-38.47-5.73
		c-11.44-6.15-8.28-4.29-8.28-4.29s-1.58-4.11-6.1,1.56c-4.52,5.67-15.5,12.91-23.63,15.12c-8.13,2.21-23.73,6.86-40.32,0
		c-16.59-6.86-23.66-14.19-23.66-14.19s-2.18-5.77-7.49,1.8c-5.3,7.57-23.66,14.52-31.14,15.87c-7.48,1.35-20.89,2.11-29.69-3.84
		c-8.8-5.96-22.45-18.81-32.01-12.79c-9.56,6.02-22.72,6.19-32.53,4.71c-9.81-1.48-21.79-5.22-21.79-5.22s-5.2-2.36-9.53,1.27
		c-4.32,3.63-36.87,12.28-56.09,0c-19.22-12.28-30.8-24.74-33.51-42.72c-2.71-17.98,0.77-28.39,5.68-36.11
		c4.92-7.72,7.91-11.39,7.91-11.39s3.86-2.9,4.47-9.52c0.61-6.61,3.55-32.25,16.26-44.83c12.71-12.58,21.2-17.94,21.2-17.94
		s7.77-0.73,7.26-6.99C92.63,330.57,94.8,316.92,95.22,312.8z"/>
	<g>
		<path class="st4" d="M383.94,468.45c3.71-1.88,7.7-1.92,11.7-1.09c4.21,0.88,8.82,2.51,11.88,5.65c6.18,6.35,6.49,16.1,6.14,24.4
			c-0.12,2.83,4.28,3.4,4.4,0.54c0.41-9.94-0.25-21.17-7.89-28.51c-3.67-3.52-8.76-5.32-13.64-6.4c-4.81-1.06-9.9-0.91-14.35,1.34
			C379.65,465.66,381.38,469.74,383.94,468.45L383.94,468.45z"/>
	</g>
	<g>
		<path class="st4" d="M165.26,491.99c-1.88-3.71-1.92-7.7-1.09-11.7c0.88-4.21,2.51-8.82,5.65-11.88c6.35-6.18,16.1-6.49,24.4-6.14
			c2.83,0.12,3.4-4.28,0.54-4.4c-9.94-0.41-21.17,0.25-28.51,7.89c-3.52,3.67-5.32,8.76-6.4,13.64c-1.06,4.81-0.91,9.9,1.34,14.35
			C162.47,496.27,166.56,494.54,165.26,491.99L165.26,491.99z"/>
	</g>
	<circle class="st0" cx="281.96" cy="394.19" r="127.33"/>
	<path class="st3" d="M346.45,305.52c-0.81-1.55-2.34-1.74-3.56-1.15c-1.47-3.51-2.81-6.94-2.64-7.79c0.36-1.84-0.49-5.72-0.49-5.72
		s-13.58,0.8-18.46,0c-4.88-0.8-22.71-6-25.57-7.95c-2.87-1.96-5.13-3.68-7.07,0c-1.94,3.68-4.39,7.05-14.99,13.47
		c-10.61,6.43-14.79,8.77-18.56,8.87c-3.77,0.1-12.77-1.24-12.77-1.24s-0.03-0.01-0.09-0.01c-0.85-2.72-5.59-2.39-5.68,0.98
		c-0.44,16.51,6.92,36.22,24.17,41.13c10.02,2.86,25.26,1.72,28.07-10.54c0.04-0.19,0.08-0.39,0.12-0.59
		c1.56,0.4,3.14,0.72,4.72,0.94c6.94,0.97,14.82,0.23,20.46-4.33c1.41-1.14,2.57-2.5,3.47-4.01c5.38,3.71,11.99,6.11,18.56,4.92
		c7.63-1.38,12.73-7.77,13.14-15.38C349.49,313.07,348.31,309.1,346.45,305.52z"/>
	<path class="st3" d="M192.13,332.91c0,0,31.2,20.21,67.4-17.7c0,0,36.09-37.42-8.7-37.91C206.03,276.8,189.81,313.7,192.13,332.91z
		"/>
	<path class="st3" d="M331.17,314.08c0,0,6.47,39.24,57.42,39.4c0,0,31.45-36.78,3.14-61.23
		C363.42,267.79,331.17,284.48,331.17,314.08z"/>
	<path class="st3" d="M309.65,258.02l-35.99,38.36c0,0-8.9,13.79-37.11,8.6c0,0-10.48,13.18-37.6,23.5c0,0,17.08,52.11-44.04,56
		C154.92,384.48,131.12,244.92,309.65,258.02z"/>
	<path class="st3" d="M388.59,353.48c0,0-21.1,51.05,4.49,59.95c25.59,8.9,73.08-1.15,46.73-44.36S388.59,353.48,388.59,353.48z"/>
	<path class="st3" d="M169.72,353.48c0,0,21.1,51.05-4.49,59.95c-25.59,8.9-73.08-1.15-46.73-44.36S169.72,353.48,169.72,353.48z"/>
	<path class="st3" d="M279.31,251.41c0,0,8.46,55.09,80.25,35.28C359.56,286.69,347.96,222.13,279.31,251.41z"/>
	<path class="st3" d="M340.95,271.26c0,0-20.39,47.84,33.19,59.28c0,0-15.95,67.59,72.08,52.75
		C446.22,383.29,453.65,243.64,340.95,271.26z"/>
	<g>
		<path class="st4" d="M287.45,278.61c-4.9,8.44-12.52,15.12-21.38,19.17c-10.3,4.7-21.79,4.75-32.45,1.18
			c-3.55-1.19-5.08,4.42-1.54,5.6c11.91,3.99,24.61,3.64,36.12-1.41c10.05-4.41,18.75-12.11,24.26-21.61
			C294.34,278.31,289.32,275.38,287.45,278.61L287.45,278.61z"/>
	</g>
	<g>
		<path class="st4" d="M273.18,246.12c-0.22,6,1.26,12.38,3.46,17.91c4.99,12.54,14.94,21.66,27.65,26.11
			c11.06,3.87,23.15,4.16,34.71,3.08c3.69-0.34,3.73-6.15,0-5.81c-16.36,1.53-35.2,0.36-47.75-11.62
			c-6.77-6.46-10.57-15.07-11.92-24.23c-0.12-0.8,0.07,0.62-0.02-0.16c-0.03-0.22-0.06-0.44-0.08-0.66
			c-0.04-0.4-0.08-0.81-0.12-1.21c-0.05-0.6-0.09-1.19-0.11-1.79c-0.02-0.54-0.04-1.09-0.02-1.63
			C279.13,242.38,273.32,242.38,273.18,246.12L273.18,246.12z"/>
	</g>
	<g>
		<path class="st4" d="M435.1,381.46c-16.33,7.83-36.26,4.42-48.85-8.62c-11.67-12.09-14.84-30.82-7.4-45.97
			c4.39-8.93,11.73-15.77,20.73-19.9c3.39-1.56,0.45-6.56-2.93-5.01c-18.35,8.43-29.79,28.03-27.3,48.2
			c2.28,18.46,15.67,34.03,33.46,39.35c11.7,3.5,24.26,2.23,35.22-3.03C441.4,384.86,438.46,379.85,435.1,381.46L435.1,381.46z"/>
	</g>
	<g>
		<path class="st4" d="M414.07,390.65c-0.84-1.07,0.21,0.3,0.47,0.68c0.76,1.07,1.48,2.18,2.16,3.3c2.29,3.73,4.28,7.67,5.84,11.76
			c4.58,12.01,5.66,25.12,1.14,37.33c-3.51,9.5-10.18,17.38-17.78,23.92c-2.84,2.44,1.28,6.53,4.11,4.11
			c13.31-11.44,22.57-26.99,22.44-44.91c-0.09-11.81-3.93-23.48-9.83-33.63c-1.34-2.31-2.8-4.56-4.45-6.66
			C415.87,383.61,411.78,387.74,414.07,390.65L414.07,390.65z"/>
	</g>
	<g>
		<path class="st4" d="M374.14,330.54c-12.27-4.02-22.67-13.06-27.7-25.05c-4.94-11.79-4.25-25.52,1.84-36.75
			c12.53-23.09,43.27-30.5,65.33-16.58c11.9,7.51,19.59,20.37,20.38,34.43c0.21,3.72,6.02,3.74,5.81,0
			c-0.79-14.15-7.49-27.3-18.61-36.13c-11.41-9.05-26.13-12.77-40.5-10.64c-29.31,4.35-49.99,34.15-41.32,63.04
			c4.78,15.93,17.55,28.14,33.23,33.27C376.15,337.31,377.68,331.7,374.14,330.54L374.14,330.54z"/>
	</g>
	<g>
		<path class="st4" d="M375.62,279.54c12.85-11.22,31.4-12.84,45.91-3.87c14.03,8.67,21.61,25.1,20.71,41.37
			c-0.57,10.4-4.77,20.37-11.84,28.02c-2.53,2.74,1.56,6.86,4.11,4.11c14.1-15.26,17.35-37.87,8.91-56.74
			c-7.15-15.98-22.82-27.64-40.49-28.41c-11.62-0.5-22.73,3.83-31.43,11.43C368.7,277.9,372.82,281.99,375.62,279.54L375.62,279.54z
			"/>
	</g>
	<path class="st3" d="M432.37,373.41c0,0,25.96,7.62,24.54,46.78c-1.42,39.17-15.61,50.14-20.35,61.24
		c-4.74,11.1,18.01,23.55,33.16,7.94c15.14-15.6,29-49.18,21.53-79.99c-7.47-30.81-17.14-39.11-34.34-50.33
		C439.72,347.85,417.96,358.73,432.37,373.41z"/>
	<g>
		<path class="st4" d="M405.96,350.09c20.66-2.63,41.38,3.55,57.08,17.29c15.03,13.17,24.69,31.96,27.02,51.79
			c2.41,20.5-2.52,41.49-14.35,58.46c-11.16,16-28.28,27.48-47.53,30.97c-25.38,4.61-40.07,2.91-56.8-16.3
			c-2.46-2.82-6.55,1.3-4.11,4.11c16.13,18.52,29.34,20.72,54.02,18.87c20.82-1.56,40.24-11.72,53.83-27.51
			c29.06-33.76,28.13-86.82-2.54-119.26c-17.09-18.08-41.87-27.39-66.62-24.23C402.3,344.75,402.26,350.56,405.96,350.09
			L405.96,350.09z"/>
	</g>
	<path class="st3" d="M81.03,411.23c0,0,10.41-38.21,31.49-50.52c21.08-12.31,30.46-15.15,39.17-15.66
		c8.71-0.51,16.32,1.44,14.69,6.07c-1.63,4.62-29.65,11.3-35.09,28.9c-5.44,17.61-16.32,47.4-4.62,70.04
		c11.7,22.64,20.4,45.76,12.24,47.39c-8.16,1.63-48.82-12.41-55.28-43.33C77.16,423.19,78.86,420.19,81.03,411.23z"/>
	<g>
		<g>
			<path class="st4" d="M135.07,384.41c18.53,8.89,41.12,5.53,55.63-9.26c13.58-13.84,17.14-34.98,8.92-52.53
				c-4.7-10.04-13.13-18.12-23.17-22.73c-3.37-1.55-6.33,3.46-2.93,5.01c16.24,7.46,26.39,24.05,24.56,42
				c-1.63,16.01-13.34,29.85-28.58,34.7c-10.36,3.3-21.68,2.49-31.49-2.21C134.65,377.79,131.7,382.79,135.07,384.41L135.07,384.41z
				"/>
		</g>
		<g>
			<path class="st4" d="M154.92,384.48c-12.74,16.18-18.4,39.91-10.85,59.42c3.94,10.17,10.79,18.71,19.01,25.78
				c2.82,2.42,6.95-1.66,4.11-4.11c-12.47-10.72-21.15-24.94-20.72-41.77c0.27-10.59,3.87-20.97,9.21-30.05
				c0.82-1.39,1.68-2.75,2.59-4.08c0.31-0.45,1.59-2.14,0.76-1.09C161.32,385.68,157.24,381.55,154.92,384.48L154.92,384.48z"/>
		</g>
		<g>
			<path class="st4" d="M200.51,334.08c13.84-4.53,25.53-14.54,31.3-28.02c5.72-13.36,5.1-28.76-1.62-41.64
				c-13.76-26.39-49.09-35.11-73.95-19.13c-13.51,8.69-22.04,23.2-22.94,39.24c-0.21,3.73,5.6,3.72,5.81,0
				c1.48-26.41,26.86-45.15,52.57-41.04c25.73,4.12,44.01,29.78,36.57,55.38c-4.1,14.12-15.43,25.06-29.29,29.6
				C195.43,329.64,196.94,335.25,200.51,334.08L200.51,334.08z"/>
		</g>
		<g>
			<path class="st4" d="M201.58,273.37c-14.78-12.9-36.13-15.17-52.95-4.78c-15.83,9.78-24.77,28.42-23.56,46.86
				c0.77,11.81,5.47,22.95,13.51,31.64c2.54,2.75,6.64-1.36,4.11-4.11c-12.24-13.24-15.27-33.25-8.01-49.7
				c6.17-13.99,19.55-24.67,35.09-25.52c10.19-0.55,20.04,3.01,27.71,9.71C200.28,279.93,204.4,275.84,201.58,273.37L201.58,273.37z
				"/>
		</g>
		<g>
			<path class="st4" d="M167.14,342.22c-20.21-2.57-40.66,3.06-56.82,15.43c-15.45,11.84-26.39,29.03-31.04,47.9
				c-9.49,38.56,7.72,82.04,44.07,99.91c22.48,11.05,48.96,10.31,70.96-1.61c3.29-1.78,0.36-6.8-2.93-5.01
				c-18.55,10.05-40.67,11.51-60.3,3.75c-16.52-6.53-30.1-19.37-38.55-34.88c-17.91-32.86-11.41-76.07,16.4-101.38
				c15.82-14.4,37.01-21,58.2-18.3C170.84,348.5,170.8,342.69,167.14,342.22L167.14,342.22z"/>
		</g>
	</g>
	<g>
		<g>
			<path class="st5" d="M147.88,282.56c-12.73,11.27-15.68,30.41-7.7,45.27c1.77,3.29,6.78,0.36,5.01-2.93
				c-6.81-12.68-3.97-28.71,6.79-38.24C154.79,284.19,150.67,280.09,147.88,282.56L147.88,282.56z"/>
		</g>
		<g>
			<path class="st5" d="M171.6,274.53c-4.79-0.41-9.69,0.33-14.14,2.15c-0.73,0.3-1.32,0.63-1.74,1.33
				c-0.36,0.62-0.52,1.54-0.29,2.24c0.44,1.35,2.07,2.64,3.57,2.03c2.05-0.83,4.18-1.45,6.36-1.8c0.12-0.02,0.24-0.04,0.36-0.06
				c-0.37,0.05-0.39,0.05-0.05,0.01c0.24-0.03,0.48-0.06,0.73-0.08c0.57-0.05,1.14-0.09,1.71-0.11c1.16-0.04,2.33,0,3.49,0.1
				c1.52,0.13,2.97-1.43,2.9-2.9C174.43,275.75,173.23,274.67,171.6,274.53L171.6,274.53z"/>
		</g>
		<g>
			<path class="st5" d="M269.39,340.19c1.86,0.14,3.74,0.14,5.6,0.04c0.77-0.04,1.5-0.29,2.05-0.85c0.5-0.5,0.88-1.33,0.85-2.05
				c-0.03-0.75-0.28-1.53-0.85-2.05c-0.55-0.5-1.28-0.89-2.05-0.85c-1.87,0.11-3.74,0.1-5.6-0.04c-0.71-0.05-1.57,0.36-2.05,0.85
				c-0.5,0.5-0.88,1.33-0.85,2.05c0.03,0.75,0.28,1.53,0.85,2.05C267.93,339.88,268.59,340.13,269.39,340.19L269.39,340.19z"/>
		</g>
		<g>
			<path class="st5" d="M244.25,314.53c0.01,6.67,3.01,13.79,7.74,18.43c2.48,2.43,5.42,4.16,8.64,5.41
				c1.46,0.57,3.19-0.62,3.57-2.03c0.45-1.64-0.56-3-2.03-3.57c-0.19-0.07-0.37-0.14-0.56-0.22c0.06,0.03,0.32,0.14,0.02,0
				c-0.31-0.14-0.61-0.28-0.91-0.43c-0.58-0.29-1.14-0.61-1.69-0.95c-0.52-0.33-1.03-0.68-1.53-1.05c0.43,0.32-0.19-0.16-0.31-0.26
				c-0.25-0.22-0.5-0.44-0.75-0.66c-0.41-0.39-0.81-0.79-1.19-1.21c-0.16-0.18-0.31-0.35-0.47-0.53c-0.1-0.12-0.2-0.24-0.3-0.36
				c-0.27-0.32,0.28,0.38,0.03,0.04c-0.64-0.86-1.23-1.76-1.74-2.7c-0.22-0.4-0.43-0.81-0.62-1.22c-0.1-0.22-0.2-0.44-0.3-0.65
				c-0.07-0.15-0.19-0.51,0.06,0.14c-0.05-0.12-0.1-0.24-0.15-0.37c-0.31-0.81-0.59-1.63-0.83-2.47c-0.21-0.75-0.39-1.51-0.54-2.28
				c-0.06-0.32-0.12-0.64-0.17-0.96c-0.02-0.13-0.03-0.25-0.06-0.38c-0.01-0.06,0.09,0.8,0.03,0.19c-0.07-0.64-0.14-1.27-0.14-1.91
				c0-1.57-1.33-2.9-2.9-2.9C245.58,311.63,244.24,312.96,244.25,314.53L244.25,314.53z"/>
		</g>
		<g>
			<path class="st5" d="M292.46,330.18c2.58,0.53,5.3,0.71,7.92,0.55c0.77-0.05,1.49-0.29,2.05-0.85c0.5-0.5,0.88-1.33,0.85-2.05
				c-0.03-0.75-0.28-1.53-0.85-2.05c-0.55-0.5-1.28-0.9-2.05-0.85c-1.93,0.12-3.88,0.03-5.8-0.23c0.26,0.03,0.51,0.07,0.77,0.1
				c-0.45-0.06-0.9-0.13-1.35-0.22c-0.77-0.16-1.54-0.11-2.24,0.29c-0.6,0.35-1.18,1.04-1.33,1.74c-0.17,0.74-0.13,1.58,0.29,2.24
				C291.12,329.46,291.73,330.03,292.46,330.18L292.46,330.18z"/>
		</g>
		<g>
			<path class="st5" d="M227.59,221.77c-6.88,0.93-13.52,3.43-19.32,7.24c-1.31,0.86-1.86,2.57-1.04,3.97
				c0.76,1.3,2.66,1.91,3.97,1.04c5.5-3.61,11.33-5.76,17.93-6.66c1.51-0.2,2.47-2.22,2.03-3.57
				C230.62,222.13,229.21,221.55,227.59,221.77L227.59,221.77z"/>
		</g>
		<g>
			<path class="st5" d="M246.12,223.18c-2.7-0.62-5.44-1.03-8.2-1.29c-0.7-0.06-1.57,0.37-2.05,0.85c-0.5,0.5-0.88,1.33-0.85,2.05
				c0.03,0.75,0.28,1.53,0.85,2.05c0.6,0.55,1.25,0.78,2.05,0.85c0.82,0.08,1.63,0.17,2.45,0.28c-0.26-0.03-0.51-0.07-0.77-0.1
				c1.67,0.23,3.33,0.53,4.98,0.91c0.75,0.17,1.56,0.1,2.24-0.29c0.6-0.35,1.18-1.04,1.33-1.74
				C248.48,225.28,247.7,223.55,246.12,223.18L246.12,223.18z"/>
		</g>
		<g>
			<path class="st5" d="M288.2,263.16c3.84,7.07,9.87,12.71,17.12,16.18c1.37,0.65,3.2,0.42,3.97-1.04c0.68-1.3,0.42-3.27-1.04-3.97
				c-1.9-0.91-3.73-1.95-5.45-3.16c-0.18-0.12-0.35-0.25-0.53-0.38c-0.07-0.05-0.68-0.51-0.42-0.31c0.29,0.22-0.25-0.2-0.3-0.24
				c-0.2-0.16-0.39-0.32-0.58-0.48c-0.72-0.6-1.41-1.23-2.07-1.89c-0.61-0.6-1.2-1.23-1.76-1.88c-0.27-0.32-0.54-0.64-0.8-0.96
				c-0.17-0.22-0.4-0.51-0.1-0.12c-0.13-0.18-0.27-0.35-0.4-0.53c-0.97-1.32-1.84-2.71-2.62-4.15c-0.72-1.34-2.68-1.87-3.97-1.04
				C287.88,260.06,287.42,261.73,288.2,263.16L288.2,263.16z"/>
		</g>
		<g>
			<path class="st5" d="M283.57,249.12c0.33,2.29,0.85,4.55,1.55,6.76c0.23,0.71,0.68,1.35,1.33,1.74c0.62,0.36,1.54,0.52,2.24,0.29
				c0.7-0.23,1.38-0.66,1.74-1.33c0.36-0.68,0.53-1.49,0.29-2.24c-0.7-2.21-1.22-4.47-1.55-6.76c-0.1-0.67-0.78-1.41-1.33-1.74
				c-0.62-0.36-1.54-0.52-2.24-0.29c-0.7,0.23-1.38,0.66-1.74,1.33c-0.1,0.23-0.2,0.46-0.29,0.69
				C283.43,248.1,283.43,248.61,283.57,249.12L283.57,249.12z"/>
		</g>
		<g>
			<g>
				<path class="st5" d="M104.64,327.82c-0.4-7.32,1.76-14.59,6.34-20.27c0.98-1.22,1.19-2.91,0-4.11c-1.02-1.02-3.12-1.23-4.11,0
					c-5.57,6.9-8.54,15.48-8.04,24.38c0.09,1.57,1.27,2.9,2.9,2.9C103.24,330.72,104.73,329.39,104.64,327.82L104.64,327.82z"/>
			</g>
			<g>
				<path class="st5" d="M108.69,340.83c-0.75-1.27-1.41-2.58-1.99-3.93c0.1,0.23,0.2,0.46,0.29,0.69
					c-0.38-0.91-0.72-1.85-1.03-2.79c-0.23-0.71-0.68-1.35-1.33-1.74c-0.62-0.36-1.54-0.52-2.24-0.29c-0.7,0.23-1.38,0.66-1.74,1.33
					c-0.36,0.68-0.53,1.49-0.29,2.24c0.82,2.58,1.93,5.09,3.3,7.42c0.37,0.63,1.03,1.14,1.74,1.33c0.69,0.19,1.62,0.1,2.24-0.29
					C108.96,343.95,109.52,342.23,108.69,340.83L108.69,340.83z"/>
			</g>
		</g>
		<g>
			<g>
				<path class="st5" d="M61.39,419.38c-0.26-2.71-0.3-5.43-0.13-8.15c0.09-1.52-1.4-2.97-2.9-2.9c-1.65,0.07-2.8,1.28-2.9,2.9
					c-0.17,2.72-0.13,5.44,0.13,8.15c0.07,0.79,0.27,1.48,0.85,2.05c0.5,0.5,1.33,0.88,2.05,0.85c0.75-0.03,1.53-0.28,2.05-0.85
					C61.03,420.89,61.46,420.13,61.39,419.38L61.39,419.38z"/>
			</g>
			<g>
				<path class="st5" d="M66.11,438.37c-0.22-0.46-0.42-0.92-0.63-1.38c-0.13-0.3-0.11-0.27,0.04,0.09
					c-0.06-0.13-0.11-0.27-0.17-0.4c-0.08-0.2-0.16-0.41-0.24-0.61c-0.39-0.99-0.74-1.99-1.05-3.01c-0.63-2.04-1.12-4.11-1.49-6.22
					c-0.26-1.5-2.18-2.48-3.57-2.03c-1.62,0.52-2.3,1.96-2.03,3.57c0.77,4.48,2.18,8.8,4.12,12.91c0.65,1.38,2.73,1.84,3.97,1.04
					C66.49,441.43,66.81,439.84,66.11,438.37L66.11,438.37z"/>
			</g>
		</g>
		<g>
			<g>
				<path class="st5" d="M89.24,411.62c-6.03,29.03,5.31,59.9,30.57,76.12c3.15,2.02,6.07-3,2.93-5.01
					c-22.98-14.75-33.39-43.16-27.91-69.56C95.6,409.51,90,407.96,89.24,411.62L89.24,411.62z"/>
			</g>
			<g>
				<path class="st5" d="M96.92,391.44c-1.7,3.02-3.16,6.17-4.44,9.41c-0.26,0.66-0.05,1.65,0.29,2.24c0.35,0.6,1.04,1.18,1.74,1.33
					c0.74,0.17,1.58,0.13,2.24-0.29c0.67-0.43,1.04-0.99,1.33-1.74c0.22-0.56,0.45-1.12,0.68-1.68c-0.1,0.23-0.2,0.46-0.29,0.69
					c1.02-2.41,2.17-4.75,3.46-7.03c0.75-1.32,0.36-3.23-1.04-3.97C99.52,389.67,97.72,390.02,96.92,391.44L96.92,391.44z"/>
			</g>
		</g>
		<g>
			<g>
				<path class="st5" d="M526.18,464.58c-3.53,16.88-18.28,29.21-35.59,29.33c-3.74,0.03-3.74,5.83,0,5.81
					c19.75-0.14,37.14-14.22,41.19-33.6C532.54,462.48,526.95,460.92,526.18,464.58L526.18,464.58z"/>
			</g>
			<g>
				<path class="st5" d="M525.91,449.17c0.3,1.28,0.54,2.57,0.71,3.87c-0.03-0.26-0.07-0.51-0.1-0.77c0.23,1.73,0.34,3.48,0.34,5.23
					c0,1.52,1.33,2.97,2.9,2.9c1.57-0.07,2.91-1.28,2.9-2.9c-0.01-3.31-0.4-6.64-1.16-9.87c-0.35-1.48-2.12-2.5-3.57-2.03
					C526.39,446.1,525.54,447.59,525.91,449.17L525.91,449.17z"/>
			</g>
		</g>
		<g>
			<path class="st5" d="M473.42,410.16c9.29,31.48-5.8,67.97-37.85,78.95c-3.51,1.2-2,6.82,1.54,5.6c35-12,52.13-51.44,41.91-86.1
				C477.97,405.04,472.36,406.57,473.42,410.16L473.42,410.16z"/>
		</g>
		<g>
			<path class="st5" d="M457.18,383.32c1.92,1.87,3.72,3.86,5.39,5.96c0.09,0.12,0.19,0.24,0.28,0.36c0.04,0.05,0.37,0.43,0.12,0.16
				c-0.27-0.3,0.14,0.18,0.19,0.25c0.09,0.12,0.18,0.24,0.27,0.36c0.41,0.55,0.81,1.11,1.2,1.67c0.79,1.13,1.54,2.29,2.25,3.46
				c0.79,1.3,2.64,1.9,3.97,1.04c1.3-0.84,1.89-2.58,1.04-3.97c-2.97-4.87-6.54-9.4-10.62-13.39c-1.09-1.06-3.04-1.16-4.11,0
				C456.13,380.36,456.02,382.19,457.18,383.32L457.18,383.32z"/>
		</g>
		<g>
			<path class="st5" d="M425.62,291.79c9.71,12.21,10.1,29.8,1.43,42.63c-2.1,3.1,2.93,6.01,5.01,2.93
				c10.25-15.16,8.94-35.49-2.33-49.67C427.41,284.76,423.32,288.89,425.62,291.79L425.62,291.79z"/>
		</g>
		<g>
			<path class="st5" d="M409.19,280.78c0.92,0.26,1.83,0.55,2.73,0.88c0.37,0.14,0.78,0.37,1.16,0.46c-0.42-0.18-0.49-0.21-0.2-0.08
				c0.11,0.05,0.22,0.1,0.33,0.14c0.22,0.1,0.43,0.2,0.65,0.3c1.67,0.79,3.27,1.72,4.8,2.76c1.26,0.86,3.28,0.28,3.97-1.04
				c0.78-1.47,0.3-3.05-1.04-3.97c-3.3-2.26-7-3.97-10.85-5.04c-1.46-0.41-3.22,0.5-3.57,2.03
				C406.81,278.75,407.62,280.35,409.19,280.78L409.19,280.78z"/>
		</g>
	</g>
	<polygon class="st7" points="280.44,411.22 268.59,437.31 292.94,437.31 	"/>
	
		<ellipse transform="matrix(0.8977 -0.4407 0.4407 0.8977 -173.8606 107.4077)" class="st0" cx="144.34" cy="428.06" rx="27.62" ry="33.38"/>
	
		<ellipse transform="matrix(0.4407 -0.8977 0.8977 0.4407 -152.1124 611.9985)" class="st0" cx="415.04" cy="428.06" rx="33.38" ry="27.62"/>
	<ellipse class="st6" cx="341.78" cy="392.5" rx="44.5" ry="49.29"/>
	<ellipse class="st6" cx="219.53" cy="392.5" rx="47.65" ry="49.29"/>
	<ellipse cx="235.14" cy="394.19" rx="33.04" ry="41.44"/>
	<ellipse cx="353.19" cy="392.5" rx="33.75" ry="41.44"/>
	<path class="st4" d="M171.88,392.5c0,0-0.46-43.46,29.27-48.06c27.77-4.29,55.57-4.25,69.12,39.03
		C270.27,383.48,222.42,364.96,171.88,392.5z"/>
	<path class="st4" d="M296.82,387.68c0,0,4.01-41.94,38.83-44c34.92-2.07,47.62,15.44,50.63,39.8
		C386.28,383.48,316.04,373.93,296.82,387.68z"/>
	<path d="M171.88,327.64c0,0,36.45-5.38,63.26-2.57C235.14,325.07,201.08,312.29,171.88,327.64z"/>
	<path d="M370.73,327.64c0,0-36.45-5.38-63.26-2.57C307.47,325.07,341.53,312.29,370.73,327.64z"/>
	<path class="st7" d="M241.62,480.9c0,0,23.21-33.08,61.67-17.78C303.29,463.12,266.39,458.16,241.62,480.9z"/>
</g>
</svg>
