<?xml version="1.0" encoding="utf-8"?>
<!-- Generator: Adobe Illustrator 24.0.1, SVG Export Plug-In . SVG Version: 6.00 Build 0)  -->
<svg version="1.1" id="Capa_1" xmlns="http://www.w3.org/2000/svg" xmlns:xlink="http://www.w3.org/1999/xlink" x="0px" y="0px"
	 viewBox="0 0 566.93 566.93" style="enable-background:new 0 0 566.93 566.93;" xml:space="preserve">
<style type="text/css">
	.st0{fill:#F9D6E4;}
	.st1{fill:#45A759;}
	.st2{fill:#15632D;}
	.st3{fill:#F08CA7;}
	.st4{fill:#B52955;}
	.st5{fill:#F6BFD3;}
	.st6{fill:#FFFFFF;}
	.st7{fill:#CD94A9;}
	.st8{fill:#E16874;}
	.st9{fill:#EEEEEE;}
	.st10{fill:#C9C7C7;}
	.st11{clip-path:url(#SVGID_2_);}
	.st12{clip-path:url(#SVGID_2_);fill:#F08CA7;}
	.st13{fill:#CBC9CA;}
	.st14{fill:#E1E0E0;}
	.st15{fill:#B693C3;}
	.st16{fill:#F8DF28;}
	.st17{fill:#65A2D8;}
	.st18{fill:#DEE275;}
	.st19{fill:#FFDB43;}
	.st20{fill:#E75C2A;}
	.st21{fill:#F49D4E;}
	.st22{opacity:0.5;}
	.st23{fill:#F3B0CF;}
	.st24{fill:#704F9A;}
	.st25{fill:#616160;}
	.st26{fill:#5AE4A7;}
	.st27{fill:#FF0000;}
	.st28{fill:#82CEE0;}
	.st29{fill:#9E6D0B;}
	.st30{fill:#828E0C;}
	.st31{fill:#FFFF00;}
	.st32{clip-path:url(#SVGID_4_);}
	.st33{clip-path:url(#SVGID_4_);fill:#F08CA7;}
	.st34{clip-path:url(#SVGID_6_);}
	.st35{clip-path:url(#SVGID_6_);fill:#F08CA7;}
	.st36{fill:none;stroke:#B52955;stroke-width:3;stroke-linecap:round;stroke-linejoin:round;stroke-miterlimit:10;}
</style>
<g>
	<g>
		<path class="st3" d="M384.23,426.76c0,0-0.02-0.05-0.05-0.12C383.36,426.24,384.23,426.76,384.23,426.76z"/>
		<path class="st3" d="M548.23,356.01c-2.93-6.32-7.03-12.03-11.99-16.86c10.74-33.35-8.54-75.53-44.38-82.66
			c1.2-21.98-7.66-44.54-26.04-57.61c-7-4.97-15.09-7.95-23.6-8.9c-0.65-0.07-1.19,0.05-1.61,0.29c-1.44-1.58-1.88-3.06-1.88-3.06
			s-5.04-10.33-20.49-19.76c-15.44-9.44-32.86-4.49-38.36-3.07c-0.61,0.16-1.15,0.25-1.63,0.29c-8.77-35.56-51.61-53.72-84.88-42.42
			c-9.8,3.33-18.71,8.76-26.51,15.52c-26.05-11.41-57.12-3.16-73.28,20.62c-0.29,0.43-0.45,0.86-0.5,1.27
			c-1.6,0.38-2.77,0.33-2.77,0.33s0.81-2.35-21.02,3.13c-21.84,5.49-27.09,25.11-29.17,30.57c-0.17,0.44-0.36,0.84-0.56,1.21
			c-0.6-0.41-1.37-0.6-2.26-0.43c-30.33,5.9-50.61,35.45-45.76,65.76c-29.41,11.79-45.31,42.46-45.83,73.1c0,0-0.01,0.01-0.01,0.01
			c-18.36,17.75-24.42,44.99-14.08,68.52c9.17,20.88,29.77,35,52.13,37.96c15.58,2.06,31.5-1.19,45.01-9.21
			c0.56-0.33,0.93-0.76,1.16-1.22c0.84,0.21,1.35,0.44,1.35,0.44s12.2,3.81,22.2,5.32c10,1.5,23.4,1.33,33.14-4.8
			c9.74-6.13,12.1-0.9,12.1-0.9s11.54,7.86,20.51,13.93c8.96,6.07,22.62,5.29,30.24,3.91c7.62-1.38,26.32-8.46,31.72-16.17
			c5.4-7.71,7.62-1.84,7.62-1.84s7.2,7.47,24.1,14.46c16.9,6.99,32.79,2.25,41.07,0c8.28-2.25,19.46-9.62,24.07-15.4
			c4.13-5.19,5.85-2.35,6.16-1.71c0.75,0.36,2.92,1.49,8.49,4.49c11.66,6.27,26.59,7.16,39.19,5.84c12.6-1.32,23.7-5.47,27.27-8.82
			c0.97-0.91,1.89-1.49,2.81-1.78c-0.05,0.96,0.32,1.95,1.33,2.63c22.39,15.07,52.83,12.61,72.39-5.97
			C553.7,405.9,558.66,378.51,548.23,356.01z"/>
	</g>
	<path class="st3" d="M98.37,232.31c0,0,3.6-16.31,16.33-24.48c12.74-8.17,20.25-10.97,20.25-10.97s5.1,0.61,7.18-4.85
		c2.08-5.46,7.33-25.09,29.17-30.57c21.84-5.49,21.02-3.13,21.02-3.13s6.15,0.26,9.51-4.99c3.36-5.26,16.17-17.33,32.48-18.63
		c16.31-1.31,31.27,3.18,31.27,3.18s2.63,4.02,11.08-3.42c8.45-7.44,21.33-14.92,41.42-13.67c20.09,1.25,32.5,5.67,41.22,14.67
		s16.12,19.68,16.12,19.68l1.01,5.18c0,0-0.05,3.81,5.45,2.4c5.5-1.41,22.92-6.36,38.36,3.07c15.44,9.44,20.49,19.76,20.49,19.76
		s1.38,4.69,7.38,6.3c6.01,1.61,28.88,9.75,35.86,28.77c6.98,19.02,7.03,27.02,7.03,27.02l0.08,5.62c0,0,0.05,2.6,5.22,5.16
		c5.17,2.56,23.56,6.64,33,26.14c9.44,19.5,10.46,30.58,9.1,38.34s-4.78,15.08-1.74,17.17c3.04,2.09,16.75,19.4,16.13,36.99
		c-0.62,17.59-6.88,30.11-13.03,37.77c-6.15,7.66-14.32,15.3-29.28,18.06c-14.96,2.76-33.13-0.68-38.03-4.71
		c-4.91-4.03-7.73-5.05-11.31-1.7c-3.57,3.35-14.67,7.5-27.27,8.81c-12.6,1.32-27.53,0.43-39.19-5.84
		c-11.66-6.27-8.44-4.37-8.44-4.37s-1.61-4.19-6.22,1.59c-4.6,5.78-15.79,13.15-24.07,15.4c-8.28,2.25-24.17,6.99-41.07,0
		c-16.9-6.99-24.1-14.46-24.1-14.46s-2.22-5.87-7.62,1.84c-5.4,7.71-24.1,14.79-31.72,16.17c-7.62,1.38-21.28,2.15-30.24-3.91
		c-8.96-6.07-22.87-19.16-32.61-13.03c-9.74,6.13-23.14,6.31-33.14,4.8c-10-1.5-22.2-5.32-22.2-5.32s-5.3-2.4-9.7,1.29
		c-4.4,3.69-37.56,12.51-57.13,0c-19.58-12.51-31.37-25.2-34.13-43.51c-2.76-18.31,0.78-28.92,5.79-36.78
		c5.01-7.86,8.06-11.6,8.06-11.6s3.93-2.96,4.55-9.69c0.63-6.74,3.61-32.85,16.56-45.67c12.95-12.82,21.59-18.28,21.59-18.28
		s7.91-0.75,7.39-7.12C95.73,250.4,97.93,236.5,98.37,232.31z"/>
	<g>
		<path class="st4" d="M392.45,390.84c3.78-1.91,7.84-1.96,11.92-1.11c4.29,0.89,8.99,2.55,12.1,5.75
			c6.29,6.47,6.61,16.4,6.26,24.85c-0.12,2.88,4.36,3.46,4.48,0.55c0.42-10.13-0.25-21.56-8.03-29.04
			c-3.73-3.59-8.92-5.42-13.89-6.52c-4.9-1.08-10.08-0.93-14.62,1.37C388.08,388,389.84,392.16,392.45,390.84L392.45,390.84z"/>
	</g>
	<g>
		<path class="st4" d="M169.71,414.82c-1.91-3.78-1.96-7.84-1.11-11.92c0.89-4.29,2.55-8.99,5.75-12.1
			c6.47-6.29,16.4-6.61,24.85-6.26c2.88,0.12,3.46-4.36,0.55-4.48c-10.13-0.42-21.56,0.25-29.04,8.03
			c-3.59,3.73-5.42,8.92-6.52,13.89c-1.08,4.9-0.93,10.08,1.37,14.62C166.86,419.18,171.02,417.42,169.71,414.82L169.71,414.82z"/>
	</g>
	<circle class="st0" cx="288.57" cy="315.2" r="129.7"/>
	<path class="st3" d="M354.26,224.89c-0.82-1.58-2.38-1.77-3.62-1.17c-1.5-3.58-2.86-7.07-2.69-7.94c0.37-1.87-0.49-5.83-0.49-5.83
		s-13.83,0.82-18.8,0c-4.97-0.82-23.13-6.11-26.05-8.1c-2.92-1.99-5.23-3.75-7.2,0c-1.97,3.75-4.47,7.18-15.27,13.72
		c-10.8,6.54-15.06,8.93-18.91,9.04c-3.84,0.1-13.01-1.26-13.01-1.26s-0.03-0.01-0.09-0.01c-0.87-2.77-5.69-2.43-5.78,1
		c-0.45,16.82,7.04,36.89,24.62,41.9c10.2,2.91,25.73,1.75,28.59-10.73c0.05-0.2,0.08-0.4,0.12-0.6c1.59,0.41,3.19,0.73,4.81,0.96
		c7.07,0.99,15.1,0.24,20.84-4.41c1.44-1.16,2.61-2.55,3.54-4.08c5.48,3.77,12.21,6.22,18.91,5.01c7.77-1.4,12.97-7.92,13.38-15.67
		C357.35,232.57,356.16,228.54,354.26,224.89z"/>
	<path class="st3" d="M197.07,252.78c0,0,31.77,20.59,68.65-18.03c0,0,36.76-38.11-8.86-38.62
		C211.24,195.63,194.71,233.22,197.07,252.78z"/>
	<path class="st3" d="M338.7,233.61c0,0,6.59,39.97,58.48,40.13c0,0,32.04-37.46,3.2-62.37C371.54,186.45,338.7,203.46,338.7,233.61
		z"/>
	<path class="st3" d="M316.78,176.5l-36.65,39.07c0,0-9.06,14.05-37.8,8.76c0,0-10.68,13.43-38.3,23.94c0,0,17.4,53.08-44.86,57.04
		C159.18,305.32,134.93,163.16,316.78,176.5z"/>
	<path class="st3" d="M397.18,273.73c0,0-21.49,51.99,4.57,61.06c26.06,9.07,74.44-1.17,47.59-45.18S397.18,273.73,397.18,273.73z"
		/>
	<path class="st3" d="M174.25,273.73c0,0,21.49,51.99-4.57,61.06s-74.44-1.17-47.59-45.18S174.25,273.73,174.25,273.73z"/>
	<path class="st3" d="M285.87,169.77c0,0,8.62,56.12,81.74,35.93C367.61,205.7,355.8,139.95,285.87,169.77z"/>
	<path class="st3" d="M348.66,189.99c0,0-20.77,48.73,33.8,60.38c0,0-16.25,68.85,73.42,53.73
		C455.88,304.1,463.45,161.86,348.66,189.99z"/>
	<g>
		<path class="st4" d="M294.16,197.48c-4.99,8.6-12.75,15.4-21.78,19.52c-10.5,4.79-22.2,4.84-33.05,1.2
			c-3.62-1.21-5.17,4.5-1.57,5.7c12.13,4.06,25.07,3.71,36.79-1.43c10.24-4.49,19.1-12.34,24.71-22.01
			C301.18,197.17,296.07,194.19,294.16,197.48L294.16,197.48z"/>
	</g>
	<g>
		<path class="st4" d="M279.63,164.38c-0.23,6.11,1.29,12.61,3.53,18.25c5.08,12.77,15.21,22.07,28.16,26.59
			c11.27,3.94,23.58,4.23,35.35,3.13c3.76-0.35,3.79-6.27,0-5.91c-16.66,1.56-35.86,0.37-48.64-11.83
			c-6.9-6.58-10.77-15.35-12.14-24.68c-0.12-0.82,0.08,0.63-0.02-0.16c-0.03-0.22-0.06-0.45-0.08-0.67
			c-0.04-0.41-0.09-0.82-0.12-1.23c-0.05-0.61-0.09-1.22-0.11-1.83c-0.02-0.55-0.04-1.11-0.02-1.66
			C285.69,160.57,279.77,160.58,279.63,164.38L279.63,164.38z"/>
	</g>
	<g>
		<path class="st4" d="M444.56,302.24c-16.63,7.98-36.94,4.5-49.76-8.78c-11.89-12.31-15.12-31.39-7.53-46.82
			c4.47-9.09,11.95-16.06,21.12-20.27c3.46-1.59,0.45-6.69-2.99-5.11c-18.69,8.58-30.34,28.55-27.81,49.09
			c2.32,18.8,15.96,34.66,34.08,40.08c11.92,3.57,24.71,2.27,35.87-3.08C450.97,305.7,447.97,300.6,444.56,302.24L444.56,302.24z"/>
	</g>
	<g>
		<path class="st4" d="M423.14,311.6c-0.86-1.09,0.22,0.31,0.48,0.69c0.77,1.09,1.5,2.22,2.2,3.36c2.33,3.8,4.36,7.81,5.95,11.98
			c4.67,12.24,5.76,25.59,1.16,38.03c-3.58,9.68-10.37,17.71-18.11,24.36c-2.89,2.49,1.31,6.65,4.18,4.18
			c13.56-11.66,22.99-27.5,22.86-45.74c-0.09-12.03-4-23.91-10.01-34.25c-1.37-2.35-2.85-4.65-4.53-6.79
			C424.97,304.43,420.81,308.64,423.14,311.6L423.14,311.6z"/>
	</g>
	<g>
		<path class="st4" d="M382.46,250.37c-12.5-4.09-23.09-13.3-28.21-25.51c-5.03-12.01-4.33-26,1.88-37.43
			c12.76-23.52,44.08-31.07,66.54-16.89c12.12,7.65,19.96,20.75,20.76,35.07c0.21,3.78,6.13,3.81,5.91,0
			c-0.81-14.41-7.63-27.81-18.96-36.8c-11.62-9.22-26.62-13.01-41.25-10.83c-29.85,4.43-50.92,34.79-42.09,64.21
			c4.87,16.23,17.88,28.66,33.84,33.89C384.51,257.26,386.07,251.56,382.46,250.37L382.46,250.37z"/>
	</g>
	<g>
		<path class="st4" d="M383.98,198.42c13.09-11.43,31.98-13.08,46.76-3.94c14.29,8.83,22.01,25.57,21.1,42.14
			c-0.58,10.59-4.86,20.75-12.06,28.54c-2.58,2.79,1.59,6.98,4.18,4.18c14.37-15.54,17.68-38.57,9.08-57.79
			c-7.28-16.28-23.24-28.16-41.24-28.94c-11.84-0.51-23.15,3.9-32.01,11.64C376.92,196.75,381.12,200.92,383.98,198.42
			L383.98,198.42z"/>
	</g>
	<path class="st3" d="M441.78,294.04c0,0,26.45,7.76,25,47.65c-1.45,39.89-15.9,51.07-20.73,62.38
		c-4.82,11.31,18.35,23.98,33.77,8.09c15.43-15.89,29.54-50.09,21.93-81.48c-7.61-31.38-17.46-39.83-34.98-51.26
		C449.26,268,427.1,279.08,441.78,294.04z"/>
	<g>
		<path class="st4" d="M414.88,270.28c21.04-2.68,42.15,3.61,58.14,17.62c15.31,13.41,25.15,32.56,27.52,52.75
			c2.45,20.88-2.56,42.26-14.62,59.54c-11.36,16.29-28.81,27.99-48.41,31.55c-25.86,4.7-40.81,2.97-57.86-16.6
			c-2.5-2.88-6.67,1.32-4.18,4.18c16.43,18.86,29.89,21.11,55.03,19.22c21.2-1.59,40.99-11.94,54.83-28.02
			c29.6-34.39,28.65-88.43-2.59-121.48c-17.41-18.42-42.65-27.9-67.86-24.68C411.15,264.84,411.1,270.77,414.88,270.28
			L414.88,270.28z"/>
	</g>
	<path class="st3" d="M83.91,332.56c0,0,10.6-38.92,32.07-51.46c21.47-12.54,31.03-15.43,39.89-15.95
		c8.87-0.52,16.62,1.47,14.96,6.18c-1.66,4.71-30.2,11.51-35.74,29.44c-5.54,17.93-16.62,48.28-4.71,71.34
		c11.91,23.06,20.78,46.61,12.47,48.27c-8.31,1.66-49.73-12.64-56.31-44.13C79.97,344.74,81.7,341.69,83.91,332.56z"/>
	<g>
		<g>
			<path class="st4" d="M138.95,305.24c18.87,9.05,41.88,5.64,56.66-9.43c13.83-14.1,17.46-35.63,9.09-53.51
				c-4.79-10.23-13.37-18.46-23.6-23.15c-3.44-1.58-6.44,3.52-2.99,5.11c16.54,7.59,26.88,24.5,25.01,42.78
				c-1.66,16.31-13.59,30.41-29.12,35.35c-10.55,3.36-22.09,2.54-32.07-2.25C138.52,298.5,135.52,303.6,138.95,305.24L138.95,305.24
				z"/>
		</g>
		<g>
			<path class="st4" d="M159.18,305.32c-12.98,16.48-18.74,40.65-11.05,60.53c4.01,10.36,10.99,19.06,19.36,26.26
				c2.87,2.47,7.07-1.7,4.18-4.18c-12.7-10.92-21.54-25.41-21.11-42.55c0.28-10.79,3.94-21.36,9.38-30.6
				c0.83-1.41,1.71-2.8,2.64-4.15c0.31-0.45,1.62-2.18,0.78-1.11C165.69,306.54,161.53,302.33,159.18,305.32L159.18,305.32z"/>
		</g>
		<g>
			<path class="st4" d="M205.61,253.98c14.1-4.62,26-14.81,31.88-28.54c5.82-13.61,5.2-29.29-1.65-42.41
				c-14.02-26.88-50-35.77-75.33-19.48c-13.76,8.85-22.44,23.63-23.36,39.97c-0.21,3.8,5.7,3.79,5.91,0
				c1.51-26.9,27.35-45.99,53.55-41.8c26.2,4.19,44.83,30.33,37.25,56.41c-4.18,14.38-15.72,25.53-29.83,30.15
				C200.43,249.45,201.98,255.17,205.61,253.98L205.61,253.98z"/>
		</g>
		<g>
			<path class="st4" d="M206.7,192.14c-15.05-13.14-36.81-15.45-53.93-4.87c-16.12,9.96-25.23,28.95-24,47.73
				c0.79,12.03,5.57,23.37,13.76,32.23c2.59,2.8,6.76-1.39,4.18-4.18c-12.46-13.48-15.55-33.87-8.16-50.62
				c6.29-14.25,19.91-25.13,35.74-25.99c10.38-0.56,20.42,3.07,28.22,9.89C205.37,198.82,209.57,194.65,206.7,192.14L206.7,192.14z"
				/>
		</g>
		<g>
			<path class="st4" d="M171.62,262.27c-20.58-2.62-41.42,3.12-57.88,15.72C98,290.05,86.86,307.56,82.13,326.78
				c-9.67,39.27,7.86,83.57,44.89,101.76c22.9,11.25,49.87,10.5,72.28-1.64c3.35-1.81,0.37-6.92-2.99-5.11
				c-18.9,10.23-41.42,11.73-61.42,3.82c-16.82-6.66-30.66-19.73-39.27-35.53C77.38,356.62,84,312.6,112.33,286.82
				c16.12-14.67,37.69-21.39,59.29-18.64C175.39,268.67,175.35,262.75,171.62,262.27L171.62,262.27z"/>
		</g>
	</g>
	<g>
		<g>
			<path class="st5" d="M152.01,201.5c-12.97,11.47-15.98,30.98-7.84,46.11c1.8,3.35,6.91,0.37,5.11-2.99
				c-6.94-12.92-4.05-29.25,6.92-38.95C159.04,203.16,154.85,198.99,152.01,201.5L152.01,201.5z"/>
		</g>
		<g>
			<path class="st5" d="M176.16,193.32c-4.87-0.42-9.87,0.34-14.4,2.19c-0.74,0.3-1.35,0.64-1.77,1.36
				c-0.37,0.63-0.53,1.57-0.3,2.28c0.45,1.38,2.1,2.69,3.64,2.07c2.09-0.85,4.25-1.47,6.48-1.83c0.12-0.02,0.24-0.04,0.37-0.06
				c-0.38,0.05-0.39,0.05-0.05,0.01c0.25-0.03,0.49-0.06,0.74-0.08c0.58-0.06,1.16-0.09,1.75-0.11c1.18-0.04,2.37,0,3.55,0.1
				c1.55,0.13,3.02-1.45,2.96-2.96C179.04,194.56,177.82,193.46,176.16,193.32L176.16,193.32z"/>
		</g>
		<g>
			<path class="st5" d="M275.77,260.2c1.9,0.15,3.81,0.15,5.71,0.04c0.78-0.04,1.52-0.3,2.09-0.87c0.51-0.51,0.9-1.35,0.87-2.09
				c-0.03-0.76-0.29-1.56-0.87-2.09c-0.56-0.51-1.31-0.91-2.09-0.87c-1.9,0.11-3.81,0.11-5.71-0.04c-0.72-0.06-1.59,0.37-2.09,0.87
				c-0.51,0.51-0.9,1.35-0.87,2.09c0.03,0.76,0.29,1.56,0.87,2.09C274.28,259.89,274.95,260.14,275.77,260.2L275.77,260.2z"/>
		</g>
		<g>
			<path class="st5" d="M250.16,234.06c0.01,6.79,3.06,14.04,7.88,18.77c2.52,2.48,5.53,4.24,8.8,5.51
				c1.49,0.58,3.25-0.64,3.64-2.07c0.46-1.67-0.57-3.06-2.07-3.64c-0.19-0.07-0.38-0.15-0.57-0.23c0.06,0.03,0.32,0.14,0.02,0
				c-0.31-0.14-0.62-0.29-0.93-0.44c-0.59-0.3-1.16-0.62-1.72-0.97c-0.53-0.33-1.05-0.69-1.55-1.07c0.44,0.33-0.19-0.16-0.32-0.27
				c-0.26-0.22-0.51-0.44-0.76-0.68c-0.42-0.39-0.83-0.81-1.21-1.23c-0.16-0.18-0.32-0.36-0.48-0.54c-0.1-0.12-0.2-0.25-0.3-0.37
				c-0.28-0.33,0.28,0.38,0.03,0.04c-0.65-0.88-1.25-1.79-1.77-2.75c-0.22-0.41-0.43-0.82-0.63-1.24c-0.1-0.22-0.2-0.44-0.3-0.66
				c-0.07-0.15-0.19-0.52,0.06,0.14c-0.05-0.13-0.1-0.25-0.15-0.37c-0.31-0.83-0.6-1.66-0.85-2.51c-0.22-0.77-0.4-1.54-0.55-2.32
				c-0.06-0.33-0.12-0.65-0.17-0.98c-0.02-0.13-0.03-0.26-0.06-0.39c-0.01-0.06,0.09,0.81,0.03,0.19c-0.07-0.65-0.14-1.3-0.14-1.95
				c0-1.6-1.36-2.96-2.96-2.96C251.51,231.11,250.15,232.46,250.16,234.06L250.16,234.06z"/>
		</g>
		<g>
			<path class="st5" d="M299.27,250.01c2.62,0.54,5.4,0.72,8.07,0.56c0.79-0.05,1.52-0.3,2.09-0.87c0.51-0.51,0.9-1.35,0.87-2.09
				c-0.03-0.76-0.29-1.56-0.87-2.09c-0.56-0.51-1.31-0.91-2.09-0.87c-1.97,0.12-3.95,0.03-5.91-0.23c0.26,0.04,0.52,0.07,0.79,0.11
				c-0.46-0.06-0.92-0.13-1.38-0.22c-0.78-0.16-1.57-0.11-2.28,0.3c-0.61,0.36-1.2,1.06-1.36,1.77c-0.17,0.76-0.14,1.61,0.3,2.28
				C297.91,249.27,298.52,249.85,299.27,250.01L299.27,250.01z"/>
		</g>
		<g>
			<path class="st5" d="M233.19,139.58c-7,0.94-13.78,3.49-19.68,7.38c-1.33,0.88-1.9,2.62-1.06,4.05c0.78,1.33,2.71,1.94,4.05,1.06
				c5.6-3.68,11.54-5.87,18.27-6.78c1.54-0.21,2.51-2.26,2.07-3.64C236.28,139.95,234.84,139.36,233.19,139.58L233.19,139.58z"/>
		</g>
		<g>
			<path class="st5" d="M252.07,141.02c-2.75-0.63-5.55-1.05-8.35-1.31c-0.71-0.07-1.6,0.38-2.09,0.87
				c-0.51,0.51-0.9,1.35-0.87,2.09c0.03,0.76,0.29,1.56,0.87,2.09c0.61,0.56,1.27,0.79,2.09,0.87c0.83,0.08,1.66,0.17,2.49,0.28
				c-0.26-0.04-0.52-0.07-0.79-0.11c1.7,0.23,3.4,0.54,5.07,0.93c0.77,0.18,1.59,0.11,2.28-0.3c0.61-0.36,1.2-1.06,1.36-1.77
				C254.47,143.15,253.68,141.39,252.07,141.02L252.07,141.02z"/>
		</g>
		<g>
			<path class="st5" d="M294.93,181.74c3.91,7.2,10.06,12.95,17.44,16.48c1.39,0.67,3.26,0.43,4.05-1.06
				c0.7-1.32,0.43-3.33-1.06-4.05c-1.93-0.93-3.8-1.99-5.55-3.22c-0.18-0.13-0.36-0.25-0.54-0.38c-0.07-0.05-0.7-0.52-0.43-0.32
				c0.29,0.22-0.26-0.2-0.31-0.25c-0.2-0.16-0.4-0.32-0.59-0.49c-0.73-0.61-1.43-1.25-2.11-1.92c-0.62-0.62-1.22-1.26-1.79-1.92
				c-0.28-0.32-0.55-0.65-0.82-0.98c-0.18-0.22-0.4-0.52-0.1-0.12c-0.14-0.18-0.27-0.36-0.41-0.54c-0.99-1.35-1.87-2.76-2.67-4.23
				c-0.74-1.36-2.73-1.91-4.05-1.06C294.61,178.59,294.14,180.29,294.93,181.74L294.93,181.74z"/>
		</g>
		<g>
			<path class="st5" d="M290.21,167.44c0.34,2.33,0.87,4.64,1.58,6.88c0.23,0.73,0.69,1.38,1.36,1.77c0.63,0.37,1.57,0.53,2.28,0.3
				c0.72-0.23,1.41-0.67,1.77-1.36c0.36-0.69,0.54-1.51,0.3-2.28c-0.71-2.25-1.24-4.55-1.58-6.88c-0.1-0.68-0.79-1.44-1.36-1.77
				c-0.63-0.37-1.57-0.53-2.28-0.3c-0.72,0.23-1.41,0.67-1.77,1.36c-0.1,0.24-0.2,0.47-0.3,0.71
				C290.07,166.4,290.07,166.92,290.21,167.44L290.21,167.44z"/>
		</g>
		<g>
			<g>
				<path class="st5" d="M107.96,247.6c-0.41-7.45,1.79-14.86,6.46-20.65c1-1.24,1.21-2.97,0-4.18c-1.04-1.04-3.17-1.25-4.18,0
					c-5.68,7.03-8.69,15.77-8.19,24.83c0.09,1.6,1.3,2.96,2.96,2.96C106.54,250.55,108.05,249.2,107.96,247.6L107.96,247.6z"/>
			</g>
			<g>
				<path class="st5" d="M112.08,260.85c-0.76-1.29-1.44-2.63-2.02-4.01c0.1,0.24,0.2,0.47,0.3,0.71c-0.39-0.93-0.74-1.88-1.04-2.84
					c-0.23-0.73-0.69-1.38-1.36-1.77c-0.63-0.37-1.57-0.53-2.28-0.3c-0.72,0.23-1.41,0.67-1.77,1.36c-0.36,0.69-0.54,1.51-0.3,2.28
					c0.83,2.63,1.96,5.18,3.37,7.56c0.38,0.64,1.05,1.16,1.77,1.36c0.71,0.19,1.65,0.11,2.28-0.3
					C112.36,264.04,112.93,262.28,112.08,260.85L112.08,260.85z"/>
			</g>
		</g>
		<g>
			<g>
				<path class="st5" d="M63.91,340.86c-0.26-2.76-0.3-5.54-0.13-8.3c0.1-1.55-1.43-3.03-2.96-2.96c-1.68,0.08-2.85,1.3-2.96,2.96
					c-0.17,2.77-0.13,5.54,0.13,8.3c0.08,0.8,0.28,1.5,0.87,2.09c0.51,0.51,1.35,0.9,2.09,0.87c0.76-0.03,1.56-0.29,2.09-0.87
					C63.54,342.4,63.98,341.63,63.91,340.86L63.91,340.86z"/>
			</g>
			<g>
				<path class="st5" d="M68.72,360.2c-0.22-0.47-0.43-0.93-0.64-1.4c-0.13-0.3-0.12-0.27,0.04,0.1c-0.06-0.14-0.11-0.27-0.17-0.41
					c-0.08-0.21-0.17-0.41-0.25-0.62c-0.39-1.01-0.75-2.03-1.07-3.07c-0.65-2.07-1.14-4.19-1.51-6.33
					c-0.26-1.53-2.22-2.52-3.64-2.07c-1.65,0.53-2.35,2-2.07,3.64c0.79,4.57,2.22,8.96,4.19,13.15c0.66,1.4,2.79,1.87,4.05,1.06
					C69.1,363.32,69.42,361.7,68.72,360.2L68.72,360.2z"/>
			</g>
		</g>
		<g>
			<g>
				<path class="st5" d="M92.27,332.96c-6.14,29.57,5.4,61.01,31.14,77.53c3.21,2.06,6.18-3.06,2.99-5.11
					c-23.41-15.02-34.01-43.96-28.42-70.85C98.75,330.81,93.05,329.23,92.27,332.96L92.27,332.96z"/>
			</g>
			<g>
				<path class="st5" d="M100.1,312.4c-1.74,3.08-3.22,6.29-4.52,9.58c-0.26,0.67-0.05,1.68,0.3,2.28c0.36,0.61,1.06,1.2,1.77,1.36
					c0.76,0.17,1.61,0.14,2.28-0.3c0.69-0.44,1.06-1.01,1.36-1.77c0.23-0.57,0.46-1.14,0.7-1.71c-0.1,0.24-0.2,0.47-0.3,0.71
					c1.04-2.45,2.22-4.84,3.52-7.16c0.76-1.35,0.37-3.29-1.06-4.05C102.75,310.6,100.91,310.96,100.1,312.4L100.1,312.4z"/>
			</g>
		</g>
		<g>
			<g>
				<path class="st5" d="M537.33,386.91c-3.6,17.2-18.62,29.76-36.25,29.88c-3.8,0.03-3.81,5.94,0,5.91
					c20.12-0.14,37.83-14.48,41.95-34.22C543.81,384.77,538.11,383.18,537.33,386.91L537.33,386.91z"/>
			</g>
			<g>
				<path class="st5" d="M537.05,371.21c0.3,1.3,0.55,2.62,0.72,3.94c-0.04-0.26-0.07-0.52-0.11-0.79c0.23,1.77,0.35,3.54,0.35,5.32
					c0,1.55,1.36,3.03,2.96,2.96c1.6-0.07,2.96-1.3,2.96-2.96c-0.01-3.38-0.41-6.76-1.18-10.05c-0.35-1.51-2.16-2.54-3.64-2.07
					C537.55,368.08,536.68,369.6,537.05,371.21L537.05,371.21z"/>
			</g>
		</g>
		<g>
			<path class="st5" d="M483.59,331.47c9.46,32.06-5.91,69.23-38.55,80.42c-3.58,1.23-2.04,6.94,1.57,5.7
				c35.65-12.22,53.1-52.4,42.68-87.7C488.22,326.26,482.51,327.81,483.59,331.47L483.59,331.47z"/>
		</g>
		<g>
			<path class="st5" d="M467.05,304.13c1.95,1.91,3.79,3.93,5.49,6.07c0.1,0.12,0.19,0.24,0.29,0.36c0.04,0.06,0.37,0.44,0.12,0.16
				c-0.28-0.31,0.14,0.19,0.19,0.25c0.09,0.12,0.19,0.25,0.28,0.37c0.42,0.56,0.82,1.13,1.22,1.7c0.8,1.15,1.56,2.33,2.29,3.53
				c0.8,1.32,2.69,1.94,4.05,1.06c1.33-0.86,1.92-2.63,1.06-4.05c-3.02-4.96-6.66-9.57-10.81-13.64c-1.11-1.08-3.09-1.19-4.18,0
				C465.97,301.12,465.86,302.98,467.05,304.13L467.05,304.13z"/>
		</g>
		<g>
			<path class="st5" d="M434.91,210.9c9.89,12.44,10.29,30.35,1.45,43.43c-2.14,3.16,2.98,6.12,5.11,2.99
				c10.44-15.44,9.11-36.14-2.38-50.59C436.72,203.74,432.56,207.95,434.91,210.9L434.91,210.9z"/>
		</g>
		<g>
			<path class="st5" d="M418.16,199.69c0.94,0.26,1.86,0.56,2.78,0.89c0.38,0.14,0.79,0.37,1.19,0.47c-0.43-0.18-0.49-0.21-0.2-0.09
				c0.11,0.05,0.22,0.1,0.33,0.15c0.22,0.1,0.44,0.2,0.66,0.3c1.7,0.8,3.34,1.75,4.89,2.81c1.28,0.88,3.34,0.28,4.05-1.06
				c0.79-1.5,0.31-3.11-1.06-4.05c-3.36-2.3-7.13-4.05-11.06-5.13c-1.49-0.41-3.28,0.51-3.64,2.07
				C415.74,197.62,416.57,199.25,418.16,199.69L418.16,199.69z"/>
		</g>
	</g>
	<polygon class="st7" points="287.02,347.84 274.95,374.41 299.75,374.41 	"/>
	
		<ellipse transform="matrix(0.8977 -0.4407 0.4407 0.8977 -138.9167 101.1772)" class="st0" cx="148.4" cy="349.7" rx="28.14" ry="34"/>
	
		<ellipse transform="matrix(0.4407 -0.8977 0.8977 0.4407 -76.6927 576.3254)" class="st0" cx="424.12" cy="349.7" rx="34" ry="28.14"/>
	<ellipse class="st6" cx="349.51" cy="313.48" rx="45.32" ry="50.2"/>
	<ellipse class="st6" cx="224.98" cy="313.48" rx="48.53" ry="50.2"/>
	<ellipse cx="238.29" cy="322.43" rx="33.66" ry="42.21"/>
	<ellipse cx="340.04" cy="322.43" rx="34.38" ry="42.21"/>
	<path class="st4" d="M176.45,313.48c0,0-0.47-44.27,29.81-48.95c28.28-4.37,56.61-4.33,70.41,39.76
		C276.67,304.29,221.65,330.83,176.45,313.48z"/>
	<path class="st4" d="M303.71,305.79c0,0,4.09-42.72,39.55-44.82c35.57-2.1,51.56,16.46,53.92,56.8
		C397.18,317.77,378.99,335.04,303.71,305.79z"/>
	<path d="M162.03,262.38c0,0,57.05,42.35,69.65-35.06C231.68,227.31,218.51,276.4,162.03,262.38z"/>
	<path d="M394.83,262.38c0,0-57.05,42.35-69.65-35.06C325.18,227.31,338.34,276.4,394.83,262.38z"/>
	<path d="M171.06,310.47c0,0,53.38,21.19,111.1-9.12C282.16,301.35,226.14,341.8,171.06,310.47z"/>
	<path d="M299.75,303.61c0,0,63.49,28.56,97.43,14.16C397.18,317.77,349.67,345.55,299.75,303.61z"/>
	<path class="st7" d="M258.61,404.21c0,0,31.5-23.83,63,0C321.6,404.21,290.78,391.77,258.61,404.21z"/>
	<ellipse class="st28" cx="200.88" cy="361.13" rx="18.28" ry="6.33"/>
	<ellipse class="st28" cx="371.12" cy="361.13" rx="18.28" ry="6.33"/>
	<g>
		<path class="st29" d="M86.2,208.9c-8.81-12.2-21.37-21.57-35.08-26.39c-3.12-1.18-6.81-1.96-9.79-0.39
			c-4.48,2.52-4.57,9.89-1.38,14.32c3.19,4.43,8.47,6.57,13.52,8.18C64.19,207.9,75.28,209.3,86.2,208.9z"/>
		<path class="st29" d="M117.23,190.16c-11.4-9.7-25.55-15.58-39.88-16.71c-3.46-0.25-7.18-0.09-9.58,2.18
			c-3.73,3.61-2.11,10.88,2.02,14.45c4.13,3.56,9.71,4.33,14.88,4.48C95.61,194.93,106.69,193.53,117.23,190.16z"/>
		<path class="st29" d="M137.41,180.96c-9.27-11.23-21.76-19.37-35.03-22.82c-3.14-0.86-6.71-1.38-9.4,0.54
			c-4.06,2.81-3.73,10.16-0.35,14.36c3.38,4.19,8.43,5.8,13.39,6.83C116.29,182.08,126.94,182.42,137.41,180.96z"/>
		<path class="st29" d="M83.55,209.87c-13.33,4.7-25.01,14.01-32.83,26.21c-1.87,2.82-3.59,6.36-2.86,9.8
			c1.26,5.4,7.92,8.05,12.74,6.32c4.94-1.78,8.27-6.31,10.88-10.84C77.01,231.68,81.25,220.99,83.55,209.87z"/>
		<path class="st29" d="M106.02,193.65c-10.42,9.87-17.61,23.21-20.35,37.8c-0.56,3.51-0.95,7.43,1.02,10.34
			c2.94,4.53,10.01,4.36,13.79,0.88c3.85-3.66,5.15-9.2,5.96-14.54C108.08,216.83,107.96,205.17,106.02,193.65z"/>
		<path class="st29" d="M134.93,180.28c-10.42,9.87-17.61,23.21-20.35,37.8c-0.56,3.51-0.95,7.43,1.02,10.34
			c2.94,4.53,10.01,4.36,13.79,0.88c3.85-3.66,5.15-9.2,5.96-14.54C137,203.46,136.88,191.79,134.93,180.28z"/>
		<path class="st29" d="M169.25,156.78c-11.24-8.99-24.99-14.26-38.56-14.61c-3.23-0.04-6.77,0.21-8.93,2.68
			c-3.31,3.9-1.32,11.02,2.7,14.32c4.14,3.24,9.43,3.67,14.36,3.61C149.24,162.59,159.61,160.54,169.25,156.78z"/>
		<path class="st29" d="M170.19,153.25c-10.42,9.87-17.61,23.21-20.35,37.8c-0.56,3.51-0.95,7.43,1.02,10.34
			c2.94,4.53,10.01,4.36,13.79,0.88c3.85-3.66,5.15-9.2,5.96-14.54C172.25,176.43,172.08,164.63,170.19,153.25z"/>
		<path class="st29" d="M73.15,212.54c-16.56-5.02-34.37-4.36-50.12,1.52c-3.77,1.44-7.68,3.56-9.16,7.31
			c-2.29,5.97,2.8,13.18,8.82,15.01s12.19-0.16,17.88-2.56C52.4,228.66,63.5,221.46,73.15,212.54z"/>
	</g>
	<path class="st30" d="M52,218.71c0,0,93.28-40.98,102.65-57.01c9.37-16.03,53.78-73.46,118.87-22.16c0,0-65.85-42.98-110.15,24.31
		C126.46,219.9,52,218.71,52,218.71z"/>
</g>
</svg>
