<?xml version="1.0" encoding="utf-8"?>
<!-- Generator: Adobe Illustrator 24.0.1, SVG Export Plug-In . SVG Version: 6.00 Build 0)  -->
<svg version="1.1" id="Capa_1" xmlns="http://www.w3.org/2000/svg" xmlns:xlink="http://www.w3.org/1999/xlink" x="0px" y="0px"
	 viewBox="0 0 623.62 850.39" style="enable-background:new 0 0 623.62 850.39;" xml:space="preserve">
<style type="text/css">
	.st0{fill:#F9D6E4;}
	.st1{fill:#45A759;}
	.st2{fill:#15632D;}
	.st3{fill:#F08CA7;}
	.st4{fill:#B52955;}
	.st5{fill:#F6BFD3;}
	.st6{fill:#FFFFFF;}
	.st7{fill:#CD94A9;}
	.st8{fill:#E16874;}
	.st9{fill:#EEEEEE;}
	.st10{fill:#C9C7C7;}
	.st11{clip-path:url(#SVGID_2_);}
	.st12{clip-path:url(#SVGID_2_);fill:#F08CA7;}
	.st13{fill:#CBC9CA;}
	.st14{fill:#E1E0E0;}
	.st15{fill:#B693C3;}
	.st16{fill:#F8DF28;}
	.st17{fill:#65A2D8;}
	.st18{fill:#DEE275;}
	.st19{fill:#FFDB43;}
	.st20{fill:#E75C2A;}
	.st21{fill:#F49D4E;}
	.st22{opacity:0.5;}
	.st23{fill:#F3B0CF;}
	.st24{fill:#704F9A;}
	.st25{fill:#616160;}
	.st26{fill:#5AE4A7;}
	.st27{fill:#FF0000;}
	.st28{fill:#82CEE0;}
	.st29{fill:#9E6D0B;}
	.st30{fill:#828E0C;}
	.st31{fill:#FFFF00;}
	.st32{clip-path:url(#SVGID_4_);}
	.st33{clip-path:url(#SVGID_4_);fill:#F08CA7;}
	.st34{clip-path:url(#SVGID_6_);}
	.st35{clip-path:url(#SVGID_6_);fill:#F08CA7;}
	.st36{fill:none;stroke:#B52955;stroke-width:3;stroke-linecap:round;stroke-linejoin:round;stroke-miterlimit:10;}
	.st37{clip-path:url(#SVGID_8_);}
	.st38{clip-path:url(#SVGID_8_);fill:#F08CA7;}
	.st39{fill:#606060;}
	.st40{clip-path:url(#SVGID_10_);}
	.st41{clip-path:url(#SVGID_10_);fill:#F08CA7;}
	.st42{clip-path:url(#SVGID_12_);}
	.st43{clip-path:url(#SVGID_12_);fill:#F08CA7;}
	.st44{clip-path:url(#SVGID_14_);}
	.st45{clip-path:url(#SVGID_14_);fill:#F08CA7;}
	.st46{clip-path:url(#SVGID_16_);}
	.st47{clip-path:url(#SVGID_16_);fill:#F08CA7;}
	.st48{clip-path:url(#SVGID_18_);}
	.st49{clip-path:url(#SVGID_18_);fill:#F08CA7;}
	.st50{clip-path:url(#SVGID_20_);}
	.st51{clip-path:url(#SVGID_20_);fill:#F08CA7;}
	.st52{clip-path:url(#SVGID_22_);}
	.st53{clip-path:url(#SVGID_22_);fill:#F08CA7;}
	.st54{fill:none;}
</style>
<g>
	<g>
		<path class="st0" d="M235.36,478.93c0,0-14.37,19.98-95.1,10.09c0,0-8.53,21.54,6.85,21.93c15.38,0.39,55.63,11.89,94.33-19.54
			C241.45,491.41,254.08,481.29,235.36,478.93z"/>
		<path class="st9" d="M260.69,438.46c0,0-29.63,46.7-60.17,49.9c-8.76,0.92-23.32,3.05-23.32,3.05l5.35,40.39
			c0,0,70.05,2.53,107.99-64.2C290.54,467.6,299.09,419.66,260.69,438.46z"/>
		<path class="st14" d="M262.96,465.12c0,0-22.6,65.55-80.41,66.68c0,0,61.1-0.98,84.77-35.56L262.96,465.12z"/>
		<ellipse class="st13" cx="322.3" cy="792.73" rx="134.68" ry="15.52"/>
		<path class="st0" d="M354.59,625.43c0.28-0.9,0.69-1.75,1.27-2.51c2.44-3.14,7.9-3.17,10.36-0.06c1.94,2.44,1.91,5.86,1.76,8.97
			c-2.2,47.04-9.51,93.84-21.8,139.31c10.93,2.17,21.49,6.21,31.09,11.89c2.32,1.37,4.7,2.95,6.28,5.18
			c1.28,1.8,1.94,4.16,1.27,6.26c-0.58,1.77-2.05,3.14-3.71,3.98c-4.91,2.45-10.76,1.4-15.93,0.6c-7.89-1.23-15.56-3.8-22.59-7.56
			c-4.69-2.51-14.94-7.51-14.31-14.12c0.19-2.02,1.55-3.69,2.51-5.48c1.05-1.94,1.63-4.09,2.2-6.22
			c11.79-44.06,18.81-89.39,20.89-134.96C353.98,628.95,354.08,627.1,354.59,625.43z"/>
		<path class="st0" d="M294.76,654.34c-0.28-0.9-0.69-1.75-1.27-2.51c-2.44-3.14-7.9-3.17-10.36-0.06
			c-1.94,2.44-1.91,5.86-1.76,8.97c2.2,47.04,9.51,93.84,21.8,139.31c-10.93,2.17-21.49,6.21-31.09,11.89
			c-2.32,1.37-4.7,2.95-6.28,5.18c-1.28,1.8-1.94,4.16-1.27,6.26c0.58,1.77,2.05,3.14,3.71,3.98c4.91,2.45,10.76,1.4,15.93,0.6
			c7.89-1.23,15.56-3.8,22.59-7.56c4.69-2.51,14.94-7.51,14.31-14.12c-0.19-2.02-1.55-3.69-2.51-5.48c-1.05-1.94-1.63-4.09-2.2-6.22
			c-11.79-44.06-18.81-89.39-20.89-134.96C295.37,657.85,295.28,656,294.76,654.34z"/>
		<path class="st9" d="M387.34,438.46c0,0-5.29,195.02,15.07,224.51c0,0-48.65,2.12-78.36-1.22c0,0-38.99,5.35-75.17,1.88
			c0,0,24.14-119.35,12.23-225.18C261.11,438.46,341.21,407.59,387.34,438.46z"/>
		<path class="st14" d="M322.72,575.68c0,0-13.71,79.89-22.71,88.57l24.04-2.49L322.72,575.68z"/>
		
			<rect x="309.81" y="392.33" transform="matrix(-1 -4.496593e-11 4.496593e-11 -1 648.1891 819.2757)" class="st0" width="28.56" height="34.61"/>
		<path class="st0" d="M356.32,426.94l-7.03,12.31l-24.21,72.84l-24.84-72.84l-8.47-12.31
			C291.78,426.94,322.66,414.95,356.32,426.94z"/>
		<path class="st10" d="M324.45,512.08l-0.4,149.67C324.05,661.76,316.41,532.75,324.45,512.08z"/>
		<polygon class="st10" points="338.37,421.61 375.48,433.24 349.29,439.25 367.88,459.98 324.45,512.08 		"/>
		<polygon class="st10" points="310.12,421.61 273.02,433.24 299.2,439.25 280.61,459.98 324.05,512.08 		"/>
		<circle class="st10" cx="318.44" cy="513.99" r="1.9"/>
		<circle class="st10" cx="314.63" cy="554.56" r="1.9"/>
		<circle class="st10" cx="316.54" cy="596.42" r="1.9"/>
		<circle class="st10" cx="318.44" cy="635.38" r="1.9"/>
		<path class="st10" d="M385.97,445.7l-3.65,51.53C382.32,497.23,390.97,476.8,385.97,445.7z"/>
		<path class="st10" d="M264.64,445.7l-0.29,54.46C264.36,500.16,259.64,476.8,264.64,445.7z"/>
		<polygon class="st7" points="365.72,664.25 364.2,678.86 350.72,671.57 351.52,664.25 		"/>
		<g>
			<path class="st10" d="M266.75,583.09c0,0,21.89,5.27,39.17,8.38l-0.52,4.51c0,0-8.77-1.04-23.11-3.96
				c-14.33-2.92-15.95-5-15.95-5L266.75,583.09z"/>
			<path class="st10" d="M294.87,634.36c0,0-27.07-4.12-32.52-7.83C262.34,626.53,277.87,638.98,294.87,634.36z"/>
			<path class="st10" d="M299.44,632.3l4.63-29.88C304.08,602.41,306.05,621.07,299.44,632.3z"/>
		</g>
		<path class="st7" d="M338.37,405.47c0,0-14.62,4.24-28.56-0.32l0.92,8.23l27.64,8.23V405.47z"/>
		<g>
			<g>
				<path class="st0" d="M121.22,473.15c1.21,0.87-6.76-16.07,2.36-21.41c0.43-0.25,0.95,0.07,1.08,0.5
					c3.92,12.52,6.58,27.36,17.7,36c0.41,0.2,0.78,0.42,1.11,0.65c0.01,0,0.01,0,0.02,0c0.4-0.07,0.8,0.16,0.9,0.57
					c0.02,0.08,0.02,0.16,0.02,0.24c3.27,3.44,0.49,9.09-2.67,12.32c-2.8,2.87-8.01,5.63-11.31,3.31c-0.04-0.02-0.07-0.04-0.11-0.06
					c-1.7-1.13-3.5-2.15-5.55-2.45c-1.62-0.24-3.25,0.07-4.82,0.4c-4.21,0.88-11.42-0.35-15.04-1.77c-5.32-2.08-2.5-7.58-2.5-7.58
					c-4.36-4.46-0.12-6.47-0.12-6.47c-2.86-2.57,0.41-5.84,0.41-5.84s-2.41-3.45,1.29-5.66
					C108.25,473.37,119.71,472.07,121.22,473.15z"/>
			</g>
			<path class="st7" d="M115.38,473.58c0,0,8.75,6.93,4.37,10.84c-4.38,3.91-6.79,2.23-6.79,2.23s4.21,1.54,1.64,5.31
				c-2.58,3.77-6.94,3.66-6.94,3.66s4.24,1.65,1.88,3.57c0,0,4.09,2.14,3.55-3.48c0,0,5.41-2.04,3.7-6.78
				C116.78,488.94,130.32,482.61,115.38,473.58z"/>
			<path class="st7" d="M125.31,474.05c0,0-5.34,13.36,7.19,17.91C132.5,491.96,116.29,491.52,125.31,474.05z"/>
		</g>
		<path class="st14" d="M381.63,524.54c0,0-13.42,131.6-34.83,138.75c0,0,30.37,6.92,55.61-0.32L381.63,524.54z"/>
		<path class="st0" d="M157.09,509.23c0,0-18.84,6.8-33.74-10.77C123.35,498.46,150.54,495.69,157.09,509.23z"/>
		<g>
			
				<rect x="314.27" y="482.28" transform="matrix(0.9952 -0.0976 0.0976 0.9952 -49.104 38.7201)" class="st39" width="113.97" height="78.07"/>
			<g>
				<path d="M319.45,561.68c-0.09-0.05,0.24,0.99-0.89,2.16c-0.55,0.54-1.46,1.06-2.6,1.03c-1.12-0.02-2.35-0.89-2.89-2.25
					c-0.58-1.35-0.5-3.17,0.61-4.61c0.53-0.72,1.26-1.34,2.11-1.82c0.43-0.24,0.88-0.44,1.36-0.6c0.48-0.15,1.01-0.33,1.33-0.13
					c0.33,0.18,0.46,0.72,0.37,1.19c-0.08,0.47-0.4,0.93-0.79,1.27c-0.8,0.69-2.02,0.95-3.1,0.64c-2.23-0.66-3.34-3.69-2.34-6.07
					c0.45-1.22,1.29-2.33,2.31-3.24c0.5-0.43,1.11-0.79,1.72-0.88c0.6-0.09,1.18,0.24,1.31,0.79c0.14,0.56-0.08,1.27-0.51,1.76
					c-0.4,0.5-1.08,0.79-1.77,0.89c-1.39,0.17-2.92-0.48-3.79-1.64c-0.88-1.18-1.11-2.83-0.77-4.35c0.31-1.54,1.21-2.97,2.64-3.67
					c0.69-0.36,1.49-0.49,2.13-0.21c0.65,0.29,1.08,0.94,1.06,1.69c0,0.74-0.37,1.52-0.96,1.95c-0.58,0.43-1.43,0.54-2.19,0.32
					c-1.6-0.4-2.64-2.01-2.62-3.73c-0.04-1.73,0.8-3.39,1.97-4.79c0.59-0.69,1.22-1.42,1.93-1.92c0.7-0.51,1.6-0.88,2.24-0.62
					c0.68,0.24,0.89,1.1,0.56,1.84c-0.29,0.73-1.1,1.13-1.96,1.17c-1.76,0.06-3.57-1.01-4.61-2.52c-1.09-1.51-1.34-3.55-0.7-5.33
					c0.31-0.88,0.83-1.72,1.51-2.34c0.68-0.61,1.59-1.03,2.42-0.93c1.77,0.09,2.27,2.97,0.84,3.98c-1.42,1.12-3.79,0.59-4.78-0.97
					c-1.1-1.55-1.16-3.64-0.57-5.46c0.29-0.93,0.71-1.82,1.18-2.68c0.47-0.85,1.02-1.65,1.74-2.16c0.71-0.53,1.59-0.63,2.35-0.28
					c0.76,0.33,1.07,1.12,0.69,1.82c-0.36,0.71-1.16,1.1-2.01,1.04c-0.85-0.04-1.71-0.41-2.41-0.94c-1.43-1.06-2.29-2.84-2.16-4.57
					c0.1-1.73,1.09-3.43,2.54-4.24c0.72-0.39,1.6-0.55,2.27-0.26c0.68,0.28,1.04,1,0.94,1.77c-0.07,0.76-0.52,1.49-1.18,1.8
					c-0.68,0.34-1.51,0.33-2.25,0.06c-1.54-0.51-2.48-2.01-2.88-3.57c-0.4-1.58-0.48-3.27-0.1-4.79c0.37-1.49,1.37-2.91,2.77-3.2
					c1.38-0.32,3.08,0.28,3.53,1.52c0.48,1.26-0.58,2.67-1.84,3.05c-1.27,0.42-2.71-0.08-3.76-0.9c-1.05-0.85-1.82-2-2.17-3.26
					c-0.75-2.51-0.14-5.26,1.38-7.04c0.76-0.88,1.74-1.58,2.79-1.84c1.05-0.29,2.15,0.01,2.81,0.76c0.7,0.72,0.65,1.83,0.05,2.53
					c-0.57,0.74-1.51,1.05-2.38,0.97c-1.78-0.16-3.16-1.37-3.91-2.62c-0.77-1.28-0.95-2.66-0.77-3.79c0.19-1.14,0.66-2.03,1.13-2.65
					c0.98-1.26,1.83-1.58,1.78-1.63c0,0-0.21,0.06-0.56,0.28c-0.35,0.22-0.86,0.59-1.38,1.23c-0.51,0.63-1.04,1.54-1.26,2.72
					c-0.22,1.18-0.06,2.65,0.73,4.02c0.77,1.34,2.21,2.67,4.19,2.88c0.97,0.1,2.1-0.24,2.8-1.12c0.75-0.81,0.83-2.31-0.03-3.2
					c-0.78-0.92-2.15-1.28-3.35-0.96c-1.21,0.29-2.27,1.04-3.12,2c-1.68,1.94-2.36,4.89-1.57,7.63c0.38,1.37,1.21,2.67,2.38,3.62
					c1.16,0.92,2.8,1.56,4.43,1.05c0.78-0.26,1.49-0.77,1.97-1.48c0.48-0.7,0.67-1.67,0.36-2.53c-0.29-0.87-1.05-1.5-1.85-1.81
					c-0.81-0.33-1.71-0.41-2.58-0.22c-1.83,0.41-2.96,2.11-3.39,3.77c-0.44,1.7-0.35,3.49,0.08,5.21c0.41,1.69,1.51,3.54,3.41,4.18
					c0.9,0.33,1.98,0.36,2.92-0.1c0.97-0.46,1.57-1.47,1.67-2.49c0.17-1.02-0.41-2.27-1.47-2.68c-1.05-0.43-2.16-0.17-3.04,0.29
					c-1.79,1.01-2.89,2.94-3.03,4.98c-0.15,2.06,0.86,4.13,2.52,5.37c0.83,0.62,1.82,1.07,2.93,1.13c1.09,0.09,2.36-0.46,2.89-1.54
					c0.28-0.53,0.37-1.21,0.13-1.81c-0.23-0.6-0.72-1.05-1.25-1.29c-1.04-0.52-2.41-0.33-3.3,0.36c-0.92,0.66-1.52,1.57-2.03,2.47
					c-0.5,0.9-0.95,1.85-1.27,2.86c-0.65,1.99-0.63,4.43,0.7,6.3c1.24,1.91,4.18,2.69,6.15,1.16c1-0.76,1.37-2.11,1.13-3.26
					c-0.12-0.58-0.37-1.16-0.81-1.61c-0.44-0.45-1.04-0.74-1.65-0.8c-1.24-0.13-2.34,0.44-3.17,1.16c-0.83,0.76-1.42,1.71-1.78,2.74
					c-0.74,2.04-0.44,4.44,0.82,6.19c1.23,1.74,3.23,2.98,5.43,2.91c1.07-0.02,2.32-0.6,2.77-1.73c0.22-0.53,0.31-1.14,0.14-1.74
					c-0.16-0.6-0.64-1.12-1.22-1.34c-1.24-0.43-2.31,0.18-3.12,0.73c-0.84,0.62-1.47,1.35-2.1,2.09c-1.23,1.48-2.21,3.36-2.16,5.38
					c0.02,0.99,0.28,2.01,0.86,2.85c0.59,0.85,1.46,1.45,2.43,1.72c0.97,0.27,2.09,0.16,2.94-0.47c0.84-0.64,1.29-1.64,1.3-2.65
					c0.04-1.03-0.63-2.08-1.59-2.48c-0.98-0.4-2.04-0.17-2.85,0.25c-1.69,0.83-2.74,2.55-3.06,4.25c-0.36,1.7-0.12,3.58,0.94,5
					c1.07,1.4,2.83,2.14,4.53,1.93c1.7-0.14,3.3-1.77,2.89-3.6c-0.22-0.95-1.28-1.48-2.12-1.32c-0.84,0.14-1.52,0.57-2.09,1.06
					c-1.1,0.99-1.99,2.19-2.48,3.54c-1.08,2.66,0.12,6.09,2.81,6.89c1.29,0.35,2.68,0.04,3.64-0.79c0.47-0.43,0.84-0.96,0.96-1.6
					c0.1-0.6,0-1.37-0.65-1.75c-0.68-0.33-1.27-0.03-1.76,0.11c-0.51,0.18-0.99,0.4-1.44,0.66c-0.9,0.52-1.67,1.2-2.23,1.98
					c-1.17,1.57-1.24,3.59-0.58,5.02c0.62,1.47,1.98,2.4,3.23,2.39c1.24,0,2.19-0.59,2.75-1.18
					C319.85,562.67,319.42,561.61,319.45,561.68z"/>
			</g>
			<path class="st0" d="M343.28,530.24c0,0,5.82-9.1,0.67-12.86c-0.12-0.67-2.26-12.97-3.54-15.74c-0.89-1.95-2.45,5.8-2.5,12.18
				c-8.07-4.6-22.22-12.19-22.91-9.34c-0.96,4,15.49,16.57,15.49,16.57s-28.69,1.45-29.06,7.18c-0.37,5.73,27.57,3.77,27.57,3.77
				s-19.9,9.67-17.45,12.89C314,548.13,343.28,530.24,343.28,530.24z"/>
			<path class="st9" d="M367.62,430.64c0,0,34.8,4.47,46.78,51.24c8.93,34.88,18.65,71.95-1.44,76.14
				c-22.9,4.78-73.92-20.94-73.92-20.94l7.54-24.62l41.06,7.3l-21.57-48.6C366.07,471.16,368.63,460.91,367.62,430.64z"/>
			<path class="st10" d="M371.26,453.48c0,0-4.82,18.51,0,29.36C371.26,482.84,358.32,476.32,371.26,453.48z"/>
			<path class="st10" d="M387.65,519.76c0,0,15.16-3.5,21.92,0C409.57,519.76,393.09,520.73,387.65,519.76z"/>
			<path class="st10" d="M407.7,528.92l-19.74-6.91C387.96,522.01,401.49,520.32,407.7,528.92z"/>
			<path class="st14" d="M394.37,445.14c0,0,39.23,80.12,19.36,96.49s-74.69-4.49-74.69-4.49s55.53,28.66,73.92,20.94
				c0,0,28.77,4.5,0.35-80.05C413.32,478.04,405.74,452.13,394.37,445.14z"/>
		</g>
		<polygon class="st7" points="295.69,664.25 296.68,679.96 282.32,675.93 281.52,664.5 		"/>
	</g>
	<g>
		<g>
			<path class="st1" d="M284.27,76.46c9.53-5.87,17.16-14.69,21.48-24.61c1.04-2.25,1.82-4.95,0.82-7.25
				c-1.63-3.46-7.1-3.93-10.56-1.8c-3.46,2.12-5.33,5.93-6.8,9.59C286.2,60.18,284.56,68.34,284.27,76.46z"/>
			<path class="st1" d="M296.5,100.5c7.82-7.93,12.95-18.12,14.55-28.7c0.38-2.56,0.45-5.33-1.1-7.23
				c-2.47-2.96-7.96-2.15-10.83,0.72c-2.87,2.87-3.74,6.97-4.13,10.8C294.13,84.2,294.57,92.5,296.5,100.5z"/>
			<path class="st1" d="M307.88,116.06c8.83-6.27,15.55-15.1,18.83-24.76c0.81-2.28,1.39-4.9,0.11-7.01
				c-1.87-3.17-7.34-3.32-10.63-1.04c-3.29,2.28-4.76,5.95-5.79,9.57C308.19,100.33,307.36,108.22,307.88,116.06z"/>
			<path class="st1" d="M283.69,74.44c-2.77-10.15-9.04-19.31-17.68-25.78c-1.99-1.54-4.52-3-7.12-2.65
				c-4.08,0.64-6.4,5.45-5.38,9.11c1.05,3.76,4.23,6.48,7.46,8.66C267.86,68.41,275.57,72.13,283.69,74.44z"/>
			<path class="st1" d="M294.51,91.99c-6.76-8.26-16.28-14.33-26.95-17.14c-2.58-0.6-5.46-1.1-7.73,0.2
				c-3.52,1.94-3.77,7.19-1.4,10.19c2.51,3.06,6.55,4.32,10.47,5.21C277.2,92.27,285.86,92.81,294.51,91.99z"/>
			<path class="st1" d="M308.51,114.27c-6.76-8.26-16.28-14.33-26.95-17.14c-2.58-0.6-5.46-1.1-7.73,0.2
				c-3.52,1.94-3.77,7.19-1.4,10.19c2.51,3.06,6.55,4.32,10.47,5.21C291.21,114.54,299.87,115.09,308.51,114.27z"/>
			<path class="st1" d="M321.31,146.98c7.28-7.85,11.93-17.78,12.93-27.83c0.21-2.39,0.21-5.03-1.51-6.77
				c-2.71-2.67-8.11-1.58-10.77,1.23c-2.63,2.9-3.23,6.8-3.45,10.46C318.09,131.82,319.04,139.62,321.31,146.98z"/>
			<path class="st1" d="M321.02,141.8c-6.76-8.26-16.28-14.33-26.95-17.14c-2.58-0.6-5.46-1.1-7.73,0.2
				c-3.52,1.94-3.77,7.19-1.4,10.19c2.51,3.06,6.55,4.32,10.47,5.21C303.71,142.08,312.48,142.59,321.02,141.8z"/>
			<g>
				<path class="st2" d="M280.04,59c-0.06-0.51,0.71-0.56,0.67-0.02c4.41,27.64,26.39,46.79,37.06,71.89
					c5.12,12.09,8.42,24.8,10.44,37.74c2.18,13.41,4.14,27.52,3.83,41.25c0.04,1.78-2.62,1.94-2.86,0.23
					c-2.14-13.63-2.16-27.67-4.4-41.27c-2.27-14.01-5.68-28.06-11.83-40.86C302.1,105.36,281.17,85.32,280.04,59L280.04,59z"/>
			</g>
			<path class="st1" d="M282.27,66.58c4.62-12.02,5.09-25.27,1.58-37.28c-0.86-2.87-2.23-5.9-4.93-7.2
				c-4.3-2.02-9.93,1.37-11.61,5.74s-0.54,9.05,0.93,13.41C271.44,50.3,276.17,58.94,282.27,66.58z"/>
		</g>
		<g>
			<path class="st3" d="M252.91,389.99c0,0,0.01-0.03,0.04-0.09C253.57,389.6,252.91,389.99,252.91,389.99z"/>
			<path class="st3" d="M128.98,336.53c2.21-4.77,5.32-9.09,9.06-12.74c-8.12-25.2,6.45-57.08,33.54-62.47
				c-0.91-16.61,5.79-33.66,19.68-43.53c5.29-3.76,11.4-6.01,17.84-6.72c0.49-0.05,0.9,0.04,1.22,0.22
				c1.09-1.19,1.42-2.31,1.42-2.31s3.81-7.8,15.48-14.93c11.67-7.13,24.83-3.39,28.99-2.32c0.46,0.12,0.87,0.19,1.23,0.22
				c6.63-26.87,39-40.59,64.15-32.05c7.4,2.52,14.14,6.62,20.03,11.73c19.68-8.62,43.16-2.39,55.37,15.58
				c0.22,0.33,0.34,0.65,0.37,0.96c1.21,0.29,2.1,0.25,2.1,0.25s-0.62-1.78,15.89,2.37c16.5,4.15,20.47,18.98,22.04,23.1
				c0.13,0.33,0.27,0.63,0.42,0.91c0.45-0.31,1.03-0.45,1.71-0.32c22.92,4.46,38.25,26.79,34.58,49.7
				c22.22,8.91,34.24,32.09,34.63,55.24c0,0,0.01,0,0.01,0.01c13.88,13.42,18.45,34,10.64,51.78
				c-6.93,15.78-22.49,26.45-39.39,28.68c-11.77,1.55-23.8-0.9-34.01-6.96c-0.42-0.25-0.7-0.57-0.87-0.92
				c-0.63,0.16-1.02,0.33-1.02,0.33s-9.22,2.88-16.77,4.02c-7.55,1.14-17.69,1-25.04-3.63c-7.36-4.63-9.15-0.68-9.15-0.68
				s-8.72,5.94-15.5,10.52c-6.77,4.58-17.1,4-22.85,2.96c-5.76-1.04-19.89-6.39-23.97-12.22c-4.08-5.83-5.76-1.39-5.76-1.39
				s-5.44,5.65-18.21,10.92c-12.77,5.28-24.78,1.7-31.04,0c-6.26-1.7-14.71-7.27-18.19-11.64c-3.12-3.92-4.42-1.77-4.66-1.29
				c-0.57,0.28-2.21,1.13-6.42,3.39c-8.81,4.74-20.09,5.41-29.61,4.41c-9.52-1-17.91-4.13-20.61-6.66
				c-0.73-0.69-1.43-1.12-2.12-1.34c0.04,0.72-0.25,1.47-1.01,1.98c-16.92,11.38-39.92,9.53-54.71-4.51
				C124.85,374.22,121.1,353.53,128.98,336.53z"/>
		</g>
		<path class="st3" d="M468.94,243.04c0,0-2.72-12.33-12.34-18.5c-9.63-6.18-15.3-8.29-15.3-8.29s-3.86,0.46-5.43-3.67
			c-1.57-4.13-5.54-18.96-22.04-23.1c-16.5-4.15-15.89-2.37-15.89-2.37s-4.65,0.2-7.18-3.77c-2.54-3.97-12.22-13.09-24.55-14.08
			c-12.33-0.99-23.63,2.4-23.63,2.4s-1.99,3.04-8.37-2.59c-6.39-5.62-16.12-11.28-31.3-10.33c-15.18,0.94-24.56,4.28-31.15,11.08
			c-6.59,6.8-12.19,14.88-12.19,14.88l-0.76,3.92c0,0,0.04,2.88-4.12,1.81c-4.15-1.07-17.32-4.81-28.99,2.32
			c-11.67,7.13-15.48,14.93-15.48,14.93s-1.04,3.54-5.58,4.76s-21.83,7.37-27.1,21.74c-5.27,14.37-5.31,20.42-5.31,20.42l-0.06,4.25
			c0,0-0.04,1.96-3.95,3.9c-3.91,1.93-17.81,5.02-24.94,19.75c-7.13,14.73-7.9,23.11-6.88,28.97c1.02,5.86,3.61,11.4,1.31,12.97
			c-2.3,1.58-12.66,14.66-12.19,27.96c0.47,13.29,5.2,22.75,9.85,28.54c4.65,5.79,10.82,11.56,22.13,13.65s25.03-0.51,28.74-3.56
			c3.71-3.05,5.84-3.81,8.54-1.28c2.7,2.53,11.09,5.66,20.61,6.66c9.52,1,20.8,0.33,29.61-4.41c8.81-4.74,6.38-3.3,6.38-3.3
			s1.22-3.16,4.7,1.2c3.48,4.37,11.93,9.94,18.19,11.64c6.26,1.7,18.27,5.28,31.04,0c12.77-5.28,18.21-10.92,18.21-10.92
			s1.68-4.44,5.76,1.39c4.08,5.83,18.21,11.17,23.97,12.22c5.76,1.04,16.08,1.63,22.85-2.96c6.77-4.58,17.28-14.48,24.64-9.84
			c7.36,4.63,17.49,4.77,25.04,3.63c7.55-1.14,16.77-4.02,16.77-4.02s4.01-1.81,7.33,0.98c3.33,2.79,28.38,9.46,43.18,0
			c14.79-9.46,23.71-19.05,25.79-32.88c2.09-13.84-0.59-21.85-4.37-27.79c-3.78-5.94-6.09-8.77-6.09-8.77s-2.97-2.23-3.44-7.33
			c-0.47-5.09-2.73-24.82-12.51-34.51c-9.78-9.69-16.32-13.81-16.32-13.81s-5.98-0.56-5.58-5.38
			C470.93,256.72,469.27,246.21,468.94,243.04z"/>
		<g>
			<path class="st4" d="M246.71,362.85c-2.86-1.45-5.92-1.48-9.01-0.84c-3.24,0.67-6.79,1.93-9.14,4.35
				c-4.75,4.89-4.99,12.39-4.73,18.78c0.09,2.18-3.3,2.62-3.39,0.42c-0.32-7.65,0.19-16.29,6.07-21.95c2.82-2.71,6.74-4.1,10.5-4.93
				c3.7-0.82,7.62-0.7,11.05,1.03C250.01,360.7,248.67,363.84,246.71,362.85L246.71,362.85z"/>
		</g>
		<g>
			<path class="st4" d="M415.03,380.97c1.45-2.86,1.48-5.92,0.84-9.01c-0.67-3.24-1.93-6.79-4.35-9.14
				c-4.89-4.75-12.39-4.99-18.78-4.73c-2.18,0.09-2.62-3.3-0.42-3.39c7.65-0.32,16.29,0.19,21.95,6.07c2.71,2.82,4.1,6.74,4.93,10.5
				c0.82,3.7,0.7,7.62-1.03,11.05C417.18,384.27,414.03,382.93,415.03,380.97L415.03,380.97z"/>
		</g>
		<circle class="st0" cx="325.2" cy="305.68" r="98.01"/>
		<path class="st3" d="M275.56,237.44c0.62-1.2,1.8-1.34,2.74-0.88c1.13-2.7,2.16-5.35,2.04-6c-0.28-1.42,0.37-4.4,0.37-4.4
			s10.45,0.62,14.21,0c3.76-0.62,17.48-4.62,19.68-6.12c2.21-1.51,3.95-2.83,5.44,0c1.49,2.83,3.38,5.42,11.54,10.37
			c8.17,4.95,11.38,6.75,14.29,6.83c2.9,0.08,9.83-0.95,9.83-0.95s0.03-0.01,0.07-0.01c0.65-2.09,4.3-1.84,4.37,0.76
			c0.34,12.71-5.32,27.88-18.6,31.66c-7.71,2.2-19.45,1.32-21.61-8.11c-0.03-0.15-0.06-0.3-0.09-0.45c-1.2,0.31-2.41,0.55-3.63,0.72
			c-5.35,0.75-11.41,0.18-15.75-3.33c-1.09-0.88-1.98-1.93-2.67-3.08c-4.14,2.85-9.23,4.7-14.29,3.79
			c-5.87-1.06-9.8-5.98-10.11-11.84C273.23,243.25,274.13,240.19,275.56,237.44z"/>
		<path class="st3" d="M394.35,258.52c0,0-24.01,15.56-51.88-13.62c0,0-27.78-28.8,6.7-29.18
			C383.65,215.33,396.13,243.73,394.35,258.52z"/>
		<path class="st3" d="M287.32,244.02c0,0-4.98,30.2-44.2,30.33c0,0-24.21-28.31-2.42-47.13S287.32,221.24,287.32,244.02z"/>
		<path class="st3" d="M303.89,200.87l27.7,29.53c0,0,6.85,10.62,28.56,6.62c0,0,8.07,10.15,28.94,18.09c0,0-13.15,40.11,33.9,43.11
			C422.99,298.22,441.31,190.79,303.89,200.87z"/>
		<path class="st3" d="M243.13,274.35c0,0,16.24,39.29-3.46,46.14c-19.7,6.85-56.25-0.89-35.97-34.14
			C223.99,253.09,243.13,274.35,243.13,274.35z"/>
		<path class="st3" d="M411.6,274.35c0,0-16.24,39.29,3.46,46.14c19.7,6.85,56.25-0.89,35.97-34.14
			C430.73,253.09,411.6,274.35,411.6,274.35z"/>
		<path class="st3" d="M327.24,195.78c0,0-6.51,42.41-61.77,27.16C265.47,222.94,274.4,173.25,327.24,195.78z"/>
		<path class="st3" d="M279.8,211.07c0,0,15.69,36.83-25.54,45.63c0,0,12.28,52.03-55.48,40.6
			C198.77,297.3,193.05,189.81,279.8,211.07z"/>
		<g>
			<path class="st4" d="M320.98,216.73c3.77,6.5,9.63,11.64,16.46,14.75c7.93,3.62,16.77,3.65,24.98,0.91
				c2.73-0.92,3.91,3.4,1.19,4.31c-9.17,3.07-18.94,2.8-27.8-1.08c-7.74-3.39-14.43-9.32-18.68-16.63
				C315.67,216.49,319.53,214.24,320.98,216.73L320.98,216.73z"/>
		</g>
		<g>
			<path class="st4" d="M331.96,191.71c0.17,4.62-0.97,9.53-2.67,13.79c-3.84,9.65-11.5,16.67-21.28,20.1
				c-8.51,2.98-17.82,3.2-26.72,2.37c-2.84-0.27-2.87-4.74,0-4.47c12.59,1.18,27.1,0.28,36.76-8.94c5.21-4.97,8.14-11.6,9.17-18.65
				c0.09-0.62-0.06,0.47,0.02-0.12c0.02-0.17,0.04-0.34,0.06-0.51c0.03-0.31,0.06-0.62,0.09-0.93c0.04-0.46,0.07-0.92,0.09-1.38
				c0.02-0.42,0.03-0.84,0.01-1.26C327.38,188.83,331.85,188.84,331.96,191.71L331.96,191.71z"/>
		</g>
		<g>
			<path class="st4" d="M207.33,295.89c12.57,6.03,27.91,3.4,37.6-6.64c8.98-9.3,11.42-23.72,5.69-35.38
				c-3.38-6.87-9.03-12.14-15.96-15.32c-2.61-1.2-0.34-5.05,2.26-3.86c14.13,6.49,22.93,21.57,21.01,37.1
				c-1.75,14.21-12.06,26.19-25.76,30.29c-9,2.7-18.67,1.72-27.11-2.33C202.48,298.5,204.74,294.65,207.33,295.89L207.33,295.89z"/>
		</g>
		<g>
			<path class="st4" d="M223.51,302.96c0.65-0.82-0.16,0.23-0.37,0.52c-0.58,0.83-1.14,1.68-1.67,2.54c-1.76,2.87-3.3,5.9-4.5,9.05
				c-3.53,9.25-4.36,19.34-0.88,28.74c2.71,7.32,7.84,13.38,13.69,18.41c2.18,1.88-0.99,5.03-3.16,3.16
				c-10.24-8.81-17.38-20.78-17.27-34.57c0.07-9.09,3.02-18.07,7.57-25.89c1.03-1.78,2.15-3.51,3.42-5.13
				C222.13,297.54,225.28,300.73,223.51,302.96L223.51,302.96z"/>
		</g>
		<g>
			<path class="st4" d="M254.25,256.7c9.45-3.09,17.45-10.05,21.32-19.28c3.8-9.07,3.27-19.65-1.42-28.29
				c-9.64-17.78-33.31-23.48-50.28-12.76c-9.16,5.78-15.08,15.68-15.69,26.5c-0.16,2.86-4.63,2.88-4.47,0
				c0.61-10.89,5.76-21.02,14.33-27.81c8.78-6.97,20.11-9.83,31.18-8.19c22.56,3.35,38.48,26.29,31.8,48.52
				c-3.68,12.27-13.51,21.66-25.58,25.61C252.7,261.9,251.53,257.59,254.25,256.7L254.25,256.7z"/>
		</g>
		<g>
			<path class="st4" d="M253.11,217.44c-9.89-8.64-24.17-9.88-35.34-2.98c-10.8,6.67-16.63,19.32-15.94,31.84
				c0.44,8,3.67,15.68,9.11,21.56c1.95,2.11-1.2,5.28-3.16,3.16c-10.86-11.74-13.36-29.15-6.86-43.67
				c5.5-12.3,17.56-21.28,31.17-21.87c8.94-0.39,17.5,2.95,24.19,8.8C258.44,216.17,255.27,219.32,253.11,217.44L253.11,217.44z"/>
		</g>
		<path class="st3" d="M209.43,289.7c0,0-19.98,5.86-18.89,36.01c1.09,30.15,12.02,38.59,15.66,47.14
			c3.64,8.55-13.87,18.12-25.52,6.11c-11.66-12.01-22.33-37.85-16.57-61.57c5.75-23.72,13.19-30.1,26.43-38.74
			C203.77,270.02,220.52,278.39,209.43,289.7z"/>
		<g>
			<path class="st4" d="M229.76,271.74c-15.9-2.03-31.85,2.73-43.94,13.31c-11.57,10.13-19.01,24.6-20.8,39.86
				c-1.85,15.78,1.94,31.93,11.05,45c8.59,12.31,21.77,21.15,36.59,23.84c19.54,3.55,30.84,2.24,43.72-12.55
				c1.89-2.17,5.04,1,3.16,3.16c-12.42,14.25-22.58,15.95-41.58,14.53c-16.02-1.2-30.98-9.02-41.44-21.17
				c-22.37-25.99-21.65-66.82,1.96-91.8c13.16-13.92,32.23-21.08,51.28-18.65C232.57,267.63,232.61,272.11,229.76,271.74
				L229.76,271.74z"/>
		</g>
		<path class="st3" d="M479.87,318.8c0,0-8.01-29.41-24.24-38.89c-16.22-9.48-23.45-11.66-30.15-12.05s-12.56,1.11-11.31,4.67
			c1.26,3.56,22.82,8.7,27.01,22.25c4.19,13.55,12.56,36.48,3.56,53.91c-9,17.43-15.7,35.22-9.42,36.48
			c6.28,1.26,37.58-9.55,42.55-33.35C482.85,328.01,481.54,325.7,479.87,318.8z"/>
		<g>
			<g>
				<path class="st4" d="M438.27,298.16c-14.26,6.84-31.65,4.26-42.82-7.13c-10.45-10.65-13.19-26.93-6.87-40.44
					c3.62-7.73,10.1-13.95,17.84-17.5c2.6-1.19,4.87,2.66,2.26,3.86c-12.5,5.74-20.31,18.51-18.9,32.33
					c1.26,12.33,10.27,22.98,22,26.71c7.98,2.54,16.69,1.92,24.24-1.7C438.59,293.06,440.86,296.92,438.27,298.16L438.27,298.16z"/>
			</g>
			<g>
				<path class="st4" d="M422.99,298.22c9.81,12.45,14.16,30.72,8.35,45.74c-3.03,7.83-8.31,14.4-14.63,19.84
					c-2.17,1.87-5.35-1.28-3.16-3.16c9.6-8.25,16.28-19.2,15.95-32.15c-0.21-8.15-2.98-16.14-7.09-23.13
					c-0.63-1.07-1.29-2.12-1.99-3.14c-0.24-0.34-1.22-1.65-0.59-0.84C418.07,299.14,421.21,295.96,422.99,298.22L422.99,298.22z"/>
			</g>
			<g>
				<path class="st4" d="M387.9,259.42c-10.65-3.49-19.65-11.19-24.09-21.57c-4.4-10.28-3.93-22.13,1.24-32.05
					c10.59-20.31,37.79-27.03,56.92-14.72c10.4,6.69,16.96,17.86,17.65,30.2c0.16,2.87-4.31,2.86-4.47,0
					c-1.14-20.33-20.67-34.75-40.47-31.59c-19.8,3.17-33.87,22.92-28.15,42.63c3.16,10.87,11.88,19.29,22.54,22.79
					C391.81,256,390.64,260.32,387.9,259.42L387.9,259.42z"/>
			</g>
			<g>
				<path class="st4" d="M387.07,212.69c11.37-9.93,27.81-11.67,40.76-3.68c12.18,7.53,19.07,21.87,18.14,36.07
					c-0.6,9.09-4.21,17.66-10.4,24.36c-1.96,2.12-5.11-1.05-3.16-3.16c9.42-10.19,11.75-25.59,6.16-38.26
					c-4.75-10.77-15.05-18.99-27.01-19.64c-7.84-0.43-15.43,2.32-21.33,7.47C388.08,217.74,384.9,214.59,387.07,212.69
					L387.07,212.69z"/>
			</g>
			<g>
				<path class="st4" d="M413.58,265.69c15.56-1.98,31.3,2.35,43.74,11.88c11.9,9.11,20.31,22.34,23.89,36.87
					c7.31,29.68-5.94,63.15-33.92,76.9c-17.3,8.5-37.69,7.94-54.62-1.24c-2.53-1.37-0.28-5.23,2.26-3.86
					c14.28,7.73,31.3,8.86,46.41,2.88c12.71-5.03,23.17-14.91,29.68-26.85c13.79-25.29,8.78-58.55-12.63-78.04
					c-12.18-11.08-28.49-16.16-44.8-14.09C410.74,270.52,410.77,266.05,413.58,265.69L413.58,265.69z"/>
			</g>
		</g>
		<g>
			<g>
				<path class="st5" d="M428.41,219.76c9.8,8.67,12.07,23.41,5.93,34.85c-1.36,2.53-5.22,0.28-3.86-2.26
					c5.25-9.76,3.06-22.1-5.23-29.43C423.09,221.02,426.26,217.86,428.41,219.76L428.41,219.76z"/>
			</g>
			<g>
				<path class="st5" d="M410.15,213.58c3.68-0.31,7.46,0.26,10.89,1.65c0.56,0.23,1.02,0.48,1.34,1.03
					c0.28,0.48,0.4,1.18,0.23,1.72c-0.34,1.04-1.59,2.03-2.75,1.56c-1.58-0.64-3.21-1.11-4.89-1.38c-0.09-0.02-0.18-0.03-0.28-0.04
					c0.29,0.04,0.3,0.04,0.04,0.01c-0.19-0.02-0.37-0.04-0.56-0.06c-0.44-0.04-0.88-0.07-1.32-0.08c-0.9-0.03-1.79,0-2.68,0.08
					c-1.17,0.1-2.29-1.1-2.23-2.23C407.97,214.52,408.9,213.69,410.15,213.58L410.15,213.58z"/>
			</g>
			<g>
				<path class="st5" d="M334.88,264.12c-1.44,0.11-2.88,0.11-4.31,0.03c-0.59-0.03-1.15-0.23-1.58-0.65
					c-0.39-0.39-0.68-1.02-0.65-1.58c0.03-0.58,0.22-1.18,0.65-1.58c0.42-0.39,0.99-0.69,1.58-0.65c1.44,0.08,2.88,0.08,4.31-0.03
					c0.54-0.04,1.21,0.28,1.58,0.65c0.39,0.39,0.68,1.02,0.65,1.58c-0.03,0.58-0.22,1.18-0.65,1.58
					C336,263.89,335.49,264.08,334.88,264.12L334.88,264.12z"/>
			</g>
			<g>
				<path class="st5" d="M354.23,244.37c-0.01,5.13-2.32,10.61-5.96,14.19c-1.91,1.87-4.18,3.2-6.65,4.16
					c-1.13,0.44-2.45-0.48-2.75-1.56c-0.35-1.26,0.43-2.31,1.56-2.75c0.14-0.06,0.29-0.11,0.43-0.17c-0.05,0.02-0.24,0.11-0.01,0
					c0.24-0.11,0.47-0.22,0.7-0.33c0.44-0.22,0.88-0.47,1.3-0.73c0.4-0.25,0.8-0.52,1.17-0.81c-0.33,0.25,0.14-0.12,0.24-0.2
					c0.2-0.17,0.39-0.34,0.57-0.51c0.32-0.3,0.62-0.61,0.92-0.93c0.12-0.13,0.24-0.27,0.36-0.41c0.08-0.09,0.15-0.19,0.23-0.28
					c0.21-0.25-0.21,0.29-0.02,0.03c0.49-0.66,0.94-1.35,1.34-2.08c0.17-0.31,0.33-0.62,0.48-0.94c0.08-0.17,0.15-0.34,0.23-0.5
					c0.05-0.11,0.14-0.39-0.04,0.11c0.04-0.09,0.08-0.19,0.11-0.28c0.24-0.63,0.46-1.25,0.64-1.9c0.16-0.58,0.3-1.16,0.42-1.75
					c0.05-0.25,0.09-0.49,0.13-0.74c0.02-0.1,0.03-0.19,0.04-0.29c0.01-0.05-0.07,0.61-0.02,0.15c0.05-0.49,0.11-0.98,0.11-1.47
					c0-1.21,1.03-2.23,2.23-2.23C353.21,242.14,354.24,243.16,354.23,244.37L354.23,244.37z"/>
			</g>
			<g>
				<path class="st5" d="M317.12,256.42c-1.98,0.41-4.08,0.55-6.1,0.42c-0.59-0.04-1.15-0.23-1.58-0.65
					c-0.39-0.39-0.68-1.02-0.65-1.58c0.03-0.58,0.22-1.18,0.65-1.58c0.42-0.39,0.99-0.69,1.58-0.65c1.49,0.09,2.99,0.02,4.46-0.18
					c-0.2,0.03-0.4,0.05-0.59,0.08c0.35-0.05,0.7-0.1,1.04-0.17c0.59-0.12,1.19-0.09,1.72,0.23c0.46,0.27,0.91,0.8,1.03,1.34
					c0.13,0.57,0.1,1.21-0.23,1.72C318.15,255.86,317.69,256.3,317.12,256.42L317.12,256.42z"/>
			</g>
			<g>
				<path class="st5" d="M367.06,172.97c5.29,0.71,10.41,2.64,14.87,5.57c1.01,0.66,1.43,1.98,0.8,3.06c-0.59,1-2.04,1.47-3.06,0.8
					c-4.23-2.78-8.72-4.44-13.81-5.12c-1.16-0.16-1.9-1.71-1.56-2.75C364.72,173.25,365.81,172.8,367.06,172.97L367.06,172.97z"/>
			</g>
			<g>
				<path class="st5" d="M352.79,174.06c2.08-0.48,4.19-0.8,6.31-0.99c0.54-0.05,1.21,0.28,1.58,0.65c0.39,0.39,0.68,1.02,0.65,1.58
					c-0.03,0.58-0.22,1.18-0.65,1.58c-0.46,0.42-0.96,0.6-1.58,0.65c-0.63,0.06-1.26,0.13-1.88,0.21c0.2-0.03,0.4-0.05,0.59-0.08
					c-1.29,0.18-2.57,0.41-3.83,0.7c-0.58,0.13-1.2,0.08-1.72-0.23c-0.46-0.27-0.91-0.8-1.03-1.34
					C350.97,175.67,351.57,174.34,352.79,174.06L352.79,174.06z"/>
			</g>
			<g>
				<path class="st5" d="M320.4,204.83c-2.95,5.44-7.6,9.78-13.18,12.46c-1.05,0.5-2.46,0.33-3.06-0.8c-0.53-1-0.32-2.52,0.8-3.06
					c1.46-0.7,2.87-1.5,4.2-2.43c0.14-0.1,0.27-0.19,0.41-0.29c0.05-0.04,0.53-0.39,0.33-0.24c-0.22,0.17,0.19-0.15,0.23-0.19
					c0.15-0.12,0.3-0.24,0.45-0.37c0.55-0.46,1.08-0.95,1.59-1.45c0.47-0.47,0.92-0.95,1.36-1.45c0.21-0.24,0.42-0.49,0.62-0.74
					c0.13-0.17,0.31-0.4,0.08-0.09c0.1-0.14,0.21-0.27,0.31-0.41c0.75-1.02,1.41-2.09,2.01-3.19c0.56-1.03,2.07-1.44,3.06-0.8
					C320.64,202.45,321,203.73,320.4,204.83L320.4,204.83z"/>
			</g>
			<g>
				<path class="st5" d="M323.97,194.03c-0.26,1.76-0.66,3.5-1.2,5.2c-0.17,0.55-0.52,1.04-1.03,1.34c-0.48,0.28-1.18,0.4-1.72,0.23
					c-0.54-0.17-1.06-0.51-1.34-1.03c-0.27-0.52-0.41-1.14-0.23-1.72c0.54-1.7,0.94-3.44,1.2-5.2c0.08-0.51,0.6-1.09,1.03-1.34
					c0.48-0.28,1.18-0.4,1.72-0.23c0.54,0.17,1.06,0.51,1.34,1.03c0.08,0.18,0.15,0.36,0.23,0.53
					C324.07,193.23,324.07,193.63,323.97,194.03L323.97,194.03z"/>
			</g>
			<g>
				<g>
					<path class="st5" d="M461.69,254.6c0.31-5.63-1.35-11.23-4.88-15.61c-0.76-0.94-0.92-2.24,0-3.16c0.78-0.78,2.4-0.94,3.16,0
						c4.29,5.31,6.57,11.92,6.19,18.77c-0.07,1.21-0.98,2.23-2.23,2.23C462.77,256.83,461.62,255.81,461.69,254.6L461.69,254.6z"/>
				</g>
				<g>
					<path class="st5" d="M458.58,264.62c0.58-0.97,1.09-1.99,1.53-3.03c-0.08,0.18-0.15,0.36-0.23,0.53
						c0.29-0.7,0.56-1.42,0.79-2.15c0.17-0.55,0.52-1.04,1.03-1.34c0.48-0.28,1.18-0.4,1.72-0.23c0.54,0.17,1.06,0.51,1.34,1.03
						c0.27,0.52,0.41,1.14,0.23,1.72c-0.63,1.99-1.48,3.92-2.54,5.71c-0.29,0.49-0.79,0.88-1.34,1.03
						c-0.53,0.15-1.25,0.08-1.72-0.23C458.37,267.02,457.94,265.69,458.58,264.62L458.58,264.62z"/>
				</g>
			</g>
			<g>
				<g>
					<path class="st5" d="M494.98,325.08c0.2-2.09,0.23-4.18,0.1-6.27c-0.07-1.17,1.08-2.29,2.23-2.23
						c1.27,0.06,2.16,0.98,2.23,2.23c0.13,2.09,0.1,4.19-0.1,6.27c-0.06,0.61-0.21,1.14-0.65,1.58c-0.39,0.39-1.02,0.68-1.58,0.65
						c-0.58-0.03-1.18-0.22-1.58-0.65C495.26,326.24,494.93,325.66,494.98,325.08L494.98,325.08z"/>
				</g>
				<g>
					<path class="st5" d="M491.35,339.69c0.17-0.35,0.32-0.71,0.48-1.06c0.1-0.23,0.09-0.2-0.03,0.07c0.04-0.1,0.09-0.21,0.13-0.31
						c0.06-0.16,0.13-0.31,0.19-0.47c0.3-0.76,0.57-1.54,0.81-2.32c0.49-1.57,0.86-3.17,1.14-4.79c0.2-1.16,1.68-1.91,2.75-1.56
						c1.25,0.4,1.77,1.51,1.56,2.75c-0.59,3.45-1.68,6.77-3.17,9.94c-0.5,1.06-2.11,1.42-3.06,0.8
						C491.06,342.05,490.81,340.83,491.35,339.69L491.35,339.69z"/>
				</g>
			</g>
			<g>
				<g>
					<path class="st5" d="M473.55,319.1c4.64,22.35-4.08,46.11-23.53,58.59c-2.43,1.56-4.67-2.31-2.26-3.86
						c17.69-11.35,25.7-33.22,21.48-53.54C468.65,317.48,472.96,316.28,473.55,319.1L473.55,319.1z"/>
				</g>
				<g>
					<path class="st5" d="M467.63,303.57c1.31,2.33,2.44,4.75,3.41,7.24c0.2,0.51,0.04,1.27-0.23,1.72
						c-0.27,0.46-0.8,0.91-1.34,1.03c-0.57,0.13-1.21,0.1-1.72-0.23c-0.52-0.33-0.8-0.76-1.03-1.34c-0.17-0.43-0.35-0.86-0.53-1.29
						c0.08,0.18,0.15,0.36,0.23,0.53c-0.79-1.85-1.67-3.66-2.66-5.41c-0.57-1.02-0.28-2.49,0.8-3.06
						C465.63,302.21,467.02,302.48,467.63,303.57L467.63,303.57z"/>
				</g>
			</g>
			<g>
				<g>
					<path class="st5" d="M137.22,359.87c2.72,12.99,14.07,22.49,27.39,22.58c2.88,0.02,2.88,4.49,0,4.47
						c-15.2-0.11-28.58-10.94-31.7-25.86C132.32,358.26,136.63,357.06,137.22,359.87L137.22,359.87z"/>
				</g>
				<g>
					<path class="st5" d="M137.43,348.01c-0.23,0.98-0.41,1.98-0.55,2.98c0.03-0.2,0.05-0.4,0.08-0.59
						c-0.17,1.33-0.26,2.68-0.26,4.02c0,1.17-1.03,2.29-2.23,2.23c-1.21-0.05-2.24-0.98-2.23-2.23c0.01-2.55,0.31-5.11,0.89-7.6
						c0.27-1.14,1.63-1.92,2.75-1.56C137.06,345.65,137.71,346.79,137.43,348.01L137.43,348.01z"/>
				</g>
			</g>
			<g>
				<path class="st5" d="M177.83,317.98c-7.15,24.23,4.46,52.32,29.13,60.77c2.71,0.93,1.54,5.25-1.19,4.31
					c-26.94-9.24-40.13-39.6-32.26-66.27C174.33,314.04,178.64,315.21,177.83,317.98L177.83,317.98z"/>
			</g>
			<g>
				<path class="st5" d="M190.33,297.32c-1.48,1.44-2.86,2.97-4.15,4.59c-0.07,0.09-0.15,0.18-0.22,0.27
					c-0.03,0.04-0.28,0.33-0.09,0.12c0.21-0.23-0.11,0.14-0.14,0.19c-0.07,0.09-0.14,0.19-0.21,0.28c-0.31,0.42-0.62,0.85-0.92,1.28
					c-0.61,0.87-1.18,1.76-1.73,2.66c-0.61,1-2.03,1.46-3.06,0.8c-1-0.65-1.45-1.99-0.8-3.06c2.28-3.75,5.03-7.24,8.17-10.31
					c0.84-0.82,2.34-0.9,3.16,0C191.14,295.05,191.22,296.45,190.33,297.32L190.33,297.32z"/>
			</g>
			<g>
				<path class="st5" d="M214.62,226.87c-7.47,9.4-7.78,22.94-1.1,32.82c1.62,2.39-2.26,4.63-3.86,2.26
					c-7.89-11.67-6.88-27.31,1.8-38.23C213.25,221.46,216.39,224.64,214.62,226.87L214.62,226.87z"/>
			</g>
			<g>
				<path class="st5" d="M227.27,218.4c-0.71,0.2-1.41,0.42-2.1,0.67c-0.29,0.11-0.6,0.28-0.9,0.35c0.32-0.14,0.37-0.16,0.15-0.06
					c-0.08,0.04-0.17,0.07-0.25,0.11c-0.17,0.07-0.33,0.15-0.5,0.23c-1.29,0.61-2.52,1.32-3.7,2.13c-0.97,0.66-2.52,0.21-3.06-0.8
					c-0.6-1.13-0.23-2.35,0.8-3.06c2.54-1.74,5.39-3.06,8.35-3.88c1.13-0.31,2.48,0.39,2.75,1.56
					C229.1,216.83,228.48,218.06,227.27,218.4L227.27,218.4z"/>
			</g>
		</g>
		<polygon class="st7" points="326.37,318.8 335.5,338.88 316.75,338.88 		"/>
		
			<ellipse transform="matrix(0.4407 -0.8977 0.8977 0.4407 -56.6625 572.5828)" class="st0" cx="431.13" cy="331.76" rx="25.69" ry="21.26"/>
		
			<ellipse transform="matrix(0.8977 -0.4407 0.4407 0.8977 -123.3989 132.1142)" class="st0" cx="222.77" cy="331.76" rx="21.26" ry="25.69"/>
		<path class="st4" d="M409.93,304.39c0,0,1.24-41.39-39.68-41.39c-21.76,0-32.4,31.45-32.4,31.45s10.3-32.17,38.57-26.69
			C406.02,273.5,409.93,304.39,409.93,304.39z"/>
		<path class="st4" d="M244.91,309.47c0,0-0.89-46.17,31.71-46.17c34.52,0,36.01,31.15,36.01,31.15s-7.32-30.57-38.57-26.69
			C244.15,271.48,244.91,309.47,244.91,309.47z"/>
		<ellipse class="st6" cx="279.16" cy="304.39" rx="34.25" ry="37.94"/>
		<ellipse class="st6" cx="373.26" cy="304.39" rx="36.68" ry="37.94"/>
		<ellipse cx="369.08" cy="305.68" rx="25.43" ry="31.9"/>
		<ellipse cx="282.55" cy="304.39" rx="25.98" ry="31.9"/>
		<path d="M361.24,253.34c0,0,20.67-37.68,47.94,1.62C409.19,254.95,389.01,231.34,361.24,253.34z"/>
		<path d="M303.13,253.34c0,0-20.67-37.68-47.94,1.62C255.19,254.95,275.36,231.34,303.13,253.34z"/>
		<path class="st6" d="M363.46,343.05c0,0-31.47,10.64-81.82,0.7c0,0,10.21,35.8,39.9,35.8
			C354.22,379.55,363.46,343.05,363.46,343.05z"/>
		<ellipse class="st8" cx="381.55" cy="342.33" rx="20.64" ry="7.12"/>
		<ellipse class="st8" cx="267.31" cy="342.33" rx="20.64" ry="7.12"/>
	</g>
</g>
</svg>
