<?xml version="1.0" encoding="utf-8"?>
<!-- Generator: Adobe Illustrator 24.0.1, SVG Export Plug-In . SVG Version: 6.00 Build 0)  -->
<svg version="1.1" id="Capa_1" xmlns="http://www.w3.org/2000/svg" xmlns:xlink="http://www.w3.org/1999/xlink" x="0px" y="0px"
	 viewBox="0 0 623.62 850.39" style="enable-background:new 0 0 623.62 850.39;" xml:space="preserve">
<style type="text/css">
	.st0{fill:#F9D6E4;}
	.st1{fill:#45A759;}
	.st2{fill:#15632D;}
	.st3{fill:#F08CA7;}
	.st4{fill:#B52955;}
	.st5{fill:#F6BFD3;}
	.st6{fill:#FFFFFF;}
	.st7{fill:#CD94A9;}
	.st8{fill:#E16874;}
	.st9{fill:#EEEEEE;}
	.st10{fill:#C9C7C7;}
	.st11{clip-path:url(#SVGID_2_);}
	.st12{clip-path:url(#SVGID_2_);fill:#F08CA7;}
	.st13{fill:#CBC9CA;}
	.st14{fill:#E1E0E0;}
	.st15{fill:#B693C3;}
	.st16{fill:#F8DF28;}
	.st17{fill:#65A2D8;}
	.st18{fill:#DEE275;}
	.st19{fill:#FFDB43;}
	.st20{fill:#E75C2A;}
	.st21{fill:#F49D4E;}
	.st22{opacity:0.5;}
	.st23{fill:#F3B0CF;}
	.st24{fill:#704F9A;}
	.st25{fill:#616160;}
	.st26{fill:#5AE4A7;}
	.st27{fill:#FF0000;}
	.st28{fill:#82CEE0;}
	.st29{fill:#9E6D0B;}
	.st30{fill:#828E0C;}
	.st31{fill:#FFFF00;}
	.st32{clip-path:url(#SVGID_4_);}
	.st33{clip-path:url(#SVGID_4_);fill:#F08CA7;}
	.st34{clip-path:url(#SVGID_6_);}
	.st35{clip-path:url(#SVGID_6_);fill:#F08CA7;}
	.st36{fill:none;stroke:#B52955;stroke-width:3;stroke-linecap:round;stroke-linejoin:round;stroke-miterlimit:10;}
	.st37{clip-path:url(#SVGID_8_);}
	.st38{clip-path:url(#SVGID_8_);fill:#F08CA7;}
	.st39{fill:#606060;}
	.st40{clip-path:url(#SVGID_10_);}
	.st41{clip-path:url(#SVGID_10_);fill:#F08CA7;}
	.st42{clip-path:url(#SVGID_12_);}
	.st43{clip-path:url(#SVGID_12_);fill:#F08CA7;}
	.st44{clip-path:url(#SVGID_14_);}
	.st45{clip-path:url(#SVGID_14_);fill:#F08CA7;}
	.st46{clip-path:url(#SVGID_16_);}
	.st47{clip-path:url(#SVGID_16_);fill:#F08CA7;}
	.st48{clip-path:url(#SVGID_18_);}
	.st49{clip-path:url(#SVGID_18_);fill:#F08CA7;}
	.st50{clip-path:url(#SVGID_20_);}
	.st51{clip-path:url(#SVGID_20_);fill:#F08CA7;}
	.st52{clip-path:url(#SVGID_22_);}
	.st53{clip-path:url(#SVGID_22_);fill:#F08CA7;}
	.st54{fill:none;}
</style>
<g>
	<g>
		<g>
			<path class="st0" d="M143.9,500.09c0.98,0.85-4.6-14.57,3.79-18.48c0.4-0.19,0.82,0.14,0.9,0.52
				c2.41,11.24,3.53,24.4,12.53,32.83c0.34,0.21,0.65,0.43,0.91,0.66c0,0,0.01,0,0.02,0c0.35-0.03,0.69,0.21,0.74,0.57
				c0.01,0.07,0.01,0.14-0.01,0.21c2.58,3.27-0.31,7.96-3.33,10.53c-2.67,2.27-7.44,4.27-10.13,1.97c-0.03-0.02-0.06-0.04-0.09-0.06
				c-1.39-1.13-2.88-2.16-4.64-2.58c-1.4-0.34-2.84-0.2-4.23-0.04c-3.74,0.43-9.93-1.23-12.98-2.76c-4.47-2.24-1.57-6.82-1.57-6.82
				c-3.44-4.24,0.42-5.65,0.42-5.65c-2.28-2.47,0.83-5.06,0.83-5.06s-1.83-3.21,1.58-4.83C132.57,499.23,142.67,499.03,143.9,500.09
				z"/>
		</g>
		<g>
			<path class="st9" d="M162.32,514.22l-13.42,13.7c0,0,4.97,43.49,73.11,34.23c68.14-9.25,76.84-104.68,64.85-113.56
				c-12-8.88-34.44,4.18-47.14,23.26c-12.7,19.08-13.43,48.38-33.75,54.55C173.35,536.31,162.32,514.22,162.32,514.22z"/>
		</g>
		<path class="st7" d="M137.12,501.02c0,0,7.07,6.75,2.93,9.81c-4.13,3.06-6.1,1.4-6.1,1.4s3.55,1.68,1,4.76
			c-2.55,3.08-6.35,2.63-6.35,2.63s3.56,1.78,1.35,3.27c0,0,3.4,2.19,3.38-2.75c0,0,4.88-1.34,3.77-5.61
			C137.1,514.53,149.43,510.11,137.12,501.02z"/>
		<path class="st7" d="M145.75,502.24c0,0-5.73,11.22,4.82,16.21C150.57,518.44,136.47,516.74,145.75,502.24z"/>
	</g>
	<g>
		<path class="st1" d="M351.69,77.12c-10.11-6.23-18.2-15.58-22.78-26.1c-1.11-2.39-1.93-5.25-0.87-7.69
			c1.72-3.67,7.53-4.16,11.2-1.91s5.66,6.29,7.21,10.18C349.64,59.85,351.37,68.5,351.69,77.12z"/>
		<path class="st1" d="M338.72,102.62c-8.29-8.41-13.73-19.22-15.44-30.44c-0.4-2.71-0.48-5.65,1.16-7.67
			c2.62-3.14,8.45-2.28,11.49,0.76c3.04,3.05,3.96,7.39,4.38,11.45C341.23,85.33,340.76,94.13,338.72,102.62z"/>
		<path class="st1" d="M326.64,119.12c-9.37-6.65-16.5-16.01-19.97-26.26c-0.86-2.42-1.47-5.2-0.11-7.43
			c1.98-3.36,7.79-3.52,11.28-1.1s5.05,6.31,6.14,10.15C326.31,102.44,327.19,110.8,326.64,119.12z"/>
		<path class="st1" d="M352.29,74.97c2.93-10.76,9.59-20.49,18.75-27.34c2.11-1.63,4.8-3.19,7.55-2.81
			c4.32,0.68,6.79,5.78,5.71,9.66c-1.11,3.99-4.49,6.87-7.91,9.18C369.09,68.58,360.92,72.52,352.29,74.97z"/>
		<path class="st1" d="M340.82,93.59c7.17-8.76,17.26-15.19,28.58-18.18c2.73-0.64,5.79-1.17,8.2,0.21c3.74,2.05,4,7.63,1.49,10.81
			c-2.66,3.24-6.95,4.58-11.1,5.53C359.18,93.88,349.99,94.46,340.82,93.59z"/>
		<path class="st1" d="M325.97,117.21c7.17-8.76,17.26-15.19,28.58-18.18c2.73-0.64,5.79-1.17,8.2,0.21c3.74,2.05,4,7.63,1.49,10.81
			c-2.66,3.24-6.95,4.58-11.1,5.53C344.33,117.51,335.14,118.09,325.97,117.21z"/>
		<path class="st1" d="M312.4,151.91c-7.72-8.33-12.66-18.85-13.71-29.51c-0.22-2.54-0.23-5.34,1.6-7.18
			c2.88-2.83,8.6-1.67,11.42,1.3c2.79,3.08,3.43,7.21,3.66,11.1C315.82,135.83,314.81,144.11,312.4,151.91z"/>
		<path class="st1" d="M312.7,146.42c7.17-8.76,17.26-15.19,28.58-18.18c2.73-0.64,5.79-1.17,8.2,0.21c3.74,2.05,4,7.63,1.49,10.81
			c-2.66,3.24-6.95,4.58-11.1,5.53C331.06,146.71,321.77,147.25,312.7,146.42z"/>
		<g>
			<path class="st2" d="M356.17,58.6c0.06-0.54-0.76-0.59-0.71-0.02c-4.68,29.32-27.99,49.63-39.3,76.25
				c-5.43,12.83-8.93,26.31-11.07,40.03c-2.31,14.22-4.39,29.19-4.06,43.75c-0.04,1.89,2.78,2.06,3.03,0.25
				c2.27-14.46,2.29-29.35,4.67-43.77c2.41-14.86,6.03-29.76,12.55-43.33C332.77,107.77,354.97,86.52,356.17,58.6L356.17,58.6z"/>
		</g>
		<path class="st1" d="M353.8,66.64c-4.9-12.75-5.4-26.81-1.68-39.54c0.92-3.05,2.36-6.25,5.23-7.63
			c4.56-2.15,10.53,1.45,12.32,6.08c1.78,4.64,0.58,9.6-0.99,14.22C365.3,49.38,360.27,58.53,353.8,66.64z"/>
	</g>
	<g>
		<path class="st3" d="M385.26,404.61c0,0-0.01-0.04-0.04-0.09C384.57,404.21,385.26,404.61,385.26,404.61z"/>
		<path class="st3" d="M513.21,349.42c-2.29-4.93-5.49-9.38-9.36-13.16c8.38-26.02-6.66-58.93-34.63-64.5
			c0.94-17.15-5.98-34.75-20.32-44.95c-5.46-3.88-11.77-6.21-18.42-6.94c-0.51-0.06-0.93,0.04-1.26,0.23
			c-1.13-1.23-1.46-2.38-1.46-2.38s-3.94-8.06-15.98-15.42c-12.05-7.36-25.64-3.5-29.93-2.4c-0.48,0.12-0.9,0.19-1.27,0.22
			c-6.84-27.74-40.27-41.91-66.23-33.09c-7.65,2.6-14.6,6.83-20.68,12.11c-20.32-8.9-44.56-2.46-57.17,16.09
			c-0.23,0.34-0.35,0.67-0.39,0.99c-1.25,0.3-2.16,0.26-2.16,0.26s0.64-1.84-16.4,2.44c-17.04,4.28-21.14,19.59-22.76,23.85
			c-0.13,0.34-0.28,0.66-0.44,0.94c-0.47-0.32-1.07-0.47-1.76-0.33c-23.66,4.61-39.49,27.66-35.71,51.31
			c-22.95,9.2-35.36,33.13-35.76,57.04c0,0-0.01,0.01-0.01,0.01c-14.33,13.85-19.05,35.1-10.99,53.46
			c7.15,16.29,23.23,27.31,40.67,29.62c12.16,1.6,24.57-0.93,35.12-7.19c0.44-0.26,0.73-0.59,0.9-0.95
			c0.66,0.16,1.06,0.34,1.06,0.34s9.52,2.98,17.32,4.15c7.8,1.17,18.26,1.04,25.86-3.75c7.6-4.78,9.44-0.7,9.44-0.7
			s9.01,6.13,16,10.87c6.99,4.73,17.65,4.13,23.59,3.05c5.94-1.08,20.54-6.6,24.75-12.61c4.22-6.02,5.95-1.43,5.95-1.43
			s5.62,5.83,18.8,11.28c13.19,5.45,25.59,1.75,32.04,0c6.46-1.75,15.19-7.5,18.78-12.01c3.22-4.05,4.57-1.83,4.81-1.33
			c0.59,0.28,2.28,1.16,6.62,3.5c9.1,4.89,20.75,5.58,30.58,4.55c9.83-1.03,18.49-4.27,21.28-6.88c0.76-0.71,1.47-1.16,2.19-1.39
			c-0.04,0.75,0.25,1.52,1.04,2.05c17.47,11.75,41.22,9.84,56.48-4.66C517.48,388.33,521.35,366.97,513.21,349.42z"/>
	</g>
	<g>
		<path class="st3" d="M160.64,254.58c0,0,2.81-12.73,12.74-19.1c9.94-6.38,15.8-8.56,15.8-8.56s3.98,0.47,5.6-3.79
			c1.62-4.26,5.72-19.57,22.76-23.85c17.04-4.28,16.4-2.44,16.4-2.44s4.8,0.21,7.42-3.9c2.62-4.1,12.62-13.52,25.34-14.54
			c12.73-1.02,24.4,2.48,24.4,2.48s2.05,3.14,8.64-2.67c6.59-5.8,16.64-11.64,32.32-10.67c15.67,0.97,25.36,4.42,32.16,11.44
			c6.81,7.02,12.58,15.36,12.58,15.36l0.79,4.04c0,0-0.04,2.97,4.25,1.87c4.29-1.1,17.88-4.97,29.93,2.4
			c12.05,7.36,15.98,15.42,15.98,15.42s1.07,3.66,5.76,4.91s22.54,7.61,27.98,22.45c5.45,14.84,5.49,21.08,5.49,21.08l0.06,4.38
			c0,0,0.04,2.03,4.08,4.02c4.04,1.99,18.39,5.18,25.75,20.39c7.36,15.21,8.16,23.86,7.1,29.91c-1.06,6.05-3.73,11.77-1.36,13.4
			c2.37,1.63,13.07,15.14,12.59,28.86c-0.49,13.73-5.37,23.49-10.17,29.47c-4.8,5.98-11.18,11.94-22.85,14.09
			c-11.67,2.15-25.85-0.53-29.68-3.67c-3.83-3.14-6.03-3.94-8.82-1.33c-2.79,2.61-11.45,5.85-21.28,6.88
			c-9.83,1.03-21.48,0.34-30.58-4.55c-9.1-4.89-6.58-3.41-6.58-3.41s-1.26-3.27-4.85,1.24c-3.59,4.51-12.32,10.26-18.78,12.01
			c-6.46,1.75-18.86,5.45-32.04,0c-13.19-5.45-18.8-11.28-18.8-11.28s-1.73-4.58-5.95,1.43c-4.22,6.02-18.81,11.54-24.75,12.61
			c-5.94,1.08-16.6,1.68-23.59-3.05c-6.99-4.73-17.85-14.95-25.44-10.16c-7.6,4.78-18.06,4.92-25.86,3.75
			c-7.8-1.17-17.32-4.15-17.32-4.15s-4.14-1.87-7.57,1.01c-3.43,2.88-29.3,9.76-44.58,0c-15.27-9.76-24.48-19.66-26.63-33.95
			c-2.15-14.29,0.61-22.56,4.52-28.7c3.91-6.14,6.29-9.05,6.29-9.05s3.07-2.31,3.55-7.56c0.49-5.26,2.82-25.63,12.92-35.63
			c10.1-10,16.85-14.26,16.85-14.26s6.17-0.58,5.77-5.55C158.58,268.7,160.3,257.86,160.64,254.58z"/>
		<g>
			<path class="st4" d="M390.09,378.28c2.95-1.49,6.12-1.53,9.3-0.86c3.34,0.7,7.01,1.99,9.44,4.49c4.91,5.05,5.16,12.79,4.88,19.39
				c-0.09,2.25,3.4,2.7,3.5,0.43c0.33-7.9-0.2-16.82-6.27-22.66c-2.91-2.8-6.96-4.23-10.84-5.09c-3.82-0.84-7.87-0.73-11.41,1.07
				C386.68,376.06,388.06,379.31,390.09,378.28L390.09,378.28z"/>
		</g>
		<g>
			<path class="st4" d="M216.3,396.99c-1.49-2.95-1.53-6.12-0.86-9.3c0.7-3.34,1.99-7.01,4.49-9.44c5.05-4.91,12.79-5.16,19.39-4.88
				c2.25,0.09,2.7-3.4,0.43-3.5c-7.9-0.33-16.82,0.2-22.66,6.27c-2.8,2.91-4.23,6.96-5.09,10.84c-0.84,3.82-0.73,7.87,1.07,11.41
				C214.08,400.39,217.33,399.02,216.3,396.99L216.3,396.99z"/>
		</g>
		<circle class="st0" cx="311.98" cy="325.45" r="94.62"/>
		<path class="st3" d="M360.3,248.8c-0.64-1.23-1.86-1.38-2.83-0.91c-1.17-2.79-2.23-5.52-2.1-6.19c0.29-1.46-0.39-4.55-0.39-4.55
			s-10.79,0.64-14.67,0c-3.88-0.64-18.04-4.77-20.32-6.32c-2.28-1.56-4.08-2.92-5.62,0c-1.54,2.92-3.49,5.6-11.92,10.71
			c-8.43,5.11-11.75,6.97-14.75,7.05c-3,0.08-10.15-0.99-10.15-0.99s-0.03-0.01-0.07-0.01c-0.68-2.16-4.44-1.9-4.51,0.78
			c-0.35,13.12,5.5,28.78,19.21,32.69c7.96,2.27,20.08,1.37,22.31-8.37c0.04-0.15,0.06-0.31,0.1-0.46c1.24,0.32,2.49,0.57,3.75,0.75
			c5.52,0.77,11.78,0.18,16.26-3.44c1.12-0.91,2.04-1.99,2.76-3.18c4.28,2.95,9.53,4.86,14.75,3.91
			c6.06-1.09,10.12-6.18,10.44-12.22C362.71,254.79,361.78,251.64,360.3,248.8z"/>
		<path class="st3" d="M237.65,270.56c0,0,24.79,16.06,53.56-14.07c0,0,28.69-29.74-6.91-30.13
			C248.7,225.97,235.81,255.29,237.65,270.56z"/>
		<path class="st3" d="M348.15,255.6c0,0,5.14,31.18,45.63,31.31c0,0,25-29.23,2.5-48.66S348.15,232.07,348.15,255.6z"/>
		<path class="st3" d="M331.05,211.04l-28.6,30.49c0,0-7.07,10.96-29.49,6.84c0,0-8.33,10.48-29.88,18.68c0,0,13.58,41.41-35,44.51
			C208.08,311.55,189.16,200.63,331.05,211.04z"/>
		<path class="st3" d="M393.78,286.91c0,0-16.77,40.57,3.57,47.64s58.08-0.92,37.14-35.25
			C413.54,264.96,393.78,286.91,393.78,286.91z"/>
		<path class="st3" d="M355.93,221.57c0,0-16.2,38.02,26.37,47.11c0,0-12.68,53.72,57.29,41.92
			C439.59,310.6,445.49,199.62,355.93,221.57z"/>
		<g>
			<path class="st4" d="M313.4,227.41c-3.89,6.71-9.95,12.02-16.99,15.23c-8.19,3.74-17.32,3.77-25.79,0.94
				c-2.82-0.94-4.03,3.51-1.23,4.45c9.46,3.17,19.56,2.9,28.71-1.12c7.99-3.5,14.9-9.63,19.28-17.17
				C318.88,227.17,314.9,224.84,313.4,227.41L313.4,227.41z"/>
		</g>
		<g>
			<path class="st4" d="M302.07,201.58c-0.18,4.77,1,9.84,2.75,14.24c3.96,9.96,11.87,17.22,21.97,20.75
				c8.79,3.07,18.4,3.3,27.58,2.45c2.93-0.27,2.96-4.89,0-4.61c-13,1.21-27.98,0.29-37.95-9.23c-5.38-5.14-8.4-11.98-9.47-19.25
				c-0.09-0.64,0.06,0.49-0.02-0.13c-0.02-0.17-0.04-0.35-0.06-0.52c-0.03-0.32-0.07-0.64-0.09-0.96c-0.04-0.47-0.07-0.95-0.09-1.42
				c-0.02-0.43-0.03-0.86-0.01-1.3C306.79,198.61,302.18,198.62,302.07,201.58L302.07,201.58z"/>
		</g>
		<g>
			<path class="st4" d="M430.75,309.15c-12.97,6.22-28.82,3.51-38.83-6.85c-9.28-9.61-11.79-24.49-5.88-36.53
				c3.49-7.09,9.32-12.53,16.48-15.82c2.7-1.24,0.35-5.22-2.33-3.98c-14.59,6.7-23.67,22.27-21.7,38.3
				c1.81,14.67,12.45,27.04,26.59,31.27c9.3,2.78,19.28,1.77,27.99-2.4C435.75,311.85,433.42,307.87,430.75,309.15L430.75,309.15z"
				/>
		</g>
		<g>
			<path class="st4" d="M414.04,316.45c-0.67-0.85,0.17,0.24,0.38,0.54c0.6,0.85,1.17,1.73,1.72,2.62c1.82,2.96,3.4,6.1,4.64,9.35
				c3.64,9.55,4.5,19.97,0.91,29.67c-2.79,7.55-8.09,13.82-14.13,19.01c-2.26,1.94,1.02,5.19,3.26,3.26
				c10.58-9.09,17.94-21.45,17.83-35.69c-0.07-9.39-3.12-18.66-7.81-26.73c-1.07-1.84-2.22-3.63-3.54-5.29
				C415.46,310.85,412.22,314.14,414.04,316.45L414.04,316.45z"/>
		</g>
		<g>
			<path class="st4" d="M382.3,268.68c-9.75-3.19-18.02-10.38-22.01-19.91c-3.93-9.37-3.38-20.28,1.47-29.21
				c9.96-18.35,34.39-24.24,51.92-13.18c9.45,5.97,15.57,16.19,16.2,27.36c0.17,2.95,4.78,2.97,4.61,0
				c-0.63-11.24-5.95-21.7-14.79-28.71c-9.07-7.19-20.77-10.15-32.19-8.45c-23.29,3.46-39.73,27.14-32.84,50.1
				c3.8,12.66,13.95,22.36,26.41,26.44C383.9,274.06,385.11,269.6,382.3,268.68L382.3,268.68z"/>
		</g>
		<g>
			<path class="st4" d="M383.48,228.15c10.21-8.92,24.95-10.2,36.49-3.08c11.15,6.89,17.17,19.95,16.46,32.88
				c-0.46,8.26-3.79,16.19-9.41,22.26c-2.01,2.18,1.24,5.45,3.26,3.26c11.21-12.12,13.79-30.09,7.08-45.09
				c-5.68-12.7-18.13-21.97-32.18-22.58c-9.23-0.4-18.06,3.04-24.98,9.08C377.98,226.84,381.25,230.09,383.48,228.15L383.48,228.15z
				"/>
		</g>
		<path class="st3" d="M428.58,302.75c0,0,20.63,6.05,19.5,37.18c-1.13,31.13-12.41,39.85-16.17,48.67
			c-3.76,8.82,14.32,18.71,26.35,6.31c12.04-12.4,23.05-39.08,17.11-63.57c-5.94-24.49-13.62-31.08-27.29-40
			C434.42,282.43,417.13,291.08,428.58,302.75z"/>
		<g>
			<path class="st4" d="M407.59,284.22c16.42-2.09,32.89,2.82,45.36,13.74c11.94,10.46,19.63,25.4,21.47,41.16
				c1.91,16.29-2,32.97-11.41,46.46c-8.87,12.71-22.48,21.84-37.77,24.62c-20.17,3.67-31.84,2.31-45.14-12.95
				c-1.95-2.24-5.21,1.03-3.26,3.26c12.82,14.72,23.32,16.47,42.93,15c16.54-1.24,31.98-9.31,42.78-21.86
				c23.09-26.83,22.36-69-2.02-94.78c-13.58-14.37-33.27-21.77-52.95-19.26C404.68,279.97,404.65,284.59,407.59,284.22
				L407.59,284.22z"/>
		</g>
		<path class="st3" d="M149.35,332.8c0,0,8.27-30.37,25.03-40.15c16.75-9.79,24.21-12.04,31.13-12.45
			c6.92-0.4,12.97,1.15,11.67,4.82c-1.3,3.67-23.56,8.98-27.88,22.97c-4.32,13.99-12.97,37.67-3.67,55.66
			c9.29,17.99,16.21,36.36,9.73,37.66c-6.48,1.3-38.8-9.86-43.94-34.44C146.28,342.31,147.63,339.93,149.35,332.8z"/>
		<g>
			<g>
				<path class="st4" d="M192.3,311.49c14.73,7.06,32.68,4.4,44.21-7.36c10.79-11,13.62-27.8,7.09-41.75
					c-3.74-7.98-10.43-14.4-18.42-18.06c-2.68-1.23-5.03,2.75-2.33,3.98c12.91,5.93,20.97,19.11,19.52,33.38
					c-1.3,12.73-10.6,23.72-22.72,27.58c-8.23,2.62-17.23,1.98-25.03-1.76C191.97,306.23,189.62,310.21,192.3,311.49L192.3,311.49z"
					/>
			</g>
			<g>
				<path class="st4" d="M208.08,311.55c-10.12,12.86-14.62,31.72-8.62,47.22c3.13,8.08,8.58,14.87,15.11,20.49
					c2.24,1.93,5.52-1.32,3.26-3.26c-9.91-8.52-16.81-19.82-16.47-33.2c0.21-8.42,3.07-16.66,7.32-23.88
					c0.65-1.1,1.33-2.19,2.06-3.24c0.24-0.35,1.26-1.7,0.61-0.87C213.16,312.5,209.92,309.22,208.08,311.55L208.08,311.55z"/>
			</g>
			<g>
				<path class="st4" d="M244.31,271.49c11-3.6,20.29-11.56,24.87-22.27c4.54-10.62,4.05-22.85-1.28-33.09
					c-10.94-20.97-39.02-27.91-58.77-15.2c-10.74,6.91-17.51,18.44-18.23,31.18c-0.17,2.97,4.45,2.96,4.61,0
					c1.18-20.99,21.34-35.88,41.78-32.61c20.45,3.27,34.98,23.67,29.07,44.01c-3.26,11.22-12.26,19.92-23.28,23.53
					C240.27,267.96,241.48,272.42,244.31,271.49L244.31,271.49z"/>
			</g>
			<g>
				<path class="st4" d="M245.16,223.25c-11.74-10.26-28.72-12.05-42.08-3.8c-12.58,7.77-19.69,22.58-18.73,37.24
					c0.62,9.39,4.35,18.24,10.74,25.15c2.02,2.19,5.28-1.08,3.26-3.26c-9.72-10.52-12.14-26.42-6.36-39.5
					c4.91-11.11,15.53-19.61,27.89-20.28c8.1-0.44,15.93,2.4,22.02,7.71C244.13,228.46,247.41,225.2,245.16,223.25L245.16,223.25z"
					/>
			</g>
			<g>
				<path class="st4" d="M217.79,277.96c-16.06-2.05-32.32,2.43-45.16,12.27c-12.28,9.41-20.97,23.07-24.67,38.07
					c-7.54,30.64,6.13,65.2,35.02,79.4c17.86,8.78,38.91,8.2,56.4-1.28c2.61-1.41,0.29-5.4-2.33-3.98
					c-14.74,7.99-32.32,9.15-47.92,2.98c-13.13-5.19-23.92-15.4-30.64-27.72c-14.23-26.11-9.07-60.46,13.04-80.57
					c12.58-11.44,29.41-16.69,46.26-14.54C220.73,282.95,220.7,278.33,217.79,277.96L217.79,277.96z"/>
			</g>
		</g>
		<path class="st4" d="M222.2,320.52c0,0-1.25-41.7,39.98-41.7c21.92,0,32.65,31.69,32.65,31.69s-10.37-32.42-38.87-26.89
			C226.15,289.39,222.2,320.52,222.2,320.52z"/>
		<path class="st4" d="M380.11,325.64c0,0,0.89-46.52-31.95-46.52c-34.78,0-36.28,31.38-36.28,31.38s7.37-30.8,38.87-26.89
			C380.87,287.36,380.11,325.64,380.11,325.64z"/>
		<g>
			<g>
				<path class="st5" d="M202.49,230.55c-10.12,8.95-12.47,24.17-6.12,35.98c1.41,2.62,5.39,0.29,3.98-2.33
					c-5.42-10.08-3.16-22.82,5.4-30.39C207.98,231.84,204.71,228.59,202.49,230.55L202.49,230.55z"/>
			</g>
			<g>
				<path class="st5" d="M221.34,224.17c-3.8-0.32-7.7,0.27-11.24,1.71c-0.58,0.24-1.05,0.5-1.38,1.06
					c-0.29,0.49-0.41,1.22-0.23,1.78c0.35,1.07,1.64,2.1,2.84,1.61c1.63-0.66,3.32-1.15,5.05-1.43c0.1-0.02,0.19-0.03,0.29-0.04
					c-0.29,0.04-0.31,0.04-0.04,0.01c0.19-0.02,0.39-0.04,0.58-0.06c0.45-0.04,0.91-0.07,1.36-0.09c0.92-0.03,1.85,0,2.77,0.08
					c1.21,0.1,2.36-1.13,2.31-2.31C223.58,225.13,222.63,224.28,221.34,224.17L221.34,224.17z"/>
			</g>
			<g>
				<path class="st5" d="M299.06,276.35c1.48,0.11,2.97,0.12,4.45,0.03c0.61-0.03,1.19-0.23,1.63-0.68c0.4-0.4,0.7-1.06,0.68-1.63
					c-0.03-0.6-0.22-1.22-0.68-1.63c-0.44-0.4-1.02-0.71-1.63-0.68c-1.48,0.08-2.97,0.08-4.45-0.03c-0.56-0.04-1.24,0.29-1.63,0.68
					c-0.4,0.4-0.7,1.06-0.68,1.63c0.03,0.6,0.22,1.22,0.68,1.63C297.89,276.11,298.42,276.3,299.06,276.35L299.06,276.35z"/>
			</g>
			<g>
				<path class="st5" d="M279.07,255.96c0.01,5.3,2.39,10.96,6.15,14.65c1.97,1.93,4.31,3.31,6.87,4.3c1.16,0.45,2.53-0.5,2.84-1.61
					c0.36-1.3-0.45-2.39-1.61-2.84c-0.15-0.06-0.3-0.11-0.44-0.18c0.05,0.02,0.25,0.11,0.01,0c-0.24-0.11-0.49-0.22-0.72-0.34
					c-0.46-0.23-0.91-0.48-1.34-0.75c-0.42-0.26-0.82-0.54-1.21-0.83c0.34,0.26-0.15-0.13-0.25-0.21c-0.2-0.17-0.4-0.35-0.59-0.53
					c-0.33-0.31-0.64-0.63-0.95-0.96c-0.13-0.14-0.25-0.28-0.37-0.42c-0.08-0.09-0.16-0.19-0.24-0.29c-0.22-0.26,0.22,0.3,0.02,0.03
					c-0.51-0.68-0.97-1.4-1.38-2.15c-0.17-0.32-0.34-0.64-0.49-0.97c-0.08-0.17-0.16-0.35-0.24-0.52c-0.05-0.12-0.15-0.41,0.05,0.11
					c-0.04-0.1-0.08-0.19-0.12-0.29c-0.25-0.65-0.47-1.3-0.66-1.96c-0.17-0.6-0.31-1.2-0.43-1.81c-0.05-0.25-0.09-0.51-0.13-0.76
					c-0.02-0.1-0.03-0.2-0.05-0.3c-0.01-0.05,0.07,0.63,0.02,0.15c-0.05-0.5-0.11-1.01-0.11-1.52c0-1.25-1.06-2.31-2.31-2.31
					C280.13,253.65,279.07,254.7,279.07,255.96L279.07,255.96z"/>
			</g>
			<g>
				<path class="st5" d="M317.39,268.39c2.05,0.42,4.21,0.56,6.29,0.44c0.61-0.04,1.19-0.23,1.63-0.68c0.4-0.4,0.7-1.06,0.68-1.63
					c-0.03-0.6-0.22-1.22-0.68-1.63c-0.44-0.4-1.02-0.71-1.63-0.68c-1.54,0.09-3.08,0.02-4.61-0.18c0.2,0.03,0.41,0.05,0.61,0.08
					c-0.36-0.05-0.72-0.1-1.07-0.17c-0.61-0.13-1.23-0.09-1.78,0.23c-0.48,0.28-0.94,0.83-1.06,1.38c-0.13,0.59-0.11,1.25,0.23,1.78
					C316.33,267.82,316.81,268.27,317.39,268.39L317.39,268.39z"/>
			</g>
			<g>
				<path class="st5" d="M265.83,182.23c-5.46,0.74-10.75,2.73-15.36,5.75c-1.04,0.68-1.48,2.04-0.83,3.16
					c0.6,1.03,2.11,1.52,3.16,0.83c4.37-2.87,9-4.58,14.25-5.29c1.2-0.16,1.96-1.76,1.61-2.84
					C268.24,182.52,267.12,182.06,265.83,182.23L265.83,182.23z"/>
			</g>
			<g>
				<path class="st5" d="M280.56,183.36c-2.14-0.49-4.33-0.82-6.52-1.02c-0.56-0.05-1.25,0.29-1.63,0.68
					c-0.4,0.4-0.7,1.06-0.68,1.63c0.03,0.6,0.22,1.22,0.68,1.63c0.47,0.44,0.99,0.62,1.63,0.68c0.65,0.06,1.3,0.13,1.95,0.22
					c-0.2-0.03-0.41-0.05-0.61-0.08c1.33,0.18,2.65,0.42,3.96,0.72c0.6,0.14,1.24,0.08,1.78-0.23c0.48-0.28,0.94-0.83,1.06-1.38
					C282.44,185.02,281.82,183.65,280.56,183.36L280.56,183.36z"/>
			</g>
			<g>
				<path class="st5" d="M314,215.13c3.05,5.62,7.85,10.1,13.61,12.86c1.09,0.52,2.54,0.34,3.16-0.83c0.54-1.03,0.33-2.6-0.83-3.16
					c-1.51-0.72-2.96-1.55-4.33-2.51c-0.14-0.1-0.28-0.2-0.42-0.3c-0.06-0.04-0.54-0.4-0.34-0.25c0.23,0.17-0.2-0.16-0.24-0.19
					c-0.16-0.12-0.31-0.25-0.46-0.38c-0.57-0.48-1.12-0.98-1.64-1.5c-0.49-0.48-0.95-0.98-1.4-1.5c-0.22-0.25-0.43-0.51-0.64-0.76
					c-0.14-0.17-0.32-0.41-0.08-0.1c-0.11-0.14-0.21-0.28-0.32-0.42c-0.77-1.05-1.46-2.15-2.08-3.3c-0.58-1.06-2.13-1.49-3.16-0.83
					C313.75,212.67,313.38,214,314,215.13L314,215.13z"/>
			</g>
			<g>
				<path class="st5" d="M310.32,203.98c0.27,1.82,0.68,3.62,1.23,5.37c0.18,0.57,0.54,1.07,1.06,1.38
					c0.49,0.29,1.22,0.41,1.78,0.23c0.56-0.18,1.1-0.53,1.38-1.06c0.28-0.54,0.42-1.18,0.23-1.78c-0.56-1.75-0.97-3.55-1.23-5.37
					c-0.08-0.53-0.62-1.12-1.06-1.38c-0.49-0.29-1.22-0.41-1.78-0.23c-0.56,0.18-1.1,0.53-1.38,1.06c-0.08,0.18-0.16,0.37-0.23,0.55
					C310.21,203.16,310.21,203.57,310.32,203.98L310.32,203.98z"/>
			</g>
			<g>
				<g>
					<path class="st5" d="M168.12,266.51c-0.32-5.82,1.39-11.6,5.04-16.11c0.78-0.97,0.95-2.32,0-3.26c-0.81-0.81-2.48-0.97-3.26,0
						c-4.43,5.49-6.78,12.3-6.39,19.38c0.07,1.24,1.01,2.31,2.31,2.31C167.01,268.82,168.19,267.76,168.12,266.51L168.12,266.51z"/>
				</g>
				<g>
					<path class="st5" d="M171.34,276.86c-0.6-1.01-1.12-2.05-1.58-3.13c0.08,0.18,0.16,0.37,0.23,0.55
						c-0.3-0.73-0.58-1.47-0.81-2.22c-0.18-0.57-0.54-1.07-1.06-1.38c-0.49-0.29-1.22-0.41-1.78-0.23c-0.56,0.18-1.1,0.53-1.38,1.06
						c-0.28,0.54-0.42,1.18-0.23,1.78c0.65,2.05,1.53,4.04,2.63,5.9c0.3,0.5,0.82,0.91,1.38,1.06c0.55,0.15,1.29,0.08,1.78-0.23
						C171.56,279.34,172,277.97,171.34,276.86L171.34,276.86z"/>
				</g>
			</g>
			<g>
				<g>
					<path class="st5" d="M133.75,339.28c-0.2-2.15-0.24-4.32-0.1-6.48c0.07-1.21-1.11-2.36-2.31-2.31
						c-1.31,0.06-2.23,1.01-2.31,2.31c-0.13,2.16-0.1,4.32,0.1,6.48c0.06,0.63,0.22,1.17,0.68,1.63c0.4,0.4,1.06,0.7,1.63,0.68
						c0.6-0.03,1.22-0.22,1.63-0.68C133.46,340.49,133.81,339.88,133.75,339.28L133.75,339.28z"/>
				</g>
				<g>
					<path class="st5" d="M137.5,354.37c-0.17-0.36-0.33-0.73-0.5-1.1c-0.1-0.24-0.09-0.21,0.03,0.07
						c-0.04-0.11-0.09-0.21-0.13-0.32c-0.07-0.16-0.13-0.32-0.19-0.48c-0.31-0.79-0.58-1.59-0.84-2.39
						c-0.5-1.62-0.89-3.27-1.18-4.94c-0.21-1.19-1.73-1.97-2.84-1.61c-1.29,0.42-1.83,1.56-1.61,2.84
						c0.61,3.56,1.73,6.99,3.27,10.26c0.52,1.1,2.17,1.46,3.16,0.83C137.8,356.8,138.05,355.54,137.5,354.37L137.5,354.37z"/>
				</g>
			</g>
			<g>
				<g>
					<path class="st5" d="M155.88,333.11c-4.79,23.07,4.22,47.61,24.3,60.49c2.51,1.61,4.82-2.38,2.33-3.98
						c-18.26-11.72-26.54-34.3-22.18-55.28C160.93,331.44,156.48,330.2,155.88,333.11L155.88,333.11z"/>
				</g>
				<g>
					<path class="st5" d="M161.99,317.08c-1.35,2.4-2.51,4.91-3.53,7.47c-0.21,0.52-0.04,1.31,0.23,1.78
						c0.28,0.48,0.83,0.94,1.38,1.06c0.59,0.13,1.25,0.11,1.78-0.23c0.53-0.34,0.83-0.79,1.06-1.38c0.18-0.45,0.36-0.89,0.54-1.33
						c-0.08,0.18-0.16,0.37-0.23,0.55c0.81-1.91,1.73-3.78,2.75-5.59c0.59-1.05,0.29-2.57-0.83-3.16
						C164.05,315.67,162.62,315.95,161.99,317.08L161.99,317.08z"/>
				</g>
			</g>
			<g>
				<g>
					<path class="st5" d="M503.13,375.21c-2.81,13.42-14.53,23.22-28.28,23.31c-2.97,0.02-2.98,4.64,0,4.61
						c15.7-0.11,29.51-11.3,32.73-26.7C508.19,373.54,503.74,372.3,503.13,375.21L503.13,375.21z"/>
				</g>
				<g>
					<path class="st5" d="M502.92,362.96c0.24,1.02,0.43,2.04,0.56,3.07c-0.03-0.2-0.06-0.41-0.08-0.61
						c0.18,1.38,0.27,2.76,0.27,4.15c0,1.21,1.06,2.36,2.31,2.31c1.25-0.06,2.31-1.01,2.31-2.31c-0.01-2.63-0.32-5.28-0.92-7.84
						c-0.27-1.18-1.68-1.98-2.84-1.61C503.3,360.52,502.62,361.7,502.92,362.96L502.92,362.96z"/>
				</g>
			</g>
			<g>
				<path class="st5" d="M461.21,331.96c7.38,25.01-4.61,54.02-30.08,62.75c-2.79,0.96-1.59,5.42,1.23,4.45
					c27.82-9.54,41.43-40.88,33.3-68.42C464.82,327.89,460.36,329.1,461.21,331.96L461.21,331.96z"/>
			</g>
			<g>
				<path class="st5" d="M448.3,310.63c1.52,1.49,2.96,3.07,4.28,4.73c0.08,0.09,0.15,0.19,0.22,0.28c0.03,0.04,0.29,0.34,0.1,0.12
					c-0.21-0.24,0.11,0.15,0.15,0.2c0.07,0.1,0.15,0.19,0.22,0.29c0.33,0.44,0.64,0.88,0.95,1.33c0.63,0.9,1.22,1.82,1.79,2.75
					c0.63,1.03,2.1,1.51,3.16,0.83c1.03-0.67,1.5-2.05,0.83-3.16c-2.36-3.87-5.19-7.47-8.44-10.64c-0.86-0.84-2.41-0.93-3.26,0
					C447.46,308.28,447.37,309.73,448.3,310.63L448.3,310.63z"/>
			</g>
			<g>
				<path class="st5" d="M423.22,237.89c7.72,9.71,8.03,23.68,1.13,33.88c-1.67,2.47,2.33,4.78,3.98,2.33
					c8.14-12.05,7.11-28.2-1.86-39.48C424.63,232.3,421.39,235.58,423.22,237.89L423.22,237.89z"/>
			</g>
			<g>
				<path class="st5" d="M410.15,229.14c0.73,0.2,1.45,0.43,2.17,0.7c0.3,0.11,0.62,0.29,0.93,0.36c-0.33-0.14-0.39-0.16-0.16-0.07
					c0.09,0.04,0.17,0.08,0.26,0.11c0.17,0.08,0.34,0.16,0.52,0.24c1.33,0.63,2.6,1.37,3.82,2.2c1,0.68,2.6,0.22,3.16-0.83
					c0.62-1.17,0.24-2.43-0.83-3.16c-2.62-1.79-5.56-3.16-8.63-4c-1.16-0.32-2.56,0.4-2.84,1.61
					C408.26,227.52,408.91,228.79,410.15,229.14L410.15,229.14z"/>
			</g>
		</g>
		
			<ellipse transform="matrix(0.3338 -0.9426 0.9426 0.3338 -67.0322 611.609)" class="st0" cx="399.2" cy="353.23" rx="24.29" ry="16.31"/>
		
			<ellipse transform="matrix(0.9426 -0.3338 0.3338 0.9426 -103.5596 94.6593)" class="st0" cx="223.65" cy="348.65" rx="15.22" ry="21.82"/>
		<ellipse class="st6" cx="345.6" cy="320.52" rx="34.51" ry="38.23"/>
		<ellipse class="st6" cx="259.16" cy="320.52" rx="36.95" ry="38.23"/>
		<ellipse cx="265.82" cy="323.05" rx="25.63" ry="32.14"/>
		<ellipse cx="348.15" cy="323.05" rx="26.18" ry="32.14"/>
		<path class="st7" d="M297.6,342.1c0,0-20.46,0.97-9.58,18.79C288.02,360.89,284.43,349.28,297.6,342.1z"/>
		<g>
			<defs>
				<path id="SVGID_21_" d="M263.54,366.91c0,0,50.16,9.6,86.99-8.17c0,0-5.49,32.86-38.21,35.45
					C275.41,397.11,263.54,366.91,263.54,366.91z"/>
			</defs>
			<clipPath id="SVGID_2_">
				<use xlink:href="#SVGID_21_"  style="overflow:visible;"/>
			</clipPath>
			<path class="st11" d="M263.54,366.91c0,0,50.16,9.6,86.99-8.17c0,0-5.49,32.86-38.21,35.45
				C275.41,397.11,263.54,366.91,263.54,366.91z"/>
			<path class="st12" d="M301.28,393.98c0,0,4.65-26.18,49.25-35.24c0,0,0.58,23.18-26.01,34.22
				C317.41,395.92,306.41,395.73,301.28,393.98z"/>
		</g>
		<ellipse class="st8" cx="365.24" cy="356.56" rx="22.47" ry="6.82"/>
		<ellipse class="st8" cx="248.89" cy="356.56" rx="22.53" ry="7.91"/>
	</g>
	<path class="st0" d="M270.74,446.37c0,0-54.36,160.48-36.37,194.54c33.19,62.85,104.99,24.12,115.14,16.09
		c0,0-5.32-217-18.31-218.42S297.55,441.63,270.74,446.37z"/>
	<ellipse class="st13" cx="304.16" cy="816.55" rx="130.29" ry="15.01"/>
	<path class="st0" d="M277.28,624.51c-0.12-1.08-0.41-2.12-0.9-3.1c-2.09-4.05-8.24-5.22-11.67-2.22c-2.69,2.35-3.37,6.21-3.86,9.75
		c-7.33,53.5-8.84,107.79-4.47,161.61c-12.78,0.16-25.53,2.52-37.53,6.93c-2.9,1.06-5.92,2.34-8.17,4.53
		c-1.82,1.77-3.06,4.29-2.74,6.8c0.29,2.12,1.65,3.97,3.35,5.26c5.03,3.79,11.84,3.82,17.83,4c9.15,0.26,18.34-1.03,27.05-3.82
		c5.81-1.85,18.41-5.36,19.08-12.94c0.21-2.31-0.98-4.49-1.69-6.7c-0.77-2.41-0.98-4.96-1.18-7.47
		c-4.1-52.14-2.56-104.71,4.59-156.52C277.24,628.61,277.52,626.5,277.28,624.51z"/>
	<path class="st0" d="M310.62,614.42c-0.53-0.95-1.2-1.8-2.03-2.51c-3.5-2.92-9.62-1.63-11.63,2.46c-1.58,3.21-0.71,7.03,0.21,10.48
		c13.92,52.17,33.52,102.83,58.35,150.78c-11.72,5.09-22.57,12.19-31.94,20.9c-2.26,2.1-4.55,4.45-5.78,7.33
		c-0.99,2.33-1.16,5.14,0.1,7.33c1.08,1.84,3.06,3.02,5.13,3.55c6.1,1.55,12.4-1.05,17.99-3.21c8.54-3.3,16.51-8.04,23.47-13.98
		c4.64-3.96,14.91-12.05,12.6-19.31c-0.7-2.22-2.64-3.76-4.15-5.53c-1.64-1.92-2.82-4.19-3.98-6.44
		c-23.94-46.5-42.85-95.58-56.28-146.12C312.16,618.22,311.6,616.17,310.62,614.42z"/>
	<rect x="304.16" y="405.9" class="st0" width="23.59" height="49.01"/>
	<path class="st7" d="M304.16,419.41v7.49l23.59,7.76v-16.69C327.75,417.97,316.74,422.05,304.16,419.41z"/>
	<path class="st9" d="M293.7,687.89c0,0,69,0.49,88.95-8.72c0,0-38.37-100.58-13.7-184.6c13.09-44.58-4.01-42.7-4.01-42.7
		s-0.01-0.01-0.02-0.01c-1.42-1.38-5.68-5.54-5.68-5.54l-9.82-3.99l-17.56-3.76c0,0-28.72,47.93-35.75,72.98
		C296.09,511.64,283.15,630.1,293.7,687.89z"/>
	<path class="st10" d="M327.75,438.12c0,0-10.37,15.94-16.66,32.07c-6.29,16.13-14.98,41.37-14.98,41.37l38.64-24.64l-2.9-14.66
		l15.97-5.98l-6.52-25.65L327.75,438.12z"/>
	<path class="st9" d="M296.11,511.56c0,0-0.87,92.72-2.41,176.34c0,0-58.67-10.71-76.06-16.84c0,0,9.87-189.49,49.13-222.83
		c5.88-5,12.41-3.22,29.34-7.35C296.11,440.88,293.39,470.78,296.11,511.56z"/>
	<path class="st10" d="M304.16,439.73c0,0-7.32,20.85-8.07,30c-0.78,9.54,0.4,18.49,0.02,41.83l-34.98-31.46l12.3-13.36l-8.56-3.64
		l25.32-21.28L304.16,439.73z"/>
	<circle class="st10" cx="300.72" cy="516.65" r="2.17"/>
	<circle class="st10" cx="301.16" cy="571.95" r="2.17"/>
	<path class="st14" d="M291.15,574.12c0,0-2.51,98.65-27.72,107.9l30.28,5.87L291.15,574.12z"/>
	<circle class="st10" cx="298.98" cy="597.55" r="2.17"/>
	<circle class="st10" cx="300.72" cy="643.91" r="2.17"/>
	<g>
		<g>
			<path class="st4" d="M174.38,294.83c-0.19,0-0.38-0.02-0.57-0.06c-15.7-3.6-19.27-18.88-19.42-19.53
				c-0.31-1.37,0.56-2.73,1.93-3.03c1.37-0.3,2.72,0.56,3.03,1.92c0.12,0.54,3.09,12.81,15.6,15.69c1.37,0.31,2.22,1.68,1.91,3.04
				C176.59,294.03,175.54,294.83,174.38,294.83z"/>
		</g>
		<g>
			<path class="st4" d="M133.99,368.14c-0.49,0-0.98-0.14-1.42-0.43c-15.84-10.68-14.07-35.15-13.98-36.18
				c0.11-1.4,1.34-2.44,2.74-2.33c1.4,0.11,2.44,1.34,2.33,2.73l0,0c-0.02,0.22-1.61,22.56,11.76,31.56
				c1.16,0.78,1.47,2.36,0.69,3.53C135.61,367.75,134.8,368.14,133.99,368.14z"/>
		</g>
		<g>
			<path class="st4" d="M450.36,294.83c-1.16,0-2.2-0.8-2.47-1.97c-0.31-1.37,0.54-2.73,1.91-3.04
				c12.52-2.87,15.48-15.17,15.6-15.69c0.31-1.36,1.67-2.22,3.04-1.91c1.37,0.31,2.22,1.66,1.92,3.03
				c-0.14,0.65-3.72,15.92-19.42,19.53C450.74,294.81,450.55,294.83,450.36,294.83z"/>
		</g>
		<g>
			<path class="st4" d="M490.75,368.14c-0.82,0-1.62-0.39-2.11-1.12c-0.78-1.16-0.48-2.74,0.69-3.53
				c13.41-9.04,11.78-31.34,11.76-31.56c-0.11-1.4,0.93-2.62,2.33-2.74c1.4-0.11,2.62,0.93,2.74,2.33
				c0.08,1.04,1.86,25.51-13.98,36.18C491.74,368,491.24,368.14,490.75,368.14z"/>
		</g>
		<g>
			<path class="st4" d="M287.04,217.95c-1.01,0-1.97-0.61-2.36-1.6c-5.02-12.62-2.8-22.57-0.05-28.68
				c2.99-6.66,7.21-10.31,7.39-10.46c1.07-0.91,2.67-0.79,3.58,0.28c0.91,1.06,0.79,2.66-0.27,3.58c-0.06,0.05-3.65,3.22-6.15,8.89
				c-3.32,7.54-3.24,15.79,0.23,24.52c0.52,1.3-0.12,2.78-1.42,3.3C287.67,217.89,287.36,217.95,287.04,217.95z"/>
		</g>
		<g>
			<path class="st4" d="M277.14,270.25c-0.74,0-1.48-0.33-1.98-0.95c-8.85-11.03-8.32-21.35-8.29-21.78
				c0.09-1.4,1.29-2.47,2.69-2.38c1.4,0.09,2.46,1.29,2.38,2.68c0,0.06-0.1,2.27,0.73,5.6c0.77,3.08,2.51,7.79,6.45,12.71
				c0.88,1.09,0.7,2.69-0.39,3.57C278.26,270.06,277.7,270.25,277.14,270.25z"/>
		</g>
		<g>
			<path class="st4" d="M320.27,275.2c-1.76,0-3.5-0.2-5.23-0.6c-13.55-3.16-20.89-17.61-21.2-18.23c-0.63-1.26-0.11-2.78,1.14-3.41
				c1.25-0.63,2.78-0.12,3.41,1.14c0.09,0.17,6.63,12.96,17.83,15.55c6.16,1.43,12.75-0.49,19.59-5.7c1.12-0.85,2.71-0.63,3.56,0.48
				c0.85,1.12,0.63,2.71-0.48,3.56C332.59,272.79,326.35,275.2,320.27,275.2z"/>
		</g>
		<g>
			<path class="st4" d="M354.52,271.74c-0.53,0-1.06-0.16-1.51-0.5c-4.42-3.27-6.89-13.44-7.34-15.45
				c-0.31-1.37,0.55-2.73,1.92-3.04c1.37-0.31,2.73,0.55,3.04,1.92l0,0c0.95,4.22,3.26,10.89,5.4,12.48
				c1.13,0.84,1.36,2.43,0.53,3.55C356.06,271.38,355.3,271.74,354.52,271.74z"/>
		</g>
		<g>
			<path class="st4" d="M337.34,268.52c-0.35,0-0.71-0.07-1.06-0.23c-17.52-8.03-14.33-20.52-14.18-21.04
				c0.37-1.35,1.77-2.15,3.12-1.78c1.34,0.37,2.14,1.75,1.79,3.1c-0.1,0.41-2,8.97,11.39,15.11c1.28,0.58,1.84,2.09,1.25,3.37
				C339.22,267.97,338.3,268.52,337.34,268.52z"/>
		</g>
	</g>
	<path class="st14" d="M343.38,580.07c0,0,30.21,95.3-2.35,106.28c0,0,33.44-0.66,41.62-7.17c0,0-14.03-29.43-21.25-101.3
		L343.38,580.07z"/>
	<path d="M216.38,265.46c0,0,21.92-39.96,50.85,1.72C267.23,267.18,245.83,242.14,216.38,265.46z"/>
	<path d="M377.63,263.01c0,0-21.92-39.96-50.85,1.72C326.78,264.72,348.18,239.68,377.63,263.01z"/>
	<path class="st10" d="M296.11,511.56c0,0-11.78,102.98-2.41,176.34L296.11,511.56z"/>
	<g>
		<path class="st10" d="M221.44,598.95c0,0,26.88,4.31,47.99,6.46l-0.2,5.49c0,0-10.67-0.44-28.22-2.62
			c-17.55-2.18-19.69-4.55-19.69-4.55L221.44,598.95z"/>
		<path class="st10" d="M260.09,658.13c0,0-33.01-2.45-39.93-6.41C220.16,651.72,240.03,665.28,260.09,658.13z"/>
		<path class="st10" d="M265.41,655.22l2.81-36.45C268.22,618.77,272.33,641.07,265.41,655.22z"/>
	</g>
	<g>
		<path d="M296.99,588.5c-0.1-0.05,0.26,1.09-0.98,2.37c-0.6,0.59-1.61,1.17-2.86,1.13c-1.23-0.02-2.58-0.98-3.18-2.48
			c-0.64-1.48-0.55-3.49,0.67-5.07c0.58-0.79,1.38-1.47,2.32-2c0.47-0.26,0.97-0.49,1.5-0.66c0.53-0.17,1.11-0.36,1.47-0.14
			c0.37,0.2,0.5,0.79,0.4,1.31c-0.09,0.51-0.44,1.02-0.87,1.39c-0.88,0.76-2.22,1.04-3.41,0.7c-2.45-0.73-3.68-4.06-2.58-6.68
			c0.5-1.34,1.42-2.56,2.54-3.56c0.55-0.48,1.22-0.87,1.89-0.97c0.66-0.1,1.29,0.26,1.45,0.87c0.15,0.62-0.09,1.4-0.56,1.94
			c-0.45,0.55-1.19,0.86-1.94,0.97c-1.53,0.19-3.21-0.53-4.17-1.81c-0.97-1.3-1.22-3.11-0.85-4.79c0.34-1.7,1.33-3.26,2.9-4.04
			c0.76-0.39,1.64-0.53,2.35-0.24c0.72,0.32,1.19,1.03,1.17,1.86c0,0.82-0.4,1.67-1.05,2.15c-0.64,0.48-1.58,0.6-2.41,0.35
			c-1.76-0.44-2.91-2.21-2.88-4.1c-0.05-1.9,0.88-3.73,2.17-5.27c0.65-0.76,1.34-1.56,2.12-2.12c0.77-0.56,1.76-0.97,2.47-0.68
			c0.75,0.27,0.98,1.21,0.62,2.03c-0.32,0.81-1.21,1.24-2.16,1.28c-1.94,0.07-3.93-1.11-5.07-2.77c-1.19-1.66-1.48-3.91-0.77-5.87
			c0.34-0.97,0.92-1.89,1.66-2.57c0.75-0.67,1.75-1.13,2.67-1.02c1.95,0.1,2.5,3.26,0.92,4.38c-1.57,1.23-4.17,0.65-5.26-1.07
			c-1.21-1.7-1.28-4-0.63-6.01c0.32-1.02,0.78-2,1.3-2.95c0.52-0.93,1.12-1.81,1.92-2.38c0.78-0.59,1.75-0.69,2.58-0.31
			c0.83,0.36,1.18,1.24,0.76,2c-0.39,0.78-1.28,1.21-2.21,1.14c-0.94-0.04-1.88-0.46-2.66-1.04c-1.57-1.17-2.52-3.12-2.38-5.03
			c0.11-1.9,1.2-3.78,2.8-4.67c0.8-0.43,1.76-0.61,2.49-0.29c0.75,0.31,1.14,1.1,1.04,1.95c-0.08,0.83-0.57,1.64-1.3,1.98
			c-0.74,0.37-1.66,0.36-2.48,0.07c-1.69-0.56-2.73-2.21-3.17-3.93c-0.44-1.74-0.53-3.6-0.11-5.27c0.4-1.64,1.51-3.2,3.05-3.53
			c1.51-0.36,3.39,0.31,3.88,1.67c0.53,1.39-0.64,2.94-2.02,3.36c-1.4,0.46-2.99-0.09-4.14-0.99c-1.16-0.93-2-2.2-2.39-3.58
			c-0.82-2.76-0.16-5.78,1.52-7.75c0.84-0.97,1.91-1.74,3.07-2.03c1.15-0.32,2.37,0.01,3.09,0.83c0.77,0.79,0.71,2.01,0.05,2.79
			c-0.63,0.81-1.66,1.15-2.61,1.07c-1.96-0.17-3.48-1.51-4.3-2.88c-0.84-1.4-1.05-2.93-0.85-4.17c0.21-1.25,0.73-2.23,1.25-2.92
			c1.08-1.39,2.01-1.73,1.96-1.79c0,0-0.23,0.07-0.62,0.31c-0.38,0.24-0.95,0.65-1.51,1.35c-0.57,0.69-1.14,1.69-1.39,3
			c-0.25,1.3-0.07,2.92,0.8,4.43c0.85,1.47,2.43,2.94,4.61,3.17c1.07,0.11,2.32-0.27,3.08-1.23c0.82-0.89,0.92-2.54-0.04-3.52
			c-0.85-1.01-2.36-1.41-3.68-1.05c-1.33,0.32-2.5,1.15-3.43,2.2c-1.85,2.14-2.59,5.37-1.72,8.39c0.41,1.51,1.34,2.94,2.62,3.98
			c1.28,1.01,3.08,1.71,4.87,1.15c0.86-0.29,1.64-0.85,2.16-1.63c0.53-0.77,0.74-1.84,0.4-2.78c-0.32-0.96-1.16-1.65-2.03-1.99
			c-0.89-0.36-1.88-0.45-2.83-0.24c-2.02,0.45-3.26,2.32-3.73,4.15c-0.48,1.88-0.38,3.84,0.08,5.74c0.45,1.86,1.66,3.89,3.75,4.59
			c1,0.36,2.18,0.4,3.21-0.1c1.07-0.51,1.72-1.61,1.84-2.74c0.18-1.12-0.45-2.5-1.62-2.95c-1.15-0.48-2.37-0.19-3.35,0.32
			c-1.97,1.11-3.18,3.24-3.34,5.48c-0.17,2.26,0.94,4.54,2.77,5.91c0.92,0.68,2.01,1.18,3.22,1.25c1.2,0.1,2.59-0.5,3.18-1.7
			c0.3-0.58,0.4-1.33,0.14-1.99c-0.25-0.67-0.8-1.15-1.38-1.42c-1.15-0.58-2.65-0.36-3.63,0.39c-1.01,0.72-1.67,1.73-2.23,2.72
			c-0.55,0.99-1.04,2.03-1.39,3.15c-0.71,2.19-0.69,4.87,0.77,6.93c1.37,2.1,4.6,2.96,6.77,1.28c1.1-0.84,1.51-2.33,1.25-3.59
			c-0.13-0.64-0.4-1.28-0.89-1.77c-0.48-0.49-1.15-0.82-1.81-0.88c-1.37-0.14-2.58,0.48-3.49,1.28c-0.91,0.84-1.56,1.88-1.95,3.01
			c-0.81,2.25-0.48,4.89,0.91,6.81c1.35,1.91,3.55,3.27,5.98,3.2c1.17-0.02,2.55-0.66,3.05-1.91c0.24-0.59,0.34-1.26,0.15-1.91
			c-0.18-0.66-0.71-1.23-1.34-1.47c-1.36-0.47-2.54,0.2-3.43,0.81c-0.93,0.68-1.61,1.49-2.31,2.3c-1.35,1.63-2.43,3.7-2.38,5.92
			c0.02,1.09,0.31,2.21,0.94,3.13c0.64,0.93,1.61,1.59,2.68,1.89c1.06,0.3,2.3,0.18,3.24-0.52c0.92-0.7,1.42-1.8,1.43-2.92
			c0.04-1.13-0.69-2.29-1.75-2.72c-1.08-0.44-2.24-0.19-3.13,0.27c-1.86,0.91-3.01,2.81-3.37,4.68c-0.4,1.87-0.13,3.94,1.03,5.5
			c1.18,1.54,3.12,2.35,4.98,2.12c1.87-0.16,3.63-1.95,3.17-3.96c-0.24-1.04-1.41-1.63-2.34-1.45c-0.93,0.15-1.67,0.62-2.3,1.17
			c-1.21,1.09-2.19,2.41-2.73,3.89c-1.19,2.93,0.14,6.71,3.09,7.58c1.42,0.38,2.95,0.04,4.01-0.87c0.51-0.47,0.92-1.05,1.05-1.76
			c0.11-0.66,0-1.5-0.72-1.93c-0.75-0.37-1.4-0.03-1.94,0.12c-0.56,0.19-1.09,0.44-1.59,0.73c-0.99,0.57-1.84,1.32-2.46,2.18
			c-1.29,1.73-1.36,3.95-0.64,5.53c0.68,1.62,2.18,2.64,3.55,2.63c1.37,0,2.41-0.64,3.02-1.3
			C297.42,589.6,296.95,588.43,296.99,588.5z"/>
	</g>
	
		<rect x="290.72" y="499.16" transform="matrix(0.9952 -0.0976 0.0976 0.9952 -51.2177 37.0785)" class="st39" width="125.4" height="85.89"/>
	<path class="st0" d="M322.64,551.92c0,0,6.41-10.01,0.74-14.14c-0.13-0.73-2.49-14.27-3.89-17.32c-0.98-2.14-2.69,6.38-2.76,13.4
		c-8.88-5.06-24.45-13.41-25.2-10.27c-1.06,4.4,17.05,18.23,17.05,18.23s-31.57,1.59-31.98,7.9c-0.41,6.31,30.33,4.15,30.33,4.15
		s-21.9,10.64-19.2,14.19C290.42,571.6,322.64,551.92,322.64,551.92z"/>
	<path class="st9" d="M349.42,442.34c0,0,38.29,4.91,51.47,56.37c9.83,38.37,20.52,79.17-1.58,83.78
		c-25.2,5.26-81.34-23.04-81.34-23.04l8.3-27.09l45.18,8.03l-23.74-53.47C347.72,486.92,350.53,475.64,349.42,442.34z"/>
	<path class="st10" d="M254.95,473.75c0,0-17.54,44.02-20.7,72.85C234.25,546.59,236.33,502.84,254.95,473.75z"/>
	<path class="st10" d="M353.42,467.47c0,0-5.3,20.36,0,32.3C353.42,499.77,339.19,492.59,353.42,467.47z"/>
	<path class="st10" d="M371.45,540.39c0,0,16.68-3.85,24.12,0C395.57,540.39,377.45,541.45,371.45,540.39z"/>
	<path class="st10" d="M393.51,550.47l-21.72-7.6C371.79,542.87,386.68,541,393.51,550.47z"/>
	<path class="st14" d="M377.43,459.56c0,0,44.58,86.82,22.71,104.83c-21.87,18.01-82.17-4.94-82.17-4.94s61.09,31.54,81.34,23.04
		c0,0,31.65,4.95,0.39-88.07C399.69,494.41,389.95,467.25,377.43,459.56z"/>
	<polygon class="st7" points="255.61,680.41 255.18,689.79 271.05,699.58 271.64,683.61 	"/>
	<polygon class="st7" points="316.9,687.55 322.58,702.67 341.03,705.22 333.9,686.81 	"/>
</g>
</svg>
