<?xml version="1.0" encoding="utf-8"?>
<!-- Generator: Adobe Illustrator 24.0.1, SVG Export Plug-In . SVG Version: 6.00 Build 0)  -->
<svg version="1.1" id="Capa_1" xmlns="http://www.w3.org/2000/svg" xmlns:xlink="http://www.w3.org/1999/xlink" x="0px" y="0px"
	 viewBox="0 0 623.62 850.39" style="enable-background:new 0 0 623.62 850.39;" xml:space="preserve">
<style type="text/css">
	.st0{fill:#F9D6E4;}
	.st1{fill:#45A759;}
	.st2{fill:#15632D;}
	.st3{fill:#F08CA7;}
	.st4{fill:#B52955;}
	.st5{fill:#F6BFD3;}
	.st6{fill:#FFFFFF;}
	.st7{fill:#CD94A9;}
	.st8{fill:#E16874;}
	.st9{fill:#EEEEEE;}
	.st10{fill:#C9C7C7;}
	.st11{clip-path:url(#SVGID_2_);}
	.st12{clip-path:url(#SVGID_2_);fill:#F08CA7;}
	.st13{fill:#CBC9CA;}
	.st14{fill:#E1E0E0;}
	.st15{fill:#B693C3;}
	.st16{fill:#F8DF28;}
	.st17{fill:#65A2D8;}
	.st18{fill:#DEE275;}
	.st19{fill:#FFDB43;}
	.st20{fill:#E75C2A;}
	.st21{fill:#F49D4E;}
	.st22{opacity:0.5;}
	.st23{fill:#F3B0CF;}
	.st24{fill:#704F9A;}
	.st25{fill:#616160;}
	.st26{fill:#5AE4A7;}
	.st27{fill:#FF0000;}
	.st28{fill:#82CEE0;}
	.st29{fill:#9E6D0B;}
	.st30{fill:#828E0C;}
	.st31{fill:#FFFF00;}
	.st32{clip-path:url(#SVGID_4_);}
	.st33{clip-path:url(#SVGID_4_);fill:#F08CA7;}
	.st34{clip-path:url(#SVGID_6_);}
	.st35{clip-path:url(#SVGID_6_);fill:#F08CA7;}
	.st36{fill:none;stroke:#B52955;stroke-width:3;stroke-linecap:round;stroke-linejoin:round;stroke-miterlimit:10;}
	.st37{clip-path:url(#SVGID_8_);}
	.st38{clip-path:url(#SVGID_8_);fill:#F08CA7;}
	.st39{fill:#606060;}
	.st40{clip-path:url(#SVGID_10_);}
	.st41{clip-path:url(#SVGID_10_);fill:#F08CA7;}
	.st42{clip-path:url(#SVGID_12_);}
	.st43{clip-path:url(#SVGID_12_);fill:#F08CA7;}
	.st44{clip-path:url(#SVGID_14_);}
	.st45{clip-path:url(#SVGID_14_);fill:#F08CA7;}
	.st46{clip-path:url(#SVGID_16_);}
	.st47{clip-path:url(#SVGID_16_);fill:#F08CA7;}
	.st48{clip-path:url(#SVGID_18_);}
	.st49{clip-path:url(#SVGID_18_);fill:#F08CA7;}
	.st50{clip-path:url(#SVGID_20_);}
	.st51{clip-path:url(#SVGID_20_);fill:#F08CA7;}
	.st52{clip-path:url(#SVGID_22_);}
	.st53{clip-path:url(#SVGID_22_);fill:#F08CA7;}
	.st54{fill:none;}
</style>
<g>
	<path class="st0" d="M180.56,472.4c0,0-5.66-27.57-25.88-39.34c-18.18-10.58-4.13,10.19,0.11,17.19c0,0-12.72-4.42-17.97,7.19
		c-5.25,11.61,8.77,22.58,19.12,22.75C166.3,480.35,180.56,472.4,180.56,472.4z"/>
	<path class="st9" d="M155.02,481.04c0,0,22.91,78.75,62.21,77.64c21.56-0.62,39.14-22.96,50.03-41.46
		c7.77-13.19,12.15-24.43,12.15-24.43l-14.07-45.27l-53.28,62.86l-31.5-42.76L155.02,481.04z"/>
	<g>
		<path class="st1" d="M352.17,72.91c-10.23-6.31-18.42-15.77-23.06-26.41c-1.12-2.42-1.96-5.31-0.88-7.78
			c1.75-3.71,7.62-4.21,11.33-1.93s5.72,6.36,7.3,10.3C350.09,55.43,351.85,64.19,352.17,72.91z"/>
		<path class="st1" d="M339.04,98.71c-8.39-8.51-13.9-19.45-15.62-30.8c-0.4-2.74-0.49-5.72,1.18-7.76
			c2.66-3.18,8.55-2.31,11.63,0.77c3.08,3.08,4.01,7.48,4.44,11.59C341.59,81.22,341.11,90.12,339.04,98.71z"/>
		<path class="st1" d="M326.82,115.42c-9.48-6.73-16.7-16.21-20.21-26.58c-0.87-2.45-1.49-5.27-0.12-7.52
			c2-3.4,7.88-3.56,11.42-1.11c3.54,2.45,5.11,6.38,6.22,10.27C326.49,98.53,327.38,107,326.82,115.42z"/>
		<path class="st1" d="M352.78,70.74c2.97-10.89,9.71-20.73,18.98-27.67c2.14-1.65,4.86-3.23,7.64-2.85
			c4.37,0.69,6.87,5.85,5.78,9.78c-1.13,4.04-4.54,6.96-8.01,9.3C369.78,64.27,361.51,68.26,352.78,70.74z"/>
		<path class="st1" d="M341.17,89.58c7.26-8.87,17.47-15.38,28.93-18.4c2.77-0.65,5.86-1.18,8.3,0.21c3.78,2.08,4.05,7.72,1.5,10.94
			c-2.69,3.28-7.03,4.64-11.24,5.59C359.75,89.88,350.46,90.46,341.17,89.58z"/>
		<path class="st1" d="M326.14,113.49c7.26-8.87,17.47-15.38,28.93-18.4c2.77-0.65,5.86-1.18,8.3,0.21
			c3.78,2.08,4.05,7.72,1.5,10.94c-2.69,3.28-7.03,4.64-11.24,5.59C344.72,113.79,335.43,114.37,326.14,113.49z"/>
		<path class="st1" d="M312.4,148.61c-7.81-8.43-12.81-19.08-13.88-29.87c-0.22-2.57-0.23-5.4,1.62-7.27
			c2.91-2.86,8.7-1.69,11.56,1.32c2.83,3.11,3.47,7.3,3.71,11.23C315.87,132.33,314.84,140.71,312.4,148.61z"/>
		<path class="st1" d="M312.71,143.05c7.26-8.87,17.47-15.38,28.93-18.4c2.77-0.65,5.86-1.18,8.3,0.21
			c3.78,2.08,4.05,7.72,1.5,10.94c-2.69,3.28-7.03,4.64-11.24,5.59C331.29,143.35,321.89,143.89,312.71,143.05z"/>
		<g>
			<path class="st2" d="M356.71,54.16c0.06-0.55-0.77-0.6-0.72-0.02c-4.73,29.67-28.33,50.23-39.78,77.17
				c-5.5,12.98-9.04,26.63-11.2,40.51c-2.34,14.39-4.45,29.54-4.11,44.28c-0.04,1.91,2.81,2.09,3.07,0.25
				c2.3-14.63,2.32-29.7,4.72-44.3c2.44-15.04,6.1-30.12,12.7-43.86C333.03,103.93,355.49,82.42,356.71,54.16L356.71,54.16z"/>
		</g>
		<path class="st1" d="M354.31,62.3c-4.96-12.9-5.47-27.13-1.7-40.02c0.93-3.09,2.39-6.33,5.29-7.72
			c4.62-2.17,10.66,1.47,12.47,6.16s0.58,9.72-1,14.39C365.94,44.83,360.86,54.1,354.31,62.3z"/>
	</g>
	<g>
		<path class="st3" d="M386.14,404.36c0,0-0.01-0.04-0.04-0.09C385.45,403.95,386.14,404.36,386.14,404.36z"/>
		<path class="st3" d="M515.65,348.5c-2.31-4.99-5.55-9.5-9.47-13.32c8.48-26.34-6.74-59.64-35.05-65.28
			c0.95-17.36-6.05-35.17-20.57-45.49c-5.53-3.93-11.91-6.28-18.64-7.02c-0.51-0.06-0.94,0.04-1.27,0.23
			c-1.14-1.25-1.48-2.41-1.48-2.41s-3.98-8.15-16.18-15.61c-12.19-7.45-25.95-3.54-30.29-2.43c-0.48,0.12-0.91,0.19-1.29,0.23
			c-6.93-28.08-40.76-42.42-67.03-33.49c-7.74,2.63-14.78,6.92-20.93,12.25c-20.57-9.01-45.1-2.49-57.86,16.28
			c-0.23,0.34-0.35,0.68-0.39,1c-1.26,0.3-2.19,0.26-2.19,0.26s0.64-1.86-16.6,2.47c-17.24,4.33-21.39,19.83-23.03,24.14
			c-0.13,0.35-0.28,0.66-0.44,0.95c-0.48-0.32-1.08-0.48-1.78-0.34c-23.95,4.66-39.97,27.99-36.14,51.93
			c-23.22,9.31-35.78,33.53-36.19,57.73c0,0-0.01,0.01-0.01,0.01c-14.5,14.02-19.28,35.52-11.12,54.11
			c7.24,16.49,23.51,27.64,41.16,29.97c12.3,1.62,24.87-0.94,35.54-7.28c0.44-0.26,0.74-0.6,0.91-0.97
			c0.66,0.17,1.07,0.35,1.07,0.35s9.63,3.01,17.53,4.2c7.89,1.19,18.48,1.05,26.17-3.79c7.69-4.84,9.56-0.71,9.56-0.71
			s9.12,6.21,16.19,11c7.08,4.79,17.86,4.18,23.88,3.09c6.02-1.09,20.78-6.68,25.05-12.77c4.27-6.09,6.02-1.45,6.02-1.45
			s5.68,5.9,19.03,11.42c13.35,5.52,25.89,1.77,32.43,0c6.54-1.77,15.37-7.6,19.01-12.16c3.26-4.1,4.62-1.85,4.87-1.35
			c0.59,0.29,2.31,1.18,6.7,3.54c9.21,4.95,21,5.65,30.95,4.61c9.95-1.04,18.71-4.32,21.53-6.96c0.77-0.72,1.49-1.17,2.22-1.4
			c-0.04,0.76,0.26,1.54,1.05,2.07c17.68,11.9,41.72,9.96,57.17-4.72C519.96,387.89,523.88,366.26,515.65,348.5z"/>
	</g>
	<g>
		<path class="st3" d="M158.81,252.52c0,0,2.84-12.88,12.9-19.33c10.06-6.45,15.99-8.66,15.99-8.66s4.03,0.48,5.67-3.83
			c1.64-4.31,5.79-19.81,23.03-24.14s16.6-2.47,16.6-2.47s4.86,0.21,7.51-3.94c2.65-4.15,12.77-13.68,25.65-14.71
			c12.88-1.03,24.7,2.51,24.7,2.51s2.08,3.17,8.75-2.7c6.67-5.88,16.85-11.78,32.71-10.8c15.86,0.98,25.66,4.47,32.55,11.58
			s12.73,15.54,12.73,15.54l0.8,4.09c0,0-0.04,3.01,4.3,1.89c4.34-1.12,18.1-5.03,30.29,2.43c12.19,7.45,16.18,15.61,16.18,15.61
			s1.09,3.7,5.83,4.97c4.74,1.27,22.81,7.7,28.32,22.72c5.51,15.02,5.55,21.34,5.55,21.34l0.06,4.44c0,0,0.04,2.05,4.13,4.07
			c4.08,2.02,18.61,5.25,26.06,20.64c7.45,15.4,8.26,24.15,7.19,30.27c-1.07,6.12-3.77,11.91-1.37,13.56
			c2.4,1.65,13.23,15.32,12.74,29.21c-0.49,13.89-5.43,23.77-10.29,29.83c-4.86,6.05-11.31,12.08-23.13,14.26
			c-11.82,2.18-26.16-0.53-30.04-3.72c-3.88-3.18-6.11-3.98-8.93-1.34c-2.82,2.64-11.59,5.92-21.53,6.96
			c-9.95,1.04-21.74,0.34-30.95-4.61c-9.21-4.95-6.66-3.45-6.66-3.45s-1.27-3.31-4.91,1.26c-3.64,4.56-12.47,10.38-19.01,12.16
			c-6.54,1.77-19.09,5.52-32.43,0c-13.35-5.52-19.03-11.42-19.03-11.42s-1.75-4.64-6.02,1.45c-4.27,6.09-19.03,11.68-25.05,12.77
			s-16.8,1.7-23.88-3.09c-7.08-4.79-18.06-15.13-25.75-10.29c-7.69,4.84-18.27,4.98-26.17,3.79c-7.89-1.19-17.53-4.2-17.53-4.2
			s-4.19-1.9-7.66,1.02c-3.48,2.92-29.66,9.88-45.12,0c-15.46-9.88-24.77-19.9-26.95-34.36c-2.18-14.46,0.62-22.83,4.57-29.04
			c3.95-6.21,6.37-9.16,6.37-9.16s3.1-2.34,3.6-7.65c0.49-5.32,2.85-25.94,13.08-36.06c10.22-10.12,17.05-14.43,17.05-14.43
			s6.25-0.59,5.84-5.62C156.72,266.81,158.46,255.84,158.81,252.52z"/>
		<g>
			<path class="st4" d="M391.04,377.71c2.98-1.51,6.19-1.55,9.41-0.88c3.39,0.7,7.1,2.02,9.55,4.54c4.97,5.11,5.22,12.95,4.94,19.63
				c-0.09,2.28,3.44,2.73,3.54,0.44c0.33-8-0.2-17.03-6.34-22.94c-2.95-2.83-7.04-4.28-10.97-5.15c-3.87-0.85-7.96-0.74-11.54,1.08
				C387.59,375.47,388.98,378.75,391.04,377.71L391.04,377.71z"/>
		</g>
		<g>
			<path class="st4" d="M215.14,396.65c-1.51-2.98-1.55-6.19-0.88-9.41c0.7-3.39,2.02-7.1,4.54-9.55
				c5.11-4.97,12.95-5.22,19.63-4.94c2.28,0.09,2.73-3.44,0.44-3.54c-8-0.33-17.03,0.2-22.94,6.34c-2.83,2.95-4.28,7.04-5.15,10.97
				c-0.85,3.87-0.74,7.96,1.08,11.54C212.9,400.09,216.18,398.7,215.14,396.65L215.14,396.65z"/>
		</g>
		<circle class="st0" cx="311.98" cy="324.24" r="95.77"/>
		<path class="st3" d="M360.88,246.66c-0.65-1.25-1.88-1.4-2.86-0.92c-1.18-2.82-2.26-5.59-2.13-6.27c0.29-1.48-0.39-4.6-0.39-4.6
			s-10.92,0.65-14.85,0c-3.93-0.65-18.26-4.82-20.57-6.4c-2.3-1.57-4.13-2.96-5.69,0c-1.56,2.96-3.53,5.67-12.06,10.84
			c-8.53,5.17-11.9,7.06-14.93,7.14c-3.04,0.08-10.28-1-10.28-1s-0.03-0.01-0.07-0.01c-0.68-2.18-4.49-1.92-4.57,0.79
			c-0.35,13.28,5.56,29.13,19.44,33.08c8.06,2.3,20.32,1.38,22.58-8.47c0.04-0.16,0.07-0.31,0.1-0.47c1.25,0.32,2.52,0.58,3.8,0.75
			c5.59,0.78,11.92,0.19,16.45-3.48c1.14-0.92,2.06-2.01,2.79-3.22c4.33,2.98,9.64,4.91,14.93,3.96
			c6.14-1.11,10.24-6.25,10.57-12.37C363.32,252.73,362.38,249.54,360.88,246.66z"/>
		<path class="st3" d="M236.75,268.69c0,0,25.09,16.26,54.21-14.24c0,0,29.03-30.1-7-30.49
			C247.94,223.56,234.89,253.24,236.75,268.69z"/>
		<path class="st3" d="M348.59,253.55c0,0,5.21,31.56,46.18,31.69c0,0,25.3-29.58,2.53-49.25
			C374.53,216.31,348.59,229.74,348.59,253.55z"/>
		<path class="st3" d="M331.29,208.45l-28.95,30.85c0,0-7.16,11.1-29.85,6.92c0,0-8.43,10.6-30.24,18.9c0,0,13.74,41.91-35.42,45.04
			C206.83,310.17,187.68,197.92,331.29,208.45z"/>
		<path class="st3" d="M394.78,285.24c0,0-16.97,41.06,3.61,48.22c20.58,7.16,58.78-0.93,37.58-35.68S394.78,285.24,394.78,285.24z"
			/>
		<path class="st3" d="M356.46,219.11c0,0-16.4,38.48,26.69,47.68c0,0-12.83,54.37,57.98,42.43
			C441.13,309.22,447.11,196.89,356.46,219.11z"/>
		<g>
			<path class="st4" d="M313.42,225.02c-3.94,6.79-10.07,12.16-17.2,15.42c-8.29,3.78-17.53,3.82-26.1,0.95
				c-2.86-0.96-4.08,3.55-1.24,4.5c9.58,3.21,19.79,2.93,29.05-1.13c8.08-3.55,15.08-9.74,19.52-17.38
				C318.97,224.77,314.93,222.42,313.42,225.02L313.42,225.02z"/>
		</g>
		<g>
			<path class="st4" d="M301.95,198.88c-0.18,4.83,1.02,9.96,2.79,14.41c4.01,10.08,12.01,17.42,22.24,21
				c8.9,3.11,18.62,3.34,27.92,2.48c2.97-0.28,3-4.95,0-4.67c-13.16,1.23-28.32,0.29-38.41-9.34c-5.45-5.2-8.5-12.13-9.58-19.49
				c-0.09-0.65,0.06,0.5-0.02-0.13c-0.02-0.18-0.04-0.35-0.06-0.53c-0.03-0.32-0.07-0.65-0.09-0.97c-0.04-0.48-0.07-0.96-0.09-1.44
				c-0.02-0.44-0.03-0.88-0.01-1.31C306.73,195.87,302.06,195.88,301.95,198.88L301.95,198.88z"/>
		</g>
		<g>
			<path class="st4" d="M432.19,307.74c-13.13,6.3-29.17,3.55-39.29-6.93c-9.39-9.72-11.94-24.79-5.95-36.98
				c3.53-7.18,9.43-12.68,16.68-16.01c2.73-1.25,0.36-5.28-2.36-4.03c-14.76,6.78-23.96,22.54-21.96,38.77
				c1.83,14.85,12.61,27.37,26.91,31.65c9.41,2.82,19.51,1.79,28.33-2.43C437.25,310.48,434.89,306.45,432.19,307.74L432.19,307.74z
				"/>
		</g>
		<g>
			<path class="st4" d="M415.27,315.13c-0.68-0.86,0.17,0.24,0.38,0.54c0.61,0.86,1.19,1.75,1.74,2.65c1.84,3,3.44,6.17,4.7,9.46
				c3.68,9.66,4.55,20.21,0.92,30.03c-2.83,7.64-8.19,13.98-14.3,19.24c-2.28,1.96,1.03,5.25,3.3,3.3
				c10.71-9.2,18.16-21.71,18.05-36.12c-0.07-9.5-3.16-18.88-7.91-27.05c-1.08-1.86-2.25-3.67-3.58-5.36
				C416.72,309.47,413.43,312.8,415.27,315.13L415.27,315.13z"/>
		</g>
		<g>
			<path class="st4" d="M383.15,266.79c-9.87-3.23-18.24-10.5-22.28-20.15c-3.98-9.48-3.42-20.53,1.48-29.56
				c10.08-18.57,34.81-24.53,52.55-13.33c9.57,6.04,15.76,16.39,16.39,27.69c0.17,2.99,4.84,3.01,4.67,0
				c-0.64-11.38-6.02-21.96-14.97-29.06c-9.18-7.28-21.02-10.27-32.58-8.55c-23.57,3.5-40.21,27.47-33.23,50.7
				c3.85,12.82,14.12,22.63,26.73,26.76C384.77,272.23,386,267.72,383.15,266.79L383.15,266.79z"/>
		</g>
		<g>
			<path class="st4" d="M384.35,225.76c10.33-9.03,25.26-10.33,36.93-3.11c11.29,6.97,17.38,20.19,16.66,33.27
				c-0.46,8.36-3.84,16.39-9.52,22.53c-2.04,2.2,1.26,5.52,3.3,3.3c11.34-12.27,13.96-30.46,7.17-45.64
				c-5.75-12.85-18.35-22.24-32.57-22.85c-9.35-0.41-18.28,3.08-25.28,9.19C378.78,224.44,382.09,227.74,384.35,225.76
				L384.35,225.76z"/>
		</g>
		<path class="st3" d="M429.99,301.27c0,0,20.88,6.13,19.74,37.63c-1.14,31.5-12.56,40.33-16.37,49.26
			c-3.81,8.93,14.49,18.94,26.67,6.39c12.18-12.55,23.33-39.56,17.32-64.34c-6.01-24.78-13.79-31.45-27.62-40.48
			C435.9,280.71,418.4,289.46,429.99,301.27z"/>
		<g>
			<path class="st4" d="M408.75,282.51c16.62-2.12,33.29,2.85,45.91,13.91c12.09,10.59,19.86,25.71,21.73,41.66
				c1.93,16.49-2.03,33.37-11.54,47.02c-8.97,12.87-22.75,22.1-38.23,24.91c-20.42,3.71-32.23,2.34-45.69-13.11
				c-1.98-2.27-5.27,1.04-3.3,3.3c12.97,14.9,23.6,16.67,43.45,15.18c16.74-1.25,32.37-9.43,43.3-22.12
				c23.37-27.15,22.63-69.83-2.04-95.93c-13.75-14.54-33.68-22.03-53.59-19.49C405.81,278.22,405.77,282.89,408.75,282.51
				L408.75,282.51z"/>
		</g>
		<path class="st3" d="M147.39,331.69c0,0,8.37-30.73,25.33-40.64c16.95-9.9,24.5-12.19,31.5-12.6s13.13,1.16,11.81,4.88
			c-1.31,3.72-23.85,9.09-28.22,23.25c-4.38,14.16-13.13,38.12-3.72,56.33c9.41,18.21,16.41,36.8,9.84,38.12
			c-6.56,1.31-39.27-9.98-44.47-34.85C144.28,341.31,145.65,338.9,147.39,331.69z"/>
		<g>
			<g>
				<path class="st4" d="M190.86,310.12c14.9,7.15,33.07,4.45,44.74-7.45c10.92-11.13,13.78-28.14,7.18-42.26
					c-3.78-8.08-10.56-14.57-18.64-18.28c-2.71-1.25-5.09,2.78-2.36,4.03c13.06,6,21.22,19.34,19.75,33.78
					c-1.31,12.88-10.73,24.01-22.99,27.91c-8.33,2.65-17.44,2.01-25.33-1.78C190.52,304.79,188.15,308.82,190.86,310.12
					L190.86,310.12z"/>
			</g>
			<g>
				<path class="st4" d="M206.83,310.17c-10.25,13.01-14.8,32.1-8.73,47.8c3.17,8.18,8.68,15.05,15.29,20.74
					c2.27,1.95,5.59-1.34,3.3-3.3c-10.03-8.62-17.01-20.06-16.67-33.6c0.22-8.52,3.11-16.86,7.41-24.17
					c0.66-1.12,1.35-2.21,2.08-3.28c0.25-0.36,1.28-1.72,0.61-0.88C211.97,311.14,208.69,307.81,206.83,310.17L206.83,310.17z"/>
			</g>
			<g>
				<path class="st4" d="M243.49,269.63c11.13-3.65,20.53-11.7,25.17-22.54c4.6-10.75,4.1-23.13-1.3-33.49
					c-11.07-21.23-39.49-28.24-59.48-15.38c-10.87,6.99-17.72,18.66-18.45,31.56c-0.17,3,4.5,2.99,4.67,0
					c1.19-21.24,21.6-36.32,42.28-33.01c20.69,3.31,35.4,23.95,29.42,44.55c-3.3,11.36-12.41,20.16-23.56,23.81
					C239.41,266.06,240.63,270.57,243.49,269.63L243.49,269.63z"/>
			</g>
			<g>
				<path class="st4" d="M244.36,220.8c-11.89-10.38-29.06-12.2-42.59-3.84c-12.73,7.87-19.92,22.86-18.95,37.69
					c0.62,9.5,4.4,18.46,10.87,25.45c2.05,2.21,5.34-1.1,3.3-3.3c-9.84-10.65-12.28-26.74-6.44-39.98
					c4.97-11.25,15.72-19.84,28.22-20.52c8.19-0.44,16.12,2.42,22.29,7.81C243.31,226.08,246.63,222.79,244.36,220.8L244.36,220.8z"
					/>
			</g>
			<g>
				<path class="st4" d="M216.65,276.18c-16.25-2.07-32.71,2.46-45.7,12.41c-12.43,9.52-21.23,23.35-24.96,38.53
					c-7.63,31.01,6.21,65.99,35.45,80.36c18.08,8.89,39.38,8.29,57.08-1.29c2.64-1.43,0.29-5.47-2.36-4.03
					c-14.92,8.08-32.71,9.26-48.5,3.01c-13.29-5.26-24.21-15.58-31.01-28.06c-14.41-26.43-9.18-61.19,13.19-81.55
					c12.73-11.58,29.77-16.89,46.82-14.72C219.63,281.23,219.6,276.56,216.65,276.18L216.65,276.18z"/>
			</g>
		</g>
		<path class="st4" d="M221.12,319.25c0,0-1.27-42.21,40.46-42.21c22.19,0,33.04,32.07,33.04,32.07s-10.5-32.81-39.34-27.22
			C225.11,287.75,221.12,319.25,221.12,319.25z"/>
		<path class="st4" d="M380.93,324.44c0,0,0.9-47.09-32.34-47.08c-35.2,0-36.72,31.76-36.72,31.76s7.46-31.18,39.34-27.22
			C381.71,285.69,380.93,324.44,380.93,324.44z"/>
		<g>
			<g>
				<path class="st5" d="M201.17,228.2c-10.24,9.06-12.62,24.46-6.19,36.42c1.42,2.65,5.46,0.29,4.03-2.36
					c-5.48-10.2-3.2-23.09,5.46-30.76C206.72,229.5,203.41,226.21,201.17,228.2L201.17,228.2z"/>
			</g>
			<g>
				<path class="st5" d="M220.24,221.73c-3.85-0.33-7.8,0.27-11.37,1.73c-0.59,0.24-1.06,0.5-1.4,1.07c-0.29,0.5-0.42,1.24-0.24,1.8
					c0.35,1.09,1.66,2.12,2.87,1.63c1.65-0.67,3.36-1.16,5.11-1.45c0.1-0.02,0.19-0.03,0.29-0.04c-0.3,0.04-0.31,0.04-0.04,0.01
					c0.2-0.02,0.39-0.04,0.59-0.06c0.46-0.04,0.92-0.07,1.38-0.09c0.94-0.03,1.87,0,2.8,0.08c1.22,0.1,2.39-1.15,2.34-2.34
					C222.52,222.72,221.55,221.85,220.24,221.73L220.24,221.73z"/>
			</g>
			<g>
				<path class="st5" d="M298.9,274.55c1.5,0.12,3.01,0.12,4.51,0.03c0.62-0.03,1.2-0.24,1.65-0.68c0.41-0.41,0.71-1.07,0.68-1.65
					c-0.03-0.6-0.23-1.23-0.68-1.65c-0.44-0.41-1.03-0.72-1.65-0.68c-1.5,0.08-3.01,0.08-4.51-0.03c-0.57-0.04-1.26,0.29-1.65,0.68
					c-0.41,0.41-0.71,1.07-0.68,1.65c0.03,0.6,0.23,1.23,0.68,1.65C297.73,274.3,298.26,274.5,298.9,274.55L298.9,274.55z"/>
			</g>
			<g>
				<path class="st5" d="M278.67,253.91c0.01,5.36,2.42,11.09,6.22,14.83c1.99,1.96,4.36,3.35,6.95,4.35
					c1.18,0.46,2.56-0.5,2.87-1.63c0.36-1.32-0.45-2.41-1.63-2.87c-0.15-0.06-0.3-0.12-0.45-0.18c0.05,0.02,0.26,0.11,0.01,0
					c-0.25-0.11-0.49-0.23-0.73-0.35c-0.46-0.23-0.92-0.49-1.36-0.76c-0.42-0.26-0.83-0.54-1.23-0.84c0.34,0.26-0.15-0.13-0.25-0.21
					c-0.2-0.17-0.4-0.35-0.6-0.53c-0.33-0.31-0.65-0.64-0.96-0.97c-0.13-0.14-0.25-0.28-0.38-0.43c-0.08-0.1-0.16-0.19-0.24-0.29
					c-0.22-0.26,0.22,0.3,0.02,0.03c-0.52-0.69-0.99-1.41-1.4-2.17c-0.18-0.32-0.34-0.65-0.5-0.98c-0.08-0.17-0.16-0.35-0.24-0.52
					c-0.06-0.12-0.15-0.41,0.05,0.11c-0.04-0.1-0.08-0.2-0.12-0.29c-0.25-0.65-0.48-1.31-0.67-1.98c-0.17-0.6-0.32-1.22-0.44-1.83
					c-0.05-0.26-0.1-0.51-0.14-0.77c-0.02-0.1-0.03-0.2-0.05-0.3c-0.01-0.05,0.07,0.64,0.02,0.15c-0.05-0.51-0.11-1.02-0.11-1.54
					c0-1.26-1.07-2.34-2.34-2.34C279.75,251.57,278.67,252.64,278.67,253.91L278.67,253.91z"/>
			</g>
			<g>
				<path class="st5" d="M317.46,266.5c2.07,0.43,4.26,0.57,6.37,0.44c0.62-0.04,1.2-0.24,1.65-0.68c0.41-0.41,0.71-1.07,0.68-1.65
					c-0.03-0.6-0.23-1.23-0.68-1.65c-0.44-0.4-1.03-0.72-1.65-0.68c-1.56,0.09-3.12,0.02-4.66-0.18c0.21,0.03,0.41,0.06,0.62,0.08
					c-0.36-0.05-0.73-0.1-1.09-0.18c-0.62-0.13-1.24-0.09-1.8,0.24c-0.48,0.28-0.95,0.84-1.07,1.4c-0.14,0.6-0.11,1.27,0.24,1.8
					C316.38,265.92,316.87,266.38,317.46,266.5L317.46,266.5z"/>
			</g>
			<g>
				<path class="st5" d="M265.28,179.3c-5.53,0.75-10.88,2.76-15.54,5.82c-1.05,0.69-1.5,2.07-0.84,3.2
					c0.61,1.05,2.14,1.53,3.2,0.84c4.42-2.91,9.11-4.64,14.43-5.35c1.22-0.16,1.98-1.78,1.63-2.87
					C267.72,179.59,266.58,179.12,265.28,179.3L265.28,179.3z"/>
			</g>
			<g>
				<path class="st5" d="M280.18,180.44c-2.17-0.5-4.38-0.83-6.6-1.04c-0.56-0.05-1.27,0.3-1.65,0.68
					c-0.41,0.41-0.71,1.07-0.68,1.65c0.03,0.6,0.23,1.23,0.68,1.65c0.48,0.44,1,0.62,1.65,0.68c0.66,0.06,1.31,0.13,1.97,0.22
					c-0.21-0.03-0.41-0.06-0.62-0.08c1.35,0.18,2.68,0.43,4.01,0.73c0.61,0.14,1.25,0.08,1.8-0.24c0.48-0.28,0.95-0.84,1.07-1.4
					C282.08,182.12,281.45,180.73,280.18,180.44L280.18,180.44z"/>
			</g>
			<g>
				<path class="st5" d="M314.03,212.59c3.09,5.69,7.94,10.22,13.77,13.02c1.1,0.53,2.57,0.34,3.2-0.84
					c0.55-1.04,0.34-2.63-0.84-3.2c-1.53-0.73-3-1.57-4.39-2.54c-0.14-0.1-0.28-0.2-0.42-0.3c-0.06-0.04-0.55-0.41-0.34-0.25
					c0.23,0.18-0.2-0.16-0.24-0.19c-0.16-0.13-0.31-0.25-0.47-0.38c-0.58-0.48-1.13-0.99-1.66-1.52c-0.49-0.49-0.96-0.99-1.42-1.51
					c-0.22-0.25-0.44-0.51-0.65-0.77c-0.14-0.17-0.32-0.41-0.08-0.1c-0.11-0.14-0.22-0.29-0.32-0.43c-0.78-1.06-1.48-2.18-2.1-3.34
					c-0.58-1.08-2.16-1.51-3.2-0.84C313.77,210.1,313.4,211.44,314.03,212.59L314.03,212.59z"/>
			</g>
			<g>
				<path class="st5" d="M310.3,201.3c0.27,1.84,0.69,3.66,1.25,5.44c0.18,0.57,0.55,1.09,1.07,1.4c0.5,0.29,1.24,0.42,1.8,0.24
					c0.57-0.18,1.11-0.53,1.4-1.07c0.29-0.54,0.43-1.2,0.24-1.8c-0.56-1.78-0.98-3.59-1.25-5.44c-0.08-0.54-0.63-1.13-1.07-1.4
					c-0.5-0.29-1.24-0.42-1.8-0.24c-0.57,0.18-1.11,0.53-1.4,1.07c-0.08,0.19-0.16,0.37-0.24,0.56
					C310.19,200.47,310.19,200.89,310.3,201.3L310.3,201.3z"/>
			</g>
			<g>
				<g>
					<path class="st5" d="M166.38,264.6c-0.32-5.89,1.41-11.74,5.1-16.31c0.79-0.98,0.96-2.34,0-3.3c-0.82-0.82-2.51-0.99-3.3,0
						c-4.48,5.55-6.87,12.45-6.47,19.61c0.07,1.26,1.02,2.34,2.34,2.34C165.26,266.93,166.45,265.86,166.38,264.6L166.38,264.6z"/>
				</g>
				<g>
					<path class="st5" d="M169.64,275.06c-0.6-1.02-1.14-2.07-1.6-3.16c0.08,0.19,0.16,0.37,0.24,0.56
						c-0.31-0.74-0.58-1.48-0.82-2.24c-0.18-0.57-0.55-1.09-1.07-1.4c-0.5-0.29-1.24-0.42-1.8-0.24c-0.57,0.18-1.11,0.53-1.4,1.07
						c-0.29,0.54-0.43,1.2-0.24,1.8c0.66,2.07,1.55,4.09,2.66,5.97c0.3,0.51,0.83,0.92,1.4,1.07c0.56,0.15,1.3,0.08,1.8-0.24
						C169.86,277.58,170.3,276.19,169.64,275.06L169.64,275.06z"/>
				</g>
			</g>
			<g>
				<g>
					<path class="st5" d="M131.6,338.24c-0.21-2.18-0.24-4.37-0.1-6.56c0.08-1.22-1.13-2.39-2.34-2.34
						c-1.33,0.06-2.25,1.03-2.34,2.34c-0.14,2.19-0.1,4.38,0.1,6.56c0.06,0.63,0.22,1.19,0.68,1.65c0.41,0.41,1.07,0.71,1.65,0.68
						c0.6-0.03,1.23-0.23,1.65-0.68C131.31,339.46,131.65,338.85,131.6,338.24L131.6,338.24z"/>
				</g>
				<g>
					<path class="st5" d="M135.39,353.52c-0.17-0.37-0.34-0.74-0.5-1.11c-0.1-0.24-0.09-0.21,0.03,0.08
						c-0.04-0.11-0.09-0.22-0.13-0.32c-0.07-0.16-0.13-0.33-0.19-0.49c-0.31-0.8-0.59-1.6-0.85-2.42c-0.51-1.64-0.9-3.31-1.19-5
						c-0.21-1.21-1.75-1.99-2.87-1.63c-1.3,0.42-1.85,1.58-1.63,2.87c0.62,3.61,1.75,7.08,3.31,10.38c0.52,1.11,2.2,1.48,3.2,0.84
						C135.7,355.98,135.95,354.7,135.39,353.52L135.39,353.52z"/>
				</g>
			</g>
			<g>
				<g>
					<path class="st5" d="M153.99,332c-4.85,23.35,4.27,48.18,24.59,61.22c2.54,1.63,4.88-2.41,2.36-4.03
						c-18.49-11.86-26.86-34.72-22.45-55.95C159.11,330.31,154.61,329.06,153.99,332L153.99,332z"/>
				</g>
				<g>
					<path class="st5" d="M160.17,315.77c-1.37,2.43-2.54,4.97-3.57,7.57c-0.21,0.53-0.04,1.33,0.24,1.8
						c0.28,0.48,0.84,0.95,1.4,1.07c0.6,0.14,1.27,0.11,1.8-0.24c0.54-0.35,0.84-0.8,1.07-1.4c0.18-0.45,0.36-0.9,0.55-1.35
						c-0.08,0.19-0.16,0.37-0.24,0.56c0.82-1.94,1.75-3.82,2.78-5.66c0.6-1.06,0.29-2.6-0.84-3.2
						C162.27,314.35,160.82,314.63,160.17,315.77L160.17,315.77z"/>
				</g>
			</g>
			<g>
				<g>
					<path class="st5" d="M505.45,374.61c-2.84,13.58-14.7,23.5-28.63,23.59c-3,0.02-3.01,4.69,0,4.67
						c15.89-0.11,29.87-11.44,33.13-27.02C510.56,372.91,506.06,371.66,505.45,374.61L505.45,374.61z"/>
				</g>
				<g>
					<path class="st5" d="M505.23,362.21c0.24,1.03,0.43,2.07,0.57,3.11c-0.03-0.21-0.06-0.41-0.08-0.62c0.18,1.4,0.27,2.8,0.28,4.2
						c0,1.22,1.07,2.39,2.34,2.34c1.26-0.06,2.34-1.03,2.34-2.34c-0.01-2.67-0.32-5.34-0.93-7.94c-0.28-1.19-1.71-2.01-2.87-1.63
						C505.62,359.74,504.93,360.93,505.23,362.21L505.23,362.21z"/>
				</g>
			</g>
			<g>
				<path class="st5" d="M463.01,330.83c7.47,25.32-4.66,54.67-30.44,63.51c-2.83,0.97-1.61,5.48,1.24,4.5
					c28.16-9.65,41.93-41.38,33.71-69.25C466.67,326.71,462.16,327.94,463.01,330.83L463.01,330.83z"/>
			</g>
			<g>
				<path class="st5" d="M449.95,309.24c1.54,1.51,2.99,3.11,4.33,4.79c0.08,0.1,0.15,0.19,0.23,0.29c0.03,0.04,0.29,0.35,0.1,0.12
					c-0.22-0.24,0.11,0.15,0.15,0.2c0.07,0.1,0.15,0.2,0.22,0.29c0.33,0.44,0.65,0.89,0.97,1.34c0.63,0.91,1.23,1.84,1.81,2.78
					c0.64,1.04,2.12,1.53,3.2,0.84c1.05-0.68,1.52-2.08,0.84-3.2c-2.39-3.92-5.26-7.56-8.54-10.77c-0.87-0.85-2.44-0.94-3.3,0
					C449.1,306.86,449.01,308.33,449.95,309.24L449.95,309.24z"/>
			</g>
			<g>
				<path class="st5" d="M424.57,235.62c7.81,9.82,8.13,23.97,1.15,34.29c-1.69,2.5,2.36,4.84,4.03,2.36
					c8.24-12.19,7.19-28.54-1.88-39.95C426,229.97,422.71,233.29,424.57,235.62L424.57,235.62z"/>
			</g>
			<g>
				<path class="st5" d="M411.34,226.77c0.74,0.21,1.47,0.44,2.19,0.71c0.3,0.11,0.62,0.3,0.94,0.37c-0.34-0.14-0.39-0.17-0.16-0.07
					c0.09,0.04,0.18,0.08,0.26,0.12c0.17,0.08,0.35,0.16,0.52,0.24c1.35,0.63,2.63,1.38,3.86,2.22c1.01,0.69,2.63,0.22,3.2-0.84
					c0.63-1.19,0.24-2.46-0.84-3.2c-2.65-1.82-5.63-3.19-8.73-4.05c-1.18-0.33-2.59,0.4-2.87,1.63
					C409.43,225.13,410.08,226.42,411.34,226.77L411.34,226.77z"/>
			</g>
		</g>
		
			<ellipse transform="matrix(0.3338 -0.9426 0.9426 0.3338 -65.5078 612.0254)" class="st0" cx="400.25" cy="352.36" rx="24.59" ry="16.5"/>
		
			<ellipse transform="matrix(0.9426 -0.3338 0.3338 0.9426 -103.3118 94.2503)" class="st0" cx="222.58" cy="347.73" rx="15.41" ry="22.09"/>
		<ellipse class="st6" cx="346" cy="319.25" rx="34.93" ry="38.69"/>
		<ellipse class="st6" cx="258.52" cy="319.25" rx="37.4" ry="38.69"/>
		<ellipse cx="265.26" cy="321.82" rx="25.94" ry="32.53"/>
		<ellipse cx="348.59" cy="321.82" rx="26.5" ry="32.53"/>
		<path class="st7" d="M297.43,341.09c0,0-20.71,0.98-9.7,19.02C287.73,360.11,284.1,348.36,297.43,341.09z"/>
		<g>
			<defs>
				<path id="SVGID_9_" d="M262.96,366.21c0,0,50.77,9.71,88.04-8.27c0,0-5.56,33.25-38.67,35.87
					C274.97,396.77,262.96,366.21,262.96,366.21z"/>
			</defs>
			<clipPath id="SVGID_2_">
				<use xlink:href="#SVGID_9_"  style="overflow:visible;"/>
			</clipPath>
			<path class="st11" d="M262.96,366.21c0,0,50.77,9.71,88.04-8.27c0,0-5.56,33.25-38.67,35.87
				C274.97,396.77,262.96,366.21,262.96,366.21z"/>
			<path class="st12" d="M301.16,393.6c0,0,4.71-26.5,49.84-35.67c0,0,0.59,23.46-26.32,34.64
				C317.48,395.57,306.35,395.37,301.16,393.6z"/>
		</g>
		<ellipse class="st8" cx="365.89" cy="355.73" rx="22.74" ry="6.9"/>
		<ellipse class="st8" cx="248.13" cy="355.73" rx="22.8" ry="8"/>
	</g>
	<path class="st0" d="M270.25,446.62c0,0-55.02,162.42-36.81,196.89c33.6,63.61,106.26,24.41,116.53,16.28
		c0,0-5.39-219.63-18.53-221.06C318.29,437.3,297.38,441.83,270.25,446.62z"/>
	<ellipse class="st13" cx="304.07" cy="821.28" rx="131.87" ry="15.2"/>
	<path class="st0" d="M276.87,626.92c-0.12-1.09-0.41-2.15-0.91-3.13c-2.12-4.1-8.34-5.28-11.82-2.25c-2.73,2.38-3.41,6.28-3.9,9.87
		c-7.42,54.14-8.95,109.09-4.53,163.57c-12.93,0.17-25.84,2.55-37.99,7.01c-2.94,1.08-5.99,2.37-8.26,4.58
		c-1.84,1.79-3.09,4.34-2.77,6.88c0.29,2.14,1.67,4.02,3.39,5.32c5.09,3.84,11.98,3.87,18.05,4.04c9.26,0.26,18.56-1.05,27.38-3.86
		c5.88-1.88,18.63-5.42,19.31-13.09c0.21-2.34-0.99-4.54-1.71-6.78c-0.78-2.44-0.99-5.02-1.2-7.56
		c-4.15-52.77-2.59-105.98,4.64-158.41C276.82,631.07,277.1,628.93,276.87,626.92z"/>
	<path class="st0" d="M310.6,616.71c-0.54-0.96-1.21-1.82-2.05-2.54c-3.54-2.96-9.74-1.65-11.77,2.49
		c-1.59,3.25-0.72,7.11,0.22,10.61c14.09,52.8,33.92,104.07,59.06,152.6c-11.86,5.15-22.84,12.34-32.32,21.15
		c-2.29,2.13-4.61,4.5-5.85,7.42c-1,2.36-1.18,5.2,0.11,7.42c1.09,1.86,3.09,3.06,5.19,3.6c6.18,1.57,12.55-1.07,18.21-3.25
		c8.64-3.34,16.71-8.14,23.75-14.15c4.7-4,15.09-12.2,12.75-19.54c-0.71-2.24-2.67-3.8-4.2-5.6c-1.66-1.95-2.86-4.24-4.03-6.51
		c-24.23-47.06-43.36-96.74-56.96-147.89C312.17,620.55,311.6,618.48,310.6,616.71z"/>
	<rect x="304.07" y="405.66" class="st0" width="23.87" height="49.6"/>
	<path class="st7" d="M304.07,419.34v7.58l23.87,7.86v-16.89C327.94,417.88,316.8,422.01,304.07,419.34z"/>
	<path class="st9" d="M293.48,691.07c0,0,69.84,0.5,90.02-8.82c0,0-38.84-101.79-13.86-186.83c13.25-45.11-4.06-43.22-4.06-43.22
		s-0.02-0.01-0.02-0.01c-1.44-1.4-5.75-5.61-5.75-5.61l-9.94-4.04l-17.77-3.81c0,0-29.07,48.51-36.18,73.86
		C295.9,512.68,282.8,632.58,293.48,691.07z"/>
	<path class="st10" d="M327.94,438.27c0,0-10.5,16.13-16.86,32.46c-6.36,16.33-15.16,41.87-15.16,41.87l39.11-24.94l-2.94-14.84
		l16.16-6.06l-6.6-25.96L327.94,438.27z"/>
	<path class="st9" d="M295.92,512.6c0,0-0.88,93.84-2.44,178.47c0,0-59.38-10.84-76.98-17.05c0,0,14.56-178.76,48.83-226.51
		c0,0,13.45-2.28,30.58-6.45C295.92,441.07,293.17,471.33,295.92,512.6z"/>
	<path class="st10" d="M304.07,439.91c0,0-7.4,21.11-8.16,30.36c-0.79,9.65,0.41,18.72,0.02,42.33l-35.4-31.84l12.45-13.52
		l-8.67-3.69l25.63-21.54L304.07,439.91z"/>
	<circle class="st10" cx="300.58" cy="517.76" r="2.2"/>
	<circle class="st10" cx="301.03" cy="573.72" r="2.2"/>
	<path class="st14" d="M290.9,575.92c0,0-2.54,99.84-28.06,109.2l30.64,5.94L290.9,575.92z"/>
	<circle class="st10" cx="298.83" cy="599.63" r="2.2"/>
	<circle class="st10" cx="300.58" cy="646.55" r="2.2"/>
	<g>
		<g>
			<path class="st4" d="M172.72,293.25c-0.19,0-0.38-0.02-0.58-0.07c-15.89-3.65-19.5-19.11-19.65-19.76
				c-0.31-1.39,0.56-2.76,1.95-3.07c1.39-0.31,2.76,0.56,3.07,1.94c0.13,0.55,3.12,12.97,15.78,15.88c1.38,0.32,2.25,1.7,1.93,3.08
				C174.95,292.45,173.89,293.25,172.72,293.25z"/>
		</g>
		<g>
			<path class="st4" d="M131.84,367.45c-0.49,0-0.99-0.14-1.43-0.44c-16.04-10.81-14.24-35.57-14.15-36.62
				c0.11-1.42,1.35-2.47,2.77-2.36c1.41,0.11,2.47,1.35,2.36,2.77l0,0c-0.02,0.23-1.63,22.83,11.9,31.95
				c1.18,0.79,1.49,2.39,0.7,3.57C133.48,367.05,132.66,367.45,131.84,367.45z"/>
		</g>
		<g>
			<path class="st4" d="M452.04,293.25c-1.17,0-2.23-0.81-2.5-2c-0.32-1.38,0.55-2.76,1.93-3.08c12.67-2.91,15.66-15.35,15.78-15.88
				c0.32-1.38,1.69-2.25,3.07-1.94c1.38,0.31,2.25,1.68,1.94,3.06c-0.15,0.66-3.77,16.12-19.65,19.76
				C452.42,293.23,452.23,293.25,452.04,293.25z"/>
		</g>
		<g>
			<path class="st4" d="M492.92,367.45c-0.83,0-1.64-0.4-2.13-1.13c-0.79-1.18-0.48-2.78,0.7-3.57
				c13.57-9.14,11.92-31.72,11.9-31.94c-0.11-1.42,0.94-2.66,2.36-2.77c1.42-0.11,2.66,0.94,2.77,2.36
				c0.08,1.05,1.88,25.81-14.15,36.62C493.91,367.31,493.41,367.45,492.92,367.45z"/>
		</g>
		<g>
			<path class="st4" d="M286.74,215.44c-1.02,0-1.99-0.61-2.39-1.62c-5.08-12.78-2.83-22.84-0.05-29.03
				c3.03-6.74,7.3-10.43,7.48-10.59c1.08-0.92,2.7-0.8,3.63,0.28c0.92,1.08,0.8,2.7-0.28,3.62c-0.06,0.05-3.7,3.26-6.22,9
				c-3.36,7.63-3.28,15.98,0.23,24.81c0.52,1.32-0.12,2.81-1.44,3.34C287.38,215.39,287.06,215.44,286.74,215.44z"/>
		</g>
		<g>
			<path class="st4" d="M276.72,268.37c-0.75,0-1.5-0.33-2.01-0.96c-8.95-11.17-8.42-21.61-8.39-22.05c0.09-1.42,1.31-2.5,2.72-2.41
				c1.41,0.09,2.49,1.3,2.41,2.71c0,0.07-0.1,2.3,0.74,5.66c0.78,3.12,2.54,7.88,6.53,12.86c0.89,1.11,0.71,2.73-0.4,3.61
				C277.85,268.19,277.28,268.37,276.72,268.37z"/>
		</g>
		<g>
			<path class="st4" d="M320.37,273.38c-1.78,0-3.54-0.2-5.29-0.61c-13.72-3.2-21.15-17.83-21.46-18.45
				c-0.63-1.27-0.12-2.81,1.15-3.45c1.27-0.63,2.81-0.12,3.45,1.15c0.09,0.17,6.71,13.12,18.05,15.74c6.23,1.44,12.9-0.5,19.82-5.76
				c1.13-0.86,2.74-0.64,3.6,0.49c0.86,1.13,0.64,2.74-0.49,3.6C332.84,270.94,326.52,273.38,320.37,273.38z"/>
		</g>
		<g>
			<path class="st4" d="M355.04,269.88c-0.53,0-1.07-0.16-1.53-0.51c-4.47-3.31-6.97-13.61-7.43-15.64
				c-0.31-1.39,0.56-2.76,1.95-3.07c1.39-0.31,2.76,0.56,3.07,1.94l0,0c0.96,4.28,3.3,11.02,5.47,12.63
				c1.14,0.85,1.38,2.46,0.54,3.6C356.6,269.52,355.82,269.88,355.04,269.88z"/>
		</g>
		<g>
			<path class="st4" d="M337.65,266.62c-0.36,0-0.72-0.08-1.07-0.23c-17.73-8.12-14.5-20.76-14.36-21.3
				c0.37-1.37,1.79-2.18,3.16-1.8c1.36,0.37,2.17,1.77,1.81,3.13c-0.1,0.42-2.03,9.08,11.53,15.29c1.29,0.59,1.86,2.12,1.27,3.41
				C339.56,266.07,338.62,266.62,337.65,266.62z"/>
		</g>
	</g>
	<path class="st14" d="M343.76,581.94c0,0,30.57,96.45-2.37,107.56c0,0,33.84-0.66,42.13-7.26c0,0-14.2-29.78-21.51-102.53
		L343.76,581.94z"/>
	<path d="M215.22,263.53c0,0,22.18-40.45,51.47,1.74C266.69,265.27,245.03,239.92,215.22,263.53z"/>
	<path d="M378.42,261.05c0,0-22.18-40.45-51.47,1.74C326.96,262.78,348.62,237.44,378.42,261.05z"/>
	<path class="st10" d="M295.92,512.6c0,0-11.92,104.23-2.44,178.47L295.92,512.6z"/>
	<g>
		<path class="st10" d="M220.34,601.05c0,0,27.2,4.36,48.57,6.54l-0.21,5.55c0,0-10.8-0.44-28.56-2.65
			c-17.76-2.21-19.93-4.6-19.93-4.6L220.34,601.05z"/>
		<path class="st10" d="M259.46,660.95c0,0-33.41-2.48-40.41-6.49C219.05,654.46,239.16,668.19,259.46,660.95z"/>
		<path class="st10" d="M264.85,658l2.84-36.89C267.69,621.11,271.85,643.68,264.85,658z"/>
	</g>
	<g>
		<path d="M296.81,590.48c-0.1-0.05,0.27,1.1-0.99,2.4c-0.61,0.6-1.63,1.18-2.89,1.15c-1.25-0.02-2.61-0.99-3.22-2.51
			c-0.65-1.5-0.55-3.53,0.67-5.13c0.59-0.8,1.4-1.49,2.35-2.03c0.47-0.27,0.98-0.49,1.52-0.67c0.53-0.17,1.12-0.37,1.49-0.14
			c0.37,0.2,0.51,0.8,0.41,1.32c-0.09,0.52-0.45,1.03-0.88,1.41c-0.89,0.77-2.25,1.05-3.45,0.71c-2.48-0.74-3.72-4.11-2.61-6.76
			c0.5-1.35,1.43-2.59,2.58-3.61c0.56-0.48,1.24-0.88,1.92-0.98c0.67-0.1,1.31,0.26,1.46,0.88c0.15,0.62-0.09,1.41-0.57,1.97
			c-0.45,0.55-1.21,0.88-1.97,0.99c-1.54,0.19-3.25-0.53-4.22-1.83c-0.98-1.32-1.24-3.15-0.86-4.84c0.34-1.72,1.34-3.3,2.94-4.09
			c0.76-0.4,1.66-0.54,2.38-0.24c0.73,0.33,1.2,1.04,1.18,1.88c0,0.83-0.41,1.69-1.07,2.18c-0.65,0.48-1.59,0.6-2.44,0.36
			c-1.78-0.45-2.94-2.24-2.92-4.15c-0.05-1.92,0.89-3.78,2.19-5.33c0.66-0.77,1.36-1.58,2.15-2.14c0.78-0.56,1.78-0.98,2.5-0.69
			c0.76,0.27,0.99,1.23,0.63,2.05c-0.33,0.81-1.22,1.26-2.19,1.3c-1.96,0.07-3.97-1.12-5.13-2.8c-1.21-1.68-1.49-3.95-0.78-5.94
			c0.34-0.99,0.93-1.91,1.68-2.6c0.76-0.68,1.77-1.14,2.7-1.03c1.98,0.1,2.53,3.3,0.93,4.43c-1.59,1.24-4.22,0.66-5.32-1.08
			c-1.23-1.72-1.29-4.05-0.63-6.08c0.32-1.03,0.79-2.02,1.32-2.98c0.53-0.95,1.14-1.84,1.94-2.4c0.79-0.6,1.77-0.7,2.62-0.31
			c0.84,0.37,1.19,1.25,0.77,2.02c-0.4,0.79-1.29,1.22-2.24,1.16c-0.95-0.04-1.9-0.46-2.69-1.05c-1.59-1.18-2.55-3.16-2.41-5.09
			c0.11-1.93,1.22-3.82,2.83-4.72c0.8-0.43,1.78-0.62,2.52-0.29c0.76,0.31,1.15,1.11,1.05,1.97c-0.08,0.84-0.58,1.66-1.31,2
			c-0.75,0.38-1.68,0.37-2.51,0.07c-1.71-0.56-2.76-2.24-3.21-3.98c-0.45-1.76-0.54-3.65-0.11-5.34c0.41-1.66,1.52-3.24,3.08-3.57
			c1.53-0.36,3.43,0.31,3.93,1.69c0.53,1.41-0.65,2.97-2.04,3.4c-1.42,0.47-3.02-0.09-4.19-1.01c-1.17-0.94-2.02-2.23-2.42-3.62
			c-0.83-2.79-0.16-5.85,1.54-7.84c0.85-0.98,1.94-1.76,3.11-2.05c1.16-0.32,2.4,0.01,3.13,0.84c0.78,0.8,0.72,2.04,0.05,2.82
			c-0.64,0.82-1.68,1.17-2.64,1.08c-1.98-0.18-3.52-1.53-4.35-2.92c-0.85-1.42-1.06-2.96-0.86-4.22c0.21-1.26,0.74-2.26,1.26-2.95
			c1.09-1.4,2.04-1.76,1.99-1.82c0,0-0.23,0.07-0.62,0.32c-0.39,0.25-0.96,0.66-1.53,1.37c-0.57,0.7-1.15,1.71-1.41,3.03
			c-0.25,1.31-0.07,2.96,0.81,4.48c0.86,1.49,2.46,2.98,4.67,3.21c1.08,0.11,2.34-0.27,3.11-1.24c0.83-0.9,0.93-2.57-0.04-3.56
			c-0.86-1.02-2.39-1.43-3.73-1.07c-1.35,0.32-2.53,1.16-3.48,2.23c-1.88,2.16-2.62,5.44-1.74,8.49c0.42,1.53,1.35,2.97,2.65,4.03
			c1.29,1.02,3.12,1.73,4.93,1.17c0.87-0.29,1.66-0.86,2.19-1.65c0.54-0.78,0.75-1.86,0.4-2.82c-0.33-0.97-1.17-1.67-2.06-2.02
			c-0.9-0.37-1.9-0.45-2.87-0.25c-2.04,0.45-3.3,2.35-3.77,4.2c-0.48,1.9-0.39,3.88,0.09,5.81c0.46,1.89,1.68,3.94,3.8,4.65
			c1.01,0.36,2.21,0.41,3.25-0.11c1.08-0.52,1.74-1.63,1.86-2.78c0.18-1.13-0.45-2.53-1.64-2.99c-1.16-0.48-2.4-0.19-3.39,0.32
			c-2,1.12-3.22,3.28-3.38,5.54c-0.17,2.29,0.95,4.6,2.81,5.98c0.93,0.69,2.03,1.19,3.26,1.26c1.21,0.1,2.62-0.51,3.22-1.72
			c0.31-0.58,0.41-1.35,0.14-2.01c-0.25-0.67-0.81-1.17-1.4-1.44c-1.16-0.58-2.68-0.36-3.67,0.4c-1.02,0.73-1.69,1.75-2.26,2.75
			c-0.56,1-1.06,2.06-1.41,3.18c-0.72,2.22-0.7,4.93,0.78,7.01c1.38,2.13,4.66,3,6.85,1.3c1.11-0.85,1.53-2.35,1.26-3.63
			c-0.13-0.65-0.41-1.29-0.9-1.79c-0.49-0.5-1.16-0.83-1.84-0.89c-1.38-0.15-2.61,0.49-3.53,1.3c-0.92,0.85-1.58,1.9-1.98,3.05
			c-0.82,2.27-0.49,4.95,0.92,6.89c1.37,1.93,3.6,3.31,6.05,3.24c1.19-0.02,2.58-0.67,3.09-1.93c0.25-0.59,0.34-1.27,0.15-1.93
			c-0.18-0.67-0.72-1.24-1.35-1.49c-1.38-0.48-2.57,0.2-3.47,0.82c-0.94,0.69-1.63,1.51-2.34,2.33c-1.37,1.65-2.46,3.75-2.4,5.99
			c0.02,1.1,0.31,2.24,0.95,3.17c0.65,0.95,1.63,1.61,2.71,1.91c1.08,0.3,2.32,0.18,3.28-0.53c0.93-0.71,1.44-1.83,1.45-2.95
			c0.04-1.14-0.7-2.32-1.77-2.76c-1.1-0.45-2.27-0.19-3.17,0.27c-1.88,0.92-3.05,2.84-3.41,4.73c-0.41,1.9-0.13,3.99,1.05,5.56
			c1.19,1.56,3.15,2.38,5.04,2.15c1.89-0.16,3.68-1.97,3.21-4.01c-0.25-1.05-1.43-1.65-2.36-1.47c-0.94,0.15-1.69,0.63-2.33,1.18
			c-1.23,1.1-2.21,2.43-2.76,3.94c-1.2,2.96,0.14,6.79,3.13,7.67c1.44,0.39,2.99,0.04,4.05-0.88c0.52-0.48,0.93-1.06,1.06-1.79
			c0.11-0.67,0-1.52-0.73-1.95c-0.76-0.37-1.42-0.03-1.96,0.12c-0.57,0.2-1.11,0.44-1.61,0.73c-1,0.58-1.86,1.33-2.49,2.21
			c-1.31,1.75-1.38,4-0.65,5.59c0.69,1.64,2.2,2.67,3.59,2.66c1.38,0,2.44-0.65,3.06-1.31
			C297.25,591.59,296.77,590.41,296.81,590.48z"/>
	</g>
	
		<rect x="290.47" y="500.05" transform="matrix(0.9952 -0.0976 0.0976 0.9952 -51.3533 37.1344)" class="st39" width="126.91" height="86.93"/>
	<path class="st0" d="M322.77,553.46c0,0,6.48-10.13,0.75-14.32c-0.13-0.74-2.52-14.44-3.94-17.53c-1-2.17-2.73,6.45-2.79,13.57
		c-8.99-5.12-24.75-13.57-25.51-10.4c-1.07,4.45,17.25,18.45,17.25,18.45s-31.95,1.61-32.36,7.99c-0.41,6.38,30.7,4.2,30.7,4.2
		s-22.16,10.77-19.44,14.36C290.16,573.37,322.77,553.46,322.77,553.46z"/>
	<path class="st14" d="M244.57,498.17c0,0-23.47,60.38-57.09,45.35c0,0,23.57,25.6,44.6,11.29L244.57,498.17z"/>
	<path class="st9" d="M349.87,442.54c0,0,38.76,4.97,52.09,57.06c9.94,38.84,20.77,80.13-1.6,84.79
		c-25.5,5.32-82.32-23.32-82.32-23.32l8.4-27.41l45.73,8.12l-24.02-54.12C348.15,487.66,351,476.25,349.87,442.54z"/>
	<path class="st10" d="M254.27,474.33c0,0-17.75,44.56-20.95,73.73C233.31,548.06,235.42,503.78,254.27,474.33z"/>
	<path class="st10" d="M353.92,467.98c0,0-5.36,20.61,0,32.69C353.92,500.67,339.52,493.41,353.92,467.98z"/>
	<path class="st10" d="M372.17,541.78c0,0,16.88-3.9,24.41,0C396.58,541.78,378.24,542.86,372.17,541.78z"/>
	<path class="st10" d="M394.5,551.98l-21.98-7.69C372.52,544.29,387.58,542.4,394.5,551.98z"/>
	<path class="st7" d="M157,451.77c0,0,4.47,10.12-1.18,11.54c-5.65,1.41-6.99-1.18-6.99-1.18s2.99,3.3-1.01,5.42
		c-4,2.12-7.78,0-7.78,0s2.96,3.41,0,4c0,0,2.6,3.77,4.72-1.41c0,0,5.69,0.71,6.38-4.24C151.13,465.9,165.95,466.61,157,451.77z"/>
	<path class="st7" d="M169.36,451.77c0,0-14.72,8.67-12.01,13.73c2.71,5.06,9.54,2.47,9.54,2.47l2.15,5.69l-1.68-7.7
		c0,0-7.36,2.85-8.24-1.06C158.24,461,169.36,451.77,169.36,451.77z"/>
	<path class="st10" d="M227.57,533.06L214.67,513C214.67,513,226.78,522.92,227.57,533.06z"/>
	<path class="st10" d="M233.37,524.14l-20.05-12.93C213.32,511.21,228.46,515.23,233.37,524.14z"/>
	<path class="st14" d="M378.23,459.97c0,0,45.12,87.87,22.98,106.1s-83.17-5-83.17-5s61.83,31.92,82.32,23.32
		c0,0,32.03,5.01,0.39-89.14C400.76,495.25,390.89,467.76,378.23,459.97z"/>
	<polygon class="st7" points="254.93,683.49 254.49,692.99 270.56,702.9 271.15,686.74 	"/>
	<polygon class="st7" points="316.96,690.73 322.71,706.03 341.38,708.61 334.16,689.97 	"/>
</g>
</svg>
