<?xml version="1.0" encoding="utf-8"?>
<!-- Generator: Adobe Illustrator 24.0.1, SVG Export Plug-In . SVG Version: 6.00 Build 0)  -->
<svg version="1.1" id="Capa_1" xmlns="http://www.w3.org/2000/svg" xmlns:xlink="http://www.w3.org/1999/xlink" x="0px" y="0px"
	 viewBox="0 0 566.93 566.93" style="enable-background:new 0 0 566.93 566.93;" xml:space="preserve">
<style type="text/css">
	.st0{fill:#F9D6E4;}
	.st1{fill:#45A759;}
	.st2{fill:#15632D;}
	.st3{fill:#F08CA7;}
	.st4{fill:#B52955;}
	.st5{fill:#F6BFD3;}
	.st6{fill:#FFFFFF;}
	.st7{fill:#CD94A9;}
	.st8{fill:#E16874;}
	.st9{fill:#EEEEEE;}
	.st10{fill:#C9C7C7;}
	.st11{clip-path:url(#SVGID_2_);}
	.st12{clip-path:url(#SVGID_2_);fill:#F08CA7;}
	.st13{fill:#CBC9CA;}
	.st14{fill:#E1E0E0;}
	.st15{fill:#B693C3;}
	.st16{fill:#F8DF28;}
	.st17{fill:#65A2D8;}
	.st18{fill:#DEE275;}
	.st19{fill:#FFDB43;}
	.st20{fill:#E75C2A;}
	.st21{fill:#F49D4E;}
	.st22{opacity:0.5;}
	.st23{fill:#F3B0CF;}
	.st24{fill:#704F9A;}
	.st25{fill:#616160;}
	.st26{fill:#5AE4A7;}
	.st27{fill:#FF0000;}
	.st28{fill:#82CEE0;}
	.st29{fill:#9E6D0B;}
	.st30{fill:#828E0C;}
	.st31{fill:#FFFF00;}
	.st32{clip-path:url(#SVGID_4_);}
	.st33{clip-path:url(#SVGID_4_);fill:#F08CA7;}
	.st34{clip-path:url(#SVGID_6_);}
	.st35{clip-path:url(#SVGID_6_);fill:#F08CA7;}
	.st36{fill:none;stroke:#B52955;stroke-width:3;stroke-linecap:round;stroke-linejoin:round;stroke-miterlimit:10;}
</style>
<g>
	<g>
		<g>
			<g>
				<path class="st1" d="M378.29,134.27c-11.21-6.91-20.18-17.28-25.26-28.94c-1.23-2.65-2.14-5.82-0.96-8.52
					c1.91-4.07,8.34-4.62,12.41-2.12c4.07,2.5,6.27,6.97,8,11.28C376.02,115.13,377.95,124.72,378.29,134.27z"/>
				<path class="st1" d="M363.91,162.55c-9.19-9.33-15.23-21.31-17.12-33.75c-0.44-3.01-0.53-6.26,1.29-8.5
					c2.91-3.48,9.36-2.53,12.74,0.85c3.37,3.38,4.39,8.2,4.86,12.7C366.7,143.38,366.18,153.13,363.91,162.55z"/>
				<path class="st1" d="M350.52,180.85c-10.39-7.37-18.29-17.76-22.14-29.12c-0.95-2.68-1.63-5.77-0.13-8.24
					c2.19-3.73,8.63-3.9,12.51-1.22c3.87,2.68,5.6,6.99,6.81,11.25C350.16,162.35,351.13,171.62,350.52,180.85z"/>
				<path class="st1" d="M378.96,131.9c3.25-11.93,10.63-22.71,20.79-30.32c2.34-1.81,5.32-3.53,8.37-3.12
					c4.79,0.76,7.53,6.4,6.33,10.72c-1.24,4.42-4.98,7.62-8.77,10.18C397.58,124.81,388.52,129.18,378.96,131.9z"/>
				<path class="st1" d="M366.24,152.54c7.95-9.72,19.14-16.85,31.69-20.16c3.03-0.71,6.42-1.3,9.09,0.23
					c4.14,2.28,4.44,8.46,1.65,11.98c-2.95,3.59-7.71,5.08-12.31,6.13C386.6,152.86,376.41,153.5,366.24,152.54z"/>
				<path class="st1" d="M349.78,178.73c7.95-9.72,19.14-16.85,31.69-20.16c3.03-0.71,6.42-1.3,9.09,0.23
					c4.14,2.28,4.44,8.46,1.65,11.98c-2.95,3.59-7.71,5.08-12.31,6.13C370.13,179.06,359.95,179.7,349.78,178.73z"/>
				<path class="st1" d="M334.73,217.21c-8.56-9.24-14.03-20.9-15.2-32.73c-0.24-2.81-0.25-5.92,1.77-7.97
					c3.19-3.14,9.53-1.85,12.67,1.44c3.1,3.41,3.8,7.99,4.06,12.31C338.52,199.37,337.4,208.55,334.73,217.21z"/>
				<path class="st1" d="M335.07,211.11c7.95-9.72,19.14-16.85,31.69-20.16c3.03-0.71,6.42-1.3,9.09,0.23
					c4.14,2.28,4.44,8.46,1.65,11.98c-2.95,3.59-7.71,5.08-12.31,6.13C355.42,211.44,345.12,212.04,335.07,211.11z"/>
				<g>
					<path class="st2" d="M383.27,113.74c0.07-0.6-0.84-0.66-0.79-0.02c-5.19,32.51-31.04,55.03-43.58,84.54
						c-6.02,14.22-9.9,29.17-12.27,44.38c-2.56,15.77-4.87,32.37-4.5,48.51c-0.05,2.09,3.08,2.29,3.36,0.27
						c2.52-16.03,2.54-32.54,5.18-48.53c2.67-16.48,6.68-33,13.92-48.05C357.32,168.26,381.93,144.7,383.27,113.74L383.27,113.74z"
						/>
				</g>
				<path class="st1" d="M380.64,122.66c-5.43-14.14-5.99-29.72-1.86-43.84c1.01-3.38,2.62-6.93,5.8-8.46
					c5.06-2.38,11.68,1.61,13.66,6.75c1.98,5.14,0.64,10.65-1.1,15.77C393.38,103.51,387.81,113.67,380.64,122.66z"/>
			</g>
			<g>
				<path class="st15" d="M432.52,79.7c2.19-0.18,4.58,0.57,5.72,2.46c1.13,1.89,0.36,4.79-1.79,5.39c3.84-0.46,7.57,3.05,7.29,6.85
					c-0.28,3.8-4.51,6.81-8.23,5.85c3.06,1.23,5.64,4.12,5.34,7.39c-0.36,3.25-4.62,5.79-7.15,3.73c2.45,3.14,2.35,7.91-0.16,11.01
					c-2.51,3.1-7.22,4.17-10.8,2.5c2.62,2.55,0.89,7.55-2.56,8.87c-3.45,1.32-7.44-0.29-9.91-2.97s-3.71-6.22-4.92-9.64
					c-1.81-5.15-4.4-12.27-6.95-17.06c-9.05-17.02,8.48-9.54,12.92-13.3c4.49-3.74,9.76-6.33,15-8.87
					C428.29,80.91,430.36,79.94,432.52,79.7z"/>
				<path class="st15" d="M424.3,96.56c-6.55-1.77-13.23-3.52-19.1-6.84c-5.93-3.33-11.19-8.38-13.34-14.79
					c-2.01-6.08-1.1-12.65-0.15-18.97c0.65-4.27,1.28-8.66,3.54-12.29c2.26-3.63,6.44-6.48,10.68-5.72
					c4.24,0.76,7.31,6.16,4.85,9.68c3.76-2.8,9.38-2.62,12.96,0.44c3.59,3,4.72,8.54,2.6,12.67c2.47-2.94,7.93-1.01,9,2.71
					c1.08,3.67-1.29,7.68-4.49,9.76c4.04-1.96,9.57,0.56,10.75,4.89c1.18,4.34-2.38,9.27-6.88,9.6c2.56,0.16,4.12,3.39,3.25,5.8
					c-0.87,2.41-3.49,3.86-6.06,4.16C429.36,97.9,426.78,97.21,424.3,96.56z"/>
				<path class="st16" d="M395.4,73.54c-1.03-2.98-0.83-6.24-0.49-9.41c0.29-2.78,0.78-5.67,2.26-8.04
					c1.48-2.37,4.19-4.22,6.95-3.89s5.15,3.37,4.16,6c1.76-2.75,5.81-3.7,8.59-2.04c2.78,1.66,3.84,5.74,2.23,8.53
					c2.03-1.7,5.56-0.23,6.39,2.24c0.82,2.52-0.46,5.36-2.54,7.04c2.87-1.23,6.31,1.71,6.27,4.84c-0.05,3.13-2.74,5.73-5.71,6.7
					c-3.02,0.96-6.22,0.55-9.32,0c-3.86-0.71-7.7-1.65-11.15-3.56C399.66,80.2,396.67,77.28,395.4,73.54z"/>
				<path class="st15" d="M367.01,62.64c3.09,4.94,6.17,9.94,7.98,15.5c1.76,5.54,20.58,8.54,3.86,18.13
					c-4.71,2.69-10.68,7.34-14.96,10.74c-2.85,2.25-5.78,4.59-9.3,5.54s-7.76,0.2-9.97-2.76s-1.02-8.11,2.56-8.87
					c-3.91-0.49-7.33-3.91-7.81-7.87c-0.48-3.96,1.97-8.06,5.72-9.41c-3.24,0.4-5.5-4.02-4.07-6.96c1.48-2.93,5.21-4,8.45-3.41
					c-3.66-1.17-5.63-5.97-3.85-9.33s6.81-4.35,9.82-1.92c-1.49-1.65-0.61-4.52,1.36-5.51c1.97-1,4.39-0.36,6.15,0.96
					C364.64,58.83,365.88,60.75,367.01,62.64z"/>
				<path class="st16" d="M383.32,89.56c-1.1,2.43-11.25,6.71-13.29,8.41c-1.81,1.54-3.74,3.04-6.08,3.62
					c-2.29,0.6-5.02,0.15-6.61-1.68c-1.54-1.81-1.27-5.11,0.86-6.16c-2.65,0.67-5.75-1.09-6.52-3.77s0.93-5.79,3.56-6.58
					c-2.25-0.13-3.62-3.1-2.68-5.18c0.94-2.07,3.4-3.08,5.64-2.89c-2.54-0.9-2.96-4.8-1.11-6.67c1.87-1.92,5.02-1.93,7.43-0.78
					c2.41,1.15,4.19,3.32,5.81,5.45c2.02,2.7,7.04,6.72,8.11,9.94C379.52,86.47,384.65,86.52,383.32,89.56z"/>
				<path class="st16" d="M405.35,93.23c2.66-2.19,9.12-2.93,12.31-4.15c2.53-0.95,5.22-1.85,7.91-1.54
					c2.69,0.31,5.38,2.01,5.95,4.67c0.58,2.6-1.88,5.71-4.54,5.12c2.01,1.04,3.58,3.23,3.27,5.52c-0.31,2.28-3.09,4.09-5.09,2.99
					c1.83,2.09,1.61,5.67-0.5,7.56c-2.11,1.88-5.7,1.71-7.62-0.29c1.26,2.04-0.29,5.01-2.58,5.74c-2.35,0.71-4.93-0.38-6.57-2.12
					c-1.69-1.76-2.53-4.09-3.26-6.38c-0.83-2.55-7.22-11.69-6.86-14.37C398.28,92.64,402.71,95.36,405.35,93.23z"/>
				<path class="st15" d="M393.96,48.29c-0.42-3.36-1.3-7.32-4.45-8.46c-1.82-0.7-4.1-0.02-5.31,1.54c-1.2,1.56-1.25,3.92-0.09,5.53
					c-1.16-2.59-2.36-5.25-4.25-7.36c-1.88-2.11-4.69-3.61-7.5-3.32c-3,0.35-5.6,2.96-5.95,5.98c-0.35,3.03,1.64,6.15,4.48,7.14
					c-1.29-0.55-2.65-1.05-4.05-1.22c-2.5-0.37-4.6,1.69-4.39,4.18c0.89,9.75,6.91,18.61,12.61,26.73c3.29,4.65,7.73,9.93,13.6,8.67
					c2.71-0.55,4.93-2.46,6.21-4.87c2.67-4.85,2.03-10.24,1.37-15.41C395.52,60.95,394.74,54.59,393.96,48.29z"/>
				<path class="st15" d="M392.27,85.26c-1.47-0.71-3.21,0.29-4.54,1.3c-9.38,7.02-18.84,14.14-26.58,22.91
					c-2.14,2.39-4.16,5-5,8.11c-0.84,3.12-0.32,6.74,2.13,8.89c2.41,2.08,6.82,1.85,8.34-1.01c-2.55,4.82-0.89,11.73,3.96,14.17
					c4.91,2.46,11.89-1.09,12.18-6.5c-0.65,4.27,3.93,8.25,8.16,7.45c4.23-0.81,6.91-5.88,5.59-9.97c-0.25,2.88,3.08,5.17,5.94,4.49
					c2.81-0.7,4.75-3.44,5.23-6.31s-0.13-5.77-0.88-8.59c-2.92-11.38-7.21-22.4-12.67-32.77C393.65,86.52,393.14,85.68,392.27,85.26
					z"/>
				<path class="st16" d="M393.88,78.31c-0.15-4.05-0.31-8.04-0.46-12.08c-0.19-4.51-0.34-9.13-1.98-13.38
					c-0.5-1.23-1.2-2.58-2.47-2.94c-1.69-0.49-3.37,0.97-4.17,2.57c-0.8,1.6-1.22,3.42-2.45,4.73c-0.4-2-0.87-4.14-2.25-5.68
					c-1.39-1.54-4-2.18-5.49-0.78c-1.86,1.69-0.81,4.8,0.38,7.03c-0.06-1.79-2.5-2.84-4.12-1.99s-2.21,2.91-1.98,4.69
					c0.28,1.8,1.25,3.39,2.17,4.97c3.65,5.97,7.38,12.08,12.54,16.82c1.21,1.15,2.58,2.17,4.14,2.68c1.57,0.51,3.46,0.31,4.7-0.82
					C393.94,82.67,393.97,80.39,393.88,78.31z"/>
				<path class="st16" d="M391.34,87.13c-7.11,5.44-14.23,10.88-21.29,16.34c-1.18,0.92-2.43,1.87-3.1,3.22s-0.58,3.21,0.57,4.17
					c1.02,0.81,2.55,0.68,3.71,0.04c1.16-0.64,1.98-1.72,2.79-2.74c-1.6,3.37-0.8,7.72,1.9,10.27c2.8,0.41,5.64-2.09,5.57-4.86
					c-0.19,2.06,0.26,4.25,1.53,5.82c1.25,1.62,3.5,2.55,5.49,1.98c1.99-0.57,3.4-2.85,2.76-4.81c0.36,2.73,4.01,4.13,6.48,2.9
					c2.47-1.23,3.67-4.2,3.56-6.98c-0.06-2.76-1.2-5.38-2.31-7.87C396.38,98.82,393.88,93.01,391.34,87.13z"/>
				<circle class="st17" cx="394.05" cy="91.59" r="15.08"/>
			</g>
		</g>
		<g>
			<g>
				<path class="st1" d="M470.62,270.48c-2.09,3.64-4.77,7-8.25,9.38c-3.45,2.37-7.75,3.7-11.9,3.14c1.05-4.1,4.22-7.4,7.96-9.38
					C462.13,271.62,466.39,270.85,470.62,270.48z"/>
				<path class="st1" d="M446.91,257.01c1.62,3.88,2.66,8.04,2.49,12.25c-0.19,4.18-1.74,8.42-4.74,11.35
					c-2.63-3.32-3.32-7.86-2.63-12.03C442.69,264.41,444.67,260.55,446.91,257.01z"/>
				<path class="st1" d="M421.72,271c3.3,2.57,6.28,5.72,8.14,9.45c1.88,3.75,2.59,8.18,1.44,12.22c-3.9-1.6-6.75-5.21-8.19-9.18
					C421.68,279.56,421.51,275.23,421.72,271z"/>
				<path class="st1" d="M467.52,290.61c-3.53,2.27-7.44,4.05-11.62,4.6c-4.15,0.54-8.57-0.21-12.01-2.64
					c2.78-3.16,7.13-4.68,11.35-4.72C459.48,287.8,463.59,289.02,467.52,290.61z"/>
				<path class="st1" d="M461.46,305.87c-3.8,1.79-7.94,3.01-12.11,2.99c-4.2,0-8.48-1.36-11.53-4.22
					c3.19-2.75,7.69-3.67,11.88-3.17C453.9,301.98,457.81,303.76,461.46,305.87z"/>
				<g>
					<path class="st18" d="M462.03,276.12c-4.67,2.04-9.03,4.81-13.27,7.6c-4.6,3-9.05,6.24-13.35,9.64
						c-4.2,3.31-8.25,6.79-12.2,10.4c-4.01,3.71-8.13,7.48-11.55,11.75c-0.54,0.65,0.37,1.5,0.96,0.89
						c3.77-3.7,7.25-7.69,11.07-11.35c3.95-3.75,8.03-7.32,12.29-10.73c4.13-3.31,8.42-6.44,12.81-9.37
						c4.37-2.96,8.98-5.57,13.32-8.59C462.2,276.25,462.14,276.06,462.03,276.12L462.03,276.12z"/>
				</g>
				<g>
					<path class="st18" d="M454.24,290.97c-6.22,0.68-12.35,1.54-18.52,2.45c-0.96,0.14-0.74,1.49,0.21,1.32
						c6.15-1.04,12.26-2.17,18.36-3.44C454.5,291.27,454.41,290.95,454.24,290.97L454.24,290.97z"/>
				</g>
				<g>
					<path class="st18" d="M445.79,272.31c-0.87,2.41-1.19,4.98-1.63,7.47c-0.44,2.56-0.96,5.16-1.22,7.73
						c-0.07,0.74,1.11,0.82,1.27,0.13c0.55-2.47,0.76-5.06,1.11-7.58c0.34-2.55,0.79-5.15,0.69-7.73
						C446.02,272.2,445.83,272.18,445.79,272.31L445.79,272.31z"/>
				</g>
				<g>
					<path class="st18" d="M450.76,303.67c-9.19,0.12-18.35,0.38-27.53,0.74c-0.98,0.04-0.9,1.53,0.04,1.48
						c9.16-0.47,18.33-1.08,27.5-1.83C451.04,304.03,451.03,303.64,450.76,303.67L450.76,303.67z"/>
				</g>
				<g>
					<path class="st18" d="M427.43,283.15c0.74,2.13,1.4,4.31,1.95,6.49c0.62,2.4,0.8,4.84,1.33,7.26c0.16,0.78,1.32,0.54,1.32-0.21
						c0.03-4.67-1.82-9.76-4.08-13.79C427.81,282.61,427.35,282.83,427.43,283.15L427.43,283.15z"/>
				</g>
			</g>
			<g>
				<path class="st18" d="M210.61,209.63c2.11,3.67,3.04,8.16,1.75,12.18c-3.81-1.73-6.75-5.15-8.4-8.99
					c-1.67-3.87-2.16-8.14-1.99-12.33C205.35,203.05,208.54,205.97,210.61,209.63z"/>
				<path class="st18" d="M227.18,214.09c-1.64,3.9-4.64,7.38-8.63,8.79c-0.97-4.08-0.03-8.49,2.03-12.13
					c2.09-3.66,5.19-6.62,8.62-9.04C229.22,205.89,228.83,210.22,227.18,214.09z"/>
				<path class="st18" d="M235.26,236.79c-3.33,2.58-7.66,4.13-11.82,3.41c1.18-4.03,4.13-7.4,7.72-9.58
					c3.56-2.16,7.76-3.24,11.92-3.66C241.01,230.64,238.56,234.22,235.26,236.79z"/>
				<path class="st18" d="M205.74,223.39c3.55,2.28,6.42,5.88,7.09,10.04c-4.21,0.22-8.35-1.49-11.58-4.16
					c-3.24-2.69-5.61-6.28-7.39-10.08C198.05,219.93,202.17,221.08,205.74,223.39z"/>
				<path class="st18" d="M203.17,237.86c3.82,1.8,7.13,4.98,8.38,9c-4.11,0.8-8.45-0.33-12.01-2.56c-3.54-2.2-6.4-5.44-8.66-8.98
					C195.09,235.48,199.35,236.06,203.17,237.86z"/>
				<g>
					<path class="st1" d="M206.24,209.83c-0.07-0.11-0.21,0.02-0.2,0.16c2.07,4.87,4.58,9.53,6.71,14.36
						c2.15,4.82,4.11,9.75,5.85,14.75c1.8,5.15,3.35,10.34,4.7,15.62c1.29,5.13,2.12,10.36,3.33,15.5c0.18,0.83,1.4,0.6,1.29-0.24
						c-0.61-5.44-2.1-10.82-3.52-16.1c-1.42-5.16-3-10.26-4.8-15.3c-1.84-5.16-3.88-10.28-6.18-15.26
						C211.32,218.71,209.11,214.05,206.24,209.83L206.24,209.83z"/>
				</g>
				<g>
					<path class="st1" d="M204.92,226.55c-0.14-0.1-0.38,0.12-0.22,0.25c4.49,4.33,9.06,8.53,13.71,12.69
						c0.71,0.65,1.62-0.37,0.88-1.01C214.56,234.42,209.82,230.43,204.92,226.55L204.92,226.55z"/>
				</g>
				<g>
					<path class="st1" d="M222.01,215.26c0.03-0.13-0.14-0.22-0.21-0.09c-1.46,2.13-2.46,4.57-3.53,6.91
						c-1.04,2.32-2.24,4.62-3.09,7.01c-0.22,0.67,0.81,1.23,1.15,0.56c1.16-2.32,2.1-4.8,3.09-7.2
						C220.36,220.11,221.46,217.76,222.01,215.26L222.01,215.26z"/>
				</g>
				<g>
					<path class="st1" d="M201.11,239.15c-0.22-0.17-0.43,0.16-0.21,0.32c7.36,5.52,14.79,10.91,22.3,16.19
						c0.76,0.55,1.62-0.68,0.82-1.23C216.44,249.24,208.82,244.15,201.11,239.15L201.11,239.15z"/>
				</g>
				<g>
					<path class="st1" d="M231.78,234.2c0.24-0.22-0.04-0.66-0.31-0.49c-4.06,2.21-8.33,5.53-10.8,9.5
						c-0.4,0.63,0.46,1.45,1.01,0.88c1.73-1.77,3.18-3.74,4.99-5.44C228.31,237.1,230.02,235.61,231.78,234.2L231.78,234.2z"/>
				</g>
			</g>
			<g>
				<path class="st1" d="M304.85,218.6c-2.43,2.24-4.76,4.59-7.09,6.94c-2.3,2.32-4.56,4.7-6.44,7.38
					c-0.17,0.24-0.34,0.49-0.51,0.74c0.65-2.73,1.24-5.48,1.75-8.24c0.61-3.28,1.13-6.57,1.56-9.88c0.2-0.44,0.44-0.86,0.69-1.27
					c0.57-0.91,1.22-1.76,1.83-2.64c1.27-1.85,2.35-3.83,3.22-5.89c0.47-1.11,0.97-2.33,1.06-3.54c0.01-0.22-0.29-0.26-0.39-0.09
					c-0.55,0.95-0.89,2.05-1.32,3.06c-0.43,1.03-0.92,2.05-1.45,3.03c-0.53,0.99-1.11,1.95-1.74,2.88c-0.54,0.8-1.12,1.58-1.65,2.39
					c0.53-4.55,0.88-9.11,1.04-13.68c0.09-2.42,0.12-4.84,0.08-7.26c-0.02-1.21-0.05-2.42-0.11-3.63c-0.06-1.17-0.14-2.35-0.35-3.51
					c-0.02-0.1-0.15-0.06-0.16,0.03c-0.1,1.07-0.1,2.16-0.11,3.23c-0.01,1.08-0.01,2.15-0.02,3.23c-0.02,2.15-0.07,4.31-0.15,6.46
					c-0.07,1.9-0.17,3.79-0.3,5.69c-0.09-0.33-0.19-0.66-0.29-0.98c-0.36-1.15-0.75-2.3-1.15-3.44c-0.4-1.14-0.81-2.28-1.24-3.41
					c-0.41-1.08-0.8-2.27-1.46-3.23c-0.08-0.12-0.33-0.08-0.31,0.09c0.19,1.15,0.7,2.26,1.1,3.34c0.43,1.13,0.85,2.26,1.26,3.4
					c0.41,1.14,0.81,2.28,1.21,3.42c0.2,0.57,0.41,1.14,0.61,1.71c0.06,0.16,0.11,0.32,0.16,0.49c-0.14,1.89-0.31,3.78-0.5,5.67
					c-0.17,1.58-0.36,3.16-0.57,4.73c-0.14,0.37-0.23,0.76-0.19,1.14c0,0.03,0.01,0.06,0.02,0.08c-0.42,3.03-0.92,6.04-1.49,9.04
					c-0.01-0.03-0.02-0.07-0.03-0.1c-0.18-0.68-0.39-1.35-0.6-2.02c-0.43-1.34-0.92-2.66-1.4-3.99c-0.94-2.62-1.85-5.26-2.39-7.99
					c-0.15-0.74-0.26-1.48-0.35-2.23c-0.09-0.79-0.09-1.59-0.2-2.38c-0.03-0.22-0.35-0.28-0.41-0.04c-0.15,0.67-0.15,1.39-0.14,2.07
					c0.01,0.68,0.07,1.37,0.16,2.05c0.18,1.38,0.51,2.75,0.9,4.09c0.8,2.74,1.88,5.38,2.82,8.07c0.27,0.76,0.54,1.52,0.79,2.29
					c0.12,0.36,0.23,0.73,0.35,1.09c0.07,0.2,0.13,0.4,0.21,0.59c-0.59,2.94-1.25,5.87-1.99,8.78c-0.06,0.25-0.14,0.5-0.2,0.76
					c-0.08,0.21-0.15,0.42-0.21,0.63c-0.01,0.04,0,0.07,0.02,0.1c-0.47,1.8-0.97,3.6-1.5,5.39c-0.22,0.75-0.46,1.5-0.69,2.25
					c0-0.27,0-0.54-0.01-0.81c-0.05-1.16-0.16-2.31-0.31-3.46c-0.3-2.25-0.78-4.47-1.44-6.64c-0.38-1.24-0.81-2.47-1.53-3.56
					c-0.12-0.18-0.37-0.05-0.33,0.15c0.27,1.4,0.78,2.74,1.18,4.11c0.4,1.37,0.72,2.76,0.98,4.17c0.26,1.41,0.45,2.83,0.56,4.26
					c0.06,0.71,0.09,1.42,0.12,2.14c0.02,0.56-0.01,1.19,0.13,1.74c-0.27,0.86-0.53,1.74-0.65,2.63c-0.04,0.25,0.29,0.41,0.43,0.17
					c0.54-0.94,0.88-1.98,1.23-3c0.35-1.02,0.66-2.05,0.98-3.08c0.64-2.08,1.24-4.17,1.79-6.27c0.2-0.75,0.39-1.51,0.58-2.27
					c0.42-0.69,0.86-1.37,1.32-2.03c0.93-1.32,1.95-2.58,3.02-3.78c2.18-2.46,4.57-4.71,6.88-7.04c1.29-1.3,2.49-2.64,3.54-4.14
					C305.16,218.63,304.96,218.51,304.85,218.6z"/>
				<path class="st19" d="M287.65,230.87c-0.12-1.2-0.35-2.4-0.73-3.54c-0.36-1.09-0.81-2.26-1.47-3.2c-1.09-1.57-2.9-2.01-4.6-1.16
					c-1.27,0.63-1.92,1.99-2.3,3.29c-0.56,1.9-0.51,4.03,0.17,5.9c0.46,1.26,1.09,2.28,1.97,3.28c0.41,0.47,0.91,0.97,1.46,1.27
					c0.19,0.1,0.39,0.18,0.58,0.26c0.44,0.18,0.78,0.35,1.27,0.31c0.21-0.03,0.42-0.07,0.62-0.1c0.65-0.3,0.74-0.34,0.26-0.11
					c0.4-0.08,0.72-0.31,0.95-0.62c0.06-0.03,0.12-0.05,0.17-0.09c0.75-0.47,1.24-1.18,1.5-2.02
					C287.82,233.26,287.76,231.97,287.65,230.87z"/>
				<path class="st19" d="M309.9,215.94c-0.71-1-1.94-1.61-3.18-1.44c-1.81,0.26-3.2,1.47-4.54,2.62c-0.62,0.53-1.2,1.1-1.75,1.7
					c-0.06,0.04-0.12,0.07-0.18,0.11c-0.64,0.46-1.22,0.98-1.72,1.58c-1,1.2-1.99,2.69-2.38,4.23c-0.34,1.38,0.3,2.91,1.6,3.53
					c1.06,0.5,2.17,0.45,3.29,0.2c1.44-0.32,2.84-1.2,3.99-2.11c1.16-0.91,2.2-1.9,3.07-3.09c0.93-1.26,1.91-2.71,2.26-4.27
					C310.61,217.99,310.53,216.82,309.9,215.94z"/>
				<path class="st19" d="M290.66,209.95c-0.28-2.37-0.86-4.88-1.85-7.06c-0.67-1.47-2.12-2.47-3.77-1.99
					c-1.59,0.46-1.92,2.14-2.27,3.52c-0.64,2.56-0.92,5.18-0.35,7.78c0.26,1.19,0.72,2.52,1.45,3.5c0.43,0.58,0.9,1.09,1.49,1.51
					c0.34,0.24,0.66,0.46,1.07,0.57c0.12,0.03,0.26,0.06,0.4,0.07c0.79,0.41,1.81,0.39,2.57-0.39c0.88-0.91,1.12-2.5,1.26-3.72
					C290.79,212.47,290.81,211.22,290.66,209.95z"/>
				<path class="st19" d="M306.5,198.21c-0.44-1.42-1.9-2.38-3.39-1.92c-1.05,0.32-1.86,1.17-2.57,1.97
					c-0.64,0.72-1.22,1.51-1.73,2.33c-0.57,0.91-1,1.87-1.38,2.86c-0.18,0.46-0.33,0.93-0.43,1.41c-0.15,0.74-0.08,1.35,0.05,2.07
					c0.01,0.05,0.03,0.09,0.04,0.14c0,0,0,0.01,0,0.01c0.01,0.02,0.01,0.05,0.02,0.07c0.02,0.08,0.05,0.17,0.09,0.24
					c0.44,0.95,1.38,1.26,2.35,1.06c0.43-0.08,0.84-0.3,1.23-0.48c0.4-0.18,0.79-0.38,1.16-0.62c0.74-0.48,1.45-1.07,2.04-1.74
					c1.15-1.28,2.03-2.89,2.44-4.57C306.66,200.14,306.79,199.13,306.5,198.21z"/>
				<path class="st19" d="M293.45,194.43c-0.09-0.77-0.24-1.54-0.5-2.26c-0.26-0.73-0.6-1.46-1.04-2.11
					c-0.47-0.71-1.04-1.44-1.76-1.9c-1.19-0.77-2.77-0.23-3.3,1.06c-0.32,0.78-0.48,1.5-0.56,2.34c-0.13,1.41,0.25,2.77,0.9,4.01
					c0.35,0.66,0.83,1.31,1.39,1.8c0.32,0.27,0.66,0.56,1.04,0.72c0.25,0.11,0.52,0.24,0.79,0.3c0.38,0.09,0.74,0.02,1.11-0.06
					c0.51-0.11,0.88-0.57,1.02-1.09C293.46,196.63,293.56,195.43,293.45,194.43z"/>
				<g>
					<path class="st19" d="M298.72,175.48c-2.58-1.4-4.76,1.22-5.83,3.28c-0.89,1.71-1.3,3.7-1.23,5.62
						c0.04,1.18,0.27,2.43,0.82,3.48c0.31,0.6,0.73,1.1,1.27,1.49c0.02,0.01,0.05,0.03,0.08,0.05c0.32,0.2,0.62,0.32,1,0.32
						c0.08,0,0.16-0.02,0.23-0.03c0.65,0.15,1.38,0,1.94-0.52c0.5-0.48,0.68-1.14,0.93-1.77c0.22-0.56,0.43-1.13,0.63-1.7
						c0.35-1,0.67-2.02,0.97-3.04C300.15,180.39,301.39,176.93,298.72,175.48z"/>
					<path class="st20" d="M293.77,189.38c-0.01-0.01-0.02-0.02-0.03-0.02C293.51,189.21,293.7,189.32,293.77,189.38z"/>
				</g>
			</g>
			<g>
				<g>
					<path class="st18" d="M388.14,222.69c-11.44,12.97-20.49,29.54-24.5,46.39c-0.14,0.63,0.89,0.94,1.09,0.33
						c2.73-8.13,5.63-16.08,9.48-23.75c4.02-8.03,9.03-15.41,14.41-22.57C388.87,222.76,388.39,222.36,388.14,222.69L388.14,222.69z
						"/>
				</g>
				<path class="st18" d="M374.78,208.69c-1.49,0.65-2.36,2.28-2.53,3.88c-0.18,1.6,0.24,3.21,0.7,4.78
					c1.79,5.92,4.54,11.54,8.06,16.61c2.68-6.68,3.93-14.46,0.88-21.01c-0.64-1.4-1.51-2.72-2.74-3.62
					C377.88,208.45,376.2,208.08,374.78,208.69z"/>
				<path class="st18" d="M387.88,231.49c3.03-0.88,6.11-1.74,9.25-1.49c1.35,0.09,2.81,0.51,3.62,1.58
					c1.03,1.39,0.57,3.5-0.59,4.79c-1.36,1.58-3.49,2.3-5.55,2.41c-2.08,0.1-4.13-0.32-6.16-0.74c-3.33-0.71-6.66-1.42-10-2.13
					C380.99,233.51,384.5,232.47,387.88,231.49z"/>
				<path class="st18" d="M364.63,221.61c-1.37-0.27-2.85-0.31-4.16,0.18c-1.33,0.48-2.47,1.57-2.83,2.92
					c-0.51,1.91,0.64,3.96,2.27,5.1c1.63,1.14,3.62,1.55,5.57,1.89c1.95,0.34,3.97,0.67,5.65,1.7c2.71,1.62,4.18,4.69,5.48,7.57
					c-0.1-4.11-0.79-8.26-2.73-11.88C371.98,225.45,368.65,222.45,364.63,221.61z"/>
				<path class="st18" d="M392.78,243.02c1.61,0.66,3.23,1.58,4.15,3.07c0.92,1.49,0.92,3.63-0.36,4.84
					c-1.5,1.37-3.84,0.91-5.72,0.22c-2.9-1.06-5.61-2.56-8.46-3.67c-2.85-1.14-5.96-1.92-9-1.49
					C378.68,241.65,386.39,240.47,392.78,243.02z"/>
				<path class="st21" d="M392.8,205.2c1.47,0.12,2.67,1.43,3.03,2.88c0.37,1.42,0.09,2.97-0.37,4.36
					c-1.39,4.52-4.32,8.58-8.19,11.34c-2.69-4.92-5.48-10.11-5.45-15.74c0.01-1.64,0.53-3.61,2.1-4.07c1.09-0.33,2.27,0.27,3,1.11
					c0.74,0.85,1.08,1.97,1.42,3.03C389.49,206.67,390.95,205.06,392.8,205.2z"/>
				<path class="st21" d="M406.3,220.43c0.56,1.38-0.08,3.03-1.22,4c-1.11,0.98-2.61,1.39-4.07,1.66c-4.68,0.78-9.61,0.01-13.8-2.2
					c3.18-4.63,6.55-9.46,11.57-11.95c1.47-0.72,3.45-1.14,4.59,0.03c0.77,0.83,0.81,2.15,0.37,3.18c-0.44,1.04-1.25,1.87-2.08,2.64
					C403.49,218.14,405.6,218.72,406.3,220.43z"/>
				<path class="st21" d="M401.84,236.17c-0.76,1.26-2.45,1.75-3.9,1.46c-1.46-0.29-2.68-1.22-3.77-2.21
					c-3.49-3.22-5.85-7.62-6.67-12.28c5.62-0.3,11.49-0.55,16.52,1.91c1.48,0.72,3.01,2.04,2.77,3.66c-0.19,1.12-1.21,1.94-2.31,2.2
					c-1.08,0.3-2.24,0.13-3.36-0.03C401.96,232.56,402.8,234.57,401.84,236.17z"/>
				<path class="st19" d="M387.27,223.78c0,0-2.15-6.29,0.37-5.41c2.49,0.88,2.55,2.5,2.55,2.5s1.21-2.62,2.31-4.5
					c1.13-1.87,3.83-1.42,2.52,1.42s-3.02,3.12-2.34,3.95s5.15-3.18,5.54-1.69c0.39,1.49,0.41,3.1-2.02,3.85
					c-2.46,0.74-3.11-0.09-2.46,0.74c0.68,0.84,3.28,1.5,2.58,3.56c-0.69,2.05-0.99,2.73-3,0.74c-2.01-1.97,1,1.27-0.81,1.22
					C390.73,230.07,387.27,223.78,387.27,223.78z"/>
			</g>
			<g class="st22">
				<path class="st23" d="M252.66,253.18c-0.28-0.08-0.53-0.24-0.73-0.48c-0.18-0.22-4.41-5.57-7.08-17.05
					c-2.43-10.46-3.97-28.29,2.51-53.85c5.14-20.29,6.39-33.55,6.4-33.68c0.07-0.8,0.78-1.39,1.58-1.32
					c0.8,0.07,1.39,0.78,1.32,1.58c-0.01,0.13-1.28,13.59-6.48,34.13c-3.48,13.72-6.74,33.92-2.55,52.24
					c2.5,10.92,6.53,16.06,6.57,16.11c0.5,0.63,0.4,1.54-0.23,2.05C253.59,253.23,253.1,253.31,252.66,253.18z"/>
			</g>
			<g class="st22">
				<path class="st23" d="M373.29,292.17c-0.52-0.15-0.94-0.59-1.03-1.17c-0.13-0.79,0.41-1.54,1.21-1.67
					c0.18-0.03,9.83-1.7,20.34-9.56c6.19-4.62,11.46-10.45,15.68-17.33c5.29-8.63,8.93-18.94,10.81-30.66
					c3.41-21.19,12.52-32.36,12.91-32.83c0.51-0.62,1.43-0.7,2.05-0.19c0.62,0.51,0.7,1.43,0.19,2.05
					c-0.09,0.11-9,11.08-12.27,31.43c-1.95,12.14-5.74,22.84-11.26,31.81c-4.43,7.2-9.98,13.31-16.49,18.15
					c-11.11,8.26-21.07,9.93-21.49,10C373.7,292.24,373.49,292.23,373.29,292.17z"/>
			</g>
			<path class="st19" d="M422.27,137.89c-0.79,4.13-2.22,8.17-4.69,11.58c-2.47,3.38-6.1,6.05-10.22,6.85
				c-0.36-4.22,1.57-8.39,4.45-11.48C414.66,141.73,418.45,139.6,422.27,137.89z"/>
			<path class="st19" d="M264.9,78.89c2.83,3.11,5.21,6.67,6.46,10.7c1.23,4,1.19,8.51-0.64,12.28c-3.59-2.24-5.77-6.28-6.53-10.45
				C263.41,87.28,263.97,82.97,264.9,78.89z"/>
			<path class="st19" d="M305.53,97.49c-2.85,3.12-6.85,5.39-11.09,5.37c0.46-4.17,2.82-8.01,5.99-10.74
				c3.2-2.74,7.11-4.49,11.16-5.62C310.21,90.45,308.39,94.4,305.53,97.49z"/>
			<path class="st19" d="M186.6,136.28c3.81,1.77,7.39,4.13,10.1,7.36c2.68,3.21,4.39,7.39,4.16,11.57
				c-4.18-0.67-7.76-3.56-10.06-7.1C188.48,144.59,187.33,140.4,186.6,136.28z"/>
			<path class="st19" d="M198.75,111.32c2.64,3.27,4.81,6.96,5.83,11.05c0.99,4.07,0.69,8.57-1.36,12.23
				c-3.46-2.45-5.4-6.61-5.91-10.81C196.78,119.61,197.59,115.34,198.75,111.32z"/>
			<path class="st19" d="M208.1,79.84c4.15,0.67,8.23,1.98,11.71,4.35c3.45,2.37,6.23,5.92,7.14,10.02
				c-4.21,0.48-8.43-1.33-11.61-4.12C212.16,87.33,209.92,83.61,208.1,79.84z"/>
			<path class="st19" d="M240.19,67.51c2.13,3.63,3.72,7.61,4.11,11.8c0.37,4.17-0.6,8.57-3.17,11.88
				c-3.05-2.94-4.35-7.34-4.22-11.57C237,75.42,238.44,71.32,240.19,67.51z"/>
			<path class="st19" d="M504.57,235.9c-3.84,1.78-8.4,2.31-12.3,0.66c2.04-3.67,5.71-6.29,9.69-7.58c4.01-1.29,8.3-1.39,12.47-0.86
				C511.61,231.22,508.41,234.15,504.57,235.9z"/>
			<path class="st19" d="M512,211.84c-2.67,3.28-6.52,5.77-10.75,6c0.21-4.19,2.35-8.16,5.36-11.07c3.04-2.92,6.84-4.9,10.82-6.26
				C516.26,204.54,514.68,208.59,512,211.84z"/>
			<path class="st19" d="M514.67,173.72c-4.18,0.67-8.71-0.05-12.02-2.69c2.95-2.98,7.19-4.51,11.38-4.68
				c4.21-0.16,8.36,0.91,12.23,2.55C522.71,171.12,518.84,173.08,514.67,173.72z"/>
			<path class="st19" d="M501.99,153.38c-2.14,3.65-5.59,6.69-9.73,7.55c-0.42-4.17,1.11-8.42,3.64-11.75
				c2.56-3.34,6.03-5.87,9.76-7.81C505.11,145.53,504.15,149.77,501.99,153.38z"/>
			<path class="st19" d="M292.12,67.53c1.17,4.04,1.74,8.28,1.09,12.45c-0.66,4.13-2.68,8.17-5.98,10.75
				c-2.24-3.59-2.42-8.18-1.26-12.25C287.09,74.41,289.49,70.79,292.12,67.53z"/>
			<path class="st19" d="M438.53,123.63c2.83,3.11,5.21,6.67,6.46,10.7c1.23,4,1.19,8.51-0.64,12.28
				c-3.59-2.24-5.77-6.28-6.53-10.45C437.04,132.03,437.6,127.72,438.53,123.63z"/>
			<path class="st19" d="M479.16,142.23c-2.85,3.12-6.85,5.39-11.09,5.37c0.46-4.17,2.82-8.01,5.99-10.74
				c3.2-2.74,7.11-4.49,11.16-5.62C483.83,135.19,482.02,139.14,479.16,142.23z"/>
			<path class="st19" d="M465.74,112.27c1.17,4.04,1.74,8.28,1.09,12.45c-0.66,4.13-2.68,8.17-5.98,10.75
				c-2.24-3.59-2.42-8.18-1.26-12.25C460.72,119.15,463.12,115.53,465.74,112.27z"/>
			<g>
				<path class="st21" d="M241.16,161.36c-5.82,4.99-15.92,3.36-19.89-3.17c-3.98-6.53-0.71-16.23,6.32-19.12
					c-4.77-0.97-9.18-4.13-10.98-8.62c-1.8-4.49-0.54-10.26,3.43-13.08c3.98-2.83,10.29-1.82,12.7,2.45
					c-2.26-3.14-2.58-7.88-0.04-10.85c2.54-2.97,8.18-2.9,10.02,0.53c-1.3-5.29,4.77-10.48,10.05-9.16
					c5.28,1.32,8.34,7.52,7.14,12.83c2.46-5.02,9.61-6.93,14.24-3.84c4.63,3.09,5.53,10.48,1.85,14.61
					c4.98-3.48,13.09,0.14,14.06,6.14c0.96,6-5.25,11.89-11.27,10.83c5.63,3.84,6.99,12.66,2.7,17.95
					c-4.26,5.44-13.19,6.03-18.17,1.36c0.17,5.71-4.76,11.15-10.51,11.45C247.12,171.97,241.58,167.14,241.16,161.36z"/>
				<circle class="st4" cx="251.12" cy="136.62" r="12.55"/>
			</g>
			<g>
				<path class="st24" d="M472.54,165.73c-1.1,6.62-4.66,12.74-9.84,16.97c10.14,0.43,20.15,3.94,28.36,10
					c-7.25,4.44-14.49,8.96-21.74,13.4c3.99,1.72,6.87,6.12,9.77,9.76c-6.7,2.25-10.32,0.69-17.34,0.57c4.78,3,6.45,3.77,9.6,8.34
					c-10.52,3.64-22.94,0.28-30.97-7.51c-8.03-7.79-11.65-19.54-10.59-30.66c1.12-11.09,6.69-21.54,14.61-29.41
					c2.25,5.85,3.29,12.15,2.9,18.38C454.1,169.21,463.33,165.66,472.54,165.73z"/>
				<g>
					<path class="st15" d="M492.16,178.05c-22.15,2.64-43.09,11.92-59.98,26.52c-1.03,0.88,0.19,2.59,1.22,1.71
						c16.54-14.43,37.14-24.01,58.87-27.31C492.86,178.89,492.72,178.03,492.16,178.05L492.16,178.05z"/>
				</g>
				<g>
					<path class="st15" d="M489.84,203.95c-19.16,0.4-38.33,1.17-57.53,1.86c-1.17,0.02-0.96,1.85,0.15,1.8
						c19.13-0.95,38.29-1.82,57.4-3.1C490.28,204.47,490.22,203.97,489.84,203.95L489.84,203.95z"/>
				</g>
				<g>
					<path class="st15" d="M484.38,194.57c-8.83,0.18-17.77,2.07-26.38,3.93c-4.04,0.87-8.05,1.84-11.99,2.93
						c-2.08,0.59-4.16,1.18-6.23,1.77c-2.29,0.68-4.8,1.23-6.91,2.34c-0.71,0.39-0.62,1.68,0.38,1.56c3.98-0.68,7.92-2.47,11.8-3.59
						c4.1-1.22,8.28-2.31,12.47-3.31c8.87-2.16,17.93-3.27,26.83-5.11C484.75,194.96,484.7,194.55,484.38,194.57L484.38,194.57z"/>
				</g>
				<g>
					<path class="st15" d="M462.7,158.01c-2.52,3.55-4.72,7.45-7.02,11.14c-2.69,4.29-5.46,8.6-8.36,12.75
						c-5.38,7.88-11.11,15.46-17.13,22.77c-0.97,1.15,0.8,2.6,1.77,1.45c6.06-7.37,11.67-15.02,16.95-22.97
						c5.2-7.84,10.83-16.1,14.38-24.85C463.4,158,462.95,157.63,462.7,158.01L462.7,158.01z"/>
				</g>
				<g>
					<path class="st15" d="M474.96,219.15c-14.8-3.97-29.24-8.41-43.23-14.72c-1.2-0.54-2.1,1.35-0.87,1.83
						c13.96,6.13,28.89,11.34,43.92,13.77C475.43,220.22,475.56,219.3,474.96,219.15L474.96,219.15z"/>
				</g>
				<g>
					<path class="st15" d="M439.58,173.91c-3.32,4.19-5.1,9.84-6.47,14.97c-1.56,5.78-2.15,11.73-1.98,17.71
						c0.06,1.58,2.54,1.33,2.48-0.26c-0.16-5.5,0.29-11,1.43-16.37c1.15-5.51,3.52-10.39,5.35-15.62
						C440.48,173.95,439.91,173.51,439.58,173.91L439.58,173.91z"/>
				</g>
				<g>
					<path class="st15" d="M470.38,219.2c-0.38,2.15,1.17,4.3,3.31,4.68c2.15,0.38,4.3-1.17,4.68-3.31c0.38-2.15-1.17-4.3-3.31-4.68
						C472.91,215.51,470.75,217.06,470.38,219.2L470.38,219.2z"/>
				</g>
				<g>
					<path class="st15" d="M486.28,203.36c-0.36,2.24,1.19,4.39,3.39,4.81c2.24,0.36,4.39-1.19,4.81-3.39
						c0.36-2.24-1.19-4.39-3.39-4.81C488.89,199.56,486.7,201.16,486.28,203.36L486.28,203.36z"/>
				</g>
				<g>
					<path class="st15" d="M485.24,191.2c-0.71-0.46-0.95-0.69-1.78-0.84c-0.83-0.15-1.17,0.02-1.98,0.19
						c-0.25,0.15-0.59,0.32-0.84,0.46c-0.53,0.35-0.94,0.86-1.24,1.44c-0.54,1.2-0.41,2.67,0.35,3.77c1.16,1.67,3.54,2.05,5.22,0.89
						c0.82-0.55,1.38-1.43,1.55-2.4c0.13-0.69,0.05-1.28-0.19-1.98C486.1,192.14,485.72,191.66,485.24,191.2L485.24,191.2z"/>
				</g>
				<g>
					<path class="st15" d="M487.96,177.51c-0.34,2.09,1.07,4.09,3.13,4.49c2.09,0.34,4.09-1.07,4.49-3.13
						c0.34-2.09-1.07-4.09-3.13-4.49C490.3,174,488.3,175.42,487.96,177.51L487.96,177.51z"/>
				</g>
				<g>
					<path class="st15" d="M458.49,156.99c-0.85,5.16,7.14,6.53,7.99,1.37C467.38,153.15,459.38,151.78,458.49,156.99L458.49,156.99
						z"/>
				</g>
				<g>
					<path class="st15" d="M444.01,174.45c0,0,0.04-0.05-0.02-0.09c0.15-0.83,0.06-1.66-0.26-2.48c-0.13-0.39-0.35-0.77-0.61-1.09
						c0.39,0.48-0.62-0.71-0.86-0.94c-1.37-1.11-3.23-1.46-4.93-0.86c-1.65,0.64-2.88,2.08-3.16,3.83s0.38,3.49,1.71,4.65
						c1.37,1.11,3.28,1.5,4.93,0.86c0.82-0.32,1.52-0.8,2.03-1.47C443.52,176.06,443.86,175.28,444.01,174.45L444.01,174.45z"/>
				</g>
				<path class="st17" d="M429.7,188.77c0,0-2.38,11.12-1.18,19.69c1.16,8.62,20.54,14.61,20.54,14.61L429.7,188.77z"/>
			</g>
		</g>
	</g>
	<g>
		<path class="st3" d="M388.19,511.74c0,0-0.02-0.04-0.05-0.1C387.43,511.29,388.19,511.74,388.19,511.74z"/>
		<path class="st3" d="M530.06,450.54c-2.53-5.46-6.09-10.4-10.38-14.59c9.29-28.85-7.38-65.34-38.4-71.51
			c1.04-19.02-6.63-38.53-22.53-49.84c-6.05-4.3-13.05-6.88-20.42-7.7c-0.56-0.06-1.03,0.04-1.4,0.25
			c-1.25-1.37-1.62-2.64-1.62-2.64s-4.36-8.93-17.72-17.1c-13.36-8.16-28.43-3.88-33.19-2.66c-0.53,0.14-0.99,0.21-1.41,0.25
			c-7.59-30.76-44.65-46.47-73.43-36.7c-8.48,2.88-16.19,7.58-22.93,13.42c-22.53-9.87-49.41-2.73-63.39,17.84
			c-0.25,0.37-0.39,0.75-0.43,1.1c-1.39,0.33-2.4,0.29-2.4,0.29s0.7-2.04-18.19,2.71c-18.89,4.75-23.44,21.73-25.24,26.45
			c-0.15,0.38-0.31,0.73-0.49,1.04c-0.52-0.35-1.18-0.52-1.95-0.37c-26.24,5.11-43.79,30.67-39.59,56.89
			c-25.44,10.2-39.2,36.73-39.65,63.25c0,0-0.01,0.01-0.01,0.01c-15.89,15.36-21.12,38.92-12.18,59.28
			c7.93,18.06,25.75,30.28,45.1,32.84c13.48,1.78,27.25-1.03,38.94-7.97c0.48-0.29,0.81-0.66,1-1.06c0.73,0.18,1.17,0.38,1.17,0.38
			s10.55,3.3,19.2,4.6c8.65,1.3,20.25,1.15,28.67-4.15c8.42-5.3,10.47-0.78,10.47-0.78s9.99,6.8,17.74,12.05
			c7.75,5.25,19.57,4.58,26.16,3.39c6.59-1.19,22.77-7.32,27.44-13.99c4.67-6.67,6.6-1.59,6.6-1.59s6.23,6.46,20.85,12.51
			c14.62,6.04,28.37,1.94,35.53,0c7.16-1.94,16.84-8.32,20.82-13.32c3.58-4.49,5.07-2.03,5.33-1.48c0.65,0.31,2.53,1.29,7.35,3.88
			c10.09,5.42,23,6.19,33.9,5.05c10.9-1.14,20.5-4.73,23.59-7.63c0.84-0.79,1.63-1.29,2.43-1.54c-0.05,0.83,0.28,1.68,1.15,2.27
			c19.37,13.03,45.7,10.91,62.63-5.17C534.79,493.69,539.09,470,530.06,450.54z"/>
	</g>
	<g>
		<path class="st3" d="M139.13,345.39c0,0,3.11-14.11,14.13-21.18c11.02-7.07,17.52-9.49,17.52-9.49s4.41,0.53,6.21-4.2
			c1.8-4.72,6.34-21.7,25.24-26.45s18.19-2.71,18.19-2.71s5.32,0.23,8.22-4.32c2.9-4.55,13.99-14.99,28.1-16.12
			c14.11-1.13,27.06,2.75,27.06,2.75s2.27,3.48,9.58-2.96c7.31-6.44,18.45-12.91,35.83-11.83c17.38,1.08,28.12,4.9,35.66,12.69
			c7.55,7.79,13.95,17.03,13.95,17.03l0.88,4.48c0,0-0.04,3.29,4.71,2.07c4.76-1.22,19.83-5.51,33.18,2.66
			c13.36,8.16,17.72,17.1,17.72,17.1s1.19,4.05,6.39,5.45c5.2,1.39,24.99,8.43,31.02,24.89c6.04,16.46,6.08,23.38,6.08,23.38
			l0.07,4.86c0,0,0.04,2.25,4.52,4.46c4.48,2.21,20.39,5.75,28.55,22.61c8.16,16.87,9.05,26.46,7.87,33.17
			c-1.17,6.71-4.13,13.05-1.5,14.85c2.63,1.81,14.49,16.78,13.95,32c-0.54,15.22-5.95,26.05-11.27,32.68
			c-5.32,6.63-12.39,13.24-25.34,15.63c-12.94,2.39-28.66-0.58-32.91-4.07c-4.25-3.49-6.69-4.37-9.78-1.47
			c-3.09,2.9-12.69,6.48-23.59,7.63c-10.9,1.14-23.82,0.37-33.9-5.05c-10.08-5.42-7.3-3.78-7.3-3.78s-1.4-3.62-5.38,1.38
			c-3.98,5-13.66,11.38-20.82,13.32c-7.16,1.94-20.91,6.04-35.53,0c-14.62-6.04-20.85-12.51-20.85-12.51s-1.92-5.08-6.6,1.59
			c-4.67,6.67-20.85,12.79-27.44,13.99c-6.59,1.19-18.41,1.86-26.16-3.39c-7.75-5.25-19.79-16.57-28.21-11.27
			c-8.42,5.3-20.02,5.46-28.67,4.15c-8.65-1.3-19.2-4.6-19.2-4.6s-4.59-2.08-8.39,1.12c-3.81,3.2-32.49,10.82-49.43,0
			c-16.94-10.83-27.14-21.8-29.53-37.65c-2.39-15.84,0.68-25.02,5.01-31.82c4.33-6.8,6.97-10.04,6.97-10.04s3.4-2.56,3.94-8.39
			s3.13-28.42,14.33-39.51c11.2-11.09,18.68-15.81,18.68-15.81s6.84-0.65,6.39-6.16C136.85,361.04,138.75,349.02,139.13,345.39z"/>
		<g>
			<path class="st4" d="M393.55,482.54c3.27-1.66,6.78-1.69,10.31-0.96c3.71,0.77,7.77,2.21,10.47,4.98
				c5.44,5.6,5.72,14.19,5.41,21.5c-0.1,2.5,3.77,2.99,3.88,0.48c0.36-8.76-0.22-18.65-6.95-25.13c-3.23-3.11-7.71-4.69-12.02-5.64
				c-4.24-0.94-8.72-0.81-12.65,1.18C389.77,480.08,391.29,483.68,393.55,482.54L393.55,482.54z"/>
		</g>
		<g>
			<path class="st4" d="M200.85,503.29c-1.66-3.27-1.69-6.78-0.96-10.31c0.77-3.71,2.21-7.77,4.98-10.47
				c5.6-5.44,14.19-5.72,21.5-5.41c2.5,0.1,2.99-3.77,0.48-3.88c-8.76-0.36-18.65,0.22-25.13,6.95c-3.11,3.23-4.69,7.71-5.64,12.02
				c-0.94,4.24-0.81,8.72,1.18,12.65C198.39,507.06,201.99,505.54,200.85,503.29L200.85,503.29z"/>
		</g>
		<circle class="st0" cx="306.94" cy="423.96" r="104.92"/>
		<path class="st3" d="M360.51,338.97c-0.71-1.37-2.06-1.53-3.14-1.01c-1.3-3.09-2.48-6.12-2.33-6.87c0.32-1.62-0.43-5.04-0.43-5.04
			s-11.97,0.71-16.27,0c-4.3-0.71-20.01-5.28-22.53-7.01c-2.53-1.72-4.52-3.24-6.23,0c-1.71,3.24-3.86,6.21-13.21,11.87
			c-9.35,5.66-13.03,7.73-16.36,7.82c-3.33,0.09-11.26-1.09-11.26-1.09s-0.03-0.01-0.08-0.01c-0.75-2.39-4.92-2.1-5,0.87
			c-0.39,14.55,6.09,31.91,21.3,36.25c8.83,2.52,22.26,1.51,24.74-9.28c0.04-0.17,0.07-0.34,0.11-0.52
			c1.37,0.35,2.76,0.63,4.16,0.83c6.12,0.86,13.06,0.2,18.03-3.81c1.25-1.01,2.26-2.21,3.06-3.53c4.74,3.27,10.56,5.38,16.36,4.34
			c6.72-1.21,11.22-6.85,11.58-13.55C363.19,345.62,362.15,342.13,360.51,338.97z"/>
		<path class="st3" d="M224.52,363.11c0,0,27.49,17.81,59.39-15.6c0,0,31.81-32.97-7.67-33.41
			C236.78,313.67,222.48,346.18,224.52,363.11z"/>
		<path class="st3" d="M347.05,346.51c0,0,5.7,34.58,50.6,34.72c0,0,27.72-32.41,2.77-53.96S347.05,320.43,347.05,346.51z"/>
		<path class="st3" d="M328.09,297.11l-31.71,33.8c0,0-7.84,12.16-32.7,7.58c0,0-9.24,11.62-33.13,20.71
			c0,0,15.05,45.92-38.81,49.35C191.74,408.55,170.76,285.57,328.09,297.11z"/>
		<path class="st3" d="M397.64,381.23c0,0-18.59,44.98,3.96,52.83c22.55,7.85,64.4-1.01,41.18-39.09
			C419.55,356.9,397.64,381.23,397.64,381.23z"/>
		<path class="st3" d="M355.67,308.78c0,0-17.97,42.16,29.24,52.24c0,0-14.06,59.56,63.52,46.48
			C448.43,407.5,454.98,284.45,355.67,308.78z"/>
		<g>
			<path class="st4" d="M308.52,315.26c-4.32,7.44-11.03,13.32-18.84,16.89c-9.08,4.15-19.2,4.18-28.59,1.04
				c-3.13-1.05-4.47,3.89-1.36,4.93c10.49,3.51,21.68,3.21,31.83-1.24c8.86-3.89,16.52-10.67,21.38-19.04
				C314.59,314.99,310.17,312.41,308.52,315.26L308.52,315.26z"/>
		</g>
		<g>
			<path class="st4" d="M295.95,286.63c-0.2,5.29,1.11,10.91,3.05,15.79c4.4,11.05,13.16,19.09,24.36,23.01
				c9.75,3.41,20.4,3.66,30.59,2.71c3.25-0.3,3.28-5.42,0-5.12c-14.42,1.35-31.02,0.32-42.08-10.24c-5.97-5.7-9.31-13.28-10.5-21.35
				c-0.1-0.71,0.06,0.54-0.02-0.14c-0.02-0.19-0.05-0.39-0.07-0.58c-0.04-0.35-0.07-0.71-0.1-1.06c-0.04-0.53-0.08-1.05-0.1-1.58
				c-0.02-0.48-0.03-0.96-0.01-1.44C301.19,283.33,296.07,283.34,295.95,286.63L295.95,286.63z"/>
		</g>
		<g>
			<path class="st4" d="M438.63,405.89c-14.39,6.9-31.95,3.89-43.05-7.6c-10.28-10.65-13.08-27.15-6.52-40.51
				c3.87-7.87,10.34-13.9,18.27-17.54c2.99-1.37,0.39-5.78-2.58-4.42c-16.17,7.42-26.25,24.7-24.06,42.47
				c2.01,16.27,13.81,29.99,29.48,34.68c10.31,3.09,21.38,1.97,31.03-2.67C444.18,408.88,441.59,404.47,438.63,405.89L438.63,405.89
				z"/>
		</g>
		<g>
			<path class="st4" d="M420.1,413.99c-0.74-0.94,0.19,0.27,0.42,0.6c0.67,0.95,1.3,1.92,1.91,2.91c2.02,3.29,3.77,6.76,5.15,10.36
				c4.04,10.59,4.99,22.14,1.01,32.9c-3.1,8.37-8.97,15.32-15.67,21.08c-2.5,2.15,1.13,5.76,3.62,3.62
				c11.73-10.08,19.89-23.79,19.77-39.57c-0.08-10.41-3.46-20.69-8.66-29.63c-1.18-2.03-2.46-4.02-3.92-5.87
				C421.68,407.78,418.08,411.43,420.1,413.99L420.1,413.99z"/>
		</g>
		<g>
			<path class="st4" d="M384.91,361.02c-10.81-3.54-19.98-11.51-24.41-22.07c-4.36-10.39-3.74-22.49,1.62-32.39
				c11.04-20.35,38.13-26.88,57.57-14.61c10.48,6.62,17.27,17.95,17.96,30.34c0.18,3.27,5.3,3.3,5.12,0
				c-0.7-12.47-6.6-24.06-16.4-31.83c-10.06-7.98-23.03-11.25-35.69-9.37c-25.83,3.83-44.05,30.1-36.41,55.55
				c4.21,14.04,15.47,24.8,29.28,29.32C386.68,366.98,388.03,362.04,384.91,361.02L384.91,361.02z"/>
		</g>
		<g>
			<path class="st4" d="M386.22,316.08c11.32-9.89,27.67-11.31,40.46-3.41c12.37,7.64,19.04,22.12,18.25,36.45
				c-0.5,9.16-4.2,17.95-10.43,24.69c-2.23,2.42,1.38,6.04,3.62,3.62c12.43-13.44,15.29-33.37,7.86-50
				c-6.3-14.08-20.11-24.36-35.68-25.04c-10.24-0.44-20.03,3.38-27.69,10.07C380.12,314.63,383.75,318.24,386.22,316.08
				L386.22,316.08z"/>
		</g>
		<path class="st3" d="M436.23,398.8c0,0,22.88,6.71,21.63,41.22c-1.25,34.51-13.76,44.18-17.93,53.97
			c-4.17,9.78,15.87,20.75,29.22,7c13.35-13.75,25.56-43.34,18.97-70.49c-6.59-27.15-15.1-34.46-30.26-44.35
			C442.7,376.27,423.52,385.86,436.23,398.8z"/>
		<g>
			<path class="st4" d="M412.95,378.25c18.2-2.32,36.47,3.12,50.3,15.24c13.24,11.6,21.76,28.17,23.81,45.64
				c2.12,18.07-2.22,36.56-12.65,51.51c-9.83,14.1-24.92,24.21-41.88,27.29c-22.37,4.07-35.31,2.57-50.05-14.36
				c-2.17-2.49-5.77,1.14-3.62,3.62c14.21,16.32,25.86,18.26,47.61,16.63c18.34-1.37,35.46-10.33,47.44-24.24
				c25.61-29.75,24.79-76.5-2.24-105.09c-15.06-15.93-36.89-24.13-58.71-21.35C409.73,373.54,409.69,378.66,412.95,378.25
				L412.95,378.25z"/>
		</g>
		<path class="st3" d="M126.62,432.12c0,0,9.17-33.67,27.75-44.52c18.57-10.85,26.84-13.35,34.51-13.8
			c7.67-0.45,14.38,1.27,12.94,5.35c-1.44,4.07-26.12,9.96-30.92,25.47c-4.79,15.51-14.38,41.77-4.07,61.72
			c10.31,19.95,17.98,40.32,10.79,41.76c-7.19,1.44-43.02-10.93-48.72-38.18C123.21,442.66,124.71,440.02,126.62,432.12z"/>
		<g>
			<g>
				<path class="st4" d="M174.24,408.49c16.33,7.83,36.23,4.88,49.02-8.16c11.97-12.2,15.1-30.83,7.86-46.29
					c-4.14-8.85-11.57-15.97-20.42-20.03c-2.97-1.36-5.58,3.04-2.58,4.42c14.31,6.57,23.25,21.19,21.64,37.01
					c-1.44,14.11-11.76,26.3-25.19,30.58c-9.13,2.91-19.11,2.2-27.75-1.95C173.87,402.66,171.27,407.07,174.24,408.49L174.24,408.49
					z"/>
			</g>
			<g>
				<path class="st4" d="M191.74,408.55c-11.23,14.26-16.22,35.17-9.56,52.36c3.47,8.96,9.51,16.49,16.75,22.72
					c2.49,2.14,6.12-1.47,3.62-3.62c-10.99-9.45-18.64-21.98-18.26-36.81c0.24-9.33,3.41-18.48,8.11-26.48
					c0.72-1.22,1.48-2.43,2.28-3.59c0.27-0.39,1.4-1.89,0.67-0.96C197.37,409.61,193.78,405.97,191.74,408.55L191.74,408.55z"/>
			</g>
			<g>
				<path class="st4" d="M231.91,364.14c12.19-3.99,22.49-12.81,27.58-24.69c5.04-11.77,4.5-25.34-1.42-36.69
					c-12.13-23.25-43.26-30.94-65.17-16.85c-11.91,7.66-19.42,20.44-20.21,34.58c-0.18,3.29,4.93,3.28,5.12,0
					c1.31-23.27,23.66-39.79,46.32-36.16c22.67,3.63,38.78,26.24,32.23,48.8c-3.61,12.44-13.6,22.09-25.81,26.09
					C227.43,360.23,228.76,365.17,231.91,364.14L231.91,364.14z"/>
			</g>
			<g>
				<path class="st4" d="M232.85,310.64c-13.02-11.37-31.84-13.37-46.66-4.21c-13.95,8.62-21.83,25.04-20.76,41.29
					c0.68,10.41,4.82,20.22,11.9,27.88c2.24,2.42,5.85-1.2,3.62-3.62c-10.78-11.66-13.46-29.3-7.06-43.8
					c5.44-12.32,17.22-21.74,30.92-22.48c8.98-0.49,17.66,2.66,24.41,8.55C231.71,316.42,235.34,312.82,232.85,310.64L232.85,310.64
					z"/>
			</g>
			<g>
				<path class="st4" d="M202.5,371.31c-17.81-2.27-35.83,2.7-50.07,13.6c-13.62,10.43-23.26,25.58-27.35,42.21
					c-8.36,33.98,6.8,72.3,38.83,88.04c19.81,9.73,43.14,9.09,62.53-1.41c2.9-1.57,0.32-5.99-2.58-4.42
					c-16.35,8.85-35.83,10.15-53.14,3.3c-14.56-5.76-26.52-17.07-33.97-30.74c-15.78-28.95-10.06-67.03,14.45-89.34
					c13.94-12.69,32.61-18.5,51.29-16.12C205.76,376.85,205.73,371.73,202.5,371.31L202.5,371.31z"/>
			</g>
		</g>
		<g>
			<g>
				<path class="st5" d="M185.53,318.74c-11.22,9.93-13.82,26.8-6.79,39.9c1.56,2.9,5.98,0.32,4.42-2.58
					c-6.01-11.18-3.5-25.3,5.99-33.69C191.62,320.17,187.99,316.57,185.53,318.74L185.53,318.74z"/>
			</g>
			<g>
				<path class="st5" d="M206.43,311.66c-4.22-0.36-8.54,0.29-12.46,1.89c-0.64,0.26-1.16,0.55-1.53,1.18
					c-0.32,0.55-0.46,1.36-0.26,1.97c0.39,1.19,1.82,2.33,3.15,1.79c1.8-0.73,3.68-1.28,5.6-1.59c0.11-0.02,0.21-0.03,0.32-0.05
					c-0.33,0.04-0.34,0.04-0.04,0.01c0.21-0.02,0.43-0.05,0.64-0.07c0.5-0.05,1.01-0.08,1.51-0.1c1.03-0.03,2.05,0,3.07,0.09
					c1.34,0.11,2.62-1.26,2.56-2.56C208.93,312.74,207.87,311.79,206.43,311.66L206.43,311.66z"/>
			</g>
			<g>
				<path class="st5" d="M292.61,369.52c1.64,0.13,3.29,0.13,4.94,0.03c0.68-0.04,1.32-0.26,1.81-0.75
					c0.44-0.44,0.78-1.17,0.75-1.81c-0.03-0.66-0.25-1.35-0.75-1.81c-0.48-0.44-1.13-0.79-1.81-0.75c-1.65,0.09-3.29,0.09-4.94-0.03
					c-0.62-0.05-1.38,0.32-1.81,0.75c-0.44,0.44-0.78,1.17-0.75,1.81c0.03,0.66,0.25,1.35,0.75,1.81
					C291.32,369.25,291.9,369.47,292.61,369.52L292.61,369.52z"/>
			</g>
			<g>
				<path class="st5" d="M270.45,346.91c0.01,5.88,2.65,12.15,6.82,16.24c2.18,2.14,4.78,3.67,7.62,4.77
					c1.29,0.5,2.81-0.55,3.15-1.79c0.4-1.45-0.49-2.65-1.79-3.15c-0.16-0.06-0.33-0.13-0.49-0.19c0.05,0.02,0.28,0.12,0.01,0
					c-0.27-0.12-0.54-0.25-0.8-0.38c-0.51-0.26-1.01-0.54-1.49-0.84c-0.46-0.29-0.91-0.59-1.35-0.92c0.38,0.28-0.16-0.14-0.27-0.23
					c-0.22-0.19-0.44-0.38-0.66-0.58c-0.36-0.34-0.71-0.7-1.05-1.07c-0.14-0.15-0.28-0.31-0.41-0.47c-0.09-0.11-0.17-0.21-0.26-0.32
					c-0.24-0.29,0.25,0.33,0.02,0.04c-0.56-0.76-1.08-1.55-1.53-2.38c-0.19-0.35-0.38-0.71-0.55-1.07
					c-0.09-0.19-0.17-0.38-0.26-0.57c-0.06-0.13-0.16-0.45,0.05,0.12c-0.04-0.11-0.09-0.21-0.13-0.32
					c-0.27-0.72-0.52-1.44-0.73-2.17c-0.19-0.66-0.35-1.33-0.48-2.01c-0.05-0.28-0.1-0.56-0.15-0.85c-0.02-0.11-0.03-0.22-0.05-0.33
					c-0.01-0.05,0.08,0.7,0.02,0.17c-0.06-0.56-0.12-1.12-0.13-1.69c0-1.38-1.17-2.56-2.56-2.56
					C271.62,344.35,270.45,345.52,270.45,346.91L270.45,346.91z"/>
			</g>
			<g>
				<path class="st5" d="M312.94,360.7c2.27,0.47,4.67,0.62,6.98,0.49c0.68-0.04,1.32-0.26,1.81-0.75c0.44-0.44,0.78-1.17,0.75-1.81
					c-0.03-0.66-0.25-1.35-0.75-1.81c-0.48-0.44-1.13-0.79-1.81-0.75c-1.7,0.1-3.42,0.02-5.11-0.2c0.23,0.03,0.45,0.06,0.68,0.09
					c-0.4-0.05-0.8-0.11-1.19-0.19c-0.68-0.14-1.36-0.1-1.97,0.26c-0.53,0.31-1.04,0.92-1.18,1.53c-0.15,0.65-0.12,1.39,0.26,1.97
					C311.76,360.07,312.29,360.57,312.94,360.7L312.94,360.7z"/>
			</g>
			<g>
				<path class="st5" d="M255.77,265.17c-6.06,0.82-11.92,3.02-17.03,6.38c-1.15,0.76-1.64,2.26-0.92,3.5
					c0.67,1.15,2.34,1.68,3.5,0.92c4.84-3.18,9.98-5.08,15.8-5.86c1.33-0.18,2.17-1.96,1.79-3.15
					C258.44,265.49,257.2,264.98,255.77,265.17L255.77,265.17z"/>
			</g>
			<g>
				<path class="st5" d="M272.1,266.42c-2.38-0.55-4.8-0.91-7.23-1.14c-0.62-0.06-1.39,0.33-1.81,0.75
					c-0.44,0.44-0.78,1.17-0.75,1.81c0.03,0.66,0.25,1.35,0.75,1.81c0.53,0.48,1.1,0.68,1.81,0.75c0.72,0.07,1.44,0.15,2.16,0.24
					c-0.23-0.03-0.45-0.06-0.68-0.09c1.47,0.2,2.94,0.47,4.39,0.8c0.66,0.15,1.37,0.09,1.97-0.26c0.53-0.31,1.04-0.92,1.18-1.53
					C274.18,268.26,273.49,266.74,272.1,266.42L272.1,266.42z"/>
			</g>
			<g>
				<path class="st5" d="M309.18,301.65c3.38,6.23,8.7,11.2,15.09,14.26c1.2,0.58,2.82,0.37,3.5-0.92c0.6-1.14,0.37-2.88-0.92-3.5
					c-1.67-0.8-3.28-1.72-4.8-2.79c-0.16-0.11-0.31-0.22-0.46-0.33c-0.06-0.05-0.6-0.45-0.37-0.27c0.25,0.19-0.22-0.18-0.27-0.21
					c-0.17-0.14-0.34-0.28-0.51-0.42c-0.63-0.53-1.24-1.08-1.82-1.66c-0.54-0.53-1.06-1.09-1.55-1.66
					c-0.24-0.28-0.48-0.56-0.71-0.85c-0.15-0.19-0.35-0.45-0.09-0.11c-0.12-0.16-0.24-0.31-0.35-0.47
					c-0.85-1.16-1.62-2.39-2.31-3.66c-0.64-1.18-2.36-1.65-3.5-0.92C308.9,298.92,308.5,300.39,309.18,301.65L309.18,301.65z"/>
			</g>
			<g>
				<path class="st5" d="M305.1,289.28c0.29,2.02,0.75,4.01,1.37,5.96c0.2,0.63,0.6,1.19,1.18,1.53c0.55,0.32,1.36,0.46,1.97,0.26
					c0.62-0.2,1.22-0.58,1.53-1.18c0.31-0.6,0.47-1.31,0.26-1.97c-0.62-1.94-1.07-3.94-1.37-5.96c-0.09-0.59-0.69-1.24-1.18-1.53
					c-0.55-0.32-1.36-0.46-1.97-0.26c-0.62,0.2-1.22,0.58-1.53,1.18c-0.09,0.2-0.17,0.41-0.26,0.61
					C304.98,288.37,304.98,288.82,305.1,289.28L305.1,289.28z"/>
			</g>
			<g>
				<g>
					<path class="st5" d="M147.43,358.62c-0.36-6.45,1.55-12.86,5.59-17.87c0.87-1.07,1.05-2.57,0-3.62c-0.9-0.9-2.75-1.08-3.62,0
						c-4.91,6.08-7.52,13.64-7.09,21.48c0.08,1.38,1.12,2.56,2.56,2.56C146.2,361.18,147.51,360.01,147.43,358.62L147.43,358.62z"/>
				</g>
				<g>
					<path class="st5" d="M151,370.09c-0.66-1.12-1.24-2.27-1.75-3.47c0.09,0.2,0.17,0.41,0.26,0.61c-0.34-0.81-0.64-1.63-0.9-2.46
						c-0.2-0.63-0.6-1.19-1.18-1.53c-0.55-0.32-1.36-0.46-1.97-0.26c-0.62,0.2-1.22,0.58-1.53,1.18c-0.31,0.6-0.47,1.31-0.26,1.97
						c0.72,2.27,1.7,4.48,2.91,6.54c0.33,0.56,0.91,1,1.53,1.18c0.61,0.17,1.43,0.09,1.97-0.26
						C151.24,372.84,151.72,371.32,151,370.09L151,370.09z"/>
				</g>
			</g>
			<g>
				<g>
					<path class="st5" d="M109.32,439.3c-0.23-2.39-0.26-4.79-0.11-7.18c0.08-1.34-1.24-2.62-2.56-2.56
						c-1.46,0.07-2.47,1.12-2.56,2.56c-0.15,2.39-0.11,4.79,0.11,7.18c0.07,0.69,0.24,1.3,0.75,1.81c0.44,0.44,1.17,0.78,1.81,0.75
						c0.66-0.03,1.35-0.25,1.81-0.75C109,440.64,109.38,439.97,109.32,439.3L109.32,439.3z"/>
				</g>
				<g>
					<path class="st5" d="M113.48,456.04c-0.19-0.4-0.37-0.81-0.55-1.21c-0.11-0.26-0.1-0.23,0.03,0.08
						c-0.05-0.12-0.1-0.24-0.15-0.35c-0.07-0.18-0.14-0.36-0.21-0.54c-0.34-0.87-0.65-1.76-0.93-2.65c-0.56-1.8-0.99-3.63-1.31-5.48
						c-0.23-1.32-1.92-2.18-3.15-1.79c-1.43,0.46-2.03,1.73-1.79,3.15c0.68,3.95,1.92,7.75,3.63,11.38c0.57,1.21,2.41,1.62,3.5,0.92
						C113.81,458.73,114.09,457.34,113.48,456.04L113.48,456.04z"/>
				</g>
			</g>
			<g>
				<g>
					<path class="st5" d="M133.86,432.47c-5.31,25.58,4.68,52.79,26.94,67.07c2.78,1.78,5.35-2.64,2.58-4.42
						c-20.25-13-29.42-38.03-24.59-61.3C139.46,430.61,134.53,429.24,133.86,432.47L133.86,432.47z"/>
				</g>
				<g>
					<path class="st5" d="M140.63,414.68c-1.5,2.67-2.79,5.44-3.91,8.29c-0.23,0.58-0.04,1.46,0.26,1.97
						c0.31,0.53,0.92,1.04,1.53,1.18c0.65,0.15,1.39,0.12,1.97-0.26c0.59-0.38,0.92-0.88,1.18-1.53c0.2-0.5,0.4-0.99,0.6-1.48
						c-0.09,0.2-0.17,0.41-0.26,0.61c0.9-2.12,1.92-4.19,3.05-6.2c0.66-1.17,0.32-2.85-0.92-3.5
						C142.92,413.13,141.33,413.44,140.63,414.68L140.63,414.68z"/>
				</g>
			</g>
			<g>
				<g>
					<path class="st5" d="M518.89,479.14c-3.11,14.88-16.11,25.74-31.36,25.85c-3.29,0.02-3.3,5.14,0,5.12
						c17.41-0.12,32.72-12.53,36.29-29.61C524.5,477.29,519.56,475.91,518.89,479.14L518.89,479.14z"/>
				</g>
				<g>
					<path class="st5" d="M518.65,465.56c0.26,1.13,0.47,2.26,0.63,3.41c-0.03-0.23-0.06-0.45-0.09-0.68c0.2,1.53,0.3,3.07,0.3,4.61
						c0,1.34,1.17,2.62,2.56,2.56c1.38-0.06,2.56-1.12,2.56-2.56c-0.01-2.92-0.36-5.85-1.02-8.7c-0.3-1.3-1.87-2.2-3.15-1.79
						C519.08,462.85,518.32,464.16,518.65,465.56L518.65,465.56z"/>
				</g>
			</g>
			<g>
				<path class="st5" d="M472.4,431.18c8.19,27.74-5.11,59.89-33.35,69.57c-3.1,1.06-1.77,6.01,1.36,4.93
					c30.85-10.57,45.94-45.33,36.93-75.87C476.4,426.67,471.47,428.01,472.4,431.18L472.4,431.18z"/>
			</g>
			<g>
				<path class="st5" d="M458.09,407.53c1.69,1.65,3.28,3.4,4.75,5.25c0.08,0.1,0.17,0.21,0.25,0.31c0.04,0.05,0.32,0.38,0.11,0.14
					c-0.24-0.27,0.12,0.16,0.17,0.22c0.08,0.11,0.16,0.21,0.24,0.32c0.36,0.48,0.71,0.97,1.06,1.47c0.69,1,1.35,2.01,1.98,3.05
					c0.7,1.14,2.32,1.68,3.5,0.92c1.15-0.74,1.66-2.28,0.92-3.5c-2.61-4.29-5.76-8.28-9.35-11.8c-0.96-0.94-2.68-1.03-3.62,0
					C457.16,404.93,457.06,406.53,458.09,407.53L458.09,407.53z"/>
			</g>
			<g>
				<path class="st5" d="M430.28,326.88c8.56,10.76,8.9,26.26,1.26,37.57c-1.85,2.74,2.58,5.3,4.42,2.58
					c9.03-13.36,7.88-31.27-2.06-43.77C431.85,320.68,428.25,324.32,430.28,326.88L430.28,326.88z"/>
			</g>
			<g>
				<path class="st5" d="M415.79,317.18c0.81,0.22,1.61,0.48,2.4,0.77c0.33,0.12,0.68,0.32,1.03,0.4c-0.37-0.16-0.43-0.18-0.18-0.07
					c0.1,0.04,0.19,0.08,0.29,0.13c0.19,0.09,0.38,0.17,0.57,0.26c1.47,0.7,2.89,1.51,4.23,2.43c1.11,0.76,2.89,0.24,3.5-0.92
					c0.69-1.3,0.26-2.69-0.92-3.5c-2.91-1.99-6.17-3.5-9.56-4.44c-1.29-0.36-2.84,0.44-3.15,1.79
					C413.7,315.38,414.41,316.79,415.79,317.18L415.79,317.18z"/>
			</g>
		</g>
		
			<ellipse transform="matrix(0.3338 -0.9426 0.9426 0.3338 -159.7837 683.4444)" class="st0" cx="403.64" cy="454.77" rx="26.94" ry="18.08"/>
		
			<ellipse transform="matrix(0.9426 -0.3338 0.3338 0.9426 -138.1303 95.5646)" class="st0" cx="208.99" cy="449.69" rx="16.88" ry="24.2"/>
		<path class="st7" d="M290.99,442.43c0,0-22.69,1.07-10.63,20.83C280.37,463.26,276.39,450.39,290.99,442.43z"/>
		<path class="st36" d="M220.73,412.79c0,0-6.15,37.16,14.25,39.15c29.03,2.83,38.37-37.23,38.37-37.23"/>
		<path class="st36" d="M312,412.79c0,0-6.15,37.16,14.25,39.15c29.03,2.83,38.37-37.23,38.37-37.23"/>
		<path class="st6" d="M248.25,465.29c0,0,49.52,20.76,95.98-2.03C344.23,463.26,305.66,538.39,248.25,465.29z"/>
	</g>
	<g>
		<g>
			<path class="st4" d="M154.37,390.02c-0.21,0-0.42-0.02-0.63-0.07c-17.4-4-21.37-20.93-21.53-21.65
				c-0.34-1.52,0.62-3.02,2.14-3.36c1.52-0.34,3.02,0.62,3.36,2.13c0.14,0.6,3.42,14.21,17.29,17.39c1.52,0.35,2.46,1.86,2.12,3.38
				C156.81,389.13,155.65,390.02,154.37,390.02z"/>
		</g>
		<g>
			<path class="st4" d="M109.58,471.3c-0.54,0-1.09-0.16-1.57-0.48c-17.57-11.84-15.6-38.97-15.51-40.12
				c0.12-1.55,1.48-2.71,3.03-2.58c1.55,0.12,2.71,1.48,2.58,3.03l0,0c-0.02,0.25-1.78,25.01,13.04,35
				c1.29,0.87,1.63,2.62,0.76,3.91C111.38,470.86,110.49,471.3,109.58,471.3z"/>
		</g>
		<g>
			<path class="st4" d="M460.37,390.02c-1.28,0-2.44-0.88-2.74-2.19c-0.35-1.52,0.6-3.03,2.12-3.38
				c13.88-3.19,17.16-16.82,17.29-17.39c0.35-1.51,1.85-2.46,3.37-2.12c1.51,0.34,2.47,1.84,2.13,3.36
				c-0.16,0.72-4.13,17.65-21.53,21.65C460.8,389.99,460.58,390.02,460.37,390.02z"/>
		</g>
		<g>
			<path class="st4" d="M505.16,471.3c-0.91,0-1.79-0.44-2.34-1.24c-0.87-1.29-0.53-3.04,0.76-3.91
				c14.87-10.02,13.06-34.75,13.04-35c-0.12-1.55,1.03-2.91,2.58-3.03c1.55-0.12,2.91,1.03,3.03,2.58
				c0.09,1.15,2.06,28.28-15.51,40.12C506.25,471.14,505.71,471.3,505.16,471.3z"/>
		</g>
		<g>
			<path class="st4" d="M279.29,304.77c-1.12,0-2.18-0.67-2.62-1.78c-5.57-14-3.1-25.02-0.06-31.8c3.32-7.38,7.99-11.43,8.19-11.6
				c1.18-1.01,2.96-0.87,3.97,0.31c1.01,1.18,0.87,2.95-0.3,3.97c-0.06,0.06-4.05,3.57-6.82,9.86c-3.68,8.36-3.6,17.51,0.25,27.18
				c0.57,1.45-0.13,3.08-1.58,3.66C279.99,304.71,279.64,304.77,279.29,304.77z"/>
		</g>
		<g>
			<path class="st4" d="M268.31,362.76c-0.83,0-1.64-0.36-2.2-1.05c-9.81-12.23-9.22-23.67-9.19-24.15c0.1-1.55,1.43-2.73,2.99-2.64
				c1.55,0.1,2.73,1.43,2.64,2.97c0,0.07-0.11,2.52,0.81,6.2c0.85,3.42,2.78,8.63,7.16,14.09c0.97,1.21,0.78,2.99-0.44,3.96
				C269.55,362.56,268.93,362.76,268.31,362.76z"/>
		</g>
		<g>
			<path class="st4" d="M316.13,368.25c-1.95,0-3.88-0.22-5.8-0.67c-15.03-3.5-23.17-19.53-23.51-20.21
				c-0.69-1.39-0.13-3.08,1.26-3.78c1.39-0.69,3.08-0.13,3.78,1.26c0.1,0.19,7.36,14.37,19.77,17.24
				c6.83,1.58,14.13-0.54,21.72-6.32c1.24-0.94,3.01-0.7,3.95,0.54c0.94,1.24,0.7,3.01-0.54,3.95
				C329.79,365.58,322.87,368.25,316.13,368.25z"/>
		</g>
		<g>
			<path class="st4" d="M354.11,364.41c-0.58,0-1.17-0.18-1.67-0.55c-4.9-3.63-7.64-14.91-8.13-17.13
				c-0.34-1.52,0.61-3.02,2.13-3.37c1.52-0.34,3.02,0.61,3.37,2.13l0,0c1.06,4.68,3.61,12.08,5.99,13.84
				c1.25,0.93,1.51,2.69,0.59,3.94C355.82,364.02,354.97,364.41,354.11,364.41z"/>
		</g>
		<g>
			<path class="st4" d="M335.06,360.84c-0.39,0-0.79-0.08-1.17-0.26c-19.43-8.9-15.89-22.75-15.73-23.33
				c0.41-1.5,1.96-2.38,3.46-1.97c1.49,0.41,2.37,1.94,1.98,3.43c-0.11,0.46-2.22,9.95,12.63,16.75c1.41,0.65,2.04,2.32,1.39,3.73
				C337.15,360.23,336.13,360.84,335.06,360.84z"/>
		</g>
	</g>
	<path d="M201.8,353.27c0,0,26.49-54.92,56.82-0.19C258.62,353.08,235.9,320.4,201.8,353.27z"/>
	<path d="M320.6,355.15c0,0,26.49-54.92,56.82-0.19C377.42,354.96,354.7,322.28,320.6,355.15z"/>
	<path class="st31" d="M43.68,294.73c0,0,2.86,33.4-11.49,32.57c0,0,18.19,3.83,14.75,25.04c0,0,0.89-23.26,13.53-20.92
		C60.48,331.42,42.36,330.01,43.68,294.73z"/>
	<path class="st31" d="M80.22,218.57c0,0,5.54,64.62-22.22,63.01c0,0,35.19,7.42,28.54,48.45c0,0,1.72-44.99,26.17-40.48
		C112.72,289.55,77.67,286.82,80.22,218.57z"/>
	<path class="st31" d="M70.7,317.4c0,0,4.46,52.09-17.91,50.79c0,0,28.36,5.98,23,39.05c0,0,1.39-36.26,21.1-32.62
		C96.89,374.61,68.64,372.41,70.7,317.4z"/>
</g>
</svg>
