<?xml version="1.0" encoding="utf-8"?>
<!-- Generator: Adobe Illustrator 24.0.1, SVG Export Plug-In . SVG Version: 6.00 Build 0)  -->
<svg version="1.1" id="Capa_1" xmlns="http://www.w3.org/2000/svg" xmlns:xlink="http://www.w3.org/1999/xlink" x="0px" y="0px"
	 viewBox="0 0 566.93 566.93" style="enable-background:new 0 0 566.93 566.93;" xml:space="preserve">
<style type="text/css">
	.st0{fill:#F9D6E4;}
	.st1{fill:#45A759;}
	.st2{fill:#15632D;}
	.st3{fill:#F08CA7;}
	.st4{fill:#B52955;}
	.st5{fill:#F6BFD3;}
	.st6{fill:#FFFFFF;}
	.st7{fill:#CD94A9;}
	.st8{fill:#E16874;}
	.st9{fill:#EEEEEE;}
	.st10{fill:#C9C7C7;}
	.st11{clip-path:url(#SVGID_2_);}
	.st12{clip-path:url(#SVGID_2_);fill:#F08CA7;}
	.st13{fill:#CBC9CA;}
	.st14{fill:#E1E0E0;}
	.st15{fill:#B693C3;}
	.st16{fill:#F8DF28;}
	.st17{fill:#65A2D8;}
	.st18{fill:#DEE275;}
	.st19{fill:#FFDB43;}
	.st20{fill:#E75C2A;}
	.st21{fill:#F49D4E;}
	.st22{opacity:0.5;}
	.st23{fill:#F3B0CF;}
	.st24{fill:#704F9A;}
	.st25{fill:#616160;}
	.st26{fill:#5AE4A7;}
	.st27{fill:#FF0000;}
	.st28{fill:#82CEE0;}
	.st29{fill:#9E6D0B;}
	.st30{fill:#828E0C;}
	.st31{fill:#FFFF00;}
	.st32{clip-path:url(#SVGID_4_);}
	.st33{clip-path:url(#SVGID_4_);fill:#F08CA7;}
	.st34{clip-path:url(#SVGID_6_);}
	.st35{clip-path:url(#SVGID_6_);fill:#F08CA7;}
	.st36{fill:none;stroke:#B52955;stroke-width:3;stroke-linecap:round;stroke-linejoin:round;stroke-miterlimit:10;}
</style>
<g>
	<g>
		<g>
			<g>
				<path class="st1" d="M348.55,134.48c-11.74-7.23-21.13-18.09-26.45-30.3c-1.28-2.78-2.25-6.09-1.01-8.92
					c2-4.26,8.74-4.84,13-2.22c4.26,2.62,6.57,7.3,8.37,11.81C346.17,114.43,348.19,124.47,348.55,134.48z"/>
				<path class="st1" d="M333.49,164.08c-9.63-9.77-15.94-22.31-17.92-35.34c-0.46-3.15-0.56-6.56,1.35-8.9
					c3.05-3.65,9.81-2.65,13.34,0.89c3.53,3.54,4.6,8.58,5.09,13.3C336.41,144.01,335.86,154.22,333.49,164.08z"/>
				<path class="st1" d="M319.47,183.24c-10.88-7.72-19.15-18.59-23.19-30.49c-1-2.81-1.71-6.04-0.13-8.63
					c2.3-3.9,9.04-4.08,13.1-1.28c4.06,2.81,5.86,7.32,7.13,11.78C319.09,163.87,320.11,173.58,319.47,183.24z"/>
				<path class="st1" d="M349.26,131.99c3.41-12.5,11.13-23.78,21.77-31.75c2.45-1.9,5.57-3.7,8.76-3.27
					c5.02,0.79,7.88,6.71,6.63,11.22c-1.29,4.63-5.21,7.98-9.19,10.66C368.75,124.56,359.27,129.14,349.26,131.99z"/>
				<path class="st1" d="M335.94,153.6c8.32-10.18,20.04-17.64,33.19-21.11c3.17-0.74,6.72-1.36,9.52,0.24
					c4.34,2.38,4.65,8.86,1.72,12.55c-3.09,3.76-8.07,5.32-12.89,6.42C357.25,153.94,346.59,154.61,335.94,153.6z"/>
				<path class="st1" d="M318.69,181.03c8.32-10.18,20.04-17.64,33.19-21.11c3.17-0.74,6.72-1.36,9.52,0.24
					c4.34,2.38,4.65,8.86,1.72,12.55c-3.09,3.76-8.07,5.32-12.89,6.42C340.01,181.37,329.34,182.04,318.69,181.03z"/>
				<path class="st1" d="M302.93,221.32c-8.96-9.67-14.7-21.89-15.92-34.27c-0.25-2.95-0.26-6.2,1.86-8.34
					c3.34-3.29,9.98-1.94,13.26,1.51c3.24,3.57,3.98,8.37,4.25,12.89C306.91,202.64,305.73,212.25,302.93,221.32z"/>
				<path class="st1" d="M303.29,214.94c8.32-10.18,20.04-17.64,33.19-21.11c3.17-0.74,6.72-1.36,9.52,0.24
					c4.34,2.38,4.65,8.86,1.72,12.55c-3.09,3.76-8.07,5.32-12.89,6.42C324.6,215.28,313.81,215.91,303.29,214.94z"/>
				<g>
					<path class="st2" d="M353.76,112.97c0.07-0.63-0.88-0.69-0.83-0.02c-5.43,34.04-32.5,57.62-45.63,88.52
						c-6.31,14.89-10.37,30.55-12.85,46.47c-2.68,16.51-5.1,33.89-4.72,50.8c-0.05,2.19,3.22,2.39,3.52,0.29
						c2.64-16.79,2.66-34.07,5.42-50.82c2.79-17.25,7-34.55,14.57-50.31C326.59,170.06,352.36,145.39,353.76,112.97L353.76,112.97z"
						/>
				</g>
				<path class="st1" d="M351.01,122.31c-5.69-14.8-6.27-31.12-1.95-45.91c1.06-3.54,2.74-7.26,6.07-8.86
					c5.3-2.49,12.23,1.68,14.3,7.06c2.07,5.38,0.67,11.15-1.15,16.51C364.35,102.27,358.52,112.9,351.01,122.31z"/>
			</g>
			<g>
				<path class="st15" d="M405.33,77.33c2.3-0.19,4.8,0.6,5.99,2.57c1.19,1.98,0.37,5.02-1.87,5.64c4.02-0.48,7.93,3.19,7.63,7.17
					c-0.3,3.98-4.72,7.13-8.62,6.12c3.21,1.29,5.91,4.31,5.59,7.73c-0.38,3.41-4.84,6.06-7.49,3.9c2.57,3.29,2.46,8.29-0.17,11.53
					c-2.63,3.24-7.56,4.37-11.3,2.62c2.75,2.67,0.93,7.91-2.68,9.29c-3.61,1.38-7.79-0.31-10.38-3.11
					c-2.59-2.81-3.88-6.51-5.15-10.09c-1.9-5.4-4.6-12.84-7.28-17.86c-9.47-17.82,8.88-9.99,13.53-13.92
					c4.71-3.92,10.22-6.63,15.71-9.29C400.91,78.6,403.08,77.59,405.33,77.33z"/>
				<path class="st15" d="M396.73,94.98c-6.86-1.86-13.85-3.69-20-7.16c-6.21-3.49-11.72-8.77-13.97-15.48
					c-2.11-6.37-1.15-13.24-0.15-19.87c0.68-4.47,1.34-9.07,3.71-12.87c2.37-3.8,6.74-6.79,11.18-5.99
					c4.44,0.79,7.66,6.45,5.08,10.13c3.94-2.93,9.82-2.75,13.57,0.46c3.76,3.15,4.94,8.94,2.72,13.27c2.58-3.07,8.31-1.06,9.43,2.84
					c1.14,3.84-1.35,8.04-4.7,10.22c4.23-2.05,10.02,0.58,11.25,5.12c1.24,4.54-2.49,9.71-7.2,10.05c2.68,0.17,4.31,3.55,3.4,6.07
					c-0.91,2.53-3.65,4.04-6.35,4.35C402.02,96.39,399.32,95.67,396.73,94.98z"/>
				<path class="st16" d="M366.47,70.88c-1.08-3.12-0.87-6.54-0.51-9.85c0.3-2.91,0.81-5.93,2.37-8.42
					c1.55-2.49,4.39-4.42,7.28-4.07c2.89,0.35,5.39,3.53,4.36,6.29c1.85-2.88,6.09-3.87,9-2.14c2.91,1.74,4.02,6.01,2.33,8.94
					c2.13-1.78,5.82-0.24,6.69,2.35c0.86,2.64-0.48,5.61-2.66,7.38c3.01-1.29,6.61,1.79,6.56,5.07c-0.05,3.28-2.87,6-5.98,7.02
					c-3.16,1-6.51,0.58-9.76,0c-4.04-0.74-8.07-1.73-11.68-3.73C370.92,77.85,367.79,74.79,366.47,70.88z"/>
				<path class="st15" d="M336.74,59.46c3.24,5.18,6.46,10.41,8.36,16.23c1.84,5.81,21.55,8.94,4.04,18.99
					c-4.94,2.82-11.19,7.69-15.67,11.25c-2.98,2.35-6.05,4.8-9.73,5.8c-3.68,1-8.12,0.21-10.44-2.89c-2.32-3.09-1.07-8.49,2.68-9.29
					c-4.1-0.51-7.67-4.09-8.17-8.24c-0.5-4.15,2.07-8.44,5.99-9.85c-3.39,0.42-5.76-4.21-4.26-7.29c1.55-3.07,5.45-4.19,8.85-3.57
					c-3.83-1.23-5.9-6.25-4.03-9.77c1.86-3.52,7.13-4.55,10.28-2.01c-1.56-1.72-0.64-4.73,1.42-5.77c2.06-1.04,4.59-0.37,6.44,1.01
					C334.25,55.47,335.55,57.48,336.74,59.46z"/>
				<path class="st16" d="M353.81,87.66c-1.15,2.54-11.78,7.02-13.91,8.8c-1.9,1.61-3.91,3.18-6.36,3.79
					c-2.4,0.63-5.26,0.16-6.92-1.75c-1.61-1.9-1.33-5.35,0.9-6.45c-2.78,0.7-6.02-1.14-6.83-3.94c-0.81-2.81,0.97-6.07,3.72-6.89
					c-2.35-0.14-3.79-3.25-2.81-5.42c0.99-2.17,3.56-3.22,5.9-3.03c-2.66-0.95-3.1-5.03-1.16-6.98c1.96-2.01,5.25-2.02,7.78-0.81
					c2.53,1.21,4.39,3.48,6.08,5.7c2.12,2.83,7.37,7.04,8.5,10.41C349.84,84.42,355.21,84.47,353.81,87.66z"/>
				<path class="st16" d="M376.88,91.5c2.78-2.29,9.55-3.07,12.89-4.35c2.65-0.99,5.47-1.94,8.28-1.61
					c2.82,0.33,5.64,2.11,6.23,4.89c0.61,2.72-1.97,5.98-4.76,5.36c2.11,1.09,3.75,3.39,3.43,5.78c-0.33,2.39-3.23,4.28-5.33,3.13
					c1.92,2.19,1.68,5.94-0.52,7.91c-2.2,1.97-5.97,1.79-7.98-0.3c1.32,2.14-0.3,5.25-2.7,6.01c-2.46,0.75-5.16-0.4-6.88-2.22
					c-1.77-1.84-2.65-4.28-3.41-6.68c-0.87-2.67-7.56-12.24-7.18-15.04C369.48,90.88,374.11,93.73,376.88,91.5z"/>
				<path class="st15" d="M364.95,44.44c-0.44-3.52-1.37-7.67-4.66-8.86c-1.91-0.73-4.3-0.03-5.56,1.61
					c-1.26,1.64-1.31,4.11-0.09,5.79c-1.22-2.72-2.48-5.5-4.45-7.71c-1.97-2.2-4.91-3.78-7.85-3.47c-3.14,0.37-5.86,3.1-6.23,6.27
					c-0.37,3.17,1.72,6.44,4.7,7.48c-1.35-0.57-2.77-1.1-4.24-1.28c-2.62-0.39-4.81,1.77-4.59,4.37
					c0.94,10.21,7.24,19.48,13.21,27.99c3.45,4.87,8.1,10.4,14.24,9.07c2.83-0.58,5.17-2.57,6.5-5.1c2.8-5.07,2.12-10.72,1.44-16.13
					C366.59,57.7,365.78,51.04,364.95,44.44z"/>
				<path class="st15" d="M363.19,83.15c-1.54-0.75-3.36,0.3-4.76,1.36c-9.82,7.35-19.73,14.8-27.83,23.99
					c-2.24,2.51-4.36,5.23-5.24,8.49c-0.88,3.26-0.34,7.06,2.23,9.31c2.52,2.18,7.14,1.94,8.73-1.06
					c-2.67,5.05-0.93,12.28,4.15,14.84c5.14,2.57,12.45-1.14,12.75-6.81c-0.68,4.47,4.12,8.64,8.54,7.8
					c4.43-0.85,7.23-6.16,5.86-10.44c-0.26,3.02,3.23,5.42,6.22,4.7c2.94-0.73,4.98-3.6,5.48-6.6c0.5-3.01-0.14-6.04-0.92-9
					c-3.05-11.91-7.55-23.45-13.27-34.32C364.63,84.48,364.1,83.59,363.19,83.15z"/>
				<path class="st16" d="M364.87,75.88c-0.16-4.24-0.33-8.42-0.48-12.65c-0.19-4.73-0.36-9.56-2.07-14.01
					c-0.53-1.29-1.26-2.7-2.59-3.08c-1.77-0.51-3.53,1.02-4.37,2.69c-0.84,1.67-1.27,3.59-2.56,4.95c-0.41-2.1-0.91-4.33-2.36-5.95
					c-1.45-1.62-4.19-2.29-5.75-0.82c-1.95,1.77-0.85,5.02,0.39,7.36c-0.06-1.87-2.62-2.97-4.31-2.08
					c-1.69,0.89-2.31,3.05-2.07,4.91c0.3,1.88,1.31,3.55,2.27,5.21c3.83,6.25,7.73,12.65,13.13,17.61c1.27,1.2,2.7,2.27,4.34,2.81
					c1.64,0.53,3.62,0.32,4.92-0.86C364.93,80.44,364.96,78.06,364.87,75.88z"/>
				<path class="st16" d="M362.21,85.11c-7.45,5.7-14.9,11.39-22.29,17.11c-1.24,0.96-2.54,1.96-3.25,3.37
					c-0.71,1.41-0.61,3.36,0.6,4.36c1.07,0.85,2.67,0.71,3.88,0.04c1.21-0.67,2.07-1.8,2.92-2.87c-1.68,3.53-0.83,8.08,1.99,10.75
					c2.93,0.43,5.9-2.19,5.84-5.08c-0.2,2.16,0.27,4.45,1.6,6.09c1.31,1.69,3.66,2.67,5.75,2.08c2.09-0.6,3.56-2.99,2.89-5.04
					c0.37,2.86,4.2,4.32,6.79,3.03c2.59-1.29,3.84-4.4,3.72-7.31c-0.06-2.89-1.25-5.63-2.42-8.24
					C367.49,97.35,364.87,91.26,362.21,85.11z"/>
				<circle class="st17" cx="365.05" cy="89.78" r="15.79"/>
			</g>
		</g>
		<g>
			<g class="st22">
				<path class="st23" d="M217,258.99c-0.29-0.08-0.56-0.25-0.76-0.51c-0.19-0.23-4.62-5.83-7.42-17.85
					c-2.55-10.95-4.16-29.62,2.62-56.38c5.38-21.25,6.69-35.13,6.7-35.26c0.08-0.84,0.82-1.46,1.66-1.38
					c0.84,0.08,1.46,0.82,1.38,1.66c-0.01,0.14-1.34,14.23-6.78,35.74c-3.64,14.36-7.06,35.51-2.67,54.7
					c2.62,11.44,6.84,16.82,6.88,16.87c0.52,0.66,0.42,1.62-0.24,2.14C217.98,259.03,217.46,259.12,217,258.99z"/>
			</g>
			<g class="st22">
				<path class="st23" d="M343.31,299.81c-0.55-0.16-0.99-0.62-1.08-1.22c-0.13-0.83,0.43-1.61,1.26-1.75
					c0.18-0.03,10.29-1.78,21.3-10.01c6.48-4.84,12-10.95,16.42-18.15c5.54-9.03,9.35-19.83,11.32-32.1
					c3.57-22.19,13.11-33.89,13.52-34.37c0.54-0.65,1.5-0.74,2.15-0.2c0.65,0.54,0.74,1.5,0.2,2.15
					c-0.09,0.11-9.42,11.6-12.85,32.91c-2.05,12.71-6.02,23.92-11.79,33.31c-4.64,7.54-10.45,13.94-17.27,19
					c-11.64,8.65-22.07,10.4-22.51,10.47C343.75,299.89,343.52,299.87,343.31,299.81z"/>
			</g>
			<g>
				<path class="st21" d="M204.96,162.84c-6.09,5.23-16.67,3.52-20.83-3.32s-0.74-17,6.62-20.02c-5-1.02-9.61-4.32-11.5-9.03
					c-1.89-4.7-0.57-10.74,3.6-13.7s10.77-1.9,13.29,2.56c-2.37-3.29-2.7-8.25-0.04-11.36c2.66-3.11,8.56-3.03,10.49,0.55
					c-1.36-5.54,5-10.97,10.52-9.59c5.53,1.38,8.73,7.88,7.48,13.44c2.57-5.25,10.06-7.25,14.91-4.02
					c4.85,3.23,5.79,10.98,1.94,15.3c5.21-3.65,13.71,0.14,14.72,6.43c1.01,6.28-5.49,12.45-11.8,11.34
					c5.89,4.03,7.32,13.25,2.83,18.8c-4.46,5.69-13.81,6.32-19.03,1.43c0.18,5.98-4.99,11.68-11,11.99
					C211.2,173.95,205.4,168.89,204.96,162.84z"/>
				<circle class="st4" cx="215.38" cy="136.93" r="13.14"/>
			</g>
			<g>
				<path class="st24" d="M447.24,167.42c-1.15,6.93-4.88,13.35-10.31,17.77c10.62,0.45,21.1,4.13,29.7,10.47
					c-7.6,4.64-15.17,9.38-22.77,14.03c4.17,1.8,7.19,6.41,10.23,10.22c-7.01,2.35-10.81,0.72-18.16,0.59
					c5.01,3.14,6.75,3.94,10.05,8.73c-11.02,3.81-24.02,0.29-32.43-7.87c-8.4-8.16-12.2-20.46-11.09-32.11
					c1.17-11.61,7.01-22.56,15.3-30.79c2.36,6.12,3.44,12.72,3.04,19.25C427.93,171.06,437.59,167.35,447.24,167.42z"/>
				<g>
					<path class="st15" d="M467.78,180.32c-23.19,2.76-45.12,12.48-62.8,27.77c-1.08,0.92,0.19,2.71,1.27,1.79
						c17.32-15.11,38.89-25.14,61.64-28.59C468.52,181.19,468.37,180.29,467.78,180.32L467.78,180.32z"/>
				</g>
				<g>
					<path class="st15" d="M465.35,207.44c-20.06,0.41-40.14,1.23-60.24,1.94c-1.22,0.02-1.01,1.94,0.16,1.88
						c20.04-1,40.09-1.9,60.1-3.24C465.81,207.98,465.75,207.45,465.35,207.44L465.35,207.44z"/>
				</g>
				<g>
					<path class="st15" d="M459.64,197.62c-9.25,0.19-18.6,2.16-27.62,4.12c-4.23,0.92-8.43,1.93-12.56,3.07
						c-2.18,0.62-4.35,1.24-6.53,1.86c-2.4,0.72-5.03,1.29-7.24,2.45c-0.75,0.41-0.65,1.76,0.4,1.63c4.17-0.71,8.29-2.58,12.36-3.76
						c4.3-1.27,8.67-2.42,13.06-3.47c9.29-2.26,18.77-3.43,28.09-5.35C460.02,198.03,459.98,197.59,459.64,197.62L459.64,197.62z"/>
				</g>
				<g>
					<path class="st15" d="M436.94,159.33c-2.64,3.72-4.94,7.81-7.35,11.67c-2.81,4.49-5.72,9.01-8.76,13.35
						c-5.63,8.25-11.63,16.19-17.94,23.84c-1.02,1.2,0.83,2.72,1.85,1.52c6.34-7.72,12.22-15.72,17.75-24.05
						c5.45-8.21,11.34-16.86,15.06-26.02C437.67,159.32,437.2,158.93,436.94,159.33L436.94,159.33z"/>
				</g>
				<g>
					<path class="st15" d="M449.78,223.35c-15.5-4.16-30.61-8.8-45.27-15.41c-1.25-0.56-2.2,1.41-0.91,1.92
						c14.61,6.42,30.25,11.88,45.99,14.42C450.27,224.47,450.4,223.51,449.78,223.35L449.78,223.35z"/>
				</g>
				<g>
					<path class="st15" d="M412.72,175.98c-3.47,4.39-5.34,10.3-6.78,15.68c-1.64,6.06-2.25,12.29-2.08,18.54
						c0.06,1.66,2.66,1.39,2.6-0.27c-0.17-5.76,0.31-11.52,1.5-17.14c1.21-5.77,3.69-10.88,5.6-16.35
						C413.67,176.02,413.07,175.56,412.72,175.98L412.72,175.98z"/>
				</g>
				<g>
					<path class="st15" d="M444.97,223.41c-0.4,2.25,1.22,4.5,3.47,4.9c2.25,0.4,4.5-1.22,4.9-3.47c0.4-2.25-1.22-4.5-3.47-4.9
						C447.62,219.54,445.37,221.16,444.97,223.41L444.97,223.41z"/>
				</g>
				<g>
					<path class="st15" d="M461.63,206.82c-0.38,2.34,1.24,4.6,3.55,5.03c2.34,0.38,4.6-1.24,5.03-3.55
						c0.38-2.34-1.24-4.6-3.55-5.03C464.36,202.84,462.07,204.51,461.63,206.82L461.63,206.82z"/>
				</g>
				<g>
					<path class="st15" d="M460.54,194.08c-0.74-0.48-0.99-0.72-1.86-0.87s-1.22,0.02-2.07,0.2c-0.26,0.15-0.62,0.33-0.88,0.49
						c-0.56,0.37-0.98,0.9-1.3,1.51c-0.56,1.25-0.43,2.8,0.36,3.95c1.22,1.75,3.71,2.15,5.46,0.93c0.86-0.58,1.45-1.49,1.62-2.51
						c0.14-0.72,0.05-1.34-0.2-2.07C461.44,195.06,461.04,194.56,460.54,194.08L460.54,194.08z"/>
				</g>
				<g>
					<path class="st15" d="M463.38,179.75c-0.36,2.19,1.12,4.28,3.28,4.7c2.19,0.36,4.28-1.12,4.7-3.28
						c0.36-2.19-1.12-4.28-3.28-4.7C465.83,176.07,463.75,177.56,463.38,179.75L463.38,179.75z"/>
				</g>
				<g>
					<path class="st15" d="M432.53,158.27c-0.89,5.4,7.48,6.83,8.37,1.43C441.83,154.24,433.46,152.81,432.53,158.27L432.53,158.27z
						"/>
				</g>
				<g>
					<path class="st15" d="M417.37,176.55c0,0,0.04-0.06-0.02-0.09c0.16-0.87,0.07-1.73-0.27-2.6c-0.14-0.41-0.37-0.8-0.64-1.14
						c0.4,0.5-0.65-0.74-0.9-0.98c-1.43-1.16-3.38-1.53-5.16-0.9c-1.72,0.67-3.02,2.18-3.31,4.01c-0.29,1.83,0.4,3.65,1.79,4.87
						c1.43,1.16,3.44,1.57,5.16,0.9c0.86-0.33,1.59-0.84,2.12-1.54C416.85,178.23,417.21,177.41,417.37,176.55L417.37,176.55z"/>
				</g>
				<path class="st17" d="M402.38,191.54c0,0-2.49,11.65-1.23,20.62c1.22,9.03,21.5,15.3,21.5,15.3L402.38,191.54z"/>
			</g>
		</g>
	</g>
	<g>
		<path class="st3" d="M368.74,515.26c0,0-0.02-0.04-0.05-0.11C367.94,514.8,368.74,515.26,368.74,515.26z"/>
		<path class="st3" d="M517.3,451.18c-2.65-5.72-6.37-10.89-10.87-15.28c9.73-30.21-7.73-68.42-40.21-74.88
			c1.09-19.91-6.94-40.35-23.59-52.19c-6.34-4.51-13.67-7.2-21.38-8.06c-0.59-0.07-1.08,0.04-1.46,0.26
			c-1.31-1.43-1.7-2.77-1.7-2.77s-4.57-9.36-18.56-17.9s-29.77-4.06-34.75-2.78c-0.55,0.14-1.04,0.22-1.48,0.26
			c-7.94-32.21-46.76-48.66-76.89-38.42c-8.88,3.02-16.95,7.94-24.01,14.06c-23.6-10.34-51.74-2.86-66.38,18.68
			c-0.27,0.39-0.41,0.78-0.45,1.15c-1.45,0.35-2.51,0.3-2.51,0.3s0.74-2.13-19.05,2.84c-19.78,4.97-24.54,22.75-26.42,27.7
			c-0.15,0.4-0.32,0.76-0.51,1.09c-0.55-0.37-1.24-0.55-2.05-0.39c-27.47,5.35-45.85,32.11-41.46,59.57
			c-26.64,10.68-41.05,38.46-41.51,66.22c0,0-0.01,0.01-0.01,0.01c-16.64,16.08-22.12,40.75-12.76,62.07
			c8.3,18.91,26.97,31.71,47.22,34.38c14.11,1.86,28.53-1.08,40.77-8.35c0.51-0.3,0.84-0.69,1.05-1.11c0.76,0.19,1.23,0.4,1.23,0.4
			s11.05,3.46,20.11,4.82c9.06,1.36,21.2,1.2,30.02-4.35c8.82-5.55,10.96-0.81,10.96-0.81s10.46,7.12,18.58,12.62
			c8.12,5.5,20.49,4.79,27.39,3.55c6.9-1.25,23.84-7.66,28.74-14.65c4.89-6.98,6.91-1.66,6.91-1.66s6.52,6.77,21.83,13.1
			c15.31,6.33,29.71,2.03,37.21,0c7.5-2.03,17.63-8.71,21.8-13.95c3.74-4.7,5.3-2.13,5.58-1.55c0.68,0.33,2.65,1.35,7.69,4.07
			c10.56,5.68,24.09,6.48,35.5,5.29c11.41-1.2,21.47-4.95,24.7-7.99c0.88-0.82,1.71-1.35,2.54-1.61c-0.05,0.87,0.29,1.76,1.21,2.38
			c20.28,13.65,47.86,11.42,65.58-5.41C522.25,496.37,526.75,471.56,517.3,451.18z"/>
	</g>
	<g>
		<path class="st3" d="M107.95,341.08c0,0,3.26-14.77,14.8-22.18c11.54-7.4,18.34-9.94,18.34-9.94s4.62,0.55,6.51-4.4
			c1.88-4.95,6.64-22.73,26.42-27.7s19.05-2.84,19.05-2.84s5.57,0.24,8.61-4.52c3.04-4.76,14.65-15.7,29.43-16.88
			c14.77-1.18,28.33,2.88,28.33,2.88s2.38,3.64,10.04-3.1c7.65-6.74,19.32-13.52,37.52-12.39c18.2,1.13,29.44,5.13,37.34,13.29
			c7.9,8.15,14.61,17.83,14.61,17.83l0.92,4.69c0,0-0.05,3.45,4.93,2.17c4.98-1.28,20.76-5.76,34.75,2.78
			c13.99,8.55,18.56,17.9,18.56,17.9s1.25,4.24,6.69,5.7c5.44,1.46,26.16,8.83,32.49,26.06c6.32,17.23,6.37,24.48,6.37,24.48
			l0.07,5.09c0,0,0.05,2.35,4.73,4.67c4.69,2.32,21.35,6.02,29.89,23.68c8.55,17.66,9.47,27.71,8.25,34.73
			c-1.23,7.02-4.33,13.66-1.57,15.55c2.75,1.89,15.18,17.58,14.61,33.51c-0.57,15.94-6.23,27.27-11.81,34.22
			c-5.57,6.94-12.97,13.86-26.53,16.36c-13.55,2.5-30.01-0.61-34.46-4.26c-4.45-3.65-7-4.57-10.24-1.54
			c-3.24,3.03-13.29,6.79-24.7,7.99c-11.41,1.2-24.94,0.39-35.5-5.29c-10.56-5.68-7.64-3.96-7.64-3.96s-1.46-3.79-5.63,1.44
			c-4.17,5.24-14.3,11.91-21.8,13.95c-7.5,2.03-21.9,6.33-37.21,0c-15.31-6.33-21.83-13.1-21.83-13.1s-2.01-5.32-6.91,1.66
			c-4.89,6.98-21.83,13.4-28.74,14.64c-6.9,1.25-19.28,1.95-27.39-3.55c-8.12-5.49-20.72-17.36-29.54-11.8
			c-8.82,5.55-20.96,5.71-30.02,4.35c-9.06-1.36-20.11-4.82-20.11-4.82s-4.8-2.17-8.79,1.17c-3.99,3.35-34.02,11.33-51.76,0
			c-17.73-11.34-28.42-22.83-30.92-39.42c-2.5-16.59,0.71-26.19,5.24-33.32c4.54-7.12,7.3-10.51,7.3-10.51s3.56-2.68,4.13-8.78
			c0.57-6.1,3.27-29.76,15-41.37c11.73-11.61,19.56-16.56,19.56-16.56s7.17-0.68,6.69-6.45
			C105.56,357.47,107.55,344.88,107.95,341.08z"/>
		<g>
			<path class="st4" d="M374.35,484.69c3.42-1.73,7.1-1.77,10.8-1c3.88,0.81,8.14,2.31,10.96,5.21c5.7,5.86,5.99,14.86,5.67,22.51
				c-0.11,2.61,3.95,3.14,4.06,0.5c0.38-9.18-0.23-19.53-7.28-26.31c-3.38-3.25-8.08-4.91-12.59-5.91
				c-4.44-0.98-9.13-0.84-13.24,1.24C370.39,482.12,371.99,485.89,374.35,484.69L374.35,484.69z"/>
		</g>
		<g>
			<path class="st4" d="M172.57,506.41c-1.73-3.42-1.77-7.1-1-10.8c0.81-3.88,2.31-8.14,5.21-10.96c5.86-5.7,14.86-5.99,22.51-5.67
				c2.61,0.11,3.14-3.95,0.5-4.06c-9.18-0.38-19.53,0.23-26.31,7.28c-3.25,3.38-4.91,8.08-5.91,12.59
				c-0.98,4.44-0.84,9.13,1.24,13.24C170,510.37,173.77,508.77,172.57,506.41L172.57,506.41z"/>
		</g>
		<circle class="st0" cx="283.66" cy="423.35" r="109.86"/>
		<path class="st3" d="M339.76,334.36c-0.75-1.43-2.16-1.6-3.28-1.06c-1.36-3.24-2.59-6.41-2.44-7.19c0.33-1.7-0.45-5.28-0.45-5.28
			s-12.53,0.74-17.03,0c-4.5-0.74-20.95-5.53-23.59-7.34c-2.64-1.81-4.73-3.39-6.52,0c-1.79,3.4-4.05,6.5-13.83,12.43
			c-9.79,5.93-13.65,8.09-17.13,8.19c-3.48,0.09-11.79-1.14-11.79-1.14s-0.03-0.01-0.08-0.01c-0.78-2.51-5.16-2.2-5.24,0.91
			c-0.41,15.24,6.38,33.42,22.3,37.95c9.24,2.63,23.31,1.59,25.9-9.72c0.04-0.18,0.08-0.36,0.11-0.54c1.44,0.37,2.89,0.66,4.35,0.87
			c6.41,0.9,13.67,0.21,18.88-3.99c1.3-1.05,2.37-2.31,3.2-3.7c4.97,3.42,11.06,5.64,17.13,4.54c7.04-1.27,11.75-7.17,12.12-14.19
			C342.56,341.32,341.48,337.66,339.76,334.36z"/>
		<path class="st3" d="M197.36,359.63c0,0,28.78,18.65,62.19-16.33c0,0,33.3-34.53-8.03-34.98
			C210.19,307.86,195.22,341.9,197.36,359.63z"/>
		<path class="st3" d="M325.66,342.25c0,0,5.97,36.21,52.98,36.35c0,0,29.02-33.93,2.9-56.5S325.66,314.94,325.66,342.25z"/>
		<path class="st3" d="M305.8,290.52l-33.2,35.39c0,0-8.21,12.73-34.24,7.94c0,0-9.67,12.16-34.69,21.69
			c0,0,15.76,48.08-40.64,51.67C163.03,407.22,141.07,278.44,305.8,290.52z"/>
		<path class="st3" d="M378.64,378.61c0,0-19.47,47.1,4.14,55.32c23.61,8.21,67.43-1.06,43.12-40.93S378.64,378.61,378.64,378.61z"
			/>
		<path class="st3" d="M334.68,302.74c0,0-18.81,44.15,30.62,54.7c0,0-14.72,62.37,66.51,48.67
			C431.81,406.12,438.67,277.26,334.68,302.74z"/>
		<g>
			<path class="st4" d="M285.31,309.53c-4.52,7.79-11.55,13.95-19.73,17.68c-9.51,4.34-20.11,4.38-29.94,1.09
				c-3.28-1.1-4.68,4.08-1.42,5.17c10.99,3.68,22.71,3.36,33.33-1.3c9.27-4.07,17.3-11.18,22.39-19.94
				C291.67,309.25,287.05,306.55,285.31,309.53L285.31,309.53z"/>
		</g>
		<g>
			<path class="st4" d="M272.15,279.54c-0.21,5.54,1.17,11.43,3.2,16.53c4.6,11.57,13.78,19.99,25.51,24.09
				c10.21,3.57,21.36,3.84,32.03,2.84c3.4-0.32,3.44-5.68,0-5.36c-15.1,1.41-32.48,0.33-44.06-10.72
				c-6.25-5.96-9.75-13.91-10.99-22.35c-0.11-0.74,0.07,0.57-0.02-0.15c-0.02-0.2-0.05-0.41-0.07-0.61
				c-0.04-0.37-0.08-0.74-0.11-1.12c-0.05-0.55-0.08-1.1-0.1-1.65c-0.02-0.5-0.03-1-0.02-1.51
				C277.64,276.09,272.28,276.1,272.15,279.54L272.15,279.54z"/>
		</g>
		<g>
			<path class="st4" d="M421.55,404.43c-15.06,7.23-33.46,4.08-45.08-7.95c-10.77-11.15-13.69-28.43-6.82-42.42
				c4.05-8.24,10.82-14.55,19.13-18.37c3.13-1.44,0.41-6.06-2.7-4.63c-16.93,7.77-27.48,25.86-25.19,44.47
				c2.1,17.03,14.46,31.4,30.87,36.31c10.79,3.23,22.38,2.06,32.5-2.79C427.37,407.56,424.65,402.94,421.55,404.43L421.55,404.43z"
				/>
		</g>
		<g>
			<path class="st4" d="M402.15,412.91c-0.78-0.99,0.19,0.28,0.44,0.62c0.7,0.99,1.36,2.01,2,3.05c2.11,3.44,3.95,7.08,5.39,10.85
				c4.23,11.08,5.22,23.18,1.05,34.45c-3.24,8.77-9.4,16.04-16.41,22.07c-2.62,2.25,1.19,6.03,3.79,3.79
				c12.28-10.56,20.83-24.91,20.71-41.44c-0.08-10.9-3.62-21.66-9.07-31.03c-1.24-2.13-2.58-4.21-4.1-6.15
				C403.81,406.41,400.04,410.22,402.15,412.91L402.15,412.91z"/>
		</g>
		<g>
			<path class="st4" d="M365.3,357.44c-11.32-3.71-20.92-12.05-25.56-23.11c-4.56-10.88-3.92-23.55,1.7-33.91
				c11.56-21.31,39.93-28.15,60.28-15.3c10.98,6.93,18.08,18.8,18.81,31.77c0.19,3.43,5.55,3.45,5.36,0
				c-0.73-13.05-6.91-25.19-17.17-33.33c-10.53-8.35-24.11-11.78-37.37-9.81c-27.04,4.01-46.12,31.51-38.13,58.17
				c4.41,14.7,16.2,25.96,30.66,30.7C367.16,363.69,368.57,358.51,365.3,357.44L365.3,357.44z"/>
		</g>
		<g>
			<path class="st4" d="M366.68,310.38c11.86-10.35,28.97-11.84,42.36-3.57c12.95,8,19.94,23.16,19.11,38.17
				c-0.53,9.59-4.4,18.8-10.92,25.85c-2.34,2.53,1.44,6.33,3.79,3.79c13.01-14.08,16.01-34.94,8.23-52.35
				c-6.59-14.74-21.05-25.51-37.36-26.22c-10.72-0.47-20.97,3.54-29,10.54C360.29,308.87,364.09,312.64,366.68,310.38L366.68,310.38
				z"/>
		</g>
		<path class="st3" d="M419.04,397c0,0,23.96,7.03,22.64,43.17c-1.31,36.14-14.41,46.27-18.78,56.51
			c-4.37,10.25,16.62,21.73,30.6,7.33c13.97-14.4,26.76-45.38,19.87-73.81c-6.9-28.43-15.82-36.08-31.68-46.44
			C425.82,373.41,405.74,383.45,419.04,397z"/>
		<g>
			<path class="st4" d="M394.67,375.48c19.06-2.43,38.19,3.27,52.67,15.96c13.87,12.15,22.79,29.49,24.93,47.79
				c2.22,18.92-2.32,38.28-13.24,53.94c-10.29,14.76-26.1,25.35-43.86,28.58c-23.42,4.26-36.97,2.69-52.41-15.04
				c-2.27-2.6-6.05,1.2-3.79,3.79c14.88,17.09,27.07,19.12,49.85,17.41c19.21-1.44,37.13-10.81,49.67-25.38
				c26.81-31.15,25.96-80.11-2.34-110.05c-15.77-16.68-38.63-25.27-61.48-22.36C391.29,370.55,391.25,375.92,394.67,375.48
				L394.67,375.48z"/>
		</g>
		<path class="st3" d="M94.85,431.89c0,0,9.61-35.26,29.06-46.62c19.45-11.36,28.11-13.98,36.14-14.45
			c8.03-0.47,15.06,1.33,13.55,5.6s-27.36,10.43-32.37,26.67c-5.02,16.25-15.06,43.73-4.27,64.62
			c10.79,20.89,18.82,42.22,11.29,43.73c-7.53,1.51-45.05-11.45-51.01-39.98C91.28,442.93,92.85,440.17,94.85,431.89z"/>
		<g>
			<g>
				<path class="st4" d="M144.71,407.15c17.1,8.2,37.94,5.11,51.33-8.54c12.53-12.77,15.81-32.28,8.23-48.47
					c-4.34-9.27-12.11-16.72-21.38-20.97c-3.11-1.43-5.84,3.19-2.7,4.63c14.99,6.88,24.35,22.19,22.66,38.76
					c-1.51,14.78-12.31,27.54-26.38,32.02c-9.56,3.04-20.01,2.3-29.06-2.04C144.32,401.04,141.6,405.66,144.71,407.15L144.71,407.15
					z"/>
			</g>
			<g>
				<path class="st4" d="M163.03,407.22c-11.75,14.93-16.98,36.82-10.01,54.83c3.63,9.38,9.96,17.27,17.54,23.79
					c2.6,2.24,6.41-1.54,3.79-3.79c-11.51-9.89-19.52-23.02-19.12-38.55c0.25-9.77,3.57-19.35,8.49-27.72
					c0.75-1.28,1.55-2.54,2.39-3.76c0.28-0.41,1.47-1.97,0.71-1.01C168.93,408.32,165.17,404.51,163.03,407.22L163.03,407.22z"/>
			</g>
			<g>
				<path class="st4" d="M205.09,360.71c12.77-4.18,23.55-13.42,28.88-25.86c5.28-12.33,4.71-26.53-1.49-38.42
					c-12.7-24.35-45.3-32.4-68.24-17.65c-12.47,8.02-20.33,21.41-21.16,36.21c-0.19,3.45,5.17,3.43,5.36,0
					c1.37-24.37,24.78-41.66,48.51-37.87c23.74,3.8,40.61,27.48,33.75,51.1c-3.78,13.03-14.24,23.13-27.02,27.32
					C200.41,356.61,201.8,361.79,205.09,360.71L205.09,360.71z"/>
			</g>
			<g>
				<path class="st4" d="M206.08,304.69c-13.63-11.91-33.34-13.99-48.86-4.41c-14.61,9.02-22.86,26.22-21.74,43.24
					c0.71,10.9,5.05,21.17,12.47,29.2c2.35,2.54,6.13-1.26,3.79-3.79c-11.29-12.21-14.09-30.68-7.39-45.86
					c5.7-12.9,18.04-22.76,32.38-23.54c9.4-0.51,18.5,2.78,25.56,8.95C204.88,310.74,208.69,306.97,206.08,304.69L206.08,304.69z"/>
			</g>
			<g>
				<path class="st4" d="M174.3,368.22c-18.65-2.38-37.52,2.82-52.43,14.24c-14.26,10.92-24.35,26.78-28.64,44.2
					c-8.76,35.58,7.12,75.7,40.66,92.19c20.74,10.19,45.18,9.52,65.48-1.48c3.03-1.64,0.33-6.27-2.7-4.63
					c-17.12,9.27-37.52,10.62-55.64,3.46c-15.24-6.03-27.77-17.88-35.57-32.19c-16.53-30.32-10.53-70.19,15.13-93.55
					c14.6-13.29,34.15-19.38,53.71-16.88C177.72,374.01,177.68,368.65,174.3,368.22L174.3,368.22z"/>
			</g>
		</g>
		<path class="st4" d="M179.43,417.63c0,0-1.45-48.42,46.42-48.42c25.45,0,37.9,36.79,37.9,36.79s-12.05-37.64-45.13-31.22
			C184,381.49,179.43,417.63,179.43,417.63z"/>
		<path class="st4" d="M366.7,421.68c0,0,1.09-56.68-38.93-56.67c-42.37,0-44.2,38.23-44.2,38.23s8.98-37.53,47.35-32.76
			C367.64,375.04,366.7,421.68,366.7,421.68z"/>
		<g>
			<g>
				<path class="st5" d="M156.54,313.17c-11.75,10.4-14.47,28.06-7.1,41.78c1.63,3.04,6.26,0.34,4.63-2.7
					c-6.29-11.7-3.67-26.49,6.27-35.28C162.91,314.67,159.11,310.89,156.54,313.17L156.54,313.17z"/>
			</g>
			<g>
				<path class="st5" d="M178.42,305.76c-4.42-0.38-8.94,0.31-13.05,1.98c-0.67,0.27-1.22,0.58-1.6,1.23
					c-0.34,0.57-0.48,1.42-0.27,2.06c0.4,1.25,1.91,2.44,3.3,1.87c1.89-0.77,3.85-1.34,5.87-1.66c0.11-0.02,0.22-0.04,0.33-0.05
					c-0.34,0.04-0.36,0.05-0.04,0.01c0.22-0.03,0.45-0.05,0.67-0.07c0.53-0.05,1.05-0.08,1.58-0.1c1.07-0.04,2.15,0,3.22,0.09
					c1.4,0.12,2.74-1.32,2.68-2.68C181.03,306.89,179.92,305.89,178.42,305.76L178.42,305.76z"/>
			</g>
			<g>
				<path class="st5" d="M268.66,366.35c1.72,0.13,3.45,0.13,5.17,0.04c0.71-0.04,1.38-0.27,1.89-0.78
					c0.46-0.46,0.81-1.23,0.78-1.89c-0.03-0.69-0.26-1.41-0.78-1.89c-0.51-0.47-1.18-0.82-1.89-0.78c-1.72,0.1-3.45,0.1-5.17-0.04
					c-0.65-0.05-1.44,0.33-1.89,0.78c-0.46,0.46-0.81,1.23-0.78,1.89c0.03,0.69,0.26,1.41,0.78,1.89
					C267.31,366.07,267.91,366.29,268.66,366.35L268.66,366.35z"/>
			</g>
			<g>
				<path class="st5" d="M245.45,342.67c0.01,6.15,2.78,12.72,7.14,17.01c2.29,2.24,5.01,3.84,7.98,4.99
					c1.35,0.52,2.94-0.58,3.3-1.87c0.42-1.51-0.52-2.77-1.87-3.3c-0.17-0.07-0.35-0.13-0.52-0.2c0.06,0.02,0.29,0.13,0.01,0
					c-0.28-0.13-0.56-0.26-0.84-0.4c-0.53-0.27-1.05-0.56-1.56-0.88c-0.48-0.3-0.95-0.62-1.41-0.97c0.39,0.3-0.17-0.15-0.29-0.24
					c-0.23-0.2-0.46-0.4-0.69-0.61c-0.38-0.36-0.75-0.73-1.1-1.12c-0.15-0.16-0.29-0.33-0.43-0.49c-0.09-0.11-0.18-0.22-0.27-0.33
					c-0.25-0.3,0.26,0.35,0.03,0.04c-0.59-0.79-1.13-1.62-1.61-2.49c-0.2-0.37-0.39-0.74-0.57-1.12c-0.09-0.2-0.18-0.4-0.27-0.6
					c-0.06-0.13-0.17-0.47,0.05,0.13c-0.04-0.11-0.09-0.22-0.14-0.34c-0.28-0.75-0.55-1.5-0.77-2.28c-0.2-0.69-0.36-1.4-0.5-2.1
					c-0.06-0.29-0.11-0.59-0.16-0.89c-0.02-0.12-0.03-0.23-0.05-0.35c-0.01-0.06,0.08,0.73,0.03,0.18
					c-0.06-0.59-0.13-1.18-0.13-1.77c0-1.45-1.23-2.68-2.68-2.68C246.68,339.99,245.45,341.22,245.45,342.67L245.45,342.67z"/>
			</g>
			<g>
				<path class="st5" d="M289.94,357.11c2.38,0.49,4.89,0.65,7.31,0.51c0.71-0.04,1.38-0.27,1.89-0.78
					c0.46-0.46,0.81-1.23,0.78-1.89c-0.03-0.69-0.26-1.41-0.78-1.89c-0.51-0.46-1.19-0.83-1.89-0.78c-1.78,0.11-3.58,0.02-5.35-0.21
					c0.24,0.03,0.47,0.06,0.71,0.1c-0.42-0.06-0.83-0.12-1.25-0.2c-0.71-0.15-1.43-0.1-2.06,0.27c-0.56,0.33-1.09,0.96-1.23,1.6
					c-0.16,0.69-0.12,1.46,0.27,2.06C288.71,356.44,289.26,356.97,289.94,357.11L289.94,357.11z"/>
			</g>
			<g>
				<path class="st5" d="M230.08,257.08c-6.34,0.86-12.48,3.16-17.83,6.68c-1.21,0.79-1.72,2.37-0.96,3.67
					c0.7,1.2,2.45,1.76,3.67,0.96c5.07-3.33,10.45-5.32,16.55-6.14c1.39-0.19,2.28-2.05,1.87-3.3
					C232.88,257.41,231.57,256.88,230.08,257.08L230.08,257.08z"/>
			</g>
			<g>
				<path class="st5" d="M247.18,258.38c-2.49-0.57-5.02-0.96-7.57-1.19c-0.65-0.06-1.45,0.34-1.89,0.78
					c-0.46,0.46-0.81,1.23-0.78,1.89c0.03,0.69,0.26,1.41,0.78,1.89c0.55,0.51,1.15,0.72,1.89,0.78c0.75,0.07,1.51,0.15,2.26,0.26
					c-0.24-0.03-0.47-0.06-0.71-0.1c1.54,0.21,3.08,0.49,4.59,0.84c0.7,0.16,1.44,0.1,2.06-0.27c0.56-0.33,1.09-0.96,1.23-1.6
					C249.36,260.31,248.64,258.72,247.18,258.38L247.18,258.38z"/>
			</g>
			<g>
				<path class="st5" d="M286.01,295.27c3.54,6.53,9.11,11.73,15.8,14.93c1.26,0.6,2.95,0.39,3.67-0.96
					c0.63-1.2,0.39-3.02-0.96-3.67c-1.75-0.84-3.44-1.8-5.03-2.92c-0.16-0.11-0.33-0.23-0.49-0.35c-0.06-0.05-0.63-0.47-0.39-0.29
					c0.27,0.2-0.23-0.18-0.28-0.22c-0.18-0.14-0.36-0.29-0.54-0.44c-0.66-0.55-1.3-1.14-1.91-1.74c-0.56-0.56-1.11-1.14-1.63-1.74
					c-0.25-0.29-0.5-0.59-0.74-0.89c-0.16-0.2-0.37-0.47-0.09-0.11c-0.12-0.16-0.25-0.33-0.37-0.49c-0.89-1.22-1.69-2.5-2.41-3.83
					c-0.67-1.23-2.48-1.73-3.67-0.96C285.72,292.41,285.29,293.95,286.01,295.27L286.01,295.27z"/>
			</g>
			<g>
				<path class="st5" d="M281.73,282.32c0.31,2.11,0.79,4.2,1.43,6.24c0.21,0.66,0.63,1.25,1.23,1.6c0.57,0.34,1.42,0.48,2.06,0.27
					c0.65-0.21,1.27-0.61,1.6-1.23c0.33-0.62,0.49-1.37,0.27-2.06c-0.65-2.04-1.13-4.12-1.43-6.24c-0.09-0.62-0.72-1.3-1.23-1.6
					c-0.57-0.34-1.42-0.48-2.06-0.27c-0.65,0.21-1.27,0.61-1.6,1.23c-0.09,0.21-0.18,0.43-0.27,0.64
					C281.61,281.37,281.61,281.84,281.73,282.32L281.73,282.32z"/>
			</g>
			<g>
				<g>
					<path class="st5" d="M116.64,354.93c-0.37-6.75,1.62-13.46,5.85-18.71c0.91-1.12,1.1-2.69,0-3.79c-0.94-0.94-2.88-1.13-3.79,0
						c-5.14,6.37-7.88,14.28-7.42,22.5c0.08,1.44,1.17,2.68,2.68,2.68C115.35,357.61,116.72,356.38,116.64,354.93L116.64,354.93z"/>
				</g>
				<g>
					<path class="st5" d="M120.37,366.94c-0.69-1.17-1.3-2.38-1.83-3.63c0.09,0.21,0.18,0.43,0.27,0.64
						c-0.35-0.84-0.67-1.7-0.95-2.57c-0.21-0.66-0.63-1.25-1.23-1.6c-0.57-0.34-1.42-0.48-2.06-0.27c-0.65,0.21-1.27,0.61-1.6,1.23
						c-0.33,0.62-0.49,1.37-0.27,2.06c0.76,2.38,1.78,4.69,3.05,6.84c0.34,0.58,0.95,1.05,1.6,1.23c0.64,0.18,1.5,0.1,2.06-0.27
						C120.62,369.82,121.13,368.23,120.37,366.94L120.37,366.94z"/>
				</g>
			</g>
			<g>
				<g>
					<path class="st5" d="M76.73,439.42c-0.24-2.5-0.28-5.01-0.12-7.52c0.09-1.4-1.29-2.74-2.68-2.68
						c-1.53,0.07-2.59,1.18-2.68,2.68c-0.16,2.51-0.12,5.02,0.12,7.52c0.07,0.73,0.25,1.36,0.78,1.89c0.46,0.46,1.23,0.81,1.89,0.78
						c0.69-0.03,1.41-0.26,1.89-0.78C76.4,440.81,76.79,440.11,76.73,439.42L76.73,439.42z"/>
				</g>
				<g>
					<path class="st5" d="M81.08,456.94c-0.2-0.42-0.39-0.85-0.58-1.27c-0.12-0.27-0.11-0.25,0.03,0.09
						c-0.05-0.12-0.1-0.25-0.15-0.37c-0.08-0.19-0.15-0.37-0.22-0.56c-0.36-0.91-0.68-1.84-0.97-2.78c-0.59-1.88-1.04-3.8-1.37-5.74
						c-0.24-1.38-2.01-2.29-3.3-1.87c-1.49,0.48-2.13,1.81-1.87,3.3c0.71,4.14,2.01,8.12,3.8,11.91c0.6,1.27,2.52,1.7,3.67,0.96
						C81.43,459.76,81.73,458.3,81.08,456.94L81.08,456.94z"/>
				</g>
			</g>
			<g>
				<g>
					<path class="st5" d="M102.42,432.25c-5.56,26.79,4.9,55.27,28.21,70.23c2.91,1.87,5.6-2.77,2.7-4.63
						c-21.21-13.61-30.81-39.82-25.75-64.18C108.29,430.31,103.12,428.88,102.42,432.25L102.42,432.25z"/>
				</g>
				<g>
					<path class="st5" d="M109.51,413.63c-1.57,2.79-2.92,5.7-4.09,8.68c-0.24,0.61-0.05,1.53,0.27,2.06
						c0.33,0.56,0.96,1.09,1.6,1.23c0.69,0.16,1.46,0.12,2.06-0.27c0.62-0.4,0.96-0.92,1.23-1.6c0.2-0.52,0.41-1.04,0.63-1.55
						c-0.09,0.21-0.18,0.43-0.27,0.64c0.94-2.22,2.01-4.39,3.19-6.49c0.69-1.22,0.33-2.98-0.96-3.67
						C111.91,412,110.25,412.33,109.51,413.63L109.51,413.63z"/>
				</g>
			</g>
			<g>
				<g>
					<path class="st5" d="M505.6,481.13c-3.26,15.58-16.87,26.96-32.84,27.07c-3.45,0.02-3.45,5.38,0,5.36
						c18.23-0.13,34.27-13.12,38-31C511.47,479.19,506.3,477.75,505.6,481.13L505.6,481.13z"/>
				</g>
				<g>
					<path class="st5" d="M505.35,466.91c0.28,1.18,0.49,2.37,0.66,3.57c-0.03-0.24-0.06-0.47-0.1-0.71
						c0.21,1.6,0.31,3.21,0.32,4.82c0,1.4,1.23,2.74,2.68,2.68c1.45-0.06,2.68-1.18,2.68-2.68c-0.01-3.06-0.37-6.13-1.07-9.11
						c-0.32-1.37-1.96-2.3-3.3-1.87C505.79,464.08,505.01,465.45,505.35,466.91L505.35,466.91z"/>
				</g>
			</g>
			<g>
				<path class="st5" d="M456.92,430.91c8.57,29.04-5.35,62.71-34.92,72.85c-3.24,1.11-1.85,6.29,1.42,5.17
					c32.3-11.07,48.1-47.47,38.67-79.44C461.11,426.19,455.94,427.59,456.92,430.91L456.92,430.91z"/>
			</g>
			<g>
				<path class="st5" d="M441.93,406.15c1.77,1.73,3.43,3.56,4.97,5.5c0.09,0.11,0.17,0.22,0.26,0.33c0.04,0.05,0.34,0.4,0.11,0.14
					c-0.25-0.28,0.13,0.17,0.17,0.23c0.08,0.11,0.17,0.22,0.25,0.34c0.38,0.51,0.75,1.02,1.11,1.54c0.73,1.04,1.42,2.11,2.08,3.19
					c0.73,1.2,2.43,1.75,3.67,0.96c1.2-0.77,1.74-2.38,0.96-3.67c-2.74-4.5-6.03-8.67-9.79-12.35c-1-0.98-2.8-1.07-3.79,0
					C440.96,403.42,440.86,405.1,441.93,406.15L441.93,406.15z"/>
			</g>
			<g>
				<path class="st5" d="M412.81,321.69c8.96,11.27,9.32,27.5,1.32,39.34c-1.94,2.86,2.7,5.55,4.63,2.7
					c9.46-13.99,8.25-32.74-2.15-45.83C414.46,315.2,410.69,319.02,412.81,321.69L412.81,321.69z"/>
			</g>
			<g>
				<path class="st5" d="M397.64,311.53c0.85,0.24,1.69,0.5,2.51,0.81c0.35,0.13,0.72,0.34,1.07,0.42
					c-0.39-0.16-0.45-0.19-0.18-0.08c0.1,0.04,0.2,0.09,0.3,0.13c0.2,0.09,0.4,0.18,0.6,0.27c1.54,0.73,3.02,1.59,4.43,2.55
					c1.16,0.79,3.02,0.26,3.67-0.96c0.72-1.36,0.28-2.82-0.96-3.67c-3.05-2.08-6.46-3.66-10.02-4.65c-1.35-0.37-2.97,0.46-3.3,1.87
					C395.45,309.65,396.2,311.13,397.64,311.53L397.64,311.53z"/>
			</g>
		</g>
		
			<ellipse transform="matrix(0.3338 -0.9426 0.9426 0.3338 -173.0474 666.3559)" class="st0" cx="384.92" cy="455.61" rx="28.21" ry="18.93"/>
		
			<ellipse transform="matrix(0.9426 -0.3338 0.3338 0.9426 -139.9309 86.2877)" class="st0" cx="181.1" cy="450.29" rx="17.68" ry="25.34"/>
		<ellipse class="st6" cx="324.66" cy="415.44" rx="42.04" ry="46.57"/>
		<ellipse class="st6" cx="222.33" cy="417.63" rx="42.91" ry="44.38"/>
		<ellipse cx="230.06" cy="420.57" rx="29.75" ry="37.32"/>
		<ellipse cx="330.34" cy="418.25" rx="35.29" ry="41"/>
		<path class="st0" d="M362.93,443.41c0,0-43.52-20.05-75.15,13.07c0,0,6.48,25.23,44.55,17.97
			C370.41,467.18,362.93,443.41,362.93,443.41z"/>
		<path class="st7" d="M266.96,442.68c0,0-23.75,1.12-11.13,21.81C255.84,464.5,251.68,451.02,266.96,442.68z"/>
		<path class="st0" d="M184.26,448.3c0,0,36.42-21.15,64.23,11.17c0,0-5.54,21.57-38.08,15.36
			C177.87,468.63,184.26,448.3,184.26,448.3z"/>
		<ellipse class="st8" cx="205.43" cy="460.81" rx="30.87" ry="12.1"/>
		<g>
			<defs>
				<path id="SVGID_5_" d="M221.64,467.84c0,0,63.9,10.01,109.76-14.05c0,0-5.55,41.82-46.86,46.5
					C237.95,505.55,221.64,467.84,221.64,467.84z"/>
			</defs>
			<clipPath id="SVGID_2_">
				<use xlink:href="#SVGID_5_"  style="overflow:visible;"/>
			</clipPath>
			<path class="st11" d="M221.64,467.84c0,0,63.9,10.01,109.76-14.05c0,0-5.55,41.82-46.86,46.5
				C237.95,505.55,221.64,467.84,221.64,467.84z"/>
			<path class="st12" d="M270.57,500.49c0,0,4.77-33.34,60.83-46.71c0,0,1.72,29.32-31.46,44.43
				C291.07,502.26,277.14,502.48,270.57,500.49z"/>
		</g>
		<ellipse class="st8" cx="337.43" cy="454.51" rx="34.16" ry="12.12"/>
	</g>
	<g>
		<g>
			<path class="st4" d="M123.9,387.81c-0.22,0-0.44-0.02-0.66-0.08c-18.22-4.18-22.37-21.92-22.54-22.67
				c-0.35-1.59,0.65-3.17,2.24-3.52c1.59-0.35,3.16,0.64,3.52,2.23c0.14,0.63,3.58,14.88,18.11,18.21c1.59,0.36,2.58,1.95,2.21,3.53
				C126.46,386.88,125.25,387.81,123.9,387.81z"/>
		</g>
		<g>
			<path class="st4" d="M77.01,472.92c-0.57,0-1.14-0.16-1.65-0.5c-18.4-12.4-16.33-40.81-16.24-42.01c0.13-1.62,1.55-2.84,3.18-2.7
				c1.62,0.13,2.83,1.55,2.7,3.17l0,0c-0.02,0.26-1.87,26.19,13.65,36.65c1.35,0.91,1.71,2.74,0.8,4.09
				C78.88,472.46,77.95,472.92,77.01,472.92z"/>
		</g>
		<g>
			<path class="st4" d="M444.33,387.81c-1.34,0-2.56-0.92-2.87-2.29c-0.36-1.59,0.63-3.17,2.21-3.53
				c14.54-3.34,17.97-17.61,18.11-18.21c0.36-1.58,1.94-2.58,3.53-2.22c1.59,0.36,2.58,1.93,2.23,3.51
				c-0.17,0.75-4.32,18.49-22.54,22.67C444.77,387.78,444.54,387.81,444.33,387.81z"/>
		</g>
		<g>
			<path class="st4" d="M491.22,472.92c-0.95,0-1.88-0.46-2.45-1.3c-0.91-1.35-0.55-3.18,0.8-4.09
				c15.57-10.49,13.67-36.38,13.65-36.64c-0.13-1.62,1.08-3.05,2.7-3.18c1.63-0.13,3.05,1.08,3.18,2.7
				c0.1,1.2,2.16,29.61-16.24,42.01C492.37,472.75,491.79,472.92,491.22,472.92z"/>
		</g>
		<g>
			<path class="st4" d="M254.71,298.54c-1.17,0-2.28-0.7-2.74-1.86c-5.83-14.66-3.25-26.2-0.06-33.3
				c3.47-7.73,8.37-11.97,8.58-12.15c1.24-1.06,3.1-0.91,4.16,0.32c1.06,1.24,0.91,3.09-0.32,4.15c-0.07,0.06-4.24,3.74-7.14,10.32
				c-3.85,8.76-3.76,18.33,0.27,28.46c0.6,1.51-0.14,3.23-1.65,3.83C255.44,298.48,255.07,298.54,254.71,298.54z"/>
		</g>
		<g>
			<path class="st4" d="M243.21,359.26c-0.86,0-1.72-0.38-2.3-1.1c-10.27-12.81-9.66-24.79-9.63-25.29c0.1-1.63,1.5-2.86,3.13-2.76
				c1.62,0.1,2.86,1.49,2.76,3.11c0,0.07-0.11,2.64,0.85,6.5c0.89,3.58,2.91,9.04,7.49,14.75c1.02,1.27,0.81,3.13-0.46,4.15
				C244.51,359.05,243.86,359.26,243.21,359.26z"/>
		</g>
		<g>
			<path class="st4" d="M293.28,365.01c-2.04,0-4.06-0.23-6.07-0.7c-15.74-3.67-24.26-20.45-24.61-21.16
				c-0.73-1.46-0.13-3.23,1.32-3.96c1.46-0.73,3.23-0.13,3.95,1.32c0.1,0.2,7.7,15.05,20.7,18.06c7.15,1.66,14.8-0.57,22.74-6.61
				c1.3-0.99,3.15-0.74,4.13,0.56c0.99,1.3,0.74,3.15-0.56,4.13C307.59,362.21,300.34,365.01,293.28,365.01z"/>
		</g>
		<g>
			<path class="st4" d="M333.05,361c-0.61,0-1.23-0.19-1.75-0.58c-5.13-3.8-8-15.61-8.52-17.94c-0.36-1.59,0.64-3.17,2.23-3.52
				c1.59-0.36,3.17,0.64,3.52,2.23l0,0c1.11,4.91,3.78,12.64,6.27,14.49c1.31,0.97,1.58,2.82,0.61,4.13
				C334.84,360.58,333.95,361,333.05,361z"/>
		</g>
		<g>
			<path class="st4" d="M313.1,357.26c-0.41,0-0.83-0.09-1.23-0.27c-20.34-9.32-16.64-23.82-16.47-24.43
				c0.43-1.57,2.05-2.5,3.62-2.07c1.56,0.43,2.48,2.03,2.07,3.59c-0.12,0.48-2.32,10.42,13.23,17.54c1.48,0.68,2.13,2.43,1.45,3.91
				C315.29,356.62,314.22,357.26,313.1,357.26z"/>
		</g>
	</g>
	<path d="M173.57,349.32c0,0,27.74-57.5,59.49-0.2C233.06,349.13,209.27,314.9,173.57,349.32z"/>
	<path d="M349.16,352.8c0,0-27.74-57.5-59.49-0.2C289.67,352.6,313.46,318.38,349.16,352.8z"/>
</g>
</svg>
