<?xml version="1.0" encoding="utf-8"?>
<!-- Generator: Adobe Illustrator 24.0.1, SVG Export Plug-In . SVG Version: 6.00 Build 0)  -->
<svg version="1.1" id="Capa_1" xmlns="http://www.w3.org/2000/svg" xmlns:xlink="http://www.w3.org/1999/xlink" x="0px" y="0px"
	 viewBox="0 0 566.93 566.93" style="enable-background:new 0 0 566.93 566.93;" xml:space="preserve">
<style type="text/css">
	.st0{fill:#F9D6E4;}
	.st1{fill:#45A759;}
	.st2{fill:#15632D;}
	.st3{fill:#F08CA7;}
	.st4{fill:#B52955;}
	.st5{fill:#F6BFD3;}
	.st6{fill:#FFFFFF;}
	.st7{fill:#CD94A9;}
	.st8{fill:#E16874;}
	.st9{fill:#EEEEEE;}
	.st10{fill:#C9C7C7;}
	.st11{clip-path:url(#SVGID_2_);}
	.st12{clip-path:url(#SVGID_2_);fill:#F08CA7;}
	.st13{fill:#CBC9CA;}
	.st14{fill:#E1E0E0;}
	.st15{fill:#B693C3;}
	.st16{fill:#F8DF28;}
	.st17{fill:#65A2D8;}
	.st18{fill:#DEE275;}
	.st19{fill:#FFDB43;}
	.st20{fill:#E75C2A;}
	.st21{fill:#F49D4E;}
	.st22{opacity:0.5;}
	.st23{fill:#F3B0CF;}
	.st24{fill:#704F9A;}
	.st25{fill:#616160;}
	.st26{fill:#5AE4A7;}
	.st27{fill:#FF0000;}
	.st28{fill:#82CEE0;}
	.st29{fill:#9E6D0B;}
	.st30{fill:#828E0C;}
	.st31{fill:#FFFF00;}
	.st32{clip-path:url(#SVGID_4_);}
	.st33{clip-path:url(#SVGID_4_);fill:#F08CA7;}
	.st34{clip-path:url(#SVGID_6_);}
	.st35{clip-path:url(#SVGID_6_);fill:#F08CA7;}
	.st36{fill:none;stroke:#B52955;stroke-width:3;stroke-linecap:round;stroke-linejoin:round;stroke-miterlimit:10;}
</style>
<g>
	<g>
		<path class="st3" d="M380.24,422.5c0,0-0.02-0.04-0.05-0.11C379.41,422.01,380.24,422.5,380.24,422.5z"/>
		<path class="st3" d="M535.48,355.53c-2.77-5.98-6.66-11.38-11.35-15.96c10.17-31.57-8.08-71.5-42.01-78.25
			c1.14-20.81-7.25-42.16-24.65-54.53c-6.62-4.71-14.28-7.53-22.34-8.42c-0.62-0.07-1.12,0.05-1.53,0.28
			c-1.37-1.5-1.78-2.89-1.78-2.89s-4.78-9.78-19.39-18.71c-14.62-8.93-31.11-4.25-36.31-2.91c-0.58,0.15-1.09,0.23-1.54,0.27
			c-8.3-33.66-48.86-50.85-80.35-40.15c-9.28,3.15-17.71,8.29-25.09,14.69c-24.66-10.8-54.07-2.99-69.36,19.52
			c-0.28,0.41-0.42,0.82-0.47,1.2c-1.52,0.36-2.63,0.31-2.63,0.31s0.77-2.23-19.9,2.96c-20.67,5.19-25.65,23.77-27.61,28.94
			c-0.16,0.42-0.34,0.79-0.53,1.14c-0.57-0.38-1.29-0.57-2.14-0.41c-28.71,5.59-47.91,33.56-43.32,62.25
			c-27.84,11.16-42.9,40.19-43.38,69.2c0,0-0.01,0.01-0.01,0.01c-17.38,16.81-23.11,42.58-13.33,64.86
			c8.68,19.76,28.18,33.14,49.35,35.93c14.75,1.95,29.82-1.12,42.61-8.72c0.53-0.31,0.88-0.72,1.09-1.16
			c0.8,0.2,1.28,0.42,1.28,0.42s11.55,3.61,21.01,5.04c9.46,1.42,22.15,1.26,31.37-4.55c9.22-5.8,11.46-0.85,11.46-0.85
			s10.93,7.44,19.41,13.18c8.48,5.74,21.41,5.01,28.63,3.7c7.21-1.31,24.91-8,30.03-15.3c5.11-7.3,7.22-1.74,7.22-1.74
			s6.81,7.07,22.81,13.68c16,6.61,31.04,2.13,38.88,0c7.84-2.13,18.42-9.1,22.78-14.58c3.91-4.91,5.54-2.22,5.84-1.62
			c0.71,0.34,2.77,1.41,8.04,4.25c11.04,5.93,25.17,6.77,37.1,5.52c11.92-1.25,22.43-5.18,25.82-8.34c0.92-0.86,1.79-1.41,2.66-1.68
			c-0.05,0.91,0.31,1.84,1.26,2.48c21.19,14.26,50.01,11.93,68.53-5.65C540.65,402.75,545.35,376.83,535.48,355.53z"/>
	</g>
	<g>
		<path class="st3" d="M107.72,240.47c0,0,3.4-15.44,15.46-23.18c12.06-7.74,19.17-10.39,19.17-10.39s4.83,0.57,6.8-4.59
			c1.97-5.17,6.94-23.75,27.61-28.94s19.9-2.96,19.9-2.96s5.82,0.25,9-4.73c3.18-4.98,15.31-16.4,30.75-17.64
			c15.44-1.24,29.6,3.01,29.6,3.01s2.49,3.8,10.49-3.24c8-7.04,20.19-14.12,39.21-12.94c19.01,1.18,30.76,5.36,39.02,13.89
			c8.26,8.52,15.26,18.63,15.26,18.63l0.96,4.9c0,0-0.05,3.61,5.15,2.27c5.2-1.34,21.69-6.02,36.31,2.91
			c14.62,8.93,19.39,18.71,19.39,18.71s1.3,4.44,6.99,5.96c5.69,1.52,27.34,9.23,33.95,27.23c6.61,18.01,6.66,25.58,6.66,25.58
			l0.07,5.32c0,0,0.05,2.46,4.95,4.88c4.9,2.42,22.31,6.29,31.24,24.74c8.93,18.46,9.9,28.95,8.62,36.29
			c-1.28,7.34-4.52,14.28-1.64,16.25c2.88,1.98,15.86,18.37,15.27,35.02c-0.59,16.65-6.51,28.5-12.34,35.75
			c-5.83,7.26-13.56,14.48-27.72,17.1c-14.16,2.61-31.36-0.64-36.01-4.45c-4.65-3.81-7.32-4.78-10.7-1.61
			c-3.38,3.17-13.89,7.1-25.81,8.34c-11.92,1.25-26.06,0.41-37.1-5.52c-11.03-5.93-7.99-4.14-7.99-4.14s-1.53-3.96-5.89,1.51
			c-4.36,5.47-14.95,12.45-22.78,14.58c-7.84,2.13-22.88,6.61-38.88,0c-16-6.61-22.81-13.68-22.81-13.68s-2.1-5.56-7.22,1.74
			c-5.11,7.3-22.82,14-30.03,15.3c-7.21,1.31-20.14,2.04-28.63-3.7c-8.48-5.74-21.65-18.14-30.87-12.33
			c-9.22,5.8-21.91,5.97-31.37,4.55c-9.46-1.42-21.01-5.04-21.01-5.04s-5.02-2.27-9.18,1.22c-4.17,3.5-35.55,11.84-54.08,0
			c-18.53-11.85-29.7-23.86-32.31-41.19c-2.61-17.33,0.74-27.37,5.48-34.82c4.74-7.44,7.63-10.98,7.63-10.98s3.72-2.8,4.31-9.18
			c0.59-6.38,3.42-31.1,15.68-43.23c12.26-12.13,20.44-17.3,20.44-17.3s7.49-0.71,7-6.74C105.22,257.6,107.31,244.45,107.72,240.47z
			"/>
		<g>
			<path class="st4" d="M386.1,390.55c3.58-1.81,7.42-1.85,11.28-1.05c4.06,0.84,8.51,2.42,11.45,5.44
				c5.96,6.12,6.26,15.52,5.92,23.53c-0.11,2.73,4.13,3.28,4.24,0.52c0.4-9.59-0.24-20.41-7.6-27.49c-3.53-3.4-8.44-5.13-13.15-6.17
				c-4.64-1.02-9.55-0.88-13.84,1.29C381.97,387.86,383.64,391.8,386.1,390.55L386.1,390.55z"/>
		</g>
		<g>
			<path class="st4" d="M175.25,413.25c-1.81-3.58-1.85-7.42-1.05-11.28c0.84-4.06,2.42-8.51,5.44-11.45
				c6.12-5.96,15.52-6.26,23.53-5.92c2.73,0.11,3.28-4.13,0.52-4.24c-9.59-0.4-20.41,0.24-27.49,7.6c-3.4,3.53-5.13,8.44-6.17,13.15
				c-1.02,4.64-0.88,9.55,1.29,13.84C172.56,417.38,176.5,415.71,175.25,413.25L175.25,413.25z"/>
		</g>
		<circle class="st0" cx="291.34" cy="326.45" r="114.8"/>
		<path class="st3" d="M349.95,233.45c-0.78-1.5-2.25-1.67-3.43-1.11c-1.42-3.39-2.71-6.7-2.55-7.52c0.35-1.77-0.47-5.52-0.47-5.52
			s-13.09,0.78-17.8,0c-4.71-0.78-21.89-5.78-24.66-7.67c-2.76-1.89-4.95-3.55-6.82,0c-1.87,3.55-4.23,6.79-14.46,12.99
			c-10.23,6.2-14.26,8.46-17.9,8.56c-3.64,0.1-12.32-1.2-12.32-1.2s-0.03-0.01-0.09-0.01c-0.82-2.62-5.39-2.3-5.47,0.95
			c-0.42,15.92,6.67,34.92,23.3,39.66c9.66,2.75,24.36,1.66,27.07-10.16c0.04-0.19,0.08-0.38,0.12-0.56c1.5,0.38,3.02,0.69,4.55,0.9
			c6.7,0.94,14.29,0.22,19.72-4.17c1.36-1.1,2.47-2.41,3.35-3.86c5.19,3.57,11.56,5.89,17.9,4.75c7.36-1.33,12.28-7.49,12.67-14.83
			C352.88,240.73,351.75,236.91,349.95,233.45z"/>
		<path class="st3" d="M201.16,259.86c0,0,30.08,19.49,64.99-17.07c0,0,34.8-36.08-8.39-36.55
			C214.56,205.76,198.92,241.34,201.16,259.86z"/>
		<path class="st3" d="M335.22,241.7c0,0,6.24,37.83,55.36,37.99c0,0,30.33-35.46,3.03-59.04
			C366.32,197.07,335.22,213.17,335.22,241.7z"/>
		<path class="st3" d="M314.48,187.65l-34.7,36.99c0,0-8.58,13.3-35.78,8.3c0,0-10.11,12.71-36.25,22.66c0,0,16.47,50.24-42.46,54
			C165.28,309.59,142.33,175.02,314.48,187.65z"/>
		<path class="st3" d="M390.59,279.69c0,0-20.34,49.22,4.33,57.8c24.67,8.58,70.47-1.11,45.05-42.77
			C414.56,253.07,390.59,279.69,390.59,279.69z"/>
		<path class="st3" d="M344.65,200.42c0,0-19.66,46.13,32,57.16c0,0-15.38,65.18,69.5,50.86
			C446.15,308.44,453.32,173.79,344.65,200.42z"/>
		<g>
			<path class="st4" d="M293.06,207.51c-4.72,8.14-12.07,14.58-20.61,18.48c-9.94,4.54-21.01,4.58-31.29,1.14
				c-3.42-1.15-4.89,4.26-1.49,5.4c11.48,3.84,23.73,3.51,34.83-1.36c9.69-4.25,18.08-11.68,23.39-20.83
				C299.71,207.21,294.87,204.39,293.06,207.51L293.06,207.51z"/>
		</g>
		<g>
			<path class="st4" d="M279.31,176.17c-0.22,5.79,1.22,11.94,3.34,17.27c4.81,12.09,14.4,20.89,26.66,25.17
				c10.67,3.73,22.32,4.01,33.47,2.97c3.56-0.33,3.59-5.93,0-5.6c-15.78,1.47-33.94,0.35-46.04-11.2
				c-6.53-6.23-10.19-14.54-11.49-23.36c-0.11-0.77,0.07,0.59-0.02-0.15c-0.03-0.21-0.05-0.42-0.08-0.64
				c-0.04-0.39-0.08-0.78-0.11-1.17c-0.05-0.58-0.09-1.15-0.11-1.73c-0.02-0.52-0.04-1.05-0.02-1.57
				C285.04,172.57,279.44,172.58,279.31,176.17L279.31,176.17z"/>
		</g>
		<g>
			<path class="st4" d="M435.43,306.67c-15.74,7.55-34.96,4.26-47.1-8.31c-11.25-11.65-14.31-29.71-7.13-44.32
				c4.23-8.61,11.31-15.21,19.99-19.19c3.27-1.5,0.43-6.33-2.83-4.83c-17.7,8.12-28.72,27.02-26.32,46.47
				c2.19,17.8,15.11,32.81,32.26,37.94c11.28,3.38,23.39,2.15,33.96-2.92C441.5,309.95,438.67,305.12,435.43,306.67L435.43,306.67z"
				/>
		</g>
		<g>
			<path class="st4" d="M415.15,315.53c-0.81-1.03,0.2,0.29,0.46,0.65c0.73,1.04,1.42,2.1,2.09,3.18c2.21,3.6,4.13,7.39,5.63,11.34
				c4.42,11.58,5.46,24.22,1.1,36c-3.39,9.16-9.82,16.76-17.15,23.06c-2.74,2.35,1.24,6.3,3.96,3.96
				c12.83-11.03,21.77-26.03,21.64-43.3c-0.09-11.39-3.79-22.64-9.48-32.43c-1.29-2.23-2.7-4.4-4.29-6.42
				C416.89,308.75,412.95,312.73,415.15,315.53L415.15,315.53z"/>
		</g>
		<g>
			<path class="st4" d="M376.65,257.58c-11.83-3.87-21.86-12.59-26.71-24.15c-4.77-11.37-4.1-24.61,1.78-35.44
				c12.08-22.27,41.73-29.41,62.99-15.99c11.47,7.24,18.89,19.64,19.65,33.2c0.2,3.58,5.8,3.61,5.6,0
				c-0.77-13.64-7.22-26.33-17.95-34.83c-11-8.73-25.2-12.31-39.05-10.25c-28.26,4.19-48.2,32.93-39.84,60.78
				c4.61,15.36,16.92,27.13,32.04,32.08C378.59,264.1,380.07,258.7,376.65,257.58L376.65,257.58z"/>
		</g>
		<g>
			<path class="st4" d="M378.09,208.4c12.39-10.82,30.28-12.38,44.27-3.73c13.53,8.36,20.84,24.21,19.97,39.89
				c-0.55,10.02-4.6,19.64-11.41,27.01c-2.44,2.64,1.51,6.61,3.96,3.96c13.6-14.71,16.73-36.51,8.6-54.71
				c-6.89-15.41-22-26.66-39.04-27.39c-11.2-0.49-21.92,3.69-30.3,11.02C371.41,206.82,375.38,210.76,378.09,208.4L378.09,208.4z"/>
		</g>
		<path class="st3" d="M432.8,298.92c0,0,25.03,7.34,23.66,45.11c-1.37,37.76-15.06,48.35-19.62,59.05
			c-4.57,10.71,17.37,22.7,31.97,7.66c14.6-15.05,27.97-47.42,20.76-77.13c-7.21-29.71-16.53-37.71-33.11-48.52
			C439.88,274.27,418.9,284.76,432.8,298.92z"/>
		<g>
			<path class="st4" d="M407.34,276.43c19.92-2.54,39.9,3.42,55.04,16.68c14.49,12.69,23.81,30.82,26.05,49.94
				c2.32,19.77-2.43,40-13.84,56.37c-10.76,15.42-27.27,26.49-45.83,29.87c-24.48,4.45-38.64,2.81-54.77-15.72
				c-2.37-2.72-6.32,1.25-3.96,3.96c15.55,17.86,28.29,19.98,52.09,18.2c20.07-1.5,38.8-11.3,51.9-26.52
				c28.02-32.55,27.13-83.71-2.45-114.99c-16.48-17.43-40.37-26.41-64.24-23.37C403.81,271.28,403.77,276.88,407.34,276.43
				L407.34,276.43z"/>
		</g>
		<path class="st3" d="M94.03,335.38c0,0,10.04-36.84,30.36-48.71c20.32-11.87,29.37-14.61,37.76-15.1s15.74,1.39,14.16,5.85
			c-1.57,4.46-28.59,10.89-33.83,27.87c-5.24,16.98-15.74,45.7-4.46,67.53c11.28,21.83,19.67,44.12,11.8,45.69
			c-7.87,1.57-47.08-11.96-53.3-41.78C90.3,346.91,91.94,344.02,94.03,335.38z"/>
		<g>
			<g>
				<path class="st4" d="M146.14,309.52c17.87,8.57,39.64,5.34,53.64-8.93c13.1-13.35,16.52-33.73,8.6-50.65
					c-4.53-9.69-12.66-17.47-22.34-21.92c-3.25-1.49-6.1,3.33-2.83,4.83c15.66,7.19,25.44,23.19,23.68,40.5
					c-1.57,15.44-12.86,28.78-27.56,33.46c-9.99,3.18-20.91,2.4-30.36-2.13C145.73,303.14,142.89,307.96,146.14,309.52
					L146.14,309.52z"/>
			</g>
			<g>
				<path class="st4" d="M165.28,309.59c-12.28,15.6-17.74,38.48-10.46,57.3c3.79,9.81,10.41,18.04,18.33,24.86
					c2.72,2.34,6.7-1.61,3.96-3.96c-12.02-10.34-20.39-24.05-19.98-40.28c0.26-10.21,3.73-20.22,8.88-28.97
					c0.79-1.34,1.62-2.65,2.5-3.93c0.3-0.43,1.53-2.06,0.74-1.05C171.45,310.75,167.51,306.76,165.28,309.59L165.28,309.59z"/>
			</g>
			<g>
				<path class="st4" d="M209.24,260.99c13.34-4.37,24.61-14.02,30.18-27.02c5.51-12.88,4.92-27.73-1.56-40.15
					c-13.27-25.44-47.34-33.86-71.31-18.44c-13.03,8.38-21.25,22.37-22.11,37.83c-0.2,3.6,5.4,3.59,5.6,0
					c1.43-25.46,25.89-43.53,50.69-39.57c24.81,3.97,42.43,28.71,35.26,53.4c-3.95,13.61-14.88,24.17-28.24,28.54
					C204.34,256.71,205.8,262.12,209.24,260.99L209.24,260.99z"/>
			</g>
			<g>
				<path class="st4" d="M210.27,202.46c-14.25-12.44-34.84-14.62-51.05-4.61c-15.26,9.43-23.88,27.4-22.72,45.18
					c0.75,11.39,5.28,22.13,13.03,30.51c2.45,2.65,6.4-1.32,3.96-3.96c-11.8-12.76-14.72-32.06-7.72-47.92
					c5.95-13.49,18.85-23.79,33.83-24.6c9.82-0.53,19.33,2.91,26.71,9.36C209.01,208.78,212.99,204.83,210.27,202.46L210.27,202.46z
					"/>
			</g>
			<g>
				<path class="st4" d="M177.06,268.84c-19.49-2.48-39.21,2.95-54.79,14.88c-14.9,11.41-25.45,27.99-29.93,46.19
					c-9.15,37.18,7.44,79.11,42.49,96.33c21.67,10.65,47.21,9.94,68.43-1.55c3.17-1.72,0.35-6.55-2.83-4.83
					c-17.89,9.69-39.21,11.1-58.14,3.61c-15.93-6.3-29.02-18.68-37.17-33.63c-17.27-31.68-11-73.35,15.82-97.75
					c15.26-13.89,35.68-20.25,56.12-17.64C180.63,274.89,180.59,269.29,177.06,268.84L177.06,268.84z"/>
			</g>
		</g>
		<g>
			<g>
				<path class="st5" d="M158.49,211.32c-12.28,10.86-15.12,29.32-7.42,43.65c1.71,3.18,6.54,0.35,4.83-2.83
					c-6.57-12.23-3.83-27.68,6.55-36.87C165.16,212.88,161.19,208.93,158.49,211.32L158.49,211.32z"/>
			</g>
			<g>
				<path class="st5" d="M181.36,203.57c-4.61-0.39-9.35,0.32-13.64,2.07c-0.7,0.29-1.27,0.61-1.67,1.29
					c-0.35,0.6-0.5,1.48-0.28,2.16c0.42,1.3,1.99,2.55,3.44,1.96c1.97-0.8,4.03-1.4,6.13-1.73c0.12-0.02,0.23-0.04,0.35-0.05
					c-0.36,0.05-0.37,0.05-0.05,0.01c0.23-0.03,0.47-0.05,0.7-0.08c0.55-0.05,1.1-0.09,1.65-0.11c1.12-0.04,2.24,0,3.36,0.09
					c1.46,0.12,2.86-1.38,2.8-2.8C184.09,204.75,182.93,203.7,181.36,203.57L181.36,203.57z"/>
			</g>
			<g>
				<path class="st5" d="M275.66,266.88c1.8,0.14,3.6,0.14,5.4,0.04c0.74-0.04,1.44-0.28,1.98-0.82c0.49-0.49,0.85-1.28,0.82-1.98
					c-0.03-0.72-0.27-1.48-0.82-1.98c-0.53-0.49-1.24-0.86-1.98-0.82c-1.8,0.1-3.6,0.1-5.4-0.04c-0.68-0.05-1.51,0.35-1.98,0.82
					c-0.49,0.49-0.85,1.28-0.82,1.98c0.03,0.72,0.27,1.48,0.82,1.98C274.25,266.59,274.88,266.82,275.66,266.88L275.66,266.88z"/>
			</g>
			<g>
				<path class="st5" d="M251.41,242.14c0.01,6.43,2.9,13.3,7.46,17.77c2.39,2.34,5.23,4.01,8.34,5.22c1.41,0.55,3.07-0.6,3.44-1.96
					c0.44-1.58-0.54-2.89-1.96-3.44c-0.18-0.07-0.36-0.14-0.54-0.21c0.06,0.02,0.31,0.13,0.02,0c-0.3-0.13-0.59-0.27-0.88-0.42
					c-0.56-0.28-1.1-0.59-1.63-0.92c-0.51-0.31-1-0.65-1.47-1.01c0.41,0.31-0.18-0.15-0.3-0.25c-0.24-0.21-0.48-0.42-0.72-0.64
					c-0.4-0.37-0.78-0.76-1.15-1.17c-0.15-0.17-0.3-0.34-0.45-0.52c-0.1-0.11-0.19-0.23-0.29-0.35c-0.26-0.31,0.27,0.36,0.03,0.04
					c-0.62-0.83-1.18-1.7-1.68-2.6c-0.21-0.39-0.41-0.78-0.6-1.17c-0.1-0.21-0.19-0.42-0.29-0.63c-0.07-0.14-0.18-0.49,0.06,0.13
					c-0.04-0.12-0.1-0.23-0.14-0.35c-0.3-0.78-0.57-1.57-0.8-2.38c-0.21-0.72-0.38-1.46-0.52-2.2c-0.06-0.31-0.11-0.62-0.16-0.93
					c-0.02-0.12-0.03-0.24-0.05-0.36c-0.01-0.06,0.09,0.77,0.03,0.18c-0.06-0.61-0.14-1.23-0.14-1.84c0-1.51-1.28-2.8-2.8-2.8
					C252.69,239.34,251.41,240.62,251.41,242.14L251.41,242.14z"/>
			</g>
			<g>
				<path class="st5" d="M297.9,257.23c2.48,0.51,5.11,0.68,7.64,0.53c0.74-0.04,1.44-0.28,1.98-0.82c0.49-0.49,0.85-1.28,0.82-1.98
					c-0.03-0.72-0.27-1.48-0.82-1.98c-0.53-0.49-1.24-0.86-1.98-0.82c-1.87,0.11-3.74,0.03-5.59-0.22c0.25,0.03,0.5,0.07,0.74,0.1
					c-0.44-0.06-0.87-0.12-1.3-0.21c-0.74-0.15-1.49-0.11-2.16,0.28c-0.58,0.34-1.13,1.01-1.29,1.67c-0.16,0.72-0.13,1.52,0.28,2.16
					C296.61,256.53,297.19,257.08,297.9,257.23L297.9,257.23z"/>
			</g>
			<g>
				<path class="st5" d="M235.35,152.7c-6.63,0.89-13.04,3.31-18.63,6.98c-1.26,0.83-1.8,2.48-1,3.83c0.73,1.25,2.56,1.84,3.83,1
					c5.3-3.48,10.92-5.56,17.29-6.42c1.46-0.2,2.38-2.14,1.96-3.44C238.27,153.05,236.91,152.49,235.35,152.7L235.35,152.7z"/>
			</g>
			<g>
				<path class="st5" d="M253.21,154.06c-2.6-0.6-5.25-1-7.91-1.24c-0.68-0.06-1.52,0.36-1.98,0.82c-0.49,0.49-0.85,1.28-0.82,1.98
					c0.03,0.72,0.27,1.48,0.82,1.98c0.58,0.53,1.2,0.75,1.98,0.82c0.79,0.07,1.58,0.16,2.36,0.27c-0.25-0.03-0.5-0.07-0.74-0.1
					c1.61,0.22,3.21,0.51,4.8,0.88c0.73,0.17,1.5,0.1,2.16-0.28c0.58-0.34,1.13-1.01,1.29-1.67
					C255.49,156.08,254.74,154.41,253.21,154.06L253.21,154.06z"/>
			</g>
			<g>
				<path class="st5" d="M293.79,192.61c3.7,6.82,9.52,12.26,16.51,15.6c1.32,0.63,3.08,0.41,3.83-1c0.66-1.25,0.41-3.15-1-3.83
					c-1.83-0.88-3.59-1.88-5.26-3.05c-0.17-0.12-0.34-0.24-0.51-0.36c-0.07-0.05-0.66-0.49-0.41-0.3c0.28,0.21-0.24-0.19-0.29-0.23
					c-0.19-0.15-0.37-0.3-0.56-0.46c-0.69-0.58-1.36-1.19-2-1.82c-0.59-0.58-1.16-1.19-1.7-1.81c-0.26-0.3-0.52-0.61-0.78-0.93
					c-0.17-0.21-0.38-0.5-0.1-0.12c-0.13-0.17-0.26-0.34-0.38-0.51c-0.93-1.27-1.77-2.61-2.52-4c-0.7-1.29-2.59-1.81-3.83-1
					C293.48,189.62,293.04,191.23,293.79,192.61L293.79,192.61z"/>
			</g>
			<g>
				<path class="st5" d="M289.32,179.07c0.32,2.21,0.82,4.39,1.5,6.52c0.22,0.69,0.66,1.3,1.29,1.67c0.6,0.35,1.48,0.5,2.16,0.28
					c0.68-0.22,1.33-0.64,1.67-1.29c0.34-0.65,0.51-1.43,0.28-2.16c-0.68-2.13-1.18-4.31-1.5-6.52c-0.09-0.65-0.75-1.36-1.29-1.67
					c-0.6-0.35-1.48-0.5-2.16-0.28c-0.68,0.22-1.33,0.64-1.67,1.29c-0.09,0.22-0.19,0.45-0.28,0.67
					C289.19,178.08,289.19,178.58,289.32,179.07L289.32,179.07z"/>
			</g>
			<g>
				<g>
					<path class="st5" d="M116.8,254.95c-0.39-7.06,1.69-14.07,6.12-19.55c0.95-1.18,1.15-2.81,0-3.96c-0.98-0.98-3-1.18-3.96,0
						c-5.37,6.66-8.23,14.93-7.76,23.51c0.08,1.51,1.23,2.8,2.8,2.8C115.45,257.75,116.88,256.47,116.8,254.95L116.8,254.95z"/>
				</g>
				<g>
					<path class="st5" d="M120.7,267.5c-0.72-1.22-1.36-2.49-1.91-3.79c0.09,0.22,0.19,0.45,0.28,0.67
						c-0.37-0.88-0.7-1.78-0.99-2.69c-0.22-0.69-0.65-1.3-1.29-1.67c-0.6-0.35-1.48-0.5-2.16-0.28c-0.68,0.22-1.33,0.64-1.67,1.29
						c-0.34,0.65-0.51,1.43-0.28,2.16c0.79,2.49,1.86,4.91,3.19,7.15c0.36,0.61,0.99,1.1,1.67,1.29c0.67,0.18,1.56,0.1,2.16-0.28
						C120.97,270.51,121.5,268.85,120.7,267.5L120.7,267.5z"/>
				</g>
			</g>
			<g>
				<g>
					<path class="st5" d="M75.1,343.24c-0.25-2.61-0.29-5.24-0.13-7.86c0.09-1.46-1.35-2.86-2.8-2.8c-1.59,0.07-2.7,1.23-2.8,2.8
						c-0.16,2.62-0.12,5.25,0.13,7.86c0.07,0.76,0.26,1.42,0.82,1.98c0.49,0.49,1.28,0.85,1.98,0.82c0.72-0.03,1.47-0.27,1.98-0.82
						C74.75,344.7,75.17,343.97,75.1,343.24L75.1,343.24z"/>
				</g>
				<g>
					<path class="st5" d="M79.65,361.55c-0.21-0.44-0.4-0.88-0.6-1.33c-0.12-0.29-0.11-0.26,0.04,0.09
						c-0.05-0.13-0.11-0.26-0.16-0.39c-0.08-0.2-0.16-0.39-0.23-0.59c-0.37-0.96-0.71-1.92-1.01-2.9c-0.61-1.96-1.08-3.97-1.43-5.99
						c-0.25-1.45-2.1-2.39-3.44-1.96c-1.56,0.5-2.22,1.89-1.96,3.44c0.74,4.32,2.1,8.48,3.97,12.45c0.63,1.33,2.64,1.77,3.83,1
						C80.01,364.49,80.32,362.97,79.65,361.55L79.65,361.55z"/>
				</g>
			</g>
			<g>
				<g>
					<path class="st5" d="M101.95,335.75c-5.81,27.99,5.12,57.76,29.48,73.39c3.04,1.95,5.85-2.89,2.83-4.83
						c-22.16-14.22-32.19-41.62-26.91-67.07C108.08,333.73,102.68,332.22,101.95,335.75L101.95,335.75z"/>
				</g>
				<g>
					<path class="st5" d="M109.36,316.29c-1.64,2.92-3.05,5.95-4.28,9.07c-0.25,0.63-0.05,1.59,0.28,2.16
						c0.34,0.58,1.01,1.13,1.67,1.29c0.72,0.16,1.52,0.13,2.16-0.28c0.65-0.42,1.01-0.96,1.29-1.67c0.21-0.54,0.43-1.08,0.66-1.62
						c-0.09,0.22-0.19,0.45-0.28,0.67c0.98-2.32,2.1-4.58,3.33-6.78c0.72-1.28,0.35-3.12-1-3.83
						C111.86,314.59,110.12,314.93,109.36,316.29L109.36,316.29z"/>
				</g>
			</g>
			<g>
				<g>
					<path class="st5" d="M523.25,386.83c-3.4,16.28-17.62,28.17-34.31,28.28c-3.6,0.02-3.61,5.62,0,5.6
						c19.05-0.13,35.81-13.71,39.71-32.39C529.39,384.8,523.99,383.29,523.25,386.83L523.25,386.83z"/>
				</g>
				<g>
					<path class="st5" d="M522.99,371.97c0.29,1.23,0.52,2.48,0.68,3.73c-0.03-0.25-0.07-0.5-0.1-0.74
						c0.22,1.67,0.33,3.35,0.33,5.04c0,1.46,1.29,2.87,2.8,2.8c1.51-0.07,2.8-1.23,2.8-2.8c-0.01-3.2-0.39-6.4-1.12-9.51
						c-0.33-1.43-2.04-2.41-3.44-1.96C523.46,369,522.64,370.44,522.99,371.97L522.99,371.97z"/>
				</g>
			</g>
			<g>
				<path class="st5" d="M472.39,334.35c8.96,30.35-5.59,65.53-36.5,76.13c-3.39,1.16-1.93,6.57,1.49,5.4
					c33.75-11.57,50.27-49.6,40.41-83.02C476.77,329.41,471.36,330.88,472.39,334.35L472.39,334.35z"/>
			</g>
			<g>
				<path class="st5" d="M456.72,308.47c1.85,1.81,3.59,3.72,5.2,5.74c0.09,0.11,0.18,0.23,0.27,0.34c0.04,0.05,0.35,0.41,0.12,0.15
					c-0.26-0.29,0.13,0.18,0.18,0.24c0.09,0.12,0.18,0.23,0.26,0.35c0.39,0.53,0.78,1.07,1.16,1.61c0.76,1.09,1.48,2.2,2.17,3.34
					c0.76,1.25,2.54,1.83,3.83,1c1.26-0.81,1.82-2.49,1-3.83c-2.86-4.7-6.3-9.06-10.24-12.91c-1.05-1.02-2.93-1.12-3.96,0
					C455.71,305.62,455.6,307.38,456.72,308.47L456.72,308.47z"/>
			</g>
			<g>
				<path class="st5" d="M426.3,220.22c9.36,11.78,9.74,28.73,1.38,41.11c-2.02,2.99,2.83,5.8,4.83,2.83
					c9.88-14.61,8.62-34.22-2.25-47.89C428.01,213.44,424.08,217.42,426.3,220.22L426.3,220.22z"/>
			</g>
			<g>
				<path class="st5" d="M410.45,209.6c0.89,0.25,1.76,0.53,2.63,0.85c0.36,0.13,0.75,0.35,1.12,0.44c-0.4-0.17-0.47-0.2-0.19-0.08
					c0.11,0.05,0.21,0.09,0.32,0.14c0.21,0.09,0.42,0.19,0.63,0.29c1.61,0.76,3.16,1.66,4.63,2.66c1.21,0.83,3.16,0.27,3.83-1
					c0.75-1.42,0.29-2.95-1-3.83c-3.18-2.18-6.75-3.83-10.47-4.86c-1.41-0.39-3.11,0.48-3.44,1.96
					C408.15,207.64,408.93,209.18,410.45,209.6L410.45,209.6z"/>
			</g>
		</g>
		
			<ellipse transform="matrix(0.3338 -0.9426 0.9426 0.3338 -74.9248 614.2969)" class="st0" cx="397.15" cy="360.16" rx="29.47" ry="19.78"/>
		
			<ellipse transform="matrix(0.9426 -0.3338 0.3338 0.9426 -107.8114 81.8209)" class="st0" cx="184.17" cy="354.6" rx="18.47" ry="26.48"/>
		<ellipse class="st6" cx="334.18" cy="318.18" rx="43.93" ry="48.66"/>
		<path class="st6" d="M271.27,319.21c0,25.61-19.26,47.63-44.02,47.63s-44.83-20.76-44.83-46.38c0-25.61,20.07-46.38,44.83-46.38
			S271.27,293.6,271.27,319.21z"/>
		<ellipse cx="232.04" cy="327.58" rx="31.09" ry="39"/>
		<ellipse cx="328.7" cy="323.4" rx="36.88" ry="42.85"/>
		<path class="st7" d="M273.89,346.65c0,0-24.82,1.17-11.63,22.79C262.26,369.45,257.91,355.36,273.89,346.65z"/>
		<path class="st4" d="M185.81,338.18c0,0-16.39-51.21,27.44-63.68c34.23-9.74,55.24,7.56,57.51,41.88L185.81,338.18z"/>
		<path class="st4" d="M290.27,314.6c0,0-2.68-45.05,43.91-45.08c47.65-0.03,43.93,53.88,43.93,53.88L290.27,314.6z"/>
		<path d="M178.63,340.02l96.97-24.88C275.6,315.14,240.76,336.38,178.63,340.02z"/>
		<path d="M282.44,312.57l99.39,10.78C381.83,323.35,339.05,327.17,282.44,312.57z"/>
		<path class="st7" d="M246.49,393.03c0,0,23.66-36.95,54.79-0.03C301.28,392.99,271.54,367.88,246.49,393.03z"/>
	</g>
	<g>
		<g>
			<path class="st4" d="M124.39,289.3c-0.23,0-0.46-0.03-0.69-0.08c-19.04-4.37-23.38-22.9-23.56-23.69
				c-0.37-1.66,0.68-3.31,2.34-3.68c1.66-0.37,3.3,0.67,3.68,2.33c0.15,0.66,3.74,15.55,18.92,19.03c1.66,0.38,2.7,2.03,2.31,3.69
				C127.07,288.34,125.8,289.3,124.39,289.3z"/>
		</g>
		<g>
			<path class="st4" d="M75.39,378.25c-0.59,0-1.19-0.17-1.72-0.53c-19.22-12.95-17.07-42.64-16.97-43.9
				c0.14-1.7,1.62-2.96,3.32-2.83c1.7,0.14,2.96,1.62,2.83,3.32l0,0c-0.02,0.27-1.95,27.37,14.27,38.29
				c1.41,0.95,1.78,2.87,0.83,4.28C77.35,377.77,76.38,378.25,75.39,378.25z"/>
		</g>
		<g>
			<path class="st4" d="M459.23,289.3c-1.4,0-2.67-0.97-3-2.39c-0.38-1.66,0.66-3.31,2.31-3.69c15.19-3.49,18.78-18.4,18.92-19.03
				c0.38-1.66,2.03-2.7,3.69-2.32c1.66,0.37,2.7,2.01,2.33,3.67c-0.18,0.79-4.51,19.32-23.56,23.69
				C459.69,289.28,459.46,289.3,459.23,289.3z"/>
		</g>
		<g>
			<path class="st4" d="M508.24,378.25c-0.99,0-1.96-0.48-2.56-1.36c-0.95-1.41-0.58-3.33,0.83-4.28
				c16.27-10.96,14.29-38.02,14.27-38.29c-0.14-1.7,1.13-3.18,2.83-3.32c1.7-0.14,3.18,1.13,3.32,2.83
				c0.1,1.26,2.26,30.94-16.97,43.9C509.43,378.07,508.83,378.25,508.24,378.25z"/>
		</g>
		<g>
			<path class="st4" d="M261.08,196.03c-1.23,0-2.38-0.74-2.86-1.94c-6.09-15.32-3.4-27.38-0.06-34.8
				c3.63-8.08,8.75-12.51,8.96-12.69c1.29-1.11,3.24-0.95,4.35,0.34c1.1,1.29,0.95,3.23-0.33,4.34c-0.07,0.06-4.43,3.9-7.46,10.79
				c-4.03,9.15-3.93,19.16,0.28,29.75c0.63,1.58-0.14,3.37-1.72,4C261.85,195.96,261.46,196.03,261.08,196.03z"/>
		</g>
		<g>
			<path class="st4" d="M249.07,259.48c-0.9,0-1.8-0.39-2.41-1.15c-10.73-13.39-10.09-25.9-10.06-26.43c0.1-1.7,1.57-2.99,3.27-2.89
				c1.69,0.1,2.98,1.56,2.89,3.25c0,0.08-0.12,2.76,0.89,6.79c0.93,3.74,3.04,9.45,7.83,15.42c1.06,1.33,0.85,3.27-0.48,4.33
				C250.42,259.26,249.74,259.48,249.07,259.48z"/>
		</g>
		<g>
			<path class="st4" d="M301.39,265.48c-2.13,0-4.25-0.24-6.34-0.73c-16.45-3.83-25.35-21.37-25.72-22.11
				c-0.76-1.52-0.14-3.37,1.38-4.13c1.52-0.76,3.37-0.14,4.13,1.38c0.1,0.21,8.05,15.72,21.63,18.87
				c7.47,1.73,15.47-0.59,23.76-6.91c1.36-1.03,3.29-0.77,4.32,0.59c1.03,1.35,0.77,3.29-0.59,4.32
				C316.34,262.56,308.77,265.48,301.39,265.48z"/>
		</g>
		<g>
			<path class="st4" d="M342.95,261.29c-0.64,0-1.28-0.2-1.83-0.61c-5.36-3.97-8.35-16.31-8.9-18.74c-0.37-1.66,0.67-3.31,2.33-3.68
				c1.66-0.37,3.31,0.67,3.68,2.33l0,0c1.15,5.13,3.95,13.21,6.56,15.14c1.37,1.01,1.65,2.94,0.64,4.31
				C344.82,260.86,343.89,261.29,342.95,261.29z"/>
		</g>
		<g>
			<path class="st4" d="M322.1,257.38c-0.43,0-0.87-0.09-1.28-0.28c-21.26-9.74-17.39-24.89-17.21-25.53
				c0.45-1.64,2.14-2.61,3.79-2.16c1.63,0.45,2.6,2.12,2.17,3.76c-0.12,0.5-2.43,10.89,13.82,18.33c1.55,0.71,2.23,2.54,1.52,4.09
				C324.39,256.71,323.27,257.38,322.1,257.38z"/>
		</g>
	</g>
	<path d="M242.14,239.33c0,0-11.47,66.81-73.26,22.63C168.88,261.96,211.73,286.52,242.14,239.33z"/>
	<path d="M313.55,237.59c0,0,8.03,66.61,63.82,22.39C377.36,259.98,338.86,284.59,313.55,237.59z"/>
	<g>
		<g>
			<path class="st29" d="M97.69,214.82c-8.17-12.14-20.08-21.65-33.25-26.77c-3-1.24-6.56-2.12-9.5-0.69
				c-4.43,2.3-4.76,9.47-1.8,13.88s8.02,6.66,12.88,8.38C76.33,213.14,87.07,214.86,97.69,214.82z"/>
			<path class="st29" d="M128.45,197.6c-10.76-9.8-24.33-15.97-38.23-17.52c-3.36-0.36-6.98-0.31-9.38,1.81
				c-3.74,3.38-2.4,10.51,1.5,14.1c3.9,3.59,9.3,4.52,14.32,4.83C107.29,201.54,118.1,200.53,128.45,197.6z"/>
			<path class="st29" d="M148.36,189.3c-8.65-11.21-20.52-19.53-33.31-23.3c-3.02-0.94-6.48-1.56-9.15,0.22
				c-4.04,2.6-3.95,9.76-0.8,13.94c3.15,4.18,8.01,5.91,12.8,7.07C127.8,189.71,138.13,190.38,148.36,189.3z"/>
			<path class="st29" d="M95.08,215.67c-13.11,4.14-24.75,12.81-32.75,24.42c-1.91,2.68-3.69,6.06-3.09,9.43
				c1.05,5.29,7.44,8.08,12.18,6.55c4.86-1.57,8.24-5.87,10.92-10.19C88.03,236.66,92.49,226.41,95.08,215.67z"/>
			<path class="st29" d="M117.44,200.64c-10.44,9.26-17.86,22-20.99,36.08c-0.65,3.4-1.16,7.19,0.66,10.08
				c2.71,4.5,9.59,4.55,13.38,1.3c3.86-3.43,5.3-8.78,6.26-13.94C118.7,223.22,118.96,211.89,117.44,200.64z"/>
			<path class="st29" d="M145.98,188.57c-10.44,9.26-17.86,22-20.99,36.08c-0.65,3.4-1.16,7.19,0.66,10.08
				c2.71,4.5,9.59,4.55,13.38,1.3c3.86-3.43,5.3-8.78,6.26-13.94C147.24,211.16,147.5,199.82,145.98,188.57z"/>
			<path class="st29" d="M180.08,166.83c-10.64-9.1-23.83-14.66-37.01-15.44c-3.13-0.14-6.59-0.02-8.77,2.32
				c-3.34,3.68-1.64,10.67,2.16,14c3.92,3.29,9.04,3.86,13.84,3.97C160.44,171.83,170.59,170.17,180.08,166.83z"/>
			<path class="st29" d="M181.11,163.43c-10.44,9.26-17.86,22-20.99,36.08c-0.65,3.4-1.16,7.19,0.66,10.08
				c2.71,4.5,9.59,4.55,13.38,1.3c3.86-3.43,5.3-8.78,6.26-13.94C182.37,186.02,182.58,174.55,181.11,163.43z"/>
			<path class="st29" d="M84.9,217.94c-15.94-5.41-33.27-5.34-48.76-0.13c-3.71,1.28-7.58,3.21-9.14,6.81
				c-2.42,5.72,2.3,12.9,8.09,14.87c5.8,1.97,11.85,0.24,17.46-1.92C64.2,232.94,75.23,226.3,84.9,217.94z"/>
		</g>
		<path class="st30" d="M64.14,223.25c0,0,91.97-36.84,101.59-52.12c9.62-15.28,54.62-79.51,116.24-27.57
			c0,0-62.62-34.05-107.83,29.93C136.47,226.8,64.14,223.25,64.14,223.25z"/>
	</g>
</g>
</svg>
