<?xml version="1.0" encoding="utf-8"?>
<!-- Generator: Adobe Illustrator 24.0.1, SVG Export Plug-In . SVG Version: 6.00 Build 0)  -->
<svg version="1.1" id="Capa_1" xmlns="http://www.w3.org/2000/svg" xmlns:xlink="http://www.w3.org/1999/xlink" x="0px" y="0px"
	 viewBox="0 0 566.93 566.93" style="enable-background:new 0 0 566.93 566.93;" xml:space="preserve">
<style type="text/css">
	.st0{fill:#F9D6E4;}
	.st1{fill:#45A759;}
	.st2{fill:#15632D;}
	.st3{fill:#F08CA7;}
	.st4{fill:#B52955;}
	.st5{fill:#F6BFD3;}
	.st6{fill:#FFFFFF;}
	.st7{fill:#CD94A9;}
	.st8{fill:#E16874;}
	.st9{fill:#EEEEEE;}
	.st10{fill:#C9C7C7;}
	.st11{clip-path:url(#SVGID_2_);}
	.st12{clip-path:url(#SVGID_2_);fill:#F08CA7;}
	.st13{fill:#CBC9CA;}
	.st14{fill:#E1E0E0;}
	.st15{fill:#B693C3;}
	.st16{fill:#F8DF28;}
	.st17{fill:#65A2D8;}
	.st18{fill:#DEE275;}
	.st19{fill:#FFDB43;}
	.st20{fill:#E75C2A;}
	.st21{fill:#F49D4E;}
	.st22{opacity:0.5;}
	.st23{fill:#F3B0CF;}
	.st24{fill:#704F9A;}
	.st25{fill:#616160;}
	.st26{fill:#5AE4A7;}
	.st27{fill:#FF0000;}
	.st28{fill:#82CEE0;}
	.st29{fill:#9E6D0B;}
	.st30{fill:#828E0C;}
	.st31{fill:#FFFF00;}
	.st32{clip-path:url(#SVGID_4_);}
	.st33{clip-path:url(#SVGID_4_);fill:#F08CA7;}
	.st34{clip-path:url(#SVGID_6_);}
	.st35{clip-path:url(#SVGID_6_);fill:#F08CA7;}
	.st36{fill:none;stroke:#B52955;stroke-width:3;stroke-linecap:round;stroke-linejoin:round;stroke-miterlimit:10;}
</style>
<g>
	<g>
		<path class="st1" d="M351.31,120.35c-11.52-7.1-20.74-17.75-25.96-29.73c-1.26-2.72-2.2-5.98-0.99-8.76
			c1.97-4.18,8.57-4.74,12.75-2.18c4.18,2.57,6.44,7.16,8.22,11.59C348.97,100.68,350.95,110.54,351.31,120.35z"/>
		<path class="st1" d="M336.53,149.4c-9.45-9.58-15.64-21.9-17.59-34.67c-0.45-3.09-0.55-6.44,1.33-8.74
			c2.99-3.58,9.62-2.6,13.09,0.87s4.51,8.42,4.99,13.05C339.39,129.7,338.86,139.73,336.53,149.4z"/>
		<path class="st1" d="M322.78,168.21c-10.67-7.58-18.8-18.24-22.75-29.92c-0.98-2.76-1.67-5.93-0.13-8.46
			c2.25-3.83,8.87-4.01,12.85-1.25c3.98,2.75,5.75,7.18,7,11.56C322.4,149.2,323.4,158.72,322.78,168.21z"/>
		<path class="st1" d="M352,117.91c3.34-12.26,10.93-23.34,21.36-31.15c2.41-1.86,5.47-3.63,8.6-3.21c4.92,0.78,7.73,6.58,6.5,11.01
			c-1.27,4.54-5.12,7.83-9.01,10.46C371.13,110.62,361.82,115.12,352,117.91z"/>
		<path class="st1" d="M338.93,139.11c8.17-9.99,19.67-17.31,32.56-20.71c3.11-0.73,6.6-1.33,9.34,0.24
			c4.26,2.34,4.56,8.69,1.69,12.31c-3.03,3.69-7.92,5.22-12.65,6.3C359.84,139.45,349.38,140.11,338.93,139.11z"/>
		<path class="st1" d="M322.01,166.03c8.17-9.99,19.67-17.31,32.56-20.71c3.11-0.73,6.6-1.33,9.34,0.24
			c4.26,2.34,4.56,8.69,1.69,12.31c-3.03,3.69-7.92,5.22-12.65,6.3C342.93,166.37,332.46,167.03,322.01,166.03z"/>
		<path class="st1" d="M306.55,205.56c-8.79-9.49-14.42-21.48-15.62-33.63c-0.25-2.89-0.26-6.08,1.82-8.18
			c3.28-3.22,9.8-1.91,13.01,1.48c3.18,3.5,3.9,8.21,4.17,12.64C310.44,187.24,309.29,196.67,306.55,205.56z"/>
		<path class="st1" d="M306.9,199.3c8.17-9.99,19.67-17.31,32.56-20.71c3.11-0.73,6.6-1.33,9.34,0.24
			c4.26,2.34,4.56,8.69,1.69,12.31c-3.03,3.69-7.92,5.22-12.65,6.3C327.81,199.64,317.22,200.26,306.9,199.3z"/>
		<g>
			<path class="st2" d="M356.42,99.25c0.07-0.61-0.86-0.68-0.81-0.02c-5.33,33.4-31.89,56.54-44.78,86.87
				c-6.19,14.61-10.17,29.97-12.61,45.6c-2.63,16.2-5.01,33.26-4.63,49.84c-0.05,2.15,3.16,2.35,3.46,0.28
				c2.59-16.47,2.61-33.43,5.32-49.86c2.74-16.93,6.86-33.9,14.3-49.37C329.76,155.27,355.05,131.06,356.42,99.25L356.42,99.25z"/>
		</g>
		<path class="st1" d="M353.72,108.41c-5.58-14.53-6.16-30.54-1.91-45.05c1.04-3.47,2.69-7.12,5.96-8.7c5.2-2.45,12,1.65,14.03,6.93
			c2.03,5.28,0.66,10.94-1.13,16.2C366.82,88.74,361.09,99.18,353.72,108.41z"/>
	</g>
	<g>
		<path class="st3" d="M389.55,493.46c0,0-0.02-0.04-0.05-0.1C388.77,493,389.55,493.46,389.55,493.46z"/>
		<path class="st3" d="M535.33,430.57c-2.6-5.61-6.25-10.69-10.66-14.99c9.55-29.65-7.59-67.14-39.45-73.48
			c1.07-19.54-6.81-39.59-23.15-51.21c-6.22-4.42-13.41-7.07-20.98-7.91c-0.58-0.06-1.06,0.04-1.43,0.26
			c-1.28-1.4-1.67-2.72-1.67-2.72s-4.48-9.18-18.21-17.57c-13.73-8.39-29.21-3.99-34.1-2.73c-0.54,0.14-1.02,0.22-1.45,0.26
			c-7.8-31.61-45.88-47.75-75.45-37.7c-8.71,2.96-16.63,7.79-23.56,13.79c-23.15-10.14-50.77-2.81-65.14,18.33
			c-0.26,0.39-0.4,0.77-0.44,1.13c-1.42,0.34-2.47,0.29-2.47,0.29s0.72-2.09-18.69,2.78c-19.41,4.88-24.08,22.32-25.93,27.18
			c-0.15,0.39-0.32,0.75-0.5,1.07c-0.54-0.36-1.22-0.54-2.01-0.38c-26.96,5.25-44.99,31.51-40.68,58.46
			c-26.14,10.48-40.28,37.74-40.74,64.98c0,0-0.01,0.01-0.01,0.01c-16.32,15.78-21.7,39.99-12.52,60.91
			c8.15,18.56,26.46,31.12,46.34,33.74c13.85,1.83,28-1.06,40.01-8.19c0.5-0.29,0.83-0.67,1.03-1.09c0.75,0.19,1.2,0.39,1.2,0.39
			s10.84,3.39,19.73,4.73c8.89,1.34,20.8,1.18,29.46-4.27c8.65-5.45,10.76-0.8,10.76-0.8s10.26,6.99,18.23,12.38
			c7.97,5.39,20.11,4.7,26.88,3.48c6.77-1.23,23.4-7.52,28.2-14.37c4.8-6.85,6.78-1.63,6.78-1.63s6.4,6.64,21.42,12.85
			c15.02,6.21,29.15,2,36.51,0c7.36-2,17.3-8.55,21.39-13.69c3.67-4.61,5.2-2.09,5.48-1.52c0.67,0.32,2.6,1.33,7.55,3.99
			c10.36,5.57,23.64,6.36,34.83,5.19c11.2-1.17,21.06-4.86,24.24-7.84c0.86-0.81,1.68-1.32,2.49-1.58
			c-0.05,0.85,0.29,1.73,1.19,2.33c19.9,13.39,46.96,11.21,64.35-5.31C540.19,474.91,544.6,450.57,535.33,430.57z"/>
	</g>
	<g>
		<path class="st3" d="M133.65,322.53c0,0,3.2-14.5,14.52-21.76c11.32-7.27,18-9.75,18-9.75s4.54,0.54,6.38-4.31
			c1.85-4.85,6.52-22.3,25.93-27.18s18.69-2.78,18.69-2.78s5.47,0.23,8.45-4.44c2.98-4.67,14.38-15.4,28.87-16.56
			c14.5-1.16,27.8,2.83,27.8,2.83s2.34,3.57,9.85-3.04c7.51-6.61,18.96-13.26,36.82-12.15c17.85,1.11,28.89,5.04,36.64,13.04
			c7.75,8,14.33,17.5,14.33,17.5l0.9,4.61c0,0-0.05,3.39,4.84,2.13c4.89-1.26,20.37-5.66,34.1,2.73
			c13.73,8.39,18.21,17.57,18.21,17.57s1.22,4.17,6.56,5.6c5.34,1.43,25.67,8.67,31.88,25.57c6.2,16.91,6.25,24.02,6.25,24.02
			l0.07,4.99c0,0,0.05,2.31,4.64,4.58c4.6,2.27,20.95,5.9,29.33,23.24c8.39,17.33,9.3,27.19,8.09,34.08
			c-1.2,6.89-4.25,13.41-1.54,15.26c2.7,1.85,14.89,17.25,14.34,32.88c-0.55,15.64-6.11,26.76-11.58,33.57
			c-5.47,6.81-12.73,13.6-26.03,16.06c-13.3,2.45-29.45-0.6-33.81-4.18c-4.36-3.58-6.87-4.49-10.05-1.51
			c-3.18,2.98-13.04,6.66-24.24,7.84c-11.2,1.17-24.47,0.38-34.83-5.19c-10.36-5.57-7.5-3.88-7.5-3.88s-1.43-3.72-5.53,1.41
			c-4.09,5.14-14.03,11.69-21.39,13.69c-7.36,2-21.49,6.21-36.51,0c-15.02-6.21-21.42-12.85-21.42-12.85s-1.97-5.22-6.78,1.63
			c-4.8,6.85-21.42,13.14-28.2,14.37c-6.77,1.23-18.92,1.91-26.88-3.48c-7.97-5.39-20.33-17.03-28.99-11.58
			c-8.65,5.45-20.57,5.61-29.46,4.27c-8.89-1.34-19.73-4.73-19.73-4.73s-4.71-2.13-8.62,1.15c-3.91,3.28-33.39,11.12-50.79,0
			c-17.4-11.12-27.89-22.4-30.34-38.68c-2.45-16.28,0.69-25.7,5.15-32.69c4.45-6.99,7.16-10.31,7.16-10.31s3.49-2.63,4.05-8.62
			s3.21-29.2,14.72-40.59c11.51-11.39,19.19-16.25,19.19-16.25s7.03-0.66,6.57-6.33C131.3,338.62,133.26,326.26,133.65,322.53z"/>
		<g>
			<path class="st4" d="M395.06,463.46c3.36-1.7,6.97-1.74,10.6-0.99c3.81,0.79,7.99,2.27,10.75,5.11
				c5.59,5.75,5.88,14.58,5.56,22.09c-0.11,2.56,3.88,3.08,3.98,0.49c0.37-9-0.22-19.17-7.14-25.82c-3.32-3.19-7.93-4.82-12.35-5.8
				c-4.36-0.96-8.96-0.83-13,1.21C391.18,460.93,392.75,464.63,395.06,463.46L395.06,463.46z"/>
		</g>
		<g>
			<path class="st4" d="M197.06,484.77c-1.7-3.36-1.74-6.97-0.99-10.6c0.79-3.81,2.27-7.99,5.11-10.75
				c5.75-5.59,14.58-5.88,22.09-5.56c2.56,0.11,3.08-3.88,0.49-3.98c-9-0.37-19.17,0.22-25.82,7.14c-3.19,3.32-4.82,7.93-5.8,12.35
				c-0.96,4.36-0.83,8.96,1.21,13C194.54,488.65,198.24,487.08,197.06,484.77L197.06,484.77z"/>
		</g>
		<circle class="st0" cx="306.07" cy="403.26" r="107.8"/>
		<path class="st3" d="M361.12,315.94c-0.73-1.41-2.12-1.57-3.22-1.04c-1.33-3.18-2.55-6.29-2.39-7.06
			c0.33-1.67-0.44-5.18-0.44-5.18s-12.3,0.73-16.72,0c-4.42-0.73-20.56-5.43-23.15-7.2c-2.59-1.77-4.64-3.33-6.4,0
			c-1.75,3.33-3.97,6.38-13.58,12.2c-9.6,5.82-13.39,7.94-16.81,8.03c-3.42,0.09-11.57-1.12-11.57-1.12s-0.03-0.01-0.08-0.01
			c-0.77-2.46-5.06-2.16-5.14,0.89c-0.4,14.95,6.26,32.79,21.88,37.24c9.07,2.59,22.87,1.56,25.42-9.54
			c0.04-0.18,0.07-0.35,0.11-0.53c1.41,0.36,2.84,0.65,4.27,0.85c6.29,0.88,13.42,0.21,18.52-3.92c1.28-1.03,2.32-2.27,3.14-3.63
			c4.87,3.36,10.85,5.53,16.81,4.46c6.91-1.25,11.53-7.04,11.89-13.93C363.86,322.77,362.8,319.18,361.12,315.94z"/>
		<path class="st3" d="M221.39,340.74c0,0,28.24,18.3,61.02-16.03c0,0,32.68-33.88-7.88-34.33
			C233.98,289.94,219.29,323.34,221.39,340.74z"/>
		<path class="st3" d="M347.28,323.69c0,0,5.86,35.53,51.99,35.67c0,0,28.48-33.3,2.85-55.44
			C376.48,281.77,347.28,296.89,347.28,323.69z"/>
		<path class="st3" d="M327.8,272.93l-32.58,34.73c0,0-8.05,12.49-33.6,7.79c0,0-9.49,11.93-34.04,21.28c0,0,15.47,47.18-39.87,50.7
			C187.7,387.43,166.15,261.07,327.8,272.93z"/>
		<path class="st3" d="M399.27,359.36c0,0-19.1,46.22,4.06,54.28s66.17-1.04,42.31-40.16C421.78,334.36,399.27,359.36,399.27,359.36
			z"/>
		<path class="st3" d="M356.14,284.92c0,0-18.46,43.32,30.05,53.68c0,0-14.44,61.2,65.26,47.76
			C451.45,386.35,458.18,259.91,356.14,284.92z"/>
		<g>
			<path class="st4" d="M307.69,291.58c-4.43,7.64-11.33,13.69-19.36,17.35c-9.33,4.26-19.73,4.3-29.38,1.07
				c-3.22-1.08-4.6,4-1.4,5.07c10.78,3.61,22.28,3.3,32.71-1.28c9.1-3.99,16.98-10.97,21.97-19.56
				C313.94,291.3,309.39,288.65,307.69,291.58L307.69,291.58z"/>
		</g>
		<g>
			<path class="st4" d="M294.78,262.15c-0.2,5.43,1.14,11.21,3.14,16.22c4.52,11.35,13.52,19.61,25.03,23.64
				c10.02,3.5,20.96,3.76,31.43,2.79c3.34-0.31,3.37-5.57,0-5.26c-14.81,1.38-31.87,0.33-43.24-10.52
				c-6.13-5.85-9.57-13.65-10.79-21.94c-0.11-0.73,0.07,0.56-0.02-0.15c-0.02-0.2-0.05-0.4-0.07-0.6c-0.04-0.36-0.08-0.73-0.11-1.09
				c-0.04-0.54-0.08-1.08-0.1-1.62c-0.02-0.49-0.03-0.99-0.02-1.48C300.16,258.77,294.9,258.77,294.78,262.15L294.78,262.15z"/>
		</g>
		<g>
			<path class="st4" d="M441.38,384.7c-14.78,7.09-32.83,4-44.23-7.81c-10.57-10.94-13.44-27.9-6.7-41.62
				c3.97-8.08,10.62-14.28,18.77-18.02c3.07-1.41,0.4-5.94-2.65-4.54c-16.62,7.63-26.97,25.38-24.72,43.64
				c2.06,16.71,14.19,30.81,30.3,35.63c10.59,3.17,21.96,2.02,31.89-2.74C447.08,387.77,444.42,383.24,441.38,384.7L441.38,384.7z"
				/>
		</g>
		<g>
			<path class="st4" d="M422.34,393.02c-0.76-0.97,0.19,0.28,0.43,0.61c0.69,0.97,1.34,1.97,1.96,2.99
				c2.07,3.38,3.88,6.94,5.29,10.65c4.15,10.88,5.12,22.75,1.03,33.8c-3.18,8.6-9.22,15.74-16.1,21.65
				c-2.57,2.21,1.16,5.91,3.72,3.72c12.05-10.36,20.44-24.44,20.32-40.66c-0.08-10.69-3.56-21.26-8.9-30.45
				c-1.22-2.09-2.53-4.13-4.03-6.03C423.97,386.64,420.27,390.38,422.34,393.02L422.34,393.02z"/>
		</g>
		<g>
			<path class="st4" d="M386.18,338.59c-11.11-3.64-20.53-11.82-25.08-22.68c-4.48-10.67-3.85-23.11,1.67-33.28
				c11.34-20.91,39.18-27.62,59.15-15.01c10.77,6.8,17.74,18.45,18.45,31.17c0.19,3.36,5.45,3.39,5.26,0
				c-0.72-12.81-6.78-24.72-16.85-32.71c-10.33-8.19-23.66-11.56-36.67-9.63c-26.54,3.94-45.26,30.92-37.41,57.07
				c4.33,14.43,15.89,25.48,30.08,30.12C388.01,344.72,389.39,339.64,386.18,338.59L386.18,338.59z"/>
		</g>
		<g>
			<path class="st4" d="M387.53,292.42c11.63-10.16,28.43-11.62,41.57-3.51c12.71,7.85,19.57,22.73,18.75,37.46
				c-0.52,9.41-4.32,18.45-10.72,25.37c-2.29,2.48,1.41,6.21,3.72,3.72c12.77-13.81,15.71-34.28,8.07-51.37
				c-6.47-14.47-20.66-25.03-36.66-25.72c-10.52-0.46-20.58,3.47-28.45,10.35C381.26,290.93,384.99,294.63,387.53,292.42
				L387.53,292.42z"/>
		</g>
		<path class="st3" d="M438.91,377.41c0,0,23.51,6.9,22.22,42.36c-1.29,35.46-14.14,45.4-18.43,55.45
			c-4.29,10.05,16.31,21.32,30.02,7.19c13.71-14.13,26.26-44.53,19.49-72.42c-6.77-27.9-15.52-35.41-31.09-45.57
			C445.56,354.26,425.86,364.11,438.91,377.41z"/>
		<g>
			<path class="st4" d="M415,356.29c18.7-2.38,37.47,3.21,51.68,15.66c13.61,11.92,22.36,28.94,24.46,46.89
				c2.18,18.56-2.28,37.56-12.99,52.93c-10.1,14.48-25.61,24.88-43.03,28.04c-22.98,4.18-36.28,2.64-51.43-14.76
				c-2.23-2.56-5.93,1.18-3.72,3.72c14.6,16.77,26.57,18.76,48.91,17.09c18.85-1.41,36.44-10.61,48.74-24.9
				c26.31-30.57,25.47-78.6-2.3-107.98c-15.48-16.37-37.91-24.8-60.32-21.94C411.69,351.46,411.65,356.72,415,356.29L415,356.29z"/>
		</g>
		<path class="st3" d="M120.8,411.65c0,0,9.43-34.6,28.51-45.74c19.09-11.15,27.58-13.72,35.46-14.18
			c7.88-0.46,14.78,1.31,13.3,5.49c-1.48,4.19-26.84,10.23-31.77,26.17c-4.93,15.94-14.78,42.91-4.19,63.41
			c10.59,20.5,18.47,41.43,11.08,42.91c-7.39,1.48-44.21-11.23-50.05-39.23C117.29,422.48,118.83,419.77,120.8,411.65z"/>
		<g>
			<g>
				<path class="st4" d="M169.73,387.37c16.78,8.05,37.23,5.01,50.37-8.38c12.3-12.53,15.52-31.68,8.08-47.57
					c-4.26-9.09-11.89-16.41-20.98-20.58c-3.05-1.4-5.73,3.13-2.65,4.54c14.7,6.75,23.89,21.77,22.23,38.03
					c-1.48,14.5-12.08,27.03-25.88,31.42c-9.38,2.99-19.63,2.26-28.51-2C169.35,381.37,166.68,385.9,169.73,387.37L169.73,387.37z"
					/>
			</g>
			<g>
				<path class="st4" d="M187.7,387.43c-11.53,14.65-16.66,36.13-9.82,53.8c3.56,9.21,9.77,16.94,17.21,23.34
					c2.55,2.2,6.29-1.51,3.72-3.72c-11.29-9.71-19.15-22.58-18.76-37.82c0.24-9.59,3.5-18.98,8.34-27.2
					c0.74-1.26,1.52-2.49,2.35-3.69c0.28-0.4,1.44-1.94,0.69-0.99C193.49,388.52,189.8,384.77,187.7,387.43L187.7,387.43z"/>
			</g>
			<g>
				<path class="st4" d="M228.98,341.8c12.53-4.1,23.11-13.17,28.34-25.37c5.18-12.1,4.62-26.04-1.46-37.7
					c-12.46-23.89-44.45-31.79-66.96-17.32c-12.23,7.87-19.95,21.01-20.77,35.53c-0.19,3.38,5.07,3.37,5.26,0
					c1.34-23.91,24.32-40.88,47.6-37.16c23.29,3.73,39.85,26.96,33.11,50.14c-3.71,12.78-13.97,22.69-26.52,26.8
					C224.38,337.78,225.75,342.86,228.98,341.8L228.98,341.8z"/>
			</g>
			<g>
				<path class="st4" d="M229.95,286.83c-13.38-11.68-32.72-13.73-47.94-4.33c-14.33,8.85-22.43,25.73-21.33,42.43
					c0.7,10.69,4.95,20.78,12.23,28.65c2.3,2.49,6.01-1.24,3.72-3.72c-11.08-11.98-13.83-30.1-7.25-45
					c5.59-12.66,17.7-22.34,31.77-23.1c9.22-0.5,18.15,2.73,25.09,8.79C228.77,292.77,232.5,289.06,229.95,286.83L229.95,286.83z"/>
			</g>
			<g>
				<path class="st4" d="M198.77,349.17c-18.3-2.33-36.82,2.77-51.45,13.97c-13.99,10.72-23.89,26.28-28.1,43.37
					c-8.59,34.91,6.99,74.28,39.9,90.46c20.35,10,44.33,9.34,64.25-1.45c2.98-1.61,0.32-6.15-2.65-4.54
					c-16.8,9.1-36.82,10.42-54.6,3.39c-14.96-5.92-27.25-17.54-34.91-31.58C115,433.04,120.88,393.91,146.07,371
					c14.33-13.04,33.51-19.01,52.7-16.57C202.11,354.85,202.08,349.59,198.77,349.17L198.77,349.17z"/>
			</g>
		</g>
		<path class="st4" d="M203.79,397.65c0,0-1.43-47.51,45.55-47.51c24.98,0,37.19,36.1,37.19,36.1s-11.82-36.93-44.28-30.64
			C208.28,362.19,203.79,397.65,203.79,397.65z"/>
		<path class="st4" d="M387.56,401.63c0,0,1.07-55.61-38.2-55.61c-41.58,0-43.37,37.51-43.37,37.51s8.82-36.82,46.46-32.15
			C388.48,355.86,387.56,401.63,387.56,401.63z"/>
		<g>
			<g>
				<path class="st5" d="M181.33,295.15c-11.53,10.2-14.2,27.54-6.97,40.99c1.6,2.98,6.14,0.33,4.54-2.65
					c-6.17-11.48-3.6-26,6.15-34.62C187.59,296.62,183.86,292.92,181.33,295.15L181.33,295.15z"/>
			</g>
			<g>
				<path class="st5" d="M202.8,287.88c-4.33-0.37-8.78,0.3-12.8,1.94c-0.66,0.27-1.2,0.57-1.57,1.21
					c-0.33,0.56-0.47,1.39-0.27,2.03c0.4,1.22,1.87,2.39,3.23,1.84c1.85-0.75,3.78-1.31,5.76-1.63c0.11-0.02,0.22-0.03,0.33-0.05
					c-0.34,0.04-0.35,0.04-0.04,0.01c0.22-0.03,0.44-0.05,0.66-0.07c0.52-0.05,1.03-0.08,1.55-0.1c1.05-0.04,2.11,0,3.16,0.09
					c1.37,0.12,2.69-1.29,2.63-2.63C205.37,288.98,204.28,288,202.8,287.88L202.8,287.88z"/>
			</g>
			<g>
				<path class="st5" d="M291.35,347.33c1.69,0.13,3.38,0.13,5.07,0.04c0.7-0.04,1.36-0.27,1.86-0.77c0.46-0.46,0.8-1.2,0.77-1.86
					c-0.03-0.68-0.25-1.39-0.77-1.86c-0.5-0.46-1.16-0.81-1.86-0.77c-1.69,0.1-3.38,0.09-5.07-0.04c-0.64-0.05-1.42,0.33-1.86,0.77
					c-0.46,0.46-0.8,1.2-0.77,1.86c0.03,0.68,0.25,1.39,0.77,1.86C290.02,347.05,290.62,347.27,291.35,347.33L291.35,347.33z"/>
			</g>
			<g>
				<path class="st5" d="M268.58,324.1c0.01,6.04,2.72,12.48,7.01,16.69c2.24,2.2,4.91,3.77,7.83,4.9c1.32,0.51,2.88-0.57,3.23-1.84
					c0.41-1.49-0.51-2.72-1.84-3.23c-0.17-0.07-0.34-0.13-0.51-0.2c0.05,0.02,0.29,0.12,0.01,0c-0.28-0.13-0.55-0.25-0.83-0.39
					c-0.52-0.26-1.03-0.55-1.53-0.86c-0.47-0.3-0.94-0.61-1.38-0.95c0.39,0.29-0.17-0.14-0.28-0.24c-0.23-0.19-0.45-0.4-0.68-0.6
					c-0.37-0.35-0.73-0.72-1.08-1.1c-0.14-0.16-0.28-0.32-0.42-0.48c-0.09-0.11-0.18-0.22-0.27-0.33c-0.25-0.29,0.25,0.34,0.02,0.04
					c-0.58-0.78-1.11-1.59-1.58-2.45c-0.2-0.36-0.39-0.73-0.56-1.1c-0.09-0.2-0.18-0.39-0.27-0.59c-0.06-0.13-0.17-0.46,0.05,0.13
					c-0.04-0.11-0.09-0.22-0.13-0.33c-0.28-0.74-0.54-1.48-0.75-2.23c-0.19-0.68-0.36-1.37-0.49-2.06
					c-0.06-0.29-0.11-0.58-0.15-0.87c-0.02-0.11-0.03-0.23-0.05-0.34c-0.01-0.05,0.08,0.72,0.02,0.17
					c-0.06-0.58-0.13-1.15-0.13-1.73c0-1.42-1.21-2.63-2.63-2.63C269.78,321.47,268.58,322.67,268.58,324.1L268.58,324.1z"/>
			</g>
			<g>
				<path class="st5" d="M312.24,338.27c2.33,0.48,4.8,0.64,7.17,0.5c0.7-0.04,1.35-0.26,1.86-0.77c0.46-0.46,0.8-1.2,0.77-1.86
					c-0.03-0.68-0.25-1.39-0.77-1.86c-0.5-0.46-1.16-0.81-1.86-0.77c-1.75,0.11-3.51,0.02-5.25-0.21c0.23,0.03,0.47,0.06,0.7,0.09
					c-0.41-0.06-0.82-0.11-1.22-0.2c-0.7-0.14-1.4-0.1-2.03,0.26c-0.55,0.32-1.07,0.94-1.21,1.57c-0.15,0.67-0.12,1.43,0.27,2.03
					C311.02,337.61,311.57,338.13,312.24,338.27L312.24,338.27z"/>
			</g>
			<g>
				<path class="st5" d="M253.5,240.11c-6.23,0.84-12.25,3.11-17.49,6.56c-1.19,0.78-1.69,2.33-0.94,3.6
					c0.69,1.18,2.41,1.73,3.6,0.94c4.98-3.27,10.26-5.22,16.24-6.03c1.37-0.18,2.23-2.01,1.84-3.23
					C256.24,240.44,254.96,239.91,253.5,240.11L253.5,240.11z"/>
			</g>
			<g>
				<path class="st5" d="M270.27,241.39c-2.44-0.56-4.93-0.94-7.42-1.17c-0.63-0.06-1.42,0.34-1.86,0.77
					c-0.46,0.46-0.8,1.2-0.77,1.86c0.03,0.68,0.25,1.39,0.77,1.86c0.54,0.5,1.13,0.7,1.86,0.77c0.74,0.07,1.48,0.15,2.22,0.25
					c-0.23-0.03-0.47-0.06-0.7-0.09c1.51,0.21,3.02,0.48,4.51,0.82c0.68,0.16,1.41,0.09,2.03-0.26c0.55-0.32,1.07-0.94,1.21-1.57
					C272.42,243.28,271.71,241.72,270.27,241.39L270.27,241.39z"/>
			</g>
			<g>
				<path class="st5" d="M308.37,277.59c3.47,6.4,8.94,11.51,15.5,14.65c1.24,0.59,2.9,0.38,3.6-0.94c0.62-1.17,0.38-2.96-0.94-3.6
					c-1.72-0.82-3.37-1.77-4.94-2.86c-0.16-0.11-0.32-0.23-0.48-0.34c-0.06-0.05-0.62-0.46-0.38-0.28c0.26,0.2-0.23-0.18-0.28-0.22
					c-0.18-0.14-0.35-0.29-0.53-0.43c-0.65-0.54-1.27-1.11-1.87-1.71c-0.55-0.55-1.09-1.12-1.59-1.7c-0.25-0.29-0.49-0.58-0.73-0.87
					c-0.16-0.19-0.36-0.47-0.09-0.11c-0.12-0.16-0.24-0.32-0.36-0.48c-0.88-1.2-1.66-2.45-2.37-3.76c-0.66-1.21-2.43-1.7-3.6-0.94
					C308.09,274.78,307.67,276.29,308.37,277.59L308.37,277.59z"/>
			</g>
			<g>
				<path class="st5" d="M304.18,264.88c0.3,2.07,0.77,4.12,1.41,6.12c0.21,0.65,0.62,1.22,1.21,1.57c0.56,0.33,1.39,0.47,2.03,0.26
					c0.64-0.21,1.25-0.6,1.57-1.21c0.32-0.61,0.48-1.35,0.26-2.03c-0.63-2-1.1-4.04-1.41-6.12c-0.09-0.61-0.71-1.28-1.21-1.57
					c-0.56-0.33-1.39-0.47-2.03-0.26c-0.64,0.21-1.25,0.6-1.57,1.21c-0.09,0.21-0.18,0.42-0.27,0.63
					C304.06,263.95,304.06,264.41,304.18,264.88L304.18,264.88z"/>
			</g>
			<g>
				<g>
					<path class="st5" d="M142.18,336.13c-0.37-6.63,1.59-13.21,5.74-18.36c0.89-1.1,1.08-2.64,0-3.72c-0.92-0.92-2.82-1.11-3.72,0
						c-5.05,6.25-7.73,14.02-7.28,22.07c0.08,1.42,1.15,2.63,2.63,2.63C140.91,338.75,142.26,337.55,142.18,336.13L142.18,336.13z"
						/>
				</g>
				<g>
					<path class="st5" d="M145.84,347.91c-0.68-1.15-1.28-2.34-1.8-3.56c0.09,0.21,0.18,0.42,0.26,0.63
						c-0.35-0.83-0.66-1.67-0.93-2.53c-0.21-0.65-0.61-1.22-1.21-1.57c-0.56-0.33-1.39-0.47-2.03-0.26
						c-0.64,0.21-1.25,0.6-1.57,1.21c-0.32,0.61-0.48,1.35-0.27,2.03c0.74,2.34,1.74,4.61,2.99,6.72c0.34,0.57,0.93,1.03,1.57,1.21
						c0.63,0.17,1.47,0.1,2.03-0.26C146.09,350.74,146.59,349.18,145.84,347.91L145.84,347.91z"/>
				</g>
			</g>
			<g>
				<g>
					<path class="st5" d="M103.02,419.03c-0.23-2.45-0.27-4.92-0.12-7.38c0.09-1.38-1.27-2.69-2.63-2.63
						c-1.5,0.07-2.54,1.16-2.63,2.63c-0.15,2.46-0.11,4.93,0.12,7.38c0.07,0.71,0.25,1.34,0.77,1.86c0.46,0.46,1.2,0.8,1.86,0.77
						c0.68-0.03,1.39-0.25,1.86-0.77C102.69,420.4,103.08,419.71,103.02,419.03L103.02,419.03z"/>
				</g>
				<g>
					<path class="st5" d="M107.29,436.22c-0.19-0.41-0.38-0.83-0.57-1.25c-0.12-0.27-0.1-0.24,0.03,0.08
						c-0.05-0.12-0.1-0.24-0.15-0.36c-0.07-0.18-0.15-0.37-0.22-0.55c-0.35-0.9-0.67-1.81-0.95-2.73c-0.57-1.84-1.02-3.73-1.34-5.63
						c-0.23-1.36-1.97-2.24-3.23-1.84c-1.46,0.47-2.09,1.78-1.84,3.23c0.7,4.06,1.97,7.97,3.73,11.69c0.59,1.25,2.48,1.67,3.6,0.94
						C107.63,438.99,107.92,437.56,107.29,436.22L107.29,436.22z"/>
				</g>
			</g>
			<g>
				<g>
					<path class="st5" d="M128.23,412c-5.46,26.29,4.8,54.24,27.68,68.92c2.86,1.83,5.5-2.72,2.65-4.54
						c-20.81-13.35-30.23-39.08-25.27-62.98C133.99,410.1,128.92,408.69,128.23,412L128.23,412z"/>
				</g>
				<g>
					<path class="st5" d="M135.19,393.73c-1.54,2.74-2.86,5.59-4.02,8.52c-0.23,0.6-0.04,1.5,0.27,2.03
						c0.32,0.55,0.94,1.07,1.57,1.21c0.67,0.15,1.43,0.12,2.03-0.26c0.61-0.39,0.94-0.9,1.21-1.57c0.2-0.51,0.41-1.02,0.62-1.52
						c-0.09,0.21-0.18,0.42-0.26,0.63c0.92-2.18,1.97-4.3,3.13-6.37c0.68-1.2,0.33-2.93-0.94-3.6
						C137.54,392.13,135.91,392.45,135.19,393.73L135.19,393.73z"/>
				</g>
			</g>
			<g>
				<g>
					<path class="st5" d="M523.85,459.96c-3.2,15.29-16.55,26.45-32.22,26.56c-3.38,0.02-3.39,5.28,0,5.26
						c17.88-0.12,33.62-12.87,37.29-30.42C529.61,458.06,524.54,456.64,523.85,459.96L523.85,459.96z"/>
				</g>
				<g>
					<path class="st5" d="M523.6,446.01c0.27,1.16,0.48,2.33,0.64,3.5c-0.03-0.23-0.06-0.47-0.09-0.7c0.2,1.57,0.31,3.15,0.31,4.73
						c0,1.37,1.21,2.69,2.63,2.63c1.42-0.06,2.63-1.16,2.63-2.63c-0.01-3-0.37-6.01-1.05-8.93c-0.31-1.34-1.92-2.26-3.23-1.84
						C524.04,443.23,523.27,444.57,523.6,446.01L523.6,446.01z"/>
				</g>
			</g>
			<g>
				<path class="st5" d="M476.08,410.68c8.41,28.5-5.25,61.54-34.27,71.49c-3.18,1.09-1.82,6.17,1.4,5.07
					c31.69-10.86,47.2-46.58,37.94-77.95C480.2,406.05,475.12,407.43,476.08,410.68L476.08,410.68z"/>
			</g>
			<g>
				<path class="st5" d="M461.37,386.38c1.74,1.7,3.37,3.5,4.88,5.39c0.09,0.11,0.17,0.22,0.26,0.32c0.04,0.05,0.33,0.39,0.11,0.14
					c-0.24-0.28,0.13,0.17,0.17,0.23c0.08,0.11,0.17,0.22,0.25,0.33c0.37,0.5,0.73,1,1.09,1.51c0.71,1.02,1.39,2.07,2.04,3.13
					c0.72,1.17,2.39,1.72,3.6,0.94c1.18-0.76,1.71-2.34,0.94-3.6c-2.69-4.41-5.92-8.51-9.61-12.12c-0.98-0.96-2.75-1.05-3.72,0
					C460.42,383.7,460.32,385.36,461.37,386.38L461.37,386.38z"/>
			</g>
			<g>
				<path class="st5" d="M432.8,303.51c8.79,11.06,9.15,26.98,1.29,38.6c-1.9,2.81,2.65,5.44,4.54,2.65
					c9.28-13.72,8.1-32.13-2.11-44.97C434.42,297.14,430.72,300.89,432.8,303.51L432.8,303.51z"/>
			</g>
			<g>
				<path class="st5" d="M417.92,293.54c0.83,0.23,1.66,0.49,2.47,0.79c0.34,0.13,0.7,0.33,1.05,0.41
					c-0.38-0.16-0.44-0.19-0.18-0.08c0.1,0.04,0.2,0.09,0.3,0.13c0.2,0.09,0.39,0.18,0.59,0.27c1.51,0.71,2.96,1.56,4.35,2.5
					c1.14,0.78,2.97,0.25,3.6-0.94c0.71-1.33,0.27-2.77-0.94-3.6c-2.99-2.04-6.34-3.6-9.83-4.56c-1.32-0.37-2.92,0.45-3.23,1.84
					C415.77,291.7,416.5,293.15,417.92,293.54L417.92,293.54z"/>
			</g>
		</g>
		
			<ellipse transform="matrix(0.3338 -0.9426 0.9426 0.3338 -139.8786 671.9086)" class="st0" cx="405.44" cy="434.92" rx="27.68" ry="18.58"/>
		
			<ellipse transform="matrix(0.9426 -0.3338 0.3338 0.9426 -131.6612 93.2296)" class="st0" cx="205.44" cy="429.7" rx="17.35" ry="24.86"/>
		<ellipse class="st6" cx="346.31" cy="395.5" rx="41.25" ry="45.7"/>
		<ellipse class="st6" cx="245.89" cy="397.65" rx="42.1" ry="43.55"/>
		<ellipse cx="232.14" cy="393.76" rx="29.2" ry="36.62"/>
		<ellipse cx="337.86" cy="392.45" rx="34.63" ry="40.23"/>
		<path class="st7" d="M289.69,422.24c0,0-23.31,1.1-10.92,21.41C278.77,443.64,274.69,430.41,289.69,422.24z"/>
		<g>
			<path class="st7" d="M240.3,470.33c0,0,13.28-11.95,20.07-12.38c2.23-0.14,13.24-2.02,24.9-4.01
				c20.95-3.58,47.03-8.04,54.36-8.12c3.75-0.04,16.01,7.01,16.01,7.01s-14.45-4.59-16.64-4.57c-6.9,0.07-33.84,4.68-53.51,8.05
				c-14.23,2.44-23.08,3.93-25.47,4.08C255.47,460.63,240.3,470.33,240.3,470.33z"/>
		</g>
	</g>
	<g>
		<g>
			<path class="st4" d="M149.31,368.39c-0.21,0-0.43-0.02-0.65-0.07c-17.88-4.11-21.96-21.51-22.12-22.25
				c-0.35-1.56,0.64-3.11,2.2-3.45c1.56-0.35,3.1,0.63,3.45,2.19c0.14,0.62,3.52,14.6,17.77,17.87c1.56,0.36,2.53,1.91,2.17,3.47
				C151.82,367.48,150.63,368.39,149.31,368.39z"/>
		</g>
		<g>
			<path class="st4" d="M103.29,451.9c-0.56,0-1.12-0.16-1.61-0.49c-18.05-12.16-16.03-40.04-15.93-41.22
				c0.13-1.59,1.52-2.78,3.12-2.65c1.59,0.13,2.78,1.52,2.65,3.11l0,0c-0.02,0.26-1.83,25.7,13.4,35.96
				c1.33,0.89,1.68,2.69,0.78,4.02C105.13,451.46,104.22,451.9,103.29,451.9z"/>
		</g>
		<g>
			<path class="st4" d="M463.73,368.39c-1.32,0-2.51-0.91-2.82-2.25c-0.36-1.56,0.62-3.11,2.17-3.47
				c14.26-3.28,17.63-17.28,17.77-17.87c0.36-1.55,1.9-2.53,3.46-2.18c1.56,0.35,2.53,1.89,2.19,3.45
				c-0.16,0.74-4.24,18.14-22.12,22.25C464.16,368.36,463.94,368.39,463.73,368.39z"/>
		</g>
		<g>
			<path class="st4" d="M509.75,451.9c-0.93,0-1.84-0.45-2.4-1.28c-0.89-1.33-0.54-3.12,0.78-4.02
				c15.28-10.29,13.42-35.7,13.4-35.96c-0.13-1.59,1.06-2.99,2.65-3.12c1.6-0.13,2.99,1.06,3.12,2.65
				c0.09,1.18,2.12,29.06-15.93,41.22C510.86,451.74,510.3,451.9,509.75,451.9z"/>
		</g>
		<g>
			<path class="st4" d="M277.66,280.8c-1.15,0-2.24-0.69-2.69-1.83c-5.72-14.38-3.19-25.71-0.06-32.68
				c3.41-7.58,8.21-11.75,8.41-11.92c1.22-1.04,3.04-0.9,4.08,0.32c1.04,1.21,0.9,3.04-0.31,4.07c-0.07,0.06-4.16,3.67-7.01,10.13
				c-3.78,8.59-3.69,17.99,0.26,27.93c0.59,1.49-0.13,3.17-1.62,3.76C278.38,280.73,278.02,280.8,277.66,280.8z"/>
		</g>
		<g>
			<path class="st4" d="M266.38,340.38c-0.85,0-1.69-0.37-2.26-1.08c-10.08-12.57-9.48-24.32-9.45-24.82
				c0.1-1.6,1.47-2.81,3.07-2.71c1.59,0.1,2.8,1.46,2.71,3.05c0,0.07-0.11,2.59,0.83,6.38c0.87,3.51,2.86,8.87,7.35,14.48
				c1,1.25,0.8,3.07-0.45,4.07C267.65,340.17,267.01,340.38,266.38,340.38z"/>
		</g>
		<g>
			<path class="st4" d="M315.51,346.02c-2,0-3.99-0.23-5.96-0.69c-15.44-3.6-23.8-20.07-24.15-20.76c-0.71-1.43-0.13-3.17,1.3-3.88
				c1.43-0.71,3.17-0.13,3.88,1.3c0.1,0.19,7.56,14.76,20.32,17.72c7.02,1.62,14.52-0.56,22.32-6.49c1.27-0.97,3.09-0.72,4.06,0.55
				c0.97,1.27,0.72,3.09-0.55,4.06C329.55,343.27,322.44,346.02,315.51,346.02z"/>
		</g>
		<g>
			<path class="st4" d="M354.54,342.08c-0.6,0-1.2-0.19-1.72-0.57c-5.03-3.73-7.85-15.32-8.36-17.6c-0.35-1.56,0.63-3.11,2.19-3.46
				c1.56-0.35,3.11,0.63,3.46,2.19l0,0c1.08,4.81,3.71,12.41,6.16,14.22c1.28,0.95,1.55,2.76,0.6,4.05
				C356.3,341.67,355.42,342.08,354.54,342.08z"/>
		</g>
		<g>
			<path class="st4" d="M334.96,338.41c-0.4,0-0.81-0.08-1.2-0.26c-19.96-9.14-16.33-23.37-16.16-23.97
				c0.42-1.54,2.01-2.45,3.56-2.03c1.53,0.42,2.44,1.99,2.04,3.53c-0.12,0.47-2.28,10.22,12.98,17.21c1.45,0.67,2.09,2.38,1.43,3.84
				C337.11,337.78,336.06,338.41,334.96,338.41z"/>
		</g>
	</g>
	<path d="M198.04,330.63c0,0,27.22-56.43,58.38-0.19C256.42,330.43,233.08,296.85,198.04,330.63z"/>
	<path d="M294.83,347.63c0,0,48.41,40.59,60.31-26.41C355.15,321.22,343.15,363.39,294.83,347.63z"/>
	<g>
		<path class="st17" d="M74.79,234.4c0-4.14,1.33-8.34,3.99-12.59c2.66-4.25,6.54-7.77,11.64-10.56c5.1-2.79,11.05-4.19,17.85-4.19
			c6.32,0,11.9,1.17,16.74,3.5c4.84,2.33,8.58,5.5,11.22,9.51c2.64,4.01,3.96,8.37,3.96,13.08c0,3.71-0.75,6.95-2.26,9.74
			c-1.5,2.79-3.29,5.2-5.36,7.23c-2.07,2.03-5.79,5.44-11.15,10.23c-1.48,1.35-2.67,2.54-3.56,3.56c-0.89,1.02-1.56,1.96-1.99,2.81
			c-0.44,0.85-0.77,1.7-1.01,2.55c-0.24,0.85-0.6,2.34-1.08,4.48c-0.83,4.54-3.42,6.8-7.78,6.8c-2.27,0-4.18-0.74-5.72-2.22
			c-1.55-1.48-2.32-3.68-2.32-6.61c0-3.66,0.57-6.83,1.7-9.51c1.13-2.68,2.64-5.04,4.51-7.06c1.87-2.03,4.4-4.44,7.59-7.23
			c2.79-2.44,4.81-4.28,6.05-5.53c1.24-1.24,2.29-2.63,3.14-4.15c0.85-1.53,1.28-3.18,1.28-4.97c0-3.49-1.3-6.43-3.89-8.83
			c-2.59-2.4-5.94-3.6-10.04-3.6c-4.8,0-8.33,1.21-10.59,3.63c-2.27,2.42-4.19,5.98-5.76,10.69c-1.48,4.93-4.29,7.39-8.44,7.39
			c-2.44,0-4.5-0.86-6.18-2.58C75.63,238.26,74.79,236.4,74.79,234.4z M106.71,306.07c-2.66,0-4.98-0.86-6.96-2.58
			c-1.98-1.72-2.98-4.13-2.98-7.23c0-2.75,0.96-5.06,2.88-6.93c1.92-1.87,4.27-2.81,7.06-2.81c2.75,0,5.06,0.94,6.93,2.81
			c1.87,1.87,2.81,4.19,2.81,6.93c0,3.05-0.98,5.45-2.94,7.19C111.55,305.2,109.28,306.07,106.71,306.07z"/>
	</g>
	<g>
		<path class="st17" d="M90.85,322.46c0.94,4.03,0.59,8.42-1.04,13.17c-1.63,4.74-4.61,9.05-8.95,12.92
			c-4.34,3.87-9.82,6.58-16.44,8.12c-6.16,1.43-11.86,1.56-17.1,0.38c-5.24-1.18-9.6-3.42-13.08-6.73
			c-3.48-3.31-5.75-7.26-6.81-11.84c-0.84-3.61-0.84-6.94-0.01-10c0.83-3.06,2.03-5.81,3.59-8.25c1.56-2.44,4.41-6.61,8.54-12.49
			c1.14-1.65,2.03-3.08,2.66-4.28c0.64-1.2,1.08-2.26,1.31-3.19c0.23-0.93,0.37-1.83,0.41-2.71c0.04-0.88,0.05-2.42,0.04-4.61
			c-0.22-4.61,1.79-7.4,6.04-8.39c2.21-0.51,4.23-0.22,6.08,0.87c1.84,1.09,3.09,3.06,3.76,5.91c0.83,3.57,1,6.78,0.5,9.65
			c-0.5,2.87-1.43,5.5-2.8,7.9c-1.37,2.4-3.29,5.32-5.75,8.76c-2.16,3.01-3.71,5.26-4.64,6.75c-0.93,1.49-1.64,3.08-2.12,4.75
			c-0.48,1.68-0.52,3.39-0.12,5.13c0.79,3.4,2.72,5.97,5.79,7.72c3.07,1.75,6.6,2.16,10.59,1.23c4.67-1.09,7.84-3.06,9.5-5.93
			c1.66-2.87,2.72-6.77,3.19-11.72c0.33-5.13,2.51-8.17,6.54-9.11c2.38-0.55,4.58-0.18,6.6,1.12
			C89.16,318.89,90.4,320.51,90.85,322.46z M43.55,259.88c2.59-0.6,5.05-0.29,7.37,0.94c2.32,1.23,3.83,3.35,4.53,6.37
			c0.62,2.67,0.21,5.14-1.23,7.4c-1.44,2.26-3.52,3.71-6.24,4.34c-2.68,0.62-5.14,0.23-7.39-1.17c-2.25-1.4-3.69-3.44-4.31-6.12
			c-0.69-2.97-0.28-5.53,1.24-7.67C39.03,261.82,41.04,260.46,43.55,259.88z"/>
	</g>
</g>
</svg>
