<?xml version="1.0" encoding="utf-8"?>
<!-- Generator: Adobe Illustrator 24.0.1, SVG Export Plug-In . SVG Version: 6.00 Build 0)  -->
<svg version="1.1" id="Capa_1" xmlns="http://www.w3.org/2000/svg" xmlns:xlink="http://www.w3.org/1999/xlink" x="0px" y="0px"
	 viewBox="0 0 566.93 566.93" style="enable-background:new 0 0 566.93 566.93;" xml:space="preserve">
<style type="text/css">
	.st0{fill:#F9D6E4;}
	.st1{fill:#45A759;}
	.st2{fill:#15632D;}
	.st3{fill:#F08CA7;}
	.st4{fill:#B52955;}
	.st5{fill:#F6BFD3;}
	.st6{fill:#FFFFFF;}
	.st7{fill:#CD94A9;}
	.st8{fill:#E16874;}
	.st9{fill:#EEEEEE;}
	.st10{fill:#C9C7C7;}
	.st11{clip-path:url(#SVGID_2_);}
	.st12{clip-path:url(#SVGID_2_);fill:#F08CA7;}
	.st13{fill:#CBC9CA;}
	.st14{fill:#E1E0E0;}
	.st15{fill:#B693C3;}
	.st16{fill:#F8DF28;}
	.st17{fill:#65A2D8;}
	.st18{fill:#DEE275;}
	.st19{fill:#FFDB43;}
	.st20{fill:#E75C2A;}
	.st21{fill:#F49D4E;}
	.st22{opacity:0.5;}
	.st23{fill:#F3B0CF;}
	.st24{fill:#704F9A;}
	.st25{fill:#616160;}
	.st26{fill:#5AE4A7;}
	.st27{fill:#FF0000;}
	.st28{fill:#82CEE0;}
	.st29{fill:#9E6D0B;}
	.st30{fill:#828E0C;}
	.st31{fill:#FFFF00;}
	.st32{clip-path:url(#SVGID_4_);}
	.st33{clip-path:url(#SVGID_4_);fill:#F08CA7;}
	.st34{clip-path:url(#SVGID_6_);}
	.st35{clip-path:url(#SVGID_6_);fill:#F08CA7;}
	.st36{fill:none;stroke:#B52955;stroke-width:3;stroke-linecap:round;stroke-linejoin:round;stroke-miterlimit:10;}
</style>
<g>
	<g>
		<path class="st1" d="M217.71,109.03c12.07-7.44,21.73-18.61,27.2-31.16c1.32-2.85,2.31-6.27,1.04-9.17
			c-2.06-4.38-8.98-4.97-13.37-2.28c-4.38,2.69-6.75,7.51-8.61,12.15C220.15,88.41,218.08,98.74,217.71,109.03z"/>
		<path class="st1" d="M233.19,139.47c9.9-10.04,16.39-22.94,18.43-36.34c0.48-3.24,0.57-6.75-1.39-9.15
			c-3.13-3.75-10.08-2.73-13.71,0.91c-3.63,3.64-4.73,8.83-5.23,13.67C230.19,118.83,230.75,129.33,233.19,139.47z"/>
		<path class="st1" d="M247.61,159.17c11.18-7.94,19.7-19.12,23.84-31.35c1.02-2.89,1.76-6.21,0.14-8.87
			c-2.36-4.01-9.29-4.2-13.47-1.31c-4.17,2.89-6.03,7.53-7.33,12.12C248,139.25,246.95,149.24,247.61,159.17z"/>
		<path class="st1" d="M216.98,106.47c-3.5-12.85-11.45-24.46-22.38-32.64c-2.52-1.95-5.73-3.8-9.01-3.36
			c-5.16,0.82-8.1,6.9-6.82,11.54c1.33,4.76,5.36,8.21,9.45,10.97C196.93,98.83,206.69,103.54,216.98,106.47z"/>
		<path class="st1" d="M230.68,128.69c-8.56-10.46-20.61-18.14-34.12-21.71c-3.26-0.76-6.91-1.4-9.79,0.25
			c-4.46,2.45-4.78,9.11-1.77,12.9c3.17,3.87,8.3,5.47,13.26,6.6C208.76,129.04,219.73,129.73,230.68,128.69z"/>
		<path class="st1" d="M248.41,156.9c-8.56-10.46-20.61-18.14-34.12-21.71c-3.26-0.76-6.91-1.4-9.79,0.25
			c-4.46,2.45-4.78,9.11-1.77,12.9c3.17,3.87,8.3,5.47,13.26,6.6C226.49,157.25,237.46,157.94,248.41,156.9z"/>
		<path class="st1" d="M264.61,198.32c9.22-9.95,15.11-22.51,16.37-35.24c0.26-3.03,0.27-6.37-1.91-8.58
			c-3.44-3.38-10.26-2-13.64,1.55c-3.33,3.67-4.09,8.61-4.37,13.25C260.53,179.12,261.74,189,264.61,198.32z"/>
		<path class="st1" d="M264.25,191.76c-8.56-10.46-20.61-18.14-34.12-21.71c-3.26-0.76-6.91-1.4-9.79,0.25
			c-4.46,2.45-4.78,9.11-1.77,12.9c3.17,3.87,8.3,5.47,13.26,6.6C242.33,192.11,253.43,192.76,264.25,191.76z"/>
		<g>
			<path class="st2" d="M212.35,86.92c-0.08-0.64,0.9-0.71,0.85-0.02c5.58,35,33.42,59.25,46.92,91.03
				c6.49,15.31,10.66,31.41,13.22,47.79c2.76,16.98,5.25,34.85,4.85,52.23c0.05,2.26-3.31,2.46-3.62,0.29
				c-2.71-17.26-2.73-35.03-5.57-52.25c-2.87-17.74-7.19-35.53-14.98-51.73C240.29,145.62,213.79,120.25,212.35,86.92L212.35,86.92z
				"/>
		</g>
		<path class="st1" d="M215.18,96.52c5.85-15.22,6.45-32,2.01-47.21c-1.09-3.64-2.82-7.47-6.24-9.11
			c-5.45-2.56-12.58,1.73-14.7,7.26s-0.69,11.46,1.18,16.98C201.46,75.91,207.46,86.84,215.18,96.52z"/>
	</g>
	<g>
		<path class="st3" d="M371.15,507.03c0,0-0.02-0.04-0.05-0.11C370.33,506.55,371.15,507.03,371.15,507.03z"/>
		<path class="st3" d="M523.9,441.13c-2.73-5.88-6.55-11.2-11.17-15.71c10-31.07-7.95-70.36-41.34-77
			c1.12-20.47-7.13-41.49-24.26-53.66c-6.52-4.63-14.05-7.41-21.99-8.29c-0.61-0.07-1.11,0.04-1.5,0.27
			c-1.34-1.47-1.75-2.85-1.75-2.85s-4.7-9.62-19.08-18.41s-30.61-4.18-35.73-2.86c-0.57,0.15-1.07,0.23-1.52,0.27
			c-8.17-33.12-48.08-50.04-79.07-39.51c-9.13,3.1-17.43,8.16-24.69,14.45c-24.26-10.63-53.2-2.94-68.26,19.2
			c-0.27,0.4-0.42,0.8-0.46,1.19c-1.49,0.35-2.58,0.31-2.58,0.31s0.76-2.19-19.58,2.92c-20.34,5.11-25.24,23.39-27.17,28.48
			c-0.16,0.41-0.33,0.78-0.52,1.12c-0.56-0.38-1.27-0.56-2.1-0.4c-28.25,5.5-47.14,33.02-42.63,61.26
			c-27.39,10.98-42.21,39.55-42.69,68.1c0,0-0.01,0.01-0.01,0.01c-17.11,16.54-22.74,41.9-13.12,63.83
			c8.54,19.45,27.73,32.61,48.56,35.36c14.51,1.92,29.34-1.11,41.92-8.58c0.52-0.31,0.87-0.71,1.08-1.14
			c0.78,0.19,1.26,0.41,1.26,0.41s11.36,3.55,20.67,4.95c9.31,1.4,21.8,1.24,30.87-4.47c9.07-5.71,11.27-0.84,11.27-0.84
			s10.75,7.32,19.1,12.97c8.35,5.65,21.07,4.93,28.17,3.65c7.1-1.28,24.52-7.88,29.55-15.06c5.03-7.18,7.1-1.71,7.1-1.71
			s6.7,6.96,22.45,13.47c15.74,6.51,30.55,2.09,38.26,0c7.71-2.09,18.13-8.96,22.42-14.34c3.85-4.83,5.45-2.19,5.74-1.59
			c0.7,0.34,2.72,1.39,7.91,4.18c10.86,5.84,24.77,6.67,36.5,5.44c11.73-1.23,22.07-5.09,25.4-8.21c0.9-0.85,1.76-1.38,2.61-1.66
			c-0.05,0.89,0.3,1.81,1.24,2.45c20.85,14.03,49.21,11.74,67.43-5.56C529,487.59,533.62,462.09,523.9,441.13z"/>
	</g>
	<g>
		<path class="st3" d="M102.99,327.92c0,0,3.35-15.19,15.21-22.81c11.87-7.61,18.86-10.22,18.86-10.22s4.75,0.57,6.69-4.52
			c1.94-5.09,6.83-23.37,27.17-28.48c20.34-5.11,19.58-2.92,19.58-2.92s5.73,0.25,8.86-4.65c3.13-4.9,15.07-16.14,30.26-17.36
			c15.19-1.22,29.13,2.96,29.13,2.96s2.45,3.74,10.32-3.19c7.87-6.93,19.87-13.9,38.58-12.74c18.71,1.16,30.27,5.28,38.4,13.66
			c8.13,8.39,15.02,18.34,15.02,18.34l0.94,4.83c0,0-0.05,3.55,5.07,2.23c5.12-1.32,21.35-5.93,35.73,2.86
			c14.38,8.79,19.08,18.41,19.08,18.41s1.28,4.36,6.88,5.86c5.6,1.5,26.9,9.08,33.4,26.8c6.5,17.72,6.55,25.17,6.55,25.17l0.07,5.23
			c0,0,0.05,2.42,4.87,4.8c4.82,2.38,21.95,6.19,30.74,24.35c8.79,18.16,9.74,28.49,8.48,35.71c-1.26,7.22-4.45,14.05-1.62,15.99
			c2.83,1.94,15.61,18.07,15.03,34.46c-0.58,16.39-6.41,28.04-12.14,35.18c-5.73,7.14-13.34,14.25-27.28,16.82
			c-13.94,2.57-30.86-0.63-35.43-4.38c-4.57-3.75-7.2-4.7-10.53-1.58c-3.33,3.12-13.67,6.98-25.4,8.21
			c-11.73,1.23-25.64,0.4-36.5-5.44c-10.86-5.84-7.86-4.07-7.86-4.07s-1.5-3.9-5.79,1.48c-4.29,5.38-14.71,12.25-22.42,14.34
			c-7.71,2.09-22.51,6.51-38.26,0c-15.74-6.51-22.45-13.47-22.45-13.47s-2.07-5.47-7.1,1.71c-5.03,7.18-22.45,13.77-29.55,15.06
			c-7.1,1.28-19.82,2-28.17-3.65c-8.35-5.65-21.3-17.85-30.37-12.13c-9.07,5.71-21.56,5.87-30.87,4.47
			c-9.31-1.4-20.67-4.95-20.67-4.95s-4.94-2.24-9.04,1.2c-4.1,3.44-34.99,11.65-53.22,0C55.01,499.87,44.02,488.05,41.45,471
			c-2.57-17.06,0.73-26.94,5.39-34.26c4.66-7.32,7.51-10.81,7.51-10.81s3.66-2.75,4.24-9.03c0.58-6.27,3.37-30.6,15.43-42.54
			c12.06-11.94,20.11-17.03,20.11-17.03s7.37-0.7,6.88-6.63C100.53,344.77,102.58,331.83,102.99,327.92z"/>
		<g>
			<path class="st4" d="M376.92,475.59c3.52-1.78,7.3-1.82,11.1-1.03c3.99,0.83,8.37,2.38,11.27,5.36
				c5.86,6.03,6.16,15.27,5.83,23.15c-0.11,2.69,4.06,3.22,4.18,0.51c0.39-9.43-0.23-20.08-7.48-27.05
				c-3.48-3.34-8.31-5.05-12.94-6.07c-4.57-1.01-9.39-0.87-13.62,1.27C372.85,472.94,374.49,476.82,376.92,475.59L376.92,475.59z"/>
		</g>
		<g>
			<path class="st4" d="M169.44,497.92c-1.78-3.52-1.82-7.3-1.03-11.1c0.83-3.99,2.38-8.37,5.36-11.27
				c6.03-5.86,15.27-6.16,23.15-5.83c2.69,0.11,3.22-4.06,0.51-4.18c-9.43-0.39-20.08,0.23-27.05,7.48
				c-3.34,3.48-5.05,8.31-6.07,12.94c-1.01,4.57-0.87,9.39,1.27,13.62C166.79,501.99,170.66,500.35,169.44,497.92L169.44,497.92z"/>
		</g>
		<circle class="st0" cx="283.67" cy="412.51" r="112.97"/>
		<path class="st3" d="M341.35,321.01c-0.77-1.47-2.22-1.65-3.38-1.09c-1.4-3.33-2.67-6.59-2.51-7.39c0.34-1.75-0.46-5.43-0.46-5.43
			s-12.88,0.76-17.52,0c-4.63-0.76-21.54-5.69-24.26-7.55c-2.72-1.86-4.87-3.49-6.71,0c-1.84,3.49-4.16,6.68-14.23,12.78
			c-10.06,6.1-14.03,8.32-17.61,8.42c-3.58,0.1-12.12-1.18-12.12-1.18s-0.03-0.01-0.09-0.01c-0.81-2.58-5.3-2.26-5.39,0.93
			c-0.42,15.67,6.56,34.36,22.93,39.03c9.51,2.71,23.97,1.63,26.64-10c0.04-0.18,0.08-0.37,0.11-0.56c1.48,0.38,2.97,0.68,4.48,0.89
			c6.59,0.92,14.06,0.22,19.41-4.1c1.34-1.08,2.43-2.38,3.29-3.8c5.11,3.52,11.37,5.8,17.61,4.67c7.24-1.31,12.08-7.37,12.46-14.59
			C344.23,328.17,343.12,324.4,341.35,321.01z"/>
		<path class="st3" d="M194.93,346.99c0,0,29.6,19.18,63.95-16.79c0,0,34.25-35.5-8.25-35.97
			C208.12,293.76,192.73,328.76,194.93,346.99z"/>
		<path class="st3" d="M326.85,329.13c0,0,6.14,37.23,54.48,37.38c0,0,29.84-34.89,2.98-58.1
			C357.45,285.2,326.85,301.04,326.85,329.13z"/>
		<path class="st3" d="M306.44,275.93l-34.14,36.39c0,0-8.44,13.09-35.21,8.16c0,0-9.95,12.51-35.67,22.3
			c0,0,16.21,49.44-41.78,53.13C159.63,395.92,137.04,263.51,306.44,275.93z"/>
		<path class="st3" d="M381.33,366.51c0,0-20.02,48.43,4.26,56.88c24.28,8.45,69.34-1.09,44.33-42.09S381.33,366.51,381.33,366.51z"
			/>
		<path class="st3" d="M336.13,288.5c0,0-19.35,45.39,31.49,56.25c0,0-15.13,64.13,68.39,50.05
			C436.01,394.79,443.06,262.3,336.13,288.5z"/>
		<g>
			<path class="st4" d="M285.37,295.48c-4.65,8.01-11.88,14.35-20.28,18.18c-9.78,4.46-20.67,4.5-30.79,1.12
				c-3.37-1.13-4.82,4.19-1.46,5.31c11.3,3.78,23.35,3.46,34.27-1.34c9.54-4.18,17.79-11.49,23.02-20.5
				C291.91,295.19,287.15,292.41,285.37,295.48L285.37,295.48z"/>
		</g>
		<g>
			<path class="st4" d="M271.83,264.64c-0.21,5.69,1.2,11.75,3.29,17c4.73,11.9,14.17,20.55,26.23,24.77
				c10.5,3.67,21.97,3.94,32.93,2.92c3.5-0.33,3.53-5.84,0-5.51c-15.52,1.45-33.4,0.34-45.31-11.02
				c-6.43-6.13-10.03-14.3-11.31-22.99c-0.11-0.76,0.07,0.59-0.02-0.15c-0.03-0.21-0.05-0.42-0.07-0.63
				c-0.04-0.38-0.08-0.76-0.11-1.15c-0.05-0.57-0.08-1.13-0.11-1.7c-0.02-0.51-0.04-1.03-0.02-1.55
				C277.47,261.1,271.96,261.1,271.83,264.64L271.83,264.64z"/>
		</g>
		<g>
			<path class="st4" d="M425.46,393.06c-15.49,7.43-34.41,4.19-46.35-8.18c-11.07-11.47-14.08-29.24-7.02-43.62
				c4.16-8.47,11.13-14.96,19.67-18.88c3.22-1.48,0.42-6.23-2.78-4.76c-17.41,7.99-28.26,26.59-25.9,45.73
				c2.16,17.51,14.87,32.29,31.75,37.34c11.1,3.32,23.02,2.12,33.41-2.87C431.43,396.28,428.64,391.53,425.46,393.06L425.46,393.06z
				"/>
		</g>
		<g>
			<path class="st4" d="M405.5,401.77c-0.8-1.01,0.2,0.29,0.45,0.64c0.72,1.02,1.4,2.07,2.05,3.13c2.17,3.54,4.06,7.28,5.54,11.16
				c4.35,11.4,5.37,23.84,1.08,35.42c-3.33,9.02-9.66,16.49-16.87,22.69c-2.69,2.32,1.22,6.2,3.9,3.9
				c12.63-10.86,21.42-25.61,21.29-42.61c-0.08-11.21-3.73-22.27-9.33-31.91c-1.27-2.19-2.65-4.33-4.22-6.32
				C407.21,395.09,403.33,399.02,405.5,401.77L405.5,401.77z"/>
		</g>
		<g>
			<path class="st4" d="M367.62,344.75c-11.64-3.81-21.51-12.39-26.28-23.77c-4.69-11.18-4.03-24.22,1.75-34.87
				c11.89-21.91,41.06-28.94,61.98-15.73c11.29,7.13,18.59,19.33,19.34,32.67c0.2,3.53,5.71,3.55,5.51,0
				c-0.75-13.42-7.1-25.9-17.66-34.28c-10.83-8.59-24.79-12.11-38.43-10.09c-27.81,4.13-47.43,32.4-39.2,59.81
				c4.54,15.12,16.65,26.7,31.53,31.57C369.53,351.16,370.98,345.85,367.62,344.75L367.62,344.75z"/>
		</g>
		<g>
			<path class="st4" d="M369.03,296.36c12.19-10.65,29.79-12.18,43.56-3.67c13.31,8.22,20.5,23.82,19.65,39.25
				c-0.54,9.86-4.53,19.33-11.23,26.58c-2.4,2.6,1.48,6.51,3.9,3.9c13.38-14.47,16.47-35.93,8.46-53.83
				c-6.78-15.16-21.65-26.23-38.42-26.96c-11.03-0.48-21.57,3.63-29.82,10.84C362.46,294.8,366.37,298.68,369.03,296.36
				L369.03,296.36z"/>
		</g>
		<path class="st3" d="M422.87,385.42c0,0,24.63,7.23,23.28,44.39c-1.35,37.16-14.82,47.57-19.31,58.11
			c-4.49,10.54,17.09,22.34,31.46,7.54c14.37-14.81,27.52-46.66,20.43-75.89c-7.09-29.23-16.26-37.1-32.58-47.75
			C429.84,361.17,409.19,371.49,422.87,385.42z"/>
		<g>
			<path class="st4" d="M397.81,363.29c19.6-2.5,39.27,3.36,54.16,16.41c14.26,12.49,23.43,30.33,25.64,49.14
				c2.28,19.45-2.39,39.36-13.62,55.46c-10.58,15.18-26.84,26.07-45.1,29.39c-24.08,4.38-38.02,2.76-53.89-15.46
				c-2.33-2.68-6.22,1.23-3.9,3.9c15.3,17.57,27.84,19.66,51.26,17.91c19.75-1.48,38.18-11.12,51.07-26.1
				c27.57-32.03,26.69-82.37-2.41-113.16c-16.22-17.15-39.72-25.99-63.21-22.99C394.34,358.23,394.3,363.74,397.81,363.29
				L397.81,363.29z"/>
		</g>
		<path class="st3" d="M89.52,421.3c0,0,9.88-36.25,29.88-47.94c20-11.68,28.9-14.38,37.16-14.86s15.48,1.37,13.94,5.76
			c-1.55,4.39-28.13,10.72-33.29,27.42c-5.16,16.7-15.48,44.97-4.39,66.45c11.1,21.48,19.35,43.41,11.61,44.96
			c-7.74,1.55-46.32-11.77-52.45-41.11C85.84,432.65,87.46,429.81,89.52,421.3z"/>
		<g>
			<g>
				<path class="st4" d="M140.79,395.86c17.58,8.43,39.01,5.25,52.78-8.78c12.89-13.13,16.26-33.19,8.47-49.84
					c-4.46-9.53-12.46-17.19-21.99-21.57c-3.2-1.47-6,3.28-2.78,4.76c15.41,7.07,25.04,22.82,23.3,39.85
					c-1.55,15.19-12.66,28.32-27.12,32.93c-9.83,3.13-20.57,2.37-29.88-2.1C140.39,389.57,137.59,394.32,140.79,395.86
					L140.79,395.86z"/>
			</g>
			<g>
				<path class="st4" d="M159.63,395.92c-12.09,15.35-17.46,37.86-10.29,56.38c3.73,9.65,10.24,17.75,18.04,24.46
					c2.68,2.3,6.59-1.58,3.9-3.9c-11.83-10.17-20.07-23.67-19.66-39.63c0.26-10.05,3.67-19.89,8.73-28.51
					c0.77-1.32,1.59-2.61,2.46-3.87c0.29-0.42,1.51-2.03,0.73-1.04C165.69,397.06,161.82,393.14,159.63,395.92L159.63,395.92z"/>
			</g>
			<g>
				<path class="st4" d="M202.88,348.1c13.13-4.3,24.22-13.8,29.69-26.59c5.43-12.68,4.84-27.28-1.53-39.51
					c-13.06-25.04-46.58-33.32-70.17-18.15c-12.82,8.25-20.91,22.01-21.76,37.23c-0.2,3.54,5.31,3.53,5.51,0
					c1.41-25.05,25.48-42.84,49.88-38.94c24.41,3.9,41.76,28.25,34.7,52.55c-3.89,13.4-14.64,23.78-27.79,28.09
					C198.06,343.89,199.5,349.21,202.88,348.1L202.88,348.1z"/>
			</g>
			<g>
				<path class="st4" d="M203.9,290.5c-14.02-12.24-34.28-14.39-50.24-4.54c-15.02,9.28-23.5,26.96-22.36,44.46
					c0.73,11.21,5.19,21.77,12.82,30.02c2.41,2.61,6.3-1.29,3.9-3.9c-11.61-12.56-14.49-31.55-7.6-47.16
					c5.86-13.27,18.55-23.41,33.29-24.21c9.67-0.52,19.02,2.86,26.29,9.21C202.66,296.72,206.57,292.84,203.9,290.5L203.9,290.5z"/>
			</g>
			<g>
				<path class="st4" d="M171.22,355.83c-19.17-2.44-38.58,2.9-53.91,14.64c-14.66,11.23-25.04,27.54-29.45,45.45
					c-9.01,36.58,7.32,77.84,41.81,94.79c21.33,10.48,46.45,9.78,67.33-1.52c3.12-1.69,0.34-6.45-2.78-4.76
					c-17.6,9.53-38.58,10.92-57.21,3.55c-15.67-6.2-28.56-18.38-36.58-33.1C83.44,443.71,89.61,402.71,116,378.7
					c15.01-13.66,35.11-19.92,55.22-17.36C174.73,361.78,174.69,356.27,171.22,355.83L171.22,355.83z"/>
			</g>
		</g>
		<g>
			<g>
				<path class="st5" d="M152.95,299.22c-12.08,10.69-14.88,28.86-7.31,42.96c1.68,3.12,6.44,0.35,4.76-2.78
					c-6.47-12.03-3.77-27.24,6.44-36.28C159.51,300.76,155.6,296.88,152.95,299.22L152.95,299.22z"/>
			</g>
			<g>
				<path class="st5" d="M175.45,291.6c-4.54-0.39-9.2,0.32-13.42,2.04c-0.69,0.28-1.25,0.6-1.65,1.27
					c-0.35,0.59-0.49,1.46-0.28,2.12c0.42,1.28,1.96,2.51,3.39,1.92c1.94-0.79,3.96-1.37,6.03-1.71c0.11-0.02,0.23-0.04,0.34-0.05
					c-0.35,0.04-0.37,0.05-0.05,0.01c0.23-0.03,0.46-0.05,0.69-0.07c0.54-0.05,1.08-0.09,1.63-0.1c1.1-0.04,2.21,0,3.31,0.09
					c1.44,0.12,2.82-1.35,2.75-2.75C178.14,292.76,176.99,291.73,175.45,291.6L175.45,291.6z"/>
			</g>
			<g>
				<path class="st5" d="M268.24,353.9c1.77,0.14,3.54,0.14,5.32,0.04c0.73-0.04,1.42-0.28,1.95-0.81c0.48-0.48,0.84-1.26,0.81-1.95
					c-0.03-0.71-0.27-1.45-0.81-1.95c-0.52-0.48-1.22-0.85-1.95-0.81c-1.77,0.1-3.55,0.1-5.32-0.04c-0.67-0.05-1.49,0.34-1.95,0.81
					c-0.48,0.48-0.84,1.26-0.81,1.95c0.03,0.71,0.27,1.45,0.81,1.95C266.85,353.61,267.47,353.84,268.24,353.9L268.24,353.9z"/>
			</g>
			<g>
				<path class="st5" d="M244.38,329.55c0.01,6.33,2.85,13.08,7.34,17.49c2.35,2.31,5.15,3.95,8.2,5.13
					c1.39,0.54,3.02-0.59,3.39-1.92c0.43-1.56-0.53-2.85-1.92-3.39c-0.18-0.07-0.36-0.14-0.53-0.21c0.06,0.02,0.3,0.13,0.02,0
					c-0.29-0.13-0.58-0.27-0.86-0.41c-0.55-0.28-1.08-0.58-1.61-0.9c-0.5-0.31-0.98-0.64-1.45-0.99c0.41,0.31-0.18-0.15-0.29-0.25
					c-0.24-0.2-0.48-0.41-0.71-0.63c-0.39-0.37-0.77-0.75-1.13-1.15c-0.15-0.17-0.3-0.34-0.44-0.51c-0.1-0.11-0.19-0.23-0.28-0.34
					c-0.26-0.31,0.26,0.36,0.03,0.04c-0.61-0.82-1.16-1.67-1.65-2.56c-0.21-0.38-0.4-0.76-0.59-1.16c-0.1-0.2-0.19-0.41-0.28-0.62
					c-0.07-0.14-0.18-0.49,0.05,0.13c-0.04-0.12-0.1-0.23-0.14-0.35c-0.29-0.77-0.56-1.55-0.79-2.34c-0.2-0.71-0.37-1.43-0.52-2.16
					c-0.06-0.3-0.11-0.61-0.16-0.91c-0.02-0.12-0.03-0.24-0.05-0.36c-0.01-0.06,0.09,0.75,0.03,0.18c-0.06-0.6-0.13-1.21-0.13-1.82
					c0-1.49-1.26-2.75-2.75-2.75C245.64,326.8,244.37,328.06,244.38,329.55L244.38,329.55z"/>
			</g>
			<g>
				<path class="st5" d="M290.13,344.4c2.44,0.5,5.03,0.67,7.51,0.52c0.73-0.04,1.42-0.28,1.95-0.81c0.48-0.48,0.84-1.26,0.81-1.95
					c-0.03-0.71-0.27-1.45-0.81-1.95c-0.52-0.48-1.22-0.85-1.95-0.81c-1.84,0.11-3.68,0.02-5.5-0.22c0.24,0.03,0.49,0.07,0.73,0.1
					c-0.43-0.06-0.86-0.12-1.28-0.21c-0.73-0.15-1.47-0.11-2.12,0.28c-0.57,0.33-1.12,0.99-1.27,1.65c-0.16,0.71-0.13,1.5,0.28,2.12
					C288.85,343.72,289.43,344.26,290.13,344.4L290.13,344.4z"/>
			</g>
			<g>
				<path class="st5" d="M228.57,241.54c-6.52,0.88-12.83,3.25-18.33,6.87c-1.24,0.82-1.77,2.44-0.99,3.77
					c0.72,1.23,2.52,1.81,3.77,0.99c5.21-3.43,10.75-5.47,17.02-6.31c1.43-0.19,2.34-2.11,1.92-3.39
					C231.45,241.89,230.11,241.33,228.57,241.54L228.57,241.54z"/>
			</g>
			<g>
				<path class="st5" d="M246.15,242.89c-2.56-0.59-5.17-0.98-7.78-1.22c-0.66-0.06-1.49,0.35-1.95,0.81
					c-0.48,0.48-0.84,1.26-0.81,1.95c0.03,0.71,0.27,1.45,0.81,1.95c0.57,0.52,1.18,0.74,1.95,0.81c0.78,0.07,1.55,0.16,2.32,0.26
					c-0.24-0.03-0.49-0.07-0.73-0.1c1.59,0.22,3.16,0.5,4.72,0.86c0.72,0.16,1.48,0.1,2.12-0.28c0.57-0.33,1.12-0.99,1.27-1.65
					C248.4,244.87,247.66,243.23,246.15,242.89L246.15,242.89z"/>
			</g>
			<g>
				<path class="st5" d="M286.08,280.82c3.64,6.71,9.37,12.06,16.25,15.36c1.3,0.62,3.04,0.4,3.77-0.99c0.65-1.23,0.4-3.1-0.99-3.77
					c-1.8-0.86-3.54-1.85-5.17-3c-0.17-0.12-0.33-0.24-0.5-0.36c-0.07-0.05-0.65-0.48-0.4-0.29c0.27,0.21-0.24-0.19-0.29-0.23
					c-0.19-0.15-0.37-0.3-0.55-0.45c-0.68-0.57-1.33-1.17-1.96-1.79c-0.58-0.57-1.14-1.17-1.67-1.78c-0.26-0.3-0.51-0.6-0.76-0.91
					c-0.16-0.2-0.38-0.49-0.1-0.11c-0.13-0.17-0.25-0.34-0.38-0.51c-0.92-1.25-1.74-2.57-2.48-3.94c-0.69-1.27-2.55-1.78-3.77-0.99
					C285.78,277.88,285.34,279.46,286.08,280.82L286.08,280.82z"/>
			</g>
			<g>
				<path class="st5" d="M281.69,267.5c0.32,2.17,0.81,4.32,1.47,6.41c0.22,0.68,0.64,1.28,1.27,1.65c0.59,0.35,1.46,0.49,2.12,0.28
					c0.67-0.22,1.31-0.63,1.65-1.27c0.34-0.64,0.5-1.41,0.28-2.12c-0.66-2.09-1.16-4.24-1.47-6.41c-0.09-0.63-0.74-1.34-1.27-1.65
					c-0.59-0.35-1.46-0.49-2.12-0.28c-0.67,0.22-1.31,0.63-1.65,1.27c-0.09,0.22-0.19,0.44-0.28,0.66
					C281.55,266.52,281.55,267.01,281.69,267.5L281.69,267.5z"/>
			</g>
			<g>
				<g>
					<path class="st5" d="M111.92,342.16c-0.38-6.94,1.67-13.84,6.02-19.24c0.93-1.16,1.13-2.77,0-3.9c-0.97-0.97-2.96-1.16-3.9,0
						c-5.29,6.55-8.1,14.69-7.63,23.13c0.08,1.49,1.21,2.75,2.75,2.75C110.59,344.91,112,343.65,111.92,342.16L111.92,342.16z"/>
				</g>
				<g>
					<path class="st5" d="M115.76,354.51c-0.71-1.2-1.34-2.45-1.88-3.73c0.09,0.22,0.19,0.44,0.28,0.66
						c-0.36-0.87-0.69-1.75-0.97-2.65c-0.21-0.68-0.64-1.28-1.27-1.65c-0.59-0.35-1.46-0.49-2.12-0.28
						c-0.67,0.22-1.31,0.63-1.65,1.27c-0.34,0.64-0.5,1.41-0.28,2.12c0.78,2.45,1.83,4.83,3.13,7.04c0.35,0.6,0.97,1.08,1.65,1.27
						c0.66,0.18,1.54,0.1,2.12-0.28C116.02,357.47,116.55,355.83,115.76,354.51L115.76,354.51z"/>
				</g>
			</g>
			<g>
				<g>
					<path class="st5" d="M70.88,429.03c-0.24-2.57-0.28-5.16-0.12-7.73c0.09-1.44-1.33-2.82-2.75-2.75
						c-1.57,0.07-2.66,1.21-2.75,2.75c-0.16,2.58-0.12,5.16,0.12,7.73c0.07,0.75,0.26,1.4,0.81,1.95c0.48,0.48,1.26,0.84,1.95,0.81
						c0.71-0.03,1.45-0.27,1.95-0.81C70.55,430.47,70.95,429.75,70.88,429.03L70.88,429.03z"/>
				</g>
				<g>
					<path class="st5" d="M75.36,447.05c-0.2-0.43-0.4-0.87-0.59-1.31c-0.12-0.28-0.11-0.25,0.04,0.09
						c-0.05-0.13-0.11-0.25-0.16-0.38c-0.08-0.19-0.15-0.38-0.23-0.58c-0.37-0.94-0.7-1.89-1-2.86c-0.6-1.93-1.07-3.9-1.41-5.9
						c-0.24-1.42-2.07-2.35-3.39-1.92c-1.53,0.5-2.19,1.86-1.92,3.39c0.73,4.25,2.07,8.35,3.91,12.25c0.62,1.31,2.59,1.75,3.77,0.99
						C75.72,449.95,76.02,448.45,75.36,447.05L75.36,447.05z"/>
				</g>
			</g>
			<g>
				<g>
					<path class="st5" d="M97.31,421.67c-5.72,27.54,5.03,56.83,29.01,72.22c2.99,1.92,5.76-2.85,2.78-4.76
						c-21.8-13.99-31.68-40.95-26.48-66C103.34,419.67,98.03,418.2,97.31,421.67L97.31,421.67z"/>
				</g>
				<g>
					<path class="st5" d="M104.6,402.52c-1.62,2.87-3,5.86-4.21,8.92c-0.25,0.62-0.05,1.57,0.28,2.12c0.33,0.57,0.99,1.12,1.65,1.27
						c0.71,0.16,1.5,0.13,2.12-0.28c0.64-0.41,0.99-0.94,1.27-1.65c0.21-0.53,0.43-1.06,0.65-1.59c-0.09,0.22-0.19,0.44-0.28,0.66
						c0.97-2.28,2.06-4.51,3.28-6.67c0.71-1.26,0.34-3.07-0.99-3.77C107.06,400.85,105.35,401.18,104.6,402.52L104.6,402.52z"/>
				</g>
			</g>
			<g>
				<g>
					<path class="st5" d="M511.88,471.93c-3.35,16.02-17.34,27.72-33.77,27.83c-3.54,0.02-3.55,5.53,0,5.51
						c18.74-0.13,35.23-13.49,39.08-31.88C517.91,469.93,512.6,468.45,511.88,471.93L511.88,471.93z"/>
				</g>
				<g>
					<path class="st5" d="M511.62,457.3c0.28,1.21,0.51,2.44,0.67,3.67c-0.03-0.24-0.07-0.49-0.1-0.73c0.21,1.65,0.32,3.3,0.33,4.96
						c0,1.44,1.26,2.82,2.75,2.75c1.49-0.07,2.76-1.21,2.75-2.75c-0.01-3.14-0.38-6.3-1.1-9.36c-0.33-1.4-2.01-2.37-3.39-1.92
						C512.08,454.39,511.27,455.8,511.62,457.3L511.62,457.3z"/>
				</g>
			</g>
			<g>
				<path class="st5" d="M461.82,420.29c8.81,29.86-5.5,64.49-35.91,74.91c-3.33,1.14-1.9,6.47,1.46,5.31
					c33.21-11.38,49.46-48.81,39.76-81.69C466.13,415.43,460.81,416.88,461.82,420.29L461.82,420.29z"/>
			</g>
			<g>
				<path class="st5" d="M446.41,394.82c1.82,1.78,3.53,3.66,5.11,5.65c0.09,0.11,0.18,0.23,0.27,0.34
					c0.04,0.05,0.35,0.41,0.12,0.15c-0.26-0.29,0.13,0.17,0.18,0.24c0.09,0.12,0.17,0.23,0.26,0.35c0.39,0.52,0.77,1.05,1.14,1.58
					c0.75,1.07,1.46,2.17,2.14,3.28c0.75,1.23,2.5,1.8,3.77,0.99c1.24-0.8,1.79-2.45,0.99-3.77c-2.82-4.62-6.2-8.92-10.07-12.7
					c-1.03-1.01-2.88-1.1-3.9,0C445.41,392.02,445.31,393.75,446.41,394.82L446.41,394.82z"/>
			</g>
			<g>
				<path class="st5" d="M416.47,307.98c9.21,11.59,9.59,28.27,1.35,40.45c-1.99,2.95,2.78,5.71,4.76,2.78
					c9.72-14.38,8.48-33.67-2.22-47.13C418.16,301.31,414.28,305.23,416.47,307.98L416.47,307.98z"/>
			</g>
			<g>
				<path class="st5" d="M400.87,297.54c0.87,0.24,1.74,0.52,2.59,0.83c0.36,0.13,0.74,0.35,1.1,0.43c-0.4-0.17-0.46-0.2-0.19-0.08
					c0.1,0.04,0.21,0.09,0.31,0.14c0.21,0.09,0.41,0.19,0.62,0.28c1.59,0.75,3.11,1.63,4.55,2.62c1.19,0.82,3.11,0.26,3.77-0.99
					c0.74-1.4,0.28-2.9-0.99-3.77c-3.13-2.14-6.64-3.77-10.3-4.78c-1.39-0.38-3.06,0.47-3.39,1.92
					C398.61,295.61,399.38,297.12,400.87,297.54L400.87,297.54z"/>
			</g>
		</g>
		
			<ellipse transform="matrix(0.3338 -0.9426 0.9426 0.3338 -161.7821 662.4474)" class="st0" cx="387.79" cy="445.68" rx="29" ry="19.47"/>
		
			<ellipse transform="matrix(0.9426 -0.3338 0.3338 0.9426 -136.7337 84.744)" class="st0" cx="178.21" cy="440.22" rx="18.18" ry="26.05"/>
		<ellipse class="st6" cx="325.83" cy="404.38" rx="43.23" ry="47.89"/>
		<path class="st6" d="M263.92,405.39c0,25.2-18.95,46.87-43.31,46.87s-44.12-20.43-44.12-45.64s19.75-45.64,44.12-45.64
			S263.92,380.19,263.92,405.39z"/>
		<ellipse cx="233.32" cy="405.39" rx="30.6" ry="38.37"/>
		<ellipse cx="333.54" cy="407.27" rx="36.29" ry="42.16"/>
		<path class="st7" d="M266.5,432.39c0,0-24.43,1.16-11.44,22.43C255.06,454.82,250.78,440.96,266.5,432.39z"/>
		<path class="st4" d="M176.49,410.84c0,0-3.99-41.36,30.34-49.44c34.09-8.02,54.86,10.23,57.09,44L176.49,410.84z"/>
		<path class="st4" d="M282.6,404.38c0,0-2.59-46.12,43.23-47.89c36.99-1.42,43.23,42.46,43.23,42.46L282.6,404.38z"/>
		<path d="M165.56,410.98l98.35-5.59C263.92,405.39,226.24,419.28,165.56,410.98z"/>
		<path d="M270.89,405.39l98.16-6.44C369.06,398.96,328.24,409.93,270.89,405.39z"/>
		<path class="st7" d="M236.27,484.26c0,0,15.18-26.45,52.66-11.54C288.93,472.72,260.41,462.1,236.27,484.26z"/>
	</g>
	<g>
		<g>
			<path class="st4" d="M119.39,375.96c-0.22,0-0.45-0.03-0.68-0.08c-18.74-4.3-23.01-22.54-23.18-23.31
				c-0.36-1.63,0.67-3.26,2.3-3.62c1.63-0.36,3.25,0.66,3.62,2.29c0.15,0.65,3.68,15.3,18.62,18.73c1.63,0.37,2.65,2,2.28,3.63
				C122.03,375.01,120.78,375.96,119.39,375.96z"/>
		</g>
		<g>
			<path class="st4" d="M71.17,463.48c-0.58,0-1.17-0.17-1.69-0.52c-18.92-12.75-16.79-41.96-16.69-43.2
				c0.13-1.67,1.59-2.92,3.27-2.78c1.67,0.13,2.91,1.6,2.78,3.26l0,0c-0.02,0.27-1.92,26.93,14.04,37.68
				c1.39,0.94,1.76,2.82,0.82,4.21C73.1,463.01,72.15,463.48,71.17,463.48z"/>
		</g>
		<g>
			<path class="st4" d="M448.87,375.96c-1.38,0-2.63-0.95-2.95-2.35c-0.37-1.63,0.64-3.26,2.28-3.63
				c14.95-3.43,18.48-18.11,18.62-18.73c0.37-1.63,2-2.65,3.63-2.28c1.63,0.37,2.66,1.98,2.29,3.61
				c-0.17,0.77-4.44,19.01-23.18,23.31C449.33,375.94,449.1,375.96,448.87,375.96z"/>
		</g>
		<g>
			<path class="st4" d="M497.1,463.48c-0.97,0-1.93-0.47-2.52-1.34c-0.94-1.39-0.57-3.27,0.82-4.21
				c16.01-10.79,14.06-37.41,14.04-37.68c-0.13-1.67,1.11-3.13,2.78-3.27c1.67-0.13,3.13,1.11,3.27,2.78
				c0.1,1.24,2.22,30.45-16.69,43.2C498.27,463.31,497.68,463.48,497.1,463.48z"/>
		</g>
		<g>
			<path class="st4" d="M253.9,284.18c-1.21,0-2.35-0.72-2.82-1.91c-6-15.07-3.34-26.94-0.06-34.24c3.57-7.95,8.61-12.31,8.82-12.49
				c1.27-1.09,3.19-0.94,4.28,0.33c1.09,1.27,0.94,3.18-0.33,4.27c-0.07,0.06-4.36,3.84-7.34,10.62c-3.96,9-3.87,18.85,0.27,29.27
				c0.62,1.56-0.14,3.32-1.7,3.94C254.65,284.11,254.27,284.18,253.9,284.18z"/>
		</g>
		<g>
			<path class="st4" d="M242.07,346.62c-0.89,0-1.77-0.39-2.37-1.14c-10.56-13.17-9.93-25.49-9.9-26c0.1-1.67,1.54-2.94,3.21-2.84
				c1.67,0.1,2.94,1.53,2.84,3.2c0,0.08-0.12,2.72,0.87,6.68c0.92,3.68,3,9.3,7.7,15.17c1.05,1.31,0.84,3.22-0.47,4.26
				C243.41,346.4,242.74,346.62,242.07,346.62z"/>
		</g>
		<g>
			<path class="st4" d="M293.56,352.53c-2.1,0-4.18-0.24-6.24-0.72c-16.18-3.77-24.94-21.03-25.31-21.76
				c-0.75-1.5-0.14-3.32,1.36-4.07c1.5-0.75,3.32-0.14,4.07,1.36c0.1,0.2,7.92,15.47,21.29,18.57c7.35,1.7,15.22-0.59,23.38-6.8
				c1.33-1.01,3.24-0.76,4.25,0.58c1.01,1.33,0.76,3.24-0.58,4.25C308.27,349.65,300.82,352.53,293.56,352.53z"/>
		</g>
		<g>
			<path class="st4" d="M334.45,348.4c-0.63,0-1.26-0.19-1.8-0.6c-5.27-3.91-8.22-16.05-8.76-18.44c-0.37-1.63,0.66-3.26,2.29-3.62
				c1.64-0.37,3.26,0.66,3.62,2.29l0,0c1.14,5.04,3.89,13,6.45,14.9c1.35,1,1.63,2.9,0.63,4.24
				C336.3,347.97,335.38,348.4,334.45,348.4z"/>
		</g>
		<g>
			<path class="st4" d="M313.94,344.55c-0.42,0-0.85-0.09-1.26-0.28c-20.92-9.58-17.11-24.49-16.93-25.12
				c0.44-1.62,2.11-2.57,3.73-2.12c1.61,0.44,2.56,2.09,2.13,3.7c-0.12,0.49-2.39,10.71,13.6,18.04c1.52,0.7,2.19,2.5,1.49,4.02
				C316.19,343.89,315.09,344.55,313.94,344.55z"/>
		</g>
	</g>
	<path d="M174.21,343.91c0,0,28.53-59.13,61.17-0.2C235.38,343.7,210.92,308.51,174.21,343.91z"/>
	<path d="M351.02,339.97c0,0-28.53-59.13-61.17-0.2C289.85,339.76,314.31,304.58,351.02,339.97z"/>
</g>
</svg>
