<?xml version="1.0" encoding="utf-8"?>
<!-- Generator: Adobe Illustrator 24.0.1, SVG Export Plug-In . SVG Version: 6.00 Build 0)  -->
<svg version="1.1" id="Capa_1" xmlns="http://www.w3.org/2000/svg" xmlns:xlink="http://www.w3.org/1999/xlink" x="0px" y="0px"
	 viewBox="0 0 566.93 566.93" style="enable-background:new 0 0 566.93 566.93;" xml:space="preserve">
<style type="text/css">
	.st0{fill:#F9D6E4;}
	.st1{fill:#45A759;}
	.st2{fill:#15632D;}
	.st3{fill:#F08CA7;}
	.st4{fill:#B52955;}
	.st5{fill:#F6BFD3;}
	.st6{fill:#FFFFFF;}
	.st7{fill:#CD94A9;}
	.st8{fill:#E16874;}
	.st9{fill:#EEEEEE;}
	.st10{fill:#C9C7C7;}
	.st11{clip-path:url(#SVGID_2_);}
	.st12{clip-path:url(#SVGID_2_);fill:#F08CA7;}
	.st13{fill:#CBC9CA;}
	.st14{fill:#E1E0E0;}
	.st15{fill:#B693C3;}
	.st16{fill:#F8DF28;}
	.st17{fill:#65A2D8;}
	.st18{fill:#DEE275;}
	.st19{fill:#FFDB43;}
	.st20{fill:#E75C2A;}
	.st21{fill:#F49D4E;}
	.st22{opacity:0.5;}
	.st23{fill:#F3B0CF;}
	.st24{fill:#704F9A;}
	.st25{fill:#616160;}
	.st26{fill:#5AE4A7;}
	.st27{fill:#FF0000;}
	.st28{fill:#82CEE0;}
	.st29{fill:#9E6D0B;}
	.st30{fill:#828E0C;}
	.st31{fill:#FFFF00;}
	.st32{clip-path:url(#SVGID_4_);}
	.st33{clip-path:url(#SVGID_4_);fill:#F08CA7;}
	.st34{clip-path:url(#SVGID_6_);}
	.st35{clip-path:url(#SVGID_6_);fill:#F08CA7;}
	.st36{fill:none;stroke:#B52955;stroke-width:3;stroke-linecap:round;stroke-linejoin:round;stroke-miterlimit:10;}
</style>
<g>
	<g>
		<path class="st1" d="M237.33,107.27c12.36-7.62,22.25-19.06,27.86-31.91c1.35-2.92,2.36-6.42,1.06-9.4
			c-2.11-4.49-9.2-5.09-13.69-2.34c-4.49,2.76-6.92,7.69-8.82,12.44C239.83,86.15,237.71,96.73,237.33,107.27z"/>
		<path class="st1" d="M253.19,138.44c10.14-10.29,16.79-23.5,18.88-37.21c0.49-3.31,0.59-6.91-1.42-9.38
			c-3.21-3.84-10.33-2.79-14.04,0.93c-3.72,3.73-4.85,9.04-5.36,14C250.11,117.3,250.69,128.06,253.19,138.44z"/>
		<path class="st1" d="M267.95,158.63c11.45-8.13,20.17-19.58,24.42-32.11c1.05-2.96,1.8-6.36,0.14-9.08
			c-2.42-4.11-9.52-4.3-13.79-1.34s-6.18,7.71-7.51,12.41C268.35,138.22,267.28,148.45,267.95,158.63z"/>
		<path class="st1" d="M236.58,104.64C233,91.49,224.86,79.6,213.66,71.21c-2.58-2-5.87-3.9-9.23-3.44
			c-5.29,0.84-8.3,7.06-6.98,11.82c1.36,4.88,5.49,8.41,9.67,11.23C216.05,96.83,226.04,101.65,236.58,104.64z"/>
		<path class="st1" d="M250.61,127.4c-8.77-10.72-21.11-18.58-34.95-22.23c-3.34-0.78-7.08-1.43-10.03,0.25
			c-4.57,2.51-4.89,9.33-1.82,13.21c3.25,3.96,8.5,5.61,13.58,6.76C228.17,127.77,239.4,128.47,250.61,127.4z"/>
		<path class="st1" d="M268.77,156.29c-8.77-10.72-21.11-18.58-34.95-22.23c-3.34-0.78-7.08-1.43-10.03,0.25
			c-4.57,2.51-4.89,9.33-1.82,13.21c3.25,3.96,8.5,5.61,13.58,6.76C246.32,156.65,257.56,157.36,268.77,156.29z"/>
		<path class="st1" d="M285.37,198.72c9.44-10.19,15.48-23.05,16.77-36.09c0.27-3.1,0.28-6.53-1.96-8.78
			c-3.52-3.46-10.51-2.05-13.97,1.59c-3.41,3.76-4.19,8.82-4.48,13.57C281.18,179.05,282.42,189.18,285.37,198.72z"/>
		<path class="st1" d="M284.99,192c-8.77-10.72-21.11-18.58-34.95-22.23c-3.34-0.78-7.08-1.43-10.03,0.25
			c-4.57,2.51-4.89,9.33-1.82,13.21c3.25,3.96,8.5,5.61,13.58,6.76C262.55,192.36,273.91,193.02,284.99,192z"/>
		<g>
			<path class="st2" d="M231.84,84.62c-0.08-0.66,0.93-0.73,0.87-0.02c5.72,35.85,34.22,60.68,48.06,93.23
				c6.64,15.68,10.92,32.17,13.53,48.94c2.82,17.39,5.37,35.69,4.97,53.49c0.05,2.31-3.39,2.52-3.71,0.3
				c-2.78-17.68-2.8-35.88-5.71-53.52c-2.94-18.17-7.37-36.39-15.35-52.98C260.45,144.74,233.32,118.76,231.84,84.62L231.84,84.62z"
				/>
		</g>
		<path class="st1" d="M234.74,94.45c5.99-15.59,6.61-32.78,2.05-48.35c-1.12-3.73-2.89-7.65-6.39-9.33
			c-5.58-2.62-12.88,1.77-15.06,7.44c-2.18,5.67-0.7,11.74,1.21,17.39C220.69,73.35,226.83,84.54,234.74,94.45z"/>
	</g>
	<g>
		<path class="st3" d="M381.84,509.97c0,0-0.02-0.04-0.05-0.11C381.01,509.48,381.84,509.97,381.84,509.97z"/>
		<path class="st3" d="M538.3,442.49c-2.79-6.03-6.71-11.47-11.44-16.09c10.25-31.82-8.14-72.06-42.34-78.86
			c1.15-20.97-7.31-42.49-24.85-54.96c-6.68-4.75-14.39-7.59-22.52-8.49c-0.62-0.07-1.13,0.05-1.54,0.28
			c-1.38-1.51-1.79-2.91-1.79-2.91s-4.81-9.85-19.54-18.85c-14.73-9-31.35-4.28-36.59-2.93c-0.58,0.15-1.09,0.23-1.55,0.27
			c-8.37-33.92-49.24-51.25-80.98-40.47c-9.35,3.18-17.85,8.36-25.29,14.8c-24.85-10.88-54.49-3.01-69.91,19.67
			c-0.28,0.41-0.43,0.82-0.47,1.21c-1.53,0.36-2.65,0.32-2.65,0.32s0.78-2.25-20.06,2.99c-20.83,5.23-25.85,23.96-27.83,29.17
			c-0.16,0.42-0.34,0.8-0.54,1.15c-0.57-0.39-1.3-0.57-2.15-0.41c-28.93,5.63-48.28,33.82-43.66,62.74
			c-28.06,11.24-43.23,40.51-43.72,69.74c0,0-0.01,0.01-0.01,0.01c-17.52,16.94-23.29,42.92-13.43,65.37
			c8.75,19.92,28.4,33.4,49.73,36.21c14.86,1.96,30.05-1.13,42.94-8.79c0.53-0.32,0.89-0.72,1.1-1.17c0.8,0.2,1.29,0.42,1.29,0.42
			s11.64,3.64,21.17,5.07c9.54,1.43,22.33,1.27,31.61-4.58c9.29-5.85,11.55-0.86,11.55-0.86s11.01,7.5,19.56,13.29
			c8.55,5.79,21.58,5.05,28.85,3.73c7.27-1.32,25.11-8.07,30.26-15.42c5.15-7.36,7.27-1.75,7.27-1.75s6.87,7.13,22.99,13.79
			c16.12,6.66,31.28,2.14,39.18,0c7.9-2.14,18.57-9.18,22.96-14.69c3.94-4.95,5.59-2.24,5.88-1.63c0.72,0.35,2.79,1.42,8.1,4.28
			c11.12,5.98,25.37,6.83,37.39,5.57c12.02-1.26,22.61-5.22,26.02-8.41c0.93-0.87,1.8-1.42,2.68-1.7c-0.05,0.91,0.31,1.86,1.27,2.5
			c21.36,14.37,50.4,12.03,69.06-5.7C543.51,490.07,548.25,463.95,538.3,442.49z"/>
	</g>
	<g>
		<path class="st3" d="M107.2,326.53c0,0,3.43-15.56,15.58-23.36c12.15-7.8,19.32-10.47,19.32-10.47s4.87,0.58,6.85-4.63
			c1.98-5.21,6.99-23.93,27.83-29.17c20.83-5.23,20.06-2.99,20.06-2.99s5.87,0.25,9.07-4.76c3.2-5.02,15.43-16.53,30.99-17.78
			c15.56-1.25,29.84,3.04,29.84,3.04s2.51,3.83,10.57-3.26c8.06-7.1,20.35-14.23,39.51-13.04c19.16,1.19,31,5.41,39.33,13.99
			s15.38,18.78,15.38,18.78l0.97,4.94c0,0-0.05,3.63,5.2,2.29c5.24-1.35,21.86-6.07,36.59,2.93c14.73,9,19.54,18.85,19.54,18.85
			s1.31,4.47,7.04,6.01c5.73,1.54,27.55,9.3,34.21,27.45c6.66,18.15,6.71,25.78,6.71,25.78l0.07,5.36c0,0,0.05,2.48,4.98,4.92
			c4.93,2.44,22.48,6.34,31.48,24.94c9,18.6,9.98,29.18,8.68,36.57c-1.29,7.39-4.56,14.39-1.66,16.38
			c2.9,1.99,15.98,18.51,15.39,35.29c-0.6,16.78-6.56,28.72-12.43,36.03c-5.87,7.31-13.66,14.6-27.94,17.23
			c-14.27,2.63-31.6-0.64-36.29-4.49c-4.68-3.84-7.38-4.81-10.79-1.62c-3.41,3.19-14,7.15-26.02,8.41
			c-12.02,1.26-26.26,0.41-37.39-5.57c-11.12-5.98-8.05-4.17-8.05-4.17s-1.54-4-5.93,1.52c-4.39,5.51-15.06,12.55-22.96,14.69
			c-7.9,2.14-23.06,6.66-39.18,0c-16.12-6.66-22.99-13.79-22.99-13.79s-2.12-5.6-7.27,1.75c-5.15,7.36-22.99,14.11-30.26,15.42
			c-7.27,1.32-20.3,2.05-28.85-3.73c-8.55-5.79-21.82-18.28-31.11-12.43c-9.29,5.85-22.08,6.02-31.61,4.58
			c-9.54-1.44-21.17-5.07-21.17-5.07s-5.06-2.29-9.26,1.23c-4.2,3.52-35.83,11.94-54.51,0c-18.68-11.94-29.93-24.04-32.56-41.51
			c-2.63-17.47,0.75-27.59,5.52-35.09c4.78-7.5,7.69-11.07,7.69-11.07s3.75-2.82,4.34-9.25c0.6-6.43,3.45-31.34,15.8-43.57
			c12.35-12.23,20.6-17.44,20.6-17.44s7.55-0.71,7.05-6.79C104.68,343.8,106.79,330.54,107.2,326.53z"/>
		<g>
			<path class="st4" d="M387.76,477.78c3.6-1.83,7.48-1.87,11.37-1.06c4.09,0.85,8.57,2.44,11.54,5.49c6,6.17,6.31,15.64,5.97,23.71
				c-0.11,2.75,4.16,3.3,4.28,0.53c0.4-9.66-0.24-20.57-7.66-27.71c-3.56-3.42-8.51-5.17-13.25-6.22c-4.68-1.03-9.62-0.89-13.95,1.3
				C383.59,475.06,385.27,479.03,387.76,477.78L387.76,477.78z"/>
		</g>
		<g>
			<path class="st4" d="M175.26,500.65c-1.83-3.6-1.87-7.48-1.06-11.37c0.85-4.09,2.44-8.57,5.49-11.54
				c6.17-6,15.64-6.31,23.71-5.97c2.75,0.11,3.3-4.16,0.53-4.28c-9.66-0.4-20.57,0.24-27.71,7.66c-3.42,3.56-5.17,8.51-6.22,13.25
				c-1.03,4.68-0.89,9.62,1.3,13.95C172.55,504.82,176.52,503.13,175.26,500.65L175.26,500.65z"/>
		</g>
		<circle class="st0" cx="292.25" cy="413.18" r="115.7"/>
		<path class="st3" d="M351.33,319.46c-0.79-1.51-2.27-1.69-3.46-1.12c-1.43-3.41-2.73-6.75-2.57-7.57
			c0.35-1.79-0.47-5.56-0.47-5.56s-13.2,0.78-17.94,0c-4.74-0.78-22.06-5.83-24.85-7.73c-2.78-1.9-4.98-3.58-6.87,0
			c-1.88,3.58-4.26,6.85-14.57,13.09c-10.31,6.24-14.37,8.52-18.04,8.62c-3.67,0.1-12.41-1.2-12.41-1.2s-0.03-0.01-0.09-0.01
			c-0.83-2.64-5.43-2.32-5.52,0.96c-0.43,16.05,6.72,35.19,23.48,39.97c9.74,2.77,24.55,1.67,27.28-10.24
			c0.04-0.19,0.08-0.38,0.12-0.57c1.52,0.39,3.05,0.7,4.59,0.91c6.75,0.95,14.4,0.23,19.88-4.2c1.37-1.11,2.49-2.43,3.37-3.89
			c5.23,3.6,11.65,5.94,18.04,4.78c7.41-1.34,12.37-7.55,12.77-14.94C354.28,326.79,353.14,322.94,351.33,319.46z"/>
		<path class="st3" d="M201.37,346.07c0,0,30.31,19.64,65.49-17.2c0,0,35.07-36.36-8.45-36.84
			C214.88,291.55,199.12,327.4,201.37,346.07z"/>
		<path class="st3" d="M336.48,327.77c0,0,6.29,38.13,55.8,38.28c0,0,30.57-35.74,3.05-59.5S336.48,299.01,336.48,327.77z"/>
		<path class="st3" d="M315.57,273.3l-34.97,37.27c0,0-8.64,13.4-36.06,8.36c0,0-10.19,12.81-36.54,22.84
			c0,0,16.6,50.64-42.79,54.42C165.22,396.19,142.08,260.57,315.57,273.3z"/>
		<path class="st3" d="M392.27,366.06c0,0-20.5,49.6,4.36,58.25c24.86,8.65,71.01-1.12,45.41-43.1
			C416.43,339.22,392.27,366.06,392.27,366.06z"/>
		<path class="st3" d="M345.98,286.16c0,0-19.81,46.49,32.25,57.61c0,0-15.5,65.68,70.04,51.26
			C448.27,395.03,455.5,259.33,345.98,286.16z"/>
		<g>
			<path class="st4" d="M293.99,293.31c-4.76,8.2-12.16,14.69-20.77,18.62c-10.01,4.57-21.17,4.61-31.53,1.15
				c-3.45-1.16-4.93,4.29-1.5,5.44c11.57,3.87,23.91,3.54,35.1-1.37c9.77-4.28,18.22-11.77,23.58-21
				C300.69,293.01,295.82,290.17,293.99,293.31L293.99,293.31z"/>
		</g>
		<g>
			<path class="st4" d="M280.13,261.73c-0.22,5.83,1.23,12.03,3.37,17.41c4.85,12.18,14.51,21.05,26.87,25.37
				c10.75,3.76,22.5,4.04,33.73,2.99c3.58-0.33,3.62-5.98,0-5.64c-15.9,1.48-34.21,0.35-46.4-11.29
				c-6.58-6.28-10.27-14.65-11.58-23.54c-0.11-0.78,0.07,0.6-0.02-0.16c-0.03-0.21-0.05-0.43-0.08-0.64
				c-0.04-0.39-0.08-0.78-0.11-1.17c-0.05-0.58-0.09-1.16-0.11-1.74c-0.02-0.53-0.04-1.06-0.02-1.59
				C285.91,258.1,280.26,258.11,280.13,261.73L280.13,261.73z"/>
		</g>
		<g>
			<path class="st4" d="M437.47,393.25c-15.86,7.61-35.24,4.29-47.47-8.38c-11.34-11.75-14.42-29.94-7.19-44.67
				c4.26-8.67,11.4-15.32,20.15-19.34c3.3-1.51,0.43-6.38-2.85-4.87c-17.83,8.19-28.94,27.23-26.53,46.83
				c2.21,17.94,15.23,33.07,32.51,38.24c11.37,3.4,23.57,2.17,34.22-2.94C443.59,396.55,440.73,391.68,437.47,393.25L437.47,393.25z
				"/>
		</g>
		<g>
			<path class="st4" d="M417.03,402.18c-0.82-1.04,0.21,0.3,0.46,0.66c0.74,1.04,1.43,2.12,2.1,3.21c2.23,3.63,4.16,7.45,5.68,11.43
				c4.45,11.67,5.5,24.41,1.11,36.28c-3.42,9.23-9.89,16.89-17.28,23.24c-2.76,2.37,1.25,6.35,3.99,3.99
				c12.93-11.12,21.94-26.23,21.8-43.64c-0.09-11.48-3.82-22.81-9.55-32.68c-1.3-2.24-2.72-4.43-4.32-6.47
				C418.78,395.34,414.81,399.35,417.03,402.18L417.03,402.18z"/>
		</g>
		<g>
			<path class="st4" d="M378.23,343.77c-11.92-3.91-22.03-12.69-26.91-24.34c-4.8-11.45-4.13-24.8,1.79-35.71
				c12.17-22.44,42.05-29.64,63.48-16.11c11.56,7.3,19.04,19.8,19.81,33.46c0.2,3.61,5.85,3.63,5.64,0
				c-0.77-13.75-7.27-26.53-18.09-35.1c-11.09-8.79-25.39-12.41-39.36-10.33c-28.48,4.23-48.57,33.19-40.15,61.25
				c4.65,15.48,17.06,27.34,32.29,32.33C380.19,350.34,381.67,344.9,378.23,343.77L378.23,343.77z"/>
		</g>
		<g>
			<path class="st4" d="M379.68,294.21c12.49-10.9,30.51-12.47,44.61-3.76c13.64,8.42,21,24.39,20.13,40.2
				c-0.56,10.1-4.64,19.8-11.5,27.22c-2.46,2.66,1.52,6.66,3.99,3.99c13.7-14.82,16.86-36.79,8.66-55.13
				c-6.94-15.53-22.17-26.86-39.34-27.61c-11.29-0.49-22.09,3.72-30.54,11.1C372.95,292.61,376.95,296.59,379.68,294.21
				L379.68,294.21z"/>
		</g>
		<path class="st3" d="M434.82,385.43c0,0,25.23,7.4,23.85,45.46c-1.38,38.06-15.17,48.72-19.77,59.51
			c-4.6,10.79,17.5,22.88,32.22,7.72c14.72-15.16,28.18-47.79,20.92-77.73c-7.26-29.94-16.66-38-33.37-48.9
			C441.96,360.59,420.81,371.16,434.82,385.43z"/>
		<g>
			<path class="st4" d="M409.15,362.77c20.07-2.56,40.21,3.45,55.47,16.81c14.6,12.79,24,31.06,26.26,50.32
				c2.34,19.92-2.45,40.32-13.95,56.81c-10.84,15.54-27.48,26.7-46.19,30.1c-24.67,4.48-38.94,2.83-55.2-15.84
				c-2.39-2.74-6.37,1.26-3.99,3.99c15.67,18,28.51,20.14,52.5,18.34c20.23-1.52,39.1-11.39,52.31-26.73
				c28.24-32.81,27.34-84.36-2.47-115.89c-16.61-17.57-40.68-26.61-64.74-23.55C405.6,357.58,405.56,363.22,409.15,362.77
				L409.15,362.77z"/>
		</g>
		<path class="st3" d="M93.41,422.17c0,0,10.12-37.13,30.6-49.09c20.48-11.96,29.6-14.72,38.06-15.22c8.46-0.49,15.86,1.4,14.27,5.9
			c-1.59,4.49-28.81,10.98-34.09,28.09c-5.29,17.11-15.86,46.06-4.49,68.06c11.36,22,19.82,44.46,11.89,46.05
			c-7.93,1.59-47.44-12.05-53.72-42.1C89.65,433.8,91.3,430.89,93.41,422.17z"/>
		<g>
			<g>
				<path class="st4" d="M145.92,396.12c18.01,8.64,39.95,5.38,54.05-9c13.2-13.45,16.65-34,8.67-51.05
					c-4.57-9.76-12.76-17.61-22.52-22.09c-3.28-1.5-6.15,3.36-2.85,4.87c15.78,7.25,25.64,23.37,23.86,40.81
					c-1.59,15.56-12.96,29.01-27.78,33.72c-10.07,3.21-21.07,2.42-30.6-2.15C145.51,389.68,142.65,394.55,145.92,396.12
					L145.92,396.12z"/>
			</g>
			<g>
				<path class="st4" d="M165.22,396.19c-12.38,15.72-17.88,38.78-10.54,57.74c3.82,9.88,10.49,18.18,18.47,25.05
					c2.74,2.36,6.75-1.62,3.99-3.99c-12.12-10.42-20.55-24.24-20.14-40.59c0.26-10.29,3.76-20.37,8.95-29.2
					c0.79-1.35,1.63-2.67,2.52-3.96c0.3-0.43,1.54-2.08,0.74-1.06C171.43,397.35,167.46,393.33,165.22,396.19L165.22,396.19z"/>
			</g>
			<g>
				<path class="st4" d="M209.51,347.21c13.45-4.4,24.81-14.13,30.41-27.23c5.56-12.98,4.96-27.94-1.57-40.46
					c-13.37-25.64-47.71-34.12-71.86-18.58c-13.13,8.44-21.41,22.54-22.29,38.13c-0.2,3.63,5.44,3.62,5.64,0
					c1.44-25.66,26.1-43.87,51.08-39.88c25,4,42.76,28.94,35.54,53.82c-3.98,13.72-14.99,24.36-28.46,28.77
					C204.57,342.89,206.04,348.34,209.51,347.21L209.51,347.21z"/>
			</g>
			<g>
				<path class="st4" d="M210.55,288.22c-14.36-12.54-35.11-14.74-51.45-4.65c-15.38,9.5-24.07,27.61-22.9,45.54
					c0.75,11.48,5.32,22.3,13.13,30.75c2.47,2.67,6.45-1.33,3.99-3.99c-11.89-12.86-14.84-32.31-7.78-48.3
					c6-13.59,18.99-23.97,34.1-24.79c9.9-0.54,19.48,2.93,26.92,9.43C209.29,294.59,213.29,290.61,210.55,288.22L210.55,288.22z"/>
			</g>
			<g>
				<path class="st4" d="M177.09,355.12c-19.64-2.5-39.51,2.97-55.21,15c-15.02,11.5-25.64,28.21-30.16,46.55
					c-9.22,37.47,7.5,79.72,42.82,97.08c21.84,10.73,47.58,10.02,68.96-1.56c3.19-1.73,0.35-6.6-2.85-4.87
					c-18.03,9.76-39.52,11.19-58.59,3.64c-16.05-6.35-29.25-18.83-37.46-33.9c-17.41-31.93-11.09-73.92,15.94-98.52
					c15.38-13.99,35.96-20.41,56.56-17.78C180.68,361.22,180.64,355.57,177.09,355.12L177.09,355.12z"/>
			</g>
		</g>
		<path class="st4" d="M182.48,407.15c0,0-1.53-50.99,48.88-50.99c26.81,0,39.92,38.75,39.92,38.75s-12.69-39.64-47.52-32.88
			C187.3,369.1,182.48,407.15,182.48,407.15z"/>
		<path class="st4" d="M379.7,411.42c0,0,1.15-59.69-40.99-59.68c-44.62,0-46.55,40.26-46.55,40.26s9.46-39.52,49.86-34.5
			C380.69,362.3,379.7,411.42,379.7,411.42z"/>
		<g>
			<g>
				<path class="st5" d="M158.37,297.15c-12.37,10.95-15.24,29.55-7.48,43.99c1.72,3.2,6.59,0.35,4.87-2.85
					c-6.62-12.33-3.86-27.9,6.6-37.16C165.09,298.73,161.09,294.75,158.37,297.15L158.37,297.15z"/>
			</g>
			<g>
				<path class="st5" d="M181.42,289.34c-4.65-0.4-9.42,0.32-13.74,2.08c-0.71,0.29-1.28,0.61-1.69,1.3c-0.35,0.6-0.5,1.5-0.28,2.17
					c0.43,1.31,2.01,2.57,3.47,1.97c1.99-0.81,4.06-1.41,6.18-1.75c0.12-0.02,0.23-0.04,0.35-0.05c-0.36,0.05-0.38,0.05-0.05,0.01
					c0.24-0.03,0.47-0.05,0.71-0.08c0.55-0.05,1.11-0.09,1.67-0.11c1.13-0.04,2.26,0,3.39,0.1c1.47,0.13,2.89-1.39,2.82-2.82
					C184.17,290.53,183,289.48,181.42,289.34L181.42,289.34z"/>
			</g>
			<g>
				<path class="st5" d="M276.45,353.15c1.81,0.14,3.63,0.14,5.44,0.04c0.75-0.04,1.45-0.29,2-0.83c0.49-0.49,0.86-1.29,0.83-2
					c-0.03-0.73-0.27-1.49-0.83-1.99c-0.53-0.49-1.25-0.87-2-0.83c-1.81,0.1-3.63,0.1-5.44-0.04c-0.69-0.05-1.52,0.35-1.99,0.83
					c-0.49,0.49-0.86,1.29-0.83,1.99c0.03,0.73,0.27,1.49,0.83,2C275.03,352.85,275.67,353.09,276.45,353.15L276.45,353.15z"/>
			</g>
			<g>
				<path class="st5" d="M252.01,328.21c0.01,6.48,2.92,13.4,7.52,17.91c2.41,2.36,5.27,4.04,8.4,5.26c1.42,0.55,3.1-0.61,3.47-1.97
					c0.44-1.6-0.54-2.92-1.97-3.47c-0.18-0.07-0.36-0.14-0.54-0.21c0.06,0.02,0.31,0.13,0.02,0c-0.3-0.13-0.59-0.27-0.89-0.42
					c-0.56-0.28-1.11-0.59-1.64-0.92c-0.51-0.32-1.01-0.66-1.48-1.02c0.42,0.31-0.18-0.15-0.3-0.26c-0.25-0.21-0.49-0.42-0.72-0.65
					c-0.4-0.38-0.79-0.77-1.16-1.18c-0.15-0.17-0.31-0.34-0.45-0.52c-0.1-0.12-0.19-0.23-0.29-0.35c-0.27-0.32,0.27,0.37,0.03,0.04
					c-0.62-0.84-1.19-1.71-1.69-2.62c-0.21-0.39-0.41-0.78-0.6-1.18c-0.1-0.21-0.19-0.42-0.29-0.63c-0.07-0.14-0.18-0.5,0.06,0.14
					c-0.04-0.12-0.1-0.24-0.14-0.36c-0.3-0.79-0.58-1.58-0.81-2.4c-0.21-0.73-0.38-1.47-0.53-2.21c-0.06-0.31-0.11-0.62-0.16-0.93
					c-0.02-0.12-0.03-0.25-0.06-0.37c-0.01-0.06,0.09,0.77,0.03,0.19c-0.07-0.62-0.14-1.24-0.14-1.86c0-1.52-1.29-2.82-2.82-2.82
					C253.31,325.39,252.01,326.68,252.01,328.21L252.01,328.21z"/>
			</g>
			<g>
				<path class="st5" d="M298.87,343.42c2.5,0.52,5.15,0.69,7.7,0.54c0.75-0.05,1.45-0.28,2-0.83c0.49-0.49,0.86-1.29,0.83-1.99
					c-0.03-0.73-0.27-1.49-0.83-2c-0.53-0.49-1.25-0.87-2-0.83c-1.88,0.11-3.77,0.03-5.63-0.22c0.25,0.03,0.5,0.07,0.75,0.1
					c-0.44-0.06-0.88-0.12-1.31-0.21c-0.75-0.15-1.5-0.11-2.17,0.28c-0.59,0.34-1.14,1.01-1.3,1.69c-0.16,0.72-0.13,1.53,0.28,2.17
					C297.56,342.72,298.15,343.27,298.87,343.42L298.87,343.42z"/>
			</g>
			<g>
				<path class="st5" d="M235.82,238.07c-6.68,0.9-13.14,3.33-18.78,7.04c-1.27,0.84-1.81,2.5-1.01,3.86
					c0.74,1.26,2.58,1.85,3.86,1.01c5.34-3.51,11.01-5.6,17.43-6.47c1.47-0.2,2.4-2.16,1.97-3.47
					C238.77,238.43,237.4,237.86,235.82,238.07L235.82,238.07z"/>
			</g>
			<g>
				<path class="st5" d="M253.83,239.45c-2.62-0.6-5.29-1.01-7.97-1.25c-0.68-0.06-1.53,0.36-1.99,0.83
					c-0.49,0.49-0.86,1.29-0.83,1.99c0.03,0.73,0.27,1.49,0.83,2c0.58,0.53,1.21,0.75,1.99,0.83c0.79,0.07,1.59,0.16,2.38,0.27
					c-0.25-0.03-0.5-0.07-0.75-0.1c1.63,0.22,3.24,0.52,4.84,0.88c0.73,0.17,1.52,0.1,2.17-0.28c0.59-0.34,1.14-1.01,1.3-1.69
					C256.13,241.48,255.37,239.8,253.83,239.45L253.83,239.45z"/>
			</g>
			<g>
				<path class="st5" d="M294.72,278.3c3.73,6.87,9.59,12.35,16.64,15.73c1.33,0.64,3.11,0.41,3.86-1.01
					c0.67-1.26,0.41-3.18-1.01-3.86c-1.84-0.88-3.62-1.9-5.3-3.07c-0.17-0.12-0.34-0.24-0.51-0.37c-0.07-0.05-0.66-0.49-0.41-0.3
					c0.28,0.21-0.24-0.19-0.3-0.23c-0.19-0.15-0.38-0.31-0.56-0.46c-0.69-0.58-1.37-1.2-2.01-1.83c-0.59-0.59-1.16-1.2-1.71-1.83
					c-0.27-0.31-0.53-0.62-0.78-0.94c-0.17-0.21-0.39-0.5-0.1-0.12c-0.13-0.17-0.26-0.34-0.39-0.52c-0.94-1.28-1.78-2.63-2.54-4.03
					c-0.7-1.3-2.61-1.82-3.86-1.01C294.42,275.29,293.97,276.91,294.72,278.3L294.72,278.3z"/>
			</g>
			<g>
				<path class="st5" d="M290.22,264.66c0.33,2.23,0.83,4.42,1.51,6.57c0.22,0.69,0.66,1.31,1.3,1.69c0.6,0.35,1.5,0.5,2.17,0.28
					c0.68-0.22,1.34-0.64,1.69-1.3c0.35-0.66,0.52-1.45,0.28-2.17c-0.68-2.14-1.19-4.34-1.51-6.57c-0.09-0.65-0.76-1.37-1.3-1.69
					c-0.6-0.35-1.5-0.5-2.17-0.28c-0.68,0.22-1.34,0.64-1.69,1.3c-0.09,0.22-0.19,0.45-0.28,0.67
					C290.09,263.65,290.09,264.16,290.22,264.66L290.22,264.66z"/>
			</g>
			<g>
				<g>
					<path class="st5" d="M116.35,341.12c-0.39-7.11,1.71-14.18,6.16-19.7c0.96-1.18,1.16-2.83,0-3.99c-0.99-0.99-3.03-1.19-3.99,0
						c-5.41,6.71-8.29,15.04-7.82,23.69c0.08,1.52,1.24,2.82,2.82,2.82C114.99,343.94,116.44,342.65,116.35,341.12L116.35,341.12z"
						/>
				</g>
				<g>
					<path class="st5" d="M120.29,353.77c-0.73-1.23-1.37-2.51-1.93-3.82c0.09,0.22,0.19,0.45,0.28,0.67c-0.37-0.89-0.7-1.79-1-2.71
						c-0.22-0.69-0.66-1.31-1.3-1.69c-0.6-0.35-1.5-0.5-2.17-0.28c-0.68,0.22-1.34,0.64-1.69,1.3c-0.35,0.66-0.52,1.45-0.28,2.17
						c0.8,2.51,1.87,4.94,3.21,7.21c0.36,0.61,1,1.11,1.69,1.3c0.68,0.19,1.57,0.1,2.17-0.28
						C120.55,356.8,121.09,355.13,120.29,353.77L120.29,353.77z"/>
				</g>
			</g>
			<g>
				<g>
					<path class="st5" d="M74.33,430.1c-0.25-2.63-0.29-5.28-0.13-7.92c0.09-1.48-1.36-2.89-2.82-2.82
						c-1.61,0.07-2.72,1.24-2.82,2.82c-0.16,2.64-0.12,5.29,0.13,7.92c0.07,0.76,0.27,1.44,0.83,2c0.49,0.49,1.29,0.86,2,0.83
						c0.73-0.03,1.49-0.27,2-0.83C73.98,431.57,74.39,430.83,74.33,430.1L74.33,430.1z"/>
				</g>
				<g>
					<path class="st5" d="M78.91,448.55c-0.21-0.44-0.41-0.89-0.61-1.34c-0.12-0.29-0.11-0.26,0.04,0.09
						c-0.05-0.13-0.11-0.26-0.16-0.39c-0.08-0.2-0.16-0.39-0.23-0.59c-0.37-0.96-0.71-1.94-1.02-2.92c-0.62-1.98-1.09-4-1.44-6.04
						c-0.25-1.46-2.12-2.41-3.47-1.97c-1.57,0.51-2.24,1.91-1.97,3.47c0.75,4.36,2.12,8.55,4,12.55c0.63,1.34,2.66,1.79,3.86,1.01
						C79.28,451.52,79.59,449.98,78.91,448.55L78.91,448.55z"/>
				</g>
			</g>
			<g>
				<g>
					<path class="st5" d="M101.39,422.55c-5.86,28.21,5.16,58.21,29.71,73.96c3.07,1.97,5.9-2.91,2.85-4.87
						c-22.33-14.33-32.44-41.94-27.12-67.59C107.56,420.51,102.13,419,101.39,422.55L101.39,422.55z"/>
				</g>
				<g>
					<path class="st5" d="M108.85,402.94c-1.66,2.94-3.07,6-4.31,9.14c-0.25,0.64-0.05,1.61,0.28,2.17c0.34,0.59,1.01,1.14,1.69,1.3
						c0.72,0.16,1.53,0.13,2.17-0.28c0.65-0.42,1.01-0.97,1.3-1.69c0.22-0.55,0.44-1.09,0.66-1.63c-0.09,0.22-0.19,0.45-0.28,0.67
						c0.99-2.34,2.11-4.62,3.36-6.83c0.72-1.29,0.35-3.14-1.01-3.86C111.38,401.23,109.63,401.57,108.85,402.94L108.85,402.94z"/>
				</g>
			</g>
			<g>
				<g>
					<path class="st5" d="M525.98,474.02c-3.43,16.4-17.76,28.39-34.58,28.5c-3.63,0.03-3.64,5.67,0,5.64
						c19.19-0.13,36.09-13.81,40.02-32.65C532.16,471.98,526.72,470.47,525.98,474.02L525.98,474.02z"/>
				</g>
				<g>
					<path class="st5" d="M525.71,459.05c0.29,1.24,0.52,2.5,0.69,3.76c-0.03-0.25-0.07-0.5-0.1-0.75c0.22,1.69,0.33,3.38,0.33,5.08
						c0,1.48,1.3,2.89,2.82,2.82c1.53-0.07,2.82-1.24,2.82-2.82c-0.01-3.22-0.39-6.45-1.12-9.59c-0.34-1.44-2.06-2.43-3.47-1.97
						C526.18,456.07,525.35,457.51,525.71,459.05L525.71,459.05z"/>
				</g>
			</g>
			<g>
				<path class="st5" d="M474.71,421.14c9.03,30.59-5.63,66.04-36.78,76.72c-3.42,1.17-1.95,6.62,1.5,5.44
					c34.01-11.66,50.66-49.99,40.72-83.66C479.13,416.17,473.68,417.64,474.71,421.14L474.71,421.14z"/>
			</g>
			<g>
				<path class="st5" d="M458.92,395.06c1.86,1.82,3.61,3.75,5.24,5.79c0.09,0.12,0.18,0.23,0.27,0.35
					c0.04,0.05,0.36,0.42,0.12,0.15c-0.26-0.3,0.13,0.18,0.18,0.24c0.09,0.12,0.18,0.24,0.27,0.35c0.4,0.53,0.79,1.07,1.17,1.62
					c0.76,1.1,1.49,2.22,2.19,3.36c0.77,1.26,2.56,1.85,3.86,1.01c1.27-0.82,1.83-2.51,1.01-3.86c-2.88-4.73-6.35-9.13-10.32-13.01
					c-1.06-1.03-2.95-1.13-3.99,0C457.9,392.18,457.8,393.96,458.92,395.06L458.92,395.06z"/>
			</g>
			<g>
				<path class="st5" d="M428.26,306.12c9.43,11.87,9.82,28.96,1.39,41.43c-2.04,3.02,2.85,5.84,4.87,2.85
					c9.96-14.73,8.69-34.48-2.27-48.27C429.99,299.28,426.02,303.3,428.26,306.12L428.26,306.12z"/>
			</g>
			<g>
				<path class="st5" d="M412.29,295.42c0.89,0.25,1.78,0.53,2.65,0.85c0.36,0.13,0.75,0.36,1.13,0.44
					c-0.41-0.17-0.47-0.2-0.19-0.08c0.11,0.05,0.21,0.09,0.32,0.14c0.21,0.09,0.42,0.19,0.63,0.29c1.63,0.77,3.18,1.67,4.67,2.68
					c1.22,0.84,3.18,0.27,3.86-1.01c0.76-1.43,0.29-2.97-1.01-3.86c-3.21-2.19-6.8-3.86-10.55-4.9c-1.42-0.39-3.13,0.49-3.47,1.97
					C409.98,293.44,410.77,295,412.29,295.42L412.29,295.42z"/>
			</g>
		</g>
		
			<ellipse transform="matrix(0.3338 -0.9426 0.9426 0.3338 -155.7674 673.8873)" class="st0" cx="398.89" cy="447.15" rx="29.7" ry="19.94"/>
		
			<ellipse transform="matrix(0.9426 -0.3338 0.3338 0.9426 -136.8323 86.8351)" class="st0" cx="184.24" cy="441.55" rx="18.62" ry="26.68"/>
		<ellipse class="st6" cx="335.43" cy="404.85" rx="44.27" ry="49.04"/>
		<ellipse class="st6" cx="227.66" cy="407.15" rx="45.18" ry="46.74"/>
		<ellipse cx="232.49" cy="411.42" rx="31.33" ry="39.3"/>
		<ellipse cx="333.37" cy="407.15" rx="37.17" ry="43.18"/>
		<path class="st7" d="M274.67,433.54c0,0-25.02,1.18-11.72,22.97C262.95,456.51,258.57,442.32,274.67,433.54z"/>
		<g>
			<path class="st27" d="M485.74,214.86c-1.4-2.39-2.53-5.35-3.38-8.86c-0.37-1.55,0.58-3.1,2.12-3.48c1.55-0.38,3.1,0.57,3.48,2.12
				c1.64,6.79,4.27,10.73,7.82,11.7c6.14,1.68,14.7-5.37,17.48-8.22c1.11-1.14,2.93-1.17,4.07-0.06c1.14,1.1,1.17,2.93,0.06,4.07
				c-0.5,0.52-12.45,12.68-23.12,9.77C490.78,220.95,487.93,218.59,485.74,214.86z"/>
		</g>
		<g>
			<path class="st27" d="M467.78,257.16c-0.78-1.33-0.37-3.06,0.94-3.89c4.73-3,7.48-6.69,8.16-10.97c1.36-8.5-5.54-17-5.6-17.08
				c-1-1.24-0.84-3.04,0.39-4.05c1.22-1.01,3.04-0.84,4.05,0.38c0.35,0.43,8.62,10.54,6.86,21.63c-0.95,6-4.57,11.03-10.77,14.96
				c-1.34,0.85-3.13,0.45-3.98-0.89C467.82,257.21,467.8,257.18,467.78,257.16z"/>
		</g>
		<g>
			<path class="st27" d="M514.05,252.52c-1.87-3.19-2.85-6.59-2.92-10.15c-0.21-10.29,7.38-18.03,7.71-18.36
				c1.12-1.13,2.95-1.13,4.07-0.01c1.14,1.13,1.13,2.94,0.01,4.07c-0.09,0.09-6.21,6.42-6.04,14.22c0.1,4.44,2.24,8.63,6.37,12.46
				c1.16,1.09,1.24,2.91,0.15,4.07c-1.08,1.17-2.91,1.23-4.07,0.15C517.14,256.93,515.38,254.78,514.05,252.52z"/>
		</g>
		<g>
			<path class="st27" d="M477.79,274.23c-0.49-0.84-0.55-1.92-0.05-2.84c3.22-5.91,7.7-9.66,13.32-11.16
				c10.56-2.81,21.16,3.61,21.61,3.89c1.35,0.84,1.77,2.61,0.94,3.96c-0.83,1.35-2.61,1.78-3.96,0.94
				c-0.17-0.11-9.03-5.39-17.14-3.22c-4.01,1.08-7.28,3.88-9.71,8.34c-0.76,1.4-2.51,1.91-3.91,1.15
				C478.42,275.04,478.04,274.67,477.79,274.23z"/>
		</g>
		<g>
			<path class="st27" d="M506.97,294.36c-1.87-0.74-3.83-1.92-5.88-3.55c-0.9-0.72-1.05-2.03-0.34-2.93
				c0.72-0.9,2.02-1.05,2.93-0.34c3.96,3.15,7.22,4.22,9.67,3.19c4.25-1.78,6-9.61,6.31-12.48c0.13-1.14,1.15-1.97,2.3-1.85
				c1.14,0.12,1.97,1.15,1.85,2.3c-0.06,0.52-1.45,12.78-8.84,15.88C512.56,295.59,509.88,295.52,506.97,294.36z"/>
		</g>
		<g>
			<path class="st27" d="M515.57,326.5c-1.04-0.41-1.57-1.58-1.19-2.64c1.36-3.82,1.29-7.15-0.23-9.89
				c-3.01-5.46-10.73-7.23-10.81-7.25c-1.12-0.26-1.83-1.36-1.58-2.49c0.25-1.12,1.36-1.83,2.48-1.59
				c0.39,0.09,9.61,2.17,13.55,9.29c2.13,3.84,2.31,8.33,0.52,13.34c-0.39,1.09-1.58,1.65-2.67,1.26
				C515.61,326.52,515.59,326.51,515.57,326.5z"/>
		</g>
		<g>
			<path class="st27" d="M539.91,303.24c-2.49-0.99-4.56-2.49-6.19-4.49c-4.7-5.78-3.82-13.58-3.78-13.91
				c0.14-1.14,1.18-1.96,2.32-1.82c1.15,0.14,1.96,1.17,1.82,2.32c-0.01,0.09-0.69,6.43,2.89,10.81c2.03,2.49,5.13,3.93,9.19,4.27
				c1.15,0.1,2,1.11,1.9,2.26c-0.1,1.15-1.11,2-2.26,1.9C543.64,304.38,541.67,303.94,539.91,303.24z"/>
		</g>
		<g>
			<path class="st27" d="M528.89,331.79c-0.66-0.26-1.17-0.85-1.29-1.6c-0.79-4.81,0.09-8.95,2.63-12.3
				c4.78-6.31,13.69-7.37,14.06-7.41c1.15-0.13,2.18,0.7,2.3,1.84c0.13,1.14-0.7,2.17-1.84,2.3c-0.15,0.02-7.55,0.94-11.21,5.8
				c-1.81,2.4-2.43,5.46-1.83,9.08c0.19,1.14-0.58,2.21-1.72,2.4C529.61,331.97,529.23,331.93,528.89,331.79z"/>
		</g>
		<g>
			<path class="st27" d="M48.19,347.86c-0.32,2.75-1.21,5.79-2.65,9.11c-0.63,1.46-2.33,2.13-3.79,1.49
				c-1.46-0.63-2.13-2.33-1.49-3.79c2.79-6.41,3.06-11.13,0.82-14.04c-3.88-5.04-14.96-4.58-18.9-3.98
				c-1.57,0.24-3.04-0.84-3.29-2.41c-0.24-1.57,0.83-3.04,2.41-3.28c0.71-0.11,17.58-2.61,24.34,6.15
				C47.84,339.96,48.7,343.56,48.19,347.86z"/>
		</g>
		<g>
			<path class="st27" d="M88.02,324.95c-0.18,1.53-1.55,2.66-3.1,2.53c-5.58-0.46-9.99,0.82-13.12,3.83
				c-6.21,5.96-5.84,16.89-5.83,17c0.06,1.59-1.17,2.93-2.75,3c-1.59,0.07-2.93-1.16-3-2.75c-0.02-0.55-0.52-13.6,7.57-21.39
				c4.37-4.21,10.3-6.04,17.61-5.44c1.59,0.13,2.77,1.52,2.63,3.11C88.03,324.88,88.03,324.92,88.02,324.95z"/>
		</g>
		<g>
			<path class="st27" d="M48.32,300.74c-0.43,3.68-1.7,6.97-3.79,9.86c-6.04,8.33-16.77,9.93-17.22,9.99
				c-1.58,0.22-3.03-0.88-3.25-2.45c-0.23-1.58,0.87-3.03,2.44-3.26c0.12-0.02,8.82-1.37,13.39-7.7c2.6-3.6,3.42-8.24,2.43-13.78
				c-0.27-1.57,0.77-3.06,2.34-3.34c1.57-0.28,3.06,0.77,3.34,2.33C48.52,295.36,48.63,298.14,48.32,300.74z"/>
		</g>
		<g>
			<path class="st27" d="M90.34,305.29c-0.11,0.97-0.72,1.86-1.68,2.29c-6.14,2.77-11.97,3.06-17.35,0.86
				c-10.12-4.13-14.7-15.65-14.89-16.13c-0.57-1.48,0.16-3.15,1.64-3.73c1.48-0.58,3.15,0.16,3.73,1.64
				c0.08,0.19,3.95,9.75,11.73,12.9c3.85,1.56,8.15,1.3,12.77-0.79c1.45-0.66,3.16-0.01,3.81,1.44
				C90.33,304.27,90.4,304.79,90.34,305.29z"/>
		</g>
		<g>
			<path class="st27" d="M79.21,271.64c1.04,1.72,1.89,3.84,2.55,6.38c0.29,1.12-0.38,2.25-1.5,2.54c-1.12,0.29-2.25-0.38-2.54-1.5
				c-1.26-4.9-3.21-7.72-5.79-8.38c-4.46-1.15-10.58,4.05-12.56,6.15c-0.79,0.84-2.11,0.88-2.95,0.09
				c-0.84-0.79-0.88-2.11-0.09-2.95c0.36-0.38,8.87-9.32,16.63-7.33C75.49,267.28,77.58,268.96,79.21,271.64z"/>
		</g>
		<g>
			<path class="st27" d="M91.74,240.81c0.58,0.96,0.3,2.21-0.64,2.83c-3.39,2.22-5.34,4.92-5.78,8.03
				c-0.89,6.17,4.2,12.24,4.25,12.3c0.74,0.88,0.64,2.19-0.24,2.94c-0.88,0.75-2.19,0.64-2.94-0.23c-0.26-0.31-6.36-7.53-5.21-15.58
				c0.62-4.35,3.19-8.04,7.63-10.95c0.96-0.63,2.26-0.36,2.89,0.6C91.71,240.77,91.72,240.79,91.74,240.81z"/>
		</g>
		<g>
			<path class="st27" d="M58.29,244.69c1.39,2.29,2.14,4.74,2.23,7.31c0.26,7.45-5.14,13.14-5.38,13.38
				c-0.8,0.83-2.12,0.85-2.95,0.05c-0.83-0.8-0.85-2.12-0.06-2.95c0.06-0.06,4.43-4.71,4.21-10.36c-0.12-3.21-1.72-6.22-4.75-8.95
				c-0.85-0.77-0.93-2.09-0.15-2.95c0.77-0.86,2.09-0.93,2.95-0.16C56,241.53,57.31,243.07,58.29,244.69z"/>
		</g>
		<g>
			<path class="st27" d="M84.3,228.56c0.37,0.61,0.42,1.38,0.06,2.05c-2.27,4.31-5.47,7.08-9.52,8.22
				c-7.62,2.15-15.36-2.38-15.68-2.57c-0.99-0.59-1.31-1.87-0.73-2.86c0.59-0.99,1.87-1.31,2.86-0.73c0.13,0.07,6.6,3.8,12.44,2.14
				c2.89-0.82,5.23-2.89,6.94-6.14c0.54-1.02,1.8-1.41,2.82-0.88C83.84,227.98,84.11,228.25,84.3,228.56z"/>
		</g>
	</g>
	<g>
		<g>
			<path class="st4" d="M124.01,375.74c-0.23,0-0.46-0.03-0.7-0.08c-19.19-4.41-23.56-23.08-23.74-23.88
				c-0.37-1.67,0.68-3.33,2.36-3.71c1.67-0.37,3.33,0.68,3.71,2.35c0.15,0.66,3.77,15.67,19.07,19.18c1.67,0.38,2.72,2.05,2.33,3.72
				C126.7,374.77,125.42,375.74,124.01,375.74z"/>
		</g>
		<g>
			<path class="st4" d="M74.62,465.38c-0.6,0-1.2-0.17-1.73-0.53c-19.37-13.06-17.2-42.97-17.1-44.24c0.14-1.71,1.63-2.99,3.35-2.85
				c1.71,0.14,2.98,1.63,2.85,3.34l0,0c-0.02,0.27-1.97,27.58,14.38,38.59c1.42,0.96,1.8,2.89,0.84,4.31
				C76.6,464.9,75.62,465.38,74.62,465.38z"/>
		</g>
		<g>
			<path class="st4" d="M461.45,375.74c-1.42,0-2.69-0.97-3.02-2.41c-0.38-1.67,0.66-3.34,2.33-3.72
				c15.31-3.52,18.92-18.54,19.07-19.18c0.38-1.67,2.04-2.72,3.71-2.34c1.67,0.38,2.72,2.03,2.35,3.7
				c-0.18,0.79-4.55,19.47-23.74,23.88C461.91,375.72,461.68,375.74,461.45,375.74z"/>
		</g>
		<g>
			<path class="st4" d="M510.84,465.38c-1,0-1.98-0.48-2.58-1.37c-0.96-1.42-0.58-3.35,0.84-4.31
				c16.39-11.05,14.4-38.32,14.38-38.59c-0.14-1.71,1.14-3.21,2.85-3.35c1.71-0.14,3.21,1.14,3.35,2.85
				c0.1,1.27,2.27,31.19-17.1,44.24C512.04,465.21,511.44,465.38,510.84,465.38z"/>
		</g>
		<g>
			<path class="st4" d="M261.76,281.74c-1.23,0-2.4-0.74-2.89-1.96c-6.14-15.44-3.42-27.59-0.06-35.07
				c3.66-8.14,8.81-12.61,9.03-12.79c1.3-1.11,3.26-0.96,4.38,0.34c1.11,1.3,0.96,3.26-0.33,4.37c-0.07,0.06-4.47,3.94-7.52,10.87
				c-4.06,9.22-3.96,19.31,0.28,29.98c0.63,1.59-0.14,3.4-1.74,4.03C262.53,281.67,262.14,281.74,261.76,281.74z"/>
		</g>
		<g>
			<path class="st4" d="M249.65,345.69c-0.91,0-1.81-0.4-2.43-1.16c-10.82-13.49-10.17-26.1-10.14-26.63
				c0.11-1.71,1.58-3.02,3.29-2.91c1.71,0.11,3.01,1.57,2.91,3.28c0,0.08-0.12,2.78,0.89,6.84c0.94,3.77,3.07,9.52,7.89,15.54
				c1.07,1.34,0.86,3.29-0.48,4.37C251.02,345.46,250.33,345.69,249.65,345.69z"/>
		</g>
		<g>
			<path class="st4" d="M302.38,351.74c-2.15,0-4.28-0.25-6.39-0.74c-16.57-3.86-25.55-21.53-25.92-22.29
				c-0.77-1.54-0.14-3.4,1.39-4.17c1.53-0.77,3.4-0.14,4.16,1.39c0.11,0.21,8.11,15.84,21.8,19.02c7.53,1.74,15.59-0.6,23.95-6.96
				c1.37-1.04,3.31-0.77,4.35,0.59c1.04,1.37,0.77,3.31-0.59,4.35C317.45,348.79,309.82,351.74,302.38,351.74z"/>
		</g>
		<g>
			<path class="st4" d="M344.26,347.51c-0.64,0-1.29-0.2-1.85-0.61c-5.4-4-8.42-16.44-8.97-18.89c-0.38-1.67,0.68-3.34,2.35-3.71
				c1.67-0.37,3.33,0.68,3.71,2.35l0,0c1.16,5.17,3.98,13.32,6.61,15.26c1.38,1.02,1.67,2.97,0.65,4.35
				C346.15,347.08,345.22,347.51,344.26,347.51z"/>
		</g>
		<g>
			<path class="st4" d="M323.26,343.57c-0.43,0-0.87-0.09-1.29-0.28c-21.42-9.81-17.52-25.08-17.34-25.73
				c0.45-1.65,2.16-2.63,3.82-2.18c1.64,0.45,2.62,2.14,2.18,3.79c-0.12,0.51-2.45,10.97,13.93,18.47c1.56,0.71,2.24,2.56,1.53,4.12
				C325.56,342.9,324.44,343.57,323.26,343.57z"/>
		</g>
	</g>
	<path d="M274.75,362.22c0,0-59.28,34.96-70.7-44.12C204.05,318.1,216.6,368.92,274.75,362.22z"/>
	<path d="M292.25,366.11c0,0,67.35,14.33,53.39-64.6C345.64,301.51,349.66,353.9,292.25,366.11z"/>
	<path class="st7" d="M232.49,485.48c0,0,31.59-38.33,103.98-3.78C336.48,481.7,274.75,460.57,232.49,485.48z"/>
</g>
</svg>
