<?xml version="1.0" encoding="utf-8"?>
<!-- Generator: Adobe Illustrator 24.0.1, SVG Export Plug-In . SVG Version: 6.00 Build 0)  -->
<svg version="1.1" id="Capa_1" xmlns="http://www.w3.org/2000/svg" xmlns:xlink="http://www.w3.org/1999/xlink" x="0px" y="0px"
	 viewBox="0 0 566.93 566.93" style="enable-background:new 0 0 566.93 566.93;" xml:space="preserve">
<style type="text/css">
	.st0{fill:#F9D6E4;}
	.st1{fill:#45A759;}
	.st2{fill:#15632D;}
	.st3{fill:#F08CA7;}
	.st4{fill:#B52955;}
	.st5{fill:#F6BFD3;}
	.st6{fill:#FFFFFF;}
	.st7{fill:#CD94A9;}
	.st8{fill:#E16874;}
	.st9{fill:#EEEEEE;}
	.st10{fill:#C9C7C7;}
	.st11{clip-path:url(#SVGID_2_);}
	.st12{clip-path:url(#SVGID_2_);fill:#F08CA7;}
	.st13{fill:#CBC9CA;}
	.st14{fill:#E1E0E0;}
	.st15{fill:#B693C3;}
	.st16{fill:#F8DF28;}
	.st17{fill:#65A2D8;}
	.st18{fill:#DEE275;}
	.st19{fill:#FFDB43;}
	.st20{fill:#E75C2A;}
	.st21{fill:#F49D4E;}
	.st22{opacity:0.5;}
	.st23{fill:#F3B0CF;}
	.st24{fill:#704F9A;}
	.st25{fill:#616160;}
	.st26{fill:#5AE4A7;}
	.st27{fill:#FF0000;}
	.st28{fill:#82CEE0;}
	.st29{fill:#9E6D0B;}
	.st30{fill:#828E0C;}
	.st31{fill:#FFFF00;}
	.st32{clip-path:url(#SVGID_4_);}
	.st33{clip-path:url(#SVGID_4_);fill:#F08CA7;}
	.st34{clip-path:url(#SVGID_6_);}
	.st35{clip-path:url(#SVGID_6_);fill:#F08CA7;}
	.st36{fill:none;stroke:#B52955;stroke-width:3;stroke-linecap:round;stroke-linejoin:round;stroke-miterlimit:10;}
</style>
<g>
	<g>
		<g>
			<path class="st1" d="M332.9,105.95c-12.53-7.73-22.57-19.32-28.25-32.36c-1.37-2.96-2.4-6.51-1.08-9.53
				c2.14-4.55,9.33-5.16,13.88-2.37s7.01,7.8,8.94,12.62C330.36,84.54,332.52,95.27,332.9,105.95z"/>
			<path class="st1" d="M316.82,137.56c-10.28-10.43-17.03-23.83-19.14-37.74c-0.49-3.36-0.59-7.01,1.44-9.51
				c3.25-3.89,10.47-2.83,14.24,0.95c3.77,3.78,4.91,9.17,5.43,14.2C319.94,116.13,319.36,127.04,316.82,137.56z"/>
			<path class="st1" d="M301.85,158.03c-11.61-8.25-20.45-19.85-24.76-32.56c-1.06-3-1.82-6.45-0.14-9.21
				c2.45-4.17,9.65-4.36,13.98-1.36s6.26,7.82,7.62,12.58C301.45,137.34,302.53,147.71,301.85,158.03z"/>
			<path class="st1" d="M333.66,103.29c3.64-13.34,11.89-25.4,23.25-33.9c2.62-2.03,5.95-3.95,9.36-3.49
				c5.36,0.85,8.42,7.16,7.08,11.98c-1.38,4.95-5.57,8.52-9.81,11.39C354.48,95.36,344.35,100.26,333.66,103.29z"/>
			<path class="st1" d="M319.43,126.37c8.89-10.87,21.4-18.84,35.44-22.54c3.39-0.79,7.18-1.45,10.17,0.26
				c4.63,2.54,4.96,9.46,1.84,13.4c-3.3,4.02-8.62,5.68-13.77,6.85C342.19,126.74,330.81,127.45,319.43,126.37z"/>
			<path class="st1" d="M301.02,155.66c8.89-10.87,21.4-18.84,35.44-22.54c3.39-0.79,7.18-1.45,10.17,0.26
				c4.63,2.54,4.96,9.46,1.84,13.4c-3.3,4.02-8.62,5.68-13.77,6.85C323.78,156.03,312.39,156.75,301.02,155.66z"/>
			<path class="st1" d="M284.19,198.69c-9.57-10.33-15.69-23.38-17-36.59c-0.27-3.15-0.28-6.62,1.98-8.91
				c3.57-3.51,10.66-2.07,14.16,1.61c3.46,3.81,4.25,8.94,4.54,13.76C288.43,178.74,287.18,189.01,284.19,198.69z"/>
			<path class="st1" d="M284.57,191.87c8.89-10.87,21.4-18.84,35.44-22.54c3.39-0.79,7.18-1.45,10.17,0.26
				c4.63,2.54,4.96,9.46,1.84,13.4c-3.3,4.02-8.62,5.68-13.77,6.85C307.33,192.24,295.81,192.91,284.57,191.87z"/>
			<g>
				<path class="st2" d="M338.47,82.99c0.08-0.67-0.94-0.74-0.88-0.02c-5.8,36.35-34.7,61.53-48.73,94.53
					c-6.73,15.9-11.07,32.62-13.72,49.63c-2.86,17.63-5.45,36.19-5.04,54.24c-0.05,2.34,3.44,2.56,3.76,0.3
					c2.82-17.93,2.84-36.38,5.79-54.27c2.98-18.42,7.47-36.9,15.56-53.73C309.46,143.95,336.97,117.61,338.47,82.99L338.47,82.99z"
					/>
			</g>
			<path class="st1" d="M335.53,92.96c-6.08-15.81-6.7-33.24-2.08-49.02c1.13-3.78,2.93-7.75,6.48-9.46
				c5.66-2.66,13.06,1.8,15.27,7.54c2.21,5.75,0.71,11.91-1.23,17.63C349.78,71.55,343.55,82.91,335.53,92.96z"/>
		</g>
		<g>
			<path class="st3" d="M374.52,512c0,0-0.02-0.04-0.05-0.11C373.68,511.5,374.52,512,374.52,512z"/>
			<path class="st3" d="M533.17,443.56c-2.83-6.11-6.81-11.63-11.6-16.31c10.39-32.26-8.26-73.07-42.94-79.97
				c1.17-21.26-7.41-43.09-25.19-55.73c-6.77-4.81-14.6-7.69-22.83-8.61c-0.63-0.07-1.15,0.05-1.56,0.28
				c-1.4-1.53-1.82-2.96-1.82-2.96s-4.88-9.99-19.82-19.12c-14.94-9.13-31.79-4.34-37.11-2.97c-0.59,0.15-1.11,0.24-1.58,0.28
				c-8.48-34.4-49.93-51.96-82.11-41.03c-9.48,3.22-18.1,8.47-25.64,15.01c-25.2-11.04-55.25-3.06-70.89,19.94
				c-0.28,0.42-0.43,0.83-0.48,1.23c-1.55,0.37-2.68,0.32-2.68,0.32s0.79-2.28-20.34,3.03c-21.13,5.31-26.21,24.29-28.22,29.58
				c-0.16,0.43-0.35,0.81-0.54,1.17c-0.58-0.39-1.32-0.58-2.18-0.41c-29.34,5.71-48.96,34.29-44.27,63.62
				c-28.45,11.4-43.84,41.07-44.33,70.72c0,0-0.01,0.01-0.01,0.01c-17.77,17.17-23.62,43.52-13.62,66.29
				c8.87,20.2,28.8,33.86,50.43,36.72c15.07,1.99,30.47-1.15,43.54-8.91c0.54-0.32,0.9-0.73,1.12-1.18c0.81,0.2,1.31,0.43,1.31,0.43
				s11.8,3.69,21.47,5.15c9.67,1.45,22.64,1.29,32.06-4.64c9.42-5.93,11.71-0.87,11.71-0.87s11.17,7.6,19.84,13.47
				c8.67,5.87,21.88,5.12,29.25,3.79c7.37-1.33,25.46-8.18,30.69-15.64c5.23-7.46,7.38-1.78,7.38-1.78s6.96,7.23,23.31,13.98
				c16.35,6.76,31.72,2.17,39.73,0c8.01-2.17,18.83-9.3,23.28-14.89c4-5.02,5.66-2.27,5.96-1.65c0.73,0.35,2.83,1.44,8.21,4.34
				c11.28,6.06,25.72,6.92,37.91,5.65c12.19-1.28,22.92-5.29,26.38-8.53c0.94-0.88,1.83-1.44,2.71-1.72
				c-0.05,0.93,0.31,1.88,1.29,2.54c21.66,14.57,51.11,12.2,70.03-5.78C538.46,491.81,543.26,465.32,533.17,443.56z"/>
		</g>
		<g>
			<path class="st3" d="M96.03,325.98c0,0,3.48-15.78,15.8-23.68c12.32-7.91,19.59-10.61,19.59-10.61s4.94,0.59,6.95-4.69
				c2.01-5.28,7.09-24.27,28.22-29.58c21.13-5.31,20.34-3.03,20.34-3.03s5.95,0.26,9.2-4.83c3.25-5.09,15.65-16.76,31.42-18.03
				c15.78-1.26,30.25,3.08,30.25,3.08s2.54,3.89,10.72-3.31c8.17-7.2,20.64-14.43,40.07-13.23c19.43,1.21,31.44,5.48,39.88,14.19
				c8.44,8.71,15.6,19.04,15.6,19.04l0.98,5.01c0,0-0.05,3.68,5.27,2.32c5.32-1.37,22.17-6.16,37.11,2.97
				c14.94,9.13,19.82,19.12,19.82,19.12s1.33,4.53,7.14,6.09c5.81,1.56,27.94,9.43,34.69,27.83c6.75,18.4,6.8,26.14,6.8,26.14
				l0.08,5.43c0,0,0.05,2.51,5.05,4.99c5,2.47,22.8,6.43,31.92,25.29c9.13,18.86,10.12,29.59,8.81,37.09
				c-1.31,7.5-4.62,14.59-1.68,16.61c2.94,2.02,16.21,18.77,15.6,35.79c-0.6,17.02-6.65,29.12-12.61,36.54
				c-5.95,7.41-13.86,14.8-28.33,17.47c-14.47,2.67-32.05-0.65-36.79-4.55c-4.75-3.9-7.48-4.88-10.94-1.64
				c-3.46,3.24-14.2,7.25-26.38,8.53c-12.19,1.28-26.63,0.42-37.91-5.65c-11.28-6.06-8.16-4.23-8.16-4.23s-1.56-4.05-6.01,1.54
				c-4.45,5.59-15.27,12.72-23.28,14.89c-8.01,2.17-23.38,6.76-39.73,0c-16.35-6.76-23.31-13.98-23.31-13.98s-2.15-5.68-7.38,1.78
				c-5.23,7.46-23.32,14.31-30.69,15.64c-7.37,1.33-20.59,2.08-29.25-3.79c-8.67-5.87-22.13-18.53-31.54-12.6
				c-9.42,5.93-22.39,6.1-32.06,4.64c-9.67-1.46-21.47-5.15-21.47-5.15s-5.13-2.32-9.39,1.25c-4.26,3.57-36.33,12.1-55.27,0
				c-18.94-12.1-30.35-24.38-33.02-42.1c-2.67-17.71,0.76-27.97,5.6-35.58c4.84-7.61,7.8-11.22,7.8-11.22s3.8-2.86,4.41-9.38
				s3.5-31.78,16.02-44.18c12.52-12.4,20.89-17.68,20.89-17.68s7.65-0.72,7.15-6.89C93.48,343.49,95.61,330.04,96.03,325.98z"/>
			<g>
				<path class="st4" d="M380.52,479.35c3.65-1.85,7.58-1.89,11.53-1.07c4.15,0.86,8.69,2.47,11.7,5.56
					c6.09,6.26,6.39,15.86,6.05,24.04c-0.12,2.79,4.22,3.35,4.34,0.53c0.41-9.8-0.24-20.86-7.77-28.1
					c-3.61-3.47-8.63-5.24-13.44-6.31c-4.74-1.05-9.75-0.9-14.14,1.32C376.29,476.6,378,480.62,380.52,479.35L380.52,479.35z"/>
			</g>
			<g>
				<path class="st4" d="M165.04,502.54c-1.85-3.65-1.89-7.58-1.07-11.53c0.86-4.15,2.47-8.69,5.56-11.7
					c6.26-6.09,15.86-6.39,24.04-6.05c2.79,0.12,3.35-4.22,0.53-4.34c-9.8-0.41-20.86,0.24-28.1,7.77
					c-3.47,3.61-5.24,8.63-6.31,13.44c-1.05,4.74-0.9,9.75,1.32,14.14C162.29,506.77,166.32,505.06,165.04,502.54L165.04,502.54z"/>
			</g>
			<circle class="st0" cx="283.67" cy="413.84" r="117.32"/>
			<path class="st3" d="M343.58,318.81c-0.8-1.53-2.3-1.71-3.51-1.13c-1.45-3.46-2.77-6.84-2.61-7.68c0.36-1.81-0.48-5.64-0.48-5.64
				s-13.38,0.79-18.19,0c-4.81-0.79-22.37-5.91-25.2-7.84c-2.82-1.93-5.05-3.63-6.96,0c-1.91,3.63-4.32,6.94-14.77,13.27
				c-10.45,6.33-14.57,8.64-18.29,8.74c-3.72,0.1-12.59-1.22-12.59-1.22s-0.03-0.01-0.09-0.01c-0.84-2.68-5.51-2.35-5.59,0.97
				c-0.43,16.27,6.82,35.69,23.81,40.53c9.87,2.81,24.89,1.69,27.66-10.38c0.04-0.19,0.08-0.38,0.12-0.58
				c1.54,0.39,3.09,0.71,4.65,0.92c6.84,0.96,14.6,0.23,20.16-4.26c1.39-1.13,2.53-2.47,3.42-3.95c5.31,3.65,11.81,6.02,18.29,4.85
				c7.52-1.36,12.55-7.66,12.94-15.15C346.57,326.24,345.41,322.34,343.58,318.81z"/>
			<path class="st3" d="M191.52,345.79c0,0,30.74,19.92,66.41-17.44c0,0,35.57-36.87-8.57-37.36S189.23,326.86,191.52,345.79z"/>
			<path class="st3" d="M328.52,327.24c0,0,6.38,38.66,56.58,38.82c0,0,30.99-36.24,3.1-60.34
				C360.3,281.62,328.52,298.07,328.52,327.24z"/>
			<path class="st3" d="M307.32,272l-35.46,37.8c0,0-8.77,13.59-36.56,8.48c0,0-10.33,12.99-37.05,23.16
				c0,0,16.83,51.35-43.39,55.18C154.86,396.61,131.4,259.09,307.32,272z"/>
			<path class="st3" d="M385.1,366.06c0,0-20.79,50.3,4.42,59.07c25.21,8.77,72.01-1.13,46.04-43.71
				C409.6,338.85,385.1,366.06,385.1,366.06z"/>
			<path class="st3" d="M338.16,285.05c0,0-20.09,47.14,32.7,58.41c0,0-15.72,66.6,71.03,51.98
				C441.89,395.44,449.21,257.83,338.16,285.05z"/>
			<g>
				<path class="st4" d="M285.44,292.29c-4.83,8.32-12.33,14.9-21.07,18.89c-10.15,4.64-21.47,4.68-31.97,1.16
					c-3.5-1.17-5,4.35-1.52,5.52c11.73,3.93,24.25,3.59,35.59-1.39c9.9-4.34,18.48-11.93,23.91-21.29
					C292.23,291.99,287.29,289.11,285.44,292.29L285.44,292.29z"/>
			</g>
			<g>
				<path class="st4" d="M271.38,260.27c-0.22,5.91,1.25,12.2,3.41,17.65c4.92,12.35,14.72,21.35,27.24,25.73
					c10.9,3.81,22.81,4.1,34.2,3.03c3.64-0.34,3.67-6.06,0-5.72c-16.12,1.51-34.69,0.35-47.05-11.45
					c-6.67-6.37-10.42-14.85-11.74-23.87c-0.12-0.79,0.07,0.61-0.02-0.16c-0.03-0.22-0.05-0.43-0.08-0.65
					c-0.04-0.4-0.08-0.79-0.12-1.19c-0.05-0.59-0.09-1.18-0.11-1.77c-0.02-0.53-0.04-1.07-0.02-1.61
					C277.24,256.59,271.52,256.59,271.38,260.27L271.38,260.27z"/>
			</g>
			<g>
				<path class="st4" d="M430.93,393.63c-16.09,7.72-35.73,4.35-48.14-8.49c-11.5-11.91-14.62-30.36-7.29-45.3
					c4.32-8.8,11.56-15.54,20.43-19.61c3.34-1.53,0.44-6.47-2.89-4.94c-18.08,8.3-29.35,27.62-26.9,47.49
					c2.24,18.19,15.44,33.53,32.97,38.78c11.53,3.45,23.9,2.2,34.7-2.98C437.14,396.98,434.24,392.05,430.93,393.63L430.93,393.63z"
					/>
			</g>
			<g>
				<path class="st4" d="M410.21,402.69c-0.83-1.05,0.21,0.3,0.47,0.67c0.75,1.06,1.45,2.15,2.13,3.25
					c2.26,3.68,4.22,7.56,5.76,11.59c4.51,11.84,5.58,24.76,1.12,36.79c-3.46,9.36-10.03,17.13-17.52,23.57
					c-2.8,2.4,1.27,6.44,4.05,4.05c13.11-11.28,22.24-26.6,22.11-44.25c-0.09-11.64-3.87-23.13-9.69-33.14
					c-1.32-2.28-2.75-4.5-4.38-6.56C411.98,395.75,407.95,399.82,410.21,402.69L410.21,402.69z"/>
			</g>
			<g>
				<path class="st4" d="M370.86,343.46c-12.09-3.96-22.34-12.87-27.29-24.68c-4.87-11.62-4.18-25.15,1.82-36.21
					c12.34-22.75,42.64-30.06,64.37-16.34c11.72,7.4,19.31,20.07,20.08,33.93c0.21,3.66,5.93,3.69,5.72,0
					c-0.78-13.94-7.38-26.9-18.34-35.6c-11.25-8.92-25.75-12.58-39.91-10.48c-28.88,4.29-49.25,33.65-40.71,62.11
					c4.71,15.7,17.3,27.73,32.74,32.78C372.85,350.13,374.35,344.6,370.86,343.46L370.86,343.46z"/>
			</g>
			<g>
				<path class="st4" d="M372.33,293.21c12.66-11.06,30.94-12.65,45.24-3.82c13.83,8.54,21.29,24.74,20.41,40.76
					c-0.56,10.24-4.7,20.07-11.66,27.61c-2.5,2.7,1.54,6.76,4.05,4.05c13.9-15.03,17.1-37.31,8.78-55.91
					c-7.04-15.74-22.48-27.24-39.9-28c-11.45-0.5-22.4,3.77-30.97,11.26C365.5,291.59,369.56,295.62,372.33,293.21L372.33,293.21z"
					/>
			</g>
			<path class="st3" d="M428.24,385.71c0,0,25.58,7.5,24.18,46.1c-1.4,38.59-15.39,49.41-20.05,60.35
				c-4.67,10.94,17.75,23.2,32.67,7.83c14.92-15.38,28.58-48.46,21.22-78.82c-7.36-30.36-16.89-38.53-33.84-49.59
				C435.48,360.51,414.04,371.23,428.24,385.71z"/>
			<g>
				<path class="st4" d="M402.22,362.72c20.36-2.59,40.78,3.49,56.24,17.04c14.81,12.97,24.33,31.5,26.62,51.03
					c2.37,20.2-2.48,40.88-14.14,57.6c-10.99,15.76-27.87,27.07-46.83,30.52c-25.01,4.55-39.48,2.87-55.97-16.06
					c-2.42-2.78-6.46,1.28-4.05,4.05c15.89,18.25,28.91,20.42,53.23,18.6c20.51-1.54,39.65-11.55,53.04-27.1
					c28.63-33.27,27.72-85.54-2.5-117.52c-16.84-17.82-41.26-26.99-65.65-23.88C398.61,357.46,398.57,363.19,402.22,362.72
					L402.22,362.72z"/>
			</g>
			<path class="st3" d="M82.04,422.97c0,0,10.26-37.65,31.03-49.78c20.77-12.13,30.01-14.93,38.59-15.43
				c8.58-0.5,16.08,1.42,14.47,5.98c-1.61,4.56-29.21,11.13-34.57,28.48c-5.36,17.35-16.08,46.7-4.56,69.01
				c11.52,22.31,20.1,45.09,12.06,46.7c-8.04,1.61-48.11-12.22-54.47-42.69C78.23,434.75,79.91,431.8,82.04,422.97z"/>
			<g>
				<g>
					<path class="st4" d="M135.29,396.54c18.26,8.76,40.51,5.45,54.81-9.12c13.38-13.64,16.89-34.47,8.79-51.77
						c-4.63-9.9-12.94-17.85-22.83-22.4c-3.32-1.53-6.23,3.4-2.89,4.94c16,7.35,26,23.7,24.2,41.39
						c-1.61,15.78-13.15,29.41-28.17,34.19c-10.21,3.25-21.37,2.46-31.03-2.18C134.88,390.02,131.97,394.95,135.29,396.54
						L135.29,396.54z"/>
				</g>
				<g>
					<path class="st4" d="M154.86,396.61c-12.55,15.94-18.13,39.32-10.69,58.55c3.88,10.02,10.63,18.44,18.73,25.4
						c2.78,2.39,6.84-1.64,4.05-4.05c-12.29-10.56-20.84-24.58-20.42-41.16c0.27-10.43,3.81-20.66,9.07-29.61
						c0.8-1.37,1.65-2.71,2.55-4.02c0.3-0.44,1.57-2.11,0.75-1.08C161.16,397.8,157.13,393.72,154.86,396.61L154.86,396.61z"/>
				</g>
				<g>
					<path class="st4" d="M199.77,346.95c13.64-4.47,25.15-14.33,30.84-27.61c5.63-13.16,5.03-28.34-1.59-41.03
						c-13.56-26-48.37-34.6-72.87-18.85c-13.31,8.56-21.71,22.86-22.6,38.66c-0.21,3.68,5.52,3.67,5.72,0
						c1.46-26.02,26.46-44.49,51.8-40.44c25.35,4.06,43.36,29.34,36.04,54.57c-4.04,13.91-15.2,24.7-28.86,29.17
						C194.77,342.57,196.26,348.1,199.77,346.95L199.77,346.95z"/>
				</g>
				<g>
					<path class="st4" d="M200.83,287.13c-14.56-12.72-35.61-14.94-52.17-4.71c-15.6,9.63-24.41,28-23.22,46.17
						c0.76,11.64,5.39,22.61,13.31,31.18c2.51,2.71,6.54-1.34,4.05-4.05c-12.06-13.04-15.05-32.76-7.89-48.97
						c6.08-13.78,19.26-24.31,34.58-25.14c10.04-0.54,19.75,2.97,27.3,9.56C199.55,293.59,203.61,289.56,200.83,287.13
						L200.83,287.13z"/>
				</g>
				<g>
					<path class="st4" d="M166.89,354.97c-19.91-2.54-40.07,3.01-55.99,15.21c-15.23,11.66-26,28.6-30.58,47.2
						c-9.35,37.99,7.61,80.84,43.42,98.44c22.15,10.89,48.24,10.16,69.93-1.58c3.24-1.75,0.35-6.7-2.89-4.94
						c-18.28,9.9-40.07,11.34-59.42,3.69c-16.28-6.44-29.66-19.09-37.99-34.37c-17.65-32.38-11.24-74.96,16.16-99.9
						c15.59-14.19,36.46-20.69,57.35-18.03C170.54,361.16,170.5,355.43,166.89,354.97L166.89,354.97z"/>
				</g>
			</g>
			<path class="st4" d="M172.36,407.73c0,0-1.55-51.71,49.57-51.71c27.18,0,40.48,39.29,40.48,39.29s-12.86-40.19-48.19-33.34
				C177.25,369.14,172.36,407.73,172.36,407.73z"/>
			<path class="st4" d="M372.35,412.06c0,0,1.16-60.52-41.57-60.52c-45.25,0-47.2,40.82-47.2,40.82s9.59-40.07,50.56-34.98
				C373.35,362.25,372.35,412.06,372.35,412.06z"/>
			<g>
				<g>
					<path class="st5" d="M147.92,296.18c-12.55,11.1-15.45,29.97-7.59,44.61c1.74,3.24,6.68,0.36,4.94-2.89
						c-6.72-12.5-3.92-28.29,6.69-37.68C154.73,297.78,150.67,293.75,147.92,296.18L147.92,296.18z"/>
				</g>
				<g>
					<path class="st5" d="M171.29,288.27c-4.72-0.4-9.55,0.33-13.93,2.11c-0.72,0.29-1.3,0.62-1.71,1.31
						c-0.36,0.61-0.51,1.52-0.29,2.2c0.43,1.33,2.04,2.6,3.52,2c2.02-0.82,4.11-1.43,6.27-1.77c0.12-0.02,0.24-0.04,0.35-0.05
						c-0.37,0.05-0.38,0.05-0.05,0.01c0.24-0.03,0.48-0.05,0.72-0.08c0.56-0.05,1.13-0.09,1.69-0.11c1.15-0.04,2.29,0,3.43,0.1
						c1.5,0.13,2.93-1.41,2.86-2.86C174.08,289.47,172.89,288.41,171.29,288.27L171.29,288.27z"/>
				</g>
				<g>
					<path class="st5" d="M267.65,352.97c1.84,0.14,3.68,0.14,5.52,0.04c0.76-0.04,1.47-0.29,2.02-0.84c0.5-0.5,0.87-1.31,0.84-2.02
						c-0.03-0.74-0.28-1.51-0.84-2.02c-0.54-0.5-1.26-0.88-2.02-0.84c-1.84,0.1-3.68,0.1-5.52-0.04c-0.7-0.05-1.54,0.36-2.02,0.84
						c-0.5,0.5-0.87,1.31-0.84,2.02c0.03,0.74,0.28,1.51,0.84,2.02C266.21,352.67,266.86,352.91,267.65,352.97L267.65,352.97z"/>
				</g>
				<g>
					<path class="st5" d="M242.87,327.68c0.01,6.57,2.96,13.59,7.63,18.16c2.44,2.4,5.35,4.1,8.52,5.33c1.44,0.56,3.14-0.62,3.52-2
						c0.44-1.62-0.55-2.96-2-3.52c-0.18-0.07-0.37-0.14-0.55-0.22c0.06,0.02,0.31,0.14,0.02,0c-0.3-0.14-0.6-0.28-0.9-0.43
						c-0.57-0.29-1.13-0.6-1.67-0.94c-0.52-0.32-1.02-0.67-1.5-1.03c0.42,0.32-0.18-0.16-0.31-0.26c-0.25-0.21-0.5-0.43-0.73-0.65
						c-0.41-0.38-0.8-0.78-1.17-1.19c-0.16-0.17-0.31-0.35-0.46-0.53c-0.1-0.12-0.19-0.24-0.29-0.36c-0.27-0.32,0.27,0.37,0.03,0.04
						c-0.63-0.85-1.21-1.73-1.72-2.66c-0.22-0.39-0.42-0.79-0.61-1.2c-0.1-0.21-0.19-0.43-0.29-0.64c-0.07-0.14-0.18-0.5,0.06,0.14
						c-0.05-0.12-0.1-0.24-0.15-0.36c-0.3-0.8-0.58-1.61-0.82-2.43c-0.21-0.74-0.39-1.49-0.53-2.25c-0.06-0.31-0.12-0.63-0.17-0.95
						c-0.02-0.12-0.03-0.25-0.06-0.37c-0.01-0.06,0.09,0.78,0.03,0.19c-0.07-0.63-0.14-1.25-0.14-1.89c0-1.55-1.31-2.86-2.86-2.86
						C244.18,324.82,242.87,326.13,242.87,327.68L242.87,327.68z"/>
				</g>
				<g>
					<path class="st5" d="M290.38,343.11c2.54,0.52,5.22,0.7,7.8,0.54c0.76-0.05,1.47-0.29,2.02-0.84c0.5-0.5,0.87-1.31,0.84-2.02
						c-0.03-0.74-0.28-1.51-0.84-2.02c-0.54-0.5-1.27-0.88-2.02-0.84c-1.91,0.11-3.82,0.03-5.71-0.23c0.25,0.03,0.51,0.07,0.76,0.1
						c-0.44-0.06-0.89-0.12-1.33-0.22c-0.76-0.16-1.52-0.11-2.2,0.29c-0.59,0.35-1.16,1.03-1.31,1.71c-0.17,0.73-0.13,1.55,0.29,2.2
						C289.06,342.39,289.66,342.96,290.38,343.11L290.38,343.11z"/>
				</g>
				<g>
					<path class="st5" d="M226.46,236.28c-6.78,0.91-13.33,3.38-19.04,7.13c-1.29,0.85-1.84,2.53-1.03,3.91
						c0.75,1.28,2.62,1.88,3.91,1.03c5.42-3.56,11.16-5.68,17.67-6.56c1.49-0.2,2.43-2.19,2-3.52
						C229.45,236.64,228.05,236.06,226.46,236.28L226.46,236.28z"/>
				</g>
				<g>
					<path class="st5" d="M244.72,237.68c-2.66-0.61-5.36-1.02-8.08-1.27c-0.69-0.06-1.55,0.36-2.02,0.84
						c-0.5,0.5-0.87,1.31-0.84,2.02c0.03,0.74,0.28,1.51,0.84,2.02c0.59,0.54,1.23,0.76,2.02,0.84c0.81,0.07,1.61,0.16,2.41,0.27
						c-0.25-0.03-0.51-0.07-0.76-0.1c1.65,0.23,3.28,0.52,4.91,0.89c0.74,0.17,1.54,0.1,2.2-0.29c0.59-0.35,1.16-1.03,1.31-1.71
						C247.05,239.74,246.28,238.03,244.72,237.68L244.72,237.68z"/>
				</g>
				<g>
					<path class="st5" d="M286.18,277.07c3.78,6.97,9.73,12.53,16.87,15.95c1.35,0.65,3.15,0.42,3.91-1.03
						c0.67-1.28,0.41-3.22-1.03-3.91c-1.87-0.9-3.67-1.93-5.37-3.12c-0.17-0.12-0.35-0.25-0.52-0.37c-0.07-0.05-0.67-0.5-0.42-0.31
						c0.28,0.22-0.25-0.2-0.3-0.24c-0.19-0.15-0.38-0.31-0.57-0.47c-0.7-0.59-1.39-1.21-2.04-1.86c-0.6-0.6-1.18-1.21-1.74-1.85
						c-0.27-0.31-0.53-0.63-0.79-0.95c-0.17-0.21-0.39-0.51-0.1-0.12c-0.13-0.18-0.26-0.35-0.39-0.53c-0.95-1.3-1.81-2.67-2.58-4.09
						c-0.71-1.32-2.64-1.85-3.91-1.03C285.87,274.02,285.42,275.66,286.18,277.07L286.18,277.07z"/>
				</g>
				<g>
					<path class="st5" d="M281.62,263.24c0.33,2.26,0.84,4.48,1.53,6.66c0.22,0.7,0.67,1.33,1.31,1.71c0.61,0.36,1.52,0.51,2.2,0.29
						c0.69-0.22,1.36-0.65,1.71-1.31c0.35-0.67,0.52-1.47,0.29-2.2c-0.69-2.17-1.2-4.4-1.53-6.66c-0.1-0.66-0.77-1.39-1.31-1.71
						c-0.61-0.36-1.52-0.51-2.2-0.29c-0.69,0.22-1.36,0.65-1.71,1.31c-0.1,0.23-0.19,0.46-0.29,0.68
						C281.48,262.22,281.48,262.73,281.62,263.24L281.62,263.24z"/>
				</g>
				<g>
					<g>
						<path class="st5" d="M105.31,340.77c-0.4-7.21,1.73-14.38,6.25-19.98c0.97-1.2,1.17-2.87,0-4.05c-1-1-3.07-1.21-4.05,0
							c-5.49,6.8-8.41,15.25-7.93,24.02c0.09,1.54,1.25,2.86,2.86,2.86C103.93,343.64,105.4,342.33,105.31,340.77L105.31,340.77z"/>
					</g>
					<g>
						<path class="st5" d="M109.3,353.6c-0.74-1.25-1.39-2.54-1.96-3.88c0.1,0.23,0.19,0.46,0.29,0.68
							c-0.38-0.9-0.71-1.82-1.01-2.75c-0.22-0.7-0.67-1.33-1.31-1.71c-0.61-0.36-1.52-0.51-2.2-0.29c-0.69,0.22-1.36,0.65-1.71,1.31
							c-0.35,0.67-0.52,1.47-0.29,2.2c0.81,2.54,1.9,5.01,3.26,7.31c0.37,0.62,1.01,1.12,1.71,1.31c0.68,0.19,1.6,0.1,2.2-0.29
							C109.57,356.68,110.11,354.98,109.3,353.6L109.3,353.6z"/>
					</g>
				</g>
				<g>
					<g>
						<path class="st5" d="M62.69,431c-0.25-2.67-0.29-5.36-0.13-8.03c0.09-1.5-1.38-2.93-2.86-2.86c-1.63,0.07-2.76,1.26-2.86,2.86
							c-0.17,2.68-0.12,5.36,0.13,8.03c0.07,0.77,0.27,1.46,0.84,2.02c0.5,0.5,1.31,0.87,2.02,0.84c0.74-0.03,1.51-0.28,2.02-0.84
							C62.34,432.49,62.76,431.74,62.69,431L62.69,431z"/>
					</g>
					<g>
						<path class="st5" d="M67.35,449.71c-0.21-0.45-0.41-0.9-0.62-1.36c-0.13-0.29-0.11-0.26,0.04,0.09
							c-0.05-0.13-0.11-0.26-0.16-0.4c-0.08-0.2-0.16-0.4-0.24-0.6c-0.38-0.98-0.72-1.97-1.04-2.97c-0.62-2.01-1.11-4.05-1.46-6.13
							c-0.25-1.48-2.15-2.44-3.52-2c-1.59,0.52-2.27,1.93-2,3.52c0.76,4.42,2.15,8.67,4.06,12.72c0.64,1.36,2.69,1.81,3.91,1.03
							C67.72,452.72,68.03,451.16,67.35,449.71L67.35,449.71z"/>
					</g>
				</g>
				<g>
					<g>
						<path class="st5" d="M90.13,423.35c-5.94,28.61,5.23,59.02,30.13,75c3.11,1.99,5.98-2.96,2.89-4.94
							c-22.65-14.53-32.9-42.53-27.5-68.54C96.4,421.28,90.88,419.74,90.13,423.35L90.13,423.35z"/>
					</g>
					<g>
						<path class="st5" d="M97.7,403.46c-1.68,2.98-3.12,6.08-4.37,9.27c-0.25,0.65-0.05,1.63,0.29,2.2
							c0.35,0.59,1.03,1.16,1.71,1.31c0.73,0.17,1.55,0.13,2.2-0.29c0.66-0.43,1.03-0.98,1.31-1.71c0.22-0.55,0.44-1.11,0.67-1.65
							c-0.1,0.23-0.19,0.46-0.29,0.68c1.01-2.37,2.14-4.68,3.41-6.93c0.73-1.3,0.35-3.18-1.03-3.91
							C100.27,401.72,98.49,402.07,97.7,403.46L97.7,403.46z"/>
					</g>
				</g>
				<g>
					<g>
						<path class="st5" d="M520.68,475.54c-3.48,16.63-18.01,28.79-35.07,28.9c-3.68,0.03-3.69,5.75,0,5.72
							c19.46-0.13,36.59-14.01,40.58-33.1C526.95,473.47,521.43,471.93,520.68,475.54L520.68,475.54z"/>
					</g>
					<g>
						<path class="st5" d="M520.41,460.36c0.29,1.26,0.53,2.53,0.7,3.81c-0.03-0.25-0.07-0.51-0.1-0.76
							c0.22,1.71,0.33,3.43,0.34,5.15c0,1.5,1.31,2.93,2.86,2.86c1.55-0.07,2.86-1.26,2.86-2.86c-0.01-3.27-0.4-6.54-1.14-9.72
							c-0.34-1.46-2.09-2.46-3.52-2C520.89,457.33,520.05,458.79,520.41,460.36L520.41,460.36z"/>
					</g>
				</g>
				<g>
					<path class="st5" d="M468.69,421.92c9.15,31.01-5.71,66.97-37.3,77.8c-3.46,1.19-1.98,6.72,1.52,5.52
						c34.49-11.82,51.37-50.69,41.29-84.84C473.17,416.87,467.65,418.37,468.69,421.92L468.69,421.92z"/>
				</g>
				<g>
					<path class="st5" d="M452.69,395.47c1.89,1.85,3.66,3.8,5.31,5.87c0.09,0.12,0.19,0.23,0.28,0.35
						c0.04,0.05,0.36,0.42,0.12,0.15c-0.27-0.3,0.14,0.18,0.19,0.25c0.09,0.12,0.18,0.24,0.27,0.36c0.4,0.54,0.8,1.09,1.18,1.64
						c0.77,1.11,1.51,2.25,2.22,3.41c0.78,1.28,2.6,1.87,3.91,1.03c1.28-0.83,1.86-2.55,1.03-3.91c-2.92-4.8-6.44-9.26-10.46-13.19
						c-1.07-1.05-2.99-1.15-4.05,0C451.65,392.55,451.54,394.35,452.69,395.47L452.69,395.47z"/>
				</g>
				<g>
					<path class="st5" d="M421.59,305.28c9.57,12.03,9.96,29.36,1.41,42.01c-2.07,3.06,2.89,5.92,4.94,2.89
						c10.1-14.94,8.81-34.97-2.3-48.94C423.35,298.35,419.32,302.42,421.59,305.28L421.59,305.28z"/>
				</g>
				<g>
					<path class="st5" d="M405.39,294.43c0.91,0.25,1.8,0.54,2.69,0.86c0.37,0.14,0.76,0.36,1.15,0.45c-0.41-0.18-0.48-0.2-0.2-0.08
						c0.11,0.05,0.22,0.09,0.32,0.14c0.21,0.1,0.43,0.19,0.64,0.29c1.65,0.78,3.23,1.69,4.73,2.72c1.24,0.85,3.23,0.27,3.91-1.03
						c0.77-1.45,0.3-3.01-1.03-3.91c-3.25-2.23-6.9-3.91-10.7-4.97c-1.44-0.4-3.18,0.49-3.52,2
						C403.05,292.43,403.85,294,405.39,294.43L405.39,294.43z"/>
				</g>
			</g>
			
				<ellipse transform="matrix(0.3338 -0.9426 0.9426 0.3338 -161.5596 667.9724)" class="st0" cx="391.81" cy="448.29" rx="30.12" ry="20.22"/>
			
				<ellipse transform="matrix(0.9426 -0.3338 0.3338 0.9426 -137.7657 83.5274)" class="st0" cx="174.15" cy="442.61" rx="18.88" ry="27.06"/>
			<ellipse class="st6" cx="327.46" cy="405.39" rx="44.89" ry="49.73"/>
			<ellipse class="st6" cx="218.18" cy="407.73" rx="45.82" ry="47.4"/>
			<ellipse cx="230.57" cy="403.49" rx="31.77" ry="39.85"/>
			<ellipse cx="334.41" cy="399.76" rx="37.69" ry="43.79"/>
			<path class="st7" d="M265.84,434.49c0,0-25.37,1.2-11.88,23.29C253.96,457.78,249.52,443.39,265.84,434.49z"/>
			<path d="M270.71,465.87c-5.26,0.21-25.85-3.57-37.75-3.52s-25.24,25.63,13.17,39.04c38.3,13.37,69.99,5.13,80.96-13.94
				c10.97-19.07-0.56-34.66-18.48-28.19S270.71,465.87,270.71,465.87z"/>
			<path class="st8" d="M227.18,490.65c0,0,57.51-30.52,99.92-3.19c0,0-5.08,21.34-42.66,21.41
				C243.91,508.94,227.18,490.65,227.18,490.65z"/>
		</g>
		<g>
			<g>
				<path class="st4" d="M113.07,375.88c-0.23,0-0.47-0.03-0.71-0.08c-19.46-4.47-23.89-23.41-24.07-24.21
					c-0.38-1.7,0.69-3.38,2.39-3.76c1.7-0.38,3.38,0.69,3.76,2.38c0.15,0.67,3.83,15.89,19.34,19.45c1.7,0.39,2.75,2.08,2.36,3.77
					C115.8,374.9,114.51,375.88,113.07,375.88z"/>
			</g>
			<g>
				<path class="st4" d="M62.99,466.77c-0.61,0-1.22-0.17-1.76-0.54C41.59,453,43.79,422.66,43.89,421.37
					c0.14-1.73,1.66-3.03,3.39-2.89c1.73,0.14,3.03,1.66,2.89,3.39l0,0c-0.02,0.28-2,27.97,14.58,39.13
					c1.44,0.97,1.82,2.93,0.85,4.37C65,466.29,64,466.77,62.99,466.77z"/>
			</g>
			<g>
				<path class="st4" d="M455.25,375.88c-1.44,0-2.73-0.99-3.07-2.45c-0.39-1.7,0.67-3.39,2.36-3.77
					c15.52-3.56,19.19-18.8,19.34-19.45c0.39-1.69,2.07-2.76,3.77-2.37c1.69,0.38,2.76,2.06,2.38,3.75
					c-0.18,0.8-4.61,19.74-24.07,24.21C455.72,375.86,455.48,375.88,455.25,375.88z"/>
			</g>
			<g>
				<path class="st4" d="M505.33,466.77c-1.01,0-2.01-0.49-2.62-1.39c-0.97-1.44-0.59-3.4,0.85-4.37
					c16.62-11.2,14.6-38.85,14.58-39.13c-0.14-1.73,1.15-3.25,2.89-3.39c1.74-0.14,3.25,1.15,3.39,2.89
					c0.1,1.29,2.31,31.62-17.34,44.86C506.55,466.6,505.93,466.77,505.33,466.77z"/>
			</g>
			<g>
				<path class="st4" d="M252.76,280.56c-1.25,0-2.44-0.75-2.93-1.99c-6.23-15.65-3.47-27.98-0.06-35.56
					c3.71-8.25,8.94-12.78,9.16-12.97c1.32-1.13,3.31-0.98,4.44,0.35c1.13,1.32,0.98,3.3-0.34,4.43c-0.07,0.06-4.53,3.99-7.63,11.02
					c-4.12,9.35-4.02,19.58,0.28,30.4c0.64,1.62-0.15,3.45-1.76,4.09C253.54,280.49,253.14,280.56,252.76,280.56z"/>
			</g>
			<g>
				<path class="st4" d="M240.48,345.4c-0.92,0-1.84-0.4-2.46-1.18c-10.97-13.68-10.31-26.47-10.28-27.01
					c0.11-1.74,1.6-3.06,3.34-2.95c1.73,0.11,3.05,1.59,2.95,3.32c0,0.08-0.12,2.82,0.91,6.94c0.95,3.82,3.11,9.65,8,15.75
					c1.09,1.36,0.87,3.34-0.49,4.43C241.86,345.18,241.17,345.4,240.48,345.4z"/>
			</g>
			<g>
				<path class="st4" d="M293.95,351.54c-2.18,0-4.34-0.25-6.48-0.75c-16.81-3.92-25.91-21.84-26.29-22.6
					c-0.78-1.56-0.14-3.45,1.41-4.22c1.56-0.78,3.45-0.14,4.22,1.41c0.11,0.21,8.23,16.07,22.11,19.28
					c7.63,1.77,15.81-0.61,24.29-7.06c1.39-1.05,3.36-0.79,4.41,0.6c1.05,1.38,0.79,3.36-0.6,4.41
					C309.22,348.55,301.49,351.54,293.95,351.54z"/>
			</g>
			<g>
				<path class="st4" d="M336.42,347.25c-0.65,0-1.31-0.2-1.87-0.62c-5.48-4.06-8.54-16.67-9.1-19.15c-0.38-1.7,0.69-3.38,2.38-3.76
					c1.7-0.38,3.38,0.69,3.76,2.38l0,0c1.18,5.24,4.04,13.5,6.7,15.47c1.4,1.04,1.69,3.01,0.66,4.41
					C338.33,346.81,337.38,347.25,336.42,347.25z"/>
			</g>
			<g>
				<path class="st4" d="M315.12,343.26c-0.44,0-0.88-0.09-1.31-0.29c-21.72-9.95-17.77-25.44-17.59-26.09
					c0.46-1.68,2.19-2.67,3.87-2.21c1.67,0.46,2.65,2.17,2.21,3.84c-0.13,0.51-2.48,11.12,14.13,18.73
					c1.58,0.72,2.28,2.59,1.55,4.18C317.45,342.58,316.31,343.26,315.12,343.26z"/>
			</g>
		</g>
		<path d="M202.24,331.63c0,0,13.32,66.87-50.6,38.42C151.65,370.06,193.93,383.94,202.24,331.63z"/>
		<path d="M304.23,324.94c0,0,11.06,67.85,68.48,21.08C372.71,346.02,332.86,372.26,304.23,324.94z"/>
	</g>
	<path class="st6" d="M377.03,242.77c0,0-37.73,78.84-6.44,86.3S411.34,297.15,377.03,242.77z"/>
	<path class="st6" d="M426.21,303.22c0,0-27.88,58.26-4.76,63.78C444.58,372.51,451.57,343.4,426.21,303.22z"/>
</g>
</svg>
