<?xml version="1.0" encoding="utf-8"?>
<!-- Generator: Adobe Illustrator 24.0.1, SVG Export Plug-In . SVG Version: 6.00 Build 0)  -->
<svg version="1.1" id="Capa_1" xmlns="http://www.w3.org/2000/svg" xmlns:xlink="http://www.w3.org/1999/xlink" x="0px" y="0px"
	 viewBox="0 0 566.93 566.93" style="enable-background:new 0 0 566.93 566.93;" xml:space="preserve">
<style type="text/css">
	.st0{fill:#F9D6E4;}
	.st1{fill:#45A759;}
	.st2{fill:#15632D;}
	.st3{fill:#F08CA7;}
	.st4{fill:#B52955;}
	.st5{fill:#F6BFD3;}
	.st6{fill:#FFFFFF;}
	.st7{fill:#CD94A9;}
	.st8{fill:#E16874;}
	.st9{fill:#EEEEEE;}
	.st10{fill:#C9C7C7;}
	.st11{clip-path:url(#SVGID_2_);}
	.st12{clip-path:url(#SVGID_2_);fill:#F08CA7;}
	.st13{fill:#CBC9CA;}
	.st14{fill:#E1E0E0;}
	.st15{fill:#B693C3;}
	.st16{fill:#F8DF28;}
	.st17{fill:#65A2D8;}
	.st18{fill:#DEE275;}
	.st19{fill:#FFDB43;}
	.st20{fill:#E75C2A;}
	.st21{fill:#F49D4E;}
	.st22{opacity:0.5;}
	.st23{fill:#F3B0CF;}
	.st24{fill:#704F9A;}
	.st25{fill:#616160;}
	.st26{fill:#5AE4A7;}
	.st27{fill:#FF0000;}
	.st28{fill:#82CEE0;}
	.st29{fill:#9E6D0B;}
	.st30{fill:#828E0C;}
	.st31{fill:#FFFF00;}
	.st32{clip-path:url(#SVGID_4_);}
	.st33{clip-path:url(#SVGID_4_);fill:#F08CA7;}
	.st34{clip-path:url(#SVGID_6_);}
	.st35{clip-path:url(#SVGID_6_);fill:#F08CA7;}
	.st36{fill:none;stroke:#B52955;stroke-width:3;stroke-linecap:round;stroke-linejoin:round;stroke-miterlimit:10;}
</style>
<g>
	<g>
		<g>
			<path class="st2" d="M287.84,265.59c-1.1,0-2-0.89-2-2V76.05c0-1.1,0.9-2,2-2c1.1,0,2,0.89,2,2v187.54
				C289.84,264.69,288.94,265.59,287.84,265.59z"/>
		</g>
		<path class="st1" d="M298.53,143.21c2.44-4.12,5.41-8.29,9.98-10.05c4.55-1.63,11.01,0.4,12.34,5.17c0.81,3.07-0.78,6.14-2.43,8.8
			c-7.09,11.07-18.04,19.76-30.58,24.43C289.8,161.61,293.44,151.95,298.53,143.21z"/>
		<path class="st1" d="M298.53,173.22c2.44-4.12,5.41-8.29,9.98-10.05c4.55-1.63,11.01,0.4,12.34,5.17c0.81,3.07-0.78,6.14-2.43,8.8
			c-7.09,11.07-18.04,19.76-30.58,24.43C289.8,191.62,293.44,181.96,298.53,173.22z"/>
		<path class="st1" d="M288.39,172.75c-12.54-4.67-23.49-13.36-30.58-24.43c-1.65-2.66-3.24-5.72-2.43-8.8
			c1.33-4.76,7.79-6.8,12.34-5.17c4.57,1.76,7.55,5.92,9.98,10.05C282.79,153.15,286.43,162.8,288.39,172.75z"/>
		<path class="st1" d="M298.53,110.6c2.44-4.12,5.41-8.29,9.98-10.05c4.55-1.63,11.01,0.4,12.34,5.17c0.81,3.07-0.78,6.14-2.43,8.8
			c-7.09,11.07-18.04,19.76-30.58,24.43C289.8,129,293.44,119.34,298.53,110.6z"/>
		<path class="st1" d="M288.39,140.14c-12.54-4.67-23.49-13.36-30.58-24.43c-1.65-2.66-3.24-5.72-2.43-8.8
			c1.33-4.76,7.79-6.8,12.34-5.17c4.57,1.76,7.55,5.92,9.98,10.05C282.79,120.53,286.43,130.19,288.39,140.14z"/>
		<path class="st1" d="M298.53,75.95c2.44-4.12,5.41-8.29,9.98-10.05c4.55-1.63,11.01,0.4,12.34,5.17c0.81,3.07-0.78,6.14-2.43,8.8
			c-7.09,11.07-18.04,19.76-30.58,24.43C289.8,94.35,293.44,84.69,298.53,75.95z"/>
		<path class="st1" d="M279.14,52.73c-0.61-4.75-0.82-9.87,1.71-14.06c2.59-4.08,8.94-6.44,12.91-3.5c2.53,1.93,3.16,5.32,3.48,8.44
			c1.2,13.09-2.11,26.67-9.14,38.06C283.54,72.62,280.49,62.76,279.14,52.73z"/>
		<path class="st1" d="M288.39,105.49c-12.54-4.67-23.49-13.36-30.58-24.43c-1.65-2.66-3.24-5.72-2.43-8.8
			c1.33-4.76,7.79-6.8,12.34-5.17c4.57,1.76,7.55,5.92,9.98,10.05C282.79,85.88,286.43,95.54,288.39,105.49z"/>
		<path class="st1" d="M288.39,202.62c-12.54-4.67-23.49-13.36-30.58-24.43c-1.65-2.66-3.24-5.72-2.43-8.8
			c1.33-4.76,7.79-6.8,12.34-5.17c4.57,1.76,7.55,5.92,9.98,10.05C282.79,183.02,286.43,192.68,288.39,202.62z"/>
	</g>
	<g>
		<path class="st3" d="M371.16,512.6c0,0-0.02-0.04-0.05-0.11C370.34,512.12,371.16,512.6,371.16,512.6z"/>
		<path class="st3" d="M523.94,446.7c-2.73-5.88-6.55-11.2-11.17-15.71c10.01-31.07-7.95-70.37-41.35-77.01
			c1.12-20.48-7.14-41.49-24.26-53.67c-6.52-4.63-14.06-7.41-21.99-8.29c-0.61-0.07-1.11,0.04-1.5,0.27
			c-1.34-1.47-1.75-2.85-1.75-2.85s-4.7-9.62-19.08-18.41c-14.38-8.79-30.61-4.18-35.74-2.86c-0.57,0.15-1.07,0.23-1.52,0.27
			c-8.17-33.13-48.08-50.04-79.08-39.52c-9.13,3.1-17.43,8.16-24.7,14.46c-24.27-10.63-53.21-2.94-68.27,19.21
			c-0.27,0.4-0.42,0.8-0.46,1.19c-1.49,0.36-2.58,0.31-2.58,0.31s0.76-2.19-19.59,2.92c-20.34,5.11-25.24,23.4-27.17,28.48
			c-0.16,0.41-0.33,0.78-0.52,1.12c-0.56-0.38-1.27-0.56-2.1-0.4c-28.25,5.5-47.15,33.02-42.64,61.26
			c-27.4,10.98-42.22,39.56-42.69,68.11c0,0-0.01,0.01-0.01,0.01c-17.11,16.54-22.75,41.91-13.12,63.84
			c8.54,19.45,27.73,32.61,48.56,35.36c14.51,1.92,29.34-1.11,41.93-8.58c0.52-0.31,0.87-0.71,1.08-1.14
			c0.78,0.19,1.26,0.41,1.26,0.41s11.36,3.55,20.68,4.96c9.31,1.4,21.8,1.24,30.87-4.47c9.07-5.71,11.28-0.84,11.28-0.84
			s10.76,7.32,19.1,12.97c8.35,5.65,21.08,4.93,28.17,3.65c7.1-1.28,24.52-7.88,29.55-15.06c5.03-7.18,7.1-1.71,7.1-1.71
			s6.71,6.96,22.45,13.47c15.74,6.51,30.55,2.09,38.26,0c7.71-2.09,18.13-8.96,22.42-14.34c3.85-4.83,5.45-2.19,5.74-1.59
			c0.7,0.34,2.72,1.39,7.91,4.18c10.86,5.84,24.77,6.67,36.51,5.44c11.74-1.23,22.08-5.09,25.41-8.21c0.91-0.85,1.76-1.38,2.61-1.66
			c-0.05,0.89,0.3,1.81,1.24,2.45c20.86,14.04,49.22,11.75,67.44-5.56C529.03,493.17,533.66,467.66,523.94,446.7z"/>
	</g>
	<g>
		<path class="st3" d="M102.96,333.47c0,0,3.35-15.19,15.22-22.81c11.87-7.61,18.86-10.22,18.86-10.22s4.75,0.57,6.69-4.52
			c1.94-5.09,6.83-23.37,27.18-28.48c20.34-5.11,19.59-2.92,19.59-2.92s5.73,0.25,8.86-4.65c3.13-4.9,15.07-16.14,30.26-17.36
			c15.19-1.22,29.14,2.96,29.14,2.96s2.45,3.74,10.32-3.19c7.87-6.93,19.87-13.9,38.59-12.74c18.71,1.16,30.28,5.28,38.4,13.67
			s15.02,18.34,15.02,18.34l0.94,4.83c0,0-0.05,3.55,5.07,2.23c5.12-1.32,21.35-5.93,35.74,2.86c14.38,8.79,19.08,18.41,19.08,18.41
			s1.28,4.37,6.88,5.86s26.91,9.08,33.41,26.8c6.5,17.72,6.55,25.18,6.55,25.18l0.07,5.23c0,0,0.05,2.42,4.87,4.8
			c4.82,2.38,21.95,6.19,30.74,24.35c8.79,18.16,9.74,28.49,8.48,35.71c-1.26,7.22-4.45,14.05-1.62,15.99
			c2.83,1.94,15.61,18.07,15.03,34.46c-0.58,16.39-6.41,28.05-12.14,35.19c-5.73,7.14-13.34,14.25-27.28,16.83
			c-13.94,2.57-30.86-0.63-35.43-4.38c-4.57-3.75-7.2-4.7-10.53-1.58c-3.33,3.12-13.67,6.98-25.41,8.21
			c-11.74,1.23-25.65,0.4-36.51-5.44c-10.86-5.84-7.86-4.07-7.86-4.07s-1.5-3.9-5.79,1.48c-4.29,5.38-14.71,12.25-22.42,14.34
			c-7.71,2.09-22.52,6.51-38.26,0c-15.74-6.51-22.45-13.47-22.45-13.47s-2.07-5.47-7.1,1.71c-5.03,7.18-22.45,13.78-29.55,15.06
			c-7.1,1.28-19.82,2.01-28.17-3.65c-8.35-5.65-21.31-17.85-30.38-12.14c-9.07,5.71-21.56,5.87-30.87,4.47
			c-9.31-1.4-20.68-4.96-20.68-4.96s-4.94-2.24-9.04,1.2c-4.1,3.44-34.99,11.66-53.23,0c-18.24-11.66-29.23-23.48-31.8-40.54
			c-2.57-17.06,0.73-26.94,5.39-34.27c4.66-7.33,7.51-10.81,7.51-10.81s3.66-2.76,4.24-9.03s3.37-30.6,15.43-42.54
			c12.06-11.94,20.12-17.03,20.12-17.03s7.37-0.7,6.88-6.63C100.5,350.32,102.55,337.38,102.96,333.47z"/>
		<g>
			<path class="st4" d="M376.93,481.16c3.52-1.78,7.3-1.82,11.11-1.03c3.99,0.83,8.37,2.38,11.27,5.36
				c5.86,6.03,6.16,15.28,5.83,23.15c-0.11,2.69,4.06,3.22,4.18,0.51c0.39-9.44-0.23-20.09-7.48-27.06
				c-3.48-3.34-8.31-5.05-12.94-6.07c-4.57-1.01-9.39-0.87-13.62,1.27C372.86,478.51,374.51,482.39,376.93,481.16L376.93,481.16z"/>
		</g>
		<g>
			<path class="st4" d="M169.42,503.5c-1.78-3.52-1.82-7.3-1.03-11.11c0.83-3.99,2.38-8.37,5.36-11.27
				c6.03-5.86,15.28-6.16,23.15-5.83c2.69,0.11,3.22-4.06,0.51-4.18c-9.44-0.39-20.09,0.23-27.06,7.48
				c-3.34,3.48-5.05,8.31-6.07,12.94c-1.01,4.57-0.87,9.39,1.27,13.62C166.77,507.57,170.65,505.92,169.42,503.5L169.42,503.5z"/>
		</g>
		<circle class="st0" cx="283.67" cy="418.08" r="112.98"/>
		<path class="st3" d="M341.36,326.56c-0.77-1.47-2.22-1.65-3.38-1.09c-1.4-3.33-2.67-6.59-2.51-7.4c0.34-1.75-0.46-5.43-0.46-5.43
			s-12.89,0.76-17.52,0c-4.63-0.76-21.55-5.69-24.26-7.55c-2.72-1.86-4.87-3.49-6.71,0c-1.84,3.49-4.16,6.69-14.23,12.78
			c-10.07,6.1-14.03,8.32-17.62,8.42c-3.58,0.1-12.12-1.18-12.12-1.18s-0.03-0.01-0.09-0.01c-0.81-2.58-5.3-2.26-5.39,0.93
			c-0.42,15.67,6.56,34.37,22.93,39.03c9.51,2.71,23.97,1.63,26.64-10c0.04-0.18,0.08-0.37,0.11-0.56c1.48,0.38,2.98,0.68,4.48,0.89
			c6.59,0.92,14.06,0.22,19.41-4.1c1.34-1.08,2.44-2.38,3.29-3.8c5.11,3.52,11.37,5.8,17.62,4.67c7.24-1.31,12.08-7.37,12.47-14.59
			C344.24,333.72,343.12,329.95,341.36,326.56z"/>
		<path class="st3" d="M194.92,352.54c0,0,29.6,19.18,63.96-16.8c0,0,34.25-35.51-8.25-35.98
			C208.11,299.3,192.72,334.31,194.92,352.54z"/>
		<path class="st3" d="M326.86,334.68c0,0,6.14,37.23,54.49,37.39c0,0,29.85-34.9,2.98-58.11S326.86,306.59,326.86,334.68z"/>
		<path class="st3" d="M306.44,281.48l-34.15,36.4c0,0-8.44,13.09-35.21,8.17c0,0-9.95,12.51-35.68,22.3
			c0,0,16.21,49.45-41.79,53.14C159.61,401.48,137.02,269.05,306.44,281.48z"/>
		<path class="st3" d="M381.34,372.06c0,0-20.02,48.44,4.26,56.89c24.28,8.45,69.35-1.09,44.34-42.09S381.34,372.06,381.34,372.06z"
			/>
		<path class="st3" d="M336.14,294.04c0,0-19.35,45.4,31.49,56.25c0,0-15.14,64.14,68.4,50.06
			C436.03,400.35,443.08,267.84,336.14,294.04z"/>
		<g>
			<path class="st4" d="M285.37,301.02c-4.65,8.01-11.88,14.35-20.29,18.19c-9.78,4.46-20.68,4.51-30.79,1.12
				c-3.37-1.13-4.82,4.19-1.46,5.31c11.3,3.78,23.35,3.46,34.28-1.34c9.54-4.18,17.79-11.49,23.02-20.5
				C291.91,300.73,287.15,297.95,285.37,301.02L285.37,301.02z"/>
		</g>
		<g>
			<path class="st4" d="M271.83,270.18c-0.21,5.7,1.2,11.75,3.29,17c4.73,11.9,14.17,20.56,26.24,24.78
				c10.5,3.67,21.97,3.94,32.94,2.92c3.5-0.33,3.53-5.84,0-5.51c-15.53,1.45-33.41,0.34-45.31-11.02
				c-6.43-6.13-10.03-14.3-11.31-22.99c-0.11-0.76,0.07,0.59-0.02-0.15c-0.03-0.21-0.05-0.42-0.07-0.63
				c-0.04-0.38-0.08-0.76-0.11-1.15c-0.05-0.57-0.08-1.13-0.11-1.7c-0.02-0.51-0.04-1.03-0.02-1.55
				C277.47,266.64,271.96,266.64,271.83,270.18L271.83,270.18z"/>
		</g>
		<g>
			<path class="st4" d="M425.48,398.62c-15.49,7.43-34.41,4.19-46.36-8.18c-11.08-11.47-14.08-29.24-7.02-43.62
				c4.16-8.47,11.13-14.96,19.67-18.89c3.22-1.48,0.42-6.23-2.78-4.76c-17.42,7.99-28.27,26.59-25.91,45.73
				c2.16,17.52,14.87,32.29,31.75,37.34c11.1,3.32,23.02,2.12,33.42-2.87C431.45,401.84,428.66,397.09,425.48,398.62L425.48,398.62z
				"/>
		</g>
		<g>
			<path class="st4" d="M405.52,407.34c-0.8-1.01,0.2,0.29,0.45,0.64c0.72,1.02,1.4,2.07,2.05,3.13c2.17,3.54,4.06,7.28,5.54,11.16
				c4.35,11.4,5.37,23.84,1.08,35.43c-3.34,9.02-9.66,16.5-16.87,22.7c-2.69,2.32,1.22,6.2,3.9,3.9
				c12.63-10.86,21.42-25.62,21.29-42.61c-0.08-11.21-3.73-22.28-9.33-31.91c-1.27-2.19-2.65-4.33-4.22-6.32
				C407.23,400.66,403.35,404.58,405.52,407.34L405.52,407.34z"/>
		</g>
		<g>
			<path class="st4" d="M367.63,350.3c-11.64-3.81-21.51-12.39-26.28-23.77c-4.69-11.19-4.03-24.22,1.75-34.87
				c11.89-21.91,41.06-28.94,61.99-15.73c11.29,7.13,18.59,19.33,19.34,32.67c0.2,3.53,5.71,3.55,5.51,0
				c-0.75-13.42-7.1-25.91-17.66-34.28c-10.83-8.59-24.8-12.12-38.43-10.09c-27.81,4.13-47.43,32.41-39.21,59.82
				c4.54,15.12,16.66,26.7,31.53,31.57C369.54,356.72,370.99,351.4,367.63,350.3L367.63,350.3z"/>
		</g>
		<g>
			<path class="st4" d="M369.04,301.9c12.19-10.65,29.8-12.18,43.57-3.67c13.32,8.23,20.51,23.82,19.65,39.26
				c-0.54,9.87-4.53,19.33-11.23,26.58c-2.4,2.6,1.48,6.51,3.9,3.9c13.38-14.48,16.47-35.93,8.46-53.84
				c-6.78-15.16-21.65-26.23-38.42-26.96c-11.03-0.48-21.57,3.64-29.82,10.84C362.47,300.34,366.38,304.23,369.04,301.9
				L369.04,301.9z"/>
		</g>
		<path class="st3" d="M422.89,390.98c0,0,24.64,7.23,23.29,44.39c-1.35,37.17-14.82,47.58-19.31,58.12
			c-4.49,10.54,17.09,22.34,31.46,7.54c14.37-14.81,27.52-46.67,20.43-75.9c-7.09-29.24-16.27-37.11-32.58-47.76
			C429.86,366.72,409.21,377.05,422.89,390.98z"/>
		<g>
			<path class="st4" d="M397.83,368.85c19.6-2.5,39.27,3.37,54.16,16.41c14.26,12.49,23.43,30.33,25.64,49.14
				c2.28,19.45-2.39,39.37-13.62,55.47c-10.59,15.18-26.84,26.07-45.1,29.39c-24.09,4.38-38.02,2.76-53.9-15.47
				c-2.33-2.68-6.22,1.23-3.9,3.9c15.31,17.57,27.84,19.66,51.27,17.91c19.75-1.48,38.19-11.12,51.08-26.1
				c27.58-32.04,26.7-82.38-2.41-113.17c-16.22-17.16-39.73-25.99-63.22-23C394.36,363.78,394.31,369.3,397.83,368.85L397.83,368.85
				z"/>
		</g>
		<path class="st3" d="M89.49,426.86c0,0,9.88-36.26,29.88-47.94c20-11.68,28.9-14.38,37.17-14.86s15.49,1.37,13.94,5.76
			s-28.13,10.72-33.29,27.43c-5.16,16.71-15.49,44.98-4.39,66.46c11.1,21.48,19.36,43.42,11.61,44.97
			c-7.74,1.55-46.33-11.77-52.46-41.12C85.82,438.21,87.43,435.37,89.49,426.86z"/>
		<g>
			<g>
				<path class="st4" d="M140.77,401.42c17.58,8.43,39.02,5.25,52.79-8.78c12.89-13.14,16.26-33.2,8.47-49.85
					c-4.46-9.53-12.46-17.19-21.99-21.57c-3.2-1.47-6,3.28-2.78,4.76c15.41,7.08,25.04,22.82,23.3,39.86
					c-1.55,15.2-12.66,28.33-27.12,32.93c-9.83,3.13-20.58,2.37-29.88-2.1C140.37,395.13,137.57,399.88,140.77,401.42L140.77,401.42
					z"/>
			</g>
			<g>
				<path class="st4" d="M159.61,401.48c-12.09,15.35-17.46,37.87-10.3,56.39c3.73,9.65,10.24,17.76,18.04,24.46
					c2.68,2.3,6.59-1.58,3.9-3.9c-11.83-10.17-20.07-23.67-19.66-39.64c0.26-10.05,3.67-19.9,8.74-28.51
					c0.77-1.32,1.59-2.61,2.46-3.87c0.29-0.42,1.51-2.03,0.73-1.04C165.68,402.62,161.8,398.7,159.61,401.48L159.61,401.48z"/>
			</g>
			<g>
				<path class="st4" d="M202.87,353.66c13.13-4.3,24.22-13.8,29.7-26.59c5.43-12.68,4.84-27.29-1.53-39.51
					c-13.06-25.04-46.59-33.32-70.18-18.15c-12.82,8.25-20.91,22.02-21.76,37.23c-0.2,3.54,5.31,3.53,5.51,0
					c1.41-25.06,25.48-42.84,49.89-38.94c24.41,3.91,41.76,28.26,34.71,52.55c-3.89,13.4-14.64,23.78-27.79,28.09
					C198.05,349.44,199.48,354.77,202.87,353.66L202.87,353.66z"/>
			</g>
			<g>
				<path class="st4" d="M203.89,296.05c-14.02-12.25-34.29-14.39-50.24-4.54c-15.02,9.28-23.51,26.97-22.36,44.47
					c0.73,11.21,5.19,21.78,12.82,30.03c2.41,2.61,6.3-1.29,3.9-3.9c-11.61-12.56-14.49-31.55-7.6-47.16
					c5.86-13.27,18.55-23.41,33.3-24.21c9.67-0.52,19.02,2.86,26.29,9.21C202.65,302.27,206.56,298.39,203.89,296.05L203.89,296.05z
					"/>
			</g>
			<g>
				<path class="st4" d="M171.2,361.38c-19.18-2.44-38.59,2.9-53.92,14.65c-14.66,11.23-25.04,27.55-29.45,45.46
					c-9.01,36.59,7.33,77.85,41.82,94.81c21.33,10.48,46.46,9.79,67.34-1.52c3.12-1.69,0.34-6.45-2.78-4.76
					c-17.61,9.54-38.59,10.92-57.22,3.55c-15.67-6.2-28.56-18.39-36.58-33.1c-17-31.18-10.83-72.19,15.56-96.2
					c15.02-13.66,35.12-19.93,55.23-17.36C174.71,367.34,174.68,361.83,171.2,361.38L171.2,361.38z"/>
			</g>
		</g>
		<path class="st4" d="M176.47,412.19c0,0-1.49-49.8,47.73-49.8c26.18,0,38.98,37.84,38.98,37.84s-12.39-38.71-46.41-32.11
			C181.18,375.03,176.47,412.19,176.47,412.19z"/>
		<path class="st4" d="M369.07,416.36c0,0,1.12-58.29-40.03-58.28c-43.58,0-45.46,39.32-45.46,39.32s9.24-38.59,48.69-33.69
			C370.03,368.4,369.07,416.36,369.07,416.36z"/>
		<g>
			<g>
				<path class="st5" d="M152.93,304.77c-12.08,10.69-14.88,28.86-7.31,42.96c1.68,3.12,6.44,0.35,4.76-2.78
					c-6.47-12.04-3.77-27.25,6.45-36.28C159.49,306.31,155.58,302.43,152.93,304.77L152.93,304.77z"/>
			</g>
			<g>
				<path class="st5" d="M175.44,297.15c-4.54-0.39-9.2,0.32-13.42,2.04c-0.69,0.28-1.25,0.6-1.65,1.27
					c-0.35,0.59-0.49,1.46-0.28,2.12c0.42,1.28,1.96,2.51,3.39,1.92c1.94-0.79,3.96-1.37,6.03-1.71c0.11-0.02,0.23-0.04,0.34-0.05
					c-0.35,0.04-0.37,0.05-0.05,0.01c0.23-0.03,0.46-0.05,0.69-0.07c0.54-0.05,1.08-0.09,1.63-0.1c1.1-0.04,2.21,0,3.31,0.09
					c1.44,0.12,2.82-1.35,2.76-2.76C178.12,298.3,176.98,297.28,175.44,297.15L175.44,297.15z"/>
			</g>
			<g>
				<path class="st5" d="M268.23,359.46c1.77,0.14,3.55,0.14,5.32,0.04c0.73-0.04,1.42-0.28,1.95-0.81
					c0.48-0.48,0.84-1.26,0.81-1.95c-0.03-0.71-0.27-1.45-0.81-1.95c-0.52-0.48-1.22-0.85-1.95-0.81c-1.77,0.1-3.55,0.1-5.32-0.04
					c-0.67-0.05-1.49,0.34-1.95,0.81c-0.48,0.48-0.84,1.26-0.81,1.95c0.03,0.71,0.27,1.45,0.81,1.95
					C266.85,359.16,267.47,359.4,268.23,359.46L268.23,359.46z"/>
			</g>
			<g>
				<path class="st5" d="M244.37,335.1c0.01,6.33,2.86,13.08,7.34,17.49c2.35,2.31,5.15,3.95,8.2,5.13
					c1.39,0.54,3.02-0.59,3.39-1.92c0.43-1.56-0.53-2.85-1.92-3.39c-0.18-0.07-0.36-0.14-0.53-0.21c0.06,0.02,0.3,0.13,0.02,0
					c-0.29-0.13-0.58-0.27-0.86-0.41c-0.55-0.28-1.08-0.58-1.61-0.9c-0.5-0.31-0.98-0.64-1.45-0.99c0.41,0.31-0.18-0.15-0.29-0.25
					c-0.24-0.2-0.48-0.41-0.71-0.63c-0.39-0.37-0.77-0.75-1.13-1.15c-0.15-0.17-0.3-0.34-0.44-0.51c-0.1-0.11-0.19-0.23-0.28-0.34
					c-0.26-0.31,0.26,0.36,0.03,0.04c-0.61-0.82-1.16-1.67-1.65-2.56c-0.21-0.38-0.4-0.77-0.59-1.16c-0.1-0.2-0.19-0.41-0.28-0.62
					c-0.07-0.14-0.18-0.49,0.05,0.13c-0.04-0.12-0.1-0.23-0.14-0.35c-0.29-0.77-0.56-1.55-0.79-2.34c-0.2-0.71-0.37-1.43-0.52-2.16
					c-0.06-0.3-0.11-0.61-0.16-0.91c-0.02-0.12-0.03-0.24-0.05-0.36c-0.01-0.06,0.09,0.75,0.03,0.18c-0.06-0.6-0.13-1.21-0.13-1.82
					c0-1.49-1.26-2.76-2.76-2.76C245.63,332.35,244.37,333.61,244.37,335.1L244.37,335.1z"/>
			</g>
			<g>
				<path class="st5" d="M290.13,349.96c2.44,0.5,5.03,0.67,7.52,0.52c0.73-0.04,1.42-0.28,1.95-0.81c0.48-0.48,0.84-1.26,0.81-1.95
					c-0.03-0.71-0.27-1.45-0.81-1.95c-0.52-0.48-1.22-0.85-1.95-0.81c-1.84,0.11-3.68,0.02-5.5-0.22c0.24,0.03,0.49,0.07,0.73,0.1
					c-0.43-0.06-0.86-0.12-1.28-0.21c-0.73-0.15-1.47-0.11-2.12,0.28c-0.57,0.33-1.12,0.99-1.27,1.65c-0.16,0.71-0.13,1.5,0.28,2.12
					C288.86,349.27,289.43,349.81,290.13,349.96L290.13,349.96z"/>
			</g>
			<g>
				<path class="st5" d="M228.56,247.08c-6.52,0.88-12.83,3.25-18.34,6.87c-1.24,0.82-1.77,2.44-0.99,3.77
					c0.72,1.23,2.52,1.81,3.77,0.99c5.22-3.43,10.75-5.47,17.02-6.32c1.43-0.19,2.34-2.11,1.92-3.39
					C231.44,247.43,230.1,246.87,228.56,247.08L228.56,247.08z"/>
			</g>
			<g>
				<path class="st5" d="M246.15,248.42c-2.56-0.59-5.17-0.98-7.78-1.22c-0.66-0.06-1.49,0.35-1.95,0.81
					c-0.48,0.48-0.84,1.26-0.81,1.95c0.03,0.71,0.27,1.45,0.81,1.95c0.57,0.52,1.18,0.74,1.95,0.81c0.78,0.07,1.55,0.16,2.32,0.26
					c-0.24-0.03-0.49-0.07-0.73-0.1c1.59,0.22,3.16,0.5,4.73,0.86c0.72,0.16,1.48,0.1,2.12-0.28c0.57-0.33,1.12-0.99,1.27-1.65
					C248.39,250.41,247.65,248.77,246.15,248.42L246.15,248.42z"/>
			</g>
			<g>
				<path class="st5" d="M286.08,286.36c3.64,6.71,9.37,12.06,16.25,15.36c1.3,0.62,3.04,0.4,3.77-0.99c0.65-1.23,0.4-3.1-0.99-3.77
					c-1.8-0.86-3.54-1.85-5.17-3c-0.17-0.12-0.33-0.24-0.5-0.36c-0.07-0.05-0.65-0.48-0.4-0.29c0.27,0.21-0.24-0.19-0.29-0.23
					c-0.19-0.15-0.37-0.3-0.55-0.45c-0.68-0.57-1.33-1.17-1.96-1.79c-0.58-0.57-1.14-1.17-1.67-1.79c-0.26-0.3-0.51-0.6-0.76-0.91
					c-0.16-0.2-0.38-0.49-0.1-0.11c-0.13-0.17-0.25-0.34-0.38-0.51c-0.92-1.25-1.74-2.57-2.48-3.94c-0.69-1.27-2.55-1.78-3.77-0.99
					C285.78,283.42,285.34,285,286.08,286.36L286.08,286.36z"/>
			</g>
			<g>
				<path class="st5" d="M281.69,273.04c0.32,2.17,0.81,4.32,1.47,6.41c0.22,0.68,0.64,1.28,1.27,1.65
					c0.59,0.35,1.46,0.49,2.12,0.28c0.67-0.22,1.31-0.63,1.65-1.27c0.34-0.64,0.5-1.41,0.28-2.12c-0.66-2.09-1.16-4.24-1.47-6.41
					c-0.09-0.63-0.74-1.34-1.27-1.65c-0.59-0.35-1.46-0.49-2.12-0.28c-0.67,0.22-1.31,0.63-1.65,1.27
					c-0.09,0.22-0.19,0.44-0.28,0.66C281.55,272.06,281.55,272.55,281.69,273.04L281.69,273.04z"/>
			</g>
			<g>
				<g>
					<path class="st5" d="M111.9,347.71c-0.38-6.95,1.67-13.84,6.02-19.24c0.93-1.16,1.13-2.77,0-3.9c-0.97-0.97-2.96-1.16-3.9,0
						c-5.29,6.55-8.1,14.69-7.63,23.14c0.08,1.49,1.21,2.76,2.76,2.76C110.57,350.47,111.98,349.2,111.9,347.71L111.9,347.71z"/>
				</g>
				<g>
					<path class="st5" d="M115.74,360.06c-0.71-1.2-1.34-2.45-1.88-3.73c0.09,0.22,0.19,0.44,0.28,0.66
						c-0.36-0.87-0.69-1.75-0.97-2.65c-0.21-0.68-0.64-1.28-1.27-1.65c-0.59-0.35-1.46-0.49-2.12-0.28
						c-0.67,0.22-1.31,0.63-1.65,1.27c-0.34,0.64-0.5,1.41-0.28,2.12c0.78,2.45,1.83,4.83,3.14,7.04c0.35,0.6,0.97,1.08,1.65,1.27
						c0.66,0.18,1.54,0.1,2.12-0.28C116,363.03,116.52,361.39,115.74,360.06L115.74,360.06z"/>
				</g>
			</g>
			<g>
				<g>
					<path class="st5" d="M70.85,434.6c-0.24-2.57-0.28-5.16-0.12-7.74c0.09-1.44-1.33-2.82-2.76-2.76
						c-1.57,0.07-2.66,1.21-2.76,2.76c-0.16,2.58-0.12,5.16,0.12,7.74c0.07,0.75,0.26,1.4,0.81,1.95c0.48,0.48,1.26,0.84,1.95,0.81
						c0.71-0.03,1.45-0.27,1.95-0.81C70.51,436.04,70.92,435.32,70.85,434.6L70.85,434.6z"/>
				</g>
				<g>
					<path class="st5" d="M75.33,452.62c-0.2-0.43-0.4-0.87-0.59-1.31c-0.12-0.28-0.11-0.25,0.04,0.09
						c-0.05-0.13-0.11-0.25-0.16-0.38c-0.08-0.19-0.15-0.38-0.23-0.58c-0.37-0.94-0.7-1.89-1-2.86c-0.6-1.93-1.07-3.9-1.41-5.9
						c-0.24-1.42-2.07-2.35-3.39-1.92c-1.54,0.5-2.19,1.86-1.92,3.39c0.73,4.25,2.07,8.35,3.91,12.25c0.62,1.31,2.6,1.75,3.77,0.99
						C75.69,455.52,75.99,454.02,75.33,452.62L75.33,452.62z"/>
				</g>
			</g>
			<g>
				<g>
					<path class="st5" d="M97.28,427.23c-5.72,27.55,5.03,56.84,29.01,72.23c2.99,1.92,5.76-2.85,2.78-4.76
						c-21.81-13.99-31.68-40.96-26.48-66.01C103.31,425.24,98,423.76,97.28,427.23L97.28,427.23z"/>
				</g>
				<g>
					<path class="st5" d="M104.57,408.08c-1.62,2.87-3,5.86-4.21,8.92c-0.25,0.62-0.05,1.57,0.28,2.12
						c0.33,0.57,0.99,1.12,1.65,1.27c0.71,0.16,1.5,0.13,2.12-0.28c0.64-0.41,0.99-0.94,1.27-1.65c0.21-0.53,0.43-1.06,0.65-1.59
						c-0.09,0.22-0.19,0.44-0.28,0.66c0.97-2.28,2.06-4.51,3.28-6.67c0.71-1.26,0.34-3.07-0.99-3.77
						C107.04,406.41,105.33,406.74,104.57,408.08L104.57,408.08z"/>
				</g>
			</g>
			<g>
				<g>
					<path class="st5" d="M511.91,477.5c-3.35,16.02-17.34,27.72-33.77,27.84c-3.54,0.02-3.55,5.53,0,5.51
						c18.74-0.13,35.24-13.49,39.08-31.88C517.95,475.5,512.63,474.02,511.91,477.5L511.91,477.5z"/>
				</g>
				<g>
					<path class="st5" d="M511.65,462.87c0.28,1.21,0.51,2.44,0.67,3.67c-0.03-0.24-0.07-0.49-0.1-0.73
						c0.21,1.65,0.32,3.3,0.33,4.96c0,1.44,1.26,2.82,2.76,2.76c1.49-0.07,2.76-1.21,2.76-2.76c-0.01-3.14-0.38-6.3-1.1-9.36
						c-0.33-1.4-2.01-2.37-3.39-1.92C512.11,459.96,511.3,461.37,511.65,462.87L511.65,462.87z"/>
				</g>
			</g>
			<g>
				<path class="st5" d="M461.85,425.85c8.81,29.87-5.5,64.5-35.92,74.92c-3.34,1.14-1.9,6.47,1.46,5.31
					c33.22-11.39,49.47-48.81,39.77-81.7C466.16,421,460.84,422.44,461.85,425.85L461.85,425.85z"/>
			</g>
			<g>
				<path class="st5" d="M446.43,400.38c1.82,1.78,3.53,3.66,5.11,5.65c0.09,0.11,0.18,0.23,0.27,0.34
					c0.04,0.05,0.35,0.41,0.12,0.15c-0.26-0.29,0.13,0.17,0.18,0.24c0.09,0.12,0.17,0.23,0.26,0.35c0.39,0.52,0.77,1.05,1.14,1.58
					c0.75,1.07,1.46,2.17,2.14,3.28c0.75,1.23,2.5,1.8,3.77,0.99c1.24-0.8,1.79-2.45,0.99-3.77c-2.82-4.62-6.2-8.92-10.07-12.71
					c-1.03-1.01-2.88-1.1-3.9,0C445.43,397.58,445.33,399.31,446.43,400.38L446.43,400.38z"/>
			</g>
			<g>
				<path class="st5" d="M416.49,313.53c9.21,11.59,9.59,28.28,1.35,40.46c-1.99,2.95,2.78,5.71,4.76,2.78
					c9.72-14.38,8.49-33.67-2.22-47.13C418.18,306.86,414.3,310.78,416.49,313.53L416.49,313.53z"/>
			</g>
			<g>
				<path class="st5" d="M400.89,303.08c0.87,0.24,1.74,0.52,2.59,0.83c0.36,0.13,0.74,0.35,1.1,0.43c-0.4-0.17-0.46-0.2-0.19-0.08
					c0.1,0.04,0.21,0.09,0.31,0.14c0.21,0.09,0.41,0.19,0.62,0.28c1.59,0.75,3.11,1.63,4.56,2.62c1.19,0.82,3.11,0.26,3.77-0.99
					c0.74-1.4,0.28-2.9-0.99-3.77c-3.13-2.14-6.64-3.77-10.3-4.78c-1.39-0.38-3.06,0.48-3.39,1.92
					C398.63,301.15,399.4,302.67,400.89,303.08L400.89,303.08z"/>
			</g>
		</g>
		
			<ellipse transform="matrix(0.3338 -0.9426 0.9426 0.3338 -167.0203 666.1706)" class="st0" cx="387.8" cy="451.25" rx="29.01" ry="19.47"/>
		
			<ellipse transform="matrix(0.9426 -0.3338 0.3338 0.9426 -138.5929 85.0583)" class="st0" cx="178.19" cy="445.79" rx="18.18" ry="26.06"/>
		<ellipse class="st6" cx="325.83" cy="409.94" rx="43.23" ry="47.89"/>
		<ellipse class="st6" cx="220.59" cy="412.19" rx="44.12" ry="45.64"/>
		<ellipse cx="229.78" cy="416.36" rx="10.94" ry="17.76"/>
		<ellipse cx="330.66" cy="412.19" rx="10.94" ry="17.76"/>
		<path class="st7" d="M266.5,437.96c0,0-24.43,1.16-11.44,22.43C255.05,460.39,250.77,446.53,266.5,437.96z"/>
		<path d="M309.71,502.31c0,0-37.91-17.32-77.64-0.66c0,0,9.69-33.97,37.86-33.97C300.94,467.68,309.71,502.31,309.71,502.31z"/>
		<g>
			<line class="st17" x1="178.77" y1="183.31" x2="197.96" y2="214.71"/>
			<path class="st17" d="M197.64,216.56c-0.51-0.09-0.99-0.39-1.28-0.87l-19.19-31.4c-0.54-0.88-0.26-2.04,0.62-2.58
				c0.88-0.54,2.04-0.26,2.58,0.62l19.19,31.4c0.54,0.88,0.26,2.04-0.62,2.58C198.54,216.56,198.07,216.64,197.64,216.56z"/>
		</g>
		<g>
			<line class="st17" x1="150.3" y1="205.6" x2="172.47" y2="219.56"/>
			<path class="st17" d="M172.15,221.41c-0.23-0.04-0.46-0.13-0.68-0.26l-22.17-13.96c-0.88-0.55-1.14-1.71-0.59-2.59
				c0.55-0.88,1.71-1.14,2.59-0.59l22.17,13.96c0.88,0.55,1.14,1.71,0.59,2.59C173.64,221.22,172.88,221.53,172.15,221.41z"/>
		</g>
		<g>
			<line class="st17" x1="141.62" y1="233.58" x2="172.88" y2="239.02"/>
			<path class="st17" d="M172.56,240.86l-31.26-5.43c-1.02-0.18-1.7-1.15-1.53-2.17c0.18-1.02,1.15-1.7,2.17-1.53l31.26,5.43
				c1.02,0.18,1.7,1.15,1.53,2.17C174.55,240.36,173.58,241.04,172.56,240.86z"/>
		</g>
		<g>
			<line class="st17" x1="387.89" y1="186.86" x2="368.7" y2="218.27"/>
			<path class="st17" d="M369.02,220.11c0.51-0.09,0.99-0.39,1.28-0.87l19.19-31.4c0.54-0.88,0.26-2.04-0.62-2.58
				c-0.88-0.54-2.04-0.26-2.58,0.62l-19.19,31.4c-0.54,0.88-0.26,2.04,0.62,2.58C368.13,220.11,368.59,220.19,369.02,220.11z"/>
		</g>
		<g>
			<line class="st17" x1="416.36" y1="209.15" x2="394.19" y2="223.11"/>
			<path class="st17" d="M394.51,224.96c0.23-0.04,0.46-0.13,0.68-0.26l22.17-13.96c0.88-0.55,1.14-1.71,0.59-2.59
				s-1.71-1.14-2.59-0.59l-22.17,13.96c-0.88,0.55-1.14,1.71-0.59,2.59C393.02,224.77,393.79,225.08,394.51,224.96z"/>
		</g>
		<g>
			<line class="st17" x1="425.04" y1="237.13" x2="393.78" y2="242.57"/>
			<path class="st17" d="M394.1,244.42l31.26-5.43c1.02-0.18,1.7-1.15,1.53-2.17s-1.15-1.7-2.17-1.53l-31.26,5.43
				c-1.02,0.18-1.7,1.15-1.53,2.17S393.08,244.59,394.1,244.42z"/>
		</g>
	</g>
	<g>
		<g>
			<path class="st4" d="M119.37,381.52c-0.22,0-0.45-0.03-0.68-0.08c-18.74-4.3-23.01-22.54-23.18-23.32
				c-0.36-1.64,0.67-3.26,2.3-3.62c1.63-0.36,3.25,0.66,3.62,2.29c0.15,0.65,3.69,15.3,18.62,18.73c1.63,0.37,2.65,2,2.28,3.64
				C122,380.57,120.75,381.52,119.37,381.52z"/>
		</g>
		<g>
			<path class="st4" d="M71.14,469.05c-0.58,0-1.17-0.17-1.69-0.52c-18.92-12.75-16.8-41.97-16.7-43.2c0.13-1.67,1.6-2.92,3.27-2.78
				c1.67,0.13,2.91,1.6,2.78,3.26l0,0c-0.02,0.27-1.92,26.93,14.04,37.69c1.39,0.94,1.76,2.82,0.82,4.21
				C73.07,468.58,72.11,469.05,71.14,469.05z"/>
		</g>
		<g>
			<path class="st4" d="M448.9,381.52c-1.38,0-2.63-0.95-2.95-2.36c-0.37-1.63,0.64-3.26,2.28-3.64
				c14.95-3.43,18.48-18.11,18.62-18.73c0.37-1.63,2-2.65,3.63-2.29c1.63,0.37,2.66,1.98,2.29,3.61
				c-0.17,0.77-4.44,19.01-23.18,23.32C449.35,381.5,449.12,381.52,448.9,381.52z"/>
		</g>
		<g>
			<path class="st4" d="M497.13,469.05c-0.98,0-1.93-0.47-2.52-1.34c-0.94-1.39-0.57-3.27,0.82-4.21
				c16.01-10.79,14.06-37.42,14.04-37.68c-0.13-1.67,1.11-3.13,2.78-3.27c1.67-0.13,3.13,1.11,3.27,2.78
				c0.1,1.24,2.22,30.45-16.7,43.2C498.3,468.89,497.71,469.05,497.13,469.05z"/>
		</g>
		<g>
			<path class="st4" d="M253.89,289.73c-1.21,0-2.35-0.72-2.82-1.91c-6-15.07-3.34-26.94-0.06-34.25
				c3.57-7.95,8.61-12.31,8.82-12.49c1.27-1.09,3.19-0.94,4.28,0.33c1.09,1.27,0.94,3.18-0.33,4.27c-0.07,0.06-4.36,3.84-7.34,10.62
				c-3.96,9.01-3.87,18.85,0.27,29.27c0.62,1.56-0.14,3.32-1.7,3.94C254.64,289.66,254.26,289.73,253.89,289.73z"/>
		</g>
		<g>
			<path class="st4" d="M242.07,352.17c-0.89,0-1.77-0.39-2.37-1.14c-10.56-13.17-9.93-25.49-9.9-26.01
				c0.1-1.67,1.54-2.94,3.21-2.84c1.67,0.1,2.94,1.53,2.84,3.2c0,0.08-0.12,2.72,0.87,6.68c0.92,3.68,3,9.3,7.71,15.17
				c1.05,1.31,0.84,3.22-0.47,4.26C243.4,351.95,242.73,352.17,242.07,352.17z"/>
		</g>
		<g>
			<path class="st4" d="M293.56,358.08c-2.1,0-4.18-0.24-6.24-0.72c-16.18-3.77-24.95-21.03-25.31-21.76
				c-0.75-1.5-0.14-3.32,1.36-4.07c1.5-0.75,3.32-0.14,4.07,1.36c0.1,0.2,7.92,15.47,21.29,18.57c7.35,1.7,15.22-0.59,23.39-6.8
				c1.33-1.01,3.24-0.76,4.25,0.58c1.01,1.33,0.76,3.24-0.58,4.25C308.27,355.2,300.82,358.08,293.56,358.08z"/>
		</g>
		<g>
			<path class="st4" d="M334.46,353.95c-0.63,0-1.26-0.19-1.8-0.6c-5.27-3.91-8.22-16.05-8.76-18.45c-0.37-1.63,0.66-3.26,2.3-3.62
				c1.64-0.37,3.26,0.66,3.62,2.29l0,0c1.14,5.04,3.89,13,6.45,14.9c1.35,1,1.63,2.9,0.63,4.24
				C336.3,353.53,335.39,353.95,334.46,353.95z"/>
		</g>
		<g>
			<path class="st4" d="M313.95,350.1c-0.42,0-0.85-0.09-1.26-0.28c-20.92-9.58-17.11-24.5-16.94-25.13
				c0.44-1.62,2.11-2.57,3.73-2.13c1.61,0.44,2.56,2.09,2.13,3.7c-0.12,0.5-2.39,10.71,13.6,18.04c1.52,0.7,2.19,2.5,1.49,4.02
				C316.2,349.45,315.1,350.1,313.95,350.1z"/>
		</g>
	</g>
	<path d="M178.28,346.52c0,0,28.53-59.14,61.18-0.2C239.46,346.32,215,311.12,178.28,346.52z"/>
	<path d="M354.41,346.61c0,0-28.53-59.14-61.18-0.2C293.23,346.41,317.69,311.21,354.41,346.61z"/>
</g>
</svg>
