<?xml version="1.0" encoding="utf-8"?>
<!-- Generator: Adobe Illustrator 24.0.1, SVG Export Plug-In . SVG Version: 6.00 Build 0)  -->
<svg version="1.1" id="Capa_1" xmlns="http://www.w3.org/2000/svg" xmlns:xlink="http://www.w3.org/1999/xlink" x="0px" y="0px"
	 viewBox="0 0 623.62 850.39" style="enable-background:new 0 0 623.62 850.39;" xml:space="preserve">
<style type="text/css">
	.st0{fill:#F9D6E4;}
	.st1{fill:#45A759;}
	.st2{fill:#15632D;}
	.st3{fill:#F08CA7;}
	.st4{fill:#B52955;}
	.st5{fill:#F6BFD3;}
	.st6{fill:#FFFFFF;}
	.st7{fill:#CD94A9;}
	.st8{fill:#E16874;}
	.st9{fill:#EEEEEE;}
	.st10{fill:#C9C7C7;}
	.st11{clip-path:url(#SVGID_2_);}
	.st12{clip-path:url(#SVGID_2_);fill:#F08CA7;}
	.st13{fill:#CBC9CA;}
	.st14{fill:#E1E0E0;}
	.st15{fill:#B693C3;}
	.st16{fill:#F8DF28;}
	.st17{fill:#65A2D8;}
	.st18{fill:#DEE275;}
	.st19{fill:#FFDB43;}
	.st20{fill:#E75C2A;}
	.st21{fill:#F49D4E;}
	.st22{opacity:0.5;}
	.st23{fill:#F3B0CF;}
	.st24{fill:#704F9A;}
	.st25{fill:#616160;}
	.st26{fill:#5AE4A7;}
	.st27{fill:#FF0000;}
	.st28{fill:#82CEE0;}
	.st29{fill:#9E6D0B;}
	.st30{fill:#828E0C;}
	.st31{fill:#FFFF00;}
	.st32{clip-path:url(#SVGID_4_);}
	.st33{clip-path:url(#SVGID_4_);fill:#F08CA7;}
	.st34{clip-path:url(#SVGID_6_);}
	.st35{clip-path:url(#SVGID_6_);fill:#F08CA7;}
	.st36{fill:none;stroke:#B52955;stroke-width:3;stroke-linecap:round;stroke-linejoin:round;stroke-miterlimit:10;}
</style>
<g>
	<ellipse class="st10" cx="311.81" cy="787.1" rx="208.03" ry="33.07"/>
	<path class="st0" d="M286.17,414.96l20.62,41.59c0,0,19.13,6.99,33.05-1.98l3.13-52.89L286.17,414.96z"/>
	<g>
		<g>
			<path class="st1" d="M182.29,74.25c6.78-11.18,10.02-24.41,9.24-37.02c-0.12-2.9-0.74-6.12-3.01-7.97
				c-3.53-2.73-9.47-0.31-11.93,3.74c-2.47,4.05-2.39,9-1.97,13.59C175.64,56.3,178.27,65.65,182.29,74.25z"/>
			<path class="st1" d="M207.8,92.74c3.91-12.41,3.82-25.73-0.14-37.58c-0.97-2.86-2.37-5.78-4.99-6.93
				c-4.15-1.76-9.43,2-10.88,6.51c-1.45,4.51-0.18,9.24,1.45,13.43C196.66,77.05,201.54,85.45,207.8,92.74z"/>
			<path class="st1" d="M227.92,102.87c5.85-11.22,8.14-23.98,6.4-35.77c-0.37-2.8-1.17-5.84-3.62-7.34
				c-3.63-2.3-9.4,0.46-11.61,4.58c-2.21,4.12-1.79,8.72-0.93,13.03C219.87,86.34,223.21,94.98,227.92,102.87z"/>
			<path class="st1" d="M180.62,72.46c-8.28-9.08-19.68-15.27-32.1-17.4c-2.89-0.54-6.3-0.72-8.81,1.03
				c-3.89,2.84-3.76,9.07-0.75,12.34c3.09,3.35,7.85,4.49,12.37,5.03C160.95,74.61,170.94,74.38,180.62,72.46z"/>
			<path class="st1" d="M201.21,84.95c-11.43-4.99-24.55-6.23-37.15-3.48c-3,0.74-6.26,1.76-7.93,4.32
				c-2.63,3.89-0.09,9.49,3.97,11.34c4.23,1.84,9.11,1.01,13.66-0.16C183.36,94.45,192.65,90.41,201.21,84.95z"/>
			<path class="st1" d="M227.62,100.66c-11.43-4.99-24.55-6.23-37.15-3.48c-3,0.74-6.26,1.76-7.93,4.32
				c-2.63,3.89-0.09,9.49,3.97,11.34c4.23,1.84,9.11,1.01,13.66-0.16C209.78,110.16,219.07,106.12,227.62,100.66z"/>
			<path class="st1" d="M258.34,127.86c3.39-12.04,2.95-24.83-1.37-35.82c-1.06-2.6-2.46-5.35-5.17-6.24
				c-4.24-1.33-9.27,2.67-10.55,7.01c-1.19,4.42,0.26,8.79,1.98,12.72C246.92,113.81,252.07,121.42,258.34,127.86z"/>
			<path class="st1" d="M255.29,122.63c-11.43-4.99-24.55-6.23-37.15-3.48c-3,0.74-6.26,1.76-7.93,4.32
				c-2.63,3.89-0.09,9.49,3.97,11.34c4.23,1.84,9.11,1.01,13.66-0.16C237.44,132.13,246.82,128,255.29,122.63z"/>
			<g>
				<path class="st2" d="M168.6,58.35c-0.33-0.5,0.45-0.96,0.69-0.38c19.3,26.4,52.34,34.6,76.79,55.02
					c11.76,9.85,21.96,21.31,30.94,33.69c9.4,12.78,18.96,26.41,25.94,40.85c0.99,1.83-1.69,3.41-2.85,1.76
					c-9.48-13.04-16.97-27.62-26.54-40.57c-9.82-13.36-20.84-26.15-34.05-36.18C216.21,94.81,183.79,85.12,168.6,58.35L168.6,58.35z
					"/>
			</g>
			<path class="st1" d="M174.96,65.04c-1.59-14.96-8.15-28.99-18.19-39.61c-2.43-2.53-5.45-4.94-8.95-4.86
				c-5.55,0.19-9.6,6.71-9.02,12.15s4.25,9.7,8.11,13.44C155.03,53.89,164.55,60.34,174.96,65.04z"/>
		</g>
		<g>
			<path class="st3" d="M396.76,399.6c0,0-0.02-0.04-0.06-0.1C395.97,399.24,396.76,399.6,396.76,399.6z"/>
			<path class="st3" d="M529.97,323.38c-3.11-5.11-7.17-9.59-11.87-13.24c5.96-29.51-14.57-63.67-45.87-66.3
				c-1.09-18.88-10.83-37.29-27.79-46.68c-6.45-3.57-13.65-5.34-21.01-5.32c-0.56,0-1.01,0.16-1.35,0.41
				c-1.38-1.21-1.9-2.43-1.9-2.43s-5.3-8.33-19.4-14.9c-14.09-6.57-28.49-0.66-33.05,1.07c-0.51,0.19-0.96,0.32-1.36,0.4
				c-10.92-29.52-49.25-40.89-76.57-28.03c-8.05,3.79-15.13,9.28-21.14,15.81c-23.34-7.23-49.07,2.81-60.58,24.67
				c-0.21,0.4-0.3,0.78-0.3,1.13c-1.33,0.48-2.34,0.55-2.34,0.55s0.47-2.09-17.65,4.7c-18.12,6.79-20.71,24.06-21.96,28.92
				c-0.1,0.39-0.22,0.75-0.36,1.08c-0.55-0.29-1.23-0.38-1.97-0.15c-25.33,7.96-39.8,35.15-32.74,60.56
				c-23.97,12.9-34.6,40.62-32.08,66.84c0,0-0.01,0.01-0.01,0.01c-13.97,16.93-16.51,40.77-5.42,59.86
				c9.84,16.94,28.79,27.02,48.17,27.38c13.5,0.25,26.78-4.05,37.54-12.21c0.45-0.34,0.72-0.74,0.87-1.16
				c0.74,0.1,1.2,0.25,1.2,0.25s10.78,2.08,19.46,2.4c8.68,0.32,20.11-1.12,27.83-7.29c7.72-6.17,10.25-1.94,10.25-1.94
				s10.62,5.6,18.85,9.91c8.24,4.32,19.83,2.34,26.2,0.43c6.37-1.91,21.66-9.76,25.53-16.86c3.87-7.1,6.33-2.3,6.33-2.3
				s6.87,5.68,21.97,10.02c15.1,4.34,28.22-1.24,35.07-3.96c6.85-2.72,15.69-10.09,19.07-15.47c3.03-4.83,4.77-2.57,5.1-2.05
				c0.68,0.24,2.64,0.99,7.68,3.01c10.56,4.23,23.4,3.55,34.02,1.21c10.63-2.34,19.71-6.95,22.44-10.16
				c0.74-0.87,1.47-1.45,2.22-1.79c0.05,0.82,0.46,1.63,1.39,2.11c20.57,10.71,46.33,5.67,61.24-12.08
				C539.45,365.45,541.05,341.59,529.97,323.38z"/>
		</g>
		<path class="st3" d="M132.41,263.17c0,0,1.5-14.27,11.59-22.48c10.09-8.21,16.23-11.32,16.23-11.32s4.41,0.03,5.66-4.84
			c1.25-4.86,3.84-22.13,21.96-28.92s17.65-4.7,17.65-4.7s5.28-0.37,7.64-5.18c2.36-4.81,12.14-16.35,25.94-19.04
			c13.8-2.69,27.01-0.3,27.01-0.3s2.63,3.18,9.13-3.99c6.5-7.17,16.78-14.8,34.05-15.67c17.27-0.87,28.3,1.7,36.61,8.55
			c8.32,6.85,15.67,15.25,15.67,15.25l1.36,4.33c0,0,0.32,3.26,4.88,1.52c4.56-1.74,18.96-7.64,33.05-1.07
			c14.09,6.57,19.4,14.9,19.4,14.9s1.63,3.87,6.91,4.66s25.6,5.54,33.39,21.11c7.79,15.57,8.61,22.4,8.61,22.4l0.61,4.79
			c0,0,0.29,2.21,4.96,3.9c4.66,1.68,20.76,3.4,30.7,19.14c9.94,15.74,11.88,25.11,11.47,31.86c-0.41,6.75-2.62,13.34,0.17,14.83
			c2.8,1.49,16.18,14.95,17.34,30.03c1.16,15.08-2.97,26.37-7.49,33.51c-4.52,7.14-10.75,14.45-23.26,18.25
			c-12.51,3.8-28.35,2.62-32.93-0.35c-4.58-2.97-7.09-3.56-9.82-0.36c-2.73,3.2-11.81,7.81-22.44,10.16
			c-10.63,2.34-23.47,3.02-34.02-1.21c-10.56-4.23-7.63-2.92-7.63-2.92s-1.78-3.42-5.16,1.96c-3.37,5.38-12.21,12.75-19.07,15.47
			c-6.85,2.72-19.96,8.3-35.07,3.96c-15.1-4.34-21.97-10.02-21.97-10.02s-2.46-4.8-6.33,2.3c-3.87,7.1-19.15,14.95-25.53,16.86
			c-6.37,1.91-17.96,3.89-26.2-0.43c-8.24-4.32-21.38-14.15-29.1-7.98c-7.72,6.17-19.15,7.62-27.83,7.29
			c-8.68-0.32-19.46-2.4-19.46-2.4s-4.76-1.54-8.16,2.04c-3.4,3.58-30.86,14.3-48.78,5.51c-17.92-8.8-29.22-18.5-33.34-33.87
			c-4.12-15.37-2.12-24.77,1.4-31.96c3.52-7.2,5.76-10.68,5.76-10.68s3.07-2.9,2.95-8.72c-0.12-5.81-0.08-28.4,9.74-40.59
			c9.82-12.19,16.67-17.69,16.67-17.69s6.68-1.4,5.62-6.79C131.9,278.88,132.44,266.8,132.41,263.17z"/>
		<g>
			<path class="st4" d="M398.8,370.18c3.04-2,6.51-2.43,10.07-2.1c3.75,0.35,7.92,1.31,10.88,3.74c6,4.92,7.22,13.36,7.74,20.62
				c0.18,2.47,4.06,2.53,3.88,0.04c-0.62-8.69-2.29-18.39-9.66-24.03c-3.53-2.71-8.14-3.77-12.49-4.23
				c-4.29-0.45-8.7,0.18-12.35,2.58C394.8,368.18,396.71,371.56,398.8,370.18L398.8,370.18z"/>
		</g>
		<g>
			<path class="st4" d="M210.92,412.13c-2-3.04-2.43-6.51-2.1-10.07c0.35-3.75,1.31-7.92,3.74-10.88c4.92-6,13.36-7.22,20.62-7.74
				c2.47-0.18,2.53-4.06,0.04-3.88c-8.69,0.62-18.39,2.29-24.03,9.66c-2.71,3.53-3.77,8.14-4.23,12.49
				c-0.45,4.29,0.18,8.7,2.58,12.35C208.92,416.14,212.3,414.23,210.92,412.13L210.92,412.13z"/>
		</g>
		<circle class="st0" cx="306.79" cy="322.02" r="104.21"/>
		<path class="st3" d="M350.2,232.17c-0.86-1.27-2.2-1.28-3.21-0.65c-1.62-2.91-3.13-5.76-3.06-6.52c0.13-1.64-0.98-4.93-0.98-4.93
			s-11.73,2.03-16.06,1.81c-4.32-0.22-20.34-2.99-23.02-4.41c-2.68-1.42-4.82-2.7-6.15,0.69c-1.32,3.39-3.12,6.56-11.72,13.19
			c-8.59,6.63-12,9.08-15.27,9.54c-3.27,0.46-11.23,0.18-11.23,0.18s-0.03,0-0.08,0c-1.01-2.28-5.09-1.53-4.84,1.41
			c1.24,14.4,9.57,30.82,25.06,33.4c8.99,1.5,22.14-0.99,23.38-11.92c0.02-0.17,0.03-0.35,0.05-0.52c1.4,0.19,2.8,0.32,4.2,0.35
			c6.14,0.16,12.91-1.25,17.37-5.77c1.12-1.13,1.99-2.43,2.62-3.83c5.05,2.69,11.02,4.14,16.63,2.46c6.5-1.95,10.31-8.01,9.92-14.67
			C353.58,238.43,352.17,235.1,350.2,232.17z"/>
		<path class="st3" d="M218.67,271.14c0,0,29.12,14.51,56.88-22.01c0,0,27.72-36.09-11.29-32.12
			C225.25,220.98,214.77,254.66,218.67,271.14z"/>
		<path class="st3" d="M337.75,241.11c0,0,9.48,33.49,53.81,28.63c0,0,23.75-35.07-3.28-53.57
			C361.25,197.68,334.84,215.37,337.75,241.11z"/>
		<path class="st3" d="M313.53,194.46L286,231.36c0,0-6.38,12.87-31.43,11.13c0,0-7.82,12.49-30.39,24.13
			c0,0,19.97,43.64-32.8,53.03C191.37,319.65,156.96,200.61,313.53,194.46z"/>
		<path class="st3" d="M391.55,269.74c0,0-13.34,46.47,9.79,51.7c23.13,5.23,63.45-8.18,36.28-43.17S391.55,269.74,391.55,269.74z"
			/>
		<path class="st3" d="M342.05,202.91c0,0-13.03,43.61,34.68,48.3c0,0-7.23,60.36,67.87,38.8
			C444.6,290.01,437.35,167.82,342.05,202.91z"/>
		<g>
			<path class="st4" d="M296.24,214.56c-3.43,7.82-9.4,14.38-16.71,18.77c-8.5,5.1-18.49,6.27-28.1,4.21
				c-3.21-0.69-3.98,4.34-0.79,5.02c10.75,2.3,21.76,0.75,31.28-4.77c8.31-4.82,15.12-12.38,18.98-21.17
				C302.2,213.61,297.55,211.56,296.24,214.56L296.24,214.56z"/>
		</g>
		<g>
			<path class="st4" d="M280.64,187.69c0.39,5.24,2.32,10.65,4.77,15.24c5.57,10.41,15.12,17.37,26.61,19.99
				c10,2.28,20.55,1.34,30.49-0.73c3.17-0.66,2.64-5.72-0.57-5.05c-14.08,2.94-30.58,3.77-42.67-5.41
				c-6.52-4.96-10.67-12.07-12.74-19.9c-0.18-0.69,0.12,0.53-0.04-0.14c-0.05-0.19-0.09-0.38-0.13-0.57
				c-0.08-0.35-0.15-0.69-0.22-1.04c-0.1-0.51-0.19-1.03-0.27-1.55c-0.07-0.47-0.14-0.94-0.17-1.42
				C285.44,183.86,280.39,184.44,280.64,187.69L280.64,187.69z"/>
		</g>
		<g>
			<path class="st4" d="M434.75,289.51c-13.43,8.41-31.1,7.4-43.34-2.7c-11.34-9.37-15.93-25.34-10.95-39.25
				c2.94-8.19,8.65-14.87,16.08-19.35c2.8-1.69-0.26-5.75-3.04-4.07c-15.13,9.13-23.15,27.3-19.01,44.6
				c3.79,15.83,16.97,28.06,32.97,30.94c10.52,1.9,21.32-0.44,30.33-6.09C440.57,291.84,437.51,287.78,434.75,289.51L434.75,289.51z
				"/>
		</g>
		<g>
			<path class="st4" d="M417.37,299.56c-0.84-0.85,0.21,0.24,0.48,0.54c0.77,0.86,1.5,1.75,2.21,2.66c2.36,3.02,4.48,6.25,6.24,9.66
				c5.16,10,7.39,21.29,4.66,32.36c-2.12,8.61-7.15,16.12-13.12,22.55c-2.23,2.4,1.76,5.55,3.97,3.17
				c10.45-11.26,16.98-25.69,15.11-41.26c-1.24-10.26-5.72-20.03-11.85-28.28c-1.39-1.88-2.88-3.69-4.52-5.36
				C418.24,293.26,415.09,297.26,417.37,299.56L417.37,299.56z"/>
		</g>
		<g>
			<path class="st4" d="M376.73,251.21c-11.07-2.29-21-9.13-26.55-19.07c-5.46-9.77-6.2-21.78-2.01-32.14
				c8.63-21.31,34.64-30.78,55.19-20.83c11.08,5.36,19.04,15.79,21.11,27.94c0.55,3.21,5.6,2.66,5.05-0.57
				c-2.08-12.23-9.19-23.01-19.74-29.59c-10.81-6.75-23.98-8.54-36.27-5.27c-25.06,6.66-40.12,34.61-29.75,58.88
				c5.72,13.39,18.03,22.75,32.17,25.67C379.15,256.89,379.93,251.87,376.73,251.21L376.73,251.21z"/>
		</g>
		<g>
			<path class="st4" d="M373.02,206.7c10.07-11.02,26.05-14.25,39.55-7.88c13.06,6.16,21.26,19.71,22.08,33.94
				c0.52,9.1-2.15,18.19-7.54,25.53c-1.93,2.63,2.03,5.81,3.97,3.17c10.77-14.65,11.38-34.64,2.18-50.22
				c-7.78-13.2-22.56-21.8-38-20.73c-10.16,0.7-19.39,5.56-26.21,13.02C366.83,205.95,370.82,209.11,373.02,206.7L373.02,206.7z"/>
		</g>
		<path class="st3" d="M431.59,282.78c0,0,23.33,4.07,25.94,38.28c2.61,34.2-8.66,45.14-11.68,55.26
			c-3.03,10.12,17.98,18.71,29.62,3.65c11.64-15.06,20.4-45.62,10.87-71.68c-9.53-26.06-18.75-32.33-34.81-40.4
			C435.47,259.82,417.61,271.42,431.59,282.78z"/>
		<g>
			<path class="st4" d="M406.33,265.08c17.71-4.32,36.34-0.98,51.34,9.44c14.36,9.97,24.62,25.37,28.59,42.39
				c4.11,17.59,1.88,36.33-6.74,52.25c-8.13,15.01-21.9,26.67-38.3,31.61c-21.62,6.51-34.56,6.47-51-8.6
				c-2.42-2.21-5.57,1.77-3.17,3.97c15.85,14.52,27.55,15.14,48.84,11.11c17.95-3.4,33.85-14.14,44.12-29.21
				c21.96-32.22,15.94-78.27-13.92-103.48c-16.64-14.05-39.1-19.71-60.33-14.53C402.63,260.8,403.16,265.86,406.33,265.08
				L406.33,265.08z"/>
		</g>
		<path class="st3" d="M129.73,350.17c0,0,5.3-34.25,22.43-47.03c17.12-12.78,25-16.17,32.53-17.47c7.52-1.3,14.34-0.35,13.37,3.84
			c-0.97,4.18-24.68,12.74-27.68,28.58c-3,15.85-9.54,42.83,2.86,61.37c12.39,18.54,22.23,37.79,15.3,40.01
			c-6.94,2.22-43.68-5.99-52.34-32.26C127.54,360.95,128.73,358.18,129.73,350.17z"/>
		<g>
			<g>
				<path class="st4" d="M174.1,321.54c16.99,5.91,36.3,0.78,47.47-13.51c10.45-13.37,11.47-32.11,2.6-46.57
					c-5.08-8.27-13.2-14.47-22.39-17.49c-3.09-1.02-5.16,3.63-2.06,4.65c14.86,4.89,25.31,18.32,25.48,34.12
					c0.15,14.09-8.67,27.27-21.45,32.99c-8.69,3.89-18.61,4.3-27.6,1.17C173.08,315.82,171.01,320.46,174.1,321.54L174.1,321.54z"/>
			</g>
			<g>
				<path class="st4" d="M191.37,319.65c-9.49,15.32-12.09,36.52-3.6,52.75c4.42,8.46,11.22,15.22,19.07,20.55
					c2.69,1.83,5.88-2.13,3.17-3.97c-11.9-8.1-20.85-19.62-22.12-34.3c-0.8-9.24,1.31-18.62,5.06-27.04
					c0.57-1.29,1.19-2.56,1.85-3.8c0.22-0.42,1.17-2.02,0.56-1.03C197.05,320.07,193.1,316.87,191.37,319.65L191.37,319.65z"/>
			</g>
			<g>
				<path class="st4" d="M226.07,271.34c11.59-5.3,20.77-15.15,24.47-27.44c3.66-12.18,1.61-25.51-5.49-36.06
					c-14.56-21.6-46.15-25.72-66.2-9.37c-10.9,8.89-16.89,22.34-16.09,36.38c0.18,3.27,5.23,2.69,5.05-0.57
					c-1.3-23.11,18.92-41.91,41.69-40.85c22.78,1.05,41.2,21.58,37.25,44.58c-2.18,12.68-10.96,23.31-22.57,28.62
					C221.22,267.97,223.08,272.7,226.07,271.34L226.07,271.34z"/>
			</g>
			<g>
				<path class="st4" d="M221.04,218.43c-14.12-9.77-32.92-9.64-46.52,1.04c-12.81,10.06-18.75,27.15-15.89,43.07
					c1.83,10.2,7.01,19.42,14.86,26.19c2.48,2.14,5.64-1.84,3.17-3.97c-11.94-10.31-16.55-27.42-11.84-42.44
					c4-12.77,14.58-23.38,28.01-25.64c8.81-1.48,17.73,0.65,25.05,5.72C220.55,224.26,223.74,220.3,221.04,218.43L221.04,218.43z"/>
			</g>
			<g>
				<path class="st4" d="M197.85,281.69c-17.83-0.25-35.07,6.65-47.9,19c-12.28,11.81-20.1,27.84-22.29,44.71
					c-4.47,34.47,14.77,70.6,48.14,82.56c20.64,7.4,43.59,4.16,61.56-8.37c2.68-1.87-0.36-5.95-3.04-4.07
					c-15.15,10.56-34.24,14.01-52.08,9.18c-15.01-4.06-28.08-13.89-36.96-26.55c-18.8-26.82-17.4-65.04,4.31-89.79
					c12.35-14.08,30.12-21.9,48.82-21.63C201.68,286.79,201.08,281.74,197.85,281.69L197.85,281.69z"/>
			</g>
		</g>
		<path class="st4" d="M207.93,327.72c0,0-6.52-45.49,38.6-50.58c23.99-2.71,39.64,30.65,39.64,30.65s-15.36-34.2-45.86-24.63
			C208.4,293.17,207.93,327.72,207.93,327.72z"/>
		<path class="st4" d="M381.37,313.81c0,0-4.77-51.02-40.72-46.96c-38.07,4.3-35.83,38.83-35.83,38.83s4.26-34.62,39.21-34.23
			C377.48,271.82,381.37,313.81,381.37,313.81z"/>
		<g>
			<g>
				<path class="st5" d="M175.24,231.7c-9.97,11.05-10.65,27.99-2.25,40.13c1.86,2.69,5.94-0.35,4.07-3.04
					c-7.17-10.36-6.28-24.58,2.15-33.92C181.41,232.43,177.43,229.28,175.24,231.7L175.24,231.7z"/>
			</g>
			<g>
				<path class="st5" d="M195.08,222.38c-4.2,0.12-8.4,1.24-12.09,3.25c-0.61,0.33-1.09,0.68-1.38,1.33
					c-0.26,0.58-0.3,1.39-0.04,1.97c0.51,1.13,2.06,2.09,3.31,1.41c1.7-0.93,3.49-1.67,5.35-2.19c0.1-0.03,0.2-0.06,0.31-0.08
					c-0.32,0.08-0.33,0.08-0.04,0.01c0.21-0.05,0.42-0.1,0.63-0.14c0.49-0.1,0.98-0.19,1.48-0.26c1.01-0.15,2.02-0.23,3.04-0.26
					c1.33-0.04,2.44-1.53,2.24-2.81C197.66,223.16,196.51,222.34,195.08,222.38L195.08,222.38z"/>
			</g>
			<g>
				<path class="st5" d="M286.58,269.89c1.64-0.06,3.26-0.24,4.88-0.52c0.67-0.11,1.27-0.4,1.7-0.94c0.39-0.49,0.64-1.24,0.54-1.87
					c-0.1-0.65-0.39-1.3-0.94-1.7c-0.53-0.38-1.2-0.65-1.87-0.54c-1.61,0.28-3.24,0.46-4.88,0.52c-0.62,0.02-1.33,0.47-1.7,0.94
					c-0.39,0.49-0.64,1.24-0.54,1.87c0.1,0.65,0.39,1.3,0.94,1.7C285.28,269.76,285.88,269.91,286.58,269.89L286.58,269.89z"/>
			</g>
			<g>
				<path class="st5" d="M262.19,250.04c0.67,5.8,3.97,11.7,8.54,15.27c2.39,1.87,5.13,3.09,8.05,3.86
					c1.33,0.35,2.71-0.86,2.91-2.11c0.23-1.47-0.78-2.56-2.11-2.91c-0.17-0.04-0.34-0.09-0.51-0.14c0.05,0.02,0.29,0.09,0.01,0
					c-0.28-0.09-0.56-0.18-0.83-0.29c-0.53-0.2-1.05-0.42-1.56-0.66c-0.49-0.23-0.97-0.49-1.43-0.76c0.4,0.24-0.18-0.12-0.3-0.2
					c-0.24-0.16-0.48-0.33-0.71-0.5c-0.4-0.3-0.78-0.61-1.15-0.94c-0.16-0.14-0.31-0.28-0.46-0.42c-0.1-0.09-0.2-0.19-0.29-0.28
					c-0.27-0.26,0.28,0.3,0.03,0.03c-0.64-0.69-1.24-1.41-1.78-2.18c-0.23-0.33-0.45-0.66-0.66-1c-0.11-0.18-0.21-0.36-0.32-0.54
					c-0.07-0.12-0.21-0.43,0.06,0.12c-0.05-0.1-0.11-0.2-0.16-0.3c-0.35-0.68-0.68-1.36-0.96-2.06c-0.26-0.63-0.49-1.28-0.7-1.93
					c-0.09-0.27-0.17-0.54-0.24-0.82c-0.03-0.11-0.05-0.22-0.09-0.32c-0.02-0.05,0.16,0.68,0.04,0.16
					c-0.12-0.55-0.25-1.09-0.31-1.65c-0.16-1.36-1.44-2.39-2.81-2.24C263.06,247.38,262.03,248.67,262.19,250.04L262.19,250.04z"/>
			</g>
			<g>
				<path class="st5" d="M305.66,258.91c2.29,0.21,4.68,0.1,6.94-0.3c0.67-0.12,1.27-0.4,1.7-0.94c0.39-0.49,0.64-1.24,0.54-1.87
					c-0.1-0.65-0.39-1.3-0.94-1.7c-0.53-0.38-1.21-0.65-1.87-0.54c-1.67,0.29-3.37,0.4-5.07,0.37c0.23,0,0.45,0.01,0.68,0.01
					c-0.4-0.01-0.8-0.02-1.2-0.06c-0.68-0.06-1.35,0.05-1.92,0.47c-0.49,0.37-0.92,1.02-0.99,1.64c-0.07,0.66,0.04,1.39,0.47,1.92
					C304.43,258.42,305.01,258.85,305.66,258.91L305.66,258.91z"/>
			</g>
			<g>
				<path class="st5" d="M238.59,171c-5.89,1.48-11.43,4.31-16.09,8.2c-1.05,0.88-1.37,2.42-0.52,3.56c0.79,1.06,2.5,1.4,3.56,0.52
					c4.43-3.68,9.29-6.13,14.94-7.55c1.29-0.33,1.93-2.17,1.41-3.31C241.27,171.02,239.98,170.65,238.59,171L238.59,171z"/>
			</g>
			<g>
				<path class="st5" d="M254.85,170.41c-2.41-0.27-4.84-0.37-7.26-0.32c-0.62,0.01-1.33,0.48-1.7,0.94
					c-0.39,0.49-0.64,1.24-0.54,1.87c0.1,0.65,0.39,1.3,0.94,1.7c0.57,0.42,1.16,0.55,1.87,0.54c0.72-0.01,1.44-0.02,2.16,0
					c-0.23,0-0.45-0.01-0.68-0.01c1.48,0.03,2.95,0.13,4.42,0.3c0.67,0.08,1.37-0.06,1.92-0.47c0.49-0.37,0.92-1.02,0.99-1.64
					C257.11,172,256.26,170.57,254.85,170.41L254.85,170.41z"/>
			</g>
			<g>
				<path class="st5" d="M295.37,201.05c4.03,5.78,9.84,10.09,16.48,12.39c1.25,0.44,2.82,0.05,3.35-1.3
					c0.47-1.19,0.04-2.89-1.3-3.35c-1.74-0.6-3.43-1.33-5.05-2.21c-0.17-0.09-0.33-0.18-0.5-0.28c-0.07-0.04-0.64-0.37-0.4-0.23
					c0.27,0.16-0.24-0.15-0.29-0.18c-0.19-0.12-0.37-0.24-0.55-0.36c-0.68-0.45-1.34-0.93-1.99-1.44c-0.59-0.47-1.16-0.95-1.72-1.46
					c-0.27-0.25-0.53-0.5-0.79-0.76c-0.17-0.17-0.4-0.41-0.1-0.09c-0.13-0.14-0.27-0.28-0.4-0.43c-0.97-1.05-1.86-2.18-2.68-3.35
					c-0.76-1.09-2.52-1.37-3.56-0.52C294.8,198.38,294.56,199.88,295.37,201.05L295.37,201.05z"/>
			</g>
			<g>
				<path class="st5" d="M289.97,189.29c0.52,1.96,1.19,3.87,2.02,5.72c0.27,0.6,0.72,1.11,1.33,1.38c0.58,0.26,1.39,0.3,1.97,0.03
					c0.59-0.27,1.14-0.71,1.38-1.33c0.24-0.62,0.32-1.35,0.03-1.97c-0.83-1.85-1.5-3.77-2.02-5.72c-0.15-0.57-0.82-1.15-1.33-1.38
					c-0.58-0.26-1.39-0.3-1.97-0.03c-0.59,0.27-1.14,0.71-1.38,1.33c-0.06,0.21-0.12,0.42-0.19,0.63
					C289.75,188.41,289.8,188.86,289.97,189.29L289.97,189.29z"/>
			</g>
			<g>
				<g>
					<path class="st5" d="M142.08,275.3c-1.07-6.33,0.09-12.86,3.53-18.26c0.74-1.16,0.75-2.65-0.4-3.57
						c-0.99-0.79-2.83-0.76-3.57,0.4c-4.17,6.55-5.9,14.3-4.6,21.99c0.23,1.35,1.39,2.4,2.81,2.24
						C141.15,277.96,142.31,276.66,142.08,275.3L142.08,275.3z"/>
				</g>
				<g>
					<path class="st5" d="M146.87,286.22c-0.78-1.03-1.48-2.1-2.11-3.23c0.11,0.19,0.22,0.38,0.32,0.57
						c-0.42-0.76-0.81-1.53-1.17-2.33c-0.27-0.6-0.72-1.11-1.33-1.38c-0.58-0.26-1.39-0.3-1.97-0.03c-0.59,0.27-1.14,0.71-1.38,1.33
						c-0.24,0.62-0.32,1.35-0.04,1.97c0.97,2.16,2.17,4.24,3.6,6.13c0.39,0.51,1.01,0.89,1.64,0.99c0.62,0.1,1.42-0.07,1.92-0.47
						C147.42,288.91,147.73,287.36,146.87,286.22L146.87,286.22z"/>
				</g>
			</g>
			<g>
				<g>
					<path class="st5" d="M113.45,359.18c-0.49-2.33-0.79-4.7-0.91-7.08c-0.07-1.33-1.51-2.45-2.81-2.24
						c-1.43,0.23-2.31,1.39-2.24,2.81c0.12,2.38,0.43,4.74,0.91,7.08c0.14,0.68,0.38,1.26,0.94,1.7c0.49,0.39,1.24,0.64,1.87,0.54
						c0.65-0.1,1.3-0.39,1.7-0.94C113.29,360.54,113.59,359.84,113.45,359.18L113.45,359.18z"/>
				</g>
				<g>
					<path class="st5" d="M119.42,375.24c-0.23-0.38-0.46-0.76-0.68-1.14c-0.14-0.25-0.13-0.22,0.04,0.08
						c-0.06-0.11-0.12-0.22-0.18-0.33c-0.09-0.17-0.18-0.34-0.27-0.51c-0.43-0.82-0.84-1.66-1.21-2.51
						c-0.75-1.71-1.38-3.47-1.9-5.26c-0.37-1.28-2.14-1.94-3.31-1.41c-1.36,0.61-1.81,1.93-1.41,3.31
						c1.11,3.82,2.76,7.44,4.85,10.82c0.7,1.13,2.56,1.33,3.56,0.52C120.05,377.86,120.17,376.45,119.42,375.24L119.42,375.24z"/>
				</g>
			</g>
			<g>
				<g>
					<path class="st5" d="M136.91,349.7c-2.39,25.84,10.5,51.58,34.07,63.2c2.94,1.45,4.98-3.21,2.06-4.65
						c-21.44-10.57-33.28-34.26-31.1-57.76C142.23,347.25,137.21,346.44,136.91,349.7L136.91,349.7z"/>
				</g>
				<g>
					<path class="st5" d="M141.61,331.39c-1.19,2.8-2.15,5.68-2.93,8.62c-0.16,0.6,0.12,1.44,0.47,1.92
						c0.37,0.49,1.02,0.92,1.64,0.99c0.66,0.07,1.39-0.04,1.92-0.47c0.54-0.44,0.81-0.97,0.99-1.64c0.14-0.51,0.28-1.02,0.43-1.53
						c-0.06,0.21-0.12,0.42-0.19,0.63c0.65-2.19,1.42-4.35,2.32-6.46c0.52-1.22,0-2.85-1.3-3.35
						C143.7,329.6,142.17,330.09,141.61,331.39L141.61,331.39z"/>
				</g>
			</g>
			<g>
				<g>
					<path class="st5" d="M522.13,352.86c-1.41,15.03-13.03,27.2-28.07,29.01c-3.25,0.39-2.68,5.44,0.57,5.05
						c17.17-2.06,30.9-16.01,32.52-33.26C527.46,350.4,522.44,349.6,522.13,352.86L522.13,352.86z"/>
				</g>
				<g>
					<path class="st5" d="M520.38,339.48c0.39,1.08,0.72,2.18,1,3.29c-0.06-0.22-0.11-0.44-0.17-0.66c0.37,1.49,0.64,2.99,0.81,4.51
						c0.15,1.32,1.45,2.46,2.81,2.24c1.36-0.22,2.4-1.4,2.24-2.81c-0.33-2.88-1-5.74-1.98-8.47c-0.45-1.25-2.09-1.96-3.31-1.41
						C520.5,336.76,519.91,338.14,520.38,339.48L520.38,339.48z"/>
				</g>
			</g>
			<g>
				<path class="st5" d="M470.91,310.71c11.17,26.46,1.63,59.68-25.17,72.39c-2.94,1.39-1.07,6.12,1.89,4.72
					c29.27-13.87,40.29-49.86,27.99-79C474.35,305.81,469.63,307.68,470.91,310.71L470.91,310.71z"/>
			</g>
			<g>
				<path class="st5" d="M454.14,288.96c1.85,1.44,3.61,2.99,5.27,4.65c0.09,0.09,0.19,0.19,0.28,0.28
					c0.04,0.04,0.36,0.34,0.12,0.12c-0.26-0.24,0.14,0.15,0.19,0.2c0.09,0.1,0.18,0.19,0.27,0.29c0.41,0.44,0.81,0.88,1.21,1.33
					c0.79,0.91,1.56,1.84,2.3,2.79c0.81,1.05,2.48,1.4,3.56,0.52c1.05-0.86,1.39-2.43,0.52-3.56c-3.06-3.95-6.61-7.53-10.55-10.6
					c-1.05-0.82-2.76-0.71-3.57,0.4C452.93,286.49,453.02,288.08,454.14,288.96L454.14,288.96z"/>
			</g>
			<g>
				<path class="st5" d="M417.71,212.45c9.64,9.67,11.71,24.93,5.43,36.94c-1.52,2.91,3.14,4.94,4.65,2.06
					c7.42-14.19,4.29-31.74-6.91-42.97C418.57,206.16,415.42,210.16,417.71,212.45L417.71,212.45z"/>
			</g>
			<g>
				<path class="st5" d="M402.33,204.49c0.83,0.13,1.64,0.29,2.46,0.49c0.34,0.08,0.71,0.24,1.06,0.28
					c-0.38-0.11-0.44-0.13-0.18-0.05c0.1,0.03,0.2,0.06,0.3,0.09c0.2,0.06,0.4,0.13,0.59,0.2c1.53,0.52,3.02,1.17,4.45,1.93
					c1.18,0.62,2.88-0.08,3.35-1.3c0.53-1.36-0.04-2.69-1.3-3.35c-3.09-1.64-6.48-2.77-9.93-3.32c-1.31-0.21-2.75,0.75-2.91,2.11
					C400.06,202.95,400.92,204.27,402.33,204.49L402.33,204.49z"/>
			</g>
		</g>
		
			<ellipse transform="matrix(0.226 -0.9741 0.9741 0.226 -18.8024 659.6312)" class="st0" cx="405.67" cy="341.65" rx="26.75" ry="17.96"/>
		
			<ellipse transform="matrix(0.8992 -0.4375 0.4375 0.8992 -135.2992 129.2895)" class="st0" cx="212.99" cy="358.33" rx="16.77" ry="24.03"/>
		
			<ellipse transform="matrix(0.9937 -0.1122 0.1122 0.9937 -32.8934 40.4545)" class="st6" cx="342.97" cy="312.47" rx="38.01" ry="42.1"/>
		
			<ellipse transform="matrix(0.9937 -0.1122 0.1122 0.9937 -34.6891 29.9083)" class="st6" cx="248.38" cy="323.15" rx="40.7" ry="42.1"/>
		<ellipse transform="matrix(0.9937 -0.1122 0.1122 0.9937 -34.1186 28.5221)" cx="236.35" cy="317.39" rx="28.22" ry="35.4"/>
		<ellipse transform="matrix(0.9937 -0.1122 0.1122 0.9937 -32.4959 39.4282)" cx="334.05" cy="308.42" rx="28.83" ry="35.4"/>
		<path class="st7" d="M293.11,342.02c0,0-22.27,3.59-8.17,21.75C284.95,363.76,279.59,351.5,293.11,342.02z"/>
		
			<ellipse transform="matrix(0.9937 -0.1122 0.1122 0.9937 -36.8831 43.6005)" class="st8" cx="368.93" cy="349.49" rx="24.74" ry="7.51"/>
		
			<ellipse transform="matrix(0.9937 -0.1122 0.1122 0.9937 -39.3003 29.4044)" class="st8" cx="241.59" cy="363.87" rx="24.81" ry="8.71"/>
		<path class="st7" d="M275.6,383.69c0,0,8.34-24.6,33.82-7.33C309.42,376.36,285.12,369.17,275.6,383.69z"/>
		<g>
			<g>
				<path class="st4" d="M152.43,305.52c-0.21,0.02-0.42,0.02-0.63,0c-17.62-2-23.42-18.28-23.66-18.97
					c-0.5-1.46,0.27-3.05,1.73-3.56c1.46-0.5,3.05,0.27,3.55,1.73c0.2,0.58,4.96,13.64,19.01,15.24c1.54,0.17,2.64,1.56,2.46,3.1
					C154.74,304.37,153.69,305.37,152.43,305.52z"/>
			</g>
			<g>
				<path class="st4" d="M117.28,390.73c-0.53,0.06-1.09-0.03-1.6-0.3c-18.66-9.73-19.74-36.72-19.77-37.87
					c-0.05-1.54,1.16-2.84,2.71-2.89c1.54-0.05,2.84,1.16,2.89,2.7l0,0c0.01,0.25,1.03,24.88,16.77,33.09
					c1.37,0.71,1.9,2.4,1.19,3.77C119,390.1,118.17,390.63,117.28,390.73z"/>
			</g>
			<g>
				<path class="st4" d="M454.45,271.41c-1.27,0.14-2.51-0.6-2.95-1.85c-0.51-1.46,0.25-3.06,1.71-3.57
					c13.35-4.69,15.06-18.51,15.13-19.09c0.17-1.53,1.55-2.64,3.09-2.47c1.53,0.17,2.64,1.54,2.48,3.08
					c-0.08,0.73-2.1,17.88-18.84,23.77C454.86,271.34,454.65,271.39,454.45,271.41z"/>
			</g>
			<g>
				<path class="st4" d="M507.71,346.65c-0.89,0.1-1.82-0.23-2.45-0.97c-1-1.18-0.86-2.94,0.32-3.94
					c13.56-11.54,9.02-35.75,8.97-35.99c-0.3-1.52,0.69-2.99,2.21-3.28c1.52-0.3,2.99,0.69,3.28,2.21
					c0.22,1.12,5.19,27.68-10.83,41.32C508.77,346.37,508.25,346.59,507.71,346.65z"/>
			</g>
			<g>
				<path class="st4" d="M266.22,207.46c-1.11,0.12-2.23-0.42-2.78-1.46c-7.06-13.19-5.85-24.35-3.6-31.38
					c2.45-7.65,6.61-12.17,6.79-12.36c1.05-1.13,2.82-1.19,3.95-0.14c1.13,1.05,1.19,2.82,0.14,3.95c-0.06,0.06-3.6,3.97-5.63,10.49
					c-2.7,8.66-1.6,17.68,3.28,26.8c0.73,1.36,0.21,3.06-1.15,3.79C266.9,207.32,266.56,207.42,266.22,207.46z"/>
			</g>
			<g>
				<path class="st4" d="M261.84,265.92c-0.81,0.09-1.66-0.17-2.29-0.8c-11.04-10.98-11.74-22.33-11.77-22.81
					c-0.08-1.54,1.11-2.86,2.65-2.94c1.54-0.08,2.85,1.1,2.94,2.64c0,0.07,0.18,2.5,1.49,6.03c1.22,3.28,3.71,8.21,8.63,13.11
					c1.1,1.09,1.1,2.86,0.01,3.96C263.04,265.58,262.45,265.85,261.84,265.92z"/>
			</g>
			<g>
				<path class="st4" d="M309.65,266c-1.92,0.22-3.85,0.21-5.8-0.01c-15.22-1.78-25.04-16.69-25.45-17.33
					c-0.84-1.3-0.47-3.03,0.83-3.87c1.3-0.84,3.03-0.47,3.87,0.82c0.12,0.18,8.86,13.36,21.44,14.82c6.91,0.8,13.89-2.11,20.73-8.65
					c1.12-1.07,2.89-1.03,3.96,0.09c1.07,1.12,1.03,2.89-0.09,3.96C322.84,261.84,316.31,265.25,309.65,266z"/>
			</g>
			<g>
				<path class="st4" d="M346.71,257.99c-0.58,0.06-1.18-0.05-1.71-0.36c-5.24-3.04-9.2-13.86-9.94-16
					c-0.51-1.46,0.27-3.05,1.73-3.56c1.46-0.5,3.05,0.27,3.56,1.73l0,0c1.56,4.51,4.91,11.52,7.46,12.99
					c1.34,0.77,1.79,2.49,1.02,3.82C348.36,257.41,347.56,257.89,346.71,257.99z"/>
			</g>
			<g>
				<path class="st4" d="M327.51,256.59c-0.39,0.04-0.79,0.01-1.18-0.12c-20.17-6.62-18.22-20.68-18.12-21.28
					c0.24-1.53,1.67-2.57,3.2-2.33c1.52,0.24,2.56,1.65,2.34,3.17c-0.06,0.47-1.08,10.07,14.34,15.13c1.47,0.48,2.27,2.06,1.79,3.53
					C329.51,255.75,328.57,256.47,327.51,256.59z"/>
			</g>
		</g>
		<path d="M194.76,268.19c0,0,19.05-46.44,55.86-4.4C250.62,263.78,224.1,239.02,194.76,268.19z"/>
		<path d="M291.68,274.6c0,0,45.6,20.99,43.87-34.87C335.54,239.73,333.03,275.92,291.68,274.6z"/>
	</g>
	<g>
		<g>
			<g>
				<path class="st0" d="M249.96,678.88c0,0-50.4-22.09-65.14-22.57c-12.59-0.41-34.21,5.24-40.42,18.6
					c-6.21,13.36-4.3,31.52,0.05,38.35c4.35,6.84,49.72,28.65,71.48,37.04s90.42,27.03,90.42,27.03l96.32-6.21
					c0,0,28.39-24.45,32.74-29.42c4.35-4.97,33.41-32.24,36.52-36.59c3.11-4.35,11.54-31.38,2.22-41.94
					c-9.32-10.56-15.45-17.23-28.81-16.3c-13.36,0.93-22.54,2.55-39.39,14.86c-12.96,9.47-18.22,13.09-31.36,16.09
					c-13.15,3-38.96,10.66-59.9,8.95C293.74,685.07,249.96,678.88,249.96,678.88z"/>
			</g>
			<g>
				<path class="st0" d="M219.72,751.05c-3.79-0.01-8.54,2.93-10.95,5.85c-2.42,2.92-3.9,6.48-5.32,9.99
					c-1.11,2.75-2.21,5.85-1.1,8.61c1.05,2.6,3.86,4.14,6.64,4.51c2.78,0.37,5.59-0.21,8.36-0.67c28.91-4.87,58.79,2.25,87.78-2.13
					L219.72,751.05z"/>
			</g>
			<g>
				<path class="st0" d="M431.2,756.38c-4.58-6.29-13.41-7.6-21.18-7.18c-6.13,0.33-12.23,1.41-18.1,3.2
					c-3.07,0.94-6.26,2.08-9.42,1.5c-2.76-0.51-5.13-2.29-7.82-3.08c-4.91-1.43-10.06,0.58-15.09,1.45
					c-12.88,2.22-25.73-3.11-37.72-8.32l-14.29,27.78c13.69,6.06,25.8,8.8,40.19,12.31c12.76,3.11,26.11,2.03,39.24,2.5
					c7.51,0.27,15.05,1.04,22.5,0.13c7.45-0.91,15-3.75,19.86-9.48C434.23,771.47,435.62,762.45,431.2,756.38z"/>
			</g>
			<path class="st7" d="M180.49,677.73c0,0,52.87-2.02,141.38,66.22C321.86,743.95,245.97,671.46,180.49,677.73z"/>
			<path class="st7" d="M321.86,743.95c0,0,66.92-65.75,100.36-79.68C422.22,664.26,386.69,693.52,321.86,743.95z"/>
			<path class="st7" d="M219.72,751.05l85.4,26.16C305.12,777.21,262.43,776.99,219.72,751.05z"/>
			<path class="st7" d="M321.86,743.95c0,0,18.89,10.92,32.09,8.83c13.2-2.09,20.89-2.36,30.41,2.75
				c9.52,5.11,1.73-11.58,40.69-4.05c0,0-17.41-9.05-30.53-1.25c-10.09,6-24.56-2.66-40.93,0
				C345.52,751.54,343.89,750.95,321.86,743.95z"/>
		</g>
		<path class="st9" d="M201.88,660.25c0,0,62.75,49.6,73.01,60.06c15.94,16.25,19.85,109.51,19.85,109.51l24.85-82.24l15.89,82.24
			c0,0,4.49-98.51,13.29-115.32c13.21-25.25,65.82-58.56,65.82-58.56s-4.33,3.45-10.4-5.5c-6.31-9.31-14.39-31.25-16.45-43.58
			c-3.07-18.37-25.52,12.68-25.52,12.68l-47.62,39.08l-77.84-53.81c0,0,6.23,7.42,1.39,33.58
			C235.14,654.59,201.88,660.25,201.88,660.25z"/>
		<path class="st9" d="M298.57,424.76c0,0-47.44,13.03-68.15,28.73c-20.71,15.7-35.08,31.74-31.74,62.14
			c3.34,30.4,25.06,113.59,25.06,113.59s-3.01,33.74-3.01,35.75c0,2-0.33,7.68,7.02,8.02c7.35,0.33,95.55,4.01,115.26,4.34
			c19.71,0.33,45.77-1.67,48.78-4.01c3.01-2.34,4.68-6.01,5.01-10.02c0.33-4.01,3.67-53.12,3.67-53.12l0.33-22.05
			c0,0,21.71-72.16,23.05-95.55c1.34-23.39-7.35-31.07-17.04-38.42c-9.69-7.35-39.83-19.79-56.12-24.72
			C334.39,424.51,298.57,424.76,298.57,424.76z"/>
		<path class="st14" d="M369.45,631.45c0,0-31.55,78.38-31.31,87.96c0.24,9.58-2.69,110.4-2.69,110.4s1.64-111.83,28.97-134.17
			s52.47-36.87,52.47-36.87l-29.19-51.93L369.45,631.45z"/>
		<path class="st0" d="M270.56,431.43c0,0,50.37-24.28,104.28,6.8L329.1,562.09l-8.2,15.32L270.56,431.43z"/>
		<path class="st10" d="M300.53,621.32l-6.26,29.12l-18.28-12.91C275.99,637.52,294.51,613.37,300.53,621.32z"/>
		<path class="st0" d="M253.13,588.79l107.91-0.33c0,0,34.74-3.34,36.08-3.67c1.34-0.33,15.03,3.34,16.37,4.34
			c1.34,1,1.34,4.01,0.67,7.02c-0.67,3.01-0.67,3.01-0.67,3.01s1,5.35,1,7.68s-2.67,3.01-3.01,4.01c-0.33,1,2,4.68-0.67,7.02
			c-2.67,2.34-2.67,2.34-2.67,2.34s-0.33,6.35-1.67,8.02c-1.34,1.67-5.35,4.68-7.02,3.67s-1-3.67-1-5.35c0-1.67-0.67-3.34-2.67-3.34
			c-2,0-2.34,1.67-12.69-1c-10.36-2.67-21.71-11.69-22.72-12.03c-1-0.33-91.54,24.05-118.26,27.39s-29.06-0.33-30.07-4.68
			c-1-4.34-2.67-14.7-2.67-14.7l-4.68-20.38L253.13,588.79z"/>
		<path class="st10" d="M338.17,573.97c0,0,5.46,60.81,18,61.31c12.53,0.5,44.14,5.95,44.63-47.15
			C400.79,588.12,369.8,629.45,338.17,573.97z"/>
		<path class="st9" d="M435.87,480.22c-6.35-19.04-39.42-31.74-39.42-31.74l-5.35,32.07c-4.42,9.32-18.01,33.75-24.92,46.09
			c-0.4,0.18-0.64,0.3-0.64,0.3s-0.34,0.68-0.68,2.04c-1.75,3.11-2.83,5.02-2.83,5.02s0.81,4.2,3.34,10.65
			c0.93,3.96,2.51,8.58,5.06,13.87c10.15,21.05,14.29,61.28,19.17,59.78c4.89-1.5,11.28-13.91,14.66-20.3
			c2.19-4.13,5.3-11.88,6.23-21.61c7.44-15.29,18.05-36.12,20.36-43.05C434.2,523.31,442.22,499.26,435.87,480.22z"/>
		<path class="st14" d="M383.2,459.14c0,0,22.6,2.65,17.56,23.55c0,0,37.78,3.17-12.63,72.01c0,0,12.63,39.51,3.27,62.61
			c0,0,2.49-1.77,6.15-7.46c13.3-20.65,45.21-67.75,40.1-121.71c-3.02-31.91-62.85-49.91-62.85-49.91L383.2,459.14z"/>
		<path class="st26" d="M244.22,485.83c0.71-3.71,1.23-6.28,1.23-6.28"/>
		<path class="st9" d="M242.11,447.48c0,0-17.71,2.34-36.08,22.05c-18.37,19.71-7.83,107.89-7.83,107.89s0.26,23.9,2.9,30.87
			c0,0,48.85-4.17,57.37-19.51C258.46,588.78,261.97,458.37,242.11,447.48z"/>
		<path class="st9" d="M256.89,580.74c0,0-53.29-9.85-55.21,4.38c-12.43,92.24,90.82,63.52,90.82,63.52s-23.56-47.44,8.02-67.9
			H256.89z"/>
		<path class="st14" d="M230.13,485.83c0,0,9.83,51.17,8.21,85.07l10.03,3.07C248.37,573.97,254.26,502.13,230.13,485.83z"/>
		<polygon class="st14" points="319.59,680.88 294.7,829.82 319.56,747.58 		"/>
		<path class="st10" d="M403.28,476.38c0,0-26.07,25.84-27.07,57.03C376.22,533.41,387.74,500.94,403.28,476.38z"/>
		<path class="st10" d="M238.37,492.42c0,0,12.03,65.36,10.03,81.55C248.4,573.97,250.9,515.48,238.37,492.42z"/>
		<path class="st10" d="M284.49,584.76c0,0-49.62-17.15-63.66-16.65C220.83,568.11,244.89,561.82,284.49,584.76z"/>
		<path class="st10" d="M239.47,564.36c0,0-7.95-10.85-16.77-11.89C213.87,551.44,239.47,564.36,239.47,564.36z"/>
		<path class="st10" d="M226.31,646.41c0,0,18.58,8.78,66.2,2.22l1.76,1.8C294.27,650.44,255.92,659.84,226.31,646.41z"/>
		<path class="st10" d="M270.56,431.43l-21.57,54.67l20.89-11.61l-14.53,35.35l67.22,74.91
			C322.57,584.75,299.07,476.7,270.56,431.43z"/>
		<path class="st10" d="M370.79,428.1l21.87,54.55l-20.95-11.5l14.72,35.27l-66.81,75.28C319.62,581.7,342.53,473.52,370.79,428.1z"
			/>
		<path class="st0" d="M316.41,435.25c0,0-9.34-13.08-16.58-21.72c-7.24-8.64-14.71-13.78-17.28-13.08c-2.57,0.7-3.5,3.27-1.87,6.31
			c1.63,3.04,9.34,9.81,10.74,11.68c1.4,1.87,3.5,8.64,3.5,8.64s-6.77,0.47-7.94,1.87c-1.17,1.4-2.8,5.14-2.8,5.14
			s-2.34,1.17-3.5,3.04c-1.17,1.87-1.17,2.34-1.4,3.27c-0.23,0.93-3.5,2.57-3.27,6.77c0.23,4.2,0.07,12.43,1.47,15.23
			c1.4,2.8,15.81,13.02,17.68,15.13s12.61,20.78,15.41,27.09c2.8,6.31,29.89,79.4,37.83,90.38c7.94,10.98,22.65,21.49,30.59,25.22
			c7.94,3.74,13.55-2.57,17.28-10.51c3.74-7.94,7.01-23.82-0.23-42.04c-7.24-18.22-21.49-33.86-32.46-43.2s-31.53-32.7-33.86-36.9
			s-5.37-13.55-5.37-13.55s6.07-17.75,6.54-21.95c0.47-4.2-1.87-11.68-1.17-14.95c0.7-3.27,3.5-9.81,4.67-12.61
			c1.17-2.8,5.14-7.47,3.04-9.58s-10.74,0.47-13.78,5.37C320.61,425.21,316.41,435.25,316.41,435.25z"/>
		<path class="st7" d="M329.72,437.12c0,0,3.66,22.51-5.37,36.9C324.35,474.02,342.25,451.83,329.72,437.12z"/>
		<path class="st7" d="M334.39,424.51c0,0-5.37,4.19-4.67,12.61C329.72,437.12,331.58,429.69,334.39,424.51z"/>
		<path class="st7" d="M324.35,474.02c0,0,4.01,19.88,17.41,28.23C341.76,502.25,329.99,486.69,324.35,474.02z"/>
		<path class="st7" d="M292.19,474.02l35.39,74.09C327.58,548.11,310.04,493.46,292.19,474.02z"/>
		<path class="st7" d="M277.53,442.47l1.74-2.08c0,0,1.46-5.62,4.9-6.31c0,0,1.92-6.15,4.44-5.99c2.51,0.16,6.31-1.02,6.31-1.02
			s-6.98-0.57-9.68,1.02c-2.7,1.59-2.26,4.93-2.26,4.93s-4.14,1.81-4.76,6.39C278.22,439.41,277.24,440.5,277.53,442.47z"/>
		<path class="st10" d="M319.62,628.14V741.4C319.62,741.4,327.99,647.98,319.62,628.14z"/>
		<path class="st7" d="M294.92,427.08c0,0-20.46-22.33-12.38-26.62c8.08-4.3,33.65,32.19,33.65,32.19s-22.7-37.26-35.83-35.39
			C267.23,399.12,294.92,427.08,294.92,427.08z"/>
		<path class="st7" d="M316.19,432.65c0,0,10.14-20.32,21.23-17.71C337.42,414.93,319.81,414.1,316.19,432.65z"/>
		<circle class="st10" cx="331.79" cy="646.41" r="2.46"/>
		<circle class="st10" cx="331.79" cy="690.57" r="2.46"/>
		<circle class="st10" cx="329.33" cy="738.62" r="2.46"/>
		<polygon class="st10" points="255.59,555.29 291.19,565.19 288.72,576.04 255.59,567.32 		"/>
	</g>
	<path class="st10" d="M223.6,656.83l19.9,15.49C243.5,672.32,236.12,660.45,223.6,656.83z"/>
	<path class="st10" d="M397.54,642.69l-19.9,15.49C377.64,658.18,385.02,646.32,397.54,642.69z"/>
</g>
</svg>
